M48
;DRILL file {KiCad (2016-12-20 revision 2972f6f)-master} date Wed Jun 24 23:38:59 2020
;FORMAT={3:3/ absolute / metric / suppress leading zeros}
FMAT,2
METRIC,TZ
T1C0.500
T2C0.700
T3C0.800
T4C0.900
T5C1.000
T6C3.200
%
G90
G05
M71
T1
X1000Y1400
X1100Y47200
X1200Y42100
X1500Y80800
X1700Y22300
X3500Y47800
X6000Y20600
X6800Y51100
X6900Y39000
X7000Y78100
X7300Y45700
X8000Y18700
X8100Y28900
X8200Y58400
X8900Y71600
X9100Y66500
X9100Y63600
X9400Y5600
X9400Y2600
X9500Y75100
X9700Y58100
X10200Y27200
X10200Y16400
X10300Y12500
X11000Y52700
X11300Y51100
X11800Y19200
X13100Y69200
X13200Y80500
X13500Y30800
X13600Y1700
X13700Y19900
X13800Y24600
X14600Y12100
X14700Y10300
X14800Y4700
X15600Y49800
X15800Y28200
X16100Y69400
X16800Y66600
X17400Y8000
X18500Y59400
X18900Y30900
X19200Y27300
X19500Y15100
X19700Y56900
X19900Y71400
X19900Y63100
X19900Y1200
X20000Y79500
X20100Y42800
X20800Y52700
X21300Y58600
X21600Y38200
X21900Y32500
X22000Y66600
X22400Y50700
X22600Y11900
X22900Y60500
X23400Y58900
X23400Y20900
X23900Y70200
X24700Y62300
X24700Y42500
X24800Y5800
X25200Y49700
X27100Y78000
X27600Y42300
X27800Y80900
X27800Y52100
X27800Y47000
X27800Y28700
X27900Y23300
T2
X14500Y62940
X14500Y57860
X14500Y44940
X14500Y39860
X17900Y19340
X17900Y14260
T3
X10700Y72700
X10700Y65100
X12900Y72710
X12900Y65090
X16100Y72710
X16100Y65090
X18300Y72710
X18300Y65090
T4
X2850Y40800
X4250Y4300
X5350Y40800
X6550Y10400
X6750Y4300
X8280Y55110
X8280Y47490
X9050Y10400
X9250Y30300
X10820Y55110
X10820Y47490
X11000Y79050
X11000Y76550
X11750Y30300
X13360Y55110
X13360Y47490
X15900Y55110
X15900Y47490
X17550Y29000
X18000Y79050
X18000Y76550
X18440Y55110
X18440Y47490
X18750Y10200
X20050Y29000
X20950Y16400
X20980Y55110
X20980Y47490
X21250Y10200
X23450Y16400
X23520Y55110
X23520Y47490
X23550Y40800
X26050Y40800
T5
X1500Y76350
X1500Y73810
X1500Y71270
X1500Y68730
X1500Y66190
X1500Y63650
X1500Y20350
X1500Y17810
X1500Y15270
X1500Y12730
X1500Y10190
X1500Y7650
X2300Y61100
X2300Y58100
X2300Y55300
X2300Y45300
X4400Y74800
X4400Y64800
X5300Y55300
X5300Y45300
X6000Y24800
X6000Y14800
X7400Y74800
X7400Y64800
X8900Y44700
X8900Y34700
X9100Y24800
X9100Y14800
X11600Y5500
X11600Y2500
X11900Y44700
X11900Y34700
X12200Y26100
X12200Y16100
X12300Y61100
X12300Y58100
X15200Y26100
X15200Y16100
X16700Y61100
X16700Y58100
X17000Y44700
X17000Y34700
X20000Y44700
X20000Y34700
X21600Y74800
X21600Y64800
X21600Y5500
X21600Y2500
X23700Y36100
X23700Y26100
X24600Y74800
X24600Y64800
X24700Y12300
X24700Y2300
X26600Y55300
X26600Y45300
X26700Y61100
X26700Y58100
X26700Y36100
X26700Y26100
X27500Y76350
X27500Y73810
X27500Y71270
X27500Y68730
X27500Y66190
X27500Y63650
X27500Y20350
X27500Y17810
X27500Y15270
X27500Y12730
X27500Y10190
X27500Y7650
T6
X3800Y33500
T0
M30
