G04 #@! TF.GenerationSoftware,KiCad,Pcbnew,(2016-12-20 revision 2972f6f)-master*
G04 #@! TF.CreationDate,2020-06-24T23:38:58+03:00*
G04 #@! TF.ProjectId,DIYOUT3M,4449594F5554334D2E6B696361645F70,rev?*
G04 #@! TF.FileFunction,Soldermask,Bot*
G04 #@! TF.FilePolarity,Negative*
%FSLAX46Y46*%
G04 Gerber Fmt 4.6, Leading zero omitted, Abs format (unit mm)*
G04 Created by KiCad (PCBNEW (2016-12-20 revision 2972f6f)-master) date Wed Jun 24 23:38:58 2020*
%MOMM*%
%LPD*%
G01*
G04 APERTURE LIST*
%ADD10C,0.100000*%
%ADD11C,1.600000*%
%ADD12R,1.600000X1.600000*%
%ADD13R,1.400000X1.400000*%
%ADD14C,1.400000*%
%ADD15C,1.200000*%
%ADD16R,1.600000X2.200000*%
%ADD17O,1.600000X2.200000*%
%ADD18C,0.600000*%
%ADD19C,6.000000*%
%ADD20C,2.000000*%
G04 APERTURE END LIST*
D10*
D11*
X10700000Y72700000D03*
X10700000Y65100000D03*
X1500000Y63650000D03*
X1500000Y66190000D03*
X1500000Y68730000D03*
X1500000Y71270000D03*
D12*
X1500000Y76350000D03*
D11*
X1500000Y73810000D03*
X1500000Y7650000D03*
X1500000Y10190000D03*
X1500000Y12730000D03*
X1500000Y15270000D03*
D12*
X1500000Y20350000D03*
D11*
X1500000Y17810000D03*
X27500000Y63650000D03*
X27500000Y66190000D03*
X27500000Y68730000D03*
X27500000Y71270000D03*
D12*
X27500000Y76350000D03*
D11*
X27500000Y73810000D03*
X27500000Y7650000D03*
X27500000Y10190000D03*
X27500000Y12730000D03*
X27500000Y15270000D03*
D12*
X27500000Y20350000D03*
D11*
X27500000Y17810000D03*
D13*
X18000000Y79050000D03*
D14*
X18000000Y76550000D03*
D13*
X11000000Y79050000D03*
D14*
X11000000Y76550000D03*
D15*
X14500000Y57860000D03*
X14500000Y62940000D03*
X14500000Y39860000D03*
X14500000Y44940000D03*
D13*
X6750000Y4300000D03*
D14*
X4250000Y4300000D03*
D15*
X17900000Y14260000D03*
X17900000Y19340000D03*
D13*
X9050000Y10400000D03*
D14*
X6550000Y10400000D03*
D13*
X20950000Y16400000D03*
D14*
X23450000Y16400000D03*
D13*
X11750000Y30300000D03*
D14*
X9250000Y30300000D03*
D13*
X5350000Y40800000D03*
D14*
X2850000Y40800000D03*
D13*
X23550000Y40800000D03*
D14*
X26050000Y40800000D03*
D13*
X17550000Y29000000D03*
D14*
X20050000Y29000000D03*
D13*
X18750000Y10200000D03*
D14*
X21250000Y10200000D03*
D16*
X8280000Y55110000D03*
D17*
X10820000Y55110000D03*
X13360000Y55110000D03*
X15900000Y55110000D03*
X18440000Y55110000D03*
X20980000Y55110000D03*
X23520000Y55110000D03*
X23520000Y47490000D03*
X20980000Y47490000D03*
X18440000Y47490000D03*
X15900000Y47490000D03*
X13360000Y47490000D03*
X10820000Y47490000D03*
X8280000Y47490000D03*
D11*
X18300000Y65090000D03*
X18300000Y72710000D03*
X12900000Y72710000D03*
X12900000Y65090000D03*
X16100000Y72710000D03*
X16100000Y65090000D03*
D10*
G36*
X15996762Y8999422D02*
X16008411Y8997694D01*
X16019834Y8994833D01*
X16030922Y8990866D01*
X16041568Y8985831D01*
X16051668Y8979776D01*
X16061127Y8972761D01*
X16069853Y8964853D01*
X16077761Y8956127D01*
X16084776Y8946668D01*
X16090831Y8936568D01*
X16095866Y8925922D01*
X16099833Y8914834D01*
X16102694Y8903411D01*
X16104422Y8891762D01*
X16105000Y8880000D01*
X16105000Y7520000D01*
X16104422Y7508238D01*
X16102694Y7496589D01*
X16099833Y7485166D01*
X16095866Y7474078D01*
X16090831Y7463432D01*
X16084776Y7453332D01*
X16077761Y7443873D01*
X16069853Y7435147D01*
X16061127Y7427239D01*
X16051668Y7420224D01*
X16041568Y7414169D01*
X16030922Y7409134D01*
X16019834Y7405167D01*
X16008411Y7402306D01*
X15996762Y7400578D01*
X15985000Y7400000D01*
X15625000Y7400000D01*
X15613238Y7400578D01*
X15601589Y7402306D01*
X15590166Y7405167D01*
X15579078Y7409134D01*
X15568432Y7414169D01*
X15558332Y7420224D01*
X15548873Y7427239D01*
X15540147Y7435147D01*
X15532239Y7443873D01*
X15525224Y7453332D01*
X15519169Y7463432D01*
X15514134Y7474078D01*
X15510167Y7485166D01*
X15507306Y7496589D01*
X15505578Y7508238D01*
X15505000Y7520000D01*
X15505000Y8880000D01*
X15505578Y8891762D01*
X15507306Y8903411D01*
X15510167Y8914834D01*
X15514134Y8925922D01*
X15519169Y8936568D01*
X15525224Y8946668D01*
X15532239Y8956127D01*
X15540147Y8964853D01*
X15548873Y8972761D01*
X15558332Y8979776D01*
X15568432Y8985831D01*
X15579078Y8990866D01*
X15590166Y8994833D01*
X15601589Y8997694D01*
X15613238Y8999422D01*
X15625000Y9000000D01*
X15985000Y9000000D01*
X15996762Y8999422D01*
X15996762Y8999422D01*
G37*
D18*
X15805000Y8200000D03*
D10*
G36*
X14726762Y8999422D02*
X14738411Y8997694D01*
X14749834Y8994833D01*
X14760922Y8990866D01*
X14771568Y8985831D01*
X14781668Y8979776D01*
X14791127Y8972761D01*
X14799853Y8964853D01*
X14807761Y8956127D01*
X14814776Y8946668D01*
X14820831Y8936568D01*
X14825866Y8925922D01*
X14829833Y8914834D01*
X14832694Y8903411D01*
X14834422Y8891762D01*
X14835000Y8880000D01*
X14835000Y7520000D01*
X14834422Y7508238D01*
X14832694Y7496589D01*
X14829833Y7485166D01*
X14825866Y7474078D01*
X14820831Y7463432D01*
X14814776Y7453332D01*
X14807761Y7443873D01*
X14799853Y7435147D01*
X14791127Y7427239D01*
X14781668Y7420224D01*
X14771568Y7414169D01*
X14760922Y7409134D01*
X14749834Y7405167D01*
X14738411Y7402306D01*
X14726762Y7400578D01*
X14715000Y7400000D01*
X14355000Y7400000D01*
X14343238Y7400578D01*
X14331589Y7402306D01*
X14320166Y7405167D01*
X14309078Y7409134D01*
X14298432Y7414169D01*
X14288332Y7420224D01*
X14278873Y7427239D01*
X14270147Y7435147D01*
X14262239Y7443873D01*
X14255224Y7453332D01*
X14249169Y7463432D01*
X14244134Y7474078D01*
X14240167Y7485166D01*
X14237306Y7496589D01*
X14235578Y7508238D01*
X14235000Y7520000D01*
X14235000Y8880000D01*
X14235578Y8891762D01*
X14237306Y8903411D01*
X14240167Y8914834D01*
X14244134Y8925922D01*
X14249169Y8936568D01*
X14255224Y8946668D01*
X14262239Y8956127D01*
X14270147Y8964853D01*
X14278873Y8972761D01*
X14288332Y8979776D01*
X14298432Y8985831D01*
X14309078Y8990866D01*
X14320166Y8994833D01*
X14331589Y8997694D01*
X14343238Y8999422D01*
X14355000Y9000000D01*
X14715000Y9000000D01*
X14726762Y8999422D01*
X14726762Y8999422D01*
G37*
D18*
X14535000Y8200000D03*
D10*
G36*
X13456762Y8999422D02*
X13468411Y8997694D01*
X13479834Y8994833D01*
X13490922Y8990866D01*
X13501568Y8985831D01*
X13511668Y8979776D01*
X13521127Y8972761D01*
X13529853Y8964853D01*
X13537761Y8956127D01*
X13544776Y8946668D01*
X13550831Y8936568D01*
X13555866Y8925922D01*
X13559833Y8914834D01*
X13562694Y8903411D01*
X13564422Y8891762D01*
X13565000Y8880000D01*
X13565000Y7520000D01*
X13564422Y7508238D01*
X13562694Y7496589D01*
X13559833Y7485166D01*
X13555866Y7474078D01*
X13550831Y7463432D01*
X13544776Y7453332D01*
X13537761Y7443873D01*
X13529853Y7435147D01*
X13521127Y7427239D01*
X13511668Y7420224D01*
X13501568Y7414169D01*
X13490922Y7409134D01*
X13479834Y7405167D01*
X13468411Y7402306D01*
X13456762Y7400578D01*
X13445000Y7400000D01*
X13085000Y7400000D01*
X13073238Y7400578D01*
X13061589Y7402306D01*
X13050166Y7405167D01*
X13039078Y7409134D01*
X13028432Y7414169D01*
X13018332Y7420224D01*
X13008873Y7427239D01*
X13000147Y7435147D01*
X12992239Y7443873D01*
X12985224Y7453332D01*
X12979169Y7463432D01*
X12974134Y7474078D01*
X12970167Y7485166D01*
X12967306Y7496589D01*
X12965578Y7508238D01*
X12965000Y7520000D01*
X12965000Y8880000D01*
X12965578Y8891762D01*
X12967306Y8903411D01*
X12970167Y8914834D01*
X12974134Y8925922D01*
X12979169Y8936568D01*
X12985224Y8946668D01*
X12992239Y8956127D01*
X13000147Y8964853D01*
X13008873Y8972761D01*
X13018332Y8979776D01*
X13028432Y8985831D01*
X13039078Y8990866D01*
X13050166Y8994833D01*
X13061589Y8997694D01*
X13073238Y8999422D01*
X13085000Y9000000D01*
X13445000Y9000000D01*
X13456762Y8999422D01*
X13456762Y8999422D01*
G37*
D18*
X13265000Y8200000D03*
D10*
G36*
X12186762Y8999422D02*
X12198411Y8997694D01*
X12209834Y8994833D01*
X12220922Y8990866D01*
X12231568Y8985831D01*
X12241668Y8979776D01*
X12251127Y8972761D01*
X12259853Y8964853D01*
X12267761Y8956127D01*
X12274776Y8946668D01*
X12280831Y8936568D01*
X12285866Y8925922D01*
X12289833Y8914834D01*
X12292694Y8903411D01*
X12294422Y8891762D01*
X12295000Y8880000D01*
X12295000Y7520000D01*
X12294422Y7508238D01*
X12292694Y7496589D01*
X12289833Y7485166D01*
X12285866Y7474078D01*
X12280831Y7463432D01*
X12274776Y7453332D01*
X12267761Y7443873D01*
X12259853Y7435147D01*
X12251127Y7427239D01*
X12241668Y7420224D01*
X12231568Y7414169D01*
X12220922Y7409134D01*
X12209834Y7405167D01*
X12198411Y7402306D01*
X12186762Y7400578D01*
X12175000Y7400000D01*
X11815000Y7400000D01*
X11803238Y7400578D01*
X11791589Y7402306D01*
X11780166Y7405167D01*
X11769078Y7409134D01*
X11758432Y7414169D01*
X11748332Y7420224D01*
X11738873Y7427239D01*
X11730147Y7435147D01*
X11722239Y7443873D01*
X11715224Y7453332D01*
X11709169Y7463432D01*
X11704134Y7474078D01*
X11700167Y7485166D01*
X11697306Y7496589D01*
X11695578Y7508238D01*
X11695000Y7520000D01*
X11695000Y8880000D01*
X11695578Y8891762D01*
X11697306Y8903411D01*
X11700167Y8914834D01*
X11704134Y8925922D01*
X11709169Y8936568D01*
X11715224Y8946668D01*
X11722239Y8956127D01*
X11730147Y8964853D01*
X11738873Y8972761D01*
X11748332Y8979776D01*
X11758432Y8985831D01*
X11769078Y8990866D01*
X11780166Y8994833D01*
X11791589Y8997694D01*
X11803238Y8999422D01*
X11815000Y9000000D01*
X12175000Y9000000D01*
X12186762Y8999422D01*
X12186762Y8999422D01*
G37*
D18*
X11995000Y8200000D03*
D10*
G36*
X12186762Y14399422D02*
X12198411Y14397694D01*
X12209834Y14394833D01*
X12220922Y14390866D01*
X12231568Y14385831D01*
X12241668Y14379776D01*
X12251127Y14372761D01*
X12259853Y14364853D01*
X12267761Y14356127D01*
X12274776Y14346668D01*
X12280831Y14336568D01*
X12285866Y14325922D01*
X12289833Y14314834D01*
X12292694Y14303411D01*
X12294422Y14291762D01*
X12295000Y14280000D01*
X12295000Y12920000D01*
X12294422Y12908238D01*
X12292694Y12896589D01*
X12289833Y12885166D01*
X12285866Y12874078D01*
X12280831Y12863432D01*
X12274776Y12853332D01*
X12267761Y12843873D01*
X12259853Y12835147D01*
X12251127Y12827239D01*
X12241668Y12820224D01*
X12231568Y12814169D01*
X12220922Y12809134D01*
X12209834Y12805167D01*
X12198411Y12802306D01*
X12186762Y12800578D01*
X12175000Y12800000D01*
X11815000Y12800000D01*
X11803238Y12800578D01*
X11791589Y12802306D01*
X11780166Y12805167D01*
X11769078Y12809134D01*
X11758432Y12814169D01*
X11748332Y12820224D01*
X11738873Y12827239D01*
X11730147Y12835147D01*
X11722239Y12843873D01*
X11715224Y12853332D01*
X11709169Y12863432D01*
X11704134Y12874078D01*
X11700167Y12885166D01*
X11697306Y12896589D01*
X11695578Y12908238D01*
X11695000Y12920000D01*
X11695000Y14280000D01*
X11695578Y14291762D01*
X11697306Y14303411D01*
X11700167Y14314834D01*
X11704134Y14325922D01*
X11709169Y14336568D01*
X11715224Y14346668D01*
X11722239Y14356127D01*
X11730147Y14364853D01*
X11738873Y14372761D01*
X11748332Y14379776D01*
X11758432Y14385831D01*
X11769078Y14390866D01*
X11780166Y14394833D01*
X11791589Y14397694D01*
X11803238Y14399422D01*
X11815000Y14400000D01*
X12175000Y14400000D01*
X12186762Y14399422D01*
X12186762Y14399422D01*
G37*
D18*
X11995000Y13600000D03*
D10*
G36*
X13456762Y14399422D02*
X13468411Y14397694D01*
X13479834Y14394833D01*
X13490922Y14390866D01*
X13501568Y14385831D01*
X13511668Y14379776D01*
X13521127Y14372761D01*
X13529853Y14364853D01*
X13537761Y14356127D01*
X13544776Y14346668D01*
X13550831Y14336568D01*
X13555866Y14325922D01*
X13559833Y14314834D01*
X13562694Y14303411D01*
X13564422Y14291762D01*
X13565000Y14280000D01*
X13565000Y12920000D01*
X13564422Y12908238D01*
X13562694Y12896589D01*
X13559833Y12885166D01*
X13555866Y12874078D01*
X13550831Y12863432D01*
X13544776Y12853332D01*
X13537761Y12843873D01*
X13529853Y12835147D01*
X13521127Y12827239D01*
X13511668Y12820224D01*
X13501568Y12814169D01*
X13490922Y12809134D01*
X13479834Y12805167D01*
X13468411Y12802306D01*
X13456762Y12800578D01*
X13445000Y12800000D01*
X13085000Y12800000D01*
X13073238Y12800578D01*
X13061589Y12802306D01*
X13050166Y12805167D01*
X13039078Y12809134D01*
X13028432Y12814169D01*
X13018332Y12820224D01*
X13008873Y12827239D01*
X13000147Y12835147D01*
X12992239Y12843873D01*
X12985224Y12853332D01*
X12979169Y12863432D01*
X12974134Y12874078D01*
X12970167Y12885166D01*
X12967306Y12896589D01*
X12965578Y12908238D01*
X12965000Y12920000D01*
X12965000Y14280000D01*
X12965578Y14291762D01*
X12967306Y14303411D01*
X12970167Y14314834D01*
X12974134Y14325922D01*
X12979169Y14336568D01*
X12985224Y14346668D01*
X12992239Y14356127D01*
X13000147Y14364853D01*
X13008873Y14372761D01*
X13018332Y14379776D01*
X13028432Y14385831D01*
X13039078Y14390866D01*
X13050166Y14394833D01*
X13061589Y14397694D01*
X13073238Y14399422D01*
X13085000Y14400000D01*
X13445000Y14400000D01*
X13456762Y14399422D01*
X13456762Y14399422D01*
G37*
D18*
X13265000Y13600000D03*
D10*
G36*
X14726762Y14399422D02*
X14738411Y14397694D01*
X14749834Y14394833D01*
X14760922Y14390866D01*
X14771568Y14385831D01*
X14781668Y14379776D01*
X14791127Y14372761D01*
X14799853Y14364853D01*
X14807761Y14356127D01*
X14814776Y14346668D01*
X14820831Y14336568D01*
X14825866Y14325922D01*
X14829833Y14314834D01*
X14832694Y14303411D01*
X14834422Y14291762D01*
X14835000Y14280000D01*
X14835000Y12920000D01*
X14834422Y12908238D01*
X14832694Y12896589D01*
X14829833Y12885166D01*
X14825866Y12874078D01*
X14820831Y12863432D01*
X14814776Y12853332D01*
X14807761Y12843873D01*
X14799853Y12835147D01*
X14791127Y12827239D01*
X14781668Y12820224D01*
X14771568Y12814169D01*
X14760922Y12809134D01*
X14749834Y12805167D01*
X14738411Y12802306D01*
X14726762Y12800578D01*
X14715000Y12800000D01*
X14355000Y12800000D01*
X14343238Y12800578D01*
X14331589Y12802306D01*
X14320166Y12805167D01*
X14309078Y12809134D01*
X14298432Y12814169D01*
X14288332Y12820224D01*
X14278873Y12827239D01*
X14270147Y12835147D01*
X14262239Y12843873D01*
X14255224Y12853332D01*
X14249169Y12863432D01*
X14244134Y12874078D01*
X14240167Y12885166D01*
X14237306Y12896589D01*
X14235578Y12908238D01*
X14235000Y12920000D01*
X14235000Y14280000D01*
X14235578Y14291762D01*
X14237306Y14303411D01*
X14240167Y14314834D01*
X14244134Y14325922D01*
X14249169Y14336568D01*
X14255224Y14346668D01*
X14262239Y14356127D01*
X14270147Y14364853D01*
X14278873Y14372761D01*
X14288332Y14379776D01*
X14298432Y14385831D01*
X14309078Y14390866D01*
X14320166Y14394833D01*
X14331589Y14397694D01*
X14343238Y14399422D01*
X14355000Y14400000D01*
X14715000Y14400000D01*
X14726762Y14399422D01*
X14726762Y14399422D01*
G37*
D18*
X14535000Y13600000D03*
D10*
G36*
X15996762Y14399422D02*
X16008411Y14397694D01*
X16019834Y14394833D01*
X16030922Y14390866D01*
X16041568Y14385831D01*
X16051668Y14379776D01*
X16061127Y14372761D01*
X16069853Y14364853D01*
X16077761Y14356127D01*
X16084776Y14346668D01*
X16090831Y14336568D01*
X16095866Y14325922D01*
X16099833Y14314834D01*
X16102694Y14303411D01*
X16104422Y14291762D01*
X16105000Y14280000D01*
X16105000Y12920000D01*
X16104422Y12908238D01*
X16102694Y12896589D01*
X16099833Y12885166D01*
X16095866Y12874078D01*
X16090831Y12863432D01*
X16084776Y12853332D01*
X16077761Y12843873D01*
X16069853Y12835147D01*
X16061127Y12827239D01*
X16051668Y12820224D01*
X16041568Y12814169D01*
X16030922Y12809134D01*
X16019834Y12805167D01*
X16008411Y12802306D01*
X15996762Y12800578D01*
X15985000Y12800000D01*
X15625000Y12800000D01*
X15613238Y12800578D01*
X15601589Y12802306D01*
X15590166Y12805167D01*
X15579078Y12809134D01*
X15568432Y12814169D01*
X15558332Y12820224D01*
X15548873Y12827239D01*
X15540147Y12835147D01*
X15532239Y12843873D01*
X15525224Y12853332D01*
X15519169Y12863432D01*
X15514134Y12874078D01*
X15510167Y12885166D01*
X15507306Y12896589D01*
X15505578Y12908238D01*
X15505000Y12920000D01*
X15505000Y14280000D01*
X15505578Y14291762D01*
X15507306Y14303411D01*
X15510167Y14314834D01*
X15514134Y14325922D01*
X15519169Y14336568D01*
X15525224Y14346668D01*
X15532239Y14356127D01*
X15540147Y14364853D01*
X15548873Y14372761D01*
X15558332Y14379776D01*
X15568432Y14385831D01*
X15579078Y14390866D01*
X15590166Y14394833D01*
X15601589Y14397694D01*
X15613238Y14399422D01*
X15625000Y14400000D01*
X15985000Y14400000D01*
X15996762Y14399422D01*
X15996762Y14399422D01*
G37*
D18*
X15805000Y13600000D03*
D19*
X3800000Y33500000D03*
D20*
X9100000Y24800000D03*
X9100000Y14800000D03*
X26700000Y58100000D03*
X16700000Y58100000D03*
X6000000Y24800000D03*
X6000000Y14800000D03*
X21600000Y2500000D03*
X11600000Y2500000D03*
X11600000Y5500000D03*
X21600000Y5500000D03*
X12200000Y16100000D03*
X12200000Y26100000D03*
X15200000Y16100000D03*
X15200000Y26100000D03*
X8900000Y44700000D03*
X8900000Y34700000D03*
X20000000Y34700000D03*
X20000000Y44700000D03*
X11900000Y44700000D03*
X11900000Y34700000D03*
X17000000Y34700000D03*
X17000000Y44700000D03*
X26700000Y36100000D03*
X26700000Y26100000D03*
X24700000Y12300000D03*
X24700000Y2300000D03*
X12300000Y61100000D03*
X2300000Y61100000D03*
X16700000Y61100000D03*
X26700000Y61100000D03*
X12300000Y58100000D03*
X2300000Y58100000D03*
X4400000Y64800000D03*
X4400000Y74800000D03*
X24600000Y64800000D03*
X24600000Y74800000D03*
X7400000Y74800000D03*
X7400000Y64800000D03*
X21600000Y64800000D03*
X21600000Y74800000D03*
X5300000Y55300000D03*
X5300000Y45300000D03*
X23700000Y36100000D03*
X23700000Y26100000D03*
X2300000Y45300000D03*
X2300000Y55300000D03*
X26600000Y55300000D03*
X26600000Y45300000D03*
M02*
