G04 #@! TF.GenerationSoftware,KiCad,Pcbnew,(2016-12-20 revision 2972f6f)-master*
G04 #@! TF.CreationDate,2020-06-24T23:38:58+03:00*
G04 #@! TF.ProjectId,DIYOUT3M,4449594F5554334D2E6B696361645F70,rev?*
G04 #@! TF.FileFunction,Soldermask,Top*
G04 #@! TF.FilePolarity,Negative*
%FSLAX46Y46*%
G04 Gerber Fmt 4.6, Leading zero omitted, Abs format (unit mm)*
G04 Created by KiCad (PCBNEW (2016-12-20 revision 2972f6f)-master) date Wed Jun 24 23:38:58 2020*
%MOMM*%
%LPD*%
G01*
G04 APERTURE LIST*
%ADD10C,0.100000*%
%ADD11C,1.600000*%
%ADD12R,1.600000X1.600000*%
%ADD13R,1.400000X1.400000*%
%ADD14C,1.400000*%
%ADD15C,1.200000*%
%ADD16R,1.600000X2.200000*%
%ADD17O,1.600000X2.200000*%
%ADD18C,6.000000*%
%ADD19C,2.000000*%
G04 APERTURE END LIST*
D10*
D11*
X10700000Y72700000D03*
X10700000Y65100000D03*
X1500000Y63650000D03*
X1500000Y66190000D03*
X1500000Y68730000D03*
X1500000Y71270000D03*
D12*
X1500000Y76350000D03*
D11*
X1500000Y73810000D03*
X1500000Y7650000D03*
X1500000Y10190000D03*
X1500000Y12730000D03*
X1500000Y15270000D03*
D12*
X1500000Y20350000D03*
D11*
X1500000Y17810000D03*
X27500000Y63650000D03*
X27500000Y66190000D03*
X27500000Y68730000D03*
X27500000Y71270000D03*
D12*
X27500000Y76350000D03*
D11*
X27500000Y73810000D03*
X27500000Y7650000D03*
X27500000Y10190000D03*
X27500000Y12730000D03*
X27500000Y15270000D03*
D12*
X27500000Y20350000D03*
D11*
X27500000Y17810000D03*
D13*
X18000000Y79050000D03*
D14*
X18000000Y76550000D03*
D13*
X11000000Y79050000D03*
D14*
X11000000Y76550000D03*
D15*
X14500000Y57860000D03*
X14500000Y62940000D03*
X14500000Y39860000D03*
X14500000Y44940000D03*
D13*
X6750000Y4300000D03*
D14*
X4250000Y4300000D03*
D15*
X17900000Y14260000D03*
X17900000Y19340000D03*
D13*
X9050000Y10400000D03*
D14*
X6550000Y10400000D03*
D13*
X20950000Y16400000D03*
D14*
X23450000Y16400000D03*
D13*
X11750000Y30300000D03*
D14*
X9250000Y30300000D03*
D13*
X5350000Y40800000D03*
D14*
X2850000Y40800000D03*
D13*
X23550000Y40800000D03*
D14*
X26050000Y40800000D03*
D13*
X17550000Y29000000D03*
D14*
X20050000Y29000000D03*
D13*
X18750000Y10200000D03*
D14*
X21250000Y10200000D03*
D16*
X8280000Y55110000D03*
D17*
X10820000Y55110000D03*
X13360000Y55110000D03*
X15900000Y55110000D03*
X18440000Y55110000D03*
X20980000Y55110000D03*
X23520000Y55110000D03*
X23520000Y47490000D03*
X20980000Y47490000D03*
X18440000Y47490000D03*
X15900000Y47490000D03*
X13360000Y47490000D03*
X10820000Y47490000D03*
X8280000Y47490000D03*
D11*
X18300000Y65090000D03*
X18300000Y72710000D03*
X12900000Y72710000D03*
X12900000Y65090000D03*
X16100000Y72710000D03*
X16100000Y65090000D03*
D18*
X3800000Y33500000D03*
D19*
X9100000Y24800000D03*
X9100000Y14800000D03*
X26700000Y58100000D03*
X16700000Y58100000D03*
X6000000Y24800000D03*
X6000000Y14800000D03*
X21600000Y2500000D03*
X11600000Y2500000D03*
X11600000Y5500000D03*
X21600000Y5500000D03*
X12200000Y16100000D03*
X12200000Y26100000D03*
X15200000Y16100000D03*
X15200000Y26100000D03*
X8900000Y44700000D03*
X8900000Y34700000D03*
X20000000Y34700000D03*
X20000000Y44700000D03*
X11900000Y44700000D03*
X11900000Y34700000D03*
X17000000Y34700000D03*
X17000000Y44700000D03*
X26700000Y36100000D03*
X26700000Y26100000D03*
X24700000Y12300000D03*
X24700000Y2300000D03*
X12300000Y61100000D03*
X2300000Y61100000D03*
X16700000Y61100000D03*
X26700000Y61100000D03*
X12300000Y58100000D03*
X2300000Y58100000D03*
X4400000Y64800000D03*
X4400000Y74800000D03*
X24600000Y64800000D03*
X24600000Y74800000D03*
X7400000Y74800000D03*
X7400000Y64800000D03*
X21600000Y64800000D03*
X21600000Y74800000D03*
X5300000Y55300000D03*
X5300000Y45300000D03*
X23700000Y36100000D03*
X23700000Y26100000D03*
X2300000Y45300000D03*
X2300000Y55300000D03*
X26600000Y55300000D03*
X26600000Y45300000D03*
M02*
