G04 #@! TF.GenerationSoftware,KiCad,Pcbnew,(2016-12-20 revision 2972f6f)-master*
G04 #@! TF.CreationDate,2020-06-24T23:38:58+03:00*
G04 #@! TF.ProjectId,DIYOUT3M,4449594F5554334D2E6B696361645F70,rev?*
G04 #@! TF.FileFunction,Copper,L1,Top,Signal*
G04 #@! TF.FilePolarity,Positive*
%FSLAX46Y46*%
G04 Gerber Fmt 4.6, Leading zero omitted, Abs format (unit mm)*
G04 Created by KiCad (PCBNEW (2016-12-20 revision 2972f6f)-master) date Wed Jun 24 23:38:58 2020*
%MOMM*%
%LPD*%
G01*
G04 APERTURE LIST*
%ADD10C,0.100000*%
%ADD11C,1.600000*%
%ADD12R,1.600000X1.600000*%
%ADD13R,1.400000X1.400000*%
%ADD14C,1.400000*%
%ADD15C,1.200000*%
%ADD16R,1.600000X2.200000*%
%ADD17O,1.600000X2.200000*%
%ADD18C,6.000000*%
%ADD19C,2.000000*%
%ADD20C,0.900000*%
%ADD21C,0.300000*%
G04 APERTURE END LIST*
D10*
D11*
X10700000Y72700000D03*
X10700000Y65100000D03*
X1500000Y63650000D03*
X1500000Y66190000D03*
X1500000Y68730000D03*
X1500000Y71270000D03*
D12*
X1500000Y76350000D03*
D11*
X1500000Y73810000D03*
X1500000Y7650000D03*
X1500000Y10190000D03*
X1500000Y12730000D03*
X1500000Y15270000D03*
D12*
X1500000Y20350000D03*
D11*
X1500000Y17810000D03*
X27500000Y63650000D03*
X27500000Y66190000D03*
X27500000Y68730000D03*
X27500000Y71270000D03*
D12*
X27500000Y76350000D03*
D11*
X27500000Y73810000D03*
X27500000Y7650000D03*
X27500000Y10190000D03*
X27500000Y12730000D03*
X27500000Y15270000D03*
D12*
X27500000Y20350000D03*
D11*
X27500000Y17810000D03*
D13*
X18000000Y79050000D03*
D14*
X18000000Y76550000D03*
D13*
X11000000Y79050000D03*
D14*
X11000000Y76550000D03*
D15*
X14500000Y57860000D03*
X14500000Y62940000D03*
X14500000Y39860000D03*
X14500000Y44940000D03*
D13*
X6750000Y4300000D03*
D14*
X4250000Y4300000D03*
D15*
X17900000Y14260000D03*
X17900000Y19340000D03*
D13*
X9050000Y10400000D03*
D14*
X6550000Y10400000D03*
D13*
X20950000Y16400000D03*
D14*
X23450000Y16400000D03*
D13*
X11750000Y30300000D03*
D14*
X9250000Y30300000D03*
D13*
X5350000Y40800000D03*
D14*
X2850000Y40800000D03*
D13*
X23550000Y40800000D03*
D14*
X26050000Y40800000D03*
D13*
X17550000Y29000000D03*
D14*
X20050000Y29000000D03*
D13*
X18750000Y10200000D03*
D14*
X21250000Y10200000D03*
D16*
X8280000Y55110000D03*
D17*
X10820000Y55110000D03*
X13360000Y55110000D03*
X15900000Y55110000D03*
X18440000Y55110000D03*
X20980000Y55110000D03*
X23520000Y55110000D03*
X23520000Y47490000D03*
X20980000Y47490000D03*
X18440000Y47490000D03*
X15900000Y47490000D03*
X13360000Y47490000D03*
X10820000Y47490000D03*
X8280000Y47490000D03*
D11*
X18300000Y65090000D03*
X18300000Y72710000D03*
X12900000Y72710000D03*
X12900000Y65090000D03*
X16100000Y72710000D03*
X16100000Y65090000D03*
D18*
X3800000Y33500000D03*
D19*
X9100000Y24800000D03*
X9100000Y14800000D03*
X26700000Y58100000D03*
X16700000Y58100000D03*
X6000000Y24800000D03*
X6000000Y14800000D03*
X21600000Y2500000D03*
X11600000Y2500000D03*
X11600000Y5500000D03*
X21600000Y5500000D03*
X12200000Y16100000D03*
X12200000Y26100000D03*
X15200000Y16100000D03*
X15200000Y26100000D03*
X8900000Y44700000D03*
X8900000Y34700000D03*
X20000000Y34700000D03*
X20000000Y44700000D03*
X11900000Y44700000D03*
X11900000Y34700000D03*
X17000000Y34700000D03*
X17000000Y44700000D03*
X26700000Y36100000D03*
X26700000Y26100000D03*
X24700000Y12300000D03*
X24700000Y2300000D03*
X12300000Y61100000D03*
X2300000Y61100000D03*
X16700000Y61100000D03*
X26700000Y61100000D03*
X12300000Y58100000D03*
X2300000Y58100000D03*
X4400000Y64800000D03*
X4400000Y74800000D03*
X24600000Y64800000D03*
X24600000Y74800000D03*
X7400000Y74800000D03*
X7400000Y64800000D03*
X21600000Y64800000D03*
X21600000Y74800000D03*
X5300000Y55300000D03*
X5300000Y45300000D03*
X23700000Y36100000D03*
X23700000Y26100000D03*
X2300000Y45300000D03*
X2300000Y55300000D03*
X26600000Y55300000D03*
X26600000Y45300000D03*
D20*
X16100000Y69400000D03*
X13600000Y1700000D03*
X19900000Y1200000D03*
X14800000Y4700000D03*
X9400000Y2600000D03*
X1000000Y1400000D03*
X24800000Y5800000D03*
X17400000Y8000000D03*
X9400000Y5600000D03*
X22600000Y11900000D03*
X19500000Y15100000D03*
X14700000Y10300000D03*
X10300000Y12500000D03*
X23400000Y20900000D03*
X27900000Y23300000D03*
X19900000Y63100000D03*
X21300000Y58600000D03*
X23400000Y58900000D03*
X8000000Y18700000D03*
X11800000Y19200000D03*
X13800000Y24600000D03*
X10200000Y16400000D03*
X6000000Y20600000D03*
X1700000Y22300000D03*
X10200000Y27200000D03*
X15800000Y28200000D03*
X13500000Y30800000D03*
X18900000Y30900000D03*
X8100000Y28900000D03*
X19200000Y27300000D03*
X20100000Y42800000D03*
X27800000Y28700000D03*
X21900000Y32500000D03*
X21600000Y38200000D03*
X27600000Y42300000D03*
X27800000Y47000000D03*
X27800000Y52100000D03*
X24700000Y42500000D03*
X25200000Y49700000D03*
X22000000Y66600000D03*
X16800000Y66600000D03*
X19900000Y71400000D03*
X23900000Y70200000D03*
X27100000Y78000000D03*
X27800000Y80900000D03*
X20000000Y79500000D03*
X1200000Y42100000D03*
X1100000Y47200000D03*
X7300000Y45700000D03*
X6900000Y39000000D03*
X15600000Y49800000D03*
X22400000Y50700000D03*
X19700000Y56900000D03*
X20800000Y52700000D03*
X11000000Y52700000D03*
X3500000Y47800000D03*
X1500000Y80800000D03*
X7000000Y78100000D03*
X13200000Y80500000D03*
X9500000Y75100000D03*
X8900000Y71600000D03*
X13100000Y69200000D03*
X9100000Y66500000D03*
X8200000Y58400000D03*
X9100000Y63600000D03*
X11300000Y51100000D03*
X6800000Y51100000D03*
X22900000Y60500000D03*
X24700000Y62300000D03*
X13700000Y19900000D03*
X14600000Y12100000D03*
X9700000Y58100000D03*
X18500000Y59400000D03*
D21*
X16100000Y69400000D02*
X16100000Y72710000D01*
X14800000Y4700000D02*
X14800000Y5400000D01*
X11200000Y800000D02*
X12700000Y800000D01*
X12700000Y800000D02*
X13600000Y1700000D01*
X19900000Y1200000D02*
X16400000Y4700000D01*
X16400000Y4700000D02*
X14800000Y4700000D01*
X1500000Y7650000D02*
X2500000Y6650000D01*
X2500000Y2900000D02*
X1000000Y1400000D01*
X2500000Y6650000D02*
X2500000Y2900000D01*
X9400000Y2600000D02*
X11200000Y800000D01*
X14800000Y5400000D02*
X17400000Y8000000D01*
X14700000Y10300000D02*
X12500000Y10300000D01*
X22600000Y15550000D02*
X22600000Y11900000D01*
X19500000Y15100000D02*
X19500000Y13600000D01*
X19500000Y13600000D02*
X16200000Y10300000D01*
X16200000Y10300000D02*
X14700000Y10300000D01*
X23450000Y16400000D02*
X22600000Y15550000D01*
X12500000Y10300000D02*
X10300000Y12500000D01*
X23400000Y20900000D02*
X25800000Y23300000D01*
X25800000Y23300000D02*
X27900000Y23300000D01*
X21300000Y58600000D02*
X21600000Y58900000D01*
X22900000Y63100000D02*
X19900000Y63100000D01*
X24600000Y64800000D02*
X22900000Y63100000D01*
X21600000Y58900000D02*
X23400000Y58900000D01*
X11300000Y18700000D02*
X8000000Y18700000D01*
X17900000Y19340000D02*
X13800000Y23440000D01*
X13800000Y23440000D02*
X13800000Y24600000D01*
X11800000Y19200000D02*
X11300000Y18700000D01*
X6000000Y24800000D02*
X5100000Y23900000D01*
X5100000Y21500000D02*
X6000000Y20600000D01*
X5100000Y23900000D02*
X5100000Y21500000D01*
X10200000Y27200000D02*
X9800000Y27200000D01*
X11200000Y28200000D02*
X10200000Y27200000D01*
X13600000Y30900000D02*
X13500000Y30800000D01*
X18900000Y30900000D02*
X13600000Y30900000D01*
X15800000Y28200000D02*
X11200000Y28200000D01*
X9800000Y27200000D02*
X8100000Y28900000D01*
X23700000Y26100000D02*
X22500000Y27300000D01*
X22500000Y27300000D02*
X19200000Y27300000D01*
X20100000Y42800000D02*
X21600000Y41300000D01*
X17440000Y42800000D02*
X20100000Y42800000D01*
X14500000Y39860000D02*
X17440000Y42800000D01*
X24000000Y32500000D02*
X27800000Y28700000D01*
X21900000Y32500000D02*
X24000000Y32500000D01*
X21600000Y41300000D02*
X21600000Y38200000D01*
X26600000Y55300000D02*
X27800000Y54100000D01*
X28200000Y42900000D02*
X27600000Y42300000D01*
X28200000Y46600000D02*
X28200000Y42900000D01*
X27800000Y47000000D02*
X28200000Y46600000D01*
X27800000Y54100000D02*
X27800000Y52100000D01*
X25200000Y53900000D02*
X25200000Y49700000D01*
X26600000Y55300000D02*
X25200000Y53900000D01*
X27500000Y71270000D02*
X26430000Y70200000D01*
X19900000Y69700000D02*
X16800000Y66600000D01*
X19900000Y71400000D02*
X19900000Y69700000D01*
X26430000Y70200000D02*
X23900000Y70200000D01*
X21400000Y80900000D02*
X27800000Y80900000D01*
X20000000Y79500000D02*
X21400000Y80900000D01*
X5300000Y55300000D02*
X1100000Y51100000D01*
X1200000Y36100000D02*
X3800000Y33500000D01*
X1200000Y42100000D02*
X1200000Y36100000D01*
X1100000Y51100000D02*
X1100000Y47200000D01*
X14500000Y39860000D02*
X12060000Y42300000D01*
X10200000Y42300000D02*
X6900000Y39000000D01*
X12060000Y42300000D02*
X10200000Y42300000D01*
X20800000Y52700000D02*
X20800000Y52300000D01*
X20800000Y52300000D02*
X22400000Y50700000D01*
X5300000Y55300000D02*
X7900000Y52700000D01*
X19700000Y53800000D02*
X19700000Y56900000D01*
X20800000Y52700000D02*
X19700000Y53800000D01*
X7900000Y52700000D02*
X11000000Y52700000D01*
X5300000Y55300000D02*
X3500000Y53500000D01*
X3500000Y53500000D02*
X3500000Y47800000D01*
X9100000Y66500000D02*
X9100000Y63600000D01*
X7000000Y78100000D02*
X9400000Y80500000D01*
X9400000Y80500000D02*
X13200000Y80500000D01*
X9500000Y75100000D02*
X9500000Y74200000D01*
X9500000Y74200000D02*
X8900000Y73600000D01*
X8900000Y73600000D02*
X8900000Y71600000D01*
X13100000Y69200000D02*
X10400000Y66500000D01*
X10400000Y66500000D02*
X9100000Y66500000D01*
X1500000Y76350000D02*
X1500000Y80800000D01*
X8200000Y58200000D02*
X5300000Y55300000D01*
X8200000Y58400000D02*
X8200000Y58200000D01*
X6800000Y51100000D02*
X11300000Y51100000D01*
X24700000Y62300000D02*
X22900000Y60500000D01*
X20980000Y47490000D02*
X23520000Y47490000D01*
X13700000Y13000000D02*
X13700000Y19900000D01*
X14600000Y12100000D02*
X13700000Y13000000D01*
X24700000Y15010000D02*
X24700000Y12300000D01*
X27500000Y17810000D02*
X24700000Y15010000D01*
X13360000Y55110000D02*
X11670000Y56800000D01*
X11000000Y56800000D02*
X9700000Y58100000D01*
X11670000Y56800000D02*
X11000000Y56800000D01*
X18440000Y55110000D02*
X18440000Y59340000D01*
X11600000Y5500000D02*
X11600000Y2500000D01*
G36*
X28580000Y77396932D02*
X28566755Y77416755D01*
X28444367Y77498532D01*
X28300000Y77527248D01*
X26700000Y77527248D01*
X26555633Y77498532D01*
X26433245Y77416755D01*
X26351468Y77294367D01*
X26322752Y77150000D01*
X26322752Y75550000D01*
X26350000Y75413013D01*
X26350000Y74091425D01*
X26330203Y74043748D01*
X26329797Y73578294D01*
X26507544Y73148114D01*
X26836383Y72818700D01*
X27266252Y72640203D01*
X27731706Y72639797D01*
X28161886Y72817544D01*
X28491300Y73146383D01*
X28580000Y73359997D01*
X28580000Y71979504D01*
X28551196Y72022614D01*
X28337786Y72095058D01*
X27512728Y71270000D01*
X28337786Y70444942D01*
X28551196Y70517386D01*
X28580000Y70581028D01*
X28580000Y69180014D01*
X28492456Y69391886D01*
X28163617Y69721300D01*
X27733748Y69899797D01*
X27268294Y69900203D01*
X26838114Y69722456D01*
X26508700Y69393617D01*
X26330203Y68963748D01*
X26329797Y68498294D01*
X26450000Y68207381D01*
X26450000Y66712252D01*
X26330203Y66423748D01*
X26329797Y65958294D01*
X26507544Y65528114D01*
X26836383Y65198700D01*
X27266252Y65020203D01*
X27731706Y65019797D01*
X28161886Y65197544D01*
X28491300Y65526383D01*
X28580000Y65739997D01*
X28580000Y64359504D01*
X28551196Y64402614D01*
X28337786Y64475058D01*
X27512728Y63650000D01*
X28337786Y62824942D01*
X28551196Y62897386D01*
X28580000Y62961028D01*
X28580000Y21396932D01*
X28566755Y21416755D01*
X28444367Y21498532D01*
X28300000Y21527248D01*
X26700000Y21527248D01*
X26555633Y21498532D01*
X26433245Y21416755D01*
X26351468Y21294367D01*
X26322752Y21150000D01*
X26322752Y19550000D01*
X26350944Y19408265D01*
X26350000Y19400000D01*
X26350000Y18200000D01*
X26361418Y18142597D01*
X26367481Y18133523D01*
X26330203Y18043748D01*
X26329797Y17578294D01*
X26389181Y17434573D01*
X24332304Y15377696D01*
X24219583Y15208995D01*
X24179999Y15010000D01*
X24180000Y15009995D01*
X24180000Y13567482D01*
X23924971Y13462107D01*
X23539248Y13077056D01*
X23330238Y12573705D01*
X23329763Y12028686D01*
X23537893Y11524971D01*
X23922944Y11139248D01*
X24426295Y10930238D01*
X24971314Y10929763D01*
X25208548Y11027786D01*
X26674942Y11027786D01*
X27500000Y10202728D01*
X28325058Y11027786D01*
X28252614Y11241196D01*
X27793050Y11449191D01*
X27288871Y11465486D01*
X26816836Y11287599D01*
X26747386Y11241196D01*
X26674942Y11027786D01*
X25208548Y11027786D01*
X25475029Y11137893D01*
X25860752Y11522944D01*
X26069762Y12026295D01*
X26070237Y12571314D01*
X25862107Y13075029D01*
X25477056Y13460752D01*
X25220000Y13567491D01*
X25220000Y14432214D01*
X26674942Y14432214D01*
X26747386Y14218804D01*
X27206950Y14010809D01*
X27711129Y13994514D01*
X28183164Y14172401D01*
X28252614Y14218804D01*
X28325058Y14432214D01*
X27500000Y15257272D01*
X26674942Y14432214D01*
X25220000Y14432214D01*
X25220000Y14794608D01*
X26591331Y16165939D01*
X26662212Y16095057D01*
X26448804Y16022614D01*
X26240809Y15563050D01*
X26224514Y15058871D01*
X26402401Y14586836D01*
X26448804Y14517386D01*
X26662214Y14444942D01*
X27487272Y15270000D01*
X27473130Y15284142D01*
X27485858Y15296870D01*
X27500000Y15282728D01*
X28325058Y16107786D01*
X28252614Y16321196D01*
X27793050Y16529191D01*
X27288871Y16545486D01*
X26816836Y16367599D01*
X26747386Y16321196D01*
X26674943Y16107788D01*
X26604061Y16178669D01*
X27124469Y16699077D01*
X27266252Y16640203D01*
X27731706Y16639797D01*
X28161886Y16817544D01*
X28491300Y17146383D01*
X28580000Y17359997D01*
X28580000Y15979504D01*
X28551196Y16022614D01*
X28337786Y16095058D01*
X27512728Y15270000D01*
X28337786Y14444942D01*
X28551196Y14517386D01*
X28580000Y14581028D01*
X28580000Y13180014D01*
X28492456Y13391886D01*
X28163617Y13721300D01*
X27733748Y13899797D01*
X27268294Y13900203D01*
X26838114Y13722456D01*
X26508700Y13393617D01*
X26330203Y12963748D01*
X26329797Y12498294D01*
X26507544Y12068114D01*
X26836383Y11738700D01*
X27266252Y11560203D01*
X27731706Y11559797D01*
X28161886Y11737544D01*
X28491300Y12066383D01*
X28580000Y12279997D01*
X28580000Y10899504D01*
X28551196Y10942614D01*
X28337786Y11015058D01*
X27512728Y10190000D01*
X28337786Y9364942D01*
X28551196Y9437386D01*
X28580000Y9501028D01*
X28580000Y8359504D01*
X28551196Y8402614D01*
X28337786Y8475058D01*
X27512728Y7650000D01*
X28337786Y6824942D01*
X28551196Y6897386D01*
X28580000Y6961028D01*
X28580000Y420000D01*
X420000Y420000D01*
X420000Y4088098D01*
X3179814Y4088098D01*
X3342369Y3694685D01*
X3643102Y3393427D01*
X4036230Y3230186D01*
X4461902Y3229814D01*
X4855315Y3392369D01*
X5156573Y3693102D01*
X5319814Y4086230D01*
X5320186Y4511902D01*
X5157631Y4905315D01*
X5063112Y5000000D01*
X5672752Y5000000D01*
X5672752Y3600000D01*
X5701468Y3455633D01*
X5783245Y3333245D01*
X5905633Y3251468D01*
X6050000Y3222752D01*
X7450000Y3222752D01*
X7594367Y3251468D01*
X7716755Y3333245D01*
X7798532Y3455633D01*
X7827248Y3600000D01*
X7827248Y5000000D01*
X7798532Y5144367D01*
X7742192Y5228686D01*
X10229763Y5228686D01*
X10437893Y4724971D01*
X10822944Y4339248D01*
X11080000Y4232509D01*
X11080000Y3767482D01*
X10824971Y3662107D01*
X10439248Y3277056D01*
X10230238Y2773705D01*
X10229763Y2228686D01*
X10437893Y1724971D01*
X10822944Y1339248D01*
X11326295Y1130238D01*
X11871314Y1129763D01*
X12375029Y1337893D01*
X12760752Y1722944D01*
X12969762Y2226295D01*
X12969764Y2228686D01*
X20229763Y2228686D01*
X20437893Y1724971D01*
X20822944Y1339248D01*
X21326295Y1130238D01*
X21871314Y1129763D01*
X22326930Y1318019D01*
X23730747Y1318019D01*
X23827524Y1083827D01*
X24359346Y842521D01*
X24943030Y823102D01*
X25489715Y1028529D01*
X25572476Y1083827D01*
X25669253Y1318019D01*
X24700000Y2287272D01*
X23730747Y1318019D01*
X22326930Y1318019D01*
X22375029Y1337893D01*
X22760752Y1722944D01*
X22899451Y2056970D01*
X23223102Y2056970D01*
X23428529Y1510285D01*
X23483827Y1427524D01*
X23718019Y1330747D01*
X24687272Y2300000D01*
X24712728Y2300000D01*
X25681981Y1330747D01*
X25916173Y1427524D01*
X26157479Y1959346D01*
X26176898Y2543030D01*
X25971471Y3089715D01*
X25916173Y3172476D01*
X25681981Y3269253D01*
X24712728Y2300000D01*
X24687272Y2300000D01*
X23718019Y3269253D01*
X23483827Y3172476D01*
X23242521Y2640654D01*
X23223102Y2056970D01*
X22899451Y2056970D01*
X22969762Y2226295D01*
X22970237Y2771314D01*
X22762107Y3275029D01*
X22755168Y3281981D01*
X23730747Y3281981D01*
X24700000Y2312728D01*
X25669253Y3281981D01*
X25572476Y3516173D01*
X25040654Y3757479D01*
X24456970Y3776898D01*
X23910285Y3571471D01*
X23827524Y3516173D01*
X23730747Y3281981D01*
X22755168Y3281981D01*
X22377056Y3660752D01*
X21873705Y3869762D01*
X21328686Y3870237D01*
X20824971Y3662107D01*
X20439248Y3277056D01*
X20230238Y2773705D01*
X20229763Y2228686D01*
X12969764Y2228686D01*
X12970237Y2771314D01*
X12762107Y3275029D01*
X12377056Y3660752D01*
X12120000Y3767491D01*
X12120000Y4232518D01*
X12375029Y4337893D01*
X12760752Y4722944D01*
X12969762Y5226295D01*
X12969764Y5228686D01*
X20229763Y5228686D01*
X20437893Y4724971D01*
X20822944Y4339248D01*
X21326295Y4130238D01*
X21871314Y4129763D01*
X22375029Y4337893D01*
X22760752Y4722944D01*
X22969762Y5226295D01*
X22970237Y5771314D01*
X22762107Y6275029D01*
X22377056Y6660752D01*
X22012296Y6812214D01*
X26674942Y6812214D01*
X26747386Y6598804D01*
X27206950Y6390809D01*
X27711129Y6374514D01*
X28183164Y6552401D01*
X28252614Y6598804D01*
X28325058Y6812214D01*
X27500000Y7637272D01*
X26674942Y6812214D01*
X22012296Y6812214D01*
X21873705Y6869762D01*
X21328686Y6870237D01*
X20824971Y6662107D01*
X20439248Y6277056D01*
X20230238Y5773705D01*
X20229763Y5228686D01*
X12969764Y5228686D01*
X12970237Y5771314D01*
X12762107Y6275029D01*
X12377056Y6660752D01*
X11873705Y6869762D01*
X11328686Y6870237D01*
X10824971Y6662107D01*
X10439248Y6277056D01*
X10230238Y5773705D01*
X10229763Y5228686D01*
X7742192Y5228686D01*
X7716755Y5266755D01*
X7594367Y5348532D01*
X7450000Y5377248D01*
X6050000Y5377248D01*
X5905633Y5348532D01*
X5783245Y5266755D01*
X5701468Y5144367D01*
X5672752Y5000000D01*
X5063112Y5000000D01*
X4856898Y5206573D01*
X4463770Y5369814D01*
X4038098Y5370186D01*
X3644685Y5207631D01*
X3343427Y4906898D01*
X3180186Y4513770D01*
X3179814Y4088098D01*
X420000Y4088098D01*
X420000Y6812214D01*
X674942Y6812214D01*
X747386Y6598804D01*
X1206950Y6390809D01*
X1711129Y6374514D01*
X2183164Y6552401D01*
X2252614Y6598804D01*
X2325058Y6812214D01*
X1500000Y7637272D01*
X674942Y6812214D01*
X420000Y6812214D01*
X420000Y6940496D01*
X448804Y6897386D01*
X662214Y6824942D01*
X1487272Y7650000D01*
X1512728Y7650000D01*
X2337786Y6824942D01*
X2551196Y6897386D01*
X2759191Y7356950D01*
X2761838Y7438871D01*
X26224514Y7438871D01*
X26402401Y6966836D01*
X26448804Y6897386D01*
X26662214Y6824942D01*
X27487272Y7650000D01*
X26662214Y8475058D01*
X26448804Y8402614D01*
X26240809Y7943050D01*
X26224514Y7438871D01*
X2761838Y7438871D01*
X2775486Y7861129D01*
X2597599Y8333164D01*
X2551196Y8402614D01*
X2337786Y8475058D01*
X1512728Y7650000D01*
X1487272Y7650000D01*
X662214Y8475058D01*
X448804Y8402614D01*
X420000Y8338972D01*
X420000Y8487786D01*
X674942Y8487786D01*
X1500000Y7662728D01*
X2325058Y8487786D01*
X26674942Y8487786D01*
X27500000Y7662728D01*
X28325058Y8487786D01*
X28252614Y8701196D01*
X27793050Y8909191D01*
X27288871Y8925486D01*
X26816836Y8747599D01*
X26747386Y8701196D01*
X26674942Y8487786D01*
X2325058Y8487786D01*
X2252614Y8701196D01*
X1793050Y8909191D01*
X1288871Y8925486D01*
X816836Y8747599D01*
X747386Y8701196D01*
X674942Y8487786D01*
X420000Y8487786D01*
X420000Y9739986D01*
X507544Y9528114D01*
X836383Y9198700D01*
X1266252Y9020203D01*
X1731706Y9019797D01*
X2161886Y9197544D01*
X2491300Y9526383D01*
X2536116Y9634314D01*
X5797042Y9634314D01*
X5857318Y9431293D01*
X6280753Y9239954D01*
X6745178Y9225221D01*
X7179890Y9389337D01*
X7242682Y9431293D01*
X7302958Y9634314D01*
X6550000Y10387272D01*
X5797042Y9634314D01*
X2536116Y9634314D01*
X2669797Y9956252D01*
X2670013Y10204822D01*
X5375221Y10204822D01*
X5539337Y9770110D01*
X5581293Y9707318D01*
X5784314Y9647042D01*
X6537272Y10400000D01*
X6562728Y10400000D01*
X7315686Y9647042D01*
X7518707Y9707318D01*
X7710046Y10130753D01*
X7724779Y10595178D01*
X7560663Y11029890D01*
X7518707Y11092682D01*
X7494059Y11100000D01*
X7972752Y11100000D01*
X7972752Y9700000D01*
X8001468Y9555633D01*
X8083245Y9433245D01*
X8205633Y9351468D01*
X8350000Y9322752D01*
X9750000Y9322752D01*
X9894367Y9351468D01*
X10016755Y9433245D01*
X10098532Y9555633D01*
X10127248Y9700000D01*
X10127248Y10900000D01*
X17672752Y10900000D01*
X17672752Y9500000D01*
X17701468Y9355633D01*
X17783245Y9233245D01*
X17905633Y9151468D01*
X18050000Y9122752D01*
X19450000Y9122752D01*
X19594367Y9151468D01*
X19716755Y9233245D01*
X19798532Y9355633D01*
X19827248Y9500000D01*
X19827248Y9988098D01*
X20179814Y9988098D01*
X20342369Y9594685D01*
X20643102Y9293427D01*
X21036230Y9130186D01*
X21461902Y9129814D01*
X21855315Y9292369D01*
X21915264Y9352214D01*
X26674942Y9352214D01*
X26747386Y9138804D01*
X27206950Y8930809D01*
X27711129Y8914514D01*
X28183164Y9092401D01*
X28252614Y9138804D01*
X28325058Y9352214D01*
X27500000Y10177272D01*
X26674942Y9352214D01*
X21915264Y9352214D01*
X22156573Y9593102D01*
X22316758Y9978871D01*
X26224514Y9978871D01*
X26402401Y9506836D01*
X26448804Y9437386D01*
X26662214Y9364942D01*
X27487272Y10190000D01*
X26662214Y11015058D01*
X26448804Y10942614D01*
X26240809Y10483050D01*
X26224514Y9978871D01*
X22316758Y9978871D01*
X22319814Y9986230D01*
X22320186Y10411902D01*
X22157631Y10805315D01*
X21856898Y11106573D01*
X21463770Y11269814D01*
X21038098Y11270186D01*
X20644685Y11107631D01*
X20343427Y10806898D01*
X20180186Y10413770D01*
X20179814Y9988098D01*
X19827248Y9988098D01*
X19827248Y10900000D01*
X19798532Y11044367D01*
X19716755Y11166755D01*
X19594367Y11248532D01*
X19450000Y11277248D01*
X18050000Y11277248D01*
X17905633Y11248532D01*
X17783245Y11166755D01*
X17701468Y11044367D01*
X17672752Y10900000D01*
X10127248Y10900000D01*
X10127248Y11100000D01*
X10098532Y11244367D01*
X10016755Y11366755D01*
X9894367Y11448532D01*
X9750000Y11477248D01*
X8350000Y11477248D01*
X8205633Y11448532D01*
X8083245Y11366755D01*
X8001468Y11244367D01*
X7972752Y11100000D01*
X7494059Y11100000D01*
X7315686Y11152958D01*
X6562728Y10400000D01*
X6537272Y10400000D01*
X5784314Y11152958D01*
X5581293Y11092682D01*
X5389954Y10669247D01*
X5375221Y10204822D01*
X2670013Y10204822D01*
X2670203Y10421706D01*
X2650000Y10470601D01*
X2650000Y11165686D01*
X5797042Y11165686D01*
X6550000Y10412728D01*
X7302958Y11165686D01*
X7242682Y11368707D01*
X6819247Y11560046D01*
X6354822Y11574779D01*
X5920110Y11410663D01*
X5857318Y11368707D01*
X5797042Y11165686D01*
X2650000Y11165686D01*
X2650000Y12448575D01*
X2669797Y12496252D01*
X2670203Y12961706D01*
X2492456Y13391886D01*
X2163617Y13721300D01*
X1733748Y13899797D01*
X1268294Y13900203D01*
X838114Y13722456D01*
X508700Y13393617D01*
X420000Y13180003D01*
X420000Y14432214D01*
X674942Y14432214D01*
X747386Y14218804D01*
X1206950Y14010809D01*
X1711129Y13994514D01*
X2183164Y14172401D01*
X2252614Y14218804D01*
X2325058Y14432214D01*
X1500000Y15257272D01*
X674942Y14432214D01*
X420000Y14432214D01*
X420000Y14560496D01*
X448804Y14517386D01*
X662214Y14444942D01*
X1487272Y15270000D01*
X1512728Y15270000D01*
X2337786Y14444942D01*
X2551196Y14517386D01*
X2556310Y14528686D01*
X4629763Y14528686D01*
X4837893Y14024971D01*
X5222944Y13639248D01*
X5726295Y13430238D01*
X6271314Y13429763D01*
X6775029Y13637893D01*
X7160752Y14022944D01*
X7369762Y14526295D01*
X7369764Y14528686D01*
X7729763Y14528686D01*
X7937893Y14024971D01*
X8322944Y13639248D01*
X8826295Y13430238D01*
X9371314Y13429763D01*
X9875029Y13637893D01*
X10260752Y14022944D01*
X10469762Y14526295D01*
X10470237Y15071314D01*
X10262107Y15575029D01*
X10008892Y15828686D01*
X10829763Y15828686D01*
X11037893Y15324971D01*
X11422944Y14939248D01*
X11926295Y14730238D01*
X12471314Y14729763D01*
X12975029Y14937893D01*
X13180000Y15142507D01*
X13180000Y13000005D01*
X13179999Y13000000D01*
X13219583Y12801005D01*
X13332304Y12632304D01*
X13780073Y12184536D01*
X13779858Y11937607D01*
X13904432Y11636114D01*
X14134901Y11405243D01*
X14436176Y11280142D01*
X14762393Y11279858D01*
X15063886Y11404432D01*
X15294757Y11634901D01*
X15419858Y11936176D01*
X15420142Y12262393D01*
X15295568Y12563886D01*
X15065099Y12794757D01*
X14763824Y12919858D01*
X14515317Y12920074D01*
X14220000Y13215392D01*
X14220000Y14067902D01*
X16929832Y14067902D01*
X17077195Y13711257D01*
X17349822Y13438154D01*
X17706209Y13290169D01*
X18092098Y13289832D01*
X18448743Y13437195D01*
X18721846Y13709822D01*
X18869831Y14066209D01*
X18870168Y14452098D01*
X18722805Y14808743D01*
X18450178Y15081846D01*
X18093791Y15229831D01*
X17707902Y15230168D01*
X17351257Y15082805D01*
X17078154Y14810178D01*
X16930169Y14453791D01*
X16929832Y14067902D01*
X14220000Y14067902D01*
X14220000Y15142546D01*
X14422944Y14939248D01*
X14926295Y14730238D01*
X15471314Y14729763D01*
X15975029Y14937893D01*
X16360752Y15322944D01*
X16569762Y15826295D01*
X16570237Y16371314D01*
X16362107Y16875029D01*
X16137528Y17100000D01*
X19872752Y17100000D01*
X19872752Y15700000D01*
X19901468Y15555633D01*
X19983245Y15433245D01*
X20105633Y15351468D01*
X20250000Y15322752D01*
X21650000Y15322752D01*
X21794367Y15351468D01*
X21916755Y15433245D01*
X21998532Y15555633D01*
X22014182Y15634314D01*
X22697042Y15634314D01*
X22757318Y15431293D01*
X23180753Y15239954D01*
X23645178Y15225221D01*
X24079890Y15389337D01*
X24142682Y15431293D01*
X24202958Y15634314D01*
X23450000Y16387272D01*
X22697042Y15634314D01*
X22014182Y15634314D01*
X22027248Y15700000D01*
X22027248Y16204822D01*
X22275221Y16204822D01*
X22439337Y15770110D01*
X22481293Y15707318D01*
X22684314Y15647042D01*
X23437272Y16400000D01*
X23462728Y16400000D01*
X24215686Y15647042D01*
X24418707Y15707318D01*
X24610046Y16130753D01*
X24624779Y16595178D01*
X24460663Y17029890D01*
X24418707Y17092682D01*
X24215686Y17152958D01*
X23462728Y16400000D01*
X23437272Y16400000D01*
X22684314Y17152958D01*
X22481293Y17092682D01*
X22289954Y16669247D01*
X22275221Y16204822D01*
X22027248Y16204822D01*
X22027248Y17100000D01*
X22014183Y17165686D01*
X22697042Y17165686D01*
X23450000Y16412728D01*
X24202958Y17165686D01*
X24142682Y17368707D01*
X23719247Y17560046D01*
X23254822Y17574779D01*
X22820110Y17410663D01*
X22757318Y17368707D01*
X22697042Y17165686D01*
X22014183Y17165686D01*
X21998532Y17244367D01*
X21916755Y17366755D01*
X21794367Y17448532D01*
X21650000Y17477248D01*
X20250000Y17477248D01*
X20105633Y17448532D01*
X19983245Y17366755D01*
X19901468Y17244367D01*
X19872752Y17100000D01*
X16137528Y17100000D01*
X15977056Y17260752D01*
X15473705Y17469762D01*
X14928686Y17470237D01*
X14424971Y17262107D01*
X14220000Y17057493D01*
X14220000Y18646412D01*
X17219140Y18646412D01*
X17267250Y18453783D01*
X17654555Y18279099D01*
X18079228Y18265927D01*
X18476614Y18416274D01*
X18532750Y18453783D01*
X18580860Y18646412D01*
X17900000Y19327272D01*
X17219140Y18646412D01*
X14220000Y18646412D01*
X14220000Y19160772D01*
X16825927Y19160772D01*
X16976274Y18763386D01*
X17013783Y18707250D01*
X17206412Y18659140D01*
X17887272Y19340000D01*
X17912728Y19340000D01*
X18593588Y18659140D01*
X18786217Y18707250D01*
X18960901Y19094555D01*
X18974073Y19519228D01*
X18823726Y19916614D01*
X18786217Y19972750D01*
X18593588Y20020860D01*
X17912728Y19340000D01*
X17887272Y19340000D01*
X17206412Y20020860D01*
X17013783Y19972750D01*
X16839099Y19585445D01*
X16825927Y19160772D01*
X14220000Y19160772D01*
X14220000Y19260448D01*
X14394757Y19434901D01*
X14519858Y19736176D01*
X14520116Y20033588D01*
X17219140Y20033588D01*
X17900000Y19352728D01*
X18580860Y20033588D01*
X18532750Y20226217D01*
X18145445Y20400901D01*
X17720772Y20414073D01*
X17323386Y20263726D01*
X17267250Y20226217D01*
X17219140Y20033588D01*
X14520116Y20033588D01*
X14520142Y20062393D01*
X14395568Y20363886D01*
X14165099Y20594757D01*
X13863824Y20719858D01*
X13537607Y20720142D01*
X13236114Y20595568D01*
X13005243Y20365099D01*
X12880142Y20063824D01*
X12879858Y19737607D01*
X13004432Y19436114D01*
X13180000Y19260240D01*
X13180000Y17057454D01*
X12977056Y17260752D01*
X12473705Y17469762D01*
X11928686Y17470237D01*
X11424971Y17262107D01*
X11039248Y16877056D01*
X10830238Y16373705D01*
X10829763Y15828686D01*
X10008892Y15828686D01*
X9877056Y15960752D01*
X9373705Y16169762D01*
X8828686Y16170237D01*
X8324971Y15962107D01*
X7939248Y15577056D01*
X7730238Y15073705D01*
X7729763Y14528686D01*
X7369764Y14528686D01*
X7370237Y15071314D01*
X7162107Y15575029D01*
X6777056Y15960752D01*
X6273705Y16169762D01*
X5728686Y16170237D01*
X5224971Y15962107D01*
X4839248Y15577056D01*
X4630238Y15073705D01*
X4629763Y14528686D01*
X2556310Y14528686D01*
X2759191Y14976950D01*
X2775486Y15481129D01*
X2597599Y15953164D01*
X2551196Y16022614D01*
X2337786Y16095058D01*
X1512728Y15270000D01*
X1487272Y15270000D01*
X662214Y16095058D01*
X448804Y16022614D01*
X420000Y15958972D01*
X420000Y16107786D01*
X674942Y16107786D01*
X1500000Y15282728D01*
X2325058Y16107786D01*
X2252614Y16321196D01*
X1793050Y16529191D01*
X1288871Y16545486D01*
X816836Y16367599D01*
X747386Y16321196D01*
X674942Y16107786D01*
X420000Y16107786D01*
X420000Y17359986D01*
X507544Y17148114D01*
X836383Y16818700D01*
X1266252Y16640203D01*
X1731706Y16639797D01*
X2161886Y16817544D01*
X2491300Y17146383D01*
X2669797Y17576252D01*
X2670203Y18041706D01*
X2550000Y18332619D01*
X2550000Y19272050D01*
X2566755Y19283245D01*
X2648532Y19405633D01*
X2677248Y19550000D01*
X2677248Y21150000D01*
X2648532Y21294367D01*
X2566755Y21416755D01*
X2444367Y21498532D01*
X2300000Y21527248D01*
X700000Y21527248D01*
X555633Y21498532D01*
X433245Y21416755D01*
X420000Y21396932D01*
X420000Y23818019D01*
X5030747Y23818019D01*
X5127524Y23583827D01*
X5659346Y23342521D01*
X6243030Y23323102D01*
X6789715Y23528529D01*
X6872476Y23583827D01*
X6969253Y23818019D01*
X6000000Y24787272D01*
X5030747Y23818019D01*
X420000Y23818019D01*
X420000Y24556970D01*
X4523102Y24556970D01*
X4728529Y24010285D01*
X4783827Y23927524D01*
X5018019Y23830747D01*
X5987272Y24800000D01*
X6012728Y24800000D01*
X6981981Y23830747D01*
X7216173Y23927524D01*
X7457479Y24459346D01*
X7459785Y24528686D01*
X7729763Y24528686D01*
X7937893Y24024971D01*
X8322944Y23639248D01*
X8826295Y23430238D01*
X9371314Y23429763D01*
X9875029Y23637893D01*
X10260752Y24022944D01*
X10469762Y24526295D01*
X10470237Y25071314D01*
X10262107Y25575029D01*
X10008892Y25828686D01*
X10829763Y25828686D01*
X11037893Y25324971D01*
X11422944Y24939248D01*
X11926295Y24730238D01*
X12471314Y24729763D01*
X12975029Y24937893D01*
X13360752Y25322944D01*
X13569762Y25826295D01*
X13569764Y25828686D01*
X13829763Y25828686D01*
X14037893Y25324971D01*
X14422944Y24939248D01*
X14926295Y24730238D01*
X15471314Y24729763D01*
X15975029Y24937893D01*
X16155469Y25118019D01*
X22730747Y25118019D01*
X22827524Y24883827D01*
X23359346Y24642521D01*
X23943030Y24623102D01*
X24489715Y24828529D01*
X24572476Y24883827D01*
X24669253Y25118019D01*
X23700000Y26087272D01*
X22730747Y25118019D01*
X16155469Y25118019D01*
X16360752Y25322944D01*
X16569762Y25826295D01*
X16569788Y25856970D01*
X22223102Y25856970D01*
X22428529Y25310285D01*
X22483827Y25227524D01*
X22718019Y25130747D01*
X23687272Y26100000D01*
X23712728Y26100000D01*
X24681981Y25130747D01*
X24916173Y25227524D01*
X25157479Y25759346D01*
X25159785Y25828686D01*
X25329763Y25828686D01*
X25537893Y25324971D01*
X25922944Y24939248D01*
X26426295Y24730238D01*
X26971314Y24729763D01*
X27475029Y24937893D01*
X27860752Y25322944D01*
X28069762Y25826295D01*
X28070237Y26371314D01*
X27862107Y26875029D01*
X27477056Y27260752D01*
X26973705Y27469762D01*
X26428686Y27470237D01*
X25924971Y27262107D01*
X25539248Y26877056D01*
X25330238Y26373705D01*
X25329763Y25828686D01*
X25159785Y25828686D01*
X25176898Y26343030D01*
X24971471Y26889715D01*
X24916173Y26972476D01*
X24681981Y27069253D01*
X23712728Y26100000D01*
X23687272Y26100000D01*
X22718019Y27069253D01*
X22483827Y26972476D01*
X22242521Y26440654D01*
X22223102Y25856970D01*
X16569788Y25856970D01*
X16570237Y26371314D01*
X16362107Y26875029D01*
X16155516Y27081981D01*
X22730747Y27081981D01*
X23700000Y26112728D01*
X24669253Y27081981D01*
X24572476Y27316173D01*
X24040654Y27557479D01*
X23456970Y27576898D01*
X22910285Y27371471D01*
X22827524Y27316173D01*
X22730747Y27081981D01*
X16155516Y27081981D01*
X15977056Y27260752D01*
X15473705Y27469762D01*
X14928686Y27470237D01*
X14424971Y27262107D01*
X14039248Y26877056D01*
X13830238Y26373705D01*
X13829763Y25828686D01*
X13569764Y25828686D01*
X13570237Y26371314D01*
X13362107Y26875029D01*
X12977056Y27260752D01*
X12473705Y27469762D01*
X11928686Y27470237D01*
X11424971Y27262107D01*
X11039248Y26877056D01*
X10830238Y26373705D01*
X10829763Y25828686D01*
X10008892Y25828686D01*
X9877056Y25960752D01*
X9373705Y26169762D01*
X8828686Y26170237D01*
X8324971Y25962107D01*
X7939248Y25577056D01*
X7730238Y25073705D01*
X7729763Y24528686D01*
X7459785Y24528686D01*
X7476898Y25043030D01*
X7271471Y25589715D01*
X7216173Y25672476D01*
X6981981Y25769253D01*
X6012728Y24800000D01*
X5987272Y24800000D01*
X5018019Y25769253D01*
X4783827Y25672476D01*
X4542521Y25140654D01*
X4523102Y24556970D01*
X420000Y24556970D01*
X420000Y25781981D01*
X5030747Y25781981D01*
X6000000Y24812728D01*
X6969253Y25781981D01*
X6872476Y26016173D01*
X6340654Y26257479D01*
X5756970Y26276898D01*
X5210285Y26071471D01*
X5127524Y26016173D01*
X5030747Y25781981D01*
X420000Y25781981D01*
X420000Y30088098D01*
X8179814Y30088098D01*
X8342369Y29694685D01*
X8643102Y29393427D01*
X9036230Y29230186D01*
X9461902Y29229814D01*
X9855315Y29392369D01*
X10156573Y29693102D01*
X10319814Y30086230D01*
X10320186Y30511902D01*
X10157631Y30905315D01*
X10063112Y31000000D01*
X10672752Y31000000D01*
X10672752Y29600000D01*
X10701468Y29455633D01*
X10783245Y29333245D01*
X10905633Y29251468D01*
X11050000Y29222752D01*
X12450000Y29222752D01*
X12594367Y29251468D01*
X12716755Y29333245D01*
X12798532Y29455633D01*
X12827248Y29600000D01*
X12827248Y29700000D01*
X16472752Y29700000D01*
X16472752Y28300000D01*
X16501468Y28155633D01*
X16583245Y28033245D01*
X16705633Y27951468D01*
X16850000Y27922752D01*
X18250000Y27922752D01*
X18394367Y27951468D01*
X18516755Y28033245D01*
X18598532Y28155633D01*
X18627248Y28300000D01*
X18627248Y28788098D01*
X18979814Y28788098D01*
X19142369Y28394685D01*
X19443102Y28093427D01*
X19836230Y27930186D01*
X20261902Y27929814D01*
X20655315Y28092369D01*
X20956573Y28393102D01*
X21119814Y28786230D01*
X21120186Y29211902D01*
X20957631Y29605315D01*
X20656898Y29906573D01*
X20263770Y30069814D01*
X19838098Y30070186D01*
X19444685Y29907631D01*
X19143427Y29606898D01*
X18980186Y29213770D01*
X18979814Y28788098D01*
X18627248Y28788098D01*
X18627248Y29700000D01*
X18598532Y29844367D01*
X18516755Y29966755D01*
X18394367Y30048532D01*
X18250000Y30077248D01*
X16850000Y30077248D01*
X16705633Y30048532D01*
X16583245Y29966755D01*
X16501468Y29844367D01*
X16472752Y29700000D01*
X12827248Y29700000D01*
X12827248Y31000000D01*
X12798532Y31144367D01*
X12716755Y31266755D01*
X12594367Y31348532D01*
X12450000Y31377248D01*
X11050000Y31377248D01*
X10905633Y31348532D01*
X10783245Y31266755D01*
X10701468Y31144367D01*
X10672752Y31000000D01*
X10063112Y31000000D01*
X9856898Y31206573D01*
X9463770Y31369814D01*
X9038098Y31370186D01*
X8644685Y31207631D01*
X8343427Y30906898D01*
X8180186Y30513770D01*
X8179814Y30088098D01*
X420000Y30088098D01*
X420000Y34428686D01*
X7529763Y34428686D01*
X7737893Y33924971D01*
X8122944Y33539248D01*
X8626295Y33330238D01*
X9171314Y33329763D01*
X9675029Y33537893D01*
X9855469Y33718019D01*
X10930747Y33718019D01*
X11027524Y33483827D01*
X11559346Y33242521D01*
X12143030Y33223102D01*
X12689715Y33428529D01*
X12772476Y33483827D01*
X12869253Y33718019D01*
X16030747Y33718019D01*
X16127524Y33483827D01*
X16659346Y33242521D01*
X17243030Y33223102D01*
X17789715Y33428529D01*
X17872476Y33483827D01*
X17969253Y33718019D01*
X17000000Y34687272D01*
X16030747Y33718019D01*
X12869253Y33718019D01*
X11900000Y34687272D01*
X10930747Y33718019D01*
X9855469Y33718019D01*
X10060752Y33922944D01*
X10269762Y34426295D01*
X10269788Y34456970D01*
X10423102Y34456970D01*
X10628529Y33910285D01*
X10683827Y33827524D01*
X10918019Y33730747D01*
X11887272Y34700000D01*
X11912728Y34700000D01*
X12881981Y33730747D01*
X13116173Y33827524D01*
X13357479Y34359346D01*
X13360726Y34456970D01*
X15523102Y34456970D01*
X15728529Y33910285D01*
X15783827Y33827524D01*
X16018019Y33730747D01*
X16987272Y34700000D01*
X17012728Y34700000D01*
X17981981Y33730747D01*
X18216173Y33827524D01*
X18457479Y34359346D01*
X18459785Y34428686D01*
X18629763Y34428686D01*
X18837893Y33924971D01*
X19222944Y33539248D01*
X19726295Y33330238D01*
X20271314Y33329763D01*
X20775029Y33537893D01*
X21160752Y33922944D01*
X21369762Y34426295D01*
X21370237Y34971314D01*
X21162107Y35475029D01*
X20809067Y35828686D01*
X22329763Y35828686D01*
X22537893Y35324971D01*
X22922944Y34939248D01*
X23426295Y34730238D01*
X23971314Y34729763D01*
X24475029Y34937893D01*
X24655469Y35118019D01*
X25730747Y35118019D01*
X25827524Y34883827D01*
X26359346Y34642521D01*
X26943030Y34623102D01*
X27489715Y34828529D01*
X27572476Y34883827D01*
X27669253Y35118019D01*
X26700000Y36087272D01*
X25730747Y35118019D01*
X24655469Y35118019D01*
X24860752Y35322944D01*
X25069762Y35826295D01*
X25069788Y35856970D01*
X25223102Y35856970D01*
X25428529Y35310285D01*
X25483827Y35227524D01*
X25718019Y35130747D01*
X26687272Y36100000D01*
X26712728Y36100000D01*
X27681981Y35130747D01*
X27916173Y35227524D01*
X28157479Y35759346D01*
X28176898Y36343030D01*
X27971471Y36889715D01*
X27916173Y36972476D01*
X27681981Y37069253D01*
X26712728Y36100000D01*
X26687272Y36100000D01*
X25718019Y37069253D01*
X25483827Y36972476D01*
X25242521Y36440654D01*
X25223102Y35856970D01*
X25069788Y35856970D01*
X25070237Y36371314D01*
X24862107Y36875029D01*
X24655516Y37081981D01*
X25730747Y37081981D01*
X26700000Y36112728D01*
X27669253Y37081981D01*
X27572476Y37316173D01*
X27040654Y37557479D01*
X26456970Y37576898D01*
X25910285Y37371471D01*
X25827524Y37316173D01*
X25730747Y37081981D01*
X24655516Y37081981D01*
X24477056Y37260752D01*
X23973705Y37469762D01*
X23428686Y37470237D01*
X22924971Y37262107D01*
X22539248Y36877056D01*
X22330238Y36373705D01*
X22329763Y35828686D01*
X20809067Y35828686D01*
X20777056Y35860752D01*
X20273705Y36069762D01*
X19728686Y36070237D01*
X19224971Y35862107D01*
X18839248Y35477056D01*
X18630238Y34973705D01*
X18629763Y34428686D01*
X18459785Y34428686D01*
X18476898Y34943030D01*
X18271471Y35489715D01*
X18216173Y35572476D01*
X17981981Y35669253D01*
X17012728Y34700000D01*
X16987272Y34700000D01*
X16018019Y35669253D01*
X15783827Y35572476D01*
X15542521Y35040654D01*
X15523102Y34456970D01*
X13360726Y34456970D01*
X13376898Y34943030D01*
X13171471Y35489715D01*
X13116173Y35572476D01*
X12881981Y35669253D01*
X11912728Y34700000D01*
X11887272Y34700000D01*
X10918019Y35669253D01*
X10683827Y35572476D01*
X10442521Y35040654D01*
X10423102Y34456970D01*
X10269788Y34456970D01*
X10270237Y34971314D01*
X10062107Y35475029D01*
X9855516Y35681981D01*
X10930747Y35681981D01*
X11900000Y34712728D01*
X12869253Y35681981D01*
X16030747Y35681981D01*
X17000000Y34712728D01*
X17969253Y35681981D01*
X17872476Y35916173D01*
X17340654Y36157479D01*
X16756970Y36176898D01*
X16210285Y35971471D01*
X16127524Y35916173D01*
X16030747Y35681981D01*
X12869253Y35681981D01*
X12772476Y35916173D01*
X12240654Y36157479D01*
X11656970Y36176898D01*
X11110285Y35971471D01*
X11027524Y35916173D01*
X10930747Y35681981D01*
X9855516Y35681981D01*
X9677056Y35860752D01*
X9173705Y36069762D01*
X8628686Y36070237D01*
X8124971Y35862107D01*
X7739248Y35477056D01*
X7530238Y34973705D01*
X7529763Y34428686D01*
X420000Y34428686D01*
X420000Y39166412D01*
X13819140Y39166412D01*
X13867250Y38973783D01*
X14254555Y38799099D01*
X14679228Y38785927D01*
X15076614Y38936274D01*
X15132750Y38973783D01*
X15180860Y39166412D01*
X14500000Y39847272D01*
X13819140Y39166412D01*
X420000Y39166412D01*
X420000Y39680772D01*
X13425927Y39680772D01*
X13576274Y39283386D01*
X13613783Y39227250D01*
X13806412Y39179140D01*
X14487272Y39860000D01*
X14512728Y39860000D01*
X15193588Y39179140D01*
X15386217Y39227250D01*
X15560901Y39614555D01*
X15574073Y40039228D01*
X15423726Y40436614D01*
X15386217Y40492750D01*
X15193588Y40540860D01*
X14512728Y39860000D01*
X14487272Y39860000D01*
X13806412Y40540860D01*
X13613783Y40492750D01*
X13439099Y40105445D01*
X13425927Y39680772D01*
X420000Y39680772D01*
X420000Y40588098D01*
X1779814Y40588098D01*
X1942369Y40194685D01*
X2243102Y39893427D01*
X2636230Y39730186D01*
X3061902Y39729814D01*
X3455315Y39892369D01*
X3756573Y40193102D01*
X3919814Y40586230D01*
X3920186Y41011902D01*
X3757631Y41405315D01*
X3663112Y41500000D01*
X4272752Y41500000D01*
X4272752Y40100000D01*
X4301468Y39955633D01*
X4383245Y39833245D01*
X4505633Y39751468D01*
X4650000Y39722752D01*
X6050000Y39722752D01*
X6194367Y39751468D01*
X6316755Y39833245D01*
X6398532Y39955633D01*
X6427248Y40100000D01*
X6427248Y40553588D01*
X13819140Y40553588D01*
X14500000Y39872728D01*
X15180860Y40553588D01*
X15132750Y40746217D01*
X14745445Y40920901D01*
X14320772Y40934073D01*
X13923386Y40783726D01*
X13867250Y40746217D01*
X13819140Y40553588D01*
X6427248Y40553588D01*
X6427248Y41500000D01*
X22472752Y41500000D01*
X22472752Y40100000D01*
X22501468Y39955633D01*
X22583245Y39833245D01*
X22705633Y39751468D01*
X22850000Y39722752D01*
X24250000Y39722752D01*
X24394367Y39751468D01*
X24516755Y39833245D01*
X24598532Y39955633D01*
X24627248Y40100000D01*
X24627248Y40588098D01*
X24979814Y40588098D01*
X25142369Y40194685D01*
X25443102Y39893427D01*
X25836230Y39730186D01*
X26261902Y39729814D01*
X26655315Y39892369D01*
X26956573Y40193102D01*
X27119814Y40586230D01*
X27120186Y41011902D01*
X26957631Y41405315D01*
X26656898Y41706573D01*
X26263770Y41869814D01*
X25838098Y41870186D01*
X25444685Y41707631D01*
X25143427Y41406898D01*
X24980186Y41013770D01*
X24979814Y40588098D01*
X24627248Y40588098D01*
X24627248Y41500000D01*
X24598532Y41644367D01*
X24516755Y41766755D01*
X24394367Y41848532D01*
X24250000Y41877248D01*
X22850000Y41877248D01*
X22705633Y41848532D01*
X22583245Y41766755D01*
X22501468Y41644367D01*
X22472752Y41500000D01*
X6427248Y41500000D01*
X6398532Y41644367D01*
X6316755Y41766755D01*
X6194367Y41848532D01*
X6050000Y41877248D01*
X4650000Y41877248D01*
X4505633Y41848532D01*
X4383245Y41766755D01*
X4301468Y41644367D01*
X4272752Y41500000D01*
X3663112Y41500000D01*
X3456898Y41706573D01*
X3063770Y41869814D01*
X2638098Y41870186D01*
X2244685Y41707631D01*
X1943427Y41406898D01*
X1780186Y41013770D01*
X1779814Y40588098D01*
X420000Y40588098D01*
X420000Y45028686D01*
X929763Y45028686D01*
X1137893Y44524971D01*
X1522944Y44139248D01*
X2026295Y43930238D01*
X2571314Y43929763D01*
X3075029Y44137893D01*
X3460752Y44522944D01*
X3669762Y45026295D01*
X3669764Y45028686D01*
X3929763Y45028686D01*
X4137893Y44524971D01*
X4522944Y44139248D01*
X5026295Y43930238D01*
X5571314Y43929763D01*
X6075029Y44137893D01*
X6460752Y44522944D01*
X6669762Y45026295D01*
X6670237Y45571314D01*
X6462107Y46075029D01*
X6077056Y46460752D01*
X5573705Y46669762D01*
X5028686Y46670237D01*
X4524971Y46462107D01*
X4139248Y46077056D01*
X3930238Y45573705D01*
X3929763Y45028686D01*
X3669764Y45028686D01*
X3670237Y45571314D01*
X3462107Y46075029D01*
X3077056Y46460752D01*
X2573705Y46669762D01*
X2028686Y46670237D01*
X1524971Y46462107D01*
X1139248Y46077056D01*
X930238Y45573705D01*
X929763Y45028686D01*
X420000Y45028686D01*
X420000Y47818799D01*
X7110000Y47818799D01*
X7110000Y47161201D01*
X7199061Y46713461D01*
X7452685Y46333886D01*
X7832260Y46080262D01*
X8280000Y45991201D01*
X8583520Y46051575D01*
X8124971Y45862107D01*
X7739248Y45477056D01*
X7530238Y44973705D01*
X7529763Y44428686D01*
X7737893Y43924971D01*
X8122944Y43539248D01*
X8626295Y43330238D01*
X9171314Y43329763D01*
X9675029Y43537893D01*
X10060752Y43922944D01*
X10269762Y44426295D01*
X10269764Y44428686D01*
X10529763Y44428686D01*
X10737893Y43924971D01*
X11122944Y43539248D01*
X11626295Y43330238D01*
X12171314Y43329763D01*
X12675029Y43537893D01*
X13060752Y43922944D01*
X13269762Y44426295D01*
X13270042Y44747902D01*
X13529832Y44747902D01*
X13677195Y44391257D01*
X13949822Y44118154D01*
X14306209Y43970169D01*
X14692098Y43969832D01*
X15048743Y44117195D01*
X15321846Y44389822D01*
X15337983Y44428686D01*
X15629763Y44428686D01*
X15837893Y43924971D01*
X16222944Y43539248D01*
X16726295Y43330238D01*
X17271314Y43329763D01*
X17775029Y43537893D01*
X18160752Y43922944D01*
X18369762Y44426295D01*
X18369764Y44428686D01*
X18629763Y44428686D01*
X18837893Y43924971D01*
X19222944Y43539248D01*
X19726295Y43330238D01*
X20271314Y43329763D01*
X20775029Y43537893D01*
X21160752Y43922944D01*
X21369762Y44426295D01*
X21370237Y44971314D01*
X21346532Y45028686D01*
X25229763Y45028686D01*
X25437893Y44524971D01*
X25822944Y44139248D01*
X26326295Y43930238D01*
X26871314Y43929763D01*
X27375029Y44137893D01*
X27760752Y44522944D01*
X27969762Y45026295D01*
X27970237Y45571314D01*
X27762107Y46075029D01*
X27377056Y46460752D01*
X26873705Y46669762D01*
X26328686Y46670237D01*
X25824971Y46462107D01*
X25439248Y46077056D01*
X25230238Y45573705D01*
X25229763Y45028686D01*
X21346532Y45028686D01*
X21162107Y45475029D01*
X20777056Y45860752D01*
X20273705Y46069762D01*
X19728686Y46070237D01*
X19224971Y45862107D01*
X18839248Y45477056D01*
X18630238Y44973705D01*
X18629763Y44428686D01*
X18369764Y44428686D01*
X18370237Y44971314D01*
X18162107Y45475029D01*
X17777056Y45860752D01*
X17273705Y46069762D01*
X16728686Y46070237D01*
X16224971Y45862107D01*
X15839248Y45477056D01*
X15630238Y44973705D01*
X15629763Y44428686D01*
X15337983Y44428686D01*
X15469831Y44746209D01*
X15470168Y45132098D01*
X15322805Y45488743D01*
X15050178Y45761846D01*
X14693791Y45909831D01*
X14307902Y45910168D01*
X13951257Y45762805D01*
X13678154Y45490178D01*
X13530169Y45133791D01*
X13529832Y44747902D01*
X13270042Y44747902D01*
X13270237Y44971314D01*
X13062107Y45475029D01*
X12677056Y45860752D01*
X12173705Y46069762D01*
X11628686Y46070237D01*
X11124971Y45862107D01*
X10739248Y45477056D01*
X10530238Y44973705D01*
X10529763Y44428686D01*
X10269764Y44428686D01*
X10270237Y44971314D01*
X10062107Y45475029D01*
X9677056Y45860752D01*
X9173705Y46069762D01*
X8677129Y46070195D01*
X8727740Y46080262D01*
X9107315Y46333886D01*
X9360939Y46713461D01*
X9450000Y47161201D01*
X9450000Y47818799D01*
X9650000Y47818799D01*
X9650000Y47161201D01*
X9739061Y46713461D01*
X9992685Y46333886D01*
X10372260Y46080262D01*
X10820000Y45991201D01*
X11267740Y46080262D01*
X11647315Y46333886D01*
X11900939Y46713461D01*
X11990000Y47161201D01*
X11990000Y47818799D01*
X12190000Y47818799D01*
X12190000Y47161201D01*
X12279061Y46713461D01*
X12532685Y46333886D01*
X12912260Y46080262D01*
X13360000Y45991201D01*
X13807740Y46080262D01*
X14187315Y46333886D01*
X14440939Y46713461D01*
X14530000Y47161201D01*
X14530000Y47818799D01*
X14730000Y47818799D01*
X14730000Y47161201D01*
X14819061Y46713461D01*
X15072685Y46333886D01*
X15452260Y46080262D01*
X15900000Y45991201D01*
X16347740Y46080262D01*
X16727315Y46333886D01*
X16980939Y46713461D01*
X17070000Y47161201D01*
X17070000Y47818799D01*
X17270000Y47818799D01*
X17270000Y47161201D01*
X17359061Y46713461D01*
X17612685Y46333886D01*
X17992260Y46080262D01*
X18440000Y45991201D01*
X18887740Y46080262D01*
X19267315Y46333886D01*
X19520939Y46713461D01*
X19610000Y47161201D01*
X19610000Y47818799D01*
X19810000Y47818799D01*
X19810000Y47161201D01*
X19899061Y46713461D01*
X20152685Y46333886D01*
X20532260Y46080262D01*
X20980000Y45991201D01*
X21427740Y46080262D01*
X21807315Y46333886D01*
X22060939Y46713461D01*
X22111968Y46970000D01*
X22388032Y46970000D01*
X22439061Y46713461D01*
X22692685Y46333886D01*
X23072260Y46080262D01*
X23520000Y45991201D01*
X23967740Y46080262D01*
X24347315Y46333886D01*
X24600939Y46713461D01*
X24690000Y47161201D01*
X24690000Y47818799D01*
X24600939Y48266539D01*
X24347315Y48646114D01*
X23967740Y48899738D01*
X23520000Y48988799D01*
X23072260Y48899738D01*
X22692685Y48646114D01*
X22439061Y48266539D01*
X22388032Y48010000D01*
X22111968Y48010000D01*
X22060939Y48266539D01*
X21807315Y48646114D01*
X21427740Y48899738D01*
X20980000Y48988799D01*
X20532260Y48899738D01*
X20152685Y48646114D01*
X19899061Y48266539D01*
X19810000Y47818799D01*
X19610000Y47818799D01*
X19520939Y48266539D01*
X19267315Y48646114D01*
X18887740Y48899738D01*
X18440000Y48988799D01*
X17992260Y48899738D01*
X17612685Y48646114D01*
X17359061Y48266539D01*
X17270000Y47818799D01*
X17070000Y47818799D01*
X16980939Y48266539D01*
X16727315Y48646114D01*
X16347740Y48899738D01*
X15900000Y48988799D01*
X15452260Y48899738D01*
X15072685Y48646114D01*
X14819061Y48266539D01*
X14730000Y47818799D01*
X14530000Y47818799D01*
X14440939Y48266539D01*
X14187315Y48646114D01*
X13807740Y48899738D01*
X13360000Y48988799D01*
X12912260Y48899738D01*
X12532685Y48646114D01*
X12279061Y48266539D01*
X12190000Y47818799D01*
X11990000Y47818799D01*
X11900939Y48266539D01*
X11647315Y48646114D01*
X11267740Y48899738D01*
X10820000Y48988799D01*
X10372260Y48899738D01*
X9992685Y48646114D01*
X9739061Y48266539D01*
X9650000Y47818799D01*
X9450000Y47818799D01*
X9360939Y48266539D01*
X9107315Y48646114D01*
X8727740Y48899738D01*
X8280000Y48988799D01*
X7832260Y48899738D01*
X7452685Y48646114D01*
X7199061Y48266539D01*
X7110000Y47818799D01*
X420000Y47818799D01*
X420000Y50937607D01*
X5979858Y50937607D01*
X6104432Y50636114D01*
X6334901Y50405243D01*
X6636176Y50280142D01*
X6962393Y50279858D01*
X7263886Y50404432D01*
X7439760Y50580000D01*
X10660448Y50580000D01*
X10834901Y50405243D01*
X11136176Y50280142D01*
X11462393Y50279858D01*
X11763886Y50404432D01*
X11994757Y50634901D01*
X12119858Y50936176D01*
X12120142Y51262393D01*
X11995568Y51563886D01*
X11765099Y51794757D01*
X11463824Y51919858D01*
X11137607Y51920142D01*
X10836114Y51795568D01*
X10660240Y51620000D01*
X7439552Y51620000D01*
X7265099Y51794757D01*
X6963824Y51919858D01*
X6637607Y51920142D01*
X6336114Y51795568D01*
X6105243Y51565099D01*
X5980142Y51263824D01*
X5979858Y50937607D01*
X420000Y50937607D01*
X420000Y54318019D01*
X1330747Y54318019D01*
X1427524Y54083827D01*
X1959346Y53842521D01*
X2543030Y53823102D01*
X3089715Y54028529D01*
X3172476Y54083827D01*
X3269253Y54318019D01*
X4330747Y54318019D01*
X4427524Y54083827D01*
X4959346Y53842521D01*
X5543030Y53823102D01*
X6089715Y54028529D01*
X6172476Y54083827D01*
X6269253Y54318019D01*
X5300000Y55287272D01*
X4330747Y54318019D01*
X3269253Y54318019D01*
X2300000Y55287272D01*
X1330747Y54318019D01*
X420000Y54318019D01*
X420000Y55056970D01*
X823102Y55056970D01*
X1028529Y54510285D01*
X1083827Y54427524D01*
X1318019Y54330747D01*
X2287272Y55300000D01*
X2312728Y55300000D01*
X3281981Y54330747D01*
X3516173Y54427524D01*
X3757479Y54959346D01*
X3760726Y55056970D01*
X3823102Y55056970D01*
X4028529Y54510285D01*
X4083827Y54427524D01*
X4318019Y54330747D01*
X5287272Y55300000D01*
X5312728Y55300000D01*
X6281981Y54330747D01*
X6516173Y54427524D01*
X6757479Y54959346D01*
X6776898Y55543030D01*
X6571471Y56089715D01*
X6516173Y56172476D01*
X6425369Y56210000D01*
X7102752Y56210000D01*
X7102752Y54010000D01*
X7131468Y53865633D01*
X7213245Y53743245D01*
X7335633Y53661468D01*
X7480000Y53632752D01*
X9080000Y53632752D01*
X9224367Y53661468D01*
X9346755Y53743245D01*
X9428532Y53865633D01*
X9457248Y54010000D01*
X9457248Y56210000D01*
X9428532Y56354367D01*
X9346755Y56476755D01*
X9224367Y56558532D01*
X9080000Y56587248D01*
X7480000Y56587248D01*
X7335633Y56558532D01*
X7213245Y56476755D01*
X7131468Y56354367D01*
X7102752Y56210000D01*
X6425369Y56210000D01*
X6281981Y56269253D01*
X5312728Y55300000D01*
X5287272Y55300000D01*
X4318019Y56269253D01*
X4083827Y56172476D01*
X3842521Y55640654D01*
X3823102Y55056970D01*
X3760726Y55056970D01*
X3776898Y55543030D01*
X3571471Y56089715D01*
X3516173Y56172476D01*
X3281981Y56269253D01*
X2312728Y55300000D01*
X2287272Y55300000D01*
X1318019Y56269253D01*
X1083827Y56172476D01*
X842521Y55640654D01*
X823102Y55056970D01*
X420000Y55056970D01*
X420000Y57828686D01*
X929763Y57828686D01*
X1137893Y57324971D01*
X1522944Y56939248D01*
X1981879Y56748681D01*
X1510285Y56571471D01*
X1427524Y56516173D01*
X1330747Y56281981D01*
X2300000Y55312728D01*
X3269253Y56281981D01*
X4330747Y56281981D01*
X5300000Y55312728D01*
X6269253Y56281981D01*
X6172476Y56516173D01*
X5640654Y56757479D01*
X5056970Y56776898D01*
X4510285Y56571471D01*
X4427524Y56516173D01*
X4330747Y56281981D01*
X3269253Y56281981D01*
X3172476Y56516173D01*
X2640654Y56757479D01*
X2638561Y56757549D01*
X3075029Y56937893D01*
X3460752Y57322944D01*
X3669762Y57826295D01*
X3669859Y57937607D01*
X8879858Y57937607D01*
X9004432Y57636114D01*
X9234901Y57405243D01*
X9536176Y57280142D01*
X9784683Y57279926D01*
X10516233Y56548376D01*
X10372260Y56519738D01*
X9992685Y56266114D01*
X9739061Y55886539D01*
X9650000Y55438799D01*
X9650000Y54781201D01*
X9739061Y54333461D01*
X9992685Y53953886D01*
X10372260Y53700262D01*
X10820000Y53611201D01*
X11267740Y53700262D01*
X11342178Y53750000D01*
X12837822Y53750000D01*
X12912260Y53700262D01*
X13360000Y53611201D01*
X13807740Y53700262D01*
X14187315Y53953886D01*
X14440939Y54333461D01*
X14530000Y54781201D01*
X14530000Y55438799D01*
X14730000Y55438799D01*
X14730000Y54781201D01*
X14819061Y54333461D01*
X15072685Y53953886D01*
X15452260Y53700262D01*
X15900000Y53611201D01*
X16347740Y53700262D01*
X16727315Y53953886D01*
X16980939Y54333461D01*
X17070000Y54781201D01*
X17070000Y55438799D01*
X16980939Y55886539D01*
X16727315Y56266114D01*
X16347740Y56519738D01*
X15900000Y56608799D01*
X15452260Y56519738D01*
X15072685Y56266114D01*
X14819061Y55886539D01*
X14730000Y55438799D01*
X14530000Y55438799D01*
X14450000Y55840986D01*
X14450000Y56890043D01*
X14692098Y56889832D01*
X15048743Y57037195D01*
X15321846Y57309822D01*
X15433274Y57578170D01*
X15537893Y57324971D01*
X15922944Y56939248D01*
X16426295Y56730238D01*
X16971314Y56729763D01*
X17475029Y56937893D01*
X17860752Y57322944D01*
X17920000Y57465629D01*
X17920000Y56471455D01*
X17612685Y56266114D01*
X17359061Y55886539D01*
X17270000Y55438799D01*
X17270000Y54781201D01*
X17359061Y54333461D01*
X17612685Y53953886D01*
X17992260Y53700262D01*
X18440000Y53611201D01*
X18887740Y53700262D01*
X19267315Y53953886D01*
X19520939Y54333461D01*
X19610000Y54781201D01*
X19610000Y55438799D01*
X19810000Y55438799D01*
X19810000Y54781201D01*
X19899061Y54333461D01*
X20152685Y53953886D01*
X20532260Y53700262D01*
X20980000Y53611201D01*
X21427740Y53700262D01*
X21807315Y53953886D01*
X22060939Y54333461D01*
X22150000Y54781201D01*
X22150000Y55438799D01*
X22350000Y55438799D01*
X22350000Y54781201D01*
X22439061Y54333461D01*
X22692685Y53953886D01*
X23072260Y53700262D01*
X23520000Y53611201D01*
X23967740Y53700262D01*
X24347315Y53953886D01*
X24590620Y54318019D01*
X25630747Y54318019D01*
X25727524Y54083827D01*
X26259346Y53842521D01*
X26843030Y53823102D01*
X27389715Y54028529D01*
X27472476Y54083827D01*
X27569253Y54318019D01*
X26600000Y55287272D01*
X25630747Y54318019D01*
X24590620Y54318019D01*
X24600939Y54333461D01*
X24690000Y54781201D01*
X24690000Y55056970D01*
X25123102Y55056970D01*
X25328529Y54510285D01*
X25383827Y54427524D01*
X25618019Y54330747D01*
X26587272Y55300000D01*
X26612728Y55300000D01*
X27581981Y54330747D01*
X27816173Y54427524D01*
X28057479Y54959346D01*
X28076898Y55543030D01*
X27871471Y56089715D01*
X27816173Y56172476D01*
X27581981Y56269253D01*
X26612728Y55300000D01*
X26587272Y55300000D01*
X25618019Y56269253D01*
X25383827Y56172476D01*
X25142521Y55640654D01*
X25123102Y55056970D01*
X24690000Y55056970D01*
X24690000Y55438799D01*
X24600939Y55886539D01*
X24347315Y56266114D01*
X23967740Y56519738D01*
X23520000Y56608799D01*
X23072260Y56519738D01*
X22692685Y56266114D01*
X22439061Y55886539D01*
X22350000Y55438799D01*
X22150000Y55438799D01*
X22060939Y55886539D01*
X21807315Y56266114D01*
X21427740Y56519738D01*
X20980000Y56608799D01*
X20532260Y56519738D01*
X20152685Y56266114D01*
X19899061Y55886539D01*
X19810000Y55438799D01*
X19610000Y55438799D01*
X19520939Y55886539D01*
X19267315Y56266114D01*
X18960000Y56471455D01*
X18960000Y57828686D01*
X25329763Y57828686D01*
X25537893Y57324971D01*
X25922944Y56939248D01*
X26334374Y56768407D01*
X25810285Y56571471D01*
X25727524Y56516173D01*
X25630747Y56281981D01*
X26600000Y55312728D01*
X27569253Y56281981D01*
X27472476Y56516173D01*
X26987238Y56736342D01*
X27475029Y56937893D01*
X27860752Y57322944D01*
X28069762Y57826295D01*
X28070237Y58371314D01*
X27862107Y58875029D01*
X27477056Y59260752D01*
X26973705Y59469762D01*
X26428686Y59470237D01*
X25924971Y59262107D01*
X25539248Y58877056D01*
X25330238Y58373705D01*
X25329763Y57828686D01*
X18960000Y57828686D01*
X18960000Y58702826D01*
X18963886Y58704432D01*
X19194757Y58934901D01*
X19319858Y59236176D01*
X19320142Y59562393D01*
X19195568Y59863886D01*
X18965099Y60094757D01*
X18663824Y60219858D01*
X18337607Y60220142D01*
X18036114Y60095568D01*
X17805243Y59865099D01*
X17700344Y59612476D01*
X17386304Y59298436D01*
X16973705Y59469762D01*
X16428686Y59470237D01*
X15924971Y59262107D01*
X15539248Y58877056D01*
X15333769Y58382208D01*
X15322805Y58408743D01*
X15050178Y58681846D01*
X14693791Y58829831D01*
X14307902Y58830168D01*
X13951257Y58682805D01*
X13678154Y58410178D01*
X13666137Y58381237D01*
X13462107Y58875029D01*
X13077056Y59260752D01*
X12573705Y59469762D01*
X12028686Y59470237D01*
X11524971Y59262107D01*
X11433895Y59171190D01*
X9900697Y58904547D01*
X9863824Y58919858D01*
X9537607Y58920142D01*
X9236114Y58795568D01*
X9005243Y58565099D01*
X8880142Y58263824D01*
X8879858Y57937607D01*
X3669859Y57937607D01*
X3670237Y58371314D01*
X3462107Y58875029D01*
X3077056Y59260752D01*
X2573705Y59469762D01*
X2028686Y59470237D01*
X1524971Y59262107D01*
X1139248Y58877056D01*
X930238Y58373705D01*
X929763Y57828686D01*
X420000Y57828686D01*
X420000Y60118019D01*
X1330747Y60118019D01*
X1427524Y59883827D01*
X1959346Y59642521D01*
X2543030Y59623102D01*
X3089715Y59828529D01*
X3172476Y59883827D01*
X3269253Y60118019D01*
X2300000Y61087272D01*
X1330747Y60118019D01*
X420000Y60118019D01*
X420000Y60856970D01*
X823102Y60856970D01*
X1028529Y60310285D01*
X1083827Y60227524D01*
X1318019Y60130747D01*
X2287272Y61100000D01*
X2312728Y61100000D01*
X3281981Y60130747D01*
X3516173Y60227524D01*
X3757479Y60759346D01*
X3759785Y60828686D01*
X10929763Y60828686D01*
X11137893Y60324971D01*
X11522944Y59939248D01*
X12026295Y59730238D01*
X12571314Y59729763D01*
X13075029Y59937893D01*
X13460752Y60322944D01*
X13669762Y60826295D01*
X13669764Y60828686D01*
X15329763Y60828686D01*
X15537893Y60324971D01*
X15922944Y59939248D01*
X16426295Y59730238D01*
X16971314Y59729763D01*
X17475029Y59937893D01*
X17860752Y60322944D01*
X17866840Y60337607D01*
X22079858Y60337607D01*
X22204432Y60036114D01*
X22434901Y59805243D01*
X22736176Y59680142D01*
X23062393Y59679858D01*
X23363886Y59804432D01*
X23594757Y60034901D01*
X23629270Y60118019D01*
X25730747Y60118019D01*
X25827524Y59883827D01*
X26359346Y59642521D01*
X26943030Y59623102D01*
X27489715Y59828529D01*
X27572476Y59883827D01*
X27669253Y60118019D01*
X26700000Y61087272D01*
X25730747Y60118019D01*
X23629270Y60118019D01*
X23719858Y60336176D01*
X23720074Y60584683D01*
X23992361Y60856970D01*
X25223102Y60856970D01*
X25428529Y60310285D01*
X25483827Y60227524D01*
X25718019Y60130747D01*
X26687272Y61100000D01*
X26712728Y61100000D01*
X27681981Y60130747D01*
X27916173Y60227524D01*
X28157479Y60759346D01*
X28176898Y61343030D01*
X27971471Y61889715D01*
X27916173Y61972476D01*
X27681981Y62069253D01*
X26712728Y61100000D01*
X26687272Y61100000D01*
X25718019Y62069253D01*
X25483827Y61972476D01*
X25242521Y61440654D01*
X25223102Y60856970D01*
X23992361Y60856970D01*
X24615464Y61480073D01*
X24862393Y61479858D01*
X25163886Y61604432D01*
X25394757Y61834901D01*
X25497354Y62081981D01*
X25730747Y62081981D01*
X26700000Y61112728D01*
X27669253Y62081981D01*
X27572476Y62316173D01*
X27423401Y62383813D01*
X27711129Y62374514D01*
X28183164Y62552401D01*
X28252614Y62598804D01*
X28325058Y62812214D01*
X27500000Y63637272D01*
X26674942Y62812214D01*
X26747386Y62598804D01*
X26822670Y62564731D01*
X26456970Y62576898D01*
X25910285Y62371471D01*
X25827524Y62316173D01*
X25730747Y62081981D01*
X25497354Y62081981D01*
X25519858Y62136176D01*
X25520142Y62462393D01*
X25395568Y62763886D01*
X25165099Y62994757D01*
X24863824Y63119858D01*
X24537607Y63120142D01*
X24236114Y62995568D01*
X24005243Y62765099D01*
X23880142Y62463824D01*
X23879926Y62215317D01*
X22984535Y61319927D01*
X22737607Y61320142D01*
X22436114Y61195568D01*
X22205243Y60965099D01*
X22080142Y60663824D01*
X22079858Y60337607D01*
X17866840Y60337607D01*
X18069762Y60826295D01*
X18070237Y61371314D01*
X17862107Y61875029D01*
X17477056Y62260752D01*
X16973705Y62469762D01*
X16428686Y62470237D01*
X15924971Y62262107D01*
X15539248Y61877056D01*
X15330238Y61373705D01*
X15329763Y60828686D01*
X13669764Y60828686D01*
X13670237Y61371314D01*
X13462107Y61875029D01*
X13091372Y62246412D01*
X13819140Y62246412D01*
X13867250Y62053783D01*
X14254555Y61879099D01*
X14679228Y61865927D01*
X15076614Y62016274D01*
X15132750Y62053783D01*
X15180860Y62246412D01*
X14500000Y62927272D01*
X13819140Y62246412D01*
X13091372Y62246412D01*
X13077056Y62260752D01*
X12573705Y62469762D01*
X12028686Y62470237D01*
X11524971Y62262107D01*
X11139248Y61877056D01*
X10930238Y61373705D01*
X10929763Y60828686D01*
X3759785Y60828686D01*
X3776898Y61343030D01*
X3571471Y61889715D01*
X3516173Y61972476D01*
X3281981Y62069253D01*
X2312728Y61100000D01*
X2287272Y61100000D01*
X1318019Y62069253D01*
X1083827Y61972476D01*
X842521Y61440654D01*
X823102Y60856970D01*
X420000Y60856970D01*
X420000Y62812214D01*
X674942Y62812214D01*
X747386Y62598804D01*
X1206950Y62390809D01*
X1533648Y62380250D01*
X1510285Y62371471D01*
X1427524Y62316173D01*
X1330747Y62081981D01*
X2300000Y61112728D01*
X3269253Y62081981D01*
X3172476Y62316173D01*
X2640654Y62557479D01*
X2212103Y62571737D01*
X2252614Y62598804D01*
X2307595Y62760772D01*
X13425927Y62760772D01*
X13576274Y62363386D01*
X13613783Y62307250D01*
X13806412Y62259140D01*
X14487272Y62940000D01*
X14512728Y62940000D01*
X15193588Y62259140D01*
X15386217Y62307250D01*
X15560901Y62694555D01*
X15574073Y63119228D01*
X15423726Y63516614D01*
X15386217Y63572750D01*
X15193588Y63620860D01*
X14512728Y62940000D01*
X14487272Y62940000D01*
X13806412Y63620860D01*
X13613783Y63572750D01*
X13439099Y63185445D01*
X13425927Y62760772D01*
X2307595Y62760772D01*
X2325058Y62812214D01*
X1500000Y63637272D01*
X674942Y62812214D01*
X420000Y62812214D01*
X420000Y62940496D01*
X448804Y62897386D01*
X662214Y62824942D01*
X1487272Y63650000D01*
X1512728Y63650000D01*
X2337786Y62824942D01*
X2551196Y62897386D01*
X2759191Y63356950D01*
X2774092Y63818019D01*
X3430747Y63818019D01*
X3527524Y63583827D01*
X4059346Y63342521D01*
X4643030Y63323102D01*
X5189715Y63528529D01*
X5272476Y63583827D01*
X5369253Y63818019D01*
X4400000Y64787272D01*
X3430747Y63818019D01*
X2774092Y63818019D01*
X2775486Y63861129D01*
X2597599Y64333164D01*
X2551196Y64402614D01*
X2337786Y64475058D01*
X1512728Y63650000D01*
X1487272Y63650000D01*
X662214Y64475058D01*
X448804Y64402614D01*
X420000Y64338972D01*
X420000Y64487786D01*
X674942Y64487786D01*
X1500000Y63662728D01*
X2325058Y64487786D01*
X2301573Y64556970D01*
X2923102Y64556970D01*
X3128529Y64010285D01*
X3183827Y63927524D01*
X3418019Y63830747D01*
X4387272Y64800000D01*
X4412728Y64800000D01*
X5381981Y63830747D01*
X5616173Y63927524D01*
X5857479Y64459346D01*
X5859785Y64528686D01*
X6029763Y64528686D01*
X6237893Y64024971D01*
X6622944Y63639248D01*
X7126295Y63430238D01*
X7671314Y63429763D01*
X8164610Y63633588D01*
X13819140Y63633588D01*
X14500000Y62952728D01*
X15180860Y63633588D01*
X15132750Y63826217D01*
X14745445Y64000901D01*
X14320772Y64014073D01*
X13923386Y63863726D01*
X13867250Y63826217D01*
X13819140Y63633588D01*
X8164610Y63633588D01*
X8175029Y63637893D01*
X8560752Y64022944D01*
X8769762Y64526295D01*
X8770060Y64868294D01*
X9529797Y64868294D01*
X9707544Y64438114D01*
X10036383Y64108700D01*
X10466252Y63930203D01*
X10931706Y63929797D01*
X11361886Y64107544D01*
X11691300Y64436383D01*
X11797976Y64693288D01*
X11907544Y64428114D01*
X12236383Y64098700D01*
X12666252Y63920203D01*
X13131706Y63919797D01*
X13561886Y64097544D01*
X13891300Y64426383D01*
X14069797Y64856252D01*
X14069798Y64858294D01*
X14929797Y64858294D01*
X15107544Y64428114D01*
X15436383Y64098700D01*
X15866252Y63920203D01*
X16331706Y63919797D01*
X16761886Y64097544D01*
X17091300Y64426383D01*
X17200047Y64688276D01*
X17307544Y64428114D01*
X17636383Y64098700D01*
X18066252Y63920203D01*
X18531706Y63919797D01*
X18961886Y64097544D01*
X19291300Y64426383D01*
X19333779Y64528686D01*
X20229763Y64528686D01*
X20437893Y64024971D01*
X20822944Y63639248D01*
X21326295Y63430238D01*
X21871314Y63429763D01*
X22375029Y63637893D01*
X22555469Y63818019D01*
X23630747Y63818019D01*
X23727524Y63583827D01*
X24259346Y63342521D01*
X24843030Y63323102D01*
X25151115Y63438871D01*
X26224514Y63438871D01*
X26402401Y62966836D01*
X26448804Y62897386D01*
X26662214Y62824942D01*
X27487272Y63650000D01*
X26662214Y64475058D01*
X26448804Y64402614D01*
X26240809Y63943050D01*
X26224514Y63438871D01*
X25151115Y63438871D01*
X25389715Y63528529D01*
X25472476Y63583827D01*
X25569253Y63818019D01*
X24600000Y64787272D01*
X23630747Y63818019D01*
X22555469Y63818019D01*
X22760752Y64022944D01*
X22969762Y64526295D01*
X22969788Y64556970D01*
X23123102Y64556970D01*
X23328529Y64010285D01*
X23383827Y63927524D01*
X23618019Y63830747D01*
X24587272Y64800000D01*
X24612728Y64800000D01*
X25581981Y63830747D01*
X25816173Y63927524D01*
X26057479Y64459346D01*
X26058425Y64487786D01*
X26674942Y64487786D01*
X27500000Y63662728D01*
X28325058Y64487786D01*
X28252614Y64701196D01*
X27793050Y64909191D01*
X27288871Y64925486D01*
X26816836Y64747599D01*
X26747386Y64701196D01*
X26674942Y64487786D01*
X26058425Y64487786D01*
X26076898Y65043030D01*
X25871471Y65589715D01*
X25816173Y65672476D01*
X25581981Y65769253D01*
X24612728Y64800000D01*
X24587272Y64800000D01*
X23618019Y65769253D01*
X23383827Y65672476D01*
X23142521Y65140654D01*
X23123102Y64556970D01*
X22969788Y64556970D01*
X22970237Y65071314D01*
X22762107Y65575029D01*
X22555516Y65781981D01*
X23630747Y65781981D01*
X24600000Y64812728D01*
X25569253Y65781981D01*
X25472476Y66016173D01*
X24940654Y66257479D01*
X24356970Y66276898D01*
X23810285Y66071471D01*
X23727524Y66016173D01*
X23630747Y65781981D01*
X22555516Y65781981D01*
X22377056Y65960752D01*
X21873705Y66169762D01*
X21328686Y66170237D01*
X20824971Y65962107D01*
X20439248Y65577056D01*
X20230238Y65073705D01*
X20229763Y64528686D01*
X19333779Y64528686D01*
X19469797Y64856252D01*
X19470203Y65321706D01*
X19292456Y65751886D01*
X18963617Y66081300D01*
X18533748Y66259797D01*
X18068294Y66260203D01*
X17638114Y66082456D01*
X17308700Y65753617D01*
X17199953Y65491724D01*
X17092456Y65751886D01*
X16763617Y66081300D01*
X16333748Y66259797D01*
X15868294Y66260203D01*
X15438114Y66082456D01*
X15108700Y65753617D01*
X14930203Y65323748D01*
X14929797Y64858294D01*
X14069798Y64858294D01*
X14070203Y65321706D01*
X13892456Y65751886D01*
X13563617Y66081300D01*
X13133748Y66259797D01*
X12668294Y66260203D01*
X12238114Y66082456D01*
X11908700Y65753617D01*
X11802024Y65496712D01*
X11692456Y65761886D01*
X11363617Y66091300D01*
X10933748Y66269797D01*
X10468294Y66270203D01*
X10038114Y66092456D01*
X9708700Y65763617D01*
X9530203Y65333748D01*
X9529797Y64868294D01*
X8770060Y64868294D01*
X8770237Y65071314D01*
X8562107Y65575029D01*
X8177056Y65960752D01*
X7673705Y66169762D01*
X7128686Y66170237D01*
X6624971Y65962107D01*
X6239248Y65577056D01*
X6030238Y65073705D01*
X6029763Y64528686D01*
X5859785Y64528686D01*
X5876898Y65043030D01*
X5671471Y65589715D01*
X5616173Y65672476D01*
X5381981Y65769253D01*
X4412728Y64800000D01*
X4387272Y64800000D01*
X3418019Y65769253D01*
X3183827Y65672476D01*
X2942521Y65140654D01*
X2923102Y64556970D01*
X2301573Y64556970D01*
X2252614Y64701196D01*
X1793050Y64909191D01*
X1288871Y64925486D01*
X816836Y64747599D01*
X747386Y64701196D01*
X674942Y64487786D01*
X420000Y64487786D01*
X420000Y65352214D01*
X674942Y65352214D01*
X747386Y65138804D01*
X1206950Y64930809D01*
X1711129Y64914514D01*
X2183164Y65092401D01*
X2252614Y65138804D01*
X2325058Y65352214D01*
X1500000Y66177272D01*
X674942Y65352214D01*
X420000Y65352214D01*
X420000Y65480496D01*
X448804Y65437386D01*
X662214Y65364942D01*
X1487272Y66190000D01*
X1512728Y66190000D01*
X2337786Y65364942D01*
X2551196Y65437386D01*
X2707156Y65781981D01*
X3430747Y65781981D01*
X4400000Y64812728D01*
X5369253Y65781981D01*
X5272476Y66016173D01*
X4740654Y66257479D01*
X4156970Y66276898D01*
X3610285Y66071471D01*
X3527524Y66016173D01*
X3430747Y65781981D01*
X2707156Y65781981D01*
X2759191Y65896950D01*
X2775486Y66401129D01*
X2597599Y66873164D01*
X2551196Y66942614D01*
X2337786Y67015058D01*
X1512728Y66190000D01*
X1487272Y66190000D01*
X662214Y67015058D01*
X448804Y66942614D01*
X420000Y66878972D01*
X420000Y67027786D01*
X674942Y67027786D01*
X1500000Y66202728D01*
X2325058Y67027786D01*
X2252614Y67241196D01*
X1793050Y67449191D01*
X1288871Y67465486D01*
X816836Y67287599D01*
X747386Y67241196D01*
X674942Y67027786D01*
X420000Y67027786D01*
X420000Y68279986D01*
X507544Y68068114D01*
X836383Y67738700D01*
X1266252Y67560203D01*
X1731706Y67559797D01*
X2161886Y67737544D01*
X2491300Y68066383D01*
X2669797Y68496252D01*
X2670203Y68961706D01*
X2492456Y69391886D01*
X2163617Y69721300D01*
X1733748Y69899797D01*
X1268294Y69900203D01*
X838114Y69722456D01*
X508700Y69393617D01*
X420000Y69180003D01*
X420000Y70432214D01*
X674942Y70432214D01*
X747386Y70218804D01*
X1206950Y70010809D01*
X1711129Y69994514D01*
X2183164Y70172401D01*
X2252614Y70218804D01*
X2325058Y70432214D01*
X1500000Y71257272D01*
X674942Y70432214D01*
X420000Y70432214D01*
X420000Y70560496D01*
X448804Y70517386D01*
X662214Y70444942D01*
X1487272Y71270000D01*
X1512728Y71270000D01*
X2337786Y70444942D01*
X2551196Y70517386D01*
X2759191Y70976950D01*
X2775486Y71481129D01*
X2597599Y71953164D01*
X2551196Y72022614D01*
X2337786Y72095058D01*
X1512728Y71270000D01*
X1487272Y71270000D01*
X662214Y72095058D01*
X448804Y72022614D01*
X420000Y71958972D01*
X420000Y72107786D01*
X674942Y72107786D01*
X1500000Y71282728D01*
X2325058Y72107786D01*
X2252614Y72321196D01*
X1927602Y72468294D01*
X9529797Y72468294D01*
X9707544Y72038114D01*
X10036383Y71708700D01*
X10466252Y71530203D01*
X10931706Y71529797D01*
X11361886Y71707544D01*
X11691300Y72036383D01*
X11802118Y72303263D01*
X11907544Y72048114D01*
X12236383Y71718700D01*
X12666252Y71540203D01*
X13131706Y71539797D01*
X13561886Y71717544D01*
X13891300Y72046383D01*
X14069797Y72476252D01*
X14069798Y72478294D01*
X14929797Y72478294D01*
X15107544Y72048114D01*
X15436383Y71718700D01*
X15580000Y71659065D01*
X15580000Y70039552D01*
X15405243Y69865099D01*
X15280142Y69563824D01*
X15279858Y69237607D01*
X15404432Y68936114D01*
X15634901Y68705243D01*
X15936176Y68580142D01*
X16262393Y68579858D01*
X16563886Y68704432D01*
X16794757Y68934901D01*
X16919858Y69236176D01*
X16920142Y69562393D01*
X16795568Y69863886D01*
X16620000Y70039760D01*
X16620000Y70432214D01*
X26674942Y70432214D01*
X26747386Y70218804D01*
X27206950Y70010809D01*
X27711129Y69994514D01*
X28183164Y70172401D01*
X28252614Y70218804D01*
X28325058Y70432214D01*
X27500000Y71257272D01*
X26674942Y70432214D01*
X16620000Y70432214D01*
X16620000Y71058871D01*
X26224514Y71058871D01*
X26402401Y70586836D01*
X26448804Y70517386D01*
X26662214Y70444942D01*
X27487272Y71270000D01*
X26662214Y72095058D01*
X26448804Y72022614D01*
X26240809Y71563050D01*
X26224514Y71058871D01*
X16620000Y71058871D01*
X16620000Y71658918D01*
X16761886Y71717544D01*
X17091300Y72046383D01*
X17200047Y72308276D01*
X17307544Y72048114D01*
X17636383Y71718700D01*
X18066252Y71540203D01*
X18531706Y71539797D01*
X18961886Y71717544D01*
X19291300Y72046383D01*
X19316796Y72107786D01*
X26674942Y72107786D01*
X27500000Y71282728D01*
X28325058Y72107786D01*
X28252614Y72321196D01*
X27793050Y72529191D01*
X27288871Y72545486D01*
X26816836Y72367599D01*
X26747386Y72321196D01*
X26674942Y72107786D01*
X19316796Y72107786D01*
X19469797Y72476252D01*
X19470203Y72941706D01*
X19292456Y73371886D01*
X18963617Y73701300D01*
X18533748Y73879797D01*
X18068294Y73880203D01*
X17638114Y73702456D01*
X17308700Y73373617D01*
X17199953Y73111724D01*
X17092456Y73371886D01*
X16763617Y73701300D01*
X16333748Y73879797D01*
X15868294Y73880203D01*
X15438114Y73702456D01*
X15108700Y73373617D01*
X14930203Y72943748D01*
X14929797Y72478294D01*
X14069798Y72478294D01*
X14070203Y72941706D01*
X13892456Y73371886D01*
X13563617Y73701300D01*
X13133748Y73879797D01*
X12668294Y73880203D01*
X12238114Y73702456D01*
X11908700Y73373617D01*
X11797882Y73106737D01*
X11692456Y73361886D01*
X11363617Y73691300D01*
X10933748Y73869797D01*
X10468294Y73870203D01*
X10038114Y73692456D01*
X9708700Y73363617D01*
X9530203Y72933748D01*
X9529797Y72468294D01*
X1927602Y72468294D01*
X1793050Y72529191D01*
X1288871Y72545486D01*
X816836Y72367599D01*
X747386Y72321196D01*
X674942Y72107786D01*
X420000Y72107786D01*
X420000Y73359986D01*
X507544Y73148114D01*
X836383Y72818700D01*
X1266252Y72640203D01*
X1731706Y72639797D01*
X2161886Y72817544D01*
X2491300Y73146383D01*
X2669797Y73576252D01*
X2670203Y74041706D01*
X2492456Y74471886D01*
X2435756Y74528686D01*
X3029763Y74528686D01*
X3237893Y74024971D01*
X3622944Y73639248D01*
X4126295Y73430238D01*
X4671314Y73429763D01*
X5175029Y73637893D01*
X5560752Y74022944D01*
X5769762Y74526295D01*
X5769764Y74528686D01*
X6029763Y74528686D01*
X6237893Y74024971D01*
X6622944Y73639248D01*
X7126295Y73430238D01*
X7671314Y73429763D01*
X8175029Y73637893D01*
X8560752Y74022944D01*
X8769762Y74526295D01*
X8769764Y74528686D01*
X20229763Y74528686D01*
X20437893Y74024971D01*
X20822944Y73639248D01*
X21326295Y73430238D01*
X21871314Y73429763D01*
X22375029Y73637893D01*
X22760752Y74022944D01*
X22969762Y74526295D01*
X22969764Y74528686D01*
X23229763Y74528686D01*
X23437893Y74024971D01*
X23822944Y73639248D01*
X24326295Y73430238D01*
X24871314Y73429763D01*
X25375029Y73637893D01*
X25760752Y74022944D01*
X25969762Y74526295D01*
X25970237Y75071314D01*
X25762107Y75575029D01*
X25377056Y75960752D01*
X24873705Y76169762D01*
X24328686Y76170237D01*
X23824971Y75962107D01*
X23439248Y75577056D01*
X23230238Y75073705D01*
X23229763Y74528686D01*
X22969764Y74528686D01*
X22970237Y75071314D01*
X22762107Y75575029D01*
X22377056Y75960752D01*
X21873705Y76169762D01*
X21328686Y76170237D01*
X20824971Y75962107D01*
X20439248Y75577056D01*
X20230238Y75073705D01*
X20229763Y74528686D01*
X8769764Y74528686D01*
X8770237Y75071314D01*
X8562107Y75575029D01*
X8177056Y75960752D01*
X7673705Y76169762D01*
X7128686Y76170237D01*
X6624971Y75962107D01*
X6239248Y75577056D01*
X6030238Y75073705D01*
X6029763Y74528686D01*
X5769764Y74528686D01*
X5770237Y75071314D01*
X5562107Y75575029D01*
X5177056Y75960752D01*
X4673705Y76169762D01*
X4128686Y76170237D01*
X3624971Y75962107D01*
X3239248Y75577056D01*
X3030238Y75073705D01*
X3029763Y74528686D01*
X2435756Y74528686D01*
X2163617Y74801300D01*
X1733748Y74979797D01*
X1350000Y74980132D01*
X1350000Y75082000D01*
X1374000Y75082000D01*
X1491000Y75199000D01*
X1491000Y76341000D01*
X1509000Y76341000D01*
X1509000Y75199000D01*
X1626000Y75082000D01*
X2393091Y75082000D01*
X2565101Y75153249D01*
X2696751Y75284899D01*
X2768000Y75456909D01*
X2768000Y76224000D01*
X2653902Y76338098D01*
X9929814Y76338098D01*
X10092369Y75944685D01*
X10393102Y75643427D01*
X10786230Y75480186D01*
X11211902Y75479814D01*
X11605315Y75642369D01*
X11906573Y75943102D01*
X12069814Y76336230D01*
X12069815Y76338098D01*
X16929814Y76338098D01*
X17092369Y75944685D01*
X17393102Y75643427D01*
X17786230Y75480186D01*
X18211902Y75479814D01*
X18605315Y75642369D01*
X18906573Y75943102D01*
X19069814Y76336230D01*
X19070186Y76761902D01*
X18907631Y77155315D01*
X18606898Y77456573D01*
X18213770Y77619814D01*
X17788098Y77620186D01*
X17394685Y77457631D01*
X17093427Y77156898D01*
X16930186Y76763770D01*
X16929814Y76338098D01*
X12069815Y76338098D01*
X12070186Y76761902D01*
X11907631Y77155315D01*
X11606898Y77456573D01*
X11213770Y77619814D01*
X10788098Y77620186D01*
X10394685Y77457631D01*
X10093427Y77156898D01*
X9930186Y76763770D01*
X9929814Y76338098D01*
X2653902Y76338098D01*
X2651000Y76341000D01*
X1509000Y76341000D01*
X1491000Y76341000D01*
X1471000Y76341000D01*
X1471000Y76359000D01*
X1491000Y76359000D01*
X1491000Y77501000D01*
X1509000Y77501000D01*
X1509000Y76359000D01*
X2651000Y76359000D01*
X2768000Y76476000D01*
X2768000Y77243091D01*
X2696751Y77415101D01*
X2565101Y77546751D01*
X2393091Y77618000D01*
X1626000Y77618000D01*
X1509000Y77501000D01*
X1491000Y77501000D01*
X1374000Y77618000D01*
X606909Y77618000D01*
X434899Y77546751D01*
X420000Y77531852D01*
X420000Y79750000D01*
X9922752Y79750000D01*
X9922752Y78350000D01*
X9951468Y78205633D01*
X10033245Y78083245D01*
X10155633Y78001468D01*
X10300000Y77972752D01*
X11700000Y77972752D01*
X11844367Y78001468D01*
X11966755Y78083245D01*
X12048532Y78205633D01*
X12077248Y78350000D01*
X12077248Y79750000D01*
X16922752Y79750000D01*
X16922752Y78350000D01*
X16951468Y78205633D01*
X17033245Y78083245D01*
X17155633Y78001468D01*
X17300000Y77972752D01*
X18700000Y77972752D01*
X18844367Y78001468D01*
X18966755Y78083245D01*
X19048532Y78205633D01*
X19077248Y78350000D01*
X19077248Y79750000D01*
X19048532Y79894367D01*
X18966755Y80016755D01*
X18844367Y80098532D01*
X18700000Y80127248D01*
X17300000Y80127248D01*
X17155633Y80098532D01*
X17033245Y80016755D01*
X16951468Y79894367D01*
X16922752Y79750000D01*
X12077248Y79750000D01*
X12048532Y79894367D01*
X11966755Y80016755D01*
X11844367Y80098532D01*
X11700000Y80127248D01*
X10300000Y80127248D01*
X10155633Y80098532D01*
X10033245Y80016755D01*
X9951468Y79894367D01*
X9922752Y79750000D01*
X420000Y79750000D01*
X420000Y81580000D01*
X28580000Y81580000D01*
X28580000Y77396932D01*
X28580000Y77396932D01*
G37*
X28580000Y77396932D02*
X28566755Y77416755D01*
X28444367Y77498532D01*
X28300000Y77527248D01*
X26700000Y77527248D01*
X26555633Y77498532D01*
X26433245Y77416755D01*
X26351468Y77294367D01*
X26322752Y77150000D01*
X26322752Y75550000D01*
X26350000Y75413013D01*
X26350000Y74091425D01*
X26330203Y74043748D01*
X26329797Y73578294D01*
X26507544Y73148114D01*
X26836383Y72818700D01*
X27266252Y72640203D01*
X27731706Y72639797D01*
X28161886Y72817544D01*
X28491300Y73146383D01*
X28580000Y73359997D01*
X28580000Y71979504D01*
X28551196Y72022614D01*
X28337786Y72095058D01*
X27512728Y71270000D01*
X28337786Y70444942D01*
X28551196Y70517386D01*
X28580000Y70581028D01*
X28580000Y69180014D01*
X28492456Y69391886D01*
X28163617Y69721300D01*
X27733748Y69899797D01*
X27268294Y69900203D01*
X26838114Y69722456D01*
X26508700Y69393617D01*
X26330203Y68963748D01*
X26329797Y68498294D01*
X26450000Y68207381D01*
X26450000Y66712252D01*
X26330203Y66423748D01*
X26329797Y65958294D01*
X26507544Y65528114D01*
X26836383Y65198700D01*
X27266252Y65020203D01*
X27731706Y65019797D01*
X28161886Y65197544D01*
X28491300Y65526383D01*
X28580000Y65739997D01*
X28580000Y64359504D01*
X28551196Y64402614D01*
X28337786Y64475058D01*
X27512728Y63650000D01*
X28337786Y62824942D01*
X28551196Y62897386D01*
X28580000Y62961028D01*
X28580000Y21396932D01*
X28566755Y21416755D01*
X28444367Y21498532D01*
X28300000Y21527248D01*
X26700000Y21527248D01*
X26555633Y21498532D01*
X26433245Y21416755D01*
X26351468Y21294367D01*
X26322752Y21150000D01*
X26322752Y19550000D01*
X26350944Y19408265D01*
X26350000Y19400000D01*
X26350000Y18200000D01*
X26361418Y18142597D01*
X26367481Y18133523D01*
X26330203Y18043748D01*
X26329797Y17578294D01*
X26389181Y17434573D01*
X24332304Y15377696D01*
X24219583Y15208995D01*
X24179999Y15010000D01*
X24180000Y15009995D01*
X24180000Y13567482D01*
X23924971Y13462107D01*
X23539248Y13077056D01*
X23330238Y12573705D01*
X23329763Y12028686D01*
X23537893Y11524971D01*
X23922944Y11139248D01*
X24426295Y10930238D01*
X24971314Y10929763D01*
X25208548Y11027786D01*
X26674942Y11027786D01*
X27500000Y10202728D01*
X28325058Y11027786D01*
X28252614Y11241196D01*
X27793050Y11449191D01*
X27288871Y11465486D01*
X26816836Y11287599D01*
X26747386Y11241196D01*
X26674942Y11027786D01*
X25208548Y11027786D01*
X25475029Y11137893D01*
X25860752Y11522944D01*
X26069762Y12026295D01*
X26070237Y12571314D01*
X25862107Y13075029D01*
X25477056Y13460752D01*
X25220000Y13567491D01*
X25220000Y14432214D01*
X26674942Y14432214D01*
X26747386Y14218804D01*
X27206950Y14010809D01*
X27711129Y13994514D01*
X28183164Y14172401D01*
X28252614Y14218804D01*
X28325058Y14432214D01*
X27500000Y15257272D01*
X26674942Y14432214D01*
X25220000Y14432214D01*
X25220000Y14794608D01*
X26591331Y16165939D01*
X26662212Y16095057D01*
X26448804Y16022614D01*
X26240809Y15563050D01*
X26224514Y15058871D01*
X26402401Y14586836D01*
X26448804Y14517386D01*
X26662214Y14444942D01*
X27487272Y15270000D01*
X27473130Y15284142D01*
X27485858Y15296870D01*
X27500000Y15282728D01*
X28325058Y16107786D01*
X28252614Y16321196D01*
X27793050Y16529191D01*
X27288871Y16545486D01*
X26816836Y16367599D01*
X26747386Y16321196D01*
X26674943Y16107788D01*
X26604061Y16178669D01*
X27124469Y16699077D01*
X27266252Y16640203D01*
X27731706Y16639797D01*
X28161886Y16817544D01*
X28491300Y17146383D01*
X28580000Y17359997D01*
X28580000Y15979504D01*
X28551196Y16022614D01*
X28337786Y16095058D01*
X27512728Y15270000D01*
X28337786Y14444942D01*
X28551196Y14517386D01*
X28580000Y14581028D01*
X28580000Y13180014D01*
X28492456Y13391886D01*
X28163617Y13721300D01*
X27733748Y13899797D01*
X27268294Y13900203D01*
X26838114Y13722456D01*
X26508700Y13393617D01*
X26330203Y12963748D01*
X26329797Y12498294D01*
X26507544Y12068114D01*
X26836383Y11738700D01*
X27266252Y11560203D01*
X27731706Y11559797D01*
X28161886Y11737544D01*
X28491300Y12066383D01*
X28580000Y12279997D01*
X28580000Y10899504D01*
X28551196Y10942614D01*
X28337786Y11015058D01*
X27512728Y10190000D01*
X28337786Y9364942D01*
X28551196Y9437386D01*
X28580000Y9501028D01*
X28580000Y8359504D01*
X28551196Y8402614D01*
X28337786Y8475058D01*
X27512728Y7650000D01*
X28337786Y6824942D01*
X28551196Y6897386D01*
X28580000Y6961028D01*
X28580000Y420000D01*
X420000Y420000D01*
X420000Y4088098D01*
X3179814Y4088098D01*
X3342369Y3694685D01*
X3643102Y3393427D01*
X4036230Y3230186D01*
X4461902Y3229814D01*
X4855315Y3392369D01*
X5156573Y3693102D01*
X5319814Y4086230D01*
X5320186Y4511902D01*
X5157631Y4905315D01*
X5063112Y5000000D01*
X5672752Y5000000D01*
X5672752Y3600000D01*
X5701468Y3455633D01*
X5783245Y3333245D01*
X5905633Y3251468D01*
X6050000Y3222752D01*
X7450000Y3222752D01*
X7594367Y3251468D01*
X7716755Y3333245D01*
X7798532Y3455633D01*
X7827248Y3600000D01*
X7827248Y5000000D01*
X7798532Y5144367D01*
X7742192Y5228686D01*
X10229763Y5228686D01*
X10437893Y4724971D01*
X10822944Y4339248D01*
X11080000Y4232509D01*
X11080000Y3767482D01*
X10824971Y3662107D01*
X10439248Y3277056D01*
X10230238Y2773705D01*
X10229763Y2228686D01*
X10437893Y1724971D01*
X10822944Y1339248D01*
X11326295Y1130238D01*
X11871314Y1129763D01*
X12375029Y1337893D01*
X12760752Y1722944D01*
X12969762Y2226295D01*
X12969764Y2228686D01*
X20229763Y2228686D01*
X20437893Y1724971D01*
X20822944Y1339248D01*
X21326295Y1130238D01*
X21871314Y1129763D01*
X22326930Y1318019D01*
X23730747Y1318019D01*
X23827524Y1083827D01*
X24359346Y842521D01*
X24943030Y823102D01*
X25489715Y1028529D01*
X25572476Y1083827D01*
X25669253Y1318019D01*
X24700000Y2287272D01*
X23730747Y1318019D01*
X22326930Y1318019D01*
X22375029Y1337893D01*
X22760752Y1722944D01*
X22899451Y2056970D01*
X23223102Y2056970D01*
X23428529Y1510285D01*
X23483827Y1427524D01*
X23718019Y1330747D01*
X24687272Y2300000D01*
X24712728Y2300000D01*
X25681981Y1330747D01*
X25916173Y1427524D01*
X26157479Y1959346D01*
X26176898Y2543030D01*
X25971471Y3089715D01*
X25916173Y3172476D01*
X25681981Y3269253D01*
X24712728Y2300000D01*
X24687272Y2300000D01*
X23718019Y3269253D01*
X23483827Y3172476D01*
X23242521Y2640654D01*
X23223102Y2056970D01*
X22899451Y2056970D01*
X22969762Y2226295D01*
X22970237Y2771314D01*
X22762107Y3275029D01*
X22755168Y3281981D01*
X23730747Y3281981D01*
X24700000Y2312728D01*
X25669253Y3281981D01*
X25572476Y3516173D01*
X25040654Y3757479D01*
X24456970Y3776898D01*
X23910285Y3571471D01*
X23827524Y3516173D01*
X23730747Y3281981D01*
X22755168Y3281981D01*
X22377056Y3660752D01*
X21873705Y3869762D01*
X21328686Y3870237D01*
X20824971Y3662107D01*
X20439248Y3277056D01*
X20230238Y2773705D01*
X20229763Y2228686D01*
X12969764Y2228686D01*
X12970237Y2771314D01*
X12762107Y3275029D01*
X12377056Y3660752D01*
X12120000Y3767491D01*
X12120000Y4232518D01*
X12375029Y4337893D01*
X12760752Y4722944D01*
X12969762Y5226295D01*
X12969764Y5228686D01*
X20229763Y5228686D01*
X20437893Y4724971D01*
X20822944Y4339248D01*
X21326295Y4130238D01*
X21871314Y4129763D01*
X22375029Y4337893D01*
X22760752Y4722944D01*
X22969762Y5226295D01*
X22970237Y5771314D01*
X22762107Y6275029D01*
X22377056Y6660752D01*
X22012296Y6812214D01*
X26674942Y6812214D01*
X26747386Y6598804D01*
X27206950Y6390809D01*
X27711129Y6374514D01*
X28183164Y6552401D01*
X28252614Y6598804D01*
X28325058Y6812214D01*
X27500000Y7637272D01*
X26674942Y6812214D01*
X22012296Y6812214D01*
X21873705Y6869762D01*
X21328686Y6870237D01*
X20824971Y6662107D01*
X20439248Y6277056D01*
X20230238Y5773705D01*
X20229763Y5228686D01*
X12969764Y5228686D01*
X12970237Y5771314D01*
X12762107Y6275029D01*
X12377056Y6660752D01*
X11873705Y6869762D01*
X11328686Y6870237D01*
X10824971Y6662107D01*
X10439248Y6277056D01*
X10230238Y5773705D01*
X10229763Y5228686D01*
X7742192Y5228686D01*
X7716755Y5266755D01*
X7594367Y5348532D01*
X7450000Y5377248D01*
X6050000Y5377248D01*
X5905633Y5348532D01*
X5783245Y5266755D01*
X5701468Y5144367D01*
X5672752Y5000000D01*
X5063112Y5000000D01*
X4856898Y5206573D01*
X4463770Y5369814D01*
X4038098Y5370186D01*
X3644685Y5207631D01*
X3343427Y4906898D01*
X3180186Y4513770D01*
X3179814Y4088098D01*
X420000Y4088098D01*
X420000Y6812214D01*
X674942Y6812214D01*
X747386Y6598804D01*
X1206950Y6390809D01*
X1711129Y6374514D01*
X2183164Y6552401D01*
X2252614Y6598804D01*
X2325058Y6812214D01*
X1500000Y7637272D01*
X674942Y6812214D01*
X420000Y6812214D01*
X420000Y6940496D01*
X448804Y6897386D01*
X662214Y6824942D01*
X1487272Y7650000D01*
X1512728Y7650000D01*
X2337786Y6824942D01*
X2551196Y6897386D01*
X2759191Y7356950D01*
X2761838Y7438871D01*
X26224514Y7438871D01*
X26402401Y6966836D01*
X26448804Y6897386D01*
X26662214Y6824942D01*
X27487272Y7650000D01*
X26662214Y8475058D01*
X26448804Y8402614D01*
X26240809Y7943050D01*
X26224514Y7438871D01*
X2761838Y7438871D01*
X2775486Y7861129D01*
X2597599Y8333164D01*
X2551196Y8402614D01*
X2337786Y8475058D01*
X1512728Y7650000D01*
X1487272Y7650000D01*
X662214Y8475058D01*
X448804Y8402614D01*
X420000Y8338972D01*
X420000Y8487786D01*
X674942Y8487786D01*
X1500000Y7662728D01*
X2325058Y8487786D01*
X26674942Y8487786D01*
X27500000Y7662728D01*
X28325058Y8487786D01*
X28252614Y8701196D01*
X27793050Y8909191D01*
X27288871Y8925486D01*
X26816836Y8747599D01*
X26747386Y8701196D01*
X26674942Y8487786D01*
X2325058Y8487786D01*
X2252614Y8701196D01*
X1793050Y8909191D01*
X1288871Y8925486D01*
X816836Y8747599D01*
X747386Y8701196D01*
X674942Y8487786D01*
X420000Y8487786D01*
X420000Y9739986D01*
X507544Y9528114D01*
X836383Y9198700D01*
X1266252Y9020203D01*
X1731706Y9019797D01*
X2161886Y9197544D01*
X2491300Y9526383D01*
X2536116Y9634314D01*
X5797042Y9634314D01*
X5857318Y9431293D01*
X6280753Y9239954D01*
X6745178Y9225221D01*
X7179890Y9389337D01*
X7242682Y9431293D01*
X7302958Y9634314D01*
X6550000Y10387272D01*
X5797042Y9634314D01*
X2536116Y9634314D01*
X2669797Y9956252D01*
X2670013Y10204822D01*
X5375221Y10204822D01*
X5539337Y9770110D01*
X5581293Y9707318D01*
X5784314Y9647042D01*
X6537272Y10400000D01*
X6562728Y10400000D01*
X7315686Y9647042D01*
X7518707Y9707318D01*
X7710046Y10130753D01*
X7724779Y10595178D01*
X7560663Y11029890D01*
X7518707Y11092682D01*
X7494059Y11100000D01*
X7972752Y11100000D01*
X7972752Y9700000D01*
X8001468Y9555633D01*
X8083245Y9433245D01*
X8205633Y9351468D01*
X8350000Y9322752D01*
X9750000Y9322752D01*
X9894367Y9351468D01*
X10016755Y9433245D01*
X10098532Y9555633D01*
X10127248Y9700000D01*
X10127248Y10900000D01*
X17672752Y10900000D01*
X17672752Y9500000D01*
X17701468Y9355633D01*
X17783245Y9233245D01*
X17905633Y9151468D01*
X18050000Y9122752D01*
X19450000Y9122752D01*
X19594367Y9151468D01*
X19716755Y9233245D01*
X19798532Y9355633D01*
X19827248Y9500000D01*
X19827248Y9988098D01*
X20179814Y9988098D01*
X20342369Y9594685D01*
X20643102Y9293427D01*
X21036230Y9130186D01*
X21461902Y9129814D01*
X21855315Y9292369D01*
X21915264Y9352214D01*
X26674942Y9352214D01*
X26747386Y9138804D01*
X27206950Y8930809D01*
X27711129Y8914514D01*
X28183164Y9092401D01*
X28252614Y9138804D01*
X28325058Y9352214D01*
X27500000Y10177272D01*
X26674942Y9352214D01*
X21915264Y9352214D01*
X22156573Y9593102D01*
X22316758Y9978871D01*
X26224514Y9978871D01*
X26402401Y9506836D01*
X26448804Y9437386D01*
X26662214Y9364942D01*
X27487272Y10190000D01*
X26662214Y11015058D01*
X26448804Y10942614D01*
X26240809Y10483050D01*
X26224514Y9978871D01*
X22316758Y9978871D01*
X22319814Y9986230D01*
X22320186Y10411902D01*
X22157631Y10805315D01*
X21856898Y11106573D01*
X21463770Y11269814D01*
X21038098Y11270186D01*
X20644685Y11107631D01*
X20343427Y10806898D01*
X20180186Y10413770D01*
X20179814Y9988098D01*
X19827248Y9988098D01*
X19827248Y10900000D01*
X19798532Y11044367D01*
X19716755Y11166755D01*
X19594367Y11248532D01*
X19450000Y11277248D01*
X18050000Y11277248D01*
X17905633Y11248532D01*
X17783245Y11166755D01*
X17701468Y11044367D01*
X17672752Y10900000D01*
X10127248Y10900000D01*
X10127248Y11100000D01*
X10098532Y11244367D01*
X10016755Y11366755D01*
X9894367Y11448532D01*
X9750000Y11477248D01*
X8350000Y11477248D01*
X8205633Y11448532D01*
X8083245Y11366755D01*
X8001468Y11244367D01*
X7972752Y11100000D01*
X7494059Y11100000D01*
X7315686Y11152958D01*
X6562728Y10400000D01*
X6537272Y10400000D01*
X5784314Y11152958D01*
X5581293Y11092682D01*
X5389954Y10669247D01*
X5375221Y10204822D01*
X2670013Y10204822D01*
X2670203Y10421706D01*
X2650000Y10470601D01*
X2650000Y11165686D01*
X5797042Y11165686D01*
X6550000Y10412728D01*
X7302958Y11165686D01*
X7242682Y11368707D01*
X6819247Y11560046D01*
X6354822Y11574779D01*
X5920110Y11410663D01*
X5857318Y11368707D01*
X5797042Y11165686D01*
X2650000Y11165686D01*
X2650000Y12448575D01*
X2669797Y12496252D01*
X2670203Y12961706D01*
X2492456Y13391886D01*
X2163617Y13721300D01*
X1733748Y13899797D01*
X1268294Y13900203D01*
X838114Y13722456D01*
X508700Y13393617D01*
X420000Y13180003D01*
X420000Y14432214D01*
X674942Y14432214D01*
X747386Y14218804D01*
X1206950Y14010809D01*
X1711129Y13994514D01*
X2183164Y14172401D01*
X2252614Y14218804D01*
X2325058Y14432214D01*
X1500000Y15257272D01*
X674942Y14432214D01*
X420000Y14432214D01*
X420000Y14560496D01*
X448804Y14517386D01*
X662214Y14444942D01*
X1487272Y15270000D01*
X1512728Y15270000D01*
X2337786Y14444942D01*
X2551196Y14517386D01*
X2556310Y14528686D01*
X4629763Y14528686D01*
X4837893Y14024971D01*
X5222944Y13639248D01*
X5726295Y13430238D01*
X6271314Y13429763D01*
X6775029Y13637893D01*
X7160752Y14022944D01*
X7369762Y14526295D01*
X7369764Y14528686D01*
X7729763Y14528686D01*
X7937893Y14024971D01*
X8322944Y13639248D01*
X8826295Y13430238D01*
X9371314Y13429763D01*
X9875029Y13637893D01*
X10260752Y14022944D01*
X10469762Y14526295D01*
X10470237Y15071314D01*
X10262107Y15575029D01*
X10008892Y15828686D01*
X10829763Y15828686D01*
X11037893Y15324971D01*
X11422944Y14939248D01*
X11926295Y14730238D01*
X12471314Y14729763D01*
X12975029Y14937893D01*
X13180000Y15142507D01*
X13180000Y13000005D01*
X13179999Y13000000D01*
X13219583Y12801005D01*
X13332304Y12632304D01*
X13780073Y12184536D01*
X13779858Y11937607D01*
X13904432Y11636114D01*
X14134901Y11405243D01*
X14436176Y11280142D01*
X14762393Y11279858D01*
X15063886Y11404432D01*
X15294757Y11634901D01*
X15419858Y11936176D01*
X15420142Y12262393D01*
X15295568Y12563886D01*
X15065099Y12794757D01*
X14763824Y12919858D01*
X14515317Y12920074D01*
X14220000Y13215392D01*
X14220000Y14067902D01*
X16929832Y14067902D01*
X17077195Y13711257D01*
X17349822Y13438154D01*
X17706209Y13290169D01*
X18092098Y13289832D01*
X18448743Y13437195D01*
X18721846Y13709822D01*
X18869831Y14066209D01*
X18870168Y14452098D01*
X18722805Y14808743D01*
X18450178Y15081846D01*
X18093791Y15229831D01*
X17707902Y15230168D01*
X17351257Y15082805D01*
X17078154Y14810178D01*
X16930169Y14453791D01*
X16929832Y14067902D01*
X14220000Y14067902D01*
X14220000Y15142546D01*
X14422944Y14939248D01*
X14926295Y14730238D01*
X15471314Y14729763D01*
X15975029Y14937893D01*
X16360752Y15322944D01*
X16569762Y15826295D01*
X16570237Y16371314D01*
X16362107Y16875029D01*
X16137528Y17100000D01*
X19872752Y17100000D01*
X19872752Y15700000D01*
X19901468Y15555633D01*
X19983245Y15433245D01*
X20105633Y15351468D01*
X20250000Y15322752D01*
X21650000Y15322752D01*
X21794367Y15351468D01*
X21916755Y15433245D01*
X21998532Y15555633D01*
X22014182Y15634314D01*
X22697042Y15634314D01*
X22757318Y15431293D01*
X23180753Y15239954D01*
X23645178Y15225221D01*
X24079890Y15389337D01*
X24142682Y15431293D01*
X24202958Y15634314D01*
X23450000Y16387272D01*
X22697042Y15634314D01*
X22014182Y15634314D01*
X22027248Y15700000D01*
X22027248Y16204822D01*
X22275221Y16204822D01*
X22439337Y15770110D01*
X22481293Y15707318D01*
X22684314Y15647042D01*
X23437272Y16400000D01*
X23462728Y16400000D01*
X24215686Y15647042D01*
X24418707Y15707318D01*
X24610046Y16130753D01*
X24624779Y16595178D01*
X24460663Y17029890D01*
X24418707Y17092682D01*
X24215686Y17152958D01*
X23462728Y16400000D01*
X23437272Y16400000D01*
X22684314Y17152958D01*
X22481293Y17092682D01*
X22289954Y16669247D01*
X22275221Y16204822D01*
X22027248Y16204822D01*
X22027248Y17100000D01*
X22014183Y17165686D01*
X22697042Y17165686D01*
X23450000Y16412728D01*
X24202958Y17165686D01*
X24142682Y17368707D01*
X23719247Y17560046D01*
X23254822Y17574779D01*
X22820110Y17410663D01*
X22757318Y17368707D01*
X22697042Y17165686D01*
X22014183Y17165686D01*
X21998532Y17244367D01*
X21916755Y17366755D01*
X21794367Y17448532D01*
X21650000Y17477248D01*
X20250000Y17477248D01*
X20105633Y17448532D01*
X19983245Y17366755D01*
X19901468Y17244367D01*
X19872752Y17100000D01*
X16137528Y17100000D01*
X15977056Y17260752D01*
X15473705Y17469762D01*
X14928686Y17470237D01*
X14424971Y17262107D01*
X14220000Y17057493D01*
X14220000Y18646412D01*
X17219140Y18646412D01*
X17267250Y18453783D01*
X17654555Y18279099D01*
X18079228Y18265927D01*
X18476614Y18416274D01*
X18532750Y18453783D01*
X18580860Y18646412D01*
X17900000Y19327272D01*
X17219140Y18646412D01*
X14220000Y18646412D01*
X14220000Y19160772D01*
X16825927Y19160772D01*
X16976274Y18763386D01*
X17013783Y18707250D01*
X17206412Y18659140D01*
X17887272Y19340000D01*
X17912728Y19340000D01*
X18593588Y18659140D01*
X18786217Y18707250D01*
X18960901Y19094555D01*
X18974073Y19519228D01*
X18823726Y19916614D01*
X18786217Y19972750D01*
X18593588Y20020860D01*
X17912728Y19340000D01*
X17887272Y19340000D01*
X17206412Y20020860D01*
X17013783Y19972750D01*
X16839099Y19585445D01*
X16825927Y19160772D01*
X14220000Y19160772D01*
X14220000Y19260448D01*
X14394757Y19434901D01*
X14519858Y19736176D01*
X14520116Y20033588D01*
X17219140Y20033588D01*
X17900000Y19352728D01*
X18580860Y20033588D01*
X18532750Y20226217D01*
X18145445Y20400901D01*
X17720772Y20414073D01*
X17323386Y20263726D01*
X17267250Y20226217D01*
X17219140Y20033588D01*
X14520116Y20033588D01*
X14520142Y20062393D01*
X14395568Y20363886D01*
X14165099Y20594757D01*
X13863824Y20719858D01*
X13537607Y20720142D01*
X13236114Y20595568D01*
X13005243Y20365099D01*
X12880142Y20063824D01*
X12879858Y19737607D01*
X13004432Y19436114D01*
X13180000Y19260240D01*
X13180000Y17057454D01*
X12977056Y17260752D01*
X12473705Y17469762D01*
X11928686Y17470237D01*
X11424971Y17262107D01*
X11039248Y16877056D01*
X10830238Y16373705D01*
X10829763Y15828686D01*
X10008892Y15828686D01*
X9877056Y15960752D01*
X9373705Y16169762D01*
X8828686Y16170237D01*
X8324971Y15962107D01*
X7939248Y15577056D01*
X7730238Y15073705D01*
X7729763Y14528686D01*
X7369764Y14528686D01*
X7370237Y15071314D01*
X7162107Y15575029D01*
X6777056Y15960752D01*
X6273705Y16169762D01*
X5728686Y16170237D01*
X5224971Y15962107D01*
X4839248Y15577056D01*
X4630238Y15073705D01*
X4629763Y14528686D01*
X2556310Y14528686D01*
X2759191Y14976950D01*
X2775486Y15481129D01*
X2597599Y15953164D01*
X2551196Y16022614D01*
X2337786Y16095058D01*
X1512728Y15270000D01*
X1487272Y15270000D01*
X662214Y16095058D01*
X448804Y16022614D01*
X420000Y15958972D01*
X420000Y16107786D01*
X674942Y16107786D01*
X1500000Y15282728D01*
X2325058Y16107786D01*
X2252614Y16321196D01*
X1793050Y16529191D01*
X1288871Y16545486D01*
X816836Y16367599D01*
X747386Y16321196D01*
X674942Y16107786D01*
X420000Y16107786D01*
X420000Y17359986D01*
X507544Y17148114D01*
X836383Y16818700D01*
X1266252Y16640203D01*
X1731706Y16639797D01*
X2161886Y16817544D01*
X2491300Y17146383D01*
X2669797Y17576252D01*
X2670203Y18041706D01*
X2550000Y18332619D01*
X2550000Y19272050D01*
X2566755Y19283245D01*
X2648532Y19405633D01*
X2677248Y19550000D01*
X2677248Y21150000D01*
X2648532Y21294367D01*
X2566755Y21416755D01*
X2444367Y21498532D01*
X2300000Y21527248D01*
X700000Y21527248D01*
X555633Y21498532D01*
X433245Y21416755D01*
X420000Y21396932D01*
X420000Y23818019D01*
X5030747Y23818019D01*
X5127524Y23583827D01*
X5659346Y23342521D01*
X6243030Y23323102D01*
X6789715Y23528529D01*
X6872476Y23583827D01*
X6969253Y23818019D01*
X6000000Y24787272D01*
X5030747Y23818019D01*
X420000Y23818019D01*
X420000Y24556970D01*
X4523102Y24556970D01*
X4728529Y24010285D01*
X4783827Y23927524D01*
X5018019Y23830747D01*
X5987272Y24800000D01*
X6012728Y24800000D01*
X6981981Y23830747D01*
X7216173Y23927524D01*
X7457479Y24459346D01*
X7459785Y24528686D01*
X7729763Y24528686D01*
X7937893Y24024971D01*
X8322944Y23639248D01*
X8826295Y23430238D01*
X9371314Y23429763D01*
X9875029Y23637893D01*
X10260752Y24022944D01*
X10469762Y24526295D01*
X10470237Y25071314D01*
X10262107Y25575029D01*
X10008892Y25828686D01*
X10829763Y25828686D01*
X11037893Y25324971D01*
X11422944Y24939248D01*
X11926295Y24730238D01*
X12471314Y24729763D01*
X12975029Y24937893D01*
X13360752Y25322944D01*
X13569762Y25826295D01*
X13569764Y25828686D01*
X13829763Y25828686D01*
X14037893Y25324971D01*
X14422944Y24939248D01*
X14926295Y24730238D01*
X15471314Y24729763D01*
X15975029Y24937893D01*
X16155469Y25118019D01*
X22730747Y25118019D01*
X22827524Y24883827D01*
X23359346Y24642521D01*
X23943030Y24623102D01*
X24489715Y24828529D01*
X24572476Y24883827D01*
X24669253Y25118019D01*
X23700000Y26087272D01*
X22730747Y25118019D01*
X16155469Y25118019D01*
X16360752Y25322944D01*
X16569762Y25826295D01*
X16569788Y25856970D01*
X22223102Y25856970D01*
X22428529Y25310285D01*
X22483827Y25227524D01*
X22718019Y25130747D01*
X23687272Y26100000D01*
X23712728Y26100000D01*
X24681981Y25130747D01*
X24916173Y25227524D01*
X25157479Y25759346D01*
X25159785Y25828686D01*
X25329763Y25828686D01*
X25537893Y25324971D01*
X25922944Y24939248D01*
X26426295Y24730238D01*
X26971314Y24729763D01*
X27475029Y24937893D01*
X27860752Y25322944D01*
X28069762Y25826295D01*
X28070237Y26371314D01*
X27862107Y26875029D01*
X27477056Y27260752D01*
X26973705Y27469762D01*
X26428686Y27470237D01*
X25924971Y27262107D01*
X25539248Y26877056D01*
X25330238Y26373705D01*
X25329763Y25828686D01*
X25159785Y25828686D01*
X25176898Y26343030D01*
X24971471Y26889715D01*
X24916173Y26972476D01*
X24681981Y27069253D01*
X23712728Y26100000D01*
X23687272Y26100000D01*
X22718019Y27069253D01*
X22483827Y26972476D01*
X22242521Y26440654D01*
X22223102Y25856970D01*
X16569788Y25856970D01*
X16570237Y26371314D01*
X16362107Y26875029D01*
X16155516Y27081981D01*
X22730747Y27081981D01*
X23700000Y26112728D01*
X24669253Y27081981D01*
X24572476Y27316173D01*
X24040654Y27557479D01*
X23456970Y27576898D01*
X22910285Y27371471D01*
X22827524Y27316173D01*
X22730747Y27081981D01*
X16155516Y27081981D01*
X15977056Y27260752D01*
X15473705Y27469762D01*
X14928686Y27470237D01*
X14424971Y27262107D01*
X14039248Y26877056D01*
X13830238Y26373705D01*
X13829763Y25828686D01*
X13569764Y25828686D01*
X13570237Y26371314D01*
X13362107Y26875029D01*
X12977056Y27260752D01*
X12473705Y27469762D01*
X11928686Y27470237D01*
X11424971Y27262107D01*
X11039248Y26877056D01*
X10830238Y26373705D01*
X10829763Y25828686D01*
X10008892Y25828686D01*
X9877056Y25960752D01*
X9373705Y26169762D01*
X8828686Y26170237D01*
X8324971Y25962107D01*
X7939248Y25577056D01*
X7730238Y25073705D01*
X7729763Y24528686D01*
X7459785Y24528686D01*
X7476898Y25043030D01*
X7271471Y25589715D01*
X7216173Y25672476D01*
X6981981Y25769253D01*
X6012728Y24800000D01*
X5987272Y24800000D01*
X5018019Y25769253D01*
X4783827Y25672476D01*
X4542521Y25140654D01*
X4523102Y24556970D01*
X420000Y24556970D01*
X420000Y25781981D01*
X5030747Y25781981D01*
X6000000Y24812728D01*
X6969253Y25781981D01*
X6872476Y26016173D01*
X6340654Y26257479D01*
X5756970Y26276898D01*
X5210285Y26071471D01*
X5127524Y26016173D01*
X5030747Y25781981D01*
X420000Y25781981D01*
X420000Y30088098D01*
X8179814Y30088098D01*
X8342369Y29694685D01*
X8643102Y29393427D01*
X9036230Y29230186D01*
X9461902Y29229814D01*
X9855315Y29392369D01*
X10156573Y29693102D01*
X10319814Y30086230D01*
X10320186Y30511902D01*
X10157631Y30905315D01*
X10063112Y31000000D01*
X10672752Y31000000D01*
X10672752Y29600000D01*
X10701468Y29455633D01*
X10783245Y29333245D01*
X10905633Y29251468D01*
X11050000Y29222752D01*
X12450000Y29222752D01*
X12594367Y29251468D01*
X12716755Y29333245D01*
X12798532Y29455633D01*
X12827248Y29600000D01*
X12827248Y29700000D01*
X16472752Y29700000D01*
X16472752Y28300000D01*
X16501468Y28155633D01*
X16583245Y28033245D01*
X16705633Y27951468D01*
X16850000Y27922752D01*
X18250000Y27922752D01*
X18394367Y27951468D01*
X18516755Y28033245D01*
X18598532Y28155633D01*
X18627248Y28300000D01*
X18627248Y28788098D01*
X18979814Y28788098D01*
X19142369Y28394685D01*
X19443102Y28093427D01*
X19836230Y27930186D01*
X20261902Y27929814D01*
X20655315Y28092369D01*
X20956573Y28393102D01*
X21119814Y28786230D01*
X21120186Y29211902D01*
X20957631Y29605315D01*
X20656898Y29906573D01*
X20263770Y30069814D01*
X19838098Y30070186D01*
X19444685Y29907631D01*
X19143427Y29606898D01*
X18980186Y29213770D01*
X18979814Y28788098D01*
X18627248Y28788098D01*
X18627248Y29700000D01*
X18598532Y29844367D01*
X18516755Y29966755D01*
X18394367Y30048532D01*
X18250000Y30077248D01*
X16850000Y30077248D01*
X16705633Y30048532D01*
X16583245Y29966755D01*
X16501468Y29844367D01*
X16472752Y29700000D01*
X12827248Y29700000D01*
X12827248Y31000000D01*
X12798532Y31144367D01*
X12716755Y31266755D01*
X12594367Y31348532D01*
X12450000Y31377248D01*
X11050000Y31377248D01*
X10905633Y31348532D01*
X10783245Y31266755D01*
X10701468Y31144367D01*
X10672752Y31000000D01*
X10063112Y31000000D01*
X9856898Y31206573D01*
X9463770Y31369814D01*
X9038098Y31370186D01*
X8644685Y31207631D01*
X8343427Y30906898D01*
X8180186Y30513770D01*
X8179814Y30088098D01*
X420000Y30088098D01*
X420000Y34428686D01*
X7529763Y34428686D01*
X7737893Y33924971D01*
X8122944Y33539248D01*
X8626295Y33330238D01*
X9171314Y33329763D01*
X9675029Y33537893D01*
X9855469Y33718019D01*
X10930747Y33718019D01*
X11027524Y33483827D01*
X11559346Y33242521D01*
X12143030Y33223102D01*
X12689715Y33428529D01*
X12772476Y33483827D01*
X12869253Y33718019D01*
X16030747Y33718019D01*
X16127524Y33483827D01*
X16659346Y33242521D01*
X17243030Y33223102D01*
X17789715Y33428529D01*
X17872476Y33483827D01*
X17969253Y33718019D01*
X17000000Y34687272D01*
X16030747Y33718019D01*
X12869253Y33718019D01*
X11900000Y34687272D01*
X10930747Y33718019D01*
X9855469Y33718019D01*
X10060752Y33922944D01*
X10269762Y34426295D01*
X10269788Y34456970D01*
X10423102Y34456970D01*
X10628529Y33910285D01*
X10683827Y33827524D01*
X10918019Y33730747D01*
X11887272Y34700000D01*
X11912728Y34700000D01*
X12881981Y33730747D01*
X13116173Y33827524D01*
X13357479Y34359346D01*
X13360726Y34456970D01*
X15523102Y34456970D01*
X15728529Y33910285D01*
X15783827Y33827524D01*
X16018019Y33730747D01*
X16987272Y34700000D01*
X17012728Y34700000D01*
X17981981Y33730747D01*
X18216173Y33827524D01*
X18457479Y34359346D01*
X18459785Y34428686D01*
X18629763Y34428686D01*
X18837893Y33924971D01*
X19222944Y33539248D01*
X19726295Y33330238D01*
X20271314Y33329763D01*
X20775029Y33537893D01*
X21160752Y33922944D01*
X21369762Y34426295D01*
X21370237Y34971314D01*
X21162107Y35475029D01*
X20809067Y35828686D01*
X22329763Y35828686D01*
X22537893Y35324971D01*
X22922944Y34939248D01*
X23426295Y34730238D01*
X23971314Y34729763D01*
X24475029Y34937893D01*
X24655469Y35118019D01*
X25730747Y35118019D01*
X25827524Y34883827D01*
X26359346Y34642521D01*
X26943030Y34623102D01*
X27489715Y34828529D01*
X27572476Y34883827D01*
X27669253Y35118019D01*
X26700000Y36087272D01*
X25730747Y35118019D01*
X24655469Y35118019D01*
X24860752Y35322944D01*
X25069762Y35826295D01*
X25069788Y35856970D01*
X25223102Y35856970D01*
X25428529Y35310285D01*
X25483827Y35227524D01*
X25718019Y35130747D01*
X26687272Y36100000D01*
X26712728Y36100000D01*
X27681981Y35130747D01*
X27916173Y35227524D01*
X28157479Y35759346D01*
X28176898Y36343030D01*
X27971471Y36889715D01*
X27916173Y36972476D01*
X27681981Y37069253D01*
X26712728Y36100000D01*
X26687272Y36100000D01*
X25718019Y37069253D01*
X25483827Y36972476D01*
X25242521Y36440654D01*
X25223102Y35856970D01*
X25069788Y35856970D01*
X25070237Y36371314D01*
X24862107Y36875029D01*
X24655516Y37081981D01*
X25730747Y37081981D01*
X26700000Y36112728D01*
X27669253Y37081981D01*
X27572476Y37316173D01*
X27040654Y37557479D01*
X26456970Y37576898D01*
X25910285Y37371471D01*
X25827524Y37316173D01*
X25730747Y37081981D01*
X24655516Y37081981D01*
X24477056Y37260752D01*
X23973705Y37469762D01*
X23428686Y37470237D01*
X22924971Y37262107D01*
X22539248Y36877056D01*
X22330238Y36373705D01*
X22329763Y35828686D01*
X20809067Y35828686D01*
X20777056Y35860752D01*
X20273705Y36069762D01*
X19728686Y36070237D01*
X19224971Y35862107D01*
X18839248Y35477056D01*
X18630238Y34973705D01*
X18629763Y34428686D01*
X18459785Y34428686D01*
X18476898Y34943030D01*
X18271471Y35489715D01*
X18216173Y35572476D01*
X17981981Y35669253D01*
X17012728Y34700000D01*
X16987272Y34700000D01*
X16018019Y35669253D01*
X15783827Y35572476D01*
X15542521Y35040654D01*
X15523102Y34456970D01*
X13360726Y34456970D01*
X13376898Y34943030D01*
X13171471Y35489715D01*
X13116173Y35572476D01*
X12881981Y35669253D01*
X11912728Y34700000D01*
X11887272Y34700000D01*
X10918019Y35669253D01*
X10683827Y35572476D01*
X10442521Y35040654D01*
X10423102Y34456970D01*
X10269788Y34456970D01*
X10270237Y34971314D01*
X10062107Y35475029D01*
X9855516Y35681981D01*
X10930747Y35681981D01*
X11900000Y34712728D01*
X12869253Y35681981D01*
X16030747Y35681981D01*
X17000000Y34712728D01*
X17969253Y35681981D01*
X17872476Y35916173D01*
X17340654Y36157479D01*
X16756970Y36176898D01*
X16210285Y35971471D01*
X16127524Y35916173D01*
X16030747Y35681981D01*
X12869253Y35681981D01*
X12772476Y35916173D01*
X12240654Y36157479D01*
X11656970Y36176898D01*
X11110285Y35971471D01*
X11027524Y35916173D01*
X10930747Y35681981D01*
X9855516Y35681981D01*
X9677056Y35860752D01*
X9173705Y36069762D01*
X8628686Y36070237D01*
X8124971Y35862107D01*
X7739248Y35477056D01*
X7530238Y34973705D01*
X7529763Y34428686D01*
X420000Y34428686D01*
X420000Y39166412D01*
X13819140Y39166412D01*
X13867250Y38973783D01*
X14254555Y38799099D01*
X14679228Y38785927D01*
X15076614Y38936274D01*
X15132750Y38973783D01*
X15180860Y39166412D01*
X14500000Y39847272D01*
X13819140Y39166412D01*
X420000Y39166412D01*
X420000Y39680772D01*
X13425927Y39680772D01*
X13576274Y39283386D01*
X13613783Y39227250D01*
X13806412Y39179140D01*
X14487272Y39860000D01*
X14512728Y39860000D01*
X15193588Y39179140D01*
X15386217Y39227250D01*
X15560901Y39614555D01*
X15574073Y40039228D01*
X15423726Y40436614D01*
X15386217Y40492750D01*
X15193588Y40540860D01*
X14512728Y39860000D01*
X14487272Y39860000D01*
X13806412Y40540860D01*
X13613783Y40492750D01*
X13439099Y40105445D01*
X13425927Y39680772D01*
X420000Y39680772D01*
X420000Y40588098D01*
X1779814Y40588098D01*
X1942369Y40194685D01*
X2243102Y39893427D01*
X2636230Y39730186D01*
X3061902Y39729814D01*
X3455315Y39892369D01*
X3756573Y40193102D01*
X3919814Y40586230D01*
X3920186Y41011902D01*
X3757631Y41405315D01*
X3663112Y41500000D01*
X4272752Y41500000D01*
X4272752Y40100000D01*
X4301468Y39955633D01*
X4383245Y39833245D01*
X4505633Y39751468D01*
X4650000Y39722752D01*
X6050000Y39722752D01*
X6194367Y39751468D01*
X6316755Y39833245D01*
X6398532Y39955633D01*
X6427248Y40100000D01*
X6427248Y40553588D01*
X13819140Y40553588D01*
X14500000Y39872728D01*
X15180860Y40553588D01*
X15132750Y40746217D01*
X14745445Y40920901D01*
X14320772Y40934073D01*
X13923386Y40783726D01*
X13867250Y40746217D01*
X13819140Y40553588D01*
X6427248Y40553588D01*
X6427248Y41500000D01*
X22472752Y41500000D01*
X22472752Y40100000D01*
X22501468Y39955633D01*
X22583245Y39833245D01*
X22705633Y39751468D01*
X22850000Y39722752D01*
X24250000Y39722752D01*
X24394367Y39751468D01*
X24516755Y39833245D01*
X24598532Y39955633D01*
X24627248Y40100000D01*
X24627248Y40588098D01*
X24979814Y40588098D01*
X25142369Y40194685D01*
X25443102Y39893427D01*
X25836230Y39730186D01*
X26261902Y39729814D01*
X26655315Y39892369D01*
X26956573Y40193102D01*
X27119814Y40586230D01*
X27120186Y41011902D01*
X26957631Y41405315D01*
X26656898Y41706573D01*
X26263770Y41869814D01*
X25838098Y41870186D01*
X25444685Y41707631D01*
X25143427Y41406898D01*
X24980186Y41013770D01*
X24979814Y40588098D01*
X24627248Y40588098D01*
X24627248Y41500000D01*
X24598532Y41644367D01*
X24516755Y41766755D01*
X24394367Y41848532D01*
X24250000Y41877248D01*
X22850000Y41877248D01*
X22705633Y41848532D01*
X22583245Y41766755D01*
X22501468Y41644367D01*
X22472752Y41500000D01*
X6427248Y41500000D01*
X6398532Y41644367D01*
X6316755Y41766755D01*
X6194367Y41848532D01*
X6050000Y41877248D01*
X4650000Y41877248D01*
X4505633Y41848532D01*
X4383245Y41766755D01*
X4301468Y41644367D01*
X4272752Y41500000D01*
X3663112Y41500000D01*
X3456898Y41706573D01*
X3063770Y41869814D01*
X2638098Y41870186D01*
X2244685Y41707631D01*
X1943427Y41406898D01*
X1780186Y41013770D01*
X1779814Y40588098D01*
X420000Y40588098D01*
X420000Y45028686D01*
X929763Y45028686D01*
X1137893Y44524971D01*
X1522944Y44139248D01*
X2026295Y43930238D01*
X2571314Y43929763D01*
X3075029Y44137893D01*
X3460752Y44522944D01*
X3669762Y45026295D01*
X3669764Y45028686D01*
X3929763Y45028686D01*
X4137893Y44524971D01*
X4522944Y44139248D01*
X5026295Y43930238D01*
X5571314Y43929763D01*
X6075029Y44137893D01*
X6460752Y44522944D01*
X6669762Y45026295D01*
X6670237Y45571314D01*
X6462107Y46075029D01*
X6077056Y46460752D01*
X5573705Y46669762D01*
X5028686Y46670237D01*
X4524971Y46462107D01*
X4139248Y46077056D01*
X3930238Y45573705D01*
X3929763Y45028686D01*
X3669764Y45028686D01*
X3670237Y45571314D01*
X3462107Y46075029D01*
X3077056Y46460752D01*
X2573705Y46669762D01*
X2028686Y46670237D01*
X1524971Y46462107D01*
X1139248Y46077056D01*
X930238Y45573705D01*
X929763Y45028686D01*
X420000Y45028686D01*
X420000Y47818799D01*
X7110000Y47818799D01*
X7110000Y47161201D01*
X7199061Y46713461D01*
X7452685Y46333886D01*
X7832260Y46080262D01*
X8280000Y45991201D01*
X8583520Y46051575D01*
X8124971Y45862107D01*
X7739248Y45477056D01*
X7530238Y44973705D01*
X7529763Y44428686D01*
X7737893Y43924971D01*
X8122944Y43539248D01*
X8626295Y43330238D01*
X9171314Y43329763D01*
X9675029Y43537893D01*
X10060752Y43922944D01*
X10269762Y44426295D01*
X10269764Y44428686D01*
X10529763Y44428686D01*
X10737893Y43924971D01*
X11122944Y43539248D01*
X11626295Y43330238D01*
X12171314Y43329763D01*
X12675029Y43537893D01*
X13060752Y43922944D01*
X13269762Y44426295D01*
X13270042Y44747902D01*
X13529832Y44747902D01*
X13677195Y44391257D01*
X13949822Y44118154D01*
X14306209Y43970169D01*
X14692098Y43969832D01*
X15048743Y44117195D01*
X15321846Y44389822D01*
X15337983Y44428686D01*
X15629763Y44428686D01*
X15837893Y43924971D01*
X16222944Y43539248D01*
X16726295Y43330238D01*
X17271314Y43329763D01*
X17775029Y43537893D01*
X18160752Y43922944D01*
X18369762Y44426295D01*
X18369764Y44428686D01*
X18629763Y44428686D01*
X18837893Y43924971D01*
X19222944Y43539248D01*
X19726295Y43330238D01*
X20271314Y43329763D01*
X20775029Y43537893D01*
X21160752Y43922944D01*
X21369762Y44426295D01*
X21370237Y44971314D01*
X21346532Y45028686D01*
X25229763Y45028686D01*
X25437893Y44524971D01*
X25822944Y44139248D01*
X26326295Y43930238D01*
X26871314Y43929763D01*
X27375029Y44137893D01*
X27760752Y44522944D01*
X27969762Y45026295D01*
X27970237Y45571314D01*
X27762107Y46075029D01*
X27377056Y46460752D01*
X26873705Y46669762D01*
X26328686Y46670237D01*
X25824971Y46462107D01*
X25439248Y46077056D01*
X25230238Y45573705D01*
X25229763Y45028686D01*
X21346532Y45028686D01*
X21162107Y45475029D01*
X20777056Y45860752D01*
X20273705Y46069762D01*
X19728686Y46070237D01*
X19224971Y45862107D01*
X18839248Y45477056D01*
X18630238Y44973705D01*
X18629763Y44428686D01*
X18369764Y44428686D01*
X18370237Y44971314D01*
X18162107Y45475029D01*
X17777056Y45860752D01*
X17273705Y46069762D01*
X16728686Y46070237D01*
X16224971Y45862107D01*
X15839248Y45477056D01*
X15630238Y44973705D01*
X15629763Y44428686D01*
X15337983Y44428686D01*
X15469831Y44746209D01*
X15470168Y45132098D01*
X15322805Y45488743D01*
X15050178Y45761846D01*
X14693791Y45909831D01*
X14307902Y45910168D01*
X13951257Y45762805D01*
X13678154Y45490178D01*
X13530169Y45133791D01*
X13529832Y44747902D01*
X13270042Y44747902D01*
X13270237Y44971314D01*
X13062107Y45475029D01*
X12677056Y45860752D01*
X12173705Y46069762D01*
X11628686Y46070237D01*
X11124971Y45862107D01*
X10739248Y45477056D01*
X10530238Y44973705D01*
X10529763Y44428686D01*
X10269764Y44428686D01*
X10270237Y44971314D01*
X10062107Y45475029D01*
X9677056Y45860752D01*
X9173705Y46069762D01*
X8677129Y46070195D01*
X8727740Y46080262D01*
X9107315Y46333886D01*
X9360939Y46713461D01*
X9450000Y47161201D01*
X9450000Y47818799D01*
X9650000Y47818799D01*
X9650000Y47161201D01*
X9739061Y46713461D01*
X9992685Y46333886D01*
X10372260Y46080262D01*
X10820000Y45991201D01*
X11267740Y46080262D01*
X11647315Y46333886D01*
X11900939Y46713461D01*
X11990000Y47161201D01*
X11990000Y47818799D01*
X12190000Y47818799D01*
X12190000Y47161201D01*
X12279061Y46713461D01*
X12532685Y46333886D01*
X12912260Y46080262D01*
X13360000Y45991201D01*
X13807740Y46080262D01*
X14187315Y46333886D01*
X14440939Y46713461D01*
X14530000Y47161201D01*
X14530000Y47818799D01*
X14730000Y47818799D01*
X14730000Y47161201D01*
X14819061Y46713461D01*
X15072685Y46333886D01*
X15452260Y46080262D01*
X15900000Y45991201D01*
X16347740Y46080262D01*
X16727315Y46333886D01*
X16980939Y46713461D01*
X17070000Y47161201D01*
X17070000Y47818799D01*
X17270000Y47818799D01*
X17270000Y47161201D01*
X17359061Y46713461D01*
X17612685Y46333886D01*
X17992260Y46080262D01*
X18440000Y45991201D01*
X18887740Y46080262D01*
X19267315Y46333886D01*
X19520939Y46713461D01*
X19610000Y47161201D01*
X19610000Y47818799D01*
X19810000Y47818799D01*
X19810000Y47161201D01*
X19899061Y46713461D01*
X20152685Y46333886D01*
X20532260Y46080262D01*
X20980000Y45991201D01*
X21427740Y46080262D01*
X21807315Y46333886D01*
X22060939Y46713461D01*
X22111968Y46970000D01*
X22388032Y46970000D01*
X22439061Y46713461D01*
X22692685Y46333886D01*
X23072260Y46080262D01*
X23520000Y45991201D01*
X23967740Y46080262D01*
X24347315Y46333886D01*
X24600939Y46713461D01*
X24690000Y47161201D01*
X24690000Y47818799D01*
X24600939Y48266539D01*
X24347315Y48646114D01*
X23967740Y48899738D01*
X23520000Y48988799D01*
X23072260Y48899738D01*
X22692685Y48646114D01*
X22439061Y48266539D01*
X22388032Y48010000D01*
X22111968Y48010000D01*
X22060939Y48266539D01*
X21807315Y48646114D01*
X21427740Y48899738D01*
X20980000Y48988799D01*
X20532260Y48899738D01*
X20152685Y48646114D01*
X19899061Y48266539D01*
X19810000Y47818799D01*
X19610000Y47818799D01*
X19520939Y48266539D01*
X19267315Y48646114D01*
X18887740Y48899738D01*
X18440000Y48988799D01*
X17992260Y48899738D01*
X17612685Y48646114D01*
X17359061Y48266539D01*
X17270000Y47818799D01*
X17070000Y47818799D01*
X16980939Y48266539D01*
X16727315Y48646114D01*
X16347740Y48899738D01*
X15900000Y48988799D01*
X15452260Y48899738D01*
X15072685Y48646114D01*
X14819061Y48266539D01*
X14730000Y47818799D01*
X14530000Y47818799D01*
X14440939Y48266539D01*
X14187315Y48646114D01*
X13807740Y48899738D01*
X13360000Y48988799D01*
X12912260Y48899738D01*
X12532685Y48646114D01*
X12279061Y48266539D01*
X12190000Y47818799D01*
X11990000Y47818799D01*
X11900939Y48266539D01*
X11647315Y48646114D01*
X11267740Y48899738D01*
X10820000Y48988799D01*
X10372260Y48899738D01*
X9992685Y48646114D01*
X9739061Y48266539D01*
X9650000Y47818799D01*
X9450000Y47818799D01*
X9360939Y48266539D01*
X9107315Y48646114D01*
X8727740Y48899738D01*
X8280000Y48988799D01*
X7832260Y48899738D01*
X7452685Y48646114D01*
X7199061Y48266539D01*
X7110000Y47818799D01*
X420000Y47818799D01*
X420000Y50937607D01*
X5979858Y50937607D01*
X6104432Y50636114D01*
X6334901Y50405243D01*
X6636176Y50280142D01*
X6962393Y50279858D01*
X7263886Y50404432D01*
X7439760Y50580000D01*
X10660448Y50580000D01*
X10834901Y50405243D01*
X11136176Y50280142D01*
X11462393Y50279858D01*
X11763886Y50404432D01*
X11994757Y50634901D01*
X12119858Y50936176D01*
X12120142Y51262393D01*
X11995568Y51563886D01*
X11765099Y51794757D01*
X11463824Y51919858D01*
X11137607Y51920142D01*
X10836114Y51795568D01*
X10660240Y51620000D01*
X7439552Y51620000D01*
X7265099Y51794757D01*
X6963824Y51919858D01*
X6637607Y51920142D01*
X6336114Y51795568D01*
X6105243Y51565099D01*
X5980142Y51263824D01*
X5979858Y50937607D01*
X420000Y50937607D01*
X420000Y54318019D01*
X1330747Y54318019D01*
X1427524Y54083827D01*
X1959346Y53842521D01*
X2543030Y53823102D01*
X3089715Y54028529D01*
X3172476Y54083827D01*
X3269253Y54318019D01*
X4330747Y54318019D01*
X4427524Y54083827D01*
X4959346Y53842521D01*
X5543030Y53823102D01*
X6089715Y54028529D01*
X6172476Y54083827D01*
X6269253Y54318019D01*
X5300000Y55287272D01*
X4330747Y54318019D01*
X3269253Y54318019D01*
X2300000Y55287272D01*
X1330747Y54318019D01*
X420000Y54318019D01*
X420000Y55056970D01*
X823102Y55056970D01*
X1028529Y54510285D01*
X1083827Y54427524D01*
X1318019Y54330747D01*
X2287272Y55300000D01*
X2312728Y55300000D01*
X3281981Y54330747D01*
X3516173Y54427524D01*
X3757479Y54959346D01*
X3760726Y55056970D01*
X3823102Y55056970D01*
X4028529Y54510285D01*
X4083827Y54427524D01*
X4318019Y54330747D01*
X5287272Y55300000D01*
X5312728Y55300000D01*
X6281981Y54330747D01*
X6516173Y54427524D01*
X6757479Y54959346D01*
X6776898Y55543030D01*
X6571471Y56089715D01*
X6516173Y56172476D01*
X6425369Y56210000D01*
X7102752Y56210000D01*
X7102752Y54010000D01*
X7131468Y53865633D01*
X7213245Y53743245D01*
X7335633Y53661468D01*
X7480000Y53632752D01*
X9080000Y53632752D01*
X9224367Y53661468D01*
X9346755Y53743245D01*
X9428532Y53865633D01*
X9457248Y54010000D01*
X9457248Y56210000D01*
X9428532Y56354367D01*
X9346755Y56476755D01*
X9224367Y56558532D01*
X9080000Y56587248D01*
X7480000Y56587248D01*
X7335633Y56558532D01*
X7213245Y56476755D01*
X7131468Y56354367D01*
X7102752Y56210000D01*
X6425369Y56210000D01*
X6281981Y56269253D01*
X5312728Y55300000D01*
X5287272Y55300000D01*
X4318019Y56269253D01*
X4083827Y56172476D01*
X3842521Y55640654D01*
X3823102Y55056970D01*
X3760726Y55056970D01*
X3776898Y55543030D01*
X3571471Y56089715D01*
X3516173Y56172476D01*
X3281981Y56269253D01*
X2312728Y55300000D01*
X2287272Y55300000D01*
X1318019Y56269253D01*
X1083827Y56172476D01*
X842521Y55640654D01*
X823102Y55056970D01*
X420000Y55056970D01*
X420000Y57828686D01*
X929763Y57828686D01*
X1137893Y57324971D01*
X1522944Y56939248D01*
X1981879Y56748681D01*
X1510285Y56571471D01*
X1427524Y56516173D01*
X1330747Y56281981D01*
X2300000Y55312728D01*
X3269253Y56281981D01*
X4330747Y56281981D01*
X5300000Y55312728D01*
X6269253Y56281981D01*
X6172476Y56516173D01*
X5640654Y56757479D01*
X5056970Y56776898D01*
X4510285Y56571471D01*
X4427524Y56516173D01*
X4330747Y56281981D01*
X3269253Y56281981D01*
X3172476Y56516173D01*
X2640654Y56757479D01*
X2638561Y56757549D01*
X3075029Y56937893D01*
X3460752Y57322944D01*
X3669762Y57826295D01*
X3669859Y57937607D01*
X8879858Y57937607D01*
X9004432Y57636114D01*
X9234901Y57405243D01*
X9536176Y57280142D01*
X9784683Y57279926D01*
X10516233Y56548376D01*
X10372260Y56519738D01*
X9992685Y56266114D01*
X9739061Y55886539D01*
X9650000Y55438799D01*
X9650000Y54781201D01*
X9739061Y54333461D01*
X9992685Y53953886D01*
X10372260Y53700262D01*
X10820000Y53611201D01*
X11267740Y53700262D01*
X11342178Y53750000D01*
X12837822Y53750000D01*
X12912260Y53700262D01*
X13360000Y53611201D01*
X13807740Y53700262D01*
X14187315Y53953886D01*
X14440939Y54333461D01*
X14530000Y54781201D01*
X14530000Y55438799D01*
X14730000Y55438799D01*
X14730000Y54781201D01*
X14819061Y54333461D01*
X15072685Y53953886D01*
X15452260Y53700262D01*
X15900000Y53611201D01*
X16347740Y53700262D01*
X16727315Y53953886D01*
X16980939Y54333461D01*
X17070000Y54781201D01*
X17070000Y55438799D01*
X16980939Y55886539D01*
X16727315Y56266114D01*
X16347740Y56519738D01*
X15900000Y56608799D01*
X15452260Y56519738D01*
X15072685Y56266114D01*
X14819061Y55886539D01*
X14730000Y55438799D01*
X14530000Y55438799D01*
X14450000Y55840986D01*
X14450000Y56890043D01*
X14692098Y56889832D01*
X15048743Y57037195D01*
X15321846Y57309822D01*
X15433274Y57578170D01*
X15537893Y57324971D01*
X15922944Y56939248D01*
X16426295Y56730238D01*
X16971314Y56729763D01*
X17475029Y56937893D01*
X17860752Y57322944D01*
X17920000Y57465629D01*
X17920000Y56471455D01*
X17612685Y56266114D01*
X17359061Y55886539D01*
X17270000Y55438799D01*
X17270000Y54781201D01*
X17359061Y54333461D01*
X17612685Y53953886D01*
X17992260Y53700262D01*
X18440000Y53611201D01*
X18887740Y53700262D01*
X19267315Y53953886D01*
X19520939Y54333461D01*
X19610000Y54781201D01*
X19610000Y55438799D01*
X19810000Y55438799D01*
X19810000Y54781201D01*
X19899061Y54333461D01*
X20152685Y53953886D01*
X20532260Y53700262D01*
X20980000Y53611201D01*
X21427740Y53700262D01*
X21807315Y53953886D01*
X22060939Y54333461D01*
X22150000Y54781201D01*
X22150000Y55438799D01*
X22350000Y55438799D01*
X22350000Y54781201D01*
X22439061Y54333461D01*
X22692685Y53953886D01*
X23072260Y53700262D01*
X23520000Y53611201D01*
X23967740Y53700262D01*
X24347315Y53953886D01*
X24590620Y54318019D01*
X25630747Y54318019D01*
X25727524Y54083827D01*
X26259346Y53842521D01*
X26843030Y53823102D01*
X27389715Y54028529D01*
X27472476Y54083827D01*
X27569253Y54318019D01*
X26600000Y55287272D01*
X25630747Y54318019D01*
X24590620Y54318019D01*
X24600939Y54333461D01*
X24690000Y54781201D01*
X24690000Y55056970D01*
X25123102Y55056970D01*
X25328529Y54510285D01*
X25383827Y54427524D01*
X25618019Y54330747D01*
X26587272Y55300000D01*
X26612728Y55300000D01*
X27581981Y54330747D01*
X27816173Y54427524D01*
X28057479Y54959346D01*
X28076898Y55543030D01*
X27871471Y56089715D01*
X27816173Y56172476D01*
X27581981Y56269253D01*
X26612728Y55300000D01*
X26587272Y55300000D01*
X25618019Y56269253D01*
X25383827Y56172476D01*
X25142521Y55640654D01*
X25123102Y55056970D01*
X24690000Y55056970D01*
X24690000Y55438799D01*
X24600939Y55886539D01*
X24347315Y56266114D01*
X23967740Y56519738D01*
X23520000Y56608799D01*
X23072260Y56519738D01*
X22692685Y56266114D01*
X22439061Y55886539D01*
X22350000Y55438799D01*
X22150000Y55438799D01*
X22060939Y55886539D01*
X21807315Y56266114D01*
X21427740Y56519738D01*
X20980000Y56608799D01*
X20532260Y56519738D01*
X20152685Y56266114D01*
X19899061Y55886539D01*
X19810000Y55438799D01*
X19610000Y55438799D01*
X19520939Y55886539D01*
X19267315Y56266114D01*
X18960000Y56471455D01*
X18960000Y57828686D01*
X25329763Y57828686D01*
X25537893Y57324971D01*
X25922944Y56939248D01*
X26334374Y56768407D01*
X25810285Y56571471D01*
X25727524Y56516173D01*
X25630747Y56281981D01*
X26600000Y55312728D01*
X27569253Y56281981D01*
X27472476Y56516173D01*
X26987238Y56736342D01*
X27475029Y56937893D01*
X27860752Y57322944D01*
X28069762Y57826295D01*
X28070237Y58371314D01*
X27862107Y58875029D01*
X27477056Y59260752D01*
X26973705Y59469762D01*
X26428686Y59470237D01*
X25924971Y59262107D01*
X25539248Y58877056D01*
X25330238Y58373705D01*
X25329763Y57828686D01*
X18960000Y57828686D01*
X18960000Y58702826D01*
X18963886Y58704432D01*
X19194757Y58934901D01*
X19319858Y59236176D01*
X19320142Y59562393D01*
X19195568Y59863886D01*
X18965099Y60094757D01*
X18663824Y60219858D01*
X18337607Y60220142D01*
X18036114Y60095568D01*
X17805243Y59865099D01*
X17700344Y59612476D01*
X17386304Y59298436D01*
X16973705Y59469762D01*
X16428686Y59470237D01*
X15924971Y59262107D01*
X15539248Y58877056D01*
X15333769Y58382208D01*
X15322805Y58408743D01*
X15050178Y58681846D01*
X14693791Y58829831D01*
X14307902Y58830168D01*
X13951257Y58682805D01*
X13678154Y58410178D01*
X13666137Y58381237D01*
X13462107Y58875029D01*
X13077056Y59260752D01*
X12573705Y59469762D01*
X12028686Y59470237D01*
X11524971Y59262107D01*
X11433895Y59171190D01*
X9900697Y58904547D01*
X9863824Y58919858D01*
X9537607Y58920142D01*
X9236114Y58795568D01*
X9005243Y58565099D01*
X8880142Y58263824D01*
X8879858Y57937607D01*
X3669859Y57937607D01*
X3670237Y58371314D01*
X3462107Y58875029D01*
X3077056Y59260752D01*
X2573705Y59469762D01*
X2028686Y59470237D01*
X1524971Y59262107D01*
X1139248Y58877056D01*
X930238Y58373705D01*
X929763Y57828686D01*
X420000Y57828686D01*
X420000Y60118019D01*
X1330747Y60118019D01*
X1427524Y59883827D01*
X1959346Y59642521D01*
X2543030Y59623102D01*
X3089715Y59828529D01*
X3172476Y59883827D01*
X3269253Y60118019D01*
X2300000Y61087272D01*
X1330747Y60118019D01*
X420000Y60118019D01*
X420000Y60856970D01*
X823102Y60856970D01*
X1028529Y60310285D01*
X1083827Y60227524D01*
X1318019Y60130747D01*
X2287272Y61100000D01*
X2312728Y61100000D01*
X3281981Y60130747D01*
X3516173Y60227524D01*
X3757479Y60759346D01*
X3759785Y60828686D01*
X10929763Y60828686D01*
X11137893Y60324971D01*
X11522944Y59939248D01*
X12026295Y59730238D01*
X12571314Y59729763D01*
X13075029Y59937893D01*
X13460752Y60322944D01*
X13669762Y60826295D01*
X13669764Y60828686D01*
X15329763Y60828686D01*
X15537893Y60324971D01*
X15922944Y59939248D01*
X16426295Y59730238D01*
X16971314Y59729763D01*
X17475029Y59937893D01*
X17860752Y60322944D01*
X17866840Y60337607D01*
X22079858Y60337607D01*
X22204432Y60036114D01*
X22434901Y59805243D01*
X22736176Y59680142D01*
X23062393Y59679858D01*
X23363886Y59804432D01*
X23594757Y60034901D01*
X23629270Y60118019D01*
X25730747Y60118019D01*
X25827524Y59883827D01*
X26359346Y59642521D01*
X26943030Y59623102D01*
X27489715Y59828529D01*
X27572476Y59883827D01*
X27669253Y60118019D01*
X26700000Y61087272D01*
X25730747Y60118019D01*
X23629270Y60118019D01*
X23719858Y60336176D01*
X23720074Y60584683D01*
X23992361Y60856970D01*
X25223102Y60856970D01*
X25428529Y60310285D01*
X25483827Y60227524D01*
X25718019Y60130747D01*
X26687272Y61100000D01*
X26712728Y61100000D01*
X27681981Y60130747D01*
X27916173Y60227524D01*
X28157479Y60759346D01*
X28176898Y61343030D01*
X27971471Y61889715D01*
X27916173Y61972476D01*
X27681981Y62069253D01*
X26712728Y61100000D01*
X26687272Y61100000D01*
X25718019Y62069253D01*
X25483827Y61972476D01*
X25242521Y61440654D01*
X25223102Y60856970D01*
X23992361Y60856970D01*
X24615464Y61480073D01*
X24862393Y61479858D01*
X25163886Y61604432D01*
X25394757Y61834901D01*
X25497354Y62081981D01*
X25730747Y62081981D01*
X26700000Y61112728D01*
X27669253Y62081981D01*
X27572476Y62316173D01*
X27423401Y62383813D01*
X27711129Y62374514D01*
X28183164Y62552401D01*
X28252614Y62598804D01*
X28325058Y62812214D01*
X27500000Y63637272D01*
X26674942Y62812214D01*
X26747386Y62598804D01*
X26822670Y62564731D01*
X26456970Y62576898D01*
X25910285Y62371471D01*
X25827524Y62316173D01*
X25730747Y62081981D01*
X25497354Y62081981D01*
X25519858Y62136176D01*
X25520142Y62462393D01*
X25395568Y62763886D01*
X25165099Y62994757D01*
X24863824Y63119858D01*
X24537607Y63120142D01*
X24236114Y62995568D01*
X24005243Y62765099D01*
X23880142Y62463824D01*
X23879926Y62215317D01*
X22984535Y61319927D01*
X22737607Y61320142D01*
X22436114Y61195568D01*
X22205243Y60965099D01*
X22080142Y60663824D01*
X22079858Y60337607D01*
X17866840Y60337607D01*
X18069762Y60826295D01*
X18070237Y61371314D01*
X17862107Y61875029D01*
X17477056Y62260752D01*
X16973705Y62469762D01*
X16428686Y62470237D01*
X15924971Y62262107D01*
X15539248Y61877056D01*
X15330238Y61373705D01*
X15329763Y60828686D01*
X13669764Y60828686D01*
X13670237Y61371314D01*
X13462107Y61875029D01*
X13091372Y62246412D01*
X13819140Y62246412D01*
X13867250Y62053783D01*
X14254555Y61879099D01*
X14679228Y61865927D01*
X15076614Y62016274D01*
X15132750Y62053783D01*
X15180860Y62246412D01*
X14500000Y62927272D01*
X13819140Y62246412D01*
X13091372Y62246412D01*
X13077056Y62260752D01*
X12573705Y62469762D01*
X12028686Y62470237D01*
X11524971Y62262107D01*
X11139248Y61877056D01*
X10930238Y61373705D01*
X10929763Y60828686D01*
X3759785Y60828686D01*
X3776898Y61343030D01*
X3571471Y61889715D01*
X3516173Y61972476D01*
X3281981Y62069253D01*
X2312728Y61100000D01*
X2287272Y61100000D01*
X1318019Y62069253D01*
X1083827Y61972476D01*
X842521Y61440654D01*
X823102Y60856970D01*
X420000Y60856970D01*
X420000Y62812214D01*
X674942Y62812214D01*
X747386Y62598804D01*
X1206950Y62390809D01*
X1533648Y62380250D01*
X1510285Y62371471D01*
X1427524Y62316173D01*
X1330747Y62081981D01*
X2300000Y61112728D01*
X3269253Y62081981D01*
X3172476Y62316173D01*
X2640654Y62557479D01*
X2212103Y62571737D01*
X2252614Y62598804D01*
X2307595Y62760772D01*
X13425927Y62760772D01*
X13576274Y62363386D01*
X13613783Y62307250D01*
X13806412Y62259140D01*
X14487272Y62940000D01*
X14512728Y62940000D01*
X15193588Y62259140D01*
X15386217Y62307250D01*
X15560901Y62694555D01*
X15574073Y63119228D01*
X15423726Y63516614D01*
X15386217Y63572750D01*
X15193588Y63620860D01*
X14512728Y62940000D01*
X14487272Y62940000D01*
X13806412Y63620860D01*
X13613783Y63572750D01*
X13439099Y63185445D01*
X13425927Y62760772D01*
X2307595Y62760772D01*
X2325058Y62812214D01*
X1500000Y63637272D01*
X674942Y62812214D01*
X420000Y62812214D01*
X420000Y62940496D01*
X448804Y62897386D01*
X662214Y62824942D01*
X1487272Y63650000D01*
X1512728Y63650000D01*
X2337786Y62824942D01*
X2551196Y62897386D01*
X2759191Y63356950D01*
X2774092Y63818019D01*
X3430747Y63818019D01*
X3527524Y63583827D01*
X4059346Y63342521D01*
X4643030Y63323102D01*
X5189715Y63528529D01*
X5272476Y63583827D01*
X5369253Y63818019D01*
X4400000Y64787272D01*
X3430747Y63818019D01*
X2774092Y63818019D01*
X2775486Y63861129D01*
X2597599Y64333164D01*
X2551196Y64402614D01*
X2337786Y64475058D01*
X1512728Y63650000D01*
X1487272Y63650000D01*
X662214Y64475058D01*
X448804Y64402614D01*
X420000Y64338972D01*
X420000Y64487786D01*
X674942Y64487786D01*
X1500000Y63662728D01*
X2325058Y64487786D01*
X2301573Y64556970D01*
X2923102Y64556970D01*
X3128529Y64010285D01*
X3183827Y63927524D01*
X3418019Y63830747D01*
X4387272Y64800000D01*
X4412728Y64800000D01*
X5381981Y63830747D01*
X5616173Y63927524D01*
X5857479Y64459346D01*
X5859785Y64528686D01*
X6029763Y64528686D01*
X6237893Y64024971D01*
X6622944Y63639248D01*
X7126295Y63430238D01*
X7671314Y63429763D01*
X8164610Y63633588D01*
X13819140Y63633588D01*
X14500000Y62952728D01*
X15180860Y63633588D01*
X15132750Y63826217D01*
X14745445Y64000901D01*
X14320772Y64014073D01*
X13923386Y63863726D01*
X13867250Y63826217D01*
X13819140Y63633588D01*
X8164610Y63633588D01*
X8175029Y63637893D01*
X8560752Y64022944D01*
X8769762Y64526295D01*
X8770060Y64868294D01*
X9529797Y64868294D01*
X9707544Y64438114D01*
X10036383Y64108700D01*
X10466252Y63930203D01*
X10931706Y63929797D01*
X11361886Y64107544D01*
X11691300Y64436383D01*
X11797976Y64693288D01*
X11907544Y64428114D01*
X12236383Y64098700D01*
X12666252Y63920203D01*
X13131706Y63919797D01*
X13561886Y64097544D01*
X13891300Y64426383D01*
X14069797Y64856252D01*
X14069798Y64858294D01*
X14929797Y64858294D01*
X15107544Y64428114D01*
X15436383Y64098700D01*
X15866252Y63920203D01*
X16331706Y63919797D01*
X16761886Y64097544D01*
X17091300Y64426383D01*
X17200047Y64688276D01*
X17307544Y64428114D01*
X17636383Y64098700D01*
X18066252Y63920203D01*
X18531706Y63919797D01*
X18961886Y64097544D01*
X19291300Y64426383D01*
X19333779Y64528686D01*
X20229763Y64528686D01*
X20437893Y64024971D01*
X20822944Y63639248D01*
X21326295Y63430238D01*
X21871314Y63429763D01*
X22375029Y63637893D01*
X22555469Y63818019D01*
X23630747Y63818019D01*
X23727524Y63583827D01*
X24259346Y63342521D01*
X24843030Y63323102D01*
X25151115Y63438871D01*
X26224514Y63438871D01*
X26402401Y62966836D01*
X26448804Y62897386D01*
X26662214Y62824942D01*
X27487272Y63650000D01*
X26662214Y64475058D01*
X26448804Y64402614D01*
X26240809Y63943050D01*
X26224514Y63438871D01*
X25151115Y63438871D01*
X25389715Y63528529D01*
X25472476Y63583827D01*
X25569253Y63818019D01*
X24600000Y64787272D01*
X23630747Y63818019D01*
X22555469Y63818019D01*
X22760752Y64022944D01*
X22969762Y64526295D01*
X22969788Y64556970D01*
X23123102Y64556970D01*
X23328529Y64010285D01*
X23383827Y63927524D01*
X23618019Y63830747D01*
X24587272Y64800000D01*
X24612728Y64800000D01*
X25581981Y63830747D01*
X25816173Y63927524D01*
X26057479Y64459346D01*
X26058425Y64487786D01*
X26674942Y64487786D01*
X27500000Y63662728D01*
X28325058Y64487786D01*
X28252614Y64701196D01*
X27793050Y64909191D01*
X27288871Y64925486D01*
X26816836Y64747599D01*
X26747386Y64701196D01*
X26674942Y64487786D01*
X26058425Y64487786D01*
X26076898Y65043030D01*
X25871471Y65589715D01*
X25816173Y65672476D01*
X25581981Y65769253D01*
X24612728Y64800000D01*
X24587272Y64800000D01*
X23618019Y65769253D01*
X23383827Y65672476D01*
X23142521Y65140654D01*
X23123102Y64556970D01*
X22969788Y64556970D01*
X22970237Y65071314D01*
X22762107Y65575029D01*
X22555516Y65781981D01*
X23630747Y65781981D01*
X24600000Y64812728D01*
X25569253Y65781981D01*
X25472476Y66016173D01*
X24940654Y66257479D01*
X24356970Y66276898D01*
X23810285Y66071471D01*
X23727524Y66016173D01*
X23630747Y65781981D01*
X22555516Y65781981D01*
X22377056Y65960752D01*
X21873705Y66169762D01*
X21328686Y66170237D01*
X20824971Y65962107D01*
X20439248Y65577056D01*
X20230238Y65073705D01*
X20229763Y64528686D01*
X19333779Y64528686D01*
X19469797Y64856252D01*
X19470203Y65321706D01*
X19292456Y65751886D01*
X18963617Y66081300D01*
X18533748Y66259797D01*
X18068294Y66260203D01*
X17638114Y66082456D01*
X17308700Y65753617D01*
X17199953Y65491724D01*
X17092456Y65751886D01*
X16763617Y66081300D01*
X16333748Y66259797D01*
X15868294Y66260203D01*
X15438114Y66082456D01*
X15108700Y65753617D01*
X14930203Y65323748D01*
X14929797Y64858294D01*
X14069798Y64858294D01*
X14070203Y65321706D01*
X13892456Y65751886D01*
X13563617Y66081300D01*
X13133748Y66259797D01*
X12668294Y66260203D01*
X12238114Y66082456D01*
X11908700Y65753617D01*
X11802024Y65496712D01*
X11692456Y65761886D01*
X11363617Y66091300D01*
X10933748Y66269797D01*
X10468294Y66270203D01*
X10038114Y66092456D01*
X9708700Y65763617D01*
X9530203Y65333748D01*
X9529797Y64868294D01*
X8770060Y64868294D01*
X8770237Y65071314D01*
X8562107Y65575029D01*
X8177056Y65960752D01*
X7673705Y66169762D01*
X7128686Y66170237D01*
X6624971Y65962107D01*
X6239248Y65577056D01*
X6030238Y65073705D01*
X6029763Y64528686D01*
X5859785Y64528686D01*
X5876898Y65043030D01*
X5671471Y65589715D01*
X5616173Y65672476D01*
X5381981Y65769253D01*
X4412728Y64800000D01*
X4387272Y64800000D01*
X3418019Y65769253D01*
X3183827Y65672476D01*
X2942521Y65140654D01*
X2923102Y64556970D01*
X2301573Y64556970D01*
X2252614Y64701196D01*
X1793050Y64909191D01*
X1288871Y64925486D01*
X816836Y64747599D01*
X747386Y64701196D01*
X674942Y64487786D01*
X420000Y64487786D01*
X420000Y65352214D01*
X674942Y65352214D01*
X747386Y65138804D01*
X1206950Y64930809D01*
X1711129Y64914514D01*
X2183164Y65092401D01*
X2252614Y65138804D01*
X2325058Y65352214D01*
X1500000Y66177272D01*
X674942Y65352214D01*
X420000Y65352214D01*
X420000Y65480496D01*
X448804Y65437386D01*
X662214Y65364942D01*
X1487272Y66190000D01*
X1512728Y66190000D01*
X2337786Y65364942D01*
X2551196Y65437386D01*
X2707156Y65781981D01*
X3430747Y65781981D01*
X4400000Y64812728D01*
X5369253Y65781981D01*
X5272476Y66016173D01*
X4740654Y66257479D01*
X4156970Y66276898D01*
X3610285Y66071471D01*
X3527524Y66016173D01*
X3430747Y65781981D01*
X2707156Y65781981D01*
X2759191Y65896950D01*
X2775486Y66401129D01*
X2597599Y66873164D01*
X2551196Y66942614D01*
X2337786Y67015058D01*
X1512728Y66190000D01*
X1487272Y66190000D01*
X662214Y67015058D01*
X448804Y66942614D01*
X420000Y66878972D01*
X420000Y67027786D01*
X674942Y67027786D01*
X1500000Y66202728D01*
X2325058Y67027786D01*
X2252614Y67241196D01*
X1793050Y67449191D01*
X1288871Y67465486D01*
X816836Y67287599D01*
X747386Y67241196D01*
X674942Y67027786D01*
X420000Y67027786D01*
X420000Y68279986D01*
X507544Y68068114D01*
X836383Y67738700D01*
X1266252Y67560203D01*
X1731706Y67559797D01*
X2161886Y67737544D01*
X2491300Y68066383D01*
X2669797Y68496252D01*
X2670203Y68961706D01*
X2492456Y69391886D01*
X2163617Y69721300D01*
X1733748Y69899797D01*
X1268294Y69900203D01*
X838114Y69722456D01*
X508700Y69393617D01*
X420000Y69180003D01*
X420000Y70432214D01*
X674942Y70432214D01*
X747386Y70218804D01*
X1206950Y70010809D01*
X1711129Y69994514D01*
X2183164Y70172401D01*
X2252614Y70218804D01*
X2325058Y70432214D01*
X1500000Y71257272D01*
X674942Y70432214D01*
X420000Y70432214D01*
X420000Y70560496D01*
X448804Y70517386D01*
X662214Y70444942D01*
X1487272Y71270000D01*
X1512728Y71270000D01*
X2337786Y70444942D01*
X2551196Y70517386D01*
X2759191Y70976950D01*
X2775486Y71481129D01*
X2597599Y71953164D01*
X2551196Y72022614D01*
X2337786Y72095058D01*
X1512728Y71270000D01*
X1487272Y71270000D01*
X662214Y72095058D01*
X448804Y72022614D01*
X420000Y71958972D01*
X420000Y72107786D01*
X674942Y72107786D01*
X1500000Y71282728D01*
X2325058Y72107786D01*
X2252614Y72321196D01*
X1927602Y72468294D01*
X9529797Y72468294D01*
X9707544Y72038114D01*
X10036383Y71708700D01*
X10466252Y71530203D01*
X10931706Y71529797D01*
X11361886Y71707544D01*
X11691300Y72036383D01*
X11802118Y72303263D01*
X11907544Y72048114D01*
X12236383Y71718700D01*
X12666252Y71540203D01*
X13131706Y71539797D01*
X13561886Y71717544D01*
X13891300Y72046383D01*
X14069797Y72476252D01*
X14069798Y72478294D01*
X14929797Y72478294D01*
X15107544Y72048114D01*
X15436383Y71718700D01*
X15580000Y71659065D01*
X15580000Y70039552D01*
X15405243Y69865099D01*
X15280142Y69563824D01*
X15279858Y69237607D01*
X15404432Y68936114D01*
X15634901Y68705243D01*
X15936176Y68580142D01*
X16262393Y68579858D01*
X16563886Y68704432D01*
X16794757Y68934901D01*
X16919858Y69236176D01*
X16920142Y69562393D01*
X16795568Y69863886D01*
X16620000Y70039760D01*
X16620000Y70432214D01*
X26674942Y70432214D01*
X26747386Y70218804D01*
X27206950Y70010809D01*
X27711129Y69994514D01*
X28183164Y70172401D01*
X28252614Y70218804D01*
X28325058Y70432214D01*
X27500000Y71257272D01*
X26674942Y70432214D01*
X16620000Y70432214D01*
X16620000Y71058871D01*
X26224514Y71058871D01*
X26402401Y70586836D01*
X26448804Y70517386D01*
X26662214Y70444942D01*
X27487272Y71270000D01*
X26662214Y72095058D01*
X26448804Y72022614D01*
X26240809Y71563050D01*
X26224514Y71058871D01*
X16620000Y71058871D01*
X16620000Y71658918D01*
X16761886Y71717544D01*
X17091300Y72046383D01*
X17200047Y72308276D01*
X17307544Y72048114D01*
X17636383Y71718700D01*
X18066252Y71540203D01*
X18531706Y71539797D01*
X18961886Y71717544D01*
X19291300Y72046383D01*
X19316796Y72107786D01*
X26674942Y72107786D01*
X27500000Y71282728D01*
X28325058Y72107786D01*
X28252614Y72321196D01*
X27793050Y72529191D01*
X27288871Y72545486D01*
X26816836Y72367599D01*
X26747386Y72321196D01*
X26674942Y72107786D01*
X19316796Y72107786D01*
X19469797Y72476252D01*
X19470203Y72941706D01*
X19292456Y73371886D01*
X18963617Y73701300D01*
X18533748Y73879797D01*
X18068294Y73880203D01*
X17638114Y73702456D01*
X17308700Y73373617D01*
X17199953Y73111724D01*
X17092456Y73371886D01*
X16763617Y73701300D01*
X16333748Y73879797D01*
X15868294Y73880203D01*
X15438114Y73702456D01*
X15108700Y73373617D01*
X14930203Y72943748D01*
X14929797Y72478294D01*
X14069798Y72478294D01*
X14070203Y72941706D01*
X13892456Y73371886D01*
X13563617Y73701300D01*
X13133748Y73879797D01*
X12668294Y73880203D01*
X12238114Y73702456D01*
X11908700Y73373617D01*
X11797882Y73106737D01*
X11692456Y73361886D01*
X11363617Y73691300D01*
X10933748Y73869797D01*
X10468294Y73870203D01*
X10038114Y73692456D01*
X9708700Y73363617D01*
X9530203Y72933748D01*
X9529797Y72468294D01*
X1927602Y72468294D01*
X1793050Y72529191D01*
X1288871Y72545486D01*
X816836Y72367599D01*
X747386Y72321196D01*
X674942Y72107786D01*
X420000Y72107786D01*
X420000Y73359986D01*
X507544Y73148114D01*
X836383Y72818700D01*
X1266252Y72640203D01*
X1731706Y72639797D01*
X2161886Y72817544D01*
X2491300Y73146383D01*
X2669797Y73576252D01*
X2670203Y74041706D01*
X2492456Y74471886D01*
X2435756Y74528686D01*
X3029763Y74528686D01*
X3237893Y74024971D01*
X3622944Y73639248D01*
X4126295Y73430238D01*
X4671314Y73429763D01*
X5175029Y73637893D01*
X5560752Y74022944D01*
X5769762Y74526295D01*
X5769764Y74528686D01*
X6029763Y74528686D01*
X6237893Y74024971D01*
X6622944Y73639248D01*
X7126295Y73430238D01*
X7671314Y73429763D01*
X8175029Y73637893D01*
X8560752Y74022944D01*
X8769762Y74526295D01*
X8769764Y74528686D01*
X20229763Y74528686D01*
X20437893Y74024971D01*
X20822944Y73639248D01*
X21326295Y73430238D01*
X21871314Y73429763D01*
X22375029Y73637893D01*
X22760752Y74022944D01*
X22969762Y74526295D01*
X22969764Y74528686D01*
X23229763Y74528686D01*
X23437893Y74024971D01*
X23822944Y73639248D01*
X24326295Y73430238D01*
X24871314Y73429763D01*
X25375029Y73637893D01*
X25760752Y74022944D01*
X25969762Y74526295D01*
X25970237Y75071314D01*
X25762107Y75575029D01*
X25377056Y75960752D01*
X24873705Y76169762D01*
X24328686Y76170237D01*
X23824971Y75962107D01*
X23439248Y75577056D01*
X23230238Y75073705D01*
X23229763Y74528686D01*
X22969764Y74528686D01*
X22970237Y75071314D01*
X22762107Y75575029D01*
X22377056Y75960752D01*
X21873705Y76169762D01*
X21328686Y76170237D01*
X20824971Y75962107D01*
X20439248Y75577056D01*
X20230238Y75073705D01*
X20229763Y74528686D01*
X8769764Y74528686D01*
X8770237Y75071314D01*
X8562107Y75575029D01*
X8177056Y75960752D01*
X7673705Y76169762D01*
X7128686Y76170237D01*
X6624971Y75962107D01*
X6239248Y75577056D01*
X6030238Y75073705D01*
X6029763Y74528686D01*
X5769764Y74528686D01*
X5770237Y75071314D01*
X5562107Y75575029D01*
X5177056Y75960752D01*
X4673705Y76169762D01*
X4128686Y76170237D01*
X3624971Y75962107D01*
X3239248Y75577056D01*
X3030238Y75073705D01*
X3029763Y74528686D01*
X2435756Y74528686D01*
X2163617Y74801300D01*
X1733748Y74979797D01*
X1350000Y74980132D01*
X1350000Y75082000D01*
X1374000Y75082000D01*
X1491000Y75199000D01*
X1491000Y76341000D01*
X1509000Y76341000D01*
X1509000Y75199000D01*
X1626000Y75082000D01*
X2393091Y75082000D01*
X2565101Y75153249D01*
X2696751Y75284899D01*
X2768000Y75456909D01*
X2768000Y76224000D01*
X2653902Y76338098D01*
X9929814Y76338098D01*
X10092369Y75944685D01*
X10393102Y75643427D01*
X10786230Y75480186D01*
X11211902Y75479814D01*
X11605315Y75642369D01*
X11906573Y75943102D01*
X12069814Y76336230D01*
X12069815Y76338098D01*
X16929814Y76338098D01*
X17092369Y75944685D01*
X17393102Y75643427D01*
X17786230Y75480186D01*
X18211902Y75479814D01*
X18605315Y75642369D01*
X18906573Y75943102D01*
X19069814Y76336230D01*
X19070186Y76761902D01*
X18907631Y77155315D01*
X18606898Y77456573D01*
X18213770Y77619814D01*
X17788098Y77620186D01*
X17394685Y77457631D01*
X17093427Y77156898D01*
X16930186Y76763770D01*
X16929814Y76338098D01*
X12069815Y76338098D01*
X12070186Y76761902D01*
X11907631Y77155315D01*
X11606898Y77456573D01*
X11213770Y77619814D01*
X10788098Y77620186D01*
X10394685Y77457631D01*
X10093427Y77156898D01*
X9930186Y76763770D01*
X9929814Y76338098D01*
X2653902Y76338098D01*
X2651000Y76341000D01*
X1509000Y76341000D01*
X1491000Y76341000D01*
X1471000Y76341000D01*
X1471000Y76359000D01*
X1491000Y76359000D01*
X1491000Y77501000D01*
X1509000Y77501000D01*
X1509000Y76359000D01*
X2651000Y76359000D01*
X2768000Y76476000D01*
X2768000Y77243091D01*
X2696751Y77415101D01*
X2565101Y77546751D01*
X2393091Y77618000D01*
X1626000Y77618000D01*
X1509000Y77501000D01*
X1491000Y77501000D01*
X1374000Y77618000D01*
X606909Y77618000D01*
X434899Y77546751D01*
X420000Y77531852D01*
X420000Y79750000D01*
X9922752Y79750000D01*
X9922752Y78350000D01*
X9951468Y78205633D01*
X10033245Y78083245D01*
X10155633Y78001468D01*
X10300000Y77972752D01*
X11700000Y77972752D01*
X11844367Y78001468D01*
X11966755Y78083245D01*
X12048532Y78205633D01*
X12077248Y78350000D01*
X12077248Y79750000D01*
X16922752Y79750000D01*
X16922752Y78350000D01*
X16951468Y78205633D01*
X17033245Y78083245D01*
X17155633Y78001468D01*
X17300000Y77972752D01*
X18700000Y77972752D01*
X18844367Y78001468D01*
X18966755Y78083245D01*
X19048532Y78205633D01*
X19077248Y78350000D01*
X19077248Y79750000D01*
X19048532Y79894367D01*
X18966755Y80016755D01*
X18844367Y80098532D01*
X18700000Y80127248D01*
X17300000Y80127248D01*
X17155633Y80098532D01*
X17033245Y80016755D01*
X16951468Y79894367D01*
X16922752Y79750000D01*
X12077248Y79750000D01*
X12048532Y79894367D01*
X11966755Y80016755D01*
X11844367Y80098532D01*
X11700000Y80127248D01*
X10300000Y80127248D01*
X10155633Y80098532D01*
X10033245Y80016755D01*
X9951468Y79894367D01*
X9922752Y79750000D01*
X420000Y79750000D01*
X420000Y81580000D01*
X28580000Y81580000D01*
X28580000Y77396932D01*
M02*
