G04 #@! TF.GenerationSoftware,KiCad,Pcbnew,(2016-12-20 revision 2972f6f)-master*
G04 #@! TF.CreationDate,2020-06-24T23:38:58+03:00*
G04 #@! TF.ProjectId,DIYOUT3M,4449594F5554334D2E6B696361645F70,rev?*
G04 #@! TF.FileFunction,Legend,Top*
G04 #@! TF.FilePolarity,Positive*
%FSLAX46Y46*%
G04 Gerber Fmt 4.6, Leading zero omitted, Abs format (unit mm)*
G04 Created by KiCad (PCBNEW (2016-12-20 revision 2972f6f)-master) date Wed Jun 24 23:38:58 2020*
%MOMM*%
%LPD*%
G01*
G04 APERTURE LIST*
%ADD10C,0.100000*%
%ADD11C,0.300000*%
%ADD12C,0.120000*%
G04 APERTURE END LIST*
D10*
D11*
X9292857Y50195239D02*
X9292857Y52195239D01*
X9650000Y52195239D01*
X9864285Y52100000D01*
X10007142Y51909524D01*
X10078571Y51719048D01*
X10150000Y51338096D01*
X10150000Y51052381D01*
X10078571Y50671429D01*
X10007142Y50480953D01*
X9864285Y50290477D01*
X9650000Y50195239D01*
X9292857Y50195239D01*
X10792857Y50195239D02*
X10792857Y52195239D01*
X11792857Y51147620D02*
X11792857Y50195239D01*
X11292857Y52195239D02*
X11792857Y51147620D01*
X12292857Y52195239D01*
X13078571Y52195239D02*
X13364285Y52195239D01*
X13507142Y52100000D01*
X13650000Y51909524D01*
X13721428Y51528572D01*
X13721428Y50861905D01*
X13650000Y50480953D01*
X13507142Y50290477D01*
X13364285Y50195239D01*
X13078571Y50195239D01*
X12935714Y50290477D01*
X12792857Y50480953D01*
X12721428Y50861905D01*
X12721428Y51528572D01*
X12792857Y51909524D01*
X12935714Y52100000D01*
X13078571Y52195239D01*
X14364285Y52195239D02*
X14364285Y50576191D01*
X14435714Y50385715D01*
X14507142Y50290477D01*
X14650000Y50195239D01*
X14935714Y50195239D01*
X15078571Y50290477D01*
X15150000Y50385715D01*
X15221428Y50576191D01*
X15221428Y52195239D01*
X15721428Y52195239D02*
X16578571Y52195239D01*
X16150000Y50195239D02*
X16150000Y52195239D01*
X16935714Y52195239D02*
X17864285Y52195239D01*
X17364285Y51433334D01*
X17578571Y51433334D01*
X17721428Y51338096D01*
X17792857Y51242858D01*
X17864285Y51052381D01*
X17864285Y50576191D01*
X17792857Y50385715D01*
X17721428Y50290477D01*
X17578571Y50195239D01*
X17150000Y50195239D01*
X17007142Y50290477D01*
X16935714Y50385715D01*
X18507142Y50195239D02*
X18507142Y52195239D01*
X19007142Y50766667D01*
X19507142Y52195239D01*
X19507142Y50195239D01*
D10*
X1600000Y78183334D02*
X1200000Y78183334D01*
X1400000Y78183334D02*
X1400000Y78883334D01*
X1333333Y78783334D01*
X1266666Y78716667D01*
X1200000Y78683334D01*
X28000000Y77883334D02*
X27600000Y77883334D01*
X27800000Y77883334D02*
X27800000Y78583334D01*
X27733333Y78483334D01*
X27666666Y78416667D01*
X27600000Y78383334D01*
X1400000Y21983334D02*
X1000000Y21983334D01*
X1200000Y21983334D02*
X1200000Y22683334D01*
X1133333Y22583334D01*
X1066666Y22516667D01*
X1000000Y22483334D01*
X27689000Y21971334D02*
X27289000Y21971334D01*
X27489000Y21971334D02*
X27489000Y22671334D01*
X27422333Y22571334D01*
X27355666Y22504667D01*
X27289000Y22471334D01*
X9750000Y80950000D02*
X9883333Y80483334D01*
X10016666Y80816667D01*
X10150000Y80483334D01*
X10283333Y80950000D01*
X10483333Y80950000D02*
X10616666Y80483334D01*
X10750000Y80816667D01*
X10883333Y80483334D01*
X11016666Y80950000D01*
X11216666Y80950000D02*
X11350000Y80483334D01*
X11483333Y80816667D01*
X11616666Y80483334D01*
X11750000Y80950000D01*
X12016666Y80550000D02*
X12050000Y80516667D01*
X12016666Y80483334D01*
X11983333Y80516667D01*
X12016666Y80550000D01*
X12016666Y80483334D01*
X12616666Y80516667D02*
X12550000Y80483334D01*
X12416666Y80483334D01*
X12350000Y80516667D01*
X12316666Y80583334D01*
X12316666Y80850000D01*
X12350000Y80916667D01*
X12416666Y80950000D01*
X12550000Y80950000D01*
X12616666Y80916667D01*
X12650000Y80850000D01*
X12650000Y80783334D01*
X12316666Y80716667D01*
X12950000Y80483334D02*
X12950000Y80950000D01*
X12950000Y80816667D02*
X12983333Y80883334D01*
X13016666Y80916667D01*
X13083333Y80950000D01*
X13150000Y80950000D01*
X13383333Y80483334D02*
X13383333Y80950000D01*
X13383333Y81183334D02*
X13350000Y81150000D01*
X13383333Y81116667D01*
X13416666Y81150000D01*
X13383333Y81183334D01*
X13383333Y81116667D01*
X14016666Y80516667D02*
X13950000Y80483334D01*
X13816666Y80483334D01*
X13750000Y80516667D01*
X13716666Y80550000D01*
X13683333Y80616667D01*
X13683333Y80816667D01*
X13716666Y80883334D01*
X13750000Y80916667D01*
X13816666Y80950000D01*
X13950000Y80950000D01*
X14016666Y80916667D01*
X14616666Y80483334D02*
X14616666Y80850000D01*
X14583333Y80916667D01*
X14516666Y80950000D01*
X14383333Y80950000D01*
X14316666Y80916667D01*
X14616666Y80516667D02*
X14550000Y80483334D01*
X14383333Y80483334D01*
X14316666Y80516667D01*
X14283333Y80583334D01*
X14283333Y80650000D01*
X14316666Y80716667D01*
X14383333Y80750000D01*
X14550000Y80750000D01*
X14616666Y80783334D01*
X14916666Y80516667D02*
X14983333Y80483334D01*
X15116666Y80483334D01*
X15183333Y80516667D01*
X15216666Y80583334D01*
X15216666Y80616667D01*
X15183333Y80683334D01*
X15116666Y80716667D01*
X15016666Y80716667D01*
X14950000Y80750000D01*
X14916666Y80816667D01*
X14916666Y80850000D01*
X14950000Y80916667D01*
X15016666Y80950000D01*
X15116666Y80950000D01*
X15183333Y80916667D01*
X15450000Y80950000D02*
X15616666Y80483334D01*
X15783333Y80950000D02*
X15616666Y80483334D01*
X15550000Y80316667D01*
X15516666Y80283334D01*
X15450000Y80250000D01*
X16050000Y80950000D02*
X16050000Y80483334D01*
X16050000Y80883334D02*
X16083333Y80916667D01*
X16150000Y80950000D01*
X16250000Y80950000D01*
X16316666Y80916667D01*
X16350000Y80850000D01*
X16350000Y80483334D01*
X16583333Y80950000D02*
X16850000Y80950000D01*
X16683333Y81183334D02*
X16683333Y80583334D01*
X16716666Y80516667D01*
X16783333Y80483334D01*
X16850000Y80483334D01*
X17083333Y80483334D02*
X17083333Y81183334D01*
X17383333Y80483334D02*
X17383333Y80850000D01*
X17350000Y80916667D01*
X17283333Y80950000D01*
X17183333Y80950000D01*
X17116666Y80916667D01*
X17083333Y80883334D01*
X17683333Y80516667D02*
X17750000Y80483334D01*
X17883333Y80483334D01*
X17950000Y80516667D01*
X17983333Y80583334D01*
X17983333Y80616667D01*
X17950000Y80683334D01*
X17883333Y80716667D01*
X17783333Y80716667D01*
X17716666Y80750000D01*
X17683333Y80816667D01*
X17683333Y80850000D01*
X17716666Y80916667D01*
X17783333Y80950000D01*
X17883333Y80950000D01*
X17950000Y80916667D01*
X18283333Y80550000D02*
X18316666Y80516667D01*
X18283333Y80483334D01*
X18250000Y80516667D01*
X18283333Y80550000D01*
X18283333Y80483334D01*
X18716666Y80483334D02*
X18650000Y80516667D01*
X18616666Y80583334D01*
X18616666Y81183334D01*
X18916666Y80950000D02*
X19083333Y80483334D01*
X19250000Y80950000D01*
D12*
X3818571Y9614286D02*
X3818571Y9880953D01*
X4342380Y9995239D02*
X4342380Y9614286D01*
X3342380Y9614286D01*
X3342380Y9995239D01*
X4342380Y10338096D02*
X3675714Y10338096D01*
X3866190Y10338096D02*
X3770952Y10376191D01*
X3723333Y10414286D01*
X3675714Y10490477D01*
X3675714Y10566667D01*
X4342380Y10833334D02*
X3675714Y10833334D01*
X3342380Y10833334D02*
X3390000Y10795239D01*
X3437619Y10833334D01*
X3390000Y10871429D01*
X3342380Y10833334D01*
X3437619Y10833334D01*
X4294761Y11557143D02*
X4342380Y11480953D01*
X4342380Y11328572D01*
X4294761Y11252381D01*
X4247142Y11214286D01*
X4151904Y11176191D01*
X3866190Y11176191D01*
X3770952Y11214286D01*
X3723333Y11252381D01*
X3675714Y11328572D01*
X3675714Y11480953D01*
X3723333Y11557143D01*
X4342380Y12242858D02*
X3818571Y12242858D01*
X3723333Y12204762D01*
X3675714Y12128572D01*
X3675714Y11976191D01*
X3723333Y11900000D01*
X4294761Y12242858D02*
X4342380Y12166667D01*
X4342380Y11976191D01*
X4294761Y11900000D01*
X4199523Y11861905D01*
X4104285Y11861905D01*
X4009047Y11900000D01*
X3961428Y11976191D01*
X3961428Y12166667D01*
X3913809Y12242858D01*
X4294761Y13195239D02*
X4342380Y13309524D01*
X4342380Y13500000D01*
X4294761Y13576191D01*
X4247142Y13614286D01*
X4151904Y13652381D01*
X4056666Y13652381D01*
X3961428Y13614286D01*
X3913809Y13576191D01*
X3866190Y13500000D01*
X3818571Y13347620D01*
X3770952Y13271429D01*
X3723333Y13233334D01*
X3628095Y13195239D01*
X3532857Y13195239D01*
X3437619Y13233334D01*
X3390000Y13271429D01*
X3342380Y13347620D01*
X3342380Y13538096D01*
X3390000Y13652381D01*
X3675714Y13919048D02*
X4342380Y14109524D01*
X3675714Y14300000D02*
X4342380Y14109524D01*
X4580476Y14033334D01*
X4628095Y13995239D01*
X4675714Y13919048D01*
X3675714Y14604762D02*
X4342380Y14604762D01*
X3770952Y14604762D02*
X3723333Y14642858D01*
X3675714Y14719048D01*
X3675714Y14833334D01*
X3723333Y14909524D01*
X3818571Y14947620D01*
X4342380Y14947620D01*
X3675714Y15214286D02*
X3675714Y15519048D01*
X3342380Y15328572D02*
X4199523Y15328572D01*
X4294761Y15366667D01*
X4342380Y15442858D01*
X4342380Y15519048D01*
X4342380Y15785715D02*
X3342380Y15785715D01*
X4342380Y16128572D02*
X3818571Y16128572D01*
X3723333Y16090477D01*
X3675714Y16014286D01*
X3675714Y15900000D01*
X3723333Y15823810D01*
X3770952Y15785715D01*
X4294761Y16471429D02*
X4342380Y16547620D01*
X4342380Y16700000D01*
X4294761Y16776191D01*
X4199523Y16814286D01*
X4151904Y16814286D01*
X4056666Y16776191D01*
X4009047Y16700000D01*
X4009047Y16585715D01*
X3961428Y16509524D01*
X3866190Y16471429D01*
X3818571Y16471429D01*
X3723333Y16509524D01*
X3675714Y16585715D01*
X3675714Y16700000D01*
X3723333Y16776191D01*
X3342380Y17919048D02*
X3342380Y18071429D01*
X3390000Y18147620D01*
X3485238Y18223810D01*
X3675714Y18261905D01*
X4009047Y18261905D01*
X4199523Y18223810D01*
X4294761Y18147620D01*
X4342380Y18071429D01*
X4342380Y17919048D01*
X4294761Y17842858D01*
X4199523Y17766667D01*
X4009047Y17728572D01*
X3675714Y17728572D01*
X3485238Y17766667D01*
X3390000Y17842858D01*
X3342380Y17919048D01*
X3675714Y18947620D02*
X4342380Y18947620D01*
X3675714Y18604762D02*
X4199523Y18604762D01*
X4294761Y18642858D01*
X4342380Y18719048D01*
X4342380Y18833334D01*
X4294761Y18909524D01*
X4247142Y18947620D01*
X3675714Y19214286D02*
X3675714Y19519048D01*
X3342380Y19328572D02*
X4199523Y19328572D01*
X4294761Y19366667D01*
X4342380Y19442858D01*
X4342380Y19519048D01*
X3675714Y19785715D02*
X4675714Y19785715D01*
X3723333Y19785715D02*
X3675714Y19861905D01*
X3675714Y20014286D01*
X3723333Y20090477D01*
X3770952Y20128572D01*
X3866190Y20166667D01*
X4151904Y20166667D01*
X4247142Y20128572D01*
X4294761Y20090477D01*
X4342380Y20014286D01*
X4342380Y19861905D01*
X4294761Y19785715D01*
X3675714Y20852381D02*
X4342380Y20852381D01*
X3675714Y20509524D02*
X4199523Y20509524D01*
X4294761Y20547620D01*
X4342380Y20623810D01*
X4342380Y20738096D01*
X4294761Y20814286D01*
X4247142Y20852381D01*
X3675714Y21119048D02*
X3675714Y21423810D01*
X3342380Y21233334D02*
X4199523Y21233334D01*
X4294761Y21271429D01*
X4342380Y21347620D01*
X4342380Y21423810D01*
X4342380Y22300000D02*
X3675714Y22300000D01*
X3770952Y22300000D02*
X3723333Y22338096D01*
X3675714Y22414286D01*
X3675714Y22528572D01*
X3723333Y22604762D01*
X3818571Y22642858D01*
X4342380Y22642858D01*
X3818571Y22642858D02*
X3723333Y22680953D01*
X3675714Y22757143D01*
X3675714Y22871429D01*
X3723333Y22947620D01*
X3818571Y22985715D01*
X4342380Y22985715D01*
X4342380Y23480953D02*
X4294761Y23404762D01*
X4247142Y23366667D01*
X4151904Y23328572D01*
X3866190Y23328572D01*
X3770952Y23366667D01*
X3723333Y23404762D01*
X3675714Y23480953D01*
X3675714Y23595239D01*
X3723333Y23671429D01*
X3770952Y23709524D01*
X3866190Y23747620D01*
X4151904Y23747620D01*
X4247142Y23709524D01*
X4294761Y23671429D01*
X4342380Y23595239D01*
X4342380Y23480953D01*
X4342380Y24433334D02*
X3342380Y24433334D01*
X4294761Y24433334D02*
X4342380Y24357143D01*
X4342380Y24204762D01*
X4294761Y24128572D01*
X4247142Y24090477D01*
X4151904Y24052381D01*
X3866190Y24052381D01*
X3770952Y24090477D01*
X3723333Y24128572D01*
X3675714Y24204762D01*
X3675714Y24357143D01*
X3723333Y24433334D01*
X3675714Y25157143D02*
X4342380Y25157143D01*
X3675714Y24814286D02*
X4199523Y24814286D01*
X4294761Y24852381D01*
X4342380Y24928572D01*
X4342380Y25042858D01*
X4294761Y25119048D01*
X4247142Y25157143D01*
X4342380Y25652381D02*
X4294761Y25576191D01*
X4199523Y25538096D01*
X3342380Y25538096D01*
X4294761Y26261905D02*
X4342380Y26185715D01*
X4342380Y26033334D01*
X4294761Y25957143D01*
X4199523Y25919048D01*
X3818571Y25919048D01*
X3723333Y25957143D01*
X3675714Y26033334D01*
X3675714Y26185715D01*
X3723333Y26261905D01*
X3818571Y26300000D01*
X3913809Y26300000D01*
X4009047Y25919048D01*
X3675714Y27176191D02*
X4342380Y27366667D01*
X3675714Y27557143D01*
X3342380Y27785715D02*
X3342380Y28280953D01*
X3723333Y28014286D01*
X3723333Y28128572D01*
X3770952Y28204762D01*
X3818571Y28242858D01*
X3913809Y28280953D01*
X4151904Y28280953D01*
X4247142Y28242858D01*
X4294761Y28204762D01*
X4342380Y28128572D01*
X4342380Y27900000D01*
X4294761Y27823810D01*
X4247142Y27785715D01*
X4247142Y28623810D02*
X4294761Y28661905D01*
X4342380Y28623810D01*
X4294761Y28585715D01*
X4247142Y28623810D01*
X4342380Y28623810D01*
X3342380Y29157143D02*
X3342380Y29233334D01*
X3390000Y29309524D01*
X3437619Y29347620D01*
X3532857Y29385715D01*
X3723333Y29423810D01*
X3961428Y29423810D01*
X4151904Y29385715D01*
X4247142Y29347620D01*
X4294761Y29309524D01*
X4342380Y29233334D01*
X4342380Y29157143D01*
X4294761Y29080953D01*
X4247142Y29042858D01*
X4151904Y29004762D01*
X3961428Y28966667D01*
X3723333Y28966667D01*
X3532857Y29004762D01*
X3437619Y29042858D01*
X3390000Y29080953D01*
X3342380Y29157143D01*
X4962380Y16719048D02*
X5676666Y16719048D01*
X5819523Y16680953D01*
X5914761Y16604762D01*
X5962380Y16490477D01*
X5962380Y16414286D01*
X5295714Y17442858D02*
X5962380Y17442858D01*
X5295714Y17100000D02*
X5819523Y17100000D01*
X5914761Y17138096D01*
X5962380Y17214286D01*
X5962380Y17328572D01*
X5914761Y17404762D01*
X5867142Y17442858D01*
X5295714Y17823810D02*
X5962380Y17823810D01*
X5390952Y17823810D02*
X5343333Y17861905D01*
X5295714Y17938096D01*
X5295714Y18052381D01*
X5343333Y18128572D01*
X5438571Y18166667D01*
X5962380Y18166667D01*
X5914761Y18852381D02*
X5962380Y18776191D01*
X5962380Y18623810D01*
X5914761Y18547620D01*
X5819523Y18509524D01*
X5438571Y18509524D01*
X5343333Y18547620D01*
X5295714Y18623810D01*
X5295714Y18776191D01*
X5343333Y18852381D01*
X5438571Y18890477D01*
X5533809Y18890477D01*
X5629047Y18509524D01*
X5057619Y19804762D02*
X5010000Y19842858D01*
X4962380Y19919048D01*
X4962380Y20109524D01*
X5010000Y20185715D01*
X5057619Y20223810D01*
X5152857Y20261905D01*
X5248095Y20261905D01*
X5390952Y20223810D01*
X5962380Y19766667D01*
X5962380Y20261905D01*
X4962380Y20757143D02*
X4962380Y20833334D01*
X5010000Y20909524D01*
X5057619Y20947620D01*
X5152857Y20985715D01*
X5343333Y21023810D01*
X5581428Y21023810D01*
X5771904Y20985715D01*
X5867142Y20947620D01*
X5914761Y20909524D01*
X5962380Y20833334D01*
X5962380Y20757143D01*
X5914761Y20680953D01*
X5867142Y20642858D01*
X5771904Y20604762D01*
X5581428Y20566667D01*
X5343333Y20566667D01*
X5152857Y20604762D01*
X5057619Y20642858D01*
X5010000Y20680953D01*
X4962380Y20757143D01*
X5057619Y21328572D02*
X5010000Y21366667D01*
X4962380Y21442858D01*
X4962380Y21633334D01*
X5010000Y21709524D01*
X5057619Y21747620D01*
X5152857Y21785715D01*
X5248095Y21785715D01*
X5390952Y21747620D01*
X5962380Y21290477D01*
X5962380Y21785715D01*
X4962380Y22280953D02*
X4962380Y22357143D01*
X5010000Y22433334D01*
X5057619Y22471429D01*
X5152857Y22509524D01*
X5343333Y22547620D01*
X5581428Y22547620D01*
X5771904Y22509524D01*
X5867142Y22471429D01*
X5914761Y22433334D01*
X5962380Y22357143D01*
X5962380Y22280953D01*
X5914761Y22204762D01*
X5867142Y22166667D01*
X5771904Y22128572D01*
X5581428Y22090477D01*
X5343333Y22090477D01*
X5152857Y22128572D01*
X5057619Y22166667D01*
X5010000Y22204762D01*
X4962380Y22280953D01*
D10*
X2833500Y62316500D02*
X2833500Y77683500D01*
X2833500Y77683500D02*
X801500Y77683500D01*
X801500Y77683500D02*
X166500Y77048500D01*
X166500Y77048500D02*
X166500Y62316500D01*
X166500Y62316500D02*
X2833500Y62316500D01*
X2833500Y6316500D02*
X2833500Y21683500D01*
X2833500Y21683500D02*
X801500Y21683500D01*
X801500Y21683500D02*
X166500Y21048500D01*
X166500Y21048500D02*
X166500Y6316500D01*
X166500Y6316500D02*
X2833500Y6316500D01*
X28833500Y62316500D02*
X28833500Y77683500D01*
X28833500Y77683500D02*
X26801500Y77683500D01*
X26801500Y77683500D02*
X26166500Y77048500D01*
X26166500Y77048500D02*
X26166500Y62316500D01*
X26166500Y62316500D02*
X28833500Y62316500D01*
X28833500Y6316500D02*
X28833500Y21683500D01*
X28833500Y21683500D02*
X26801500Y21683500D01*
X26801500Y21683500D02*
X26166500Y21048500D01*
X26166500Y21048500D02*
X26166500Y6316500D01*
X26166500Y6316500D02*
X28833500Y6316500D01*
G36*
X13093540Y23790465D02*
X13453451Y23750162D01*
X13755252Y23630830D01*
X13929357Y23505359D01*
X14061368Y23345099D01*
X14102706Y23184168D01*
X14051255Y23037061D01*
X14005142Y22986168D01*
X13837174Y22897337D01*
X13617840Y22868688D01*
X13371789Y22892987D01*
X13123667Y22963000D01*
X12898120Y23071492D01*
X12719795Y23211231D01*
X12613339Y23374981D01*
X12606329Y23396723D01*
X12616879Y23524943D01*
X12697997Y23648909D01*
X12786308Y23734807D01*
X12884275Y23777185D01*
X13031423Y23790188D01*
X13093540Y23790465D01*
X13093540Y23790465D01*
X13093540Y23790465D01*
G37*
X13093540Y23790465D02*
X13453451Y23750162D01*
X13755252Y23630830D01*
X13929357Y23505359D01*
X14061368Y23345099D01*
X14102706Y23184168D01*
X14051255Y23037061D01*
X14005142Y22986168D01*
X13837174Y22897337D01*
X13617840Y22868688D01*
X13371789Y22892987D01*
X13123667Y22963000D01*
X12898120Y23071492D01*
X12719795Y23211231D01*
X12613339Y23374981D01*
X12606329Y23396723D01*
X12616879Y23524943D01*
X12697997Y23648909D01*
X12786308Y23734807D01*
X12884275Y23777185D01*
X13031423Y23790188D01*
X13093540Y23790465D01*
X13093540Y23790465D01*
G36*
X13730472Y22051019D02*
X13933293Y21995692D01*
X13973640Y21972686D01*
X14082257Y21850850D01*
X14103359Y21698423D01*
X14037803Y21534944D01*
X13949990Y21432817D01*
X13713220Y21270678D01*
X13432494Y21170010D01*
X13139766Y21137341D01*
X12866986Y21179203D01*
X12810663Y21199962D01*
X12658221Y21299715D01*
X12601373Y21433247D01*
X12639122Y21603384D01*
X12655995Y21638325D01*
X12784660Y21788851D01*
X12984723Y21912561D01*
X13227903Y22002277D01*
X13485914Y22050822D01*
X13730472Y22051019D01*
X13730472Y22051019D01*
X13730472Y22051019D01*
G37*
X13730472Y22051019D02*
X13933293Y21995692D01*
X13973640Y21972686D01*
X14082257Y21850850D01*
X14103359Y21698423D01*
X14037803Y21534944D01*
X13949990Y21432817D01*
X13713220Y21270678D01*
X13432494Y21170010D01*
X13139766Y21137341D01*
X12866986Y21179203D01*
X12810663Y21199962D01*
X12658221Y21299715D01*
X12601373Y21433247D01*
X12639122Y21603384D01*
X12655995Y21638325D01*
X12784660Y21788851D01*
X12984723Y21912561D01*
X13227903Y22002277D01*
X13485914Y22050822D01*
X13730472Y22051019D01*
X13730472Y22051019D01*
G36*
X14604884Y22626580D02*
X14637209Y22619583D01*
X14721235Y22543573D01*
X14723317Y22430832D01*
X14690856Y22369683D01*
X14598794Y22310758D01*
X14497314Y22334426D01*
X14423593Y22429993D01*
X14433557Y22521640D01*
X14506376Y22598163D01*
X14604884Y22626580D01*
X14604884Y22626580D01*
X14604884Y22626580D01*
G37*
X14604884Y22626580D02*
X14637209Y22619583D01*
X14721235Y22543573D01*
X14723317Y22430832D01*
X14690856Y22369683D01*
X14598794Y22310758D01*
X14497314Y22334426D01*
X14423593Y22429993D01*
X14433557Y22521640D01*
X14506376Y22598163D01*
X14604884Y22626580D01*
X14604884Y22626580D01*
G36*
X12996190Y24863510D02*
X13435029Y24853688D01*
X13545560Y24836517D01*
X13957902Y24716045D01*
X14325707Y24517571D01*
X14451520Y24409283D01*
X13320937Y24409283D01*
X12986216Y24356680D01*
X12662915Y24236473D01*
X12374717Y24053548D01*
X12257922Y23947088D01*
X12026195Y23638902D01*
X11860268Y23270437D01*
X11762253Y22860576D01*
X11734267Y22428203D01*
X11778423Y21992201D01*
X11896835Y21571455D01*
X11972418Y21397232D01*
X12178291Y21075268D01*
X12439462Y20823859D01*
X12741256Y20646026D01*
X13069000Y20544792D01*
X13408019Y20523177D01*
X13743640Y20584203D01*
X14061189Y20730891D01*
X14298839Y20918225D01*
X14611582Y21282641D01*
X14835213Y21674751D01*
X14967565Y22084802D01*
X15006473Y22503037D01*
X14949770Y22919701D01*
X14821578Y23272074D01*
X14662317Y23549490D01*
X14459568Y23820863D01*
X14236238Y24059989D01*
X14015233Y24240664D01*
X13929917Y24292129D01*
X13643398Y24389395D01*
X13320937Y24409283D01*
X14451520Y24409283D01*
X14634632Y24251679D01*
X14870335Y23928954D01*
X14927276Y23816884D01*
X14995117Y23678464D01*
X15047949Y23587645D01*
X15067789Y23566800D01*
X15103932Y23607695D01*
X15168981Y23712675D01*
X15219054Y23803331D01*
X15325714Y23989342D01*
X15444990Y24176366D01*
X15485985Y24235131D01*
X15588083Y24358577D01*
X15683174Y24415796D01*
X15811766Y24430367D01*
X15821463Y24430400D01*
X16016332Y24388611D01*
X16159317Y24275322D01*
X16230900Y24108649D01*
X16235533Y24046125D01*
X16209196Y23919268D01*
X16142466Y23753173D01*
X16084000Y23643000D01*
X16002248Y23498302D01*
X15947174Y23387676D01*
X15932466Y23344686D01*
X15978903Y23327415D01*
X16103820Y23318801D01*
X16284381Y23319917D01*
X16376100Y23323796D01*
X16658118Y23348487D01*
X16873261Y23392846D01*
X17055470Y23463961D01*
X17061522Y23466949D01*
X17278048Y23544635D01*
X17453913Y23535047D01*
X17605077Y23435270D01*
X17672927Y23355322D01*
X17736629Y23210192D01*
X15953206Y23210192D01*
X15752004Y23207976D01*
X15572080Y23194215D01*
X15444019Y23168641D01*
X15420260Y23158612D01*
X15378808Y23127650D01*
X15350906Y23075271D01*
X15333926Y22983396D01*
X15325238Y22833946D01*
X15322214Y22608843D01*
X15322000Y22482972D01*
X15327361Y22161545D01*
X15343491Y21940376D01*
X15370459Y21818689D01*
X15382960Y21798959D01*
X15458412Y21772345D01*
X15605692Y21752450D01*
X15795195Y21740188D01*
X15997314Y21736472D01*
X16182443Y21742217D01*
X16320976Y21758335D01*
X16359245Y21768835D01*
X16393188Y21796618D01*
X16416262Y21860085D01*
X16430400Y21975479D01*
X16437534Y22159047D01*
X16439595Y22427034D01*
X16439600Y22444475D01*
X16434600Y22769351D01*
X16419494Y22994961D01*
X16394123Y23123151D01*
X16378640Y23150239D01*
X16297108Y23181056D01*
X16145102Y23201130D01*
X15953206Y23210192D01*
X17736629Y23210192D01*
X17746182Y23188429D01*
X17723515Y23023164D01*
X17610452Y22866746D01*
X17412517Y22726391D01*
X17135235Y22609319D01*
X17091312Y22595475D01*
X16900859Y22529419D01*
X16781903Y22471123D01*
X16741914Y22426540D01*
X16788361Y22401625D01*
X16844094Y22398400D01*
X17010714Y22369714D01*
X17215455Y22295847D01*
X17418591Y22195087D01*
X17580396Y22085718D01*
X17631291Y22036041D01*
X17730884Y21886268D01*
X17750671Y21746542D01*
X17709245Y21601620D01*
X17604222Y21460003D01*
X17442100Y21393553D01*
X17236647Y21404633D01*
X17023800Y21484000D01*
X16888518Y21538676D01*
X16728037Y21570468D01*
X16512061Y21584108D01*
X16373209Y21585600D01*
X15921901Y21585600D01*
X16079150Y21306969D01*
X16197780Y21046294D01*
X16230212Y20835396D01*
X16176738Y20670748D01*
X16136092Y20621692D01*
X15975113Y20503981D01*
X15816633Y20479216D01*
X15656664Y20549271D01*
X15491217Y20716020D01*
X15316301Y20981337D01*
X15296600Y21016104D01*
X15200086Y21183409D01*
X15121602Y21309851D01*
X15074324Y21374526D01*
X15068000Y21378766D01*
X15034581Y21336430D01*
X14974321Y21227420D01*
X14918488Y21113617D01*
X14702463Y20767343D01*
X14416010Y20483719D01*
X14073132Y20268879D01*
X13687831Y20128957D01*
X13274110Y20070086D01*
X12845971Y20098401D01*
X12681254Y20133592D01*
X12277221Y20287723D01*
X11923565Y20525958D01*
X11629133Y20839676D01*
X11402768Y21220257D01*
X11303609Y21476151D01*
X11222912Y21819064D01*
X11176407Y22212000D01*
X11165906Y22614926D01*
X11193222Y22987807D01*
X11226768Y23173100D01*
X11378815Y23634363D01*
X11598684Y24031476D01*
X11878364Y24358692D01*
X12209848Y24610267D01*
X12585126Y24780454D01*
X12996190Y24863510D01*
X12996190Y24863510D01*
X12996190Y24863510D01*
G37*
X12996190Y24863510D02*
X13435029Y24853688D01*
X13545560Y24836517D01*
X13957902Y24716045D01*
X14325707Y24517571D01*
X14451520Y24409283D01*
X13320937Y24409283D01*
X12986216Y24356680D01*
X12662915Y24236473D01*
X12374717Y24053548D01*
X12257922Y23947088D01*
X12026195Y23638902D01*
X11860268Y23270437D01*
X11762253Y22860576D01*
X11734267Y22428203D01*
X11778423Y21992201D01*
X11896835Y21571455D01*
X11972418Y21397232D01*
X12178291Y21075268D01*
X12439462Y20823859D01*
X12741256Y20646026D01*
X13069000Y20544792D01*
X13408019Y20523177D01*
X13743640Y20584203D01*
X14061189Y20730891D01*
X14298839Y20918225D01*
X14611582Y21282641D01*
X14835213Y21674751D01*
X14967565Y22084802D01*
X15006473Y22503037D01*
X14949770Y22919701D01*
X14821578Y23272074D01*
X14662317Y23549490D01*
X14459568Y23820863D01*
X14236238Y24059989D01*
X14015233Y24240664D01*
X13929917Y24292129D01*
X13643398Y24389395D01*
X13320937Y24409283D01*
X14451520Y24409283D01*
X14634632Y24251679D01*
X14870335Y23928954D01*
X14927276Y23816884D01*
X14995117Y23678464D01*
X15047949Y23587645D01*
X15067789Y23566800D01*
X15103932Y23607695D01*
X15168981Y23712675D01*
X15219054Y23803331D01*
X15325714Y23989342D01*
X15444990Y24176366D01*
X15485985Y24235131D01*
X15588083Y24358577D01*
X15683174Y24415796D01*
X15811766Y24430367D01*
X15821463Y24430400D01*
X16016332Y24388611D01*
X16159317Y24275322D01*
X16230900Y24108649D01*
X16235533Y24046125D01*
X16209196Y23919268D01*
X16142466Y23753173D01*
X16084000Y23643000D01*
X16002248Y23498302D01*
X15947174Y23387676D01*
X15932466Y23344686D01*
X15978903Y23327415D01*
X16103820Y23318801D01*
X16284381Y23319917D01*
X16376100Y23323796D01*
X16658118Y23348487D01*
X16873261Y23392846D01*
X17055470Y23463961D01*
X17061522Y23466949D01*
X17278048Y23544635D01*
X17453913Y23535047D01*
X17605077Y23435270D01*
X17672927Y23355322D01*
X17736629Y23210192D01*
X15953206Y23210192D01*
X15752004Y23207976D01*
X15572080Y23194215D01*
X15444019Y23168641D01*
X15420260Y23158612D01*
X15378808Y23127650D01*
X15350906Y23075271D01*
X15333926Y22983396D01*
X15325238Y22833946D01*
X15322214Y22608843D01*
X15322000Y22482972D01*
X15327361Y22161545D01*
X15343491Y21940376D01*
X15370459Y21818689D01*
X15382960Y21798959D01*
X15458412Y21772345D01*
X15605692Y21752450D01*
X15795195Y21740188D01*
X15997314Y21736472D01*
X16182443Y21742217D01*
X16320976Y21758335D01*
X16359245Y21768835D01*
X16393188Y21796618D01*
X16416262Y21860085D01*
X16430400Y21975479D01*
X16437534Y22159047D01*
X16439595Y22427034D01*
X16439600Y22444475D01*
X16434600Y22769351D01*
X16419494Y22994961D01*
X16394123Y23123151D01*
X16378640Y23150239D01*
X16297108Y23181056D01*
X16145102Y23201130D01*
X15953206Y23210192D01*
X17736629Y23210192D01*
X17746182Y23188429D01*
X17723515Y23023164D01*
X17610452Y22866746D01*
X17412517Y22726391D01*
X17135235Y22609319D01*
X17091312Y22595475D01*
X16900859Y22529419D01*
X16781903Y22471123D01*
X16741914Y22426540D01*
X16788361Y22401625D01*
X16844094Y22398400D01*
X17010714Y22369714D01*
X17215455Y22295847D01*
X17418591Y22195087D01*
X17580396Y22085718D01*
X17631291Y22036041D01*
X17730884Y21886268D01*
X17750671Y21746542D01*
X17709245Y21601620D01*
X17604222Y21460003D01*
X17442100Y21393553D01*
X17236647Y21404633D01*
X17023800Y21484000D01*
X16888518Y21538676D01*
X16728037Y21570468D01*
X16512061Y21584108D01*
X16373209Y21585600D01*
X15921901Y21585600D01*
X16079150Y21306969D01*
X16197780Y21046294D01*
X16230212Y20835396D01*
X16176738Y20670748D01*
X16136092Y20621692D01*
X15975113Y20503981D01*
X15816633Y20479216D01*
X15656664Y20549271D01*
X15491217Y20716020D01*
X15316301Y20981337D01*
X15296600Y21016104D01*
X15200086Y21183409D01*
X15121602Y21309851D01*
X15074324Y21374526D01*
X15068000Y21378766D01*
X15034581Y21336430D01*
X14974321Y21227420D01*
X14918488Y21113617D01*
X14702463Y20767343D01*
X14416010Y20483719D01*
X14073132Y20268879D01*
X13687831Y20128957D01*
X13274110Y20070086D01*
X12845971Y20098401D01*
X12681254Y20133592D01*
X12277221Y20287723D01*
X11923565Y20525958D01*
X11629133Y20839676D01*
X11402768Y21220257D01*
X11303609Y21476151D01*
X11222912Y21819064D01*
X11176407Y22212000D01*
X11165906Y22614926D01*
X11193222Y22987807D01*
X11226768Y23173100D01*
X11378815Y23634363D01*
X11598684Y24031476D01*
X11878364Y24358692D01*
X12209848Y24610267D01*
X12585126Y24780454D01*
X12996190Y24863510D01*
X12996190Y24863510D01*
G36*
X18271738Y22597689D02*
X18364975Y22558054D01*
X18389964Y22521245D01*
X18416526Y22442918D01*
X18399422Y22398167D01*
X18359840Y22357760D01*
X18256289Y22307177D01*
X18156099Y22330902D01*
X18091890Y22409071D01*
X18095158Y22518961D01*
X18165191Y22584529D01*
X18271738Y22597689D01*
X18271738Y22597689D01*
X18271738Y22597689D01*
G37*
X18271738Y22597689D02*
X18364975Y22558054D01*
X18389964Y22521245D01*
X18416526Y22442918D01*
X18399422Y22398167D01*
X18359840Y22357760D01*
X18256289Y22307177D01*
X18156099Y22330902D01*
X18091890Y22409071D01*
X18095158Y22518961D01*
X18165191Y22584529D01*
X18271738Y22597689D01*
X18271738Y22597689D01*
G36*
X19329798Y25809824D02*
X19564927Y25808400D01*
X19785671Y25798220D01*
X19968910Y25779318D01*
X20091526Y25751729D01*
X20129877Y25725153D01*
X20125334Y25625353D01*
X20095414Y25571248D01*
X20073210Y25520663D01*
X19373060Y25520663D01*
X19202666Y25463512D01*
X19067906Y25333390D01*
X19045335Y25294000D01*
X18982143Y25086282D01*
X18986815Y24874679D01*
X19049929Y24681836D01*
X19162065Y24530397D01*
X19313802Y24443011D01*
X19404612Y24430400D01*
X19612968Y24473323D01*
X19768565Y24591147D01*
X19863172Y24767446D01*
X19888558Y24985800D01*
X19836493Y25229784D01*
X19822716Y25264669D01*
X19710619Y25420202D01*
X19551556Y25505879D01*
X19373060Y25520663D01*
X20073210Y25520663D01*
X20057299Y25484411D01*
X20088385Y25369273D01*
X20089731Y25366305D01*
X20127803Y25215398D01*
X20142727Y25010408D01*
X20134434Y24796194D01*
X20102856Y24617618D01*
X20090928Y24582826D01*
X19952202Y24365649D01*
X19743911Y24215650D01*
X19626357Y24172726D01*
X19368271Y24143988D01*
X19136154Y24209434D01*
X18954222Y24335595D01*
X18809635Y24524491D01*
X18722358Y24768692D01*
X18697369Y25036415D01*
X18739648Y25295877D01*
X18785984Y25409499D01*
X18797043Y25516171D01*
X18755587Y25576069D01*
X18705463Y25669503D01*
X18707793Y25727270D01*
X18769280Y25761215D01*
X18908856Y25786266D01*
X19103401Y25802457D01*
X19329798Y25809824D01*
X19329798Y25809824D01*
X19329798Y25809824D01*
G37*
X19329798Y25809824D02*
X19564927Y25808400D01*
X19785671Y25798220D01*
X19968910Y25779318D01*
X20091526Y25751729D01*
X20129877Y25725153D01*
X20125334Y25625353D01*
X20095414Y25571248D01*
X20073210Y25520663D01*
X19373060Y25520663D01*
X19202666Y25463512D01*
X19067906Y25333390D01*
X19045335Y25294000D01*
X18982143Y25086282D01*
X18986815Y24874679D01*
X19049929Y24681836D01*
X19162065Y24530397D01*
X19313802Y24443011D01*
X19404612Y24430400D01*
X19612968Y24473323D01*
X19768565Y24591147D01*
X19863172Y24767446D01*
X19888558Y24985800D01*
X19836493Y25229784D01*
X19822716Y25264669D01*
X19710619Y25420202D01*
X19551556Y25505879D01*
X19373060Y25520663D01*
X20073210Y25520663D01*
X20057299Y25484411D01*
X20088385Y25369273D01*
X20089731Y25366305D01*
X20127803Y25215398D01*
X20142727Y25010408D01*
X20134434Y24796194D01*
X20102856Y24617618D01*
X20090928Y24582826D01*
X19952202Y24365649D01*
X19743911Y24215650D01*
X19626357Y24172726D01*
X19368271Y24143988D01*
X19136154Y24209434D01*
X18954222Y24335595D01*
X18809635Y24524491D01*
X18722358Y24768692D01*
X18697369Y25036415D01*
X18739648Y25295877D01*
X18785984Y25409499D01*
X18797043Y25516171D01*
X18755587Y25576069D01*
X18705463Y25669503D01*
X18707793Y25727270D01*
X18769280Y25761215D01*
X18908856Y25786266D01*
X19103401Y25802457D01*
X19329798Y25809824D01*
X19329798Y25809824D01*
G36*
X19899590Y24125600D02*
X19994685Y24079466D01*
X20069834Y23957067D01*
X20121488Y23782405D01*
X20146103Y23579482D01*
X20140130Y23372301D01*
X20100022Y23184863D01*
X20053483Y23084200D01*
X19907531Y22890076D01*
X19746509Y22776431D01*
X19539130Y22723445D01*
X19474112Y22717186D01*
X19198935Y22738243D01*
X18979156Y22842107D01*
X18820240Y23023104D01*
X18727651Y23275558D01*
X18704992Y23516000D01*
X18725956Y23755666D01*
X18784199Y23949473D01*
X18871609Y24077301D01*
X18947282Y24117042D01*
X19061882Y24109895D01*
X19104103Y24035841D01*
X19070673Y23902453D01*
X19054468Y23869024D01*
X19000001Y23689142D01*
X18990431Y23477629D01*
X19023061Y23275273D01*
X19095201Y23122861D01*
X19104459Y23111964D01*
X19264211Y22999813D01*
X19443315Y22972830D01*
X19617686Y23024333D01*
X19763238Y23147644D01*
X19851067Y23319025D01*
X19884410Y23465953D01*
X19878814Y23595413D01*
X19831341Y23759425D01*
X19825196Y23776863D01*
X19771766Y23958905D01*
X19772364Y24067632D01*
X19830105Y24117650D01*
X19899590Y24125600D01*
X19899590Y24125600D01*
X19899590Y24125600D01*
G37*
X19899590Y24125600D02*
X19994685Y24079466D01*
X20069834Y23957067D01*
X20121488Y23782405D01*
X20146103Y23579482D01*
X20140130Y23372301D01*
X20100022Y23184863D01*
X20053483Y23084200D01*
X19907531Y22890076D01*
X19746509Y22776431D01*
X19539130Y22723445D01*
X19474112Y22717186D01*
X19198935Y22738243D01*
X18979156Y22842107D01*
X18820240Y23023104D01*
X18727651Y23275558D01*
X18704992Y23516000D01*
X18725956Y23755666D01*
X18784199Y23949473D01*
X18871609Y24077301D01*
X18947282Y24117042D01*
X19061882Y24109895D01*
X19104103Y24035841D01*
X19070673Y23902453D01*
X19054468Y23869024D01*
X19000001Y23689142D01*
X18990431Y23477629D01*
X19023061Y23275273D01*
X19095201Y23122861D01*
X19104459Y23111964D01*
X19264211Y22999813D01*
X19443315Y22972830D01*
X19617686Y23024333D01*
X19763238Y23147644D01*
X19851067Y23319025D01*
X19884410Y23465953D01*
X19878814Y23595413D01*
X19831341Y23759425D01*
X19825196Y23776863D01*
X19771766Y23958905D01*
X19772364Y24067632D01*
X19830105Y24117650D01*
X19899590Y24125600D01*
X19899590Y24125600D01*
G36*
X19010083Y22594819D02*
X19230775Y22593850D01*
X19430070Y22590294D01*
X19707364Y22583855D01*
X19899274Y22575924D01*
X20022008Y22563714D01*
X20091772Y22544435D01*
X20124775Y22515301D01*
X20137224Y22473522D01*
X20137965Y22468521D01*
X20117462Y22372529D01*
X20036365Y22329515D01*
X19937745Y22316328D01*
X19764997Y22305735D01*
X19545582Y22299081D01*
X19383009Y22297493D01*
X19081318Y22304382D01*
X18871600Y22327813D01*
X18745166Y22370573D01*
X18693323Y22435450D01*
X18703405Y22515434D01*
X18726491Y22551151D01*
X18774356Y22575160D01*
X18863416Y22589152D01*
X19010083Y22594819D01*
X19010083Y22594819D01*
X19010083Y22594819D01*
G37*
X19010083Y22594819D02*
X19230775Y22593850D01*
X19430070Y22590294D01*
X19707364Y22583855D01*
X19899274Y22575924D01*
X20022008Y22563714D01*
X20091772Y22544435D01*
X20124775Y22515301D01*
X20137224Y22473522D01*
X20137965Y22468521D01*
X20117462Y22372529D01*
X20036365Y22329515D01*
X19937745Y22316328D01*
X19764997Y22305735D01*
X19545582Y22299081D01*
X19383009Y22297493D01*
X19081318Y22304382D01*
X18871600Y22327813D01*
X18745166Y22370573D01*
X18693323Y22435450D01*
X18703405Y22515434D01*
X18726491Y22551151D01*
X18774356Y22575160D01*
X18863416Y22589152D01*
X19010083Y22594819D01*
X19010083Y22594819D01*
G36*
X18965910Y22235365D02*
X19025459Y22219009D01*
X19061951Y22185419D01*
X19110667Y22121421D01*
X19106875Y22050725D01*
X19060370Y21950038D01*
X18998399Y21758211D01*
X18988435Y21548950D01*
X19025307Y21351213D01*
X19103846Y21193962D01*
X19210475Y21109156D01*
X19303410Y21092165D01*
X19460102Y21080434D01*
X19606054Y21076906D01*
X19793747Y21071634D01*
X19954784Y21058718D01*
X20033700Y21045581D01*
X20122663Y20981934D01*
X20149472Y20882829D01*
X20114133Y20806666D01*
X20053367Y20794103D01*
X19910984Y20783649D01*
X19706960Y20776263D01*
X19461272Y20772904D01*
X19408368Y20772800D01*
X19131910Y20774232D01*
X18940512Y20779896D01*
X18817658Y20791842D01*
X18746833Y20812119D01*
X18711519Y20842777D01*
X18702870Y20860359D01*
X18710967Y20963427D01*
X18752250Y21008596D01*
X18807266Y21085919D01*
X18786314Y21162336D01*
X18715734Y21374542D01*
X18696946Y21617805D01*
X18726655Y21859003D01*
X18801566Y22065016D01*
X18887377Y22178286D01*
X18965910Y22235365D01*
X18965910Y22235365D01*
X18965910Y22235365D01*
G37*
X18965910Y22235365D02*
X19025459Y22219009D01*
X19061951Y22185419D01*
X19110667Y22121421D01*
X19106875Y22050725D01*
X19060370Y21950038D01*
X18998399Y21758211D01*
X18988435Y21548950D01*
X19025307Y21351213D01*
X19103846Y21193962D01*
X19210475Y21109156D01*
X19303410Y21092165D01*
X19460102Y21080434D01*
X19606054Y21076906D01*
X19793747Y21071634D01*
X19954784Y21058718D01*
X20033700Y21045581D01*
X20122663Y20981934D01*
X20149472Y20882829D01*
X20114133Y20806666D01*
X20053367Y20794103D01*
X19910984Y20783649D01*
X19706960Y20776263D01*
X19461272Y20772904D01*
X19408368Y20772800D01*
X19131910Y20774232D01*
X18940512Y20779896D01*
X18817658Y20791842D01*
X18746833Y20812119D01*
X18711519Y20842777D01*
X18702870Y20860359D01*
X18710967Y20963427D01*
X18752250Y21008596D01*
X18807266Y21085919D01*
X18786314Y21162336D01*
X18715734Y21374542D01*
X18696946Y21617805D01*
X18726655Y21859003D01*
X18801566Y22065016D01*
X18887377Y22178286D01*
X18965910Y22235365D01*
X18965910Y22235365D01*
G36*
X19079879Y20649639D02*
X19229233Y20646759D01*
X19377205Y20585647D01*
X19479110Y20469472D01*
X19520031Y20348277D01*
X19207553Y20348277D01*
X19106995Y20345498D01*
X19031983Y20266786D01*
X18986545Y20135504D01*
X18974708Y19975014D01*
X19000499Y19808678D01*
X19067944Y19659860D01*
X19084887Y19636650D01*
X19169578Y19545229D01*
X19233793Y19503116D01*
X19237287Y19502800D01*
X19259126Y19549585D01*
X19275589Y19673950D01*
X19283907Y19851908D01*
X19284400Y19910794D01*
X19279926Y20126896D01*
X19264328Y20260289D01*
X19234341Y20329558D01*
X19207553Y20348277D01*
X19520031Y20348277D01*
X19541442Y20284865D01*
X19570697Y20018459D01*
X19573589Y19938117D01*
X19586917Y19702375D01*
X19614138Y19563350D01*
X19657752Y19516799D01*
X19720258Y19558479D01*
X19763023Y19616601D01*
X19865379Y19858734D01*
X19868067Y20120422D01*
X19820597Y20289944D01*
X19767494Y20465957D01*
X19774969Y20570558D01*
X19845949Y20615993D01*
X19899590Y20620400D01*
X19994274Y20574135D01*
X20068976Y20450802D01*
X20120164Y20273592D01*
X20144304Y20065696D01*
X20137866Y19850304D01*
X20097316Y19650609D01*
X20061136Y19559771D01*
X19918565Y19373619D01*
X19722519Y19253882D01*
X19496431Y19200818D01*
X19263733Y19214682D01*
X19047859Y19295732D01*
X18872241Y19444224D01*
X18805719Y19546020D01*
X18719325Y19783573D01*
X18694628Y20022709D01*
X18724980Y20246156D01*
X18803736Y20436641D01*
X18924251Y20576893D01*
X19079879Y20649639D01*
X19079879Y20649639D01*
X19079879Y20649639D01*
G37*
X19079879Y20649639D02*
X19229233Y20646759D01*
X19377205Y20585647D01*
X19479110Y20469472D01*
X19520031Y20348277D01*
X19207553Y20348277D01*
X19106995Y20345498D01*
X19031983Y20266786D01*
X18986545Y20135504D01*
X18974708Y19975014D01*
X19000499Y19808678D01*
X19067944Y19659860D01*
X19084887Y19636650D01*
X19169578Y19545229D01*
X19233793Y19503116D01*
X19237287Y19502800D01*
X19259126Y19549585D01*
X19275589Y19673950D01*
X19283907Y19851908D01*
X19284400Y19910794D01*
X19279926Y20126896D01*
X19264328Y20260289D01*
X19234341Y20329558D01*
X19207553Y20348277D01*
X19520031Y20348277D01*
X19541442Y20284865D01*
X19570697Y20018459D01*
X19573589Y19938117D01*
X19586917Y19702375D01*
X19614138Y19563350D01*
X19657752Y19516799D01*
X19720258Y19558479D01*
X19763023Y19616601D01*
X19865379Y19858734D01*
X19868067Y20120422D01*
X19820597Y20289944D01*
X19767494Y20465957D01*
X19774969Y20570558D01*
X19845949Y20615993D01*
X19899590Y20620400D01*
X19994274Y20574135D01*
X20068976Y20450802D01*
X20120164Y20273592D01*
X20144304Y20065696D01*
X20137866Y19850304D01*
X20097316Y19650609D01*
X20061136Y19559771D01*
X19918565Y19373619D01*
X19722519Y19253882D01*
X19496431Y19200818D01*
X19263733Y19214682D01*
X19047859Y19295732D01*
X18872241Y19444224D01*
X18805719Y19546020D01*
X18719325Y19783573D01*
X18694628Y20022709D01*
X18724980Y20246156D01*
X18803736Y20436641D01*
X18924251Y20576893D01*
X19079879Y20649639D01*
X19079879Y20649639D01*
G36*
X22136541Y25323494D02*
X22313706Y25293866D01*
X22409902Y25229060D01*
X22434000Y25145737D01*
X22407634Y25073334D01*
X22319985Y25025680D01*
X22158221Y24999115D01*
X21909513Y24989976D01*
X21887900Y24989893D01*
X21644706Y24969736D01*
X21484728Y24904469D01*
X21396185Y24785008D01*
X21367294Y24602270D01*
X21367200Y24588427D01*
X21385520Y24405575D01*
X21450123Y24278431D01*
X21575470Y24196181D01*
X21776024Y24148012D01*
X21983206Y24127829D01*
X22192430Y24111880D01*
X22320820Y24093118D01*
X22389080Y24065179D01*
X22417914Y24021699D01*
X22423985Y23992365D01*
X22402063Y23888932D01*
X22356331Y23852665D01*
X22279130Y23841863D01*
X22119558Y23832628D01*
X21896840Y23825637D01*
X21630202Y23821563D01*
X21448954Y23820800D01*
X21089120Y23824253D01*
X20820644Y23836125D01*
X20633471Y23858685D01*
X20517547Y23894202D01*
X20462815Y23944944D01*
X20459221Y24013181D01*
X20468351Y24042053D01*
X20508847Y24089090D01*
X20599446Y24115100D01*
X20761960Y24125017D01*
X20837640Y24125600D01*
X21016479Y24128264D01*
X21112925Y24140075D01*
X21146126Y24166756D01*
X21135233Y24214032D01*
X21135024Y24214500D01*
X21084089Y24413995D01*
X21079029Y24646909D01*
X21118832Y24861598D01*
X21149142Y24934788D01*
X21264184Y25108734D01*
X21407421Y25222561D01*
X21602579Y25288956D01*
X21870388Y25320430D01*
X22136541Y25323494D01*
X22136541Y25323494D01*
X22136541Y25323494D01*
G37*
X22136541Y25323494D02*
X22313706Y25293866D01*
X22409902Y25229060D01*
X22434000Y25145737D01*
X22407634Y25073334D01*
X22319985Y25025680D01*
X22158221Y24999115D01*
X21909513Y24989976D01*
X21887900Y24989893D01*
X21644706Y24969736D01*
X21484728Y24904469D01*
X21396185Y24785008D01*
X21367294Y24602270D01*
X21367200Y24588427D01*
X21385520Y24405575D01*
X21450123Y24278431D01*
X21575470Y24196181D01*
X21776024Y24148012D01*
X21983206Y24127829D01*
X22192430Y24111880D01*
X22320820Y24093118D01*
X22389080Y24065179D01*
X22417914Y24021699D01*
X22423985Y23992365D01*
X22402063Y23888932D01*
X22356331Y23852665D01*
X22279130Y23841863D01*
X22119558Y23832628D01*
X21896840Y23825637D01*
X21630202Y23821563D01*
X21448954Y23820800D01*
X21089120Y23824253D01*
X20820644Y23836125D01*
X20633471Y23858685D01*
X20517547Y23894202D01*
X20462815Y23944944D01*
X20459221Y24013181D01*
X20468351Y24042053D01*
X20508847Y24089090D01*
X20599446Y24115100D01*
X20761960Y24125017D01*
X20837640Y24125600D01*
X21016479Y24128264D01*
X21112925Y24140075D01*
X21146126Y24166756D01*
X21135233Y24214032D01*
X21135024Y24214500D01*
X21084089Y24413995D01*
X21079029Y24646909D01*
X21118832Y24861598D01*
X21149142Y24934788D01*
X21264184Y25108734D01*
X21407421Y25222561D01*
X21602579Y25288956D01*
X21870388Y25320430D01*
X22136541Y25323494D01*
X22136541Y25323494D01*
G36*
X22256439Y23744012D02*
X22351361Y23740041D01*
X22412703Y23668047D01*
X22434652Y23537902D01*
X22418147Y23384705D01*
X22364126Y23243556D01*
X22337040Y23204127D01*
X22275209Y23143025D01*
X22192986Y23103675D01*
X22064956Y23078986D01*
X21865704Y23061864D01*
X21816340Y23058800D01*
X21605878Y23043135D01*
X21479132Y23023981D01*
X21418221Y22996655D01*
X21405269Y22956471D01*
X21405970Y22951276D01*
X21380166Y22847784D01*
X21293517Y22782418D01*
X21198809Y22782818D01*
X21127788Y22853235D01*
X21103470Y22923395D01*
X21081487Y22986496D01*
X21021804Y23024418D01*
X20900001Y23047491D01*
X20783446Y23058800D01*
X20606669Y23079630D01*
X20508560Y23110504D01*
X20466198Y23160014D01*
X20460948Y23179712D01*
X20471928Y23273854D01*
X20555177Y23331995D01*
X20721282Y23359210D01*
X20842966Y23362822D01*
X20999296Y23368284D01*
X21081085Y23390855D01*
X21115210Y23441604D01*
X21122366Y23477900D01*
X21170127Y23575273D01*
X21253126Y23613501D01*
X21334441Y23588447D01*
X21375971Y23506318D01*
X21392118Y23444810D01*
X21434127Y23409636D01*
X21525135Y23393501D01*
X21688280Y23389116D01*
X21748200Y23389000D01*
X21934230Y23390860D01*
X22041831Y23402098D01*
X22094169Y23431198D01*
X22114411Y23486643D01*
X22119515Y23524982D01*
X22166842Y23669441D01*
X22256439Y23744012D01*
X22256439Y23744012D01*
X22256439Y23744012D01*
G37*
X22256439Y23744012D02*
X22351361Y23740041D01*
X22412703Y23668047D01*
X22434652Y23537902D01*
X22418147Y23384705D01*
X22364126Y23243556D01*
X22337040Y23204127D01*
X22275209Y23143025D01*
X22192986Y23103675D01*
X22064956Y23078986D01*
X21865704Y23061864D01*
X21816340Y23058800D01*
X21605878Y23043135D01*
X21479132Y23023981D01*
X21418221Y22996655D01*
X21405269Y22956471D01*
X21405970Y22951276D01*
X21380166Y22847784D01*
X21293517Y22782418D01*
X21198809Y22782818D01*
X21127788Y22853235D01*
X21103470Y22923395D01*
X21081487Y22986496D01*
X21021804Y23024418D01*
X20900001Y23047491D01*
X20783446Y23058800D01*
X20606669Y23079630D01*
X20508560Y23110504D01*
X20466198Y23160014D01*
X20460948Y23179712D01*
X20471928Y23273854D01*
X20555177Y23331995D01*
X20721282Y23359210D01*
X20842966Y23362822D01*
X20999296Y23368284D01*
X21081085Y23390855D01*
X21115210Y23441604D01*
X21122366Y23477900D01*
X21170127Y23575273D01*
X21253126Y23613501D01*
X21334441Y23588447D01*
X21375971Y23506318D01*
X21392118Y23444810D01*
X21434127Y23409636D01*
X21525135Y23393501D01*
X21688280Y23389116D01*
X21748200Y23389000D01*
X21934230Y23390860D01*
X22041831Y23402098D01*
X22094169Y23431198D01*
X22114411Y23486643D01*
X22119515Y23524982D01*
X22166842Y23669441D01*
X22256439Y23744012D01*
X22256439Y23744012D01*
G36*
X22117171Y22803259D02*
X22299159Y22784798D01*
X22399402Y22734348D01*
X22425898Y22649781D01*
X22424597Y22637904D01*
X22408414Y22582243D01*
X22365227Y22546265D01*
X22274199Y22523356D01*
X22114489Y22506899D01*
X21983206Y22497770D01*
X21716411Y22467616D01*
X21535758Y22411093D01*
X21427053Y22317808D01*
X21376103Y22177370D01*
X21367200Y22046751D01*
X21392550Y21860048D01*
X21476331Y21735240D01*
X21630141Y21663777D01*
X21865574Y21637110D01*
X21923824Y21636400D01*
X22159291Y21631260D01*
X22310669Y21611728D01*
X22395136Y21571633D01*
X22429869Y21504807D01*
X22434000Y21453164D01*
X22434000Y21331600D01*
X21772005Y21331600D01*
X21492879Y21333540D01*
X21299723Y21340514D01*
X21176963Y21354254D01*
X21109024Y21376490D01*
X21080522Y21408446D01*
X21084457Y21509539D01*
X21111041Y21557599D01*
X21144522Y21651712D01*
X21116725Y21731413D01*
X21069538Y21901416D01*
X21068740Y22113651D01*
X21111342Y22321551D01*
X21161764Y22433739D01*
X21298876Y22605592D01*
X21473936Y22715796D01*
X21710931Y22776915D01*
X21845441Y22791854D01*
X22117171Y22803259D01*
X22117171Y22803259D01*
X22117171Y22803259D01*
G37*
X22117171Y22803259D02*
X22299159Y22784798D01*
X22399402Y22734348D01*
X22425898Y22649781D01*
X22424597Y22637904D01*
X22408414Y22582243D01*
X22365227Y22546265D01*
X22274199Y22523356D01*
X22114489Y22506899D01*
X21983206Y22497770D01*
X21716411Y22467616D01*
X21535758Y22411093D01*
X21427053Y22317808D01*
X21376103Y22177370D01*
X21367200Y22046751D01*
X21392550Y21860048D01*
X21476331Y21735240D01*
X21630141Y21663777D01*
X21865574Y21637110D01*
X21923824Y21636400D01*
X22159291Y21631260D01*
X22310669Y21611728D01*
X22395136Y21571633D01*
X22429869Y21504807D01*
X22434000Y21453164D01*
X22434000Y21331600D01*
X21772005Y21331600D01*
X21492879Y21333540D01*
X21299723Y21340514D01*
X21176963Y21354254D01*
X21109024Y21376490D01*
X21080522Y21408446D01*
X21084457Y21509539D01*
X21111041Y21557599D01*
X21144522Y21651712D01*
X21116725Y21731413D01*
X21069538Y21901416D01*
X21068740Y22113651D01*
X21111342Y22321551D01*
X21161764Y22433739D01*
X21298876Y22605592D01*
X21473936Y22715796D01*
X21710931Y22776915D01*
X21845441Y22791854D01*
X22117171Y22803259D01*
X22117171Y22803259D01*
G36*
X21978314Y26867860D02*
X22155659Y26826760D01*
X22305265Y26705572D01*
X22408218Y26510785D01*
X22458917Y26261737D01*
X22451763Y25977766D01*
X22433361Y25867864D01*
X22370149Y25637520D01*
X22292539Y25500136D01*
X22195532Y25447508D01*
X22176618Y25446400D01*
X22082778Y25473176D01*
X22047398Y25560249D01*
X22068637Y25717734D01*
X22104808Y25841160D01*
X22146518Y26029845D01*
X22156021Y26219463D01*
X22136205Y26384456D01*
X22089958Y26499265D01*
X22025993Y26538600D01*
X21985439Y26513828D01*
X21956519Y26428893D01*
X21935301Y26267869D01*
X21924616Y26127854D01*
X21889076Y25828933D01*
X21824137Y25617646D01*
X21724558Y25482944D01*
X21585977Y25413995D01*
X21409374Y25417354D01*
X21253307Y25507179D01*
X21141700Y25668393D01*
X21128767Y25702114D01*
X21079900Y25910787D01*
X21066515Y26129660D01*
X21083731Y26342506D01*
X21126665Y26533098D01*
X21190437Y26685210D01*
X21270163Y26782614D01*
X21360963Y26809084D01*
X21447017Y26759954D01*
X21497696Y26695020D01*
X21495628Y26625634D01*
X21447970Y26522038D01*
X21392582Y26353032D01*
X21370116Y26150025D01*
X21380866Y25952779D01*
X21425125Y25801057D01*
X21442434Y25773609D01*
X21515944Y25714830D01*
X21570475Y25754524D01*
X21605377Y25891234D01*
X21619999Y26123500D01*
X21620422Y26172822D01*
X21645642Y26465348D01*
X21716760Y26682439D01*
X21829182Y26818480D01*
X21978314Y26867860D01*
X21978314Y26867860D01*
X21978314Y26867860D01*
G37*
X21978314Y26867860D02*
X22155659Y26826760D01*
X22305265Y26705572D01*
X22408218Y26510785D01*
X22458917Y26261737D01*
X22451763Y25977766D01*
X22433361Y25867864D01*
X22370149Y25637520D01*
X22292539Y25500136D01*
X22195532Y25447508D01*
X22176618Y25446400D01*
X22082778Y25473176D01*
X22047398Y25560249D01*
X22068637Y25717734D01*
X22104808Y25841160D01*
X22146518Y26029845D01*
X22156021Y26219463D01*
X22136205Y26384456D01*
X22089958Y26499265D01*
X22025993Y26538600D01*
X21985439Y26513828D01*
X21956519Y26428893D01*
X21935301Y26267869D01*
X21924616Y26127854D01*
X21889076Y25828933D01*
X21824137Y25617646D01*
X21724558Y25482944D01*
X21585977Y25413995D01*
X21409374Y25417354D01*
X21253307Y25507179D01*
X21141700Y25668393D01*
X21128767Y25702114D01*
X21079900Y25910787D01*
X21066515Y26129660D01*
X21083731Y26342506D01*
X21126665Y26533098D01*
X21190437Y26685210D01*
X21270163Y26782614D01*
X21360963Y26809084D01*
X21447017Y26759954D01*
X21497696Y26695020D01*
X21495628Y26625634D01*
X21447970Y26522038D01*
X21392582Y26353032D01*
X21370116Y26150025D01*
X21380866Y25952779D01*
X21425125Y25801057D01*
X21442434Y25773609D01*
X21515944Y25714830D01*
X21570475Y25754524D01*
X21605377Y25891234D01*
X21619999Y26123500D01*
X21620422Y26172822D01*
X21645642Y26465348D01*
X21716760Y26682439D01*
X21829182Y26818480D01*
X21978314Y26867860D01*
X21978314Y26867860D01*
G36*
X21978314Y19603460D02*
X22155659Y19562360D01*
X22304916Y19441543D01*
X22407860Y19248250D01*
X22459485Y19002828D01*
X22454789Y18725625D01*
X22413096Y18515519D01*
X22337354Y18314120D01*
X22248694Y18194862D01*
X22154494Y18164715D01*
X22084401Y18205026D01*
X22036752Y18287277D01*
X22061946Y18394666D01*
X22065285Y18402103D01*
X22124403Y18581940D01*
X22154545Y18780399D01*
X22156867Y18973081D01*
X22132526Y19135589D01*
X22082679Y19243525D01*
X22023945Y19274200D01*
X21984268Y19247329D01*
X21955503Y19156795D01*
X21934097Y18987715D01*
X21924210Y18856429D01*
X21884952Y18547443D01*
X21811471Y18329111D01*
X21700636Y18195357D01*
X21555188Y18140768D01*
X21367368Y18162398D01*
X21220137Y18271398D01*
X21118976Y18459796D01*
X21069365Y18719620D01*
X21065267Y18853468D01*
X21085001Y19092294D01*
X21133517Y19294058D01*
X21202888Y19445458D01*
X21285192Y19533188D01*
X21372503Y19543946D01*
X21442144Y19486177D01*
X21482827Y19406197D01*
X21473448Y19312814D01*
X21439168Y19221108D01*
X21388692Y19043173D01*
X21368253Y18845643D01*
X21377484Y18661803D01*
X21416020Y18524937D01*
X21447271Y18483586D01*
X21524100Y18450175D01*
X21577202Y18501554D01*
X21608585Y18642651D01*
X21620259Y18878392D01*
X21620422Y18908422D01*
X21645642Y19200948D01*
X21716760Y19418039D01*
X21829182Y19554080D01*
X21978314Y19603460D01*
X21978314Y19603460D01*
X21978314Y19603460D01*
G37*
X21978314Y19603460D02*
X22155659Y19562360D01*
X22304916Y19441543D01*
X22407860Y19248250D01*
X22459485Y19002828D01*
X22454789Y18725625D01*
X22413096Y18515519D01*
X22337354Y18314120D01*
X22248694Y18194862D01*
X22154494Y18164715D01*
X22084401Y18205026D01*
X22036752Y18287277D01*
X22061946Y18394666D01*
X22065285Y18402103D01*
X22124403Y18581940D01*
X22154545Y18780399D01*
X22156867Y18973081D01*
X22132526Y19135589D01*
X22082679Y19243525D01*
X22023945Y19274200D01*
X21984268Y19247329D01*
X21955503Y19156795D01*
X21934097Y18987715D01*
X21924210Y18856429D01*
X21884952Y18547443D01*
X21811471Y18329111D01*
X21700636Y18195357D01*
X21555188Y18140768D01*
X21367368Y18162398D01*
X21220137Y18271398D01*
X21118976Y18459796D01*
X21069365Y18719620D01*
X21065267Y18853468D01*
X21085001Y19092294D01*
X21133517Y19294058D01*
X21202888Y19445458D01*
X21285192Y19533188D01*
X21372503Y19543946D01*
X21442144Y19486177D01*
X21482827Y19406197D01*
X21473448Y19312814D01*
X21439168Y19221108D01*
X21388692Y19043173D01*
X21368253Y18845643D01*
X21377484Y18661803D01*
X21416020Y18524937D01*
X21447271Y18483586D01*
X21524100Y18450175D01*
X21577202Y18501554D01*
X21608585Y18642651D01*
X21620259Y18878392D01*
X21620422Y18908422D01*
X21645642Y19200948D01*
X21716760Y19418039D01*
X21829182Y19554080D01*
X21978314Y19603460D01*
X21978314Y19603460D01*
G36*
X21726647Y21167218D02*
X21896201Y21165400D01*
X22199114Y21156789D01*
X22419056Y21141861D01*
X22574571Y21118401D01*
X22684205Y21084192D01*
X22719249Y21067067D01*
X22880858Y20925096D01*
X22997219Y20716068D01*
X23059154Y20467910D01*
X23057483Y20208549D01*
X23035856Y20103906D01*
X22962017Y19927716D01*
X22862363Y19813744D01*
X22753502Y19778721D01*
X22720746Y19786410D01*
X22656283Y19832030D01*
X22643587Y19913507D01*
X22682518Y20051822D01*
X22718367Y20141853D01*
X22768854Y20302882D01*
X22763346Y20446384D01*
X22743534Y20523031D01*
X22674317Y20692123D01*
X22575512Y20791903D01*
X22448329Y20845688D01*
X22374585Y20861524D01*
X22358657Y20828718D01*
X22389977Y20724397D01*
X22390970Y20721547D01*
X22429541Y20509759D01*
X22417489Y20278460D01*
X22360573Y20067454D01*
X22276197Y19928277D01*
X22160293Y19817583D01*
X22044259Y19747431D01*
X21896774Y19705673D01*
X21686516Y19680163D01*
X21623404Y19675122D01*
X21352595Y19671375D01*
X21168668Y19706856D01*
X21074697Y19780700D01*
X21062400Y19833000D01*
X21107433Y19921884D01*
X21244097Y19979912D01*
X21474736Y20007845D01*
X21609986Y20010800D01*
X21815238Y20017267D01*
X21945557Y20040379D01*
X22027008Y20085700D01*
X22045126Y20103700D01*
X22111000Y20240915D01*
X22127673Y20422839D01*
X22096022Y20605781D01*
X22032576Y20728469D01*
X21971079Y20789434D01*
X21890193Y20827773D01*
X21764103Y20850457D01*
X21566989Y20864458D01*
X21520852Y20866645D01*
X21298582Y20881832D01*
X21160834Y20905316D01*
X21090636Y20940790D01*
X21075822Y20963494D01*
X21067619Y21043504D01*
X21119470Y21101634D01*
X21240506Y21140132D01*
X21439855Y21161244D01*
X21726647Y21167218D01*
X21726647Y21167218D01*
X21726647Y21167218D01*
G37*
X21726647Y21167218D02*
X21896201Y21165400D01*
X22199114Y21156789D01*
X22419056Y21141861D01*
X22574571Y21118401D01*
X22684205Y21084192D01*
X22719249Y21067067D01*
X22880858Y20925096D01*
X22997219Y20716068D01*
X23059154Y20467910D01*
X23057483Y20208549D01*
X23035856Y20103906D01*
X22962017Y19927716D01*
X22862363Y19813744D01*
X22753502Y19778721D01*
X22720746Y19786410D01*
X22656283Y19832030D01*
X22643587Y19913507D01*
X22682518Y20051822D01*
X22718367Y20141853D01*
X22768854Y20302882D01*
X22763346Y20446384D01*
X22743534Y20523031D01*
X22674317Y20692123D01*
X22575512Y20791903D01*
X22448329Y20845688D01*
X22374585Y20861524D01*
X22358657Y20828718D01*
X22389977Y20724397D01*
X22390970Y20721547D01*
X22429541Y20509759D01*
X22417489Y20278460D01*
X22360573Y20067454D01*
X22276197Y19928277D01*
X22160293Y19817583D01*
X22044259Y19747431D01*
X21896774Y19705673D01*
X21686516Y19680163D01*
X21623404Y19675122D01*
X21352595Y19671375D01*
X21168668Y19706856D01*
X21074697Y19780700D01*
X21062400Y19833000D01*
X21107433Y19921884D01*
X21244097Y19979912D01*
X21474736Y20007845D01*
X21609986Y20010800D01*
X21815238Y20017267D01*
X21945557Y20040379D01*
X22027008Y20085700D01*
X22045126Y20103700D01*
X22111000Y20240915D01*
X22127673Y20422839D01*
X22096022Y20605781D01*
X22032576Y20728469D01*
X21971079Y20789434D01*
X21890193Y20827773D01*
X21764103Y20850457D01*
X21566989Y20864458D01*
X21520852Y20866645D01*
X21298582Y20881832D01*
X21160834Y20905316D01*
X21090636Y20940790D01*
X21075822Y20963494D01*
X21067619Y21043504D01*
X21119470Y21101634D01*
X21240506Y21140132D01*
X21439855Y21161244D01*
X21726647Y21167218D01*
X21726647Y21167218D01*
X3383333Y71883334D02*
X3850000Y71183334D01*
X3850000Y71883334D02*
X3383333Y71183334D01*
X4116666Y71183334D02*
X4116666Y71883334D01*
X4383333Y71883334D01*
X4450000Y71850000D01*
X4483333Y71816667D01*
X4516666Y71750000D01*
X4516666Y71650000D01*
X4483333Y71583334D01*
X4450000Y71550000D01*
X4383333Y71516667D01*
X4116666Y71516667D01*
X4783333Y71816667D02*
X4816666Y71850000D01*
X4883333Y71883334D01*
X5050000Y71883334D01*
X5116666Y71850000D01*
X5150000Y71816667D01*
X5183333Y71750000D01*
X5183333Y71683334D01*
X5150000Y71583334D01*
X4750000Y71183334D01*
X5183333Y71183334D01*
X3383333Y8683334D02*
X3850000Y7983334D01*
X3850000Y8683334D02*
X3383333Y7983334D01*
X4116666Y7983334D02*
X4116666Y8683334D01*
X4383333Y8683334D01*
X4450000Y8650000D01*
X4483333Y8616667D01*
X4516666Y8550000D01*
X4516666Y8450000D01*
X4483333Y8383334D01*
X4450000Y8350000D01*
X4383333Y8316667D01*
X4116666Y8316667D01*
X4750000Y8683334D02*
X5183333Y8683334D01*
X4950000Y8416667D01*
X5050000Y8416667D01*
X5116666Y8383334D01*
X5150000Y8350000D01*
X5183333Y8283334D01*
X5183333Y8116667D01*
X5150000Y8050000D01*
X5116666Y8016667D01*
X5050000Y7983334D01*
X4850000Y7983334D01*
X4783333Y8016667D01*
X4750000Y8050000D01*
X23983333Y71383334D02*
X24450000Y70683334D01*
X24450000Y71383334D02*
X23983333Y70683334D01*
X24716666Y70683334D02*
X24716666Y71383334D01*
X24983333Y71383334D01*
X25050000Y71350000D01*
X25083333Y71316667D01*
X25116666Y71250000D01*
X25116666Y71150000D01*
X25083333Y71083334D01*
X25050000Y71050000D01*
X24983333Y71016667D01*
X24716666Y71016667D01*
X25716666Y71150000D02*
X25716666Y70683334D01*
X25550000Y71416667D02*
X25383333Y70916667D01*
X25816666Y70916667D01*
X23483333Y14783334D02*
X23950000Y14083334D01*
X23950000Y14783334D02*
X23483333Y14083334D01*
X24216666Y14083334D02*
X24216666Y14783334D01*
X24483333Y14783334D01*
X24550000Y14750000D01*
X24583333Y14716667D01*
X24616666Y14650000D01*
X24616666Y14550000D01*
X24583333Y14483334D01*
X24550000Y14450000D01*
X24483333Y14416667D01*
X24216666Y14416667D01*
X25250000Y14783334D02*
X24916666Y14783334D01*
X24883333Y14450000D01*
X24916666Y14483334D01*
X24983333Y14516667D01*
X25150000Y14516667D01*
X25216666Y14483334D01*
X25250000Y14450000D01*
X25283333Y14383334D01*
X25283333Y14216667D01*
X25250000Y14150000D01*
X25216666Y14116667D01*
X25150000Y14083334D01*
X24983333Y14083334D01*
X24916666Y14116667D01*
X24883333Y14150000D01*
M02*
