G04 #@! TF.GenerationSoftware,KiCad,Pcbnew,(2016-12-20 revision 2972f6f)-master*
G04 #@! TF.CreationDate,2020-06-24T23:38:58+03:00*
G04 #@! TF.ProjectId,DIYOUT3M,4449594F5554334D2E6B696361645F70,rev?*
G04 #@! TF.FileFunction,Copper,L2,Bot,Signal*
G04 #@! TF.FilePolarity,Positive*
%FSLAX46Y46*%
G04 Gerber Fmt 4.6, Leading zero omitted, Abs format (unit mm)*
G04 Created by KiCad (PCBNEW (2016-12-20 revision 2972f6f)-master) date Wed Jun 24 23:38:58 2020*
%MOMM*%
%LPD*%
G01*
G04 APERTURE LIST*
%ADD10C,0.100000*%
%ADD11C,1.600000*%
%ADD12R,1.600000X1.600000*%
%ADD13R,1.400000X1.400000*%
%ADD14C,1.400000*%
%ADD15C,1.200000*%
%ADD16R,1.600000X2.200000*%
%ADD17O,1.600000X2.200000*%
%ADD18C,0.600000*%
%ADD19C,6.000000*%
%ADD20C,2.000000*%
%ADD21C,0.900000*%
%ADD22C,0.300000*%
G04 APERTURE END LIST*
D10*
D11*
X10700000Y72700000D03*
X10700000Y65100000D03*
X1500000Y63650000D03*
X1500000Y66190000D03*
X1500000Y68730000D03*
X1500000Y71270000D03*
D12*
X1500000Y76350000D03*
D11*
X1500000Y73810000D03*
X1500000Y7650000D03*
X1500000Y10190000D03*
X1500000Y12730000D03*
X1500000Y15270000D03*
D12*
X1500000Y20350000D03*
D11*
X1500000Y17810000D03*
X27500000Y63650000D03*
X27500000Y66190000D03*
X27500000Y68730000D03*
X27500000Y71270000D03*
D12*
X27500000Y76350000D03*
D11*
X27500000Y73810000D03*
X27500000Y7650000D03*
X27500000Y10190000D03*
X27500000Y12730000D03*
X27500000Y15270000D03*
D12*
X27500000Y20350000D03*
D11*
X27500000Y17810000D03*
D13*
X18000000Y79050000D03*
D14*
X18000000Y76550000D03*
D13*
X11000000Y79050000D03*
D14*
X11000000Y76550000D03*
D15*
X14500000Y57860000D03*
X14500000Y62940000D03*
X14500000Y39860000D03*
X14500000Y44940000D03*
D13*
X6750000Y4300000D03*
D14*
X4250000Y4300000D03*
D15*
X17900000Y14260000D03*
X17900000Y19340000D03*
D13*
X9050000Y10400000D03*
D14*
X6550000Y10400000D03*
D13*
X20950000Y16400000D03*
D14*
X23450000Y16400000D03*
D13*
X11750000Y30300000D03*
D14*
X9250000Y30300000D03*
D13*
X5350000Y40800000D03*
D14*
X2850000Y40800000D03*
D13*
X23550000Y40800000D03*
D14*
X26050000Y40800000D03*
D13*
X17550000Y29000000D03*
D14*
X20050000Y29000000D03*
D13*
X18750000Y10200000D03*
D14*
X21250000Y10200000D03*
D16*
X8280000Y55110000D03*
D17*
X10820000Y55110000D03*
X13360000Y55110000D03*
X15900000Y55110000D03*
X18440000Y55110000D03*
X20980000Y55110000D03*
X23520000Y55110000D03*
X23520000Y47490000D03*
X20980000Y47490000D03*
X18440000Y47490000D03*
X15900000Y47490000D03*
X13360000Y47490000D03*
X10820000Y47490000D03*
X8280000Y47490000D03*
D11*
X18300000Y65090000D03*
X18300000Y72710000D03*
X12900000Y72710000D03*
X12900000Y65090000D03*
X16100000Y72710000D03*
X16100000Y65090000D03*
D10*
G36*
X15996762Y8999422D02*
X16008411Y8997694D01*
X16019834Y8994833D01*
X16030922Y8990866D01*
X16041568Y8985831D01*
X16051668Y8979776D01*
X16061127Y8972761D01*
X16069853Y8964853D01*
X16077761Y8956127D01*
X16084776Y8946668D01*
X16090831Y8936568D01*
X16095866Y8925922D01*
X16099833Y8914834D01*
X16102694Y8903411D01*
X16104422Y8891762D01*
X16105000Y8880000D01*
X16105000Y7520000D01*
X16104422Y7508238D01*
X16102694Y7496589D01*
X16099833Y7485166D01*
X16095866Y7474078D01*
X16090831Y7463432D01*
X16084776Y7453332D01*
X16077761Y7443873D01*
X16069853Y7435147D01*
X16061127Y7427239D01*
X16051668Y7420224D01*
X16041568Y7414169D01*
X16030922Y7409134D01*
X16019834Y7405167D01*
X16008411Y7402306D01*
X15996762Y7400578D01*
X15985000Y7400000D01*
X15625000Y7400000D01*
X15613238Y7400578D01*
X15601589Y7402306D01*
X15590166Y7405167D01*
X15579078Y7409134D01*
X15568432Y7414169D01*
X15558332Y7420224D01*
X15548873Y7427239D01*
X15540147Y7435147D01*
X15532239Y7443873D01*
X15525224Y7453332D01*
X15519169Y7463432D01*
X15514134Y7474078D01*
X15510167Y7485166D01*
X15507306Y7496589D01*
X15505578Y7508238D01*
X15505000Y7520000D01*
X15505000Y8880000D01*
X15505578Y8891762D01*
X15507306Y8903411D01*
X15510167Y8914834D01*
X15514134Y8925922D01*
X15519169Y8936568D01*
X15525224Y8946668D01*
X15532239Y8956127D01*
X15540147Y8964853D01*
X15548873Y8972761D01*
X15558332Y8979776D01*
X15568432Y8985831D01*
X15579078Y8990866D01*
X15590166Y8994833D01*
X15601589Y8997694D01*
X15613238Y8999422D01*
X15625000Y9000000D01*
X15985000Y9000000D01*
X15996762Y8999422D01*
X15996762Y8999422D01*
G37*
D18*
X15805000Y8200000D03*
D10*
G36*
X14726762Y8999422D02*
X14738411Y8997694D01*
X14749834Y8994833D01*
X14760922Y8990866D01*
X14771568Y8985831D01*
X14781668Y8979776D01*
X14791127Y8972761D01*
X14799853Y8964853D01*
X14807761Y8956127D01*
X14814776Y8946668D01*
X14820831Y8936568D01*
X14825866Y8925922D01*
X14829833Y8914834D01*
X14832694Y8903411D01*
X14834422Y8891762D01*
X14835000Y8880000D01*
X14835000Y7520000D01*
X14834422Y7508238D01*
X14832694Y7496589D01*
X14829833Y7485166D01*
X14825866Y7474078D01*
X14820831Y7463432D01*
X14814776Y7453332D01*
X14807761Y7443873D01*
X14799853Y7435147D01*
X14791127Y7427239D01*
X14781668Y7420224D01*
X14771568Y7414169D01*
X14760922Y7409134D01*
X14749834Y7405167D01*
X14738411Y7402306D01*
X14726762Y7400578D01*
X14715000Y7400000D01*
X14355000Y7400000D01*
X14343238Y7400578D01*
X14331589Y7402306D01*
X14320166Y7405167D01*
X14309078Y7409134D01*
X14298432Y7414169D01*
X14288332Y7420224D01*
X14278873Y7427239D01*
X14270147Y7435147D01*
X14262239Y7443873D01*
X14255224Y7453332D01*
X14249169Y7463432D01*
X14244134Y7474078D01*
X14240167Y7485166D01*
X14237306Y7496589D01*
X14235578Y7508238D01*
X14235000Y7520000D01*
X14235000Y8880000D01*
X14235578Y8891762D01*
X14237306Y8903411D01*
X14240167Y8914834D01*
X14244134Y8925922D01*
X14249169Y8936568D01*
X14255224Y8946668D01*
X14262239Y8956127D01*
X14270147Y8964853D01*
X14278873Y8972761D01*
X14288332Y8979776D01*
X14298432Y8985831D01*
X14309078Y8990866D01*
X14320166Y8994833D01*
X14331589Y8997694D01*
X14343238Y8999422D01*
X14355000Y9000000D01*
X14715000Y9000000D01*
X14726762Y8999422D01*
X14726762Y8999422D01*
G37*
D18*
X14535000Y8200000D03*
D10*
G36*
X13456762Y8999422D02*
X13468411Y8997694D01*
X13479834Y8994833D01*
X13490922Y8990866D01*
X13501568Y8985831D01*
X13511668Y8979776D01*
X13521127Y8972761D01*
X13529853Y8964853D01*
X13537761Y8956127D01*
X13544776Y8946668D01*
X13550831Y8936568D01*
X13555866Y8925922D01*
X13559833Y8914834D01*
X13562694Y8903411D01*
X13564422Y8891762D01*
X13565000Y8880000D01*
X13565000Y7520000D01*
X13564422Y7508238D01*
X13562694Y7496589D01*
X13559833Y7485166D01*
X13555866Y7474078D01*
X13550831Y7463432D01*
X13544776Y7453332D01*
X13537761Y7443873D01*
X13529853Y7435147D01*
X13521127Y7427239D01*
X13511668Y7420224D01*
X13501568Y7414169D01*
X13490922Y7409134D01*
X13479834Y7405167D01*
X13468411Y7402306D01*
X13456762Y7400578D01*
X13445000Y7400000D01*
X13085000Y7400000D01*
X13073238Y7400578D01*
X13061589Y7402306D01*
X13050166Y7405167D01*
X13039078Y7409134D01*
X13028432Y7414169D01*
X13018332Y7420224D01*
X13008873Y7427239D01*
X13000147Y7435147D01*
X12992239Y7443873D01*
X12985224Y7453332D01*
X12979169Y7463432D01*
X12974134Y7474078D01*
X12970167Y7485166D01*
X12967306Y7496589D01*
X12965578Y7508238D01*
X12965000Y7520000D01*
X12965000Y8880000D01*
X12965578Y8891762D01*
X12967306Y8903411D01*
X12970167Y8914834D01*
X12974134Y8925922D01*
X12979169Y8936568D01*
X12985224Y8946668D01*
X12992239Y8956127D01*
X13000147Y8964853D01*
X13008873Y8972761D01*
X13018332Y8979776D01*
X13028432Y8985831D01*
X13039078Y8990866D01*
X13050166Y8994833D01*
X13061589Y8997694D01*
X13073238Y8999422D01*
X13085000Y9000000D01*
X13445000Y9000000D01*
X13456762Y8999422D01*
X13456762Y8999422D01*
G37*
D18*
X13265000Y8200000D03*
D10*
G36*
X12186762Y8999422D02*
X12198411Y8997694D01*
X12209834Y8994833D01*
X12220922Y8990866D01*
X12231568Y8985831D01*
X12241668Y8979776D01*
X12251127Y8972761D01*
X12259853Y8964853D01*
X12267761Y8956127D01*
X12274776Y8946668D01*
X12280831Y8936568D01*
X12285866Y8925922D01*
X12289833Y8914834D01*
X12292694Y8903411D01*
X12294422Y8891762D01*
X12295000Y8880000D01*
X12295000Y7520000D01*
X12294422Y7508238D01*
X12292694Y7496589D01*
X12289833Y7485166D01*
X12285866Y7474078D01*
X12280831Y7463432D01*
X12274776Y7453332D01*
X12267761Y7443873D01*
X12259853Y7435147D01*
X12251127Y7427239D01*
X12241668Y7420224D01*
X12231568Y7414169D01*
X12220922Y7409134D01*
X12209834Y7405167D01*
X12198411Y7402306D01*
X12186762Y7400578D01*
X12175000Y7400000D01*
X11815000Y7400000D01*
X11803238Y7400578D01*
X11791589Y7402306D01*
X11780166Y7405167D01*
X11769078Y7409134D01*
X11758432Y7414169D01*
X11748332Y7420224D01*
X11738873Y7427239D01*
X11730147Y7435147D01*
X11722239Y7443873D01*
X11715224Y7453332D01*
X11709169Y7463432D01*
X11704134Y7474078D01*
X11700167Y7485166D01*
X11697306Y7496589D01*
X11695578Y7508238D01*
X11695000Y7520000D01*
X11695000Y8880000D01*
X11695578Y8891762D01*
X11697306Y8903411D01*
X11700167Y8914834D01*
X11704134Y8925922D01*
X11709169Y8936568D01*
X11715224Y8946668D01*
X11722239Y8956127D01*
X11730147Y8964853D01*
X11738873Y8972761D01*
X11748332Y8979776D01*
X11758432Y8985831D01*
X11769078Y8990866D01*
X11780166Y8994833D01*
X11791589Y8997694D01*
X11803238Y8999422D01*
X11815000Y9000000D01*
X12175000Y9000000D01*
X12186762Y8999422D01*
X12186762Y8999422D01*
G37*
D18*
X11995000Y8200000D03*
D10*
G36*
X12186762Y14399422D02*
X12198411Y14397694D01*
X12209834Y14394833D01*
X12220922Y14390866D01*
X12231568Y14385831D01*
X12241668Y14379776D01*
X12251127Y14372761D01*
X12259853Y14364853D01*
X12267761Y14356127D01*
X12274776Y14346668D01*
X12280831Y14336568D01*
X12285866Y14325922D01*
X12289833Y14314834D01*
X12292694Y14303411D01*
X12294422Y14291762D01*
X12295000Y14280000D01*
X12295000Y12920000D01*
X12294422Y12908238D01*
X12292694Y12896589D01*
X12289833Y12885166D01*
X12285866Y12874078D01*
X12280831Y12863432D01*
X12274776Y12853332D01*
X12267761Y12843873D01*
X12259853Y12835147D01*
X12251127Y12827239D01*
X12241668Y12820224D01*
X12231568Y12814169D01*
X12220922Y12809134D01*
X12209834Y12805167D01*
X12198411Y12802306D01*
X12186762Y12800578D01*
X12175000Y12800000D01*
X11815000Y12800000D01*
X11803238Y12800578D01*
X11791589Y12802306D01*
X11780166Y12805167D01*
X11769078Y12809134D01*
X11758432Y12814169D01*
X11748332Y12820224D01*
X11738873Y12827239D01*
X11730147Y12835147D01*
X11722239Y12843873D01*
X11715224Y12853332D01*
X11709169Y12863432D01*
X11704134Y12874078D01*
X11700167Y12885166D01*
X11697306Y12896589D01*
X11695578Y12908238D01*
X11695000Y12920000D01*
X11695000Y14280000D01*
X11695578Y14291762D01*
X11697306Y14303411D01*
X11700167Y14314834D01*
X11704134Y14325922D01*
X11709169Y14336568D01*
X11715224Y14346668D01*
X11722239Y14356127D01*
X11730147Y14364853D01*
X11738873Y14372761D01*
X11748332Y14379776D01*
X11758432Y14385831D01*
X11769078Y14390866D01*
X11780166Y14394833D01*
X11791589Y14397694D01*
X11803238Y14399422D01*
X11815000Y14400000D01*
X12175000Y14400000D01*
X12186762Y14399422D01*
X12186762Y14399422D01*
G37*
D18*
X11995000Y13600000D03*
D10*
G36*
X13456762Y14399422D02*
X13468411Y14397694D01*
X13479834Y14394833D01*
X13490922Y14390866D01*
X13501568Y14385831D01*
X13511668Y14379776D01*
X13521127Y14372761D01*
X13529853Y14364853D01*
X13537761Y14356127D01*
X13544776Y14346668D01*
X13550831Y14336568D01*
X13555866Y14325922D01*
X13559833Y14314834D01*
X13562694Y14303411D01*
X13564422Y14291762D01*
X13565000Y14280000D01*
X13565000Y12920000D01*
X13564422Y12908238D01*
X13562694Y12896589D01*
X13559833Y12885166D01*
X13555866Y12874078D01*
X13550831Y12863432D01*
X13544776Y12853332D01*
X13537761Y12843873D01*
X13529853Y12835147D01*
X13521127Y12827239D01*
X13511668Y12820224D01*
X13501568Y12814169D01*
X13490922Y12809134D01*
X13479834Y12805167D01*
X13468411Y12802306D01*
X13456762Y12800578D01*
X13445000Y12800000D01*
X13085000Y12800000D01*
X13073238Y12800578D01*
X13061589Y12802306D01*
X13050166Y12805167D01*
X13039078Y12809134D01*
X13028432Y12814169D01*
X13018332Y12820224D01*
X13008873Y12827239D01*
X13000147Y12835147D01*
X12992239Y12843873D01*
X12985224Y12853332D01*
X12979169Y12863432D01*
X12974134Y12874078D01*
X12970167Y12885166D01*
X12967306Y12896589D01*
X12965578Y12908238D01*
X12965000Y12920000D01*
X12965000Y14280000D01*
X12965578Y14291762D01*
X12967306Y14303411D01*
X12970167Y14314834D01*
X12974134Y14325922D01*
X12979169Y14336568D01*
X12985224Y14346668D01*
X12992239Y14356127D01*
X13000147Y14364853D01*
X13008873Y14372761D01*
X13018332Y14379776D01*
X13028432Y14385831D01*
X13039078Y14390866D01*
X13050166Y14394833D01*
X13061589Y14397694D01*
X13073238Y14399422D01*
X13085000Y14400000D01*
X13445000Y14400000D01*
X13456762Y14399422D01*
X13456762Y14399422D01*
G37*
D18*
X13265000Y13600000D03*
D10*
G36*
X14726762Y14399422D02*
X14738411Y14397694D01*
X14749834Y14394833D01*
X14760922Y14390866D01*
X14771568Y14385831D01*
X14781668Y14379776D01*
X14791127Y14372761D01*
X14799853Y14364853D01*
X14807761Y14356127D01*
X14814776Y14346668D01*
X14820831Y14336568D01*
X14825866Y14325922D01*
X14829833Y14314834D01*
X14832694Y14303411D01*
X14834422Y14291762D01*
X14835000Y14280000D01*
X14835000Y12920000D01*
X14834422Y12908238D01*
X14832694Y12896589D01*
X14829833Y12885166D01*
X14825866Y12874078D01*
X14820831Y12863432D01*
X14814776Y12853332D01*
X14807761Y12843873D01*
X14799853Y12835147D01*
X14791127Y12827239D01*
X14781668Y12820224D01*
X14771568Y12814169D01*
X14760922Y12809134D01*
X14749834Y12805167D01*
X14738411Y12802306D01*
X14726762Y12800578D01*
X14715000Y12800000D01*
X14355000Y12800000D01*
X14343238Y12800578D01*
X14331589Y12802306D01*
X14320166Y12805167D01*
X14309078Y12809134D01*
X14298432Y12814169D01*
X14288332Y12820224D01*
X14278873Y12827239D01*
X14270147Y12835147D01*
X14262239Y12843873D01*
X14255224Y12853332D01*
X14249169Y12863432D01*
X14244134Y12874078D01*
X14240167Y12885166D01*
X14237306Y12896589D01*
X14235578Y12908238D01*
X14235000Y12920000D01*
X14235000Y14280000D01*
X14235578Y14291762D01*
X14237306Y14303411D01*
X14240167Y14314834D01*
X14244134Y14325922D01*
X14249169Y14336568D01*
X14255224Y14346668D01*
X14262239Y14356127D01*
X14270147Y14364853D01*
X14278873Y14372761D01*
X14288332Y14379776D01*
X14298432Y14385831D01*
X14309078Y14390866D01*
X14320166Y14394833D01*
X14331589Y14397694D01*
X14343238Y14399422D01*
X14355000Y14400000D01*
X14715000Y14400000D01*
X14726762Y14399422D01*
X14726762Y14399422D01*
G37*
D18*
X14535000Y13600000D03*
D10*
G36*
X15996762Y14399422D02*
X16008411Y14397694D01*
X16019834Y14394833D01*
X16030922Y14390866D01*
X16041568Y14385831D01*
X16051668Y14379776D01*
X16061127Y14372761D01*
X16069853Y14364853D01*
X16077761Y14356127D01*
X16084776Y14346668D01*
X16090831Y14336568D01*
X16095866Y14325922D01*
X16099833Y14314834D01*
X16102694Y14303411D01*
X16104422Y14291762D01*
X16105000Y14280000D01*
X16105000Y12920000D01*
X16104422Y12908238D01*
X16102694Y12896589D01*
X16099833Y12885166D01*
X16095866Y12874078D01*
X16090831Y12863432D01*
X16084776Y12853332D01*
X16077761Y12843873D01*
X16069853Y12835147D01*
X16061127Y12827239D01*
X16051668Y12820224D01*
X16041568Y12814169D01*
X16030922Y12809134D01*
X16019834Y12805167D01*
X16008411Y12802306D01*
X15996762Y12800578D01*
X15985000Y12800000D01*
X15625000Y12800000D01*
X15613238Y12800578D01*
X15601589Y12802306D01*
X15590166Y12805167D01*
X15579078Y12809134D01*
X15568432Y12814169D01*
X15558332Y12820224D01*
X15548873Y12827239D01*
X15540147Y12835147D01*
X15532239Y12843873D01*
X15525224Y12853332D01*
X15519169Y12863432D01*
X15514134Y12874078D01*
X15510167Y12885166D01*
X15507306Y12896589D01*
X15505578Y12908238D01*
X15505000Y12920000D01*
X15505000Y14280000D01*
X15505578Y14291762D01*
X15507306Y14303411D01*
X15510167Y14314834D01*
X15514134Y14325922D01*
X15519169Y14336568D01*
X15525224Y14346668D01*
X15532239Y14356127D01*
X15540147Y14364853D01*
X15548873Y14372761D01*
X15558332Y14379776D01*
X15568432Y14385831D01*
X15579078Y14390866D01*
X15590166Y14394833D01*
X15601589Y14397694D01*
X15613238Y14399422D01*
X15625000Y14400000D01*
X15985000Y14400000D01*
X15996762Y14399422D01*
X15996762Y14399422D01*
G37*
D18*
X15805000Y13600000D03*
D19*
X3800000Y33500000D03*
D20*
X9100000Y24800000D03*
X9100000Y14800000D03*
X26700000Y58100000D03*
X16700000Y58100000D03*
X6000000Y24800000D03*
X6000000Y14800000D03*
X21600000Y2500000D03*
X11600000Y2500000D03*
X11600000Y5500000D03*
X21600000Y5500000D03*
X12200000Y16100000D03*
X12200000Y26100000D03*
X15200000Y16100000D03*
X15200000Y26100000D03*
X8900000Y44700000D03*
X8900000Y34700000D03*
X20000000Y34700000D03*
X20000000Y44700000D03*
X11900000Y44700000D03*
X11900000Y34700000D03*
X17000000Y34700000D03*
X17000000Y44700000D03*
X26700000Y36100000D03*
X26700000Y26100000D03*
X24700000Y12300000D03*
X24700000Y2300000D03*
X12300000Y61100000D03*
X2300000Y61100000D03*
X16700000Y61100000D03*
X26700000Y61100000D03*
X12300000Y58100000D03*
X2300000Y58100000D03*
X4400000Y64800000D03*
X4400000Y74800000D03*
X24600000Y64800000D03*
X24600000Y74800000D03*
X7400000Y74800000D03*
X7400000Y64800000D03*
X21600000Y64800000D03*
X21600000Y74800000D03*
X5300000Y55300000D03*
X5300000Y45300000D03*
X23700000Y36100000D03*
X23700000Y26100000D03*
X2300000Y45300000D03*
X2300000Y55300000D03*
X26600000Y55300000D03*
X26600000Y45300000D03*
D21*
X16100000Y69400000D03*
X13600000Y1700000D03*
X19900000Y1200000D03*
X14800000Y4700000D03*
X9400000Y2600000D03*
X1000000Y1400000D03*
X24800000Y5800000D03*
X17400000Y8000000D03*
X9400000Y5600000D03*
X22600000Y11900000D03*
X19500000Y15100000D03*
X14700000Y10300000D03*
X10300000Y12500000D03*
X23400000Y20900000D03*
X27900000Y23300000D03*
X19900000Y63100000D03*
X21300000Y58600000D03*
X23400000Y58900000D03*
X8000000Y18700000D03*
X11800000Y19200000D03*
X13800000Y24600000D03*
X10200000Y16400000D03*
X6000000Y20600000D03*
X1700000Y22300000D03*
X10200000Y27200000D03*
X15800000Y28200000D03*
X13500000Y30800000D03*
X18900000Y30900000D03*
X8100000Y28900000D03*
X19200000Y27300000D03*
X20100000Y42800000D03*
X27800000Y28700000D03*
X21900000Y32500000D03*
X21600000Y38200000D03*
X27600000Y42300000D03*
X27800000Y47000000D03*
X27800000Y52100000D03*
X24700000Y42500000D03*
X25200000Y49700000D03*
X22000000Y66600000D03*
X16800000Y66600000D03*
X19900000Y71400000D03*
X23900000Y70200000D03*
X27100000Y78000000D03*
X27800000Y80900000D03*
X20000000Y79500000D03*
X1200000Y42100000D03*
X1100000Y47200000D03*
X7300000Y45700000D03*
X6900000Y39000000D03*
X15600000Y49800000D03*
X22400000Y50700000D03*
X19700000Y56900000D03*
X20800000Y52700000D03*
X11000000Y52700000D03*
X3500000Y47800000D03*
X1500000Y80800000D03*
X7000000Y78100000D03*
X13200000Y80500000D03*
X9500000Y75100000D03*
X8900000Y71600000D03*
X13100000Y69200000D03*
X9100000Y66500000D03*
X8200000Y58400000D03*
X9100000Y63600000D03*
X11300000Y51100000D03*
X6800000Y51100000D03*
X22900000Y60500000D03*
X24700000Y62300000D03*
X13700000Y19900000D03*
X14600000Y12100000D03*
X9700000Y58100000D03*
X18500000Y59400000D03*
D22*
X11000000Y79050000D02*
X9750000Y79050000D01*
X9750000Y79050000D02*
X7300000Y76600000D01*
X7300000Y76600000D02*
X4100000Y76600000D01*
X2710000Y73810000D02*
X1500000Y73810000D01*
X3000000Y74100000D02*
X2710000Y73810000D01*
X3000000Y75500000D02*
X3000000Y74100000D01*
X4100000Y76600000D02*
X3000000Y75500000D01*
X11000000Y76550000D02*
X9150000Y76550000D01*
X9150000Y76550000D02*
X7400000Y74800000D01*
X4400000Y74800000D02*
X7400000Y74800000D01*
X18000000Y79050000D02*
X16750000Y79050000D01*
X16750000Y79050000D02*
X11700000Y74000000D01*
X11700000Y74000000D02*
X9700000Y74000000D01*
X4430000Y68730000D02*
X1500000Y68730000D01*
X9700000Y74000000D02*
X4430000Y68730000D01*
X21600000Y74800000D02*
X24600000Y74800000D01*
X18000000Y76550000D02*
X19750000Y74800000D01*
X19750000Y74800000D02*
X21600000Y74800000D01*
X14500000Y57860000D02*
X14500000Y61200000D01*
X16100000Y69400000D02*
X16100000Y69400000D01*
X14800000Y68100000D02*
X16100000Y69400000D01*
X14800000Y64500000D02*
X14800000Y68100000D01*
X15700000Y63600000D02*
X14800000Y64500000D01*
X15700000Y62400000D02*
X15700000Y63600000D01*
X14500000Y61200000D02*
X15700000Y62400000D01*
X14500000Y57860000D02*
X14500000Y56510000D01*
X14500000Y56510000D02*
X15900000Y55110000D01*
X16100000Y72710000D02*
X16100000Y76600000D01*
X16100000Y76600000D02*
X17300000Y77800000D01*
X24200000Y77800000D02*
X17300000Y77800000D01*
X16100000Y72710000D02*
X12900000Y72710000D01*
X25650000Y76350000D02*
X24200000Y77800000D01*
X27500000Y76350000D02*
X25650000Y76350000D01*
X13600000Y1700000D02*
X14100000Y1200000D01*
X14100000Y1200000D02*
X19900000Y1200000D01*
X8200000Y1400000D02*
X9400000Y2600000D01*
X1000000Y1400000D02*
X8200000Y1400000D01*
X22600000Y8000000D02*
X24800000Y5800000D01*
X17400000Y8000000D02*
X22600000Y8000000D01*
X6550000Y10400000D02*
X9400000Y7550000D01*
X9400000Y7550000D02*
X9400000Y5600000D01*
X22600000Y11900000D02*
X19500000Y15000000D01*
X19500000Y15000000D02*
X19500000Y15100000D01*
X19460000Y20900000D02*
X23400000Y20900000D01*
X17900000Y19340000D02*
X19460000Y20900000D01*
X19900000Y63100000D02*
X19900000Y60000000D01*
X19900000Y60000000D02*
X21300000Y58600000D01*
X8000000Y18700000D02*
X10200000Y16500000D01*
X11800000Y22600000D02*
X11800000Y19200000D01*
X13800000Y24600000D02*
X11800000Y22600000D01*
X10200000Y16500000D02*
X10200000Y16400000D01*
X6000000Y20600000D02*
X5900000Y20500000D01*
X3800000Y33500000D02*
X1700000Y31400000D01*
X1700000Y31400000D02*
X1700000Y22300000D01*
X21900000Y32500000D02*
X20300000Y30900000D01*
X13500000Y30500000D02*
X15800000Y28200000D01*
X13500000Y30800000D02*
X13500000Y30500000D01*
X20300000Y30900000D02*
X18900000Y30900000D01*
X21900000Y37900000D02*
X21900000Y32500000D01*
X21600000Y38200000D02*
X21900000Y37900000D01*
X27600000Y37000000D02*
X26700000Y36100000D01*
X27600000Y42300000D02*
X27600000Y37000000D01*
X27800000Y52100000D02*
X27800000Y47000000D01*
X24700000Y45800000D02*
X24700000Y42500000D01*
X25200000Y46300000D02*
X24700000Y45800000D01*
X25200000Y49700000D02*
X25200000Y46300000D01*
X24600000Y64800000D02*
X23700000Y65700000D01*
X23700000Y65700000D02*
X23700000Y66100000D01*
X16800000Y66600000D02*
X22000000Y66600000D01*
X21100000Y70200000D02*
X19900000Y71400000D01*
X23900000Y70200000D02*
X21100000Y70200000D01*
X13200000Y80500000D02*
X19000000Y80500000D01*
X27100000Y80200000D02*
X27100000Y78000000D01*
X27800000Y80900000D02*
X27100000Y80200000D01*
X19000000Y80500000D02*
X20000000Y79500000D01*
X800000Y42500000D02*
X1200000Y42100000D01*
X800000Y46900000D02*
X800000Y42500000D01*
X1100000Y47200000D02*
X800000Y46900000D01*
X6900000Y45300000D02*
X7300000Y45700000D01*
X6900000Y39000000D02*
X6900000Y45300000D01*
X21500000Y49800000D02*
X15600000Y49800000D01*
X22400000Y50700000D02*
X21500000Y49800000D01*
X11000000Y52700000D02*
X20800000Y52700000D01*
X1500000Y80800000D02*
X4200000Y78100000D01*
X4200000Y78100000D02*
X7000000Y78100000D01*
X13200000Y80500000D02*
X13200000Y76800000D01*
X13200000Y76800000D02*
X11500000Y75100000D01*
X11500000Y75100000D02*
X9500000Y75100000D01*
X8900000Y71600000D02*
X11300000Y69200000D01*
X11300000Y69200000D02*
X13100000Y69200000D01*
X8200000Y62700000D02*
X8200000Y58400000D01*
X9100000Y63600000D02*
X8200000Y62700000D01*
X14600000Y49000000D02*
X14100000Y49500000D01*
X9600000Y50300000D02*
X9600000Y56700000D01*
X10400000Y49500000D02*
X9600000Y50300000D01*
X14100000Y49500000D02*
X10400000Y49500000D01*
X14500000Y44940000D02*
X15240000Y44940000D01*
X15900000Y45600000D02*
X15900000Y47490000D01*
X15240000Y44940000D02*
X15900000Y45600000D01*
X14500000Y44940000D02*
X14600000Y45040000D01*
X14600000Y45040000D02*
X14600000Y49000000D01*
X9600000Y56700000D02*
X10800000Y57900000D01*
X10800000Y57900000D02*
X10800000Y61900000D01*
X10800000Y61900000D02*
X11900000Y63000000D01*
X11900000Y63000000D02*
X12800000Y63000000D01*
X12800000Y63000000D02*
X14299998Y64499998D01*
X14299998Y64499998D02*
X14299998Y70600000D01*
X10700000Y72710000D02*
X10700000Y71500000D01*
X18300000Y71500000D02*
X18300000Y72710000D01*
X17400000Y70600000D02*
X18300000Y71500000D01*
X11600000Y70600000D02*
X14299998Y70600000D01*
X14299998Y70600000D02*
X17400000Y70600000D01*
X10700000Y71500000D02*
X11600000Y70600000D01*
X18300000Y72710000D02*
X25210000Y72710000D01*
X25210000Y72710000D02*
X26310000Y73810000D01*
X26310000Y73810000D02*
X27500000Y73810000D01*
X6750000Y4300000D02*
X8600000Y4300000D01*
X15000000Y2500000D02*
X21600000Y2500000D01*
X13500000Y4000000D02*
X15000000Y2500000D01*
X8900000Y4000000D02*
X13500000Y4000000D01*
X8600000Y4300000D02*
X8900000Y4000000D01*
X9100000Y14800000D02*
X9100000Y10450000D01*
X9100000Y10450000D02*
X9050000Y10400000D01*
X9100000Y14800000D02*
X6000000Y14800000D01*
X11995000Y13600000D02*
X11500000Y13600000D01*
X10300000Y14800000D02*
X9100000Y14800000D01*
X11500000Y13600000D02*
X10300000Y14800000D01*
X13265000Y8200000D02*
X13265000Y9535000D01*
X12400000Y10400000D02*
X9050000Y10400000D01*
X13265000Y9535000D02*
X12400000Y10400000D01*
X11750000Y30300000D02*
X11750000Y28350000D01*
X12200000Y27900000D02*
X12200000Y26100000D01*
X11750000Y28350000D02*
X12200000Y27900000D01*
X5350000Y40800000D02*
X5350000Y45250000D01*
X5350000Y45250000D02*
X5300000Y45300000D01*
X8280000Y47490000D02*
X5890000Y47490000D01*
X5300000Y46900000D02*
X5300000Y45300000D01*
X5890000Y47490000D02*
X5300000Y46900000D01*
X10820000Y47490000D02*
X8280000Y47490000D01*
X2300000Y45300000D02*
X2300000Y48100000D01*
X21100000Y51100000D02*
X22200000Y52200000D01*
X11300000Y51100000D02*
X21100000Y51100000D01*
X5300000Y51100000D02*
X6800000Y51100000D01*
X2300000Y48100000D02*
X5300000Y51100000D01*
X22200000Y59800000D02*
X22200000Y52200000D01*
X22900000Y60500000D02*
X22200000Y59800000D01*
X2850000Y40800000D02*
X2850000Y42550000D01*
X2300000Y43100000D02*
X2300000Y45300000D01*
X2850000Y42550000D02*
X2300000Y43100000D01*
X27500000Y66190000D02*
X27500000Y65700000D01*
X27500000Y65700000D02*
X26100000Y64300000D01*
X26100000Y63700000D02*
X24700000Y62300000D01*
X26100000Y64300000D02*
X26100000Y63700000D01*
X23550000Y40800000D02*
X23700000Y40650000D01*
X23700000Y40650000D02*
X23700000Y36100000D01*
X23520000Y47490000D02*
X23520000Y40830000D01*
X23520000Y40830000D02*
X23550000Y40800000D01*
X26600000Y45300000D02*
X26600000Y52600000D01*
X26600000Y52600000D02*
X28100000Y54100000D01*
X26050000Y40800000D02*
X26050000Y42550000D01*
X26600000Y43100000D02*
X26600000Y45300000D01*
X26050000Y42550000D02*
X26600000Y43100000D01*
X28100000Y54100000D02*
X28100000Y58800000D01*
X25530000Y68730000D02*
X27500000Y68730000D01*
X23100000Y66300000D02*
X25530000Y68730000D01*
X23100000Y62500000D02*
X23100000Y66300000D01*
X26000000Y59600000D02*
X23100000Y62500000D01*
X27300000Y59600000D02*
X26000000Y59600000D01*
X28100000Y58800000D02*
X27300000Y59600000D01*
X14535000Y13600000D02*
X14535000Y12165000D01*
X15200000Y21400000D02*
X15200000Y26100000D01*
X13700000Y19900000D02*
X15200000Y21400000D01*
X14535000Y12165000D02*
X14600000Y12100000D01*
X17550000Y29000000D02*
X17550000Y26850000D01*
X16800000Y26100000D02*
X15200000Y26100000D01*
X17550000Y26850000D02*
X16800000Y26100000D01*
X26700000Y22500000D02*
X26700000Y26100000D01*
X20050000Y29000000D02*
X25500000Y29000000D01*
X26700000Y27800000D02*
X26700000Y26100000D01*
X25500000Y29000000D02*
X26700000Y27800000D01*
X27500000Y21700000D02*
X26700000Y22500000D01*
X27500000Y20350000D02*
X27500000Y21700000D01*
X18750000Y10200000D02*
X16600000Y10200000D01*
X15805000Y9405000D02*
X15805000Y8200000D01*
X16600000Y10200000D02*
X15805000Y9405000D01*
X15805000Y8200000D02*
X15805000Y6595000D01*
X16900000Y5500000D02*
X21600000Y5500000D01*
X15805000Y6595000D02*
X16900000Y5500000D01*
X21250000Y10200000D02*
X24000000Y10200000D01*
X24700000Y10900000D02*
X24700000Y12300000D01*
X24000000Y10200000D02*
X24700000Y10900000D01*
X12300000Y58100000D02*
X10820000Y56620000D01*
X10820000Y56620000D02*
X10820000Y55110000D01*
X12300000Y61100000D02*
X12300000Y58100000D01*
X9700000Y58100000D02*
X9700000Y62600000D01*
X9700000Y62600000D02*
X10700000Y63600000D01*
X10700000Y63600000D02*
X10700000Y65090000D01*
X7400000Y64800000D02*
X9000000Y64800000D01*
X9290000Y65090000D02*
X10700000Y65090000D01*
X9000000Y64800000D02*
X9290000Y65090000D01*
X12900000Y65090000D02*
X10700000Y65090000D01*
X18300000Y63400000D02*
X18300000Y65090000D01*
X18500000Y63200000D02*
X18300000Y63400000D01*
X18500000Y59400000D02*
X18500000Y63200000D01*
X21600000Y64800000D02*
X20000000Y64800000D01*
X19710000Y65090000D02*
X18300000Y65090000D01*
X20000000Y64800000D02*
X19710000Y65090000D01*
X16100000Y65090000D02*
X18300000Y65090000D01*
X18440000Y47490000D02*
X18440000Y44700000D01*
X17000000Y44700000D02*
X18440000Y44700000D01*
X18440000Y44700000D02*
X20000000Y44700000D01*
X11900000Y44700000D02*
X8900000Y44700000D01*
X13360000Y47490000D02*
X13360000Y46160000D01*
X13360000Y46160000D02*
X11900000Y44700000D01*
X4250000Y9030000D02*
X4250000Y4300000D01*
X3090000Y10190000D02*
X4250000Y9030000D01*
X1500000Y10190000D02*
X3090000Y10190000D01*
X27500000Y12730000D02*
X26130000Y14100000D01*
X26130000Y14100000D02*
X22100000Y14100000D01*
X22100000Y14100000D02*
X20950000Y15250000D01*
X20950000Y15250000D02*
X20950000Y16400000D01*
X17900000Y14260000D02*
X17900000Y16400000D01*
X9100000Y24800000D02*
X9100000Y19600000D01*
X9100000Y19600000D02*
X10800000Y17900000D01*
X10800000Y17900000D02*
X16400000Y17900000D01*
X16400000Y17900000D02*
X17900000Y16400000D01*
X17900000Y16400000D02*
X20950000Y16400000D01*
X15805000Y13600000D02*
X16400000Y13600000D01*
X17060000Y14260000D02*
X17900000Y14260000D01*
X16400000Y13600000D02*
X17060000Y14260000D01*
X2810000Y17810000D02*
X1500000Y17810000D01*
X3900000Y18900000D02*
X2810000Y17810000D01*
X3900000Y26300000D02*
X3900000Y18900000D01*
X7900000Y30300000D02*
X3900000Y26300000D01*
X9250000Y30300000D02*
X7900000Y30300000D01*
X13265000Y13600000D02*
X13265000Y14765000D01*
X13700000Y15200000D02*
X13700000Y16100000D01*
X13265000Y14765000D02*
X13700000Y15200000D01*
X12200000Y16100000D02*
X13700000Y16100000D01*
X13700000Y16100000D02*
X15200000Y16100000D01*
X11600000Y5500000D02*
X13500000Y5500000D01*
X14535000Y6535000D02*
X14535000Y8200000D01*
X13500000Y5500000D02*
X14535000Y6535000D01*
X8900000Y34700000D02*
X8900000Y32300000D01*
X8900000Y32300000D02*
X2900000Y26300000D01*
X8280000Y55110000D02*
X8280000Y50280000D01*
X6900000Y49500000D02*
X3800000Y46400000D01*
X7500000Y49500000D02*
X6900000Y49500000D01*
X8280000Y50280000D02*
X7500000Y49500000D01*
X4100000Y39500000D02*
X8900000Y34700000D01*
X3800000Y46400000D02*
X3800000Y43800000D01*
X3800000Y43800000D02*
X4100000Y43500000D01*
X4100000Y43500000D02*
X4100000Y39500000D01*
X2300000Y58100000D02*
X6800000Y58100000D01*
X8280000Y56620000D02*
X8280000Y55110000D01*
X6800000Y58100000D02*
X8280000Y56620000D01*
X2900000Y26300000D02*
X2900000Y20600000D01*
X2650000Y20350000D02*
X1500000Y20350000D01*
X2900000Y20600000D02*
X2650000Y20350000D01*
X20000000Y34700000D02*
X20000000Y32700000D01*
X20000000Y32700000D02*
X19300000Y32000000D01*
X20000000Y34700000D02*
X20000000Y40700000D01*
X23520000Y49920000D02*
X23520000Y55110000D01*
X22200000Y48600000D02*
X23520000Y49920000D01*
X22200000Y42900000D02*
X22200000Y48600000D01*
X20000000Y40700000D02*
X22200000Y42900000D01*
X26700000Y58100000D02*
X24300000Y58100000D01*
X23520000Y57320000D02*
X23520000Y55110000D01*
X24300000Y58100000D02*
X23520000Y57320000D01*
X19300000Y32000000D02*
X11100000Y32000000D01*
X3130000Y12730000D02*
X1500000Y12730000D01*
X3900000Y13500000D02*
X3130000Y12730000D01*
X3900000Y16500000D02*
X3900000Y13500000D01*
X7600000Y20200000D02*
X3900000Y16500000D01*
X7600000Y26500000D02*
X7600000Y20200000D01*
X10500000Y29400000D02*
X7600000Y26500000D01*
X10500000Y31400000D02*
X10500000Y29400000D01*
X11100000Y32000000D02*
X10500000Y31400000D01*
X16700000Y58100000D02*
X20100000Y58100000D01*
X20980000Y57220000D02*
X20980000Y55110000D01*
X20100000Y58100000D02*
X20980000Y57220000D01*
X16700000Y61100000D02*
X16700000Y58100000D01*
G36*
X8580000Y19600005D02*
X8579999Y19600000D01*
X8619583Y19401005D01*
X8732304Y19232304D01*
X10432302Y17532307D01*
X10432304Y17532304D01*
X10567000Y17442304D01*
X10601005Y17419583D01*
X10800000Y17379999D01*
X10800005Y17380000D01*
X11710295Y17380000D01*
X11424971Y17262107D01*
X11039248Y16877056D01*
X10830238Y16373705D01*
X10829763Y15828686D01*
X10855139Y15767271D01*
X10389972Y15302104D01*
X10373525Y15305375D01*
X10262107Y15575029D01*
X9877056Y15960752D01*
X9373705Y16169762D01*
X8828686Y16170237D01*
X8324971Y15962107D01*
X7939248Y15577056D01*
X7832509Y15320000D01*
X7267482Y15320000D01*
X7162107Y15575029D01*
X6777056Y15960752D01*
X6273705Y16169762D01*
X5728686Y16170237D01*
X5224971Y15962107D01*
X4839248Y15577056D01*
X4630238Y15073705D01*
X4629763Y14528686D01*
X4837893Y14024971D01*
X5222944Y13639248D01*
X5726295Y13430238D01*
X6271314Y13429763D01*
X6775029Y13637893D01*
X7160752Y14022944D01*
X7267491Y14280000D01*
X7832518Y14280000D01*
X7937893Y14024971D01*
X8322944Y13639248D01*
X8580000Y13532509D01*
X8580000Y11477248D01*
X8350000Y11477248D01*
X8205633Y11448532D01*
X8083245Y11366755D01*
X8001468Y11244367D01*
X7972752Y11100000D01*
X7972752Y9700000D01*
X8001468Y9555633D01*
X8083245Y9433245D01*
X8205633Y9351468D01*
X8350000Y9322752D01*
X9750000Y9322752D01*
X9894367Y9351468D01*
X10016755Y9433245D01*
X10098532Y9555633D01*
X10127248Y9700000D01*
X10127248Y9880000D01*
X12050000Y9880000D01*
X12050000Y9397000D01*
X12004000Y9351000D01*
X12004000Y8209000D01*
X12024000Y8209000D01*
X12024000Y8191000D01*
X12004000Y8191000D01*
X12004000Y7049000D01*
X12121000Y6932000D01*
X12150000Y6932000D01*
X12150000Y6755034D01*
X11873705Y6869762D01*
X11328686Y6870237D01*
X10824971Y6662107D01*
X10439248Y6277056D01*
X10230238Y5773705D01*
X10229763Y5228686D01*
X10437893Y4724971D01*
X10642507Y4520000D01*
X9115392Y4520000D01*
X8967696Y4667696D01*
X8798995Y4780417D01*
X8600000Y4820001D01*
X8599995Y4820000D01*
X7827248Y4820000D01*
X7827248Y5000000D01*
X7798532Y5144367D01*
X7716755Y5266755D01*
X7594367Y5348532D01*
X7450000Y5377248D01*
X6050000Y5377248D01*
X5905633Y5348532D01*
X5783245Y5266755D01*
X5701468Y5144367D01*
X5672752Y5000000D01*
X5672752Y3600000D01*
X5701468Y3455633D01*
X5783245Y3333245D01*
X5905633Y3251468D01*
X6050000Y3222752D01*
X7450000Y3222752D01*
X7594367Y3251468D01*
X7716755Y3333245D01*
X7798532Y3455633D01*
X7827248Y3600000D01*
X7827248Y3780000D01*
X8384609Y3780000D01*
X8532302Y3632307D01*
X8532304Y3632304D01*
X8701005Y3519583D01*
X8900000Y3479999D01*
X8900005Y3480000D01*
X10642546Y3480000D01*
X10439248Y3277056D01*
X10230238Y2773705D01*
X10229763Y2228686D01*
X10437893Y1724971D01*
X10822944Y1339248D01*
X11326295Y1130238D01*
X11871314Y1129763D01*
X12375029Y1337893D01*
X12760752Y1722944D01*
X12896558Y2050000D01*
X14700000Y2050000D01*
X14742755Y2058504D01*
X14801004Y2019583D01*
X15000000Y1980000D01*
X20332518Y1980000D01*
X20437893Y1724971D01*
X20822944Y1339248D01*
X21326295Y1130238D01*
X21871314Y1129763D01*
X22326930Y1318019D01*
X23730747Y1318019D01*
X23827524Y1083827D01*
X24359346Y842521D01*
X24943030Y823102D01*
X25489715Y1028529D01*
X25572476Y1083827D01*
X25669253Y1318019D01*
X24700000Y2287272D01*
X23730747Y1318019D01*
X22326930Y1318019D01*
X22375029Y1337893D01*
X22760752Y1722944D01*
X22899451Y2056970D01*
X23223102Y2056970D01*
X23428529Y1510285D01*
X23483827Y1427524D01*
X23718019Y1330747D01*
X24687272Y2300000D01*
X24712728Y2300000D01*
X25681981Y1330747D01*
X25916173Y1427524D01*
X26157479Y1959346D01*
X26176898Y2543030D01*
X25971471Y3089715D01*
X25916173Y3172476D01*
X25681981Y3269253D01*
X24712728Y2300000D01*
X24687272Y2300000D01*
X23718019Y3269253D01*
X23483827Y3172476D01*
X23242521Y2640654D01*
X23223102Y2056970D01*
X22899451Y2056970D01*
X22969762Y2226295D01*
X22970237Y2771314D01*
X22762107Y3275029D01*
X22755168Y3281981D01*
X23730747Y3281981D01*
X24700000Y2312728D01*
X25669253Y3281981D01*
X25572476Y3516173D01*
X25040654Y3757479D01*
X24456970Y3776898D01*
X23910285Y3571471D01*
X23827524Y3516173D01*
X23730747Y3281981D01*
X22755168Y3281981D01*
X22377056Y3660752D01*
X21873705Y3869762D01*
X21328686Y3870237D01*
X20824971Y3662107D01*
X20439248Y3277056D01*
X20332509Y3020000D01*
X15215391Y3020000D01*
X14150000Y4085392D01*
X14150000Y5414608D01*
X14785392Y6050000D01*
X15614608Y6050000D01*
X16532302Y5132307D01*
X16532304Y5132304D01*
X16701005Y5019583D01*
X16900000Y4979999D01*
X16900005Y4980000D01*
X20332518Y4980000D01*
X20437893Y4724971D01*
X20822944Y4339248D01*
X21326295Y4130238D01*
X21871314Y4129763D01*
X22375029Y4337893D01*
X22760752Y4722944D01*
X22969762Y5226295D01*
X22970237Y5771314D01*
X22762107Y6275029D01*
X22377056Y6660752D01*
X22012296Y6812214D01*
X26674942Y6812214D01*
X26747386Y6598804D01*
X27206950Y6390809D01*
X27711129Y6374514D01*
X28183164Y6552401D01*
X28252614Y6598804D01*
X28325058Y6812214D01*
X27500000Y7637272D01*
X26674942Y6812214D01*
X22012296Y6812214D01*
X21873705Y6869762D01*
X21328686Y6870237D01*
X20824971Y6662107D01*
X20439248Y6277056D01*
X20332509Y6020000D01*
X17115391Y6020000D01*
X16325000Y6810392D01*
X16325000Y7160637D01*
X16336607Y7168393D01*
X16444397Y7329711D01*
X16466110Y7438871D01*
X26224514Y7438871D01*
X26402401Y6966836D01*
X26448804Y6897386D01*
X26662214Y6824942D01*
X27487272Y7650000D01*
X26662214Y8475058D01*
X26448804Y8402614D01*
X26240809Y7943050D01*
X26224514Y7438871D01*
X16466110Y7438871D01*
X16482248Y7520000D01*
X16482248Y8487786D01*
X26674942Y8487786D01*
X27500000Y7662728D01*
X28325058Y8487786D01*
X28252614Y8701196D01*
X27793050Y8909191D01*
X27288871Y8925486D01*
X26816836Y8747599D01*
X26747386Y8701196D01*
X26674942Y8487786D01*
X16482248Y8487786D01*
X16482248Y8880000D01*
X16444397Y9070289D01*
X16348780Y9213389D01*
X16815391Y9680000D01*
X17672752Y9680000D01*
X17672752Y9500000D01*
X17701468Y9355633D01*
X17783245Y9233245D01*
X17905633Y9151468D01*
X18050000Y9122752D01*
X19450000Y9122752D01*
X19594367Y9151468D01*
X19716755Y9233245D01*
X19798532Y9355633D01*
X19827248Y9500000D01*
X19827248Y10900000D01*
X19798532Y11044367D01*
X19716755Y11166755D01*
X19594367Y11248532D01*
X19450000Y11277248D01*
X18050000Y11277248D01*
X17905633Y11248532D01*
X17783245Y11166755D01*
X17701468Y11044367D01*
X17672752Y10900000D01*
X17672752Y10720000D01*
X16600005Y10720000D01*
X16600000Y10720001D01*
X16401005Y10680417D01*
X16232304Y10567696D01*
X16232302Y10567693D01*
X15514608Y9850000D01*
X13667906Y9850000D01*
X13632696Y9902696D01*
X13632693Y9902698D01*
X12767696Y10767696D01*
X12598995Y10880417D01*
X12400000Y10920001D01*
X12399995Y10920000D01*
X10127248Y10920000D01*
X10127248Y11100000D01*
X10098532Y11244367D01*
X10016755Y11366755D01*
X9894367Y11448532D01*
X9750000Y11477248D01*
X9620000Y11477248D01*
X9620000Y13532518D01*
X9875029Y13637893D01*
X10260752Y14022944D01*
X10284492Y14080116D01*
X11132302Y13232307D01*
X11132304Y13232304D01*
X11233433Y13164733D01*
X11301004Y13119583D01*
X11317752Y13116252D01*
X11317752Y12920000D01*
X11355603Y12729711D01*
X11463393Y12568393D01*
X11624711Y12460603D01*
X11815000Y12422752D01*
X12175000Y12422752D01*
X12365289Y12460603D01*
X12526607Y12568393D01*
X12630000Y12723130D01*
X12733393Y12568393D01*
X12894711Y12460603D01*
X13085000Y12422752D01*
X13276301Y12422752D01*
X13779905Y11991092D01*
X13779858Y11937607D01*
X13904432Y11636114D01*
X14134901Y11405243D01*
X14436176Y11280142D01*
X14762393Y11279858D01*
X15063886Y11404432D01*
X15294757Y11634901D01*
X15419858Y11936176D01*
X15420142Y12262393D01*
X15301453Y12549644D01*
X15434711Y12460603D01*
X15625000Y12422752D01*
X15985000Y12422752D01*
X16175289Y12460603D01*
X16336607Y12568393D01*
X16444397Y12729711D01*
X16482248Y12920000D01*
X16482248Y13096360D01*
X16598995Y13119583D01*
X16767696Y13232304D01*
X17161848Y13626456D01*
X17349822Y13438154D01*
X17706209Y13290169D01*
X18092098Y13289832D01*
X18448743Y13437195D01*
X18721846Y13709822D01*
X18869831Y14066209D01*
X18870168Y14452098D01*
X18722805Y14808743D01*
X18450178Y15081846D01*
X18420000Y15094377D01*
X18420000Y15880000D01*
X19872752Y15880000D01*
X19872752Y15700000D01*
X19901468Y15555633D01*
X19983245Y15433245D01*
X20105633Y15351468D01*
X20250000Y15322752D01*
X20430000Y15322752D01*
X20430000Y15250005D01*
X20429999Y15250000D01*
X20469583Y15051005D01*
X20582304Y14882304D01*
X21732302Y13732307D01*
X21732304Y13732304D01*
X21825195Y13670237D01*
X21901005Y13619583D01*
X22100000Y13579999D01*
X22100005Y13580000D01*
X24210295Y13580000D01*
X23924971Y13462107D01*
X23539248Y13077056D01*
X23330238Y12573705D01*
X23329763Y12028686D01*
X23537893Y11524971D01*
X23922944Y11139248D01*
X24121436Y11056827D01*
X23784608Y10720000D01*
X22192882Y10720000D01*
X22157631Y10805315D01*
X21856898Y11106573D01*
X21463770Y11269814D01*
X21038098Y11270186D01*
X20644685Y11107631D01*
X20343427Y10806898D01*
X20180186Y10413770D01*
X20179814Y9988098D01*
X20342369Y9594685D01*
X20643102Y9293427D01*
X21036230Y9130186D01*
X21461902Y9129814D01*
X21855315Y9292369D01*
X21915264Y9352214D01*
X26674942Y9352214D01*
X26747386Y9138804D01*
X27206950Y8930809D01*
X27711129Y8914514D01*
X28183164Y9092401D01*
X28252614Y9138804D01*
X28325058Y9352214D01*
X27500000Y10177272D01*
X26674942Y9352214D01*
X21915264Y9352214D01*
X22156573Y9593102D01*
X22192656Y9680000D01*
X23999995Y9680000D01*
X24000000Y9679999D01*
X24198995Y9719583D01*
X24367696Y9832304D01*
X24514262Y9978871D01*
X26224514Y9978871D01*
X26402401Y9506836D01*
X26448804Y9437386D01*
X26662214Y9364942D01*
X27487272Y10190000D01*
X26662214Y11015058D01*
X26448804Y10942614D01*
X26240809Y10483050D01*
X26224514Y9978871D01*
X24514262Y9978871D01*
X25067693Y10532302D01*
X25067696Y10532304D01*
X25180417Y10701005D01*
X25220000Y10900000D01*
X25220000Y11027786D01*
X26674942Y11027786D01*
X27500000Y10202728D01*
X28325058Y11027786D01*
X28252614Y11241196D01*
X27793050Y11449191D01*
X27288871Y11465486D01*
X26816836Y11287599D01*
X26747386Y11241196D01*
X26674942Y11027786D01*
X25220000Y11027786D01*
X25220000Y11032518D01*
X25475029Y11137893D01*
X25860752Y11522944D01*
X26038081Y11950000D01*
X26625452Y11950000D01*
X26836383Y11738700D01*
X27266252Y11560203D01*
X27731706Y11559797D01*
X28161886Y11737544D01*
X28491300Y12066383D01*
X28580000Y12279997D01*
X28580000Y10899504D01*
X28551196Y10942614D01*
X28337786Y11015058D01*
X27512728Y10190000D01*
X28337786Y9364942D01*
X28551196Y9437386D01*
X28580000Y9501028D01*
X28580000Y8359504D01*
X28551196Y8402614D01*
X28337786Y8475058D01*
X27512728Y7650000D01*
X28337786Y6824942D01*
X28551196Y6897386D01*
X28580000Y6961028D01*
X28580000Y420000D01*
X420000Y420000D01*
X420000Y6812214D01*
X674942Y6812214D01*
X747386Y6598804D01*
X1206950Y6390809D01*
X1711129Y6374514D01*
X2183164Y6552401D01*
X2252614Y6598804D01*
X2325058Y6812214D01*
X1500000Y7637272D01*
X674942Y6812214D01*
X420000Y6812214D01*
X420000Y6940496D01*
X448804Y6897386D01*
X662214Y6824942D01*
X1487272Y7650000D01*
X1512728Y7650000D01*
X2337786Y6824942D01*
X2551196Y6897386D01*
X2759191Y7356950D01*
X2775486Y7861129D01*
X2597599Y8333164D01*
X2551196Y8402614D01*
X2337786Y8475058D01*
X1512728Y7650000D01*
X1487272Y7650000D01*
X662214Y8475058D01*
X448804Y8402614D01*
X420000Y8338972D01*
X420000Y8487786D01*
X674942Y8487786D01*
X1500000Y7662728D01*
X2325058Y8487786D01*
X2252614Y8701196D01*
X1793050Y8909191D01*
X1288871Y8925486D01*
X816836Y8747599D01*
X747386Y8701196D01*
X674942Y8487786D01*
X420000Y8487786D01*
X420000Y9739986D01*
X507544Y9528114D01*
X836383Y9198700D01*
X1266252Y9020203D01*
X1731706Y9019797D01*
X2161886Y9197544D01*
X2491300Y9526383D01*
X2550935Y9670000D01*
X2874608Y9670000D01*
X3730000Y8814609D01*
X3730000Y5242882D01*
X3644685Y5207631D01*
X3343427Y4906898D01*
X3180186Y4513770D01*
X3179814Y4088098D01*
X3342369Y3694685D01*
X3643102Y3393427D01*
X4036230Y3230186D01*
X4461902Y3229814D01*
X4855315Y3392369D01*
X5156573Y3693102D01*
X5319814Y4086230D01*
X5320186Y4511902D01*
X5157631Y4905315D01*
X4856898Y5206573D01*
X4770000Y5242656D01*
X4770000Y8074000D01*
X11227000Y8074000D01*
X11227000Y7306909D01*
X11298249Y7134899D01*
X11429899Y7003249D01*
X11601909Y6932000D01*
X11869000Y6932000D01*
X11986000Y7049000D01*
X11986000Y8191000D01*
X11344000Y8191000D01*
X11227000Y8074000D01*
X4770000Y8074000D01*
X4770000Y9029995D01*
X4770001Y9030000D01*
X4757451Y9093091D01*
X11227000Y9093091D01*
X11227000Y8326000D01*
X11344000Y8209000D01*
X11986000Y8209000D01*
X11986000Y9351000D01*
X11869000Y9468000D01*
X11601909Y9468000D01*
X11429899Y9396751D01*
X11298249Y9265101D01*
X11227000Y9093091D01*
X4757451Y9093091D01*
X4730417Y9228995D01*
X4727577Y9233245D01*
X4617696Y9397696D01*
X4617693Y9397698D01*
X4381078Y9634314D01*
X5797042Y9634314D01*
X5857318Y9431293D01*
X6280753Y9239954D01*
X6745178Y9225221D01*
X7179890Y9389337D01*
X7242682Y9431293D01*
X7302958Y9634314D01*
X6550000Y10387272D01*
X5797042Y9634314D01*
X4381078Y9634314D01*
X3810570Y10204822D01*
X5375221Y10204822D01*
X5539337Y9770110D01*
X5581293Y9707318D01*
X5784314Y9647042D01*
X6537272Y10400000D01*
X6562728Y10400000D01*
X7315686Y9647042D01*
X7518707Y9707318D01*
X7710046Y10130753D01*
X7724779Y10595178D01*
X7560663Y11029890D01*
X7518707Y11092682D01*
X7315686Y11152958D01*
X6562728Y10400000D01*
X6537272Y10400000D01*
X5784314Y11152958D01*
X5581293Y11092682D01*
X5389954Y10669247D01*
X5375221Y10204822D01*
X3810570Y10204822D01*
X3457696Y10557696D01*
X3288995Y10670417D01*
X3090000Y10710001D01*
X3089995Y10710000D01*
X2551082Y10710000D01*
X2550000Y10712619D01*
X2550000Y11165686D01*
X5797042Y11165686D01*
X6550000Y10412728D01*
X7302958Y11165686D01*
X7242682Y11368707D01*
X6819247Y11560046D01*
X6354822Y11574779D01*
X5920110Y11410663D01*
X5857318Y11368707D01*
X5797042Y11165686D01*
X2550000Y11165686D01*
X2550000Y12207748D01*
X2550935Y12210000D01*
X3129995Y12210000D01*
X3130000Y12209999D01*
X3328995Y12249583D01*
X3497696Y12362304D01*
X4267693Y13132302D01*
X4267696Y13132304D01*
X4373177Y13290169D01*
X4380417Y13301004D01*
X4420000Y13500000D01*
X4420000Y16284608D01*
X7885391Y19750000D01*
X8580000Y19750000D01*
X8580000Y19600005D01*
X8580000Y19600005D01*
G37*
X8580000Y19600005D02*
X8579999Y19600000D01*
X8619583Y19401005D01*
X8732304Y19232304D01*
X10432302Y17532307D01*
X10432304Y17532304D01*
X10567000Y17442304D01*
X10601005Y17419583D01*
X10800000Y17379999D01*
X10800005Y17380000D01*
X11710295Y17380000D01*
X11424971Y17262107D01*
X11039248Y16877056D01*
X10830238Y16373705D01*
X10829763Y15828686D01*
X10855139Y15767271D01*
X10389972Y15302104D01*
X10373525Y15305375D01*
X10262107Y15575029D01*
X9877056Y15960752D01*
X9373705Y16169762D01*
X8828686Y16170237D01*
X8324971Y15962107D01*
X7939248Y15577056D01*
X7832509Y15320000D01*
X7267482Y15320000D01*
X7162107Y15575029D01*
X6777056Y15960752D01*
X6273705Y16169762D01*
X5728686Y16170237D01*
X5224971Y15962107D01*
X4839248Y15577056D01*
X4630238Y15073705D01*
X4629763Y14528686D01*
X4837893Y14024971D01*
X5222944Y13639248D01*
X5726295Y13430238D01*
X6271314Y13429763D01*
X6775029Y13637893D01*
X7160752Y14022944D01*
X7267491Y14280000D01*
X7832518Y14280000D01*
X7937893Y14024971D01*
X8322944Y13639248D01*
X8580000Y13532509D01*
X8580000Y11477248D01*
X8350000Y11477248D01*
X8205633Y11448532D01*
X8083245Y11366755D01*
X8001468Y11244367D01*
X7972752Y11100000D01*
X7972752Y9700000D01*
X8001468Y9555633D01*
X8083245Y9433245D01*
X8205633Y9351468D01*
X8350000Y9322752D01*
X9750000Y9322752D01*
X9894367Y9351468D01*
X10016755Y9433245D01*
X10098532Y9555633D01*
X10127248Y9700000D01*
X10127248Y9880000D01*
X12050000Y9880000D01*
X12050000Y9397000D01*
X12004000Y9351000D01*
X12004000Y8209000D01*
X12024000Y8209000D01*
X12024000Y8191000D01*
X12004000Y8191000D01*
X12004000Y7049000D01*
X12121000Y6932000D01*
X12150000Y6932000D01*
X12150000Y6755034D01*
X11873705Y6869762D01*
X11328686Y6870237D01*
X10824971Y6662107D01*
X10439248Y6277056D01*
X10230238Y5773705D01*
X10229763Y5228686D01*
X10437893Y4724971D01*
X10642507Y4520000D01*
X9115392Y4520000D01*
X8967696Y4667696D01*
X8798995Y4780417D01*
X8600000Y4820001D01*
X8599995Y4820000D01*
X7827248Y4820000D01*
X7827248Y5000000D01*
X7798532Y5144367D01*
X7716755Y5266755D01*
X7594367Y5348532D01*
X7450000Y5377248D01*
X6050000Y5377248D01*
X5905633Y5348532D01*
X5783245Y5266755D01*
X5701468Y5144367D01*
X5672752Y5000000D01*
X5672752Y3600000D01*
X5701468Y3455633D01*
X5783245Y3333245D01*
X5905633Y3251468D01*
X6050000Y3222752D01*
X7450000Y3222752D01*
X7594367Y3251468D01*
X7716755Y3333245D01*
X7798532Y3455633D01*
X7827248Y3600000D01*
X7827248Y3780000D01*
X8384609Y3780000D01*
X8532302Y3632307D01*
X8532304Y3632304D01*
X8701005Y3519583D01*
X8900000Y3479999D01*
X8900005Y3480000D01*
X10642546Y3480000D01*
X10439248Y3277056D01*
X10230238Y2773705D01*
X10229763Y2228686D01*
X10437893Y1724971D01*
X10822944Y1339248D01*
X11326295Y1130238D01*
X11871314Y1129763D01*
X12375029Y1337893D01*
X12760752Y1722944D01*
X12896558Y2050000D01*
X14700000Y2050000D01*
X14742755Y2058504D01*
X14801004Y2019583D01*
X15000000Y1980000D01*
X20332518Y1980000D01*
X20437893Y1724971D01*
X20822944Y1339248D01*
X21326295Y1130238D01*
X21871314Y1129763D01*
X22326930Y1318019D01*
X23730747Y1318019D01*
X23827524Y1083827D01*
X24359346Y842521D01*
X24943030Y823102D01*
X25489715Y1028529D01*
X25572476Y1083827D01*
X25669253Y1318019D01*
X24700000Y2287272D01*
X23730747Y1318019D01*
X22326930Y1318019D01*
X22375029Y1337893D01*
X22760752Y1722944D01*
X22899451Y2056970D01*
X23223102Y2056970D01*
X23428529Y1510285D01*
X23483827Y1427524D01*
X23718019Y1330747D01*
X24687272Y2300000D01*
X24712728Y2300000D01*
X25681981Y1330747D01*
X25916173Y1427524D01*
X26157479Y1959346D01*
X26176898Y2543030D01*
X25971471Y3089715D01*
X25916173Y3172476D01*
X25681981Y3269253D01*
X24712728Y2300000D01*
X24687272Y2300000D01*
X23718019Y3269253D01*
X23483827Y3172476D01*
X23242521Y2640654D01*
X23223102Y2056970D01*
X22899451Y2056970D01*
X22969762Y2226295D01*
X22970237Y2771314D01*
X22762107Y3275029D01*
X22755168Y3281981D01*
X23730747Y3281981D01*
X24700000Y2312728D01*
X25669253Y3281981D01*
X25572476Y3516173D01*
X25040654Y3757479D01*
X24456970Y3776898D01*
X23910285Y3571471D01*
X23827524Y3516173D01*
X23730747Y3281981D01*
X22755168Y3281981D01*
X22377056Y3660752D01*
X21873705Y3869762D01*
X21328686Y3870237D01*
X20824971Y3662107D01*
X20439248Y3277056D01*
X20332509Y3020000D01*
X15215391Y3020000D01*
X14150000Y4085392D01*
X14150000Y5414608D01*
X14785392Y6050000D01*
X15614608Y6050000D01*
X16532302Y5132307D01*
X16532304Y5132304D01*
X16701005Y5019583D01*
X16900000Y4979999D01*
X16900005Y4980000D01*
X20332518Y4980000D01*
X20437893Y4724971D01*
X20822944Y4339248D01*
X21326295Y4130238D01*
X21871314Y4129763D01*
X22375029Y4337893D01*
X22760752Y4722944D01*
X22969762Y5226295D01*
X22970237Y5771314D01*
X22762107Y6275029D01*
X22377056Y6660752D01*
X22012296Y6812214D01*
X26674942Y6812214D01*
X26747386Y6598804D01*
X27206950Y6390809D01*
X27711129Y6374514D01*
X28183164Y6552401D01*
X28252614Y6598804D01*
X28325058Y6812214D01*
X27500000Y7637272D01*
X26674942Y6812214D01*
X22012296Y6812214D01*
X21873705Y6869762D01*
X21328686Y6870237D01*
X20824971Y6662107D01*
X20439248Y6277056D01*
X20332509Y6020000D01*
X17115391Y6020000D01*
X16325000Y6810392D01*
X16325000Y7160637D01*
X16336607Y7168393D01*
X16444397Y7329711D01*
X16466110Y7438871D01*
X26224514Y7438871D01*
X26402401Y6966836D01*
X26448804Y6897386D01*
X26662214Y6824942D01*
X27487272Y7650000D01*
X26662214Y8475058D01*
X26448804Y8402614D01*
X26240809Y7943050D01*
X26224514Y7438871D01*
X16466110Y7438871D01*
X16482248Y7520000D01*
X16482248Y8487786D01*
X26674942Y8487786D01*
X27500000Y7662728D01*
X28325058Y8487786D01*
X28252614Y8701196D01*
X27793050Y8909191D01*
X27288871Y8925486D01*
X26816836Y8747599D01*
X26747386Y8701196D01*
X26674942Y8487786D01*
X16482248Y8487786D01*
X16482248Y8880000D01*
X16444397Y9070289D01*
X16348780Y9213389D01*
X16815391Y9680000D01*
X17672752Y9680000D01*
X17672752Y9500000D01*
X17701468Y9355633D01*
X17783245Y9233245D01*
X17905633Y9151468D01*
X18050000Y9122752D01*
X19450000Y9122752D01*
X19594367Y9151468D01*
X19716755Y9233245D01*
X19798532Y9355633D01*
X19827248Y9500000D01*
X19827248Y10900000D01*
X19798532Y11044367D01*
X19716755Y11166755D01*
X19594367Y11248532D01*
X19450000Y11277248D01*
X18050000Y11277248D01*
X17905633Y11248532D01*
X17783245Y11166755D01*
X17701468Y11044367D01*
X17672752Y10900000D01*
X17672752Y10720000D01*
X16600005Y10720000D01*
X16600000Y10720001D01*
X16401005Y10680417D01*
X16232304Y10567696D01*
X16232302Y10567693D01*
X15514608Y9850000D01*
X13667906Y9850000D01*
X13632696Y9902696D01*
X13632693Y9902698D01*
X12767696Y10767696D01*
X12598995Y10880417D01*
X12400000Y10920001D01*
X12399995Y10920000D01*
X10127248Y10920000D01*
X10127248Y11100000D01*
X10098532Y11244367D01*
X10016755Y11366755D01*
X9894367Y11448532D01*
X9750000Y11477248D01*
X9620000Y11477248D01*
X9620000Y13532518D01*
X9875029Y13637893D01*
X10260752Y14022944D01*
X10284492Y14080116D01*
X11132302Y13232307D01*
X11132304Y13232304D01*
X11233433Y13164733D01*
X11301004Y13119583D01*
X11317752Y13116252D01*
X11317752Y12920000D01*
X11355603Y12729711D01*
X11463393Y12568393D01*
X11624711Y12460603D01*
X11815000Y12422752D01*
X12175000Y12422752D01*
X12365289Y12460603D01*
X12526607Y12568393D01*
X12630000Y12723130D01*
X12733393Y12568393D01*
X12894711Y12460603D01*
X13085000Y12422752D01*
X13276301Y12422752D01*
X13779905Y11991092D01*
X13779858Y11937607D01*
X13904432Y11636114D01*
X14134901Y11405243D01*
X14436176Y11280142D01*
X14762393Y11279858D01*
X15063886Y11404432D01*
X15294757Y11634901D01*
X15419858Y11936176D01*
X15420142Y12262393D01*
X15301453Y12549644D01*
X15434711Y12460603D01*
X15625000Y12422752D01*
X15985000Y12422752D01*
X16175289Y12460603D01*
X16336607Y12568393D01*
X16444397Y12729711D01*
X16482248Y12920000D01*
X16482248Y13096360D01*
X16598995Y13119583D01*
X16767696Y13232304D01*
X17161848Y13626456D01*
X17349822Y13438154D01*
X17706209Y13290169D01*
X18092098Y13289832D01*
X18448743Y13437195D01*
X18721846Y13709822D01*
X18869831Y14066209D01*
X18870168Y14452098D01*
X18722805Y14808743D01*
X18450178Y15081846D01*
X18420000Y15094377D01*
X18420000Y15880000D01*
X19872752Y15880000D01*
X19872752Y15700000D01*
X19901468Y15555633D01*
X19983245Y15433245D01*
X20105633Y15351468D01*
X20250000Y15322752D01*
X20430000Y15322752D01*
X20430000Y15250005D01*
X20429999Y15250000D01*
X20469583Y15051005D01*
X20582304Y14882304D01*
X21732302Y13732307D01*
X21732304Y13732304D01*
X21825195Y13670237D01*
X21901005Y13619583D01*
X22100000Y13579999D01*
X22100005Y13580000D01*
X24210295Y13580000D01*
X23924971Y13462107D01*
X23539248Y13077056D01*
X23330238Y12573705D01*
X23329763Y12028686D01*
X23537893Y11524971D01*
X23922944Y11139248D01*
X24121436Y11056827D01*
X23784608Y10720000D01*
X22192882Y10720000D01*
X22157631Y10805315D01*
X21856898Y11106573D01*
X21463770Y11269814D01*
X21038098Y11270186D01*
X20644685Y11107631D01*
X20343427Y10806898D01*
X20180186Y10413770D01*
X20179814Y9988098D01*
X20342369Y9594685D01*
X20643102Y9293427D01*
X21036230Y9130186D01*
X21461902Y9129814D01*
X21855315Y9292369D01*
X21915264Y9352214D01*
X26674942Y9352214D01*
X26747386Y9138804D01*
X27206950Y8930809D01*
X27711129Y8914514D01*
X28183164Y9092401D01*
X28252614Y9138804D01*
X28325058Y9352214D01*
X27500000Y10177272D01*
X26674942Y9352214D01*
X21915264Y9352214D01*
X22156573Y9593102D01*
X22192656Y9680000D01*
X23999995Y9680000D01*
X24000000Y9679999D01*
X24198995Y9719583D01*
X24367696Y9832304D01*
X24514262Y9978871D01*
X26224514Y9978871D01*
X26402401Y9506836D01*
X26448804Y9437386D01*
X26662214Y9364942D01*
X27487272Y10190000D01*
X26662214Y11015058D01*
X26448804Y10942614D01*
X26240809Y10483050D01*
X26224514Y9978871D01*
X24514262Y9978871D01*
X25067693Y10532302D01*
X25067696Y10532304D01*
X25180417Y10701005D01*
X25220000Y10900000D01*
X25220000Y11027786D01*
X26674942Y11027786D01*
X27500000Y10202728D01*
X28325058Y11027786D01*
X28252614Y11241196D01*
X27793050Y11449191D01*
X27288871Y11465486D01*
X26816836Y11287599D01*
X26747386Y11241196D01*
X26674942Y11027786D01*
X25220000Y11027786D01*
X25220000Y11032518D01*
X25475029Y11137893D01*
X25860752Y11522944D01*
X26038081Y11950000D01*
X26625452Y11950000D01*
X26836383Y11738700D01*
X27266252Y11560203D01*
X27731706Y11559797D01*
X28161886Y11737544D01*
X28491300Y12066383D01*
X28580000Y12279997D01*
X28580000Y10899504D01*
X28551196Y10942614D01*
X28337786Y11015058D01*
X27512728Y10190000D01*
X28337786Y9364942D01*
X28551196Y9437386D01*
X28580000Y9501028D01*
X28580000Y8359504D01*
X28551196Y8402614D01*
X28337786Y8475058D01*
X27512728Y7650000D01*
X28337786Y6824942D01*
X28551196Y6897386D01*
X28580000Y6961028D01*
X28580000Y420000D01*
X420000Y420000D01*
X420000Y6812214D01*
X674942Y6812214D01*
X747386Y6598804D01*
X1206950Y6390809D01*
X1711129Y6374514D01*
X2183164Y6552401D01*
X2252614Y6598804D01*
X2325058Y6812214D01*
X1500000Y7637272D01*
X674942Y6812214D01*
X420000Y6812214D01*
X420000Y6940496D01*
X448804Y6897386D01*
X662214Y6824942D01*
X1487272Y7650000D01*
X1512728Y7650000D01*
X2337786Y6824942D01*
X2551196Y6897386D01*
X2759191Y7356950D01*
X2775486Y7861129D01*
X2597599Y8333164D01*
X2551196Y8402614D01*
X2337786Y8475058D01*
X1512728Y7650000D01*
X1487272Y7650000D01*
X662214Y8475058D01*
X448804Y8402614D01*
X420000Y8338972D01*
X420000Y8487786D01*
X674942Y8487786D01*
X1500000Y7662728D01*
X2325058Y8487786D01*
X2252614Y8701196D01*
X1793050Y8909191D01*
X1288871Y8925486D01*
X816836Y8747599D01*
X747386Y8701196D01*
X674942Y8487786D01*
X420000Y8487786D01*
X420000Y9739986D01*
X507544Y9528114D01*
X836383Y9198700D01*
X1266252Y9020203D01*
X1731706Y9019797D01*
X2161886Y9197544D01*
X2491300Y9526383D01*
X2550935Y9670000D01*
X2874608Y9670000D01*
X3730000Y8814609D01*
X3730000Y5242882D01*
X3644685Y5207631D01*
X3343427Y4906898D01*
X3180186Y4513770D01*
X3179814Y4088098D01*
X3342369Y3694685D01*
X3643102Y3393427D01*
X4036230Y3230186D01*
X4461902Y3229814D01*
X4855315Y3392369D01*
X5156573Y3693102D01*
X5319814Y4086230D01*
X5320186Y4511902D01*
X5157631Y4905315D01*
X4856898Y5206573D01*
X4770000Y5242656D01*
X4770000Y8074000D01*
X11227000Y8074000D01*
X11227000Y7306909D01*
X11298249Y7134899D01*
X11429899Y7003249D01*
X11601909Y6932000D01*
X11869000Y6932000D01*
X11986000Y7049000D01*
X11986000Y8191000D01*
X11344000Y8191000D01*
X11227000Y8074000D01*
X4770000Y8074000D01*
X4770000Y9029995D01*
X4770001Y9030000D01*
X4757451Y9093091D01*
X11227000Y9093091D01*
X11227000Y8326000D01*
X11344000Y8209000D01*
X11986000Y8209000D01*
X11986000Y9351000D01*
X11869000Y9468000D01*
X11601909Y9468000D01*
X11429899Y9396751D01*
X11298249Y9265101D01*
X11227000Y9093091D01*
X4757451Y9093091D01*
X4730417Y9228995D01*
X4727577Y9233245D01*
X4617696Y9397696D01*
X4617693Y9397698D01*
X4381078Y9634314D01*
X5797042Y9634314D01*
X5857318Y9431293D01*
X6280753Y9239954D01*
X6745178Y9225221D01*
X7179890Y9389337D01*
X7242682Y9431293D01*
X7302958Y9634314D01*
X6550000Y10387272D01*
X5797042Y9634314D01*
X4381078Y9634314D01*
X3810570Y10204822D01*
X5375221Y10204822D01*
X5539337Y9770110D01*
X5581293Y9707318D01*
X5784314Y9647042D01*
X6537272Y10400000D01*
X6562728Y10400000D01*
X7315686Y9647042D01*
X7518707Y9707318D01*
X7710046Y10130753D01*
X7724779Y10595178D01*
X7560663Y11029890D01*
X7518707Y11092682D01*
X7315686Y11152958D01*
X6562728Y10400000D01*
X6537272Y10400000D01*
X5784314Y11152958D01*
X5581293Y11092682D01*
X5389954Y10669247D01*
X5375221Y10204822D01*
X3810570Y10204822D01*
X3457696Y10557696D01*
X3288995Y10670417D01*
X3090000Y10710001D01*
X3089995Y10710000D01*
X2551082Y10710000D01*
X2550000Y10712619D01*
X2550000Y11165686D01*
X5797042Y11165686D01*
X6550000Y10412728D01*
X7302958Y11165686D01*
X7242682Y11368707D01*
X6819247Y11560046D01*
X6354822Y11574779D01*
X5920110Y11410663D01*
X5857318Y11368707D01*
X5797042Y11165686D01*
X2550000Y11165686D01*
X2550000Y12207748D01*
X2550935Y12210000D01*
X3129995Y12210000D01*
X3130000Y12209999D01*
X3328995Y12249583D01*
X3497696Y12362304D01*
X4267693Y13132302D01*
X4267696Y13132304D01*
X4373177Y13290169D01*
X4380417Y13301004D01*
X4420000Y13500000D01*
X4420000Y16284608D01*
X7885391Y19750000D01*
X8580000Y19750000D01*
X8580000Y19600005D01*
G36*
X8342369Y29694685D02*
X8643102Y29393427D01*
X9036230Y29230186D01*
X9461902Y29229814D01*
X9687735Y29323126D01*
X7232304Y26867696D01*
X7119583Y26698995D01*
X7079999Y26500000D01*
X7080000Y26499995D01*
X7080000Y25728748D01*
X6981981Y25769253D01*
X6012728Y24800000D01*
X6981981Y23830747D01*
X7080000Y23871252D01*
X7080000Y20415391D01*
X3532304Y16867696D01*
X3419583Y16698995D01*
X3379999Y16500000D01*
X3380000Y16499995D01*
X3380000Y13715391D01*
X2914608Y13250000D01*
X2551082Y13250000D01*
X2492456Y13391886D01*
X2163617Y13721300D01*
X1733748Y13899797D01*
X1268294Y13900203D01*
X838114Y13722456D01*
X508700Y13393617D01*
X420000Y13180003D01*
X420000Y14432214D01*
X674942Y14432214D01*
X747386Y14218804D01*
X1206950Y14010809D01*
X1711129Y13994514D01*
X2183164Y14172401D01*
X2252614Y14218804D01*
X2325058Y14432214D01*
X1500000Y15257272D01*
X674942Y14432214D01*
X420000Y14432214D01*
X420000Y14560496D01*
X448804Y14517386D01*
X662214Y14444942D01*
X1487272Y15270000D01*
X1512728Y15270000D01*
X2337786Y14444942D01*
X2551196Y14517386D01*
X2759191Y14976950D01*
X2775486Y15481129D01*
X2597599Y15953164D01*
X2551196Y16022614D01*
X2337786Y16095058D01*
X1512728Y15270000D01*
X1487272Y15270000D01*
X662214Y16095058D01*
X448804Y16022614D01*
X420000Y15958972D01*
X420000Y16107786D01*
X674942Y16107786D01*
X1500000Y15282728D01*
X2325058Y16107786D01*
X2252614Y16321196D01*
X1793050Y16529191D01*
X1288871Y16545486D01*
X816836Y16367599D01*
X747386Y16321196D01*
X674942Y16107786D01*
X420000Y16107786D01*
X420000Y17359986D01*
X507544Y17148114D01*
X836383Y16818700D01*
X1266252Y16640203D01*
X1731706Y16639797D01*
X2161886Y16817544D01*
X2491300Y17146383D01*
X2550935Y17290000D01*
X2809995Y17290000D01*
X2810000Y17289999D01*
X3008995Y17329583D01*
X3177696Y17442304D01*
X4267693Y18532302D01*
X4267696Y18532304D01*
X4380417Y18701005D01*
X4381659Y18707250D01*
X4420001Y18900000D01*
X4420000Y18900005D01*
X4420000Y23818019D01*
X5030747Y23818019D01*
X5127524Y23583827D01*
X5659346Y23342521D01*
X6243030Y23323102D01*
X6789715Y23528529D01*
X6872476Y23583827D01*
X6969253Y23818019D01*
X6000000Y24787272D01*
X5030747Y23818019D01*
X4420000Y23818019D01*
X4420000Y24556970D01*
X4523102Y24556970D01*
X4728529Y24010285D01*
X4783827Y23927524D01*
X5018019Y23830747D01*
X5987272Y24800000D01*
X5018019Y25769253D01*
X4783827Y25672476D01*
X4542521Y25140654D01*
X4523102Y24556970D01*
X4420000Y24556970D01*
X4420000Y25781981D01*
X5030747Y25781981D01*
X6000000Y24812728D01*
X6969253Y25781981D01*
X6872476Y26016173D01*
X6340654Y26257479D01*
X5756970Y26276898D01*
X5210285Y26071471D01*
X5127524Y26016173D01*
X5030747Y25781981D01*
X4420000Y25781981D01*
X4420000Y26084608D01*
X8115391Y29780000D01*
X8307118Y29780000D01*
X8342369Y29694685D01*
X8342369Y29694685D01*
G37*
X8342369Y29694685D02*
X8643102Y29393427D01*
X9036230Y29230186D01*
X9461902Y29229814D01*
X9687735Y29323126D01*
X7232304Y26867696D01*
X7119583Y26698995D01*
X7079999Y26500000D01*
X7080000Y26499995D01*
X7080000Y25728748D01*
X6981981Y25769253D01*
X6012728Y24800000D01*
X6981981Y23830747D01*
X7080000Y23871252D01*
X7080000Y20415391D01*
X3532304Y16867696D01*
X3419583Y16698995D01*
X3379999Y16500000D01*
X3380000Y16499995D01*
X3380000Y13715391D01*
X2914608Y13250000D01*
X2551082Y13250000D01*
X2492456Y13391886D01*
X2163617Y13721300D01*
X1733748Y13899797D01*
X1268294Y13900203D01*
X838114Y13722456D01*
X508700Y13393617D01*
X420000Y13180003D01*
X420000Y14432214D01*
X674942Y14432214D01*
X747386Y14218804D01*
X1206950Y14010809D01*
X1711129Y13994514D01*
X2183164Y14172401D01*
X2252614Y14218804D01*
X2325058Y14432214D01*
X1500000Y15257272D01*
X674942Y14432214D01*
X420000Y14432214D01*
X420000Y14560496D01*
X448804Y14517386D01*
X662214Y14444942D01*
X1487272Y15270000D01*
X1512728Y15270000D01*
X2337786Y14444942D01*
X2551196Y14517386D01*
X2759191Y14976950D01*
X2775486Y15481129D01*
X2597599Y15953164D01*
X2551196Y16022614D01*
X2337786Y16095058D01*
X1512728Y15270000D01*
X1487272Y15270000D01*
X662214Y16095058D01*
X448804Y16022614D01*
X420000Y15958972D01*
X420000Y16107786D01*
X674942Y16107786D01*
X1500000Y15282728D01*
X2325058Y16107786D01*
X2252614Y16321196D01*
X1793050Y16529191D01*
X1288871Y16545486D01*
X816836Y16367599D01*
X747386Y16321196D01*
X674942Y16107786D01*
X420000Y16107786D01*
X420000Y17359986D01*
X507544Y17148114D01*
X836383Y16818700D01*
X1266252Y16640203D01*
X1731706Y16639797D01*
X2161886Y16817544D01*
X2491300Y17146383D01*
X2550935Y17290000D01*
X2809995Y17290000D01*
X2810000Y17289999D01*
X3008995Y17329583D01*
X3177696Y17442304D01*
X4267693Y18532302D01*
X4267696Y18532304D01*
X4380417Y18701005D01*
X4381659Y18707250D01*
X4420001Y18900000D01*
X4420000Y18900005D01*
X4420000Y23818019D01*
X5030747Y23818019D01*
X5127524Y23583827D01*
X5659346Y23342521D01*
X6243030Y23323102D01*
X6789715Y23528529D01*
X6872476Y23583827D01*
X6969253Y23818019D01*
X6000000Y24787272D01*
X5030747Y23818019D01*
X4420000Y23818019D01*
X4420000Y24556970D01*
X4523102Y24556970D01*
X4728529Y24010285D01*
X4783827Y23927524D01*
X5018019Y23830747D01*
X5987272Y24800000D01*
X5018019Y25769253D01*
X4783827Y25672476D01*
X4542521Y25140654D01*
X4523102Y24556970D01*
X4420000Y24556970D01*
X4420000Y25781981D01*
X5030747Y25781981D01*
X6000000Y24812728D01*
X6969253Y25781981D01*
X6872476Y26016173D01*
X6340654Y26257479D01*
X5756970Y26276898D01*
X5210285Y26071471D01*
X5127524Y26016173D01*
X5030747Y25781981D01*
X4420000Y25781981D01*
X4420000Y26084608D01*
X8115391Y29780000D01*
X8307118Y29780000D01*
X8342369Y29694685D01*
G36*
X25537893Y57324971D02*
X25922944Y56939248D01*
X26334374Y56768407D01*
X25810285Y56571471D01*
X25727524Y56516173D01*
X25630747Y56281981D01*
X26600000Y55312728D01*
X26614142Y55326870D01*
X26626870Y55314142D01*
X26612728Y55300000D01*
X26626870Y55285858D01*
X26614142Y55273130D01*
X26600000Y55287272D01*
X25630747Y54318019D01*
X25727524Y54083827D01*
X26150000Y53892135D01*
X26150000Y52844518D01*
X26119583Y52798995D01*
X26079999Y52600000D01*
X26080000Y52599995D01*
X26080000Y46567482D01*
X25824971Y46462107D01*
X25439248Y46077056D01*
X25230238Y45573705D01*
X25229763Y45028686D01*
X25437893Y44524971D01*
X25822944Y44139248D01*
X26080000Y44032509D01*
X26080000Y43315391D01*
X25682304Y42917696D01*
X25569583Y42748995D01*
X25529999Y42550000D01*
X25530000Y42549995D01*
X25530000Y41742882D01*
X25444685Y41707631D01*
X25143427Y41406898D01*
X24980186Y41013770D01*
X24979814Y40588098D01*
X25142369Y40194685D01*
X25443102Y39893427D01*
X25836230Y39730186D01*
X26261902Y39729814D01*
X26655315Y39892369D01*
X26956573Y40193102D01*
X27119814Y40586230D01*
X27120186Y41011902D01*
X26957631Y41405315D01*
X26656898Y41706573D01*
X26570000Y41742656D01*
X26570000Y42334608D01*
X26967693Y42732302D01*
X26967696Y42732304D01*
X27035267Y42833433D01*
X27080417Y42901004D01*
X27120000Y43100000D01*
X27120000Y44032518D01*
X27375029Y44137893D01*
X27760752Y44522944D01*
X27969762Y45026295D01*
X27970237Y45571314D01*
X27762107Y46075029D01*
X27377056Y46460752D01*
X27120000Y46567491D01*
X27120000Y52384608D01*
X28467693Y53732302D01*
X28467696Y53732304D01*
X28541340Y53842521D01*
X28580000Y53900380D01*
X28580000Y21396932D01*
X28566755Y21416755D01*
X28444367Y21498532D01*
X28300000Y21527248D01*
X28020000Y21527248D01*
X28020000Y21699995D01*
X28020001Y21700000D01*
X27980417Y21898995D01*
X27926292Y21980000D01*
X27867696Y22067696D01*
X27867693Y22067698D01*
X27220000Y22715392D01*
X27220000Y24832518D01*
X27475029Y24937893D01*
X27860752Y25322944D01*
X28069762Y25826295D01*
X28070237Y26371314D01*
X27862107Y26875029D01*
X27477056Y27260752D01*
X27220000Y27367491D01*
X27220000Y27800000D01*
X27180417Y27998995D01*
X27180417Y27998996D01*
X27078848Y28151005D01*
X27067696Y28167696D01*
X27067693Y28167698D01*
X25867696Y29367696D01*
X25698995Y29480417D01*
X25500000Y29520001D01*
X25499995Y29520000D01*
X20992882Y29520000D01*
X20957631Y29605315D01*
X20656898Y29906573D01*
X20263770Y30069814D01*
X19838098Y30070186D01*
X19444685Y29907631D01*
X19143427Y29606898D01*
X18980186Y29213770D01*
X18979814Y28788098D01*
X19142369Y28394685D01*
X19443102Y28093427D01*
X19836230Y27930186D01*
X20261902Y27929814D01*
X20655315Y28092369D01*
X20956573Y28393102D01*
X20992656Y28480000D01*
X25284608Y28480000D01*
X26180000Y27584609D01*
X26180000Y27367482D01*
X25924971Y27262107D01*
X25539248Y26877056D01*
X25330238Y26373705D01*
X25329763Y25828686D01*
X25537893Y25324971D01*
X25922944Y24939248D01*
X26180000Y24832509D01*
X26180000Y22500005D01*
X26179999Y22500000D01*
X26219583Y22301005D01*
X26332304Y22132304D01*
X26937361Y21527248D01*
X26700000Y21527248D01*
X26555633Y21498532D01*
X26433245Y21416755D01*
X26351468Y21294367D01*
X26322752Y21150000D01*
X26322752Y19550000D01*
X26350000Y19413013D01*
X26350000Y18091425D01*
X26330203Y18043748D01*
X26329797Y17578294D01*
X26507544Y17148114D01*
X26836383Y16818700D01*
X27266252Y16640203D01*
X27731706Y16639797D01*
X28161886Y16817544D01*
X28491300Y17146383D01*
X28580000Y17359997D01*
X28580000Y15979504D01*
X28551196Y16022614D01*
X28337786Y16095058D01*
X27512728Y15270000D01*
X28337786Y14444942D01*
X28551196Y14517386D01*
X28580000Y14581028D01*
X28580000Y13180014D01*
X28492456Y13391886D01*
X28163617Y13721300D01*
X27733748Y13899797D01*
X27268294Y13900203D01*
X27124573Y13840819D01*
X26604061Y14361331D01*
X26674943Y14432212D01*
X26747386Y14218804D01*
X27206950Y14010809D01*
X27711129Y13994514D01*
X28183164Y14172401D01*
X28252614Y14218804D01*
X28325058Y14432214D01*
X27500000Y15257272D01*
X27485858Y15243130D01*
X27473130Y15255858D01*
X27487272Y15270000D01*
X26662214Y16095058D01*
X26448804Y16022614D01*
X26240809Y15563050D01*
X26224514Y15058871D01*
X26402401Y14586836D01*
X26448804Y14517386D01*
X26662212Y14444943D01*
X26591331Y14374061D01*
X26497696Y14467696D01*
X26328995Y14580417D01*
X26130000Y14620001D01*
X26129995Y14620000D01*
X22315391Y14620000D01*
X21612640Y15322752D01*
X21650000Y15322752D01*
X21794367Y15351468D01*
X21916755Y15433245D01*
X21998532Y15555633D01*
X22014182Y15634314D01*
X22697042Y15634314D01*
X22757318Y15431293D01*
X23180753Y15239954D01*
X23645178Y15225221D01*
X24079890Y15389337D01*
X24142682Y15431293D01*
X24202958Y15634314D01*
X23450000Y16387272D01*
X22697042Y15634314D01*
X22014182Y15634314D01*
X22027248Y15700000D01*
X22027248Y16204822D01*
X22275221Y16204822D01*
X22439337Y15770110D01*
X22481293Y15707318D01*
X22684314Y15647042D01*
X23437272Y16400000D01*
X23462728Y16400000D01*
X24215686Y15647042D01*
X24418707Y15707318D01*
X24599667Y16107786D01*
X26674942Y16107786D01*
X27500000Y15282728D01*
X28325058Y16107786D01*
X28252614Y16321196D01*
X27793050Y16529191D01*
X27288871Y16545486D01*
X26816836Y16367599D01*
X26747386Y16321196D01*
X26674942Y16107786D01*
X24599667Y16107786D01*
X24610046Y16130753D01*
X24624779Y16595178D01*
X24460663Y17029890D01*
X24418707Y17092682D01*
X24215686Y17152958D01*
X23462728Y16400000D01*
X23437272Y16400000D01*
X22684314Y17152958D01*
X22481293Y17092682D01*
X22289954Y16669247D01*
X22275221Y16204822D01*
X22027248Y16204822D01*
X22027248Y17100000D01*
X22014183Y17165686D01*
X22697042Y17165686D01*
X23450000Y16412728D01*
X24202958Y17165686D01*
X24142682Y17368707D01*
X23719247Y17560046D01*
X23254822Y17574779D01*
X22820110Y17410663D01*
X22757318Y17368707D01*
X22697042Y17165686D01*
X22014183Y17165686D01*
X21998532Y17244367D01*
X21916755Y17366755D01*
X21794367Y17448532D01*
X21650000Y17477248D01*
X20250000Y17477248D01*
X20105633Y17448532D01*
X19983245Y17366755D01*
X19901468Y17244367D01*
X19872752Y17100000D01*
X19872752Y16920000D01*
X18115391Y16920000D01*
X16767696Y18267696D01*
X16598995Y18380417D01*
X16400000Y18420001D01*
X16399995Y18420000D01*
X11015391Y18420000D01*
X10788980Y18646412D01*
X17219140Y18646412D01*
X17267250Y18453783D01*
X17654555Y18279099D01*
X18079228Y18265927D01*
X18476614Y18416274D01*
X18532750Y18453783D01*
X18580860Y18646412D01*
X17900000Y19327272D01*
X17219140Y18646412D01*
X10788980Y18646412D01*
X9697785Y19737607D01*
X12879858Y19737607D01*
X13004432Y19436114D01*
X13234901Y19205243D01*
X13536176Y19080142D01*
X13862393Y19079858D01*
X14058220Y19160772D01*
X16825927Y19160772D01*
X16976274Y18763386D01*
X17013783Y18707250D01*
X17206412Y18659140D01*
X17887272Y19340000D01*
X17912728Y19340000D01*
X18593588Y18659140D01*
X18786217Y18707250D01*
X18960901Y19094555D01*
X18974073Y19519228D01*
X18823726Y19916614D01*
X18786217Y19972750D01*
X18593588Y20020860D01*
X17912728Y19340000D01*
X17887272Y19340000D01*
X17206412Y20020860D01*
X17013783Y19972750D01*
X16839099Y19585445D01*
X16825927Y19160772D01*
X14058220Y19160772D01*
X14163886Y19204432D01*
X14394757Y19434901D01*
X14519858Y19736176D01*
X14520074Y19984683D01*
X14568979Y20033588D01*
X17219140Y20033588D01*
X17900000Y19352728D01*
X18580860Y20033588D01*
X18532750Y20226217D01*
X18145445Y20400901D01*
X17720772Y20414073D01*
X17323386Y20263726D01*
X17267250Y20226217D01*
X17219140Y20033588D01*
X14568979Y20033588D01*
X15567693Y21032302D01*
X15567696Y21032304D01*
X15646337Y21150000D01*
X15680417Y21201004D01*
X15720000Y21400000D01*
X15720000Y24832518D01*
X15975029Y24937893D01*
X16155469Y25118019D01*
X22730747Y25118019D01*
X22827524Y24883827D01*
X23359346Y24642521D01*
X23943030Y24623102D01*
X24489715Y24828529D01*
X24572476Y24883827D01*
X24669253Y25118019D01*
X23700000Y26087272D01*
X22730747Y25118019D01*
X16155469Y25118019D01*
X16360752Y25322944D01*
X16467491Y25580000D01*
X16799995Y25580000D01*
X16800000Y25579999D01*
X16998995Y25619583D01*
X17167696Y25732304D01*
X17292361Y25856970D01*
X22223102Y25856970D01*
X22428529Y25310285D01*
X22483827Y25227524D01*
X22718019Y25130747D01*
X23687272Y26100000D01*
X23712728Y26100000D01*
X24681981Y25130747D01*
X24916173Y25227524D01*
X25157479Y25759346D01*
X25176898Y26343030D01*
X24971471Y26889715D01*
X24916173Y26972476D01*
X24681981Y27069253D01*
X23712728Y26100000D01*
X23687272Y26100000D01*
X22718019Y27069253D01*
X22483827Y26972476D01*
X22242521Y26440654D01*
X22223102Y25856970D01*
X17292361Y25856970D01*
X17917693Y26482302D01*
X17917696Y26482304D01*
X17985267Y26583433D01*
X18030417Y26651004D01*
X18070001Y26850000D01*
X18070000Y26850005D01*
X18070000Y27081981D01*
X22730747Y27081981D01*
X23700000Y26112728D01*
X24669253Y27081981D01*
X24572476Y27316173D01*
X24040654Y27557479D01*
X23456970Y27576898D01*
X22910285Y27371471D01*
X22827524Y27316173D01*
X22730747Y27081981D01*
X18070000Y27081981D01*
X18070000Y27922752D01*
X18250000Y27922752D01*
X18394367Y27951468D01*
X18516755Y28033245D01*
X18598532Y28155633D01*
X18627248Y28300000D01*
X18627248Y29700000D01*
X18598532Y29844367D01*
X18516755Y29966755D01*
X18394367Y30048532D01*
X18250000Y30077248D01*
X16850000Y30077248D01*
X16705633Y30048532D01*
X16583245Y29966755D01*
X16501468Y29844367D01*
X16472752Y29700000D01*
X16472752Y28300000D01*
X16501468Y28155633D01*
X16583245Y28033245D01*
X16705633Y27951468D01*
X16850000Y27922752D01*
X17030000Y27922752D01*
X17030000Y27065391D01*
X16584608Y26620000D01*
X16467482Y26620000D01*
X16362107Y26875029D01*
X15977056Y27260752D01*
X15473705Y27469762D01*
X14928686Y27470237D01*
X14424971Y27262107D01*
X14039248Y26877056D01*
X13830238Y26373705D01*
X13829763Y25828686D01*
X14037893Y25324971D01*
X14422944Y24939248D01*
X14680000Y24832509D01*
X14680000Y21615391D01*
X13784535Y20719927D01*
X13537607Y20720142D01*
X13236114Y20595568D01*
X13005243Y20365099D01*
X12880142Y20063824D01*
X12879858Y19737607D01*
X9697785Y19737607D01*
X9620000Y19815392D01*
X9620000Y23532518D01*
X9875029Y23637893D01*
X10260752Y24022944D01*
X10469762Y24526295D01*
X10470237Y25071314D01*
X10262107Y25575029D01*
X9877056Y25960752D01*
X9373705Y26169762D01*
X8828686Y26170237D01*
X8324971Y25962107D01*
X8120000Y25757493D01*
X8120000Y26284608D01*
X10867693Y29032302D01*
X10867696Y29032304D01*
X10935267Y29133433D01*
X10980417Y29201004D01*
X10987227Y29235238D01*
X11050000Y29222752D01*
X11230000Y29222752D01*
X11230000Y28350005D01*
X11229999Y28350000D01*
X11269583Y28151005D01*
X11382304Y27982304D01*
X11680000Y27684609D01*
X11680000Y27367482D01*
X11424971Y27262107D01*
X11039248Y26877056D01*
X10830238Y26373705D01*
X10829763Y25828686D01*
X11037893Y25324971D01*
X11422944Y24939248D01*
X11926295Y24730238D01*
X12471314Y24729763D01*
X12975029Y24937893D01*
X13360752Y25322944D01*
X13569762Y25826295D01*
X13570237Y26371314D01*
X13362107Y26875029D01*
X12977056Y27260752D01*
X12720000Y27367491D01*
X12720000Y27899995D01*
X12720001Y27900000D01*
X12680417Y28098995D01*
X12634513Y28167696D01*
X12567696Y28267696D01*
X12567693Y28267698D01*
X12270000Y28565392D01*
X12270000Y29222752D01*
X12450000Y29222752D01*
X12594367Y29251468D01*
X12716755Y29333245D01*
X12798532Y29455633D01*
X12827248Y29600000D01*
X12827248Y30723045D01*
X12832071Y30728885D01*
X12850000Y30800000D01*
X12850000Y31480000D01*
X19299995Y31480000D01*
X19300000Y31479999D01*
X19498995Y31519583D01*
X19667696Y31632304D01*
X20367693Y32332302D01*
X20367696Y32332304D01*
X20480417Y32501005D01*
X20520000Y32700000D01*
X20520000Y33432518D01*
X20775029Y33537893D01*
X21160752Y33922944D01*
X21369762Y34426295D01*
X21370237Y34971314D01*
X21162107Y35475029D01*
X20777056Y35860752D01*
X20520000Y35967491D01*
X20520000Y40484608D01*
X20885392Y40850000D01*
X22472752Y40850000D01*
X22472752Y40100000D01*
X22501468Y39955633D01*
X22583245Y39833245D01*
X22705633Y39751468D01*
X22850000Y39722752D01*
X23180000Y39722752D01*
X23180000Y37367482D01*
X22924971Y37262107D01*
X22539248Y36877056D01*
X22330238Y36373705D01*
X22329763Y35828686D01*
X22537893Y35324971D01*
X22922944Y34939248D01*
X23426295Y34730238D01*
X23971314Y34729763D01*
X24475029Y34937893D01*
X24655469Y35118019D01*
X25730747Y35118019D01*
X25827524Y34883827D01*
X26359346Y34642521D01*
X26943030Y34623102D01*
X27489715Y34828529D01*
X27572476Y34883827D01*
X27669253Y35118019D01*
X26700000Y36087272D01*
X25730747Y35118019D01*
X24655469Y35118019D01*
X24860752Y35322944D01*
X25069762Y35826295D01*
X25069788Y35856970D01*
X25223102Y35856970D01*
X25428529Y35310285D01*
X25483827Y35227524D01*
X25718019Y35130747D01*
X26687272Y36100000D01*
X26712728Y36100000D01*
X27681981Y35130747D01*
X27916173Y35227524D01*
X28157479Y35759346D01*
X28176898Y36343030D01*
X27971471Y36889715D01*
X27916173Y36972476D01*
X27681981Y37069253D01*
X26712728Y36100000D01*
X26687272Y36100000D01*
X25718019Y37069253D01*
X25483827Y36972476D01*
X25242521Y36440654D01*
X25223102Y35856970D01*
X25069788Y35856970D01*
X25070237Y36371314D01*
X24862107Y36875029D01*
X24655516Y37081981D01*
X25730747Y37081981D01*
X26700000Y36112728D01*
X27669253Y37081981D01*
X27572476Y37316173D01*
X27040654Y37557479D01*
X26456970Y37576898D01*
X25910285Y37371471D01*
X25827524Y37316173D01*
X25730747Y37081981D01*
X24655516Y37081981D01*
X24477056Y37260752D01*
X24220000Y37367491D01*
X24220000Y39722752D01*
X24250000Y39722752D01*
X24394367Y39751468D01*
X24516755Y39833245D01*
X24598532Y39955633D01*
X24627248Y40100000D01*
X24627248Y41500000D01*
X24598532Y41644367D01*
X24516755Y41766755D01*
X24394367Y41848532D01*
X24250000Y41877248D01*
X24040000Y41877248D01*
X24040000Y46128545D01*
X24347315Y46333886D01*
X24600939Y46713461D01*
X24690000Y47161201D01*
X24690000Y47818799D01*
X24600939Y48266539D01*
X24347315Y48646114D01*
X23967740Y48899738D01*
X23950000Y48903267D01*
X23950000Y49645550D01*
X24000417Y49721005D01*
X24012152Y49780000D01*
X24040001Y49920000D01*
X24040000Y49920005D01*
X24040000Y53748545D01*
X24347315Y53953886D01*
X24600939Y54333461D01*
X24690000Y54781201D01*
X24690000Y55056970D01*
X25123102Y55056970D01*
X25328529Y54510285D01*
X25383827Y54427524D01*
X25618019Y54330747D01*
X26587272Y55300000D01*
X25618019Y56269253D01*
X25383827Y56172476D01*
X25142521Y55640654D01*
X25123102Y55056970D01*
X24690000Y55056970D01*
X24690000Y55438799D01*
X24600939Y55886539D01*
X24347315Y56266114D01*
X24040000Y56471455D01*
X24040000Y57104608D01*
X24515391Y57580000D01*
X25432518Y57580000D01*
X25537893Y57324971D01*
X25537893Y57324971D01*
G37*
X25537893Y57324971D02*
X25922944Y56939248D01*
X26334374Y56768407D01*
X25810285Y56571471D01*
X25727524Y56516173D01*
X25630747Y56281981D01*
X26600000Y55312728D01*
X26614142Y55326870D01*
X26626870Y55314142D01*
X26612728Y55300000D01*
X26626870Y55285858D01*
X26614142Y55273130D01*
X26600000Y55287272D01*
X25630747Y54318019D01*
X25727524Y54083827D01*
X26150000Y53892135D01*
X26150000Y52844518D01*
X26119583Y52798995D01*
X26079999Y52600000D01*
X26080000Y52599995D01*
X26080000Y46567482D01*
X25824971Y46462107D01*
X25439248Y46077056D01*
X25230238Y45573705D01*
X25229763Y45028686D01*
X25437893Y44524971D01*
X25822944Y44139248D01*
X26080000Y44032509D01*
X26080000Y43315391D01*
X25682304Y42917696D01*
X25569583Y42748995D01*
X25529999Y42550000D01*
X25530000Y42549995D01*
X25530000Y41742882D01*
X25444685Y41707631D01*
X25143427Y41406898D01*
X24980186Y41013770D01*
X24979814Y40588098D01*
X25142369Y40194685D01*
X25443102Y39893427D01*
X25836230Y39730186D01*
X26261902Y39729814D01*
X26655315Y39892369D01*
X26956573Y40193102D01*
X27119814Y40586230D01*
X27120186Y41011902D01*
X26957631Y41405315D01*
X26656898Y41706573D01*
X26570000Y41742656D01*
X26570000Y42334608D01*
X26967693Y42732302D01*
X26967696Y42732304D01*
X27035267Y42833433D01*
X27080417Y42901004D01*
X27120000Y43100000D01*
X27120000Y44032518D01*
X27375029Y44137893D01*
X27760752Y44522944D01*
X27969762Y45026295D01*
X27970237Y45571314D01*
X27762107Y46075029D01*
X27377056Y46460752D01*
X27120000Y46567491D01*
X27120000Y52384608D01*
X28467693Y53732302D01*
X28467696Y53732304D01*
X28541340Y53842521D01*
X28580000Y53900380D01*
X28580000Y21396932D01*
X28566755Y21416755D01*
X28444367Y21498532D01*
X28300000Y21527248D01*
X28020000Y21527248D01*
X28020000Y21699995D01*
X28020001Y21700000D01*
X27980417Y21898995D01*
X27926292Y21980000D01*
X27867696Y22067696D01*
X27867693Y22067698D01*
X27220000Y22715392D01*
X27220000Y24832518D01*
X27475029Y24937893D01*
X27860752Y25322944D01*
X28069762Y25826295D01*
X28070237Y26371314D01*
X27862107Y26875029D01*
X27477056Y27260752D01*
X27220000Y27367491D01*
X27220000Y27800000D01*
X27180417Y27998995D01*
X27180417Y27998996D01*
X27078848Y28151005D01*
X27067696Y28167696D01*
X27067693Y28167698D01*
X25867696Y29367696D01*
X25698995Y29480417D01*
X25500000Y29520001D01*
X25499995Y29520000D01*
X20992882Y29520000D01*
X20957631Y29605315D01*
X20656898Y29906573D01*
X20263770Y30069814D01*
X19838098Y30070186D01*
X19444685Y29907631D01*
X19143427Y29606898D01*
X18980186Y29213770D01*
X18979814Y28788098D01*
X19142369Y28394685D01*
X19443102Y28093427D01*
X19836230Y27930186D01*
X20261902Y27929814D01*
X20655315Y28092369D01*
X20956573Y28393102D01*
X20992656Y28480000D01*
X25284608Y28480000D01*
X26180000Y27584609D01*
X26180000Y27367482D01*
X25924971Y27262107D01*
X25539248Y26877056D01*
X25330238Y26373705D01*
X25329763Y25828686D01*
X25537893Y25324971D01*
X25922944Y24939248D01*
X26180000Y24832509D01*
X26180000Y22500005D01*
X26179999Y22500000D01*
X26219583Y22301005D01*
X26332304Y22132304D01*
X26937361Y21527248D01*
X26700000Y21527248D01*
X26555633Y21498532D01*
X26433245Y21416755D01*
X26351468Y21294367D01*
X26322752Y21150000D01*
X26322752Y19550000D01*
X26350000Y19413013D01*
X26350000Y18091425D01*
X26330203Y18043748D01*
X26329797Y17578294D01*
X26507544Y17148114D01*
X26836383Y16818700D01*
X27266252Y16640203D01*
X27731706Y16639797D01*
X28161886Y16817544D01*
X28491300Y17146383D01*
X28580000Y17359997D01*
X28580000Y15979504D01*
X28551196Y16022614D01*
X28337786Y16095058D01*
X27512728Y15270000D01*
X28337786Y14444942D01*
X28551196Y14517386D01*
X28580000Y14581028D01*
X28580000Y13180014D01*
X28492456Y13391886D01*
X28163617Y13721300D01*
X27733748Y13899797D01*
X27268294Y13900203D01*
X27124573Y13840819D01*
X26604061Y14361331D01*
X26674943Y14432212D01*
X26747386Y14218804D01*
X27206950Y14010809D01*
X27711129Y13994514D01*
X28183164Y14172401D01*
X28252614Y14218804D01*
X28325058Y14432214D01*
X27500000Y15257272D01*
X27485858Y15243130D01*
X27473130Y15255858D01*
X27487272Y15270000D01*
X26662214Y16095058D01*
X26448804Y16022614D01*
X26240809Y15563050D01*
X26224514Y15058871D01*
X26402401Y14586836D01*
X26448804Y14517386D01*
X26662212Y14444943D01*
X26591331Y14374061D01*
X26497696Y14467696D01*
X26328995Y14580417D01*
X26130000Y14620001D01*
X26129995Y14620000D01*
X22315391Y14620000D01*
X21612640Y15322752D01*
X21650000Y15322752D01*
X21794367Y15351468D01*
X21916755Y15433245D01*
X21998532Y15555633D01*
X22014182Y15634314D01*
X22697042Y15634314D01*
X22757318Y15431293D01*
X23180753Y15239954D01*
X23645178Y15225221D01*
X24079890Y15389337D01*
X24142682Y15431293D01*
X24202958Y15634314D01*
X23450000Y16387272D01*
X22697042Y15634314D01*
X22014182Y15634314D01*
X22027248Y15700000D01*
X22027248Y16204822D01*
X22275221Y16204822D01*
X22439337Y15770110D01*
X22481293Y15707318D01*
X22684314Y15647042D01*
X23437272Y16400000D01*
X23462728Y16400000D01*
X24215686Y15647042D01*
X24418707Y15707318D01*
X24599667Y16107786D01*
X26674942Y16107786D01*
X27500000Y15282728D01*
X28325058Y16107786D01*
X28252614Y16321196D01*
X27793050Y16529191D01*
X27288871Y16545486D01*
X26816836Y16367599D01*
X26747386Y16321196D01*
X26674942Y16107786D01*
X24599667Y16107786D01*
X24610046Y16130753D01*
X24624779Y16595178D01*
X24460663Y17029890D01*
X24418707Y17092682D01*
X24215686Y17152958D01*
X23462728Y16400000D01*
X23437272Y16400000D01*
X22684314Y17152958D01*
X22481293Y17092682D01*
X22289954Y16669247D01*
X22275221Y16204822D01*
X22027248Y16204822D01*
X22027248Y17100000D01*
X22014183Y17165686D01*
X22697042Y17165686D01*
X23450000Y16412728D01*
X24202958Y17165686D01*
X24142682Y17368707D01*
X23719247Y17560046D01*
X23254822Y17574779D01*
X22820110Y17410663D01*
X22757318Y17368707D01*
X22697042Y17165686D01*
X22014183Y17165686D01*
X21998532Y17244367D01*
X21916755Y17366755D01*
X21794367Y17448532D01*
X21650000Y17477248D01*
X20250000Y17477248D01*
X20105633Y17448532D01*
X19983245Y17366755D01*
X19901468Y17244367D01*
X19872752Y17100000D01*
X19872752Y16920000D01*
X18115391Y16920000D01*
X16767696Y18267696D01*
X16598995Y18380417D01*
X16400000Y18420001D01*
X16399995Y18420000D01*
X11015391Y18420000D01*
X10788980Y18646412D01*
X17219140Y18646412D01*
X17267250Y18453783D01*
X17654555Y18279099D01*
X18079228Y18265927D01*
X18476614Y18416274D01*
X18532750Y18453783D01*
X18580860Y18646412D01*
X17900000Y19327272D01*
X17219140Y18646412D01*
X10788980Y18646412D01*
X9697785Y19737607D01*
X12879858Y19737607D01*
X13004432Y19436114D01*
X13234901Y19205243D01*
X13536176Y19080142D01*
X13862393Y19079858D01*
X14058220Y19160772D01*
X16825927Y19160772D01*
X16976274Y18763386D01*
X17013783Y18707250D01*
X17206412Y18659140D01*
X17887272Y19340000D01*
X17912728Y19340000D01*
X18593588Y18659140D01*
X18786217Y18707250D01*
X18960901Y19094555D01*
X18974073Y19519228D01*
X18823726Y19916614D01*
X18786217Y19972750D01*
X18593588Y20020860D01*
X17912728Y19340000D01*
X17887272Y19340000D01*
X17206412Y20020860D01*
X17013783Y19972750D01*
X16839099Y19585445D01*
X16825927Y19160772D01*
X14058220Y19160772D01*
X14163886Y19204432D01*
X14394757Y19434901D01*
X14519858Y19736176D01*
X14520074Y19984683D01*
X14568979Y20033588D01*
X17219140Y20033588D01*
X17900000Y19352728D01*
X18580860Y20033588D01*
X18532750Y20226217D01*
X18145445Y20400901D01*
X17720772Y20414073D01*
X17323386Y20263726D01*
X17267250Y20226217D01*
X17219140Y20033588D01*
X14568979Y20033588D01*
X15567693Y21032302D01*
X15567696Y21032304D01*
X15646337Y21150000D01*
X15680417Y21201004D01*
X15720000Y21400000D01*
X15720000Y24832518D01*
X15975029Y24937893D01*
X16155469Y25118019D01*
X22730747Y25118019D01*
X22827524Y24883827D01*
X23359346Y24642521D01*
X23943030Y24623102D01*
X24489715Y24828529D01*
X24572476Y24883827D01*
X24669253Y25118019D01*
X23700000Y26087272D01*
X22730747Y25118019D01*
X16155469Y25118019D01*
X16360752Y25322944D01*
X16467491Y25580000D01*
X16799995Y25580000D01*
X16800000Y25579999D01*
X16998995Y25619583D01*
X17167696Y25732304D01*
X17292361Y25856970D01*
X22223102Y25856970D01*
X22428529Y25310285D01*
X22483827Y25227524D01*
X22718019Y25130747D01*
X23687272Y26100000D01*
X23712728Y26100000D01*
X24681981Y25130747D01*
X24916173Y25227524D01*
X25157479Y25759346D01*
X25176898Y26343030D01*
X24971471Y26889715D01*
X24916173Y26972476D01*
X24681981Y27069253D01*
X23712728Y26100000D01*
X23687272Y26100000D01*
X22718019Y27069253D01*
X22483827Y26972476D01*
X22242521Y26440654D01*
X22223102Y25856970D01*
X17292361Y25856970D01*
X17917693Y26482302D01*
X17917696Y26482304D01*
X17985267Y26583433D01*
X18030417Y26651004D01*
X18070001Y26850000D01*
X18070000Y26850005D01*
X18070000Y27081981D01*
X22730747Y27081981D01*
X23700000Y26112728D01*
X24669253Y27081981D01*
X24572476Y27316173D01*
X24040654Y27557479D01*
X23456970Y27576898D01*
X22910285Y27371471D01*
X22827524Y27316173D01*
X22730747Y27081981D01*
X18070000Y27081981D01*
X18070000Y27922752D01*
X18250000Y27922752D01*
X18394367Y27951468D01*
X18516755Y28033245D01*
X18598532Y28155633D01*
X18627248Y28300000D01*
X18627248Y29700000D01*
X18598532Y29844367D01*
X18516755Y29966755D01*
X18394367Y30048532D01*
X18250000Y30077248D01*
X16850000Y30077248D01*
X16705633Y30048532D01*
X16583245Y29966755D01*
X16501468Y29844367D01*
X16472752Y29700000D01*
X16472752Y28300000D01*
X16501468Y28155633D01*
X16583245Y28033245D01*
X16705633Y27951468D01*
X16850000Y27922752D01*
X17030000Y27922752D01*
X17030000Y27065391D01*
X16584608Y26620000D01*
X16467482Y26620000D01*
X16362107Y26875029D01*
X15977056Y27260752D01*
X15473705Y27469762D01*
X14928686Y27470237D01*
X14424971Y27262107D01*
X14039248Y26877056D01*
X13830238Y26373705D01*
X13829763Y25828686D01*
X14037893Y25324971D01*
X14422944Y24939248D01*
X14680000Y24832509D01*
X14680000Y21615391D01*
X13784535Y20719927D01*
X13537607Y20720142D01*
X13236114Y20595568D01*
X13005243Y20365099D01*
X12880142Y20063824D01*
X12879858Y19737607D01*
X9697785Y19737607D01*
X9620000Y19815392D01*
X9620000Y23532518D01*
X9875029Y23637893D01*
X10260752Y24022944D01*
X10469762Y24526295D01*
X10470237Y25071314D01*
X10262107Y25575029D01*
X9877056Y25960752D01*
X9373705Y26169762D01*
X8828686Y26170237D01*
X8324971Y25962107D01*
X8120000Y25757493D01*
X8120000Y26284608D01*
X10867693Y29032302D01*
X10867696Y29032304D01*
X10935267Y29133433D01*
X10980417Y29201004D01*
X10987227Y29235238D01*
X11050000Y29222752D01*
X11230000Y29222752D01*
X11230000Y28350005D01*
X11229999Y28350000D01*
X11269583Y28151005D01*
X11382304Y27982304D01*
X11680000Y27684609D01*
X11680000Y27367482D01*
X11424971Y27262107D01*
X11039248Y26877056D01*
X10830238Y26373705D01*
X10829763Y25828686D01*
X11037893Y25324971D01*
X11422944Y24939248D01*
X11926295Y24730238D01*
X12471314Y24729763D01*
X12975029Y24937893D01*
X13360752Y25322944D01*
X13569762Y25826295D01*
X13570237Y26371314D01*
X13362107Y26875029D01*
X12977056Y27260752D01*
X12720000Y27367491D01*
X12720000Y27899995D01*
X12720001Y27900000D01*
X12680417Y28098995D01*
X12634513Y28167696D01*
X12567696Y28267696D01*
X12567693Y28267698D01*
X12270000Y28565392D01*
X12270000Y29222752D01*
X12450000Y29222752D01*
X12594367Y29251468D01*
X12716755Y29333245D01*
X12798532Y29455633D01*
X12827248Y29600000D01*
X12827248Y30723045D01*
X12832071Y30728885D01*
X12850000Y30800000D01*
X12850000Y31480000D01*
X19299995Y31480000D01*
X19300000Y31479999D01*
X19498995Y31519583D01*
X19667696Y31632304D01*
X20367693Y32332302D01*
X20367696Y32332304D01*
X20480417Y32501005D01*
X20520000Y32700000D01*
X20520000Y33432518D01*
X20775029Y33537893D01*
X21160752Y33922944D01*
X21369762Y34426295D01*
X21370237Y34971314D01*
X21162107Y35475029D01*
X20777056Y35860752D01*
X20520000Y35967491D01*
X20520000Y40484608D01*
X20885392Y40850000D01*
X22472752Y40850000D01*
X22472752Y40100000D01*
X22501468Y39955633D01*
X22583245Y39833245D01*
X22705633Y39751468D01*
X22850000Y39722752D01*
X23180000Y39722752D01*
X23180000Y37367482D01*
X22924971Y37262107D01*
X22539248Y36877056D01*
X22330238Y36373705D01*
X22329763Y35828686D01*
X22537893Y35324971D01*
X22922944Y34939248D01*
X23426295Y34730238D01*
X23971314Y34729763D01*
X24475029Y34937893D01*
X24655469Y35118019D01*
X25730747Y35118019D01*
X25827524Y34883827D01*
X26359346Y34642521D01*
X26943030Y34623102D01*
X27489715Y34828529D01*
X27572476Y34883827D01*
X27669253Y35118019D01*
X26700000Y36087272D01*
X25730747Y35118019D01*
X24655469Y35118019D01*
X24860752Y35322944D01*
X25069762Y35826295D01*
X25069788Y35856970D01*
X25223102Y35856970D01*
X25428529Y35310285D01*
X25483827Y35227524D01*
X25718019Y35130747D01*
X26687272Y36100000D01*
X26712728Y36100000D01*
X27681981Y35130747D01*
X27916173Y35227524D01*
X28157479Y35759346D01*
X28176898Y36343030D01*
X27971471Y36889715D01*
X27916173Y36972476D01*
X27681981Y37069253D01*
X26712728Y36100000D01*
X26687272Y36100000D01*
X25718019Y37069253D01*
X25483827Y36972476D01*
X25242521Y36440654D01*
X25223102Y35856970D01*
X25069788Y35856970D01*
X25070237Y36371314D01*
X24862107Y36875029D01*
X24655516Y37081981D01*
X25730747Y37081981D01*
X26700000Y36112728D01*
X27669253Y37081981D01*
X27572476Y37316173D01*
X27040654Y37557479D01*
X26456970Y37576898D01*
X25910285Y37371471D01*
X25827524Y37316173D01*
X25730747Y37081981D01*
X24655516Y37081981D01*
X24477056Y37260752D01*
X24220000Y37367491D01*
X24220000Y39722752D01*
X24250000Y39722752D01*
X24394367Y39751468D01*
X24516755Y39833245D01*
X24598532Y39955633D01*
X24627248Y40100000D01*
X24627248Y41500000D01*
X24598532Y41644367D01*
X24516755Y41766755D01*
X24394367Y41848532D01*
X24250000Y41877248D01*
X24040000Y41877248D01*
X24040000Y46128545D01*
X24347315Y46333886D01*
X24600939Y46713461D01*
X24690000Y47161201D01*
X24690000Y47818799D01*
X24600939Y48266539D01*
X24347315Y48646114D01*
X23967740Y48899738D01*
X23950000Y48903267D01*
X23950000Y49645550D01*
X24000417Y49721005D01*
X24012152Y49780000D01*
X24040001Y49920000D01*
X24040000Y49920005D01*
X24040000Y53748545D01*
X24347315Y53953886D01*
X24600939Y54333461D01*
X24690000Y54781201D01*
X24690000Y55056970D01*
X25123102Y55056970D01*
X25328529Y54510285D01*
X25383827Y54427524D01*
X25618019Y54330747D01*
X26587272Y55300000D01*
X25618019Y56269253D01*
X25383827Y56172476D01*
X25142521Y55640654D01*
X25123102Y55056970D01*
X24690000Y55056970D01*
X24690000Y55438799D01*
X24600939Y55886539D01*
X24347315Y56266114D01*
X24040000Y56471455D01*
X24040000Y57104608D01*
X24515391Y57580000D01*
X25432518Y57580000D01*
X25537893Y57324971D01*
G36*
X9707544Y72038114D02*
X10036383Y71708700D01*
X10180000Y71649065D01*
X10180000Y71500005D01*
X10179999Y71500000D01*
X10219583Y71301005D01*
X10332304Y71132304D01*
X11232302Y70232307D01*
X11232304Y70232304D01*
X11321956Y70172401D01*
X11401004Y70119583D01*
X11600000Y70079999D01*
X11600005Y70080000D01*
X13779998Y70080000D01*
X13779998Y65864541D01*
X13563617Y66081300D01*
X13133748Y66259797D01*
X12668294Y66260203D01*
X12238114Y66082456D01*
X11908700Y65753617D01*
X11849065Y65610000D01*
X11755214Y65610000D01*
X11692456Y65761886D01*
X11363617Y66091300D01*
X10933748Y66269797D01*
X10468294Y66270203D01*
X10038114Y66092456D01*
X9708700Y65763617D01*
X9644913Y65610000D01*
X9290005Y65610000D01*
X9290000Y65610001D01*
X9091005Y65570417D01*
X8922304Y65457696D01*
X8922302Y65457693D01*
X8784609Y65320000D01*
X8667482Y65320000D01*
X8562107Y65575029D01*
X8177056Y65960752D01*
X7673705Y66169762D01*
X7128686Y66170237D01*
X6624971Y65962107D01*
X6239248Y65577056D01*
X6030238Y65073705D01*
X6029763Y64528686D01*
X6237893Y64024971D01*
X6622944Y63639248D01*
X7126295Y63430238D01*
X7671314Y63429763D01*
X8175029Y63637893D01*
X8560752Y64022944D01*
X8667491Y64280000D01*
X8999995Y64280000D01*
X9000000Y64279999D01*
X9198995Y64319583D01*
X9367696Y64432304D01*
X9505392Y64570000D01*
X9653050Y64570000D01*
X9707544Y64438114D01*
X10036383Y64108700D01*
X10180000Y64049065D01*
X10180000Y63815391D01*
X9332304Y62967696D01*
X9219583Y62798995D01*
X9179999Y62600000D01*
X9180000Y62599995D01*
X9180000Y58739552D01*
X9005243Y58565099D01*
X8880142Y58263824D01*
X8879858Y57937607D01*
X8882617Y57930930D01*
X8189584Y57445807D01*
X7167696Y58467696D01*
X6998995Y58580417D01*
X6800000Y58620001D01*
X6799995Y58620000D01*
X3567482Y58620000D01*
X3462107Y58875029D01*
X3077056Y59260752D01*
X2573705Y59469762D01*
X2028686Y59470237D01*
X1524971Y59262107D01*
X1139248Y58877056D01*
X930238Y58373705D01*
X929763Y57828686D01*
X1137893Y57324971D01*
X1522944Y56939248D01*
X1981879Y56748681D01*
X1510285Y56571471D01*
X1427524Y56516173D01*
X1330747Y56281981D01*
X2300000Y55312728D01*
X3269253Y56281981D01*
X4330747Y56281981D01*
X5300000Y55312728D01*
X6269253Y56281981D01*
X6172476Y56516173D01*
X5640654Y56757479D01*
X5056970Y56776898D01*
X4510285Y56571471D01*
X4427524Y56516173D01*
X4330747Y56281981D01*
X3269253Y56281981D01*
X3172476Y56516173D01*
X2640654Y56757479D01*
X2638561Y56757549D01*
X3075029Y56937893D01*
X3460752Y57322944D01*
X3567491Y57580000D01*
X6584608Y57580000D01*
X7577361Y56587248D01*
X7480000Y56587248D01*
X7335633Y56558532D01*
X7213245Y56476755D01*
X7131468Y56354367D01*
X7102752Y56210000D01*
X7102752Y54010000D01*
X7131468Y53865633D01*
X7213245Y53743245D01*
X7335633Y53661468D01*
X7480000Y53632752D01*
X7760000Y53632752D01*
X7760000Y50495391D01*
X7284608Y50020000D01*
X6900005Y50020000D01*
X6900000Y50020001D01*
X6701005Y49980417D01*
X6532304Y49867696D01*
X6532302Y49867693D01*
X3432304Y46767696D01*
X3319583Y46598995D01*
X3279999Y46400000D01*
X3280000Y46399995D01*
X3280000Y46257454D01*
X3077056Y46460752D01*
X2820000Y46567491D01*
X2820000Y47884608D01*
X5515391Y50580000D01*
X6160448Y50580000D01*
X6334901Y50405243D01*
X6636176Y50280142D01*
X6962393Y50279858D01*
X7263886Y50404432D01*
X7494757Y50634901D01*
X7619858Y50936176D01*
X7620142Y51262393D01*
X7495568Y51563886D01*
X7265099Y51794757D01*
X6963824Y51919858D01*
X6637607Y51920142D01*
X6336114Y51795568D01*
X6160240Y51620000D01*
X5300005Y51620000D01*
X5300000Y51620001D01*
X5101005Y51580417D01*
X4932304Y51467696D01*
X4932302Y51467693D01*
X1932304Y48467696D01*
X1819583Y48298995D01*
X1779999Y48100000D01*
X1780000Y48099995D01*
X1780000Y46567482D01*
X1524971Y46462107D01*
X1139248Y46077056D01*
X930238Y45573705D01*
X929763Y45028686D01*
X1137893Y44524971D01*
X1522944Y44139248D01*
X1780000Y44032509D01*
X1780000Y43100005D01*
X1779999Y43100000D01*
X1819583Y42901005D01*
X1932304Y42732304D01*
X2330000Y42334609D01*
X2330000Y41742882D01*
X2244685Y41707631D01*
X1943427Y41406898D01*
X1780186Y41013770D01*
X1779814Y40588098D01*
X1942369Y40194685D01*
X2243102Y39893427D01*
X2636230Y39730186D01*
X3061902Y39729814D01*
X3455315Y39892369D01*
X3580000Y40016837D01*
X3580000Y39500005D01*
X3579999Y39500000D01*
X3619583Y39301005D01*
X3732304Y39132304D01*
X7636059Y35228550D01*
X7530238Y34973705D01*
X7529763Y34428686D01*
X7737893Y33924971D01*
X8122944Y33539248D01*
X8380000Y33432509D01*
X8380000Y32515391D01*
X2532304Y26667696D01*
X2419583Y26498995D01*
X2379999Y26300000D01*
X2380000Y26299995D01*
X2380000Y21511335D01*
X2300000Y21527248D01*
X700000Y21527248D01*
X555633Y21498532D01*
X433245Y21416755D01*
X420000Y21396932D01*
X420000Y54318019D01*
X1330747Y54318019D01*
X1427524Y54083827D01*
X1959346Y53842521D01*
X2543030Y53823102D01*
X3089715Y54028529D01*
X3172476Y54083827D01*
X3269253Y54318019D01*
X4330747Y54318019D01*
X4427524Y54083827D01*
X4959346Y53842521D01*
X5543030Y53823102D01*
X6089715Y54028529D01*
X6172476Y54083827D01*
X6269253Y54318019D01*
X5300000Y55287272D01*
X4330747Y54318019D01*
X3269253Y54318019D01*
X2300000Y55287272D01*
X1330747Y54318019D01*
X420000Y54318019D01*
X420000Y55056970D01*
X823102Y55056970D01*
X1028529Y54510285D01*
X1083827Y54427524D01*
X1318019Y54330747D01*
X2287272Y55300000D01*
X2312728Y55300000D01*
X3281981Y54330747D01*
X3516173Y54427524D01*
X3757479Y54959346D01*
X3760726Y55056970D01*
X3823102Y55056970D01*
X4028529Y54510285D01*
X4083827Y54427524D01*
X4318019Y54330747D01*
X5287272Y55300000D01*
X5312728Y55300000D01*
X6281981Y54330747D01*
X6516173Y54427524D01*
X6757479Y54959346D01*
X6776898Y55543030D01*
X6571471Y56089715D01*
X6516173Y56172476D01*
X6281981Y56269253D01*
X5312728Y55300000D01*
X5287272Y55300000D01*
X4318019Y56269253D01*
X4083827Y56172476D01*
X3842521Y55640654D01*
X3823102Y55056970D01*
X3760726Y55056970D01*
X3776898Y55543030D01*
X3571471Y56089715D01*
X3516173Y56172476D01*
X3281981Y56269253D01*
X2312728Y55300000D01*
X2287272Y55300000D01*
X1318019Y56269253D01*
X1083827Y56172476D01*
X842521Y55640654D01*
X823102Y55056970D01*
X420000Y55056970D01*
X420000Y60118019D01*
X1330747Y60118019D01*
X1427524Y59883827D01*
X1959346Y59642521D01*
X2543030Y59623102D01*
X3089715Y59828529D01*
X3172476Y59883827D01*
X3269253Y60118019D01*
X2300000Y61087272D01*
X1330747Y60118019D01*
X420000Y60118019D01*
X420000Y60856970D01*
X823102Y60856970D01*
X1028529Y60310285D01*
X1083827Y60227524D01*
X1318019Y60130747D01*
X2287272Y61100000D01*
X2312728Y61100000D01*
X3281981Y60130747D01*
X3516173Y60227524D01*
X3757479Y60759346D01*
X3776898Y61343030D01*
X3571471Y61889715D01*
X3516173Y61972476D01*
X3281981Y62069253D01*
X2312728Y61100000D01*
X2287272Y61100000D01*
X1318019Y62069253D01*
X1083827Y61972476D01*
X842521Y61440654D01*
X823102Y60856970D01*
X420000Y60856970D01*
X420000Y62812214D01*
X674942Y62812214D01*
X747386Y62598804D01*
X1206950Y62390809D01*
X1533648Y62380250D01*
X1510285Y62371471D01*
X1427524Y62316173D01*
X1330747Y62081981D01*
X2300000Y61112728D01*
X3269253Y62081981D01*
X3172476Y62316173D01*
X2640654Y62557479D01*
X2212103Y62571737D01*
X2252614Y62598804D01*
X2325058Y62812214D01*
X1500000Y63637272D01*
X674942Y62812214D01*
X420000Y62812214D01*
X420000Y62940496D01*
X448804Y62897386D01*
X662214Y62824942D01*
X1487272Y63650000D01*
X1512728Y63650000D01*
X2337786Y62824942D01*
X2551196Y62897386D01*
X2759191Y63356950D01*
X2774092Y63818019D01*
X3430747Y63818019D01*
X3527524Y63583827D01*
X4059346Y63342521D01*
X4643030Y63323102D01*
X5189715Y63528529D01*
X5272476Y63583827D01*
X5369253Y63818019D01*
X4400000Y64787272D01*
X3430747Y63818019D01*
X2774092Y63818019D01*
X2775486Y63861129D01*
X2597599Y64333164D01*
X2551196Y64402614D01*
X2337786Y64475058D01*
X1512728Y63650000D01*
X1487272Y63650000D01*
X662214Y64475058D01*
X448804Y64402614D01*
X420000Y64338972D01*
X420000Y64487786D01*
X674942Y64487786D01*
X1500000Y63662728D01*
X2325058Y64487786D01*
X2301573Y64556970D01*
X2923102Y64556970D01*
X3128529Y64010285D01*
X3183827Y63927524D01*
X3418019Y63830747D01*
X4387272Y64800000D01*
X4412728Y64800000D01*
X5381981Y63830747D01*
X5616173Y63927524D01*
X5857479Y64459346D01*
X5876898Y65043030D01*
X5671471Y65589715D01*
X5616173Y65672476D01*
X5381981Y65769253D01*
X4412728Y64800000D01*
X4387272Y64800000D01*
X3418019Y65769253D01*
X3183827Y65672476D01*
X2942521Y65140654D01*
X2923102Y64556970D01*
X2301573Y64556970D01*
X2252614Y64701196D01*
X1793050Y64909191D01*
X1288871Y64925486D01*
X816836Y64747599D01*
X747386Y64701196D01*
X674942Y64487786D01*
X420000Y64487786D01*
X420000Y65352214D01*
X674942Y65352214D01*
X747386Y65138804D01*
X1206950Y64930809D01*
X1711129Y64914514D01*
X2183164Y65092401D01*
X2252614Y65138804D01*
X2325058Y65352214D01*
X1500000Y66177272D01*
X674942Y65352214D01*
X420000Y65352214D01*
X420000Y65480496D01*
X448804Y65437386D01*
X662214Y65364942D01*
X1487272Y66190000D01*
X1512728Y66190000D01*
X2337786Y65364942D01*
X2551196Y65437386D01*
X2707156Y65781981D01*
X3430747Y65781981D01*
X4400000Y64812728D01*
X5369253Y65781981D01*
X5272476Y66016173D01*
X4740654Y66257479D01*
X4156970Y66276898D01*
X3610285Y66071471D01*
X3527524Y66016173D01*
X3430747Y65781981D01*
X2707156Y65781981D01*
X2759191Y65896950D01*
X2775486Y66401129D01*
X2597599Y66873164D01*
X2551196Y66942614D01*
X2337786Y67015058D01*
X1512728Y66190000D01*
X1487272Y66190000D01*
X662214Y67015058D01*
X448804Y66942614D01*
X420000Y66878972D01*
X420000Y67027786D01*
X674942Y67027786D01*
X1500000Y66202728D01*
X2325058Y67027786D01*
X2252614Y67241196D01*
X1793050Y67449191D01*
X1288871Y67465486D01*
X816836Y67287599D01*
X747386Y67241196D01*
X674942Y67027786D01*
X420000Y67027786D01*
X420000Y68279986D01*
X507544Y68068114D01*
X836383Y67738700D01*
X1266252Y67560203D01*
X1731706Y67559797D01*
X2161886Y67737544D01*
X2491300Y68066383D01*
X2550935Y68210000D01*
X4429995Y68210000D01*
X4430000Y68209999D01*
X4628995Y68249583D01*
X4797696Y68362304D01*
X8585391Y72150000D01*
X9661314Y72150000D01*
X9707544Y72038114D01*
X9707544Y72038114D01*
G37*
X9707544Y72038114D02*
X10036383Y71708700D01*
X10180000Y71649065D01*
X10180000Y71500005D01*
X10179999Y71500000D01*
X10219583Y71301005D01*
X10332304Y71132304D01*
X11232302Y70232307D01*
X11232304Y70232304D01*
X11321956Y70172401D01*
X11401004Y70119583D01*
X11600000Y70079999D01*
X11600005Y70080000D01*
X13779998Y70080000D01*
X13779998Y65864541D01*
X13563617Y66081300D01*
X13133748Y66259797D01*
X12668294Y66260203D01*
X12238114Y66082456D01*
X11908700Y65753617D01*
X11849065Y65610000D01*
X11755214Y65610000D01*
X11692456Y65761886D01*
X11363617Y66091300D01*
X10933748Y66269797D01*
X10468294Y66270203D01*
X10038114Y66092456D01*
X9708700Y65763617D01*
X9644913Y65610000D01*
X9290005Y65610000D01*
X9290000Y65610001D01*
X9091005Y65570417D01*
X8922304Y65457696D01*
X8922302Y65457693D01*
X8784609Y65320000D01*
X8667482Y65320000D01*
X8562107Y65575029D01*
X8177056Y65960752D01*
X7673705Y66169762D01*
X7128686Y66170237D01*
X6624971Y65962107D01*
X6239248Y65577056D01*
X6030238Y65073705D01*
X6029763Y64528686D01*
X6237893Y64024971D01*
X6622944Y63639248D01*
X7126295Y63430238D01*
X7671314Y63429763D01*
X8175029Y63637893D01*
X8560752Y64022944D01*
X8667491Y64280000D01*
X8999995Y64280000D01*
X9000000Y64279999D01*
X9198995Y64319583D01*
X9367696Y64432304D01*
X9505392Y64570000D01*
X9653050Y64570000D01*
X9707544Y64438114D01*
X10036383Y64108700D01*
X10180000Y64049065D01*
X10180000Y63815391D01*
X9332304Y62967696D01*
X9219583Y62798995D01*
X9179999Y62600000D01*
X9180000Y62599995D01*
X9180000Y58739552D01*
X9005243Y58565099D01*
X8880142Y58263824D01*
X8879858Y57937607D01*
X8882617Y57930930D01*
X8189584Y57445807D01*
X7167696Y58467696D01*
X6998995Y58580417D01*
X6800000Y58620001D01*
X6799995Y58620000D01*
X3567482Y58620000D01*
X3462107Y58875029D01*
X3077056Y59260752D01*
X2573705Y59469762D01*
X2028686Y59470237D01*
X1524971Y59262107D01*
X1139248Y58877056D01*
X930238Y58373705D01*
X929763Y57828686D01*
X1137893Y57324971D01*
X1522944Y56939248D01*
X1981879Y56748681D01*
X1510285Y56571471D01*
X1427524Y56516173D01*
X1330747Y56281981D01*
X2300000Y55312728D01*
X3269253Y56281981D01*
X4330747Y56281981D01*
X5300000Y55312728D01*
X6269253Y56281981D01*
X6172476Y56516173D01*
X5640654Y56757479D01*
X5056970Y56776898D01*
X4510285Y56571471D01*
X4427524Y56516173D01*
X4330747Y56281981D01*
X3269253Y56281981D01*
X3172476Y56516173D01*
X2640654Y56757479D01*
X2638561Y56757549D01*
X3075029Y56937893D01*
X3460752Y57322944D01*
X3567491Y57580000D01*
X6584608Y57580000D01*
X7577361Y56587248D01*
X7480000Y56587248D01*
X7335633Y56558532D01*
X7213245Y56476755D01*
X7131468Y56354367D01*
X7102752Y56210000D01*
X7102752Y54010000D01*
X7131468Y53865633D01*
X7213245Y53743245D01*
X7335633Y53661468D01*
X7480000Y53632752D01*
X7760000Y53632752D01*
X7760000Y50495391D01*
X7284608Y50020000D01*
X6900005Y50020000D01*
X6900000Y50020001D01*
X6701005Y49980417D01*
X6532304Y49867696D01*
X6532302Y49867693D01*
X3432304Y46767696D01*
X3319583Y46598995D01*
X3279999Y46400000D01*
X3280000Y46399995D01*
X3280000Y46257454D01*
X3077056Y46460752D01*
X2820000Y46567491D01*
X2820000Y47884608D01*
X5515391Y50580000D01*
X6160448Y50580000D01*
X6334901Y50405243D01*
X6636176Y50280142D01*
X6962393Y50279858D01*
X7263886Y50404432D01*
X7494757Y50634901D01*
X7619858Y50936176D01*
X7620142Y51262393D01*
X7495568Y51563886D01*
X7265099Y51794757D01*
X6963824Y51919858D01*
X6637607Y51920142D01*
X6336114Y51795568D01*
X6160240Y51620000D01*
X5300005Y51620000D01*
X5300000Y51620001D01*
X5101005Y51580417D01*
X4932304Y51467696D01*
X4932302Y51467693D01*
X1932304Y48467696D01*
X1819583Y48298995D01*
X1779999Y48100000D01*
X1780000Y48099995D01*
X1780000Y46567482D01*
X1524971Y46462107D01*
X1139248Y46077056D01*
X930238Y45573705D01*
X929763Y45028686D01*
X1137893Y44524971D01*
X1522944Y44139248D01*
X1780000Y44032509D01*
X1780000Y43100005D01*
X1779999Y43100000D01*
X1819583Y42901005D01*
X1932304Y42732304D01*
X2330000Y42334609D01*
X2330000Y41742882D01*
X2244685Y41707631D01*
X1943427Y41406898D01*
X1780186Y41013770D01*
X1779814Y40588098D01*
X1942369Y40194685D01*
X2243102Y39893427D01*
X2636230Y39730186D01*
X3061902Y39729814D01*
X3455315Y39892369D01*
X3580000Y40016837D01*
X3580000Y39500005D01*
X3579999Y39500000D01*
X3619583Y39301005D01*
X3732304Y39132304D01*
X7636059Y35228550D01*
X7530238Y34973705D01*
X7529763Y34428686D01*
X7737893Y33924971D01*
X8122944Y33539248D01*
X8380000Y33432509D01*
X8380000Y32515391D01*
X2532304Y26667696D01*
X2419583Y26498995D01*
X2379999Y26300000D01*
X2380000Y26299995D01*
X2380000Y21511335D01*
X2300000Y21527248D01*
X700000Y21527248D01*
X555633Y21498532D01*
X433245Y21416755D01*
X420000Y21396932D01*
X420000Y54318019D01*
X1330747Y54318019D01*
X1427524Y54083827D01*
X1959346Y53842521D01*
X2543030Y53823102D01*
X3089715Y54028529D01*
X3172476Y54083827D01*
X3269253Y54318019D01*
X4330747Y54318019D01*
X4427524Y54083827D01*
X4959346Y53842521D01*
X5543030Y53823102D01*
X6089715Y54028529D01*
X6172476Y54083827D01*
X6269253Y54318019D01*
X5300000Y55287272D01*
X4330747Y54318019D01*
X3269253Y54318019D01*
X2300000Y55287272D01*
X1330747Y54318019D01*
X420000Y54318019D01*
X420000Y55056970D01*
X823102Y55056970D01*
X1028529Y54510285D01*
X1083827Y54427524D01*
X1318019Y54330747D01*
X2287272Y55300000D01*
X2312728Y55300000D01*
X3281981Y54330747D01*
X3516173Y54427524D01*
X3757479Y54959346D01*
X3760726Y55056970D01*
X3823102Y55056970D01*
X4028529Y54510285D01*
X4083827Y54427524D01*
X4318019Y54330747D01*
X5287272Y55300000D01*
X5312728Y55300000D01*
X6281981Y54330747D01*
X6516173Y54427524D01*
X6757479Y54959346D01*
X6776898Y55543030D01*
X6571471Y56089715D01*
X6516173Y56172476D01*
X6281981Y56269253D01*
X5312728Y55300000D01*
X5287272Y55300000D01*
X4318019Y56269253D01*
X4083827Y56172476D01*
X3842521Y55640654D01*
X3823102Y55056970D01*
X3760726Y55056970D01*
X3776898Y55543030D01*
X3571471Y56089715D01*
X3516173Y56172476D01*
X3281981Y56269253D01*
X2312728Y55300000D01*
X2287272Y55300000D01*
X1318019Y56269253D01*
X1083827Y56172476D01*
X842521Y55640654D01*
X823102Y55056970D01*
X420000Y55056970D01*
X420000Y60118019D01*
X1330747Y60118019D01*
X1427524Y59883827D01*
X1959346Y59642521D01*
X2543030Y59623102D01*
X3089715Y59828529D01*
X3172476Y59883827D01*
X3269253Y60118019D01*
X2300000Y61087272D01*
X1330747Y60118019D01*
X420000Y60118019D01*
X420000Y60856970D01*
X823102Y60856970D01*
X1028529Y60310285D01*
X1083827Y60227524D01*
X1318019Y60130747D01*
X2287272Y61100000D01*
X2312728Y61100000D01*
X3281981Y60130747D01*
X3516173Y60227524D01*
X3757479Y60759346D01*
X3776898Y61343030D01*
X3571471Y61889715D01*
X3516173Y61972476D01*
X3281981Y62069253D01*
X2312728Y61100000D01*
X2287272Y61100000D01*
X1318019Y62069253D01*
X1083827Y61972476D01*
X842521Y61440654D01*
X823102Y60856970D01*
X420000Y60856970D01*
X420000Y62812214D01*
X674942Y62812214D01*
X747386Y62598804D01*
X1206950Y62390809D01*
X1533648Y62380250D01*
X1510285Y62371471D01*
X1427524Y62316173D01*
X1330747Y62081981D01*
X2300000Y61112728D01*
X3269253Y62081981D01*
X3172476Y62316173D01*
X2640654Y62557479D01*
X2212103Y62571737D01*
X2252614Y62598804D01*
X2325058Y62812214D01*
X1500000Y63637272D01*
X674942Y62812214D01*
X420000Y62812214D01*
X420000Y62940496D01*
X448804Y62897386D01*
X662214Y62824942D01*
X1487272Y63650000D01*
X1512728Y63650000D01*
X2337786Y62824942D01*
X2551196Y62897386D01*
X2759191Y63356950D01*
X2774092Y63818019D01*
X3430747Y63818019D01*
X3527524Y63583827D01*
X4059346Y63342521D01*
X4643030Y63323102D01*
X5189715Y63528529D01*
X5272476Y63583827D01*
X5369253Y63818019D01*
X4400000Y64787272D01*
X3430747Y63818019D01*
X2774092Y63818019D01*
X2775486Y63861129D01*
X2597599Y64333164D01*
X2551196Y64402614D01*
X2337786Y64475058D01*
X1512728Y63650000D01*
X1487272Y63650000D01*
X662214Y64475058D01*
X448804Y64402614D01*
X420000Y64338972D01*
X420000Y64487786D01*
X674942Y64487786D01*
X1500000Y63662728D01*
X2325058Y64487786D01*
X2301573Y64556970D01*
X2923102Y64556970D01*
X3128529Y64010285D01*
X3183827Y63927524D01*
X3418019Y63830747D01*
X4387272Y64800000D01*
X4412728Y64800000D01*
X5381981Y63830747D01*
X5616173Y63927524D01*
X5857479Y64459346D01*
X5876898Y65043030D01*
X5671471Y65589715D01*
X5616173Y65672476D01*
X5381981Y65769253D01*
X4412728Y64800000D01*
X4387272Y64800000D01*
X3418019Y65769253D01*
X3183827Y65672476D01*
X2942521Y65140654D01*
X2923102Y64556970D01*
X2301573Y64556970D01*
X2252614Y64701196D01*
X1793050Y64909191D01*
X1288871Y64925486D01*
X816836Y64747599D01*
X747386Y64701196D01*
X674942Y64487786D01*
X420000Y64487786D01*
X420000Y65352214D01*
X674942Y65352214D01*
X747386Y65138804D01*
X1206950Y64930809D01*
X1711129Y64914514D01*
X2183164Y65092401D01*
X2252614Y65138804D01*
X2325058Y65352214D01*
X1500000Y66177272D01*
X674942Y65352214D01*
X420000Y65352214D01*
X420000Y65480496D01*
X448804Y65437386D01*
X662214Y65364942D01*
X1487272Y66190000D01*
X1512728Y66190000D01*
X2337786Y65364942D01*
X2551196Y65437386D01*
X2707156Y65781981D01*
X3430747Y65781981D01*
X4400000Y64812728D01*
X5369253Y65781981D01*
X5272476Y66016173D01*
X4740654Y66257479D01*
X4156970Y66276898D01*
X3610285Y66071471D01*
X3527524Y66016173D01*
X3430747Y65781981D01*
X2707156Y65781981D01*
X2759191Y65896950D01*
X2775486Y66401129D01*
X2597599Y66873164D01*
X2551196Y66942614D01*
X2337786Y67015058D01*
X1512728Y66190000D01*
X1487272Y66190000D01*
X662214Y67015058D01*
X448804Y66942614D01*
X420000Y66878972D01*
X420000Y67027786D01*
X674942Y67027786D01*
X1500000Y66202728D01*
X2325058Y67027786D01*
X2252614Y67241196D01*
X1793050Y67449191D01*
X1288871Y67465486D01*
X816836Y67287599D01*
X747386Y67241196D01*
X674942Y67027786D01*
X420000Y67027786D01*
X420000Y68279986D01*
X507544Y68068114D01*
X836383Y67738700D01*
X1266252Y67560203D01*
X1731706Y67559797D01*
X2161886Y67737544D01*
X2491300Y68066383D01*
X2550935Y68210000D01*
X4429995Y68210000D01*
X4430000Y68209999D01*
X4628995Y68249583D01*
X4797696Y68362304D01*
X8585391Y72150000D01*
X9661314Y72150000D01*
X9707544Y72038114D01*
G36*
X20460000Y57004609D02*
X20460000Y56471455D01*
X20152685Y56266114D01*
X19899061Y55886539D01*
X19810000Y55438799D01*
X19810000Y54781201D01*
X19899061Y54333461D01*
X20152685Y53953886D01*
X20532260Y53700262D01*
X20980000Y53611201D01*
X21427740Y53700262D01*
X21680000Y53868817D01*
X21680000Y52415391D01*
X20884608Y51620000D01*
X11939552Y51620000D01*
X11765099Y51794757D01*
X11463824Y51919858D01*
X11137607Y51920142D01*
X10836114Y51795568D01*
X10605243Y51565099D01*
X10480142Y51263824D01*
X10479858Y50937607D01*
X10604432Y50636114D01*
X10834901Y50405243D01*
X11136176Y50280142D01*
X11462393Y50279858D01*
X11763886Y50404432D01*
X11939760Y50580000D01*
X21099995Y50580000D01*
X21100000Y50579999D01*
X21298995Y50619583D01*
X21467696Y50732304D01*
X22185391Y51450000D01*
X23000000Y51450000D01*
X23000000Y50135391D01*
X21832304Y48967696D01*
X21719583Y48798995D01*
X21703033Y48715793D01*
X21427740Y48899738D01*
X20980000Y48988799D01*
X20532260Y48899738D01*
X20152685Y48646114D01*
X19899061Y48266539D01*
X19810000Y47818799D01*
X19810000Y47161201D01*
X19899061Y46713461D01*
X20152685Y46333886D01*
X20532260Y46080262D01*
X20980000Y45991201D01*
X21427740Y46080262D01*
X21680000Y46248817D01*
X21680000Y43115391D01*
X19632304Y41067696D01*
X19519583Y40898995D01*
X19479999Y40700000D01*
X19480000Y40699995D01*
X19480000Y35967482D01*
X19224971Y35862107D01*
X18839248Y35477056D01*
X18630238Y34973705D01*
X18629763Y34428686D01*
X18837893Y33924971D01*
X19222944Y33539248D01*
X19480000Y33432509D01*
X19480000Y32915391D01*
X19084608Y32520000D01*
X11289580Y32520000D01*
X11238152Y32545067D01*
X11200000Y32550000D01*
X9420000Y32550000D01*
X9420000Y33432518D01*
X9675029Y33537893D01*
X9855469Y33718019D01*
X10930747Y33718019D01*
X11027524Y33483827D01*
X11559346Y33242521D01*
X12143030Y33223102D01*
X12689715Y33428529D01*
X12772476Y33483827D01*
X12869253Y33718019D01*
X16030747Y33718019D01*
X16127524Y33483827D01*
X16659346Y33242521D01*
X17243030Y33223102D01*
X17789715Y33428529D01*
X17872476Y33483827D01*
X17969253Y33718019D01*
X17000000Y34687272D01*
X16030747Y33718019D01*
X12869253Y33718019D01*
X11900000Y34687272D01*
X10930747Y33718019D01*
X9855469Y33718019D01*
X10060752Y33922944D01*
X10269762Y34426295D01*
X10269788Y34456970D01*
X10423102Y34456970D01*
X10628529Y33910285D01*
X10683827Y33827524D01*
X10918019Y33730747D01*
X11887272Y34700000D01*
X11912728Y34700000D01*
X12881981Y33730747D01*
X13116173Y33827524D01*
X13357479Y34359346D01*
X13360726Y34456970D01*
X15523102Y34456970D01*
X15728529Y33910285D01*
X15783827Y33827524D01*
X16018019Y33730747D01*
X16987272Y34700000D01*
X17012728Y34700000D01*
X17981981Y33730747D01*
X18216173Y33827524D01*
X18457479Y34359346D01*
X18476898Y34943030D01*
X18271471Y35489715D01*
X18216173Y35572476D01*
X17981981Y35669253D01*
X17012728Y34700000D01*
X16987272Y34700000D01*
X16018019Y35669253D01*
X15783827Y35572476D01*
X15542521Y35040654D01*
X15523102Y34456970D01*
X13360726Y34456970D01*
X13376898Y34943030D01*
X13171471Y35489715D01*
X13116173Y35572476D01*
X12881981Y35669253D01*
X11912728Y34700000D01*
X11887272Y34700000D01*
X10918019Y35669253D01*
X10683827Y35572476D01*
X10442521Y35040654D01*
X10423102Y34456970D01*
X10269788Y34456970D01*
X10270237Y34971314D01*
X10062107Y35475029D01*
X9855516Y35681981D01*
X10930747Y35681981D01*
X11900000Y34712728D01*
X12869253Y35681981D01*
X16030747Y35681981D01*
X17000000Y34712728D01*
X17969253Y35681981D01*
X17872476Y35916173D01*
X17340654Y36157479D01*
X16756970Y36176898D01*
X16210285Y35971471D01*
X16127524Y35916173D01*
X16030747Y35681981D01*
X12869253Y35681981D01*
X12772476Y35916173D01*
X12240654Y36157479D01*
X11656970Y36176898D01*
X11110285Y35971471D01*
X11027524Y35916173D01*
X10930747Y35681981D01*
X9855516Y35681981D01*
X9677056Y35860752D01*
X9173705Y36069762D01*
X8628686Y36070237D01*
X8371444Y35963947D01*
X5168980Y39166412D01*
X13819140Y39166412D01*
X13867250Y38973783D01*
X14254555Y38799099D01*
X14679228Y38785927D01*
X15076614Y38936274D01*
X15132750Y38973783D01*
X15180860Y39166412D01*
X14500000Y39847272D01*
X13819140Y39166412D01*
X5168980Y39166412D01*
X4654620Y39680772D01*
X13425927Y39680772D01*
X13576274Y39283386D01*
X13613783Y39227250D01*
X13806412Y39179140D01*
X14487272Y39860000D01*
X14512728Y39860000D01*
X15193588Y39179140D01*
X15386217Y39227250D01*
X15560901Y39614555D01*
X15574073Y40039228D01*
X15423726Y40436614D01*
X15386217Y40492750D01*
X15193588Y40540860D01*
X14512728Y39860000D01*
X14487272Y39860000D01*
X13806412Y40540860D01*
X13613783Y40492750D01*
X13439099Y40105445D01*
X13425927Y39680772D01*
X4654620Y39680772D01*
X4620000Y39715392D01*
X4620000Y39728719D01*
X4650000Y39722752D01*
X6050000Y39722752D01*
X6194367Y39751468D01*
X6316755Y39833245D01*
X6398532Y39955633D01*
X6427248Y40100000D01*
X6427248Y40553588D01*
X13819140Y40553588D01*
X14500000Y39872728D01*
X15180860Y40553588D01*
X15132750Y40746217D01*
X14745445Y40920901D01*
X14320772Y40934073D01*
X13923386Y40783726D01*
X13867250Y40746217D01*
X13819140Y40553588D01*
X6427248Y40553588D01*
X6427248Y41500000D01*
X6398532Y41644367D01*
X6316755Y41766755D01*
X6194367Y41848532D01*
X6050000Y41877248D01*
X5870000Y41877248D01*
X5870000Y44053177D01*
X6075029Y44137893D01*
X6460752Y44522944D01*
X6669762Y45026295D01*
X6670237Y45571314D01*
X6462107Y46075029D01*
X6077056Y46460752D01*
X5820000Y46567491D01*
X5820000Y46684608D01*
X6105392Y46970000D01*
X7148032Y46970000D01*
X7199061Y46713461D01*
X7452685Y46333886D01*
X7832260Y46080262D01*
X7850000Y46076733D01*
X7850000Y45587615D01*
X7739248Y45477056D01*
X7530238Y44973705D01*
X7529763Y44428686D01*
X7737893Y43924971D01*
X8122944Y43539248D01*
X8626295Y43330238D01*
X9171314Y43329763D01*
X9675029Y43537893D01*
X10060752Y43922944D01*
X10167491Y44180000D01*
X10632518Y44180000D01*
X10737893Y43924971D01*
X11122944Y43539248D01*
X11626295Y43330238D01*
X12171314Y43329763D01*
X12675029Y43537893D01*
X13060752Y43922944D01*
X13071987Y43950000D01*
X14400000Y43950000D01*
X14457403Y43961418D01*
X14470285Y43970026D01*
X14692098Y43969832D01*
X15048743Y44117195D01*
X15321846Y44389822D01*
X15342874Y44440463D01*
X15438995Y44459583D01*
X15607696Y44572304D01*
X15629908Y44594516D01*
X15629763Y44428686D01*
X15837893Y43924971D01*
X16222944Y43539248D01*
X16726295Y43330238D01*
X17271314Y43329763D01*
X17775029Y43537893D01*
X18160752Y43922944D01*
X18267491Y44180000D01*
X18732518Y44180000D01*
X18837893Y43924971D01*
X19222944Y43539248D01*
X19726295Y43330238D01*
X20271314Y43329763D01*
X20775029Y43537893D01*
X21160752Y43922944D01*
X21369762Y44426295D01*
X21370237Y44971314D01*
X21162107Y45475029D01*
X20777056Y45860752D01*
X20273705Y46069762D01*
X19728686Y46070237D01*
X19224971Y45862107D01*
X18960000Y45597598D01*
X18960000Y46128545D01*
X19267315Y46333886D01*
X19520939Y46713461D01*
X19610000Y47161201D01*
X19610000Y47818799D01*
X19520939Y48266539D01*
X19267315Y48646114D01*
X18887740Y48899738D01*
X18440000Y48988799D01*
X17992260Y48899738D01*
X17917822Y48850000D01*
X16422178Y48850000D01*
X16347740Y48899738D01*
X15900000Y48988799D01*
X15452260Y48899738D01*
X15120000Y48677729D01*
X15120000Y48999995D01*
X15120001Y49000000D01*
X15080417Y49198995D01*
X14967696Y49367696D01*
X14967693Y49367698D01*
X14467696Y49867696D01*
X14298995Y49980417D01*
X14100000Y50020001D01*
X14099995Y50020000D01*
X10615391Y50020000D01*
X10120000Y50515392D01*
X10120000Y53868817D01*
X10372260Y53700262D01*
X10820000Y53611201D01*
X11267740Y53700262D01*
X11353375Y53757481D01*
X12724057Y53826015D01*
X12912260Y53700262D01*
X13360000Y53611201D01*
X13807740Y53700262D01*
X14031839Y53850000D01*
X15228161Y53850000D01*
X15452260Y53700262D01*
X15900000Y53611201D01*
X16347740Y53700262D01*
X16571839Y53850000D01*
X16600000Y53850000D01*
X16657403Y53861418D01*
X16706066Y53893934D01*
X16738582Y53942597D01*
X16746555Y53982681D01*
X16980939Y54333461D01*
X17070000Y54781201D01*
X17070000Y55438799D01*
X17270000Y55438799D01*
X17270000Y54781201D01*
X17359061Y54333461D01*
X17612685Y53953886D01*
X17992260Y53700262D01*
X18440000Y53611201D01*
X18887740Y53700262D01*
X19267315Y53953886D01*
X19520939Y54333461D01*
X19610000Y54781201D01*
X19610000Y55438799D01*
X19520939Y55886539D01*
X19267315Y56266114D01*
X18887740Y56519738D01*
X18440000Y56608799D01*
X17992260Y56519738D01*
X17612685Y56266114D01*
X17359061Y55886539D01*
X17270000Y55438799D01*
X17070000Y55438799D01*
X16980939Y55886539D01*
X16750000Y56232164D01*
X16750000Y56729956D01*
X16971314Y56729763D01*
X17475029Y56937893D01*
X17860752Y57322944D01*
X17967491Y57580000D01*
X19884608Y57580000D01*
X20460000Y57004609D01*
X20460000Y57004609D01*
G37*
X20460000Y57004609D02*
X20460000Y56471455D01*
X20152685Y56266114D01*
X19899061Y55886539D01*
X19810000Y55438799D01*
X19810000Y54781201D01*
X19899061Y54333461D01*
X20152685Y53953886D01*
X20532260Y53700262D01*
X20980000Y53611201D01*
X21427740Y53700262D01*
X21680000Y53868817D01*
X21680000Y52415391D01*
X20884608Y51620000D01*
X11939552Y51620000D01*
X11765099Y51794757D01*
X11463824Y51919858D01*
X11137607Y51920142D01*
X10836114Y51795568D01*
X10605243Y51565099D01*
X10480142Y51263824D01*
X10479858Y50937607D01*
X10604432Y50636114D01*
X10834901Y50405243D01*
X11136176Y50280142D01*
X11462393Y50279858D01*
X11763886Y50404432D01*
X11939760Y50580000D01*
X21099995Y50580000D01*
X21100000Y50579999D01*
X21298995Y50619583D01*
X21467696Y50732304D01*
X22185391Y51450000D01*
X23000000Y51450000D01*
X23000000Y50135391D01*
X21832304Y48967696D01*
X21719583Y48798995D01*
X21703033Y48715793D01*
X21427740Y48899738D01*
X20980000Y48988799D01*
X20532260Y48899738D01*
X20152685Y48646114D01*
X19899061Y48266539D01*
X19810000Y47818799D01*
X19810000Y47161201D01*
X19899061Y46713461D01*
X20152685Y46333886D01*
X20532260Y46080262D01*
X20980000Y45991201D01*
X21427740Y46080262D01*
X21680000Y46248817D01*
X21680000Y43115391D01*
X19632304Y41067696D01*
X19519583Y40898995D01*
X19479999Y40700000D01*
X19480000Y40699995D01*
X19480000Y35967482D01*
X19224971Y35862107D01*
X18839248Y35477056D01*
X18630238Y34973705D01*
X18629763Y34428686D01*
X18837893Y33924971D01*
X19222944Y33539248D01*
X19480000Y33432509D01*
X19480000Y32915391D01*
X19084608Y32520000D01*
X11289580Y32520000D01*
X11238152Y32545067D01*
X11200000Y32550000D01*
X9420000Y32550000D01*
X9420000Y33432518D01*
X9675029Y33537893D01*
X9855469Y33718019D01*
X10930747Y33718019D01*
X11027524Y33483827D01*
X11559346Y33242521D01*
X12143030Y33223102D01*
X12689715Y33428529D01*
X12772476Y33483827D01*
X12869253Y33718019D01*
X16030747Y33718019D01*
X16127524Y33483827D01*
X16659346Y33242521D01*
X17243030Y33223102D01*
X17789715Y33428529D01*
X17872476Y33483827D01*
X17969253Y33718019D01*
X17000000Y34687272D01*
X16030747Y33718019D01*
X12869253Y33718019D01*
X11900000Y34687272D01*
X10930747Y33718019D01*
X9855469Y33718019D01*
X10060752Y33922944D01*
X10269762Y34426295D01*
X10269788Y34456970D01*
X10423102Y34456970D01*
X10628529Y33910285D01*
X10683827Y33827524D01*
X10918019Y33730747D01*
X11887272Y34700000D01*
X11912728Y34700000D01*
X12881981Y33730747D01*
X13116173Y33827524D01*
X13357479Y34359346D01*
X13360726Y34456970D01*
X15523102Y34456970D01*
X15728529Y33910285D01*
X15783827Y33827524D01*
X16018019Y33730747D01*
X16987272Y34700000D01*
X17012728Y34700000D01*
X17981981Y33730747D01*
X18216173Y33827524D01*
X18457479Y34359346D01*
X18476898Y34943030D01*
X18271471Y35489715D01*
X18216173Y35572476D01*
X17981981Y35669253D01*
X17012728Y34700000D01*
X16987272Y34700000D01*
X16018019Y35669253D01*
X15783827Y35572476D01*
X15542521Y35040654D01*
X15523102Y34456970D01*
X13360726Y34456970D01*
X13376898Y34943030D01*
X13171471Y35489715D01*
X13116173Y35572476D01*
X12881981Y35669253D01*
X11912728Y34700000D01*
X11887272Y34700000D01*
X10918019Y35669253D01*
X10683827Y35572476D01*
X10442521Y35040654D01*
X10423102Y34456970D01*
X10269788Y34456970D01*
X10270237Y34971314D01*
X10062107Y35475029D01*
X9855516Y35681981D01*
X10930747Y35681981D01*
X11900000Y34712728D01*
X12869253Y35681981D01*
X16030747Y35681981D01*
X17000000Y34712728D01*
X17969253Y35681981D01*
X17872476Y35916173D01*
X17340654Y36157479D01*
X16756970Y36176898D01*
X16210285Y35971471D01*
X16127524Y35916173D01*
X16030747Y35681981D01*
X12869253Y35681981D01*
X12772476Y35916173D01*
X12240654Y36157479D01*
X11656970Y36176898D01*
X11110285Y35971471D01*
X11027524Y35916173D01*
X10930747Y35681981D01*
X9855516Y35681981D01*
X9677056Y35860752D01*
X9173705Y36069762D01*
X8628686Y36070237D01*
X8371444Y35963947D01*
X5168980Y39166412D01*
X13819140Y39166412D01*
X13867250Y38973783D01*
X14254555Y38799099D01*
X14679228Y38785927D01*
X15076614Y38936274D01*
X15132750Y38973783D01*
X15180860Y39166412D01*
X14500000Y39847272D01*
X13819140Y39166412D01*
X5168980Y39166412D01*
X4654620Y39680772D01*
X13425927Y39680772D01*
X13576274Y39283386D01*
X13613783Y39227250D01*
X13806412Y39179140D01*
X14487272Y39860000D01*
X14512728Y39860000D01*
X15193588Y39179140D01*
X15386217Y39227250D01*
X15560901Y39614555D01*
X15574073Y40039228D01*
X15423726Y40436614D01*
X15386217Y40492750D01*
X15193588Y40540860D01*
X14512728Y39860000D01*
X14487272Y39860000D01*
X13806412Y40540860D01*
X13613783Y40492750D01*
X13439099Y40105445D01*
X13425927Y39680772D01*
X4654620Y39680772D01*
X4620000Y39715392D01*
X4620000Y39728719D01*
X4650000Y39722752D01*
X6050000Y39722752D01*
X6194367Y39751468D01*
X6316755Y39833245D01*
X6398532Y39955633D01*
X6427248Y40100000D01*
X6427248Y40553588D01*
X13819140Y40553588D01*
X14500000Y39872728D01*
X15180860Y40553588D01*
X15132750Y40746217D01*
X14745445Y40920901D01*
X14320772Y40934073D01*
X13923386Y40783726D01*
X13867250Y40746217D01*
X13819140Y40553588D01*
X6427248Y40553588D01*
X6427248Y41500000D01*
X6398532Y41644367D01*
X6316755Y41766755D01*
X6194367Y41848532D01*
X6050000Y41877248D01*
X5870000Y41877248D01*
X5870000Y44053177D01*
X6075029Y44137893D01*
X6460752Y44522944D01*
X6669762Y45026295D01*
X6670237Y45571314D01*
X6462107Y46075029D01*
X6077056Y46460752D01*
X5820000Y46567491D01*
X5820000Y46684608D01*
X6105392Y46970000D01*
X7148032Y46970000D01*
X7199061Y46713461D01*
X7452685Y46333886D01*
X7832260Y46080262D01*
X7850000Y46076733D01*
X7850000Y45587615D01*
X7739248Y45477056D01*
X7530238Y44973705D01*
X7529763Y44428686D01*
X7737893Y43924971D01*
X8122944Y43539248D01*
X8626295Y43330238D01*
X9171314Y43329763D01*
X9675029Y43537893D01*
X10060752Y43922944D01*
X10167491Y44180000D01*
X10632518Y44180000D01*
X10737893Y43924971D01*
X11122944Y43539248D01*
X11626295Y43330238D01*
X12171314Y43329763D01*
X12675029Y43537893D01*
X13060752Y43922944D01*
X13071987Y43950000D01*
X14400000Y43950000D01*
X14457403Y43961418D01*
X14470285Y43970026D01*
X14692098Y43969832D01*
X15048743Y44117195D01*
X15321846Y44389822D01*
X15342874Y44440463D01*
X15438995Y44459583D01*
X15607696Y44572304D01*
X15629908Y44594516D01*
X15629763Y44428686D01*
X15837893Y43924971D01*
X16222944Y43539248D01*
X16726295Y43330238D01*
X17271314Y43329763D01*
X17775029Y43537893D01*
X18160752Y43922944D01*
X18267491Y44180000D01*
X18732518Y44180000D01*
X18837893Y43924971D01*
X19222944Y43539248D01*
X19726295Y43330238D01*
X20271314Y43329763D01*
X20775029Y43537893D01*
X21160752Y43922944D01*
X21369762Y44426295D01*
X21370237Y44971314D01*
X21162107Y45475029D01*
X20777056Y45860752D01*
X20273705Y46069762D01*
X19728686Y46070237D01*
X19224971Y45862107D01*
X18960000Y45597598D01*
X18960000Y46128545D01*
X19267315Y46333886D01*
X19520939Y46713461D01*
X19610000Y47161201D01*
X19610000Y47818799D01*
X19520939Y48266539D01*
X19267315Y48646114D01*
X18887740Y48899738D01*
X18440000Y48988799D01*
X17992260Y48899738D01*
X17917822Y48850000D01*
X16422178Y48850000D01*
X16347740Y48899738D01*
X15900000Y48988799D01*
X15452260Y48899738D01*
X15120000Y48677729D01*
X15120000Y48999995D01*
X15120001Y49000000D01*
X15080417Y49198995D01*
X14967696Y49367696D01*
X14967693Y49367698D01*
X14467696Y49867696D01*
X14298995Y49980417D01*
X14100000Y50020001D01*
X14099995Y50020000D01*
X10615391Y50020000D01*
X10120000Y50515392D01*
X10120000Y53868817D01*
X10372260Y53700262D01*
X10820000Y53611201D01*
X11267740Y53700262D01*
X11353375Y53757481D01*
X12724057Y53826015D01*
X12912260Y53700262D01*
X13360000Y53611201D01*
X13807740Y53700262D01*
X14031839Y53850000D01*
X15228161Y53850000D01*
X15452260Y53700262D01*
X15900000Y53611201D01*
X16347740Y53700262D01*
X16571839Y53850000D01*
X16600000Y53850000D01*
X16657403Y53861418D01*
X16706066Y53893934D01*
X16738582Y53942597D01*
X16746555Y53982681D01*
X16980939Y54333461D01*
X17070000Y54781201D01*
X17070000Y55438799D01*
X17270000Y55438799D01*
X17270000Y54781201D01*
X17359061Y54333461D01*
X17612685Y53953886D01*
X17992260Y53700262D01*
X18440000Y53611201D01*
X18887740Y53700262D01*
X19267315Y53953886D01*
X19520939Y54333461D01*
X19610000Y54781201D01*
X19610000Y55438799D01*
X19520939Y55886539D01*
X19267315Y56266114D01*
X18887740Y56519738D01*
X18440000Y56608799D01*
X17992260Y56519738D01*
X17612685Y56266114D01*
X17359061Y55886539D01*
X17270000Y55438799D01*
X17070000Y55438799D01*
X16980939Y55886539D01*
X16750000Y56232164D01*
X16750000Y56729956D01*
X16971314Y56729763D01*
X17475029Y56937893D01*
X17860752Y57322944D01*
X17967491Y57580000D01*
X19884608Y57580000D01*
X20460000Y57004609D01*
G36*
X19632302Y64432307D02*
X19632304Y64432304D01*
X19780679Y64333164D01*
X19801005Y64319583D01*
X20000000Y64279999D01*
X20000005Y64280000D01*
X20332518Y64280000D01*
X20437893Y64024971D01*
X20822944Y63639248D01*
X21326295Y63430238D01*
X21871314Y63429763D01*
X22375029Y63637893D01*
X22580000Y63842507D01*
X22580000Y62500005D01*
X22579999Y62500000D01*
X22619583Y62301005D01*
X22732304Y62132304D01*
X25632302Y59232307D01*
X25632304Y59232304D01*
X25728998Y59167696D01*
X25789739Y59127110D01*
X25539248Y58877056D01*
X25432509Y58620000D01*
X24300005Y58620000D01*
X24300000Y58620001D01*
X24101005Y58580417D01*
X23932304Y58467696D01*
X23932302Y58467693D01*
X23514608Y58050000D01*
X22720000Y58050000D01*
X22720000Y59584608D01*
X22815465Y59680073D01*
X23062393Y59679858D01*
X23363886Y59804432D01*
X23594757Y60034901D01*
X23719858Y60336176D01*
X23720142Y60662393D01*
X23595568Y60963886D01*
X23365099Y61194757D01*
X23063824Y61319858D01*
X22737607Y61320142D01*
X22436114Y61195568D01*
X22205243Y60965099D01*
X22080142Y60663824D01*
X22079926Y60415317D01*
X21832304Y60167696D01*
X21719583Y59998995D01*
X21679999Y59800000D01*
X21680000Y59799995D01*
X21680000Y58050000D01*
X20885392Y58050000D01*
X20467696Y58467696D01*
X20298995Y58580417D01*
X20100000Y58620001D01*
X20099995Y58620000D01*
X18759544Y58620000D01*
X18963886Y58704432D01*
X19194757Y58934901D01*
X19319858Y59236176D01*
X19320142Y59562393D01*
X19195568Y59863886D01*
X19020000Y60039760D01*
X19020000Y63199995D01*
X19020001Y63200000D01*
X18980417Y63398995D01*
X18893866Y63528529D01*
X18867696Y63567696D01*
X18867693Y63567698D01*
X18820000Y63615391D01*
X18820000Y64038918D01*
X18961886Y64097544D01*
X19291300Y64426383D01*
X19350935Y64570000D01*
X19494609Y64570000D01*
X19632302Y64432307D01*
X19632302Y64432307D01*
G37*
X19632302Y64432307D02*
X19632304Y64432304D01*
X19780679Y64333164D01*
X19801005Y64319583D01*
X20000000Y64279999D01*
X20000005Y64280000D01*
X20332518Y64280000D01*
X20437893Y64024971D01*
X20822944Y63639248D01*
X21326295Y63430238D01*
X21871314Y63429763D01*
X22375029Y63637893D01*
X22580000Y63842507D01*
X22580000Y62500005D01*
X22579999Y62500000D01*
X22619583Y62301005D01*
X22732304Y62132304D01*
X25632302Y59232307D01*
X25632304Y59232304D01*
X25728998Y59167696D01*
X25789739Y59127110D01*
X25539248Y58877056D01*
X25432509Y58620000D01*
X24300005Y58620000D01*
X24300000Y58620001D01*
X24101005Y58580417D01*
X23932304Y58467696D01*
X23932302Y58467693D01*
X23514608Y58050000D01*
X22720000Y58050000D01*
X22720000Y59584608D01*
X22815465Y59680073D01*
X23062393Y59679858D01*
X23363886Y59804432D01*
X23594757Y60034901D01*
X23719858Y60336176D01*
X23720142Y60662393D01*
X23595568Y60963886D01*
X23365099Y61194757D01*
X23063824Y61319858D01*
X22737607Y61320142D01*
X22436114Y61195568D01*
X22205243Y60965099D01*
X22080142Y60663824D01*
X22079926Y60415317D01*
X21832304Y60167696D01*
X21719583Y59998995D01*
X21679999Y59800000D01*
X21680000Y59799995D01*
X21680000Y58050000D01*
X20885392Y58050000D01*
X20467696Y58467696D01*
X20298995Y58580417D01*
X20100000Y58620001D01*
X20099995Y58620000D01*
X18759544Y58620000D01*
X18963886Y58704432D01*
X19194757Y58934901D01*
X19319858Y59236176D01*
X19320142Y59562393D01*
X19195568Y59863886D01*
X19020000Y60039760D01*
X19020000Y63199995D01*
X19020001Y63200000D01*
X18980417Y63398995D01*
X18893866Y63528529D01*
X18867696Y63567696D01*
X18867693Y63567698D01*
X18820000Y63615391D01*
X18820000Y64038918D01*
X18961886Y64097544D01*
X19291300Y64426383D01*
X19350935Y64570000D01*
X19494609Y64570000D01*
X19632302Y64432307D01*
G36*
X27526870Y63664142D02*
X27512728Y63650000D01*
X28337786Y62824942D01*
X28551196Y62897386D01*
X28580000Y62961028D01*
X28580000Y58999619D01*
X28526292Y59080000D01*
X28467696Y59167696D01*
X28467693Y59167698D01*
X27667696Y59967696D01*
X27620238Y59999406D01*
X27669253Y60118019D01*
X26700000Y61087272D01*
X26685858Y61073130D01*
X26673130Y61085858D01*
X26687272Y61100000D01*
X26712728Y61100000D01*
X27681981Y60130747D01*
X27916173Y60227524D01*
X28157479Y60759346D01*
X28176898Y61343030D01*
X27971471Y61889715D01*
X27916173Y61972476D01*
X27681981Y62069253D01*
X26712728Y61100000D01*
X26687272Y61100000D01*
X25718019Y62069253D01*
X25523331Y61988801D01*
X25477636Y62034496D01*
X25497353Y62081981D01*
X25730747Y62081981D01*
X26700000Y61112728D01*
X27669253Y62081981D01*
X27572476Y62316173D01*
X27423401Y62383813D01*
X27711129Y62374514D01*
X28183164Y62552401D01*
X28252614Y62598804D01*
X28325058Y62812214D01*
X27500000Y63637272D01*
X26674942Y62812214D01*
X26747386Y62598804D01*
X26822670Y62564731D01*
X26456970Y62576898D01*
X25910285Y62371471D01*
X25827524Y62316173D01*
X25730747Y62081981D01*
X25497353Y62081981D01*
X25519858Y62136176D01*
X25520074Y62384682D01*
X26320242Y63184850D01*
X26402401Y62966836D01*
X26448804Y62897386D01*
X26662214Y62824942D01*
X27487272Y63650000D01*
X27473130Y63664142D01*
X27485858Y63676870D01*
X27500000Y63662728D01*
X27514142Y63676870D01*
X27526870Y63664142D01*
X27526870Y63664142D01*
G37*
X27526870Y63664142D02*
X27512728Y63650000D01*
X28337786Y62824942D01*
X28551196Y62897386D01*
X28580000Y62961028D01*
X28580000Y58999619D01*
X28526292Y59080000D01*
X28467696Y59167696D01*
X28467693Y59167698D01*
X27667696Y59967696D01*
X27620238Y59999406D01*
X27669253Y60118019D01*
X26700000Y61087272D01*
X26685858Y61073130D01*
X26673130Y61085858D01*
X26687272Y61100000D01*
X26712728Y61100000D01*
X27681981Y60130747D01*
X27916173Y60227524D01*
X28157479Y60759346D01*
X28176898Y61343030D01*
X27971471Y61889715D01*
X27916173Y61972476D01*
X27681981Y62069253D01*
X26712728Y61100000D01*
X26687272Y61100000D01*
X25718019Y62069253D01*
X25523331Y61988801D01*
X25477636Y62034496D01*
X25497353Y62081981D01*
X25730747Y62081981D01*
X26700000Y61112728D01*
X27669253Y62081981D01*
X27572476Y62316173D01*
X27423401Y62383813D01*
X27711129Y62374514D01*
X28183164Y62552401D01*
X28252614Y62598804D01*
X28325058Y62812214D01*
X27500000Y63637272D01*
X26674942Y62812214D01*
X26747386Y62598804D01*
X26822670Y62564731D01*
X26456970Y62576898D01*
X25910285Y62371471D01*
X25827524Y62316173D01*
X25730747Y62081981D01*
X25497353Y62081981D01*
X25519858Y62136176D01*
X25520074Y62384682D01*
X26320242Y63184850D01*
X26402401Y62966836D01*
X26448804Y62897386D01*
X26662214Y62824942D01*
X27487272Y63650000D01*
X27473130Y63664142D01*
X27485858Y63676870D01*
X27500000Y63662728D01*
X27514142Y63676870D01*
X27526870Y63664142D01*
G36*
X14526870Y62954142D02*
X14512728Y62940000D01*
X14526870Y62925858D01*
X14514142Y62913130D01*
X14500000Y62927272D01*
X14485858Y62913130D01*
X14473130Y62925858D01*
X14487272Y62940000D01*
X14473130Y62954142D01*
X14485858Y62966870D01*
X14500000Y62952728D01*
X14514142Y62966870D01*
X14526870Y62954142D01*
X14526870Y62954142D01*
G37*
X14526870Y62954142D02*
X14512728Y62940000D01*
X14526870Y62925858D01*
X14514142Y62913130D01*
X14500000Y62927272D01*
X14485858Y62913130D01*
X14473130Y62925858D01*
X14487272Y62940000D01*
X14473130Y62954142D01*
X14485858Y62966870D01*
X14500000Y62952728D01*
X14514142Y62966870D01*
X14526870Y62954142D01*
G36*
X26507544Y68068114D02*
X26550000Y68025584D01*
X26550000Y66894845D01*
X26508700Y66853617D01*
X26330203Y66423748D01*
X26329797Y65958294D01*
X26507544Y65528114D01*
X26550096Y65485488D01*
X26075840Y65011232D01*
X26076898Y65043030D01*
X25871471Y65589715D01*
X25816173Y65672476D01*
X25581981Y65769253D01*
X24612728Y64800000D01*
X24626870Y64785858D01*
X24614142Y64773130D01*
X24600000Y64787272D01*
X24585858Y64773130D01*
X24573130Y64785858D01*
X24587272Y64800000D01*
X24573130Y64814142D01*
X24585858Y64826870D01*
X24600000Y64812728D01*
X25569253Y65781981D01*
X25472476Y66016173D01*
X24940654Y66257479D01*
X24356970Y66276898D01*
X23810285Y66071471D01*
X23727524Y66016173D01*
X23630748Y65781982D01*
X23620000Y65792730D01*
X23620000Y66084608D01*
X25745391Y68210000D01*
X26448918Y68210000D01*
X26507544Y68068114D01*
X26507544Y68068114D01*
G37*
X26507544Y68068114D02*
X26550000Y68025584D01*
X26550000Y66894845D01*
X26508700Y66853617D01*
X26330203Y66423748D01*
X26329797Y65958294D01*
X26507544Y65528114D01*
X26550096Y65485488D01*
X26075840Y65011232D01*
X26076898Y65043030D01*
X25871471Y65589715D01*
X25816173Y65672476D01*
X25581981Y65769253D01*
X24612728Y64800000D01*
X24626870Y64785858D01*
X24614142Y64773130D01*
X24600000Y64787272D01*
X24585858Y64773130D01*
X24573130Y64785858D01*
X24587272Y64800000D01*
X24573130Y64814142D01*
X24585858Y64826870D01*
X24600000Y64812728D01*
X25569253Y65781981D01*
X25472476Y66016173D01*
X24940654Y66257479D01*
X24356970Y66276898D01*
X23810285Y66071471D01*
X23727524Y66016173D01*
X23630748Y65781982D01*
X23620000Y65792730D01*
X23620000Y66084608D01*
X25745391Y68210000D01*
X26448918Y68210000D01*
X26507544Y68068114D01*
G36*
X28580000Y71979504D02*
X28551196Y72022614D01*
X28337786Y72095058D01*
X27512728Y71270000D01*
X28337786Y70444942D01*
X28551196Y70517386D01*
X28580000Y70581028D01*
X28580000Y69180014D01*
X28492456Y69391886D01*
X28163617Y69721300D01*
X27733748Y69899797D01*
X27268294Y69900203D01*
X26838114Y69722456D01*
X26508700Y69393617D01*
X26449065Y69250000D01*
X25530005Y69250000D01*
X25530000Y69250001D01*
X25331005Y69210417D01*
X25162304Y69097696D01*
X25162302Y69097693D01*
X22732304Y66667696D01*
X22619583Y66498995D01*
X22579999Y66300000D01*
X22580000Y66299995D01*
X22580000Y65757454D01*
X22377056Y65960752D01*
X21873705Y66169762D01*
X21328686Y66170237D01*
X20824971Y65962107D01*
X20439248Y65577056D01*
X20332509Y65320000D01*
X20215392Y65320000D01*
X20077696Y65457696D01*
X19908995Y65570417D01*
X19710000Y65610001D01*
X19709995Y65610000D01*
X19351082Y65610000D01*
X19292456Y65751886D01*
X18963617Y66081300D01*
X18533748Y66259797D01*
X18068294Y66260203D01*
X17638114Y66082456D01*
X17308700Y65753617D01*
X17249065Y65610000D01*
X17151082Y65610000D01*
X17092456Y65751886D01*
X16763617Y66081300D01*
X16333748Y66259797D01*
X15868294Y66260203D01*
X15438114Y66082456D01*
X15320000Y65964548D01*
X15320000Y67884608D01*
X16015464Y68580073D01*
X16262393Y68579858D01*
X16563886Y68704432D01*
X16794757Y68934901D01*
X16919858Y69236176D01*
X16920142Y69562393D01*
X16795568Y69863886D01*
X16579830Y70080000D01*
X17399995Y70080000D01*
X17400000Y70079999D01*
X17598995Y70119583D01*
X17767696Y70232304D01*
X17967605Y70432214D01*
X26674942Y70432214D01*
X26747386Y70218804D01*
X27206950Y70010809D01*
X27711129Y69994514D01*
X28183164Y70172401D01*
X28252614Y70218804D01*
X28325058Y70432214D01*
X27500000Y71257272D01*
X26674942Y70432214D01*
X17967605Y70432214D01*
X18594262Y71058871D01*
X26224514Y71058871D01*
X26402401Y70586836D01*
X26448804Y70517386D01*
X26662214Y70444942D01*
X27487272Y71270000D01*
X26662214Y72095058D01*
X26448804Y72022614D01*
X26240809Y71563050D01*
X26224514Y71058871D01*
X18594262Y71058871D01*
X18667693Y71132302D01*
X18667696Y71132304D01*
X18751196Y71257272D01*
X18780417Y71301004D01*
X18820001Y71500000D01*
X18820000Y71500005D01*
X18820000Y71658918D01*
X18961886Y71717544D01*
X19291300Y72046383D01*
X19316796Y72107786D01*
X26674942Y72107786D01*
X27500000Y71282728D01*
X28325058Y72107786D01*
X28252614Y72321196D01*
X27793050Y72529191D01*
X27288871Y72545486D01*
X26816836Y72367599D01*
X26747386Y72321196D01*
X26674942Y72107786D01*
X19316796Y72107786D01*
X19350935Y72190000D01*
X25209995Y72190000D01*
X25210000Y72189999D01*
X25408995Y72229583D01*
X25577696Y72342304D01*
X26471277Y73235886D01*
X26507544Y73148114D01*
X26836383Y72818700D01*
X27266252Y72640203D01*
X27731706Y72639797D01*
X28161886Y72817544D01*
X28491300Y73146383D01*
X28580000Y73359997D01*
X28580000Y71979504D01*
X28580000Y71979504D01*
G37*
X28580000Y71979504D02*
X28551196Y72022614D01*
X28337786Y72095058D01*
X27512728Y71270000D01*
X28337786Y70444942D01*
X28551196Y70517386D01*
X28580000Y70581028D01*
X28580000Y69180014D01*
X28492456Y69391886D01*
X28163617Y69721300D01*
X27733748Y69899797D01*
X27268294Y69900203D01*
X26838114Y69722456D01*
X26508700Y69393617D01*
X26449065Y69250000D01*
X25530005Y69250000D01*
X25530000Y69250001D01*
X25331005Y69210417D01*
X25162304Y69097696D01*
X25162302Y69097693D01*
X22732304Y66667696D01*
X22619583Y66498995D01*
X22579999Y66300000D01*
X22580000Y66299995D01*
X22580000Y65757454D01*
X22377056Y65960752D01*
X21873705Y66169762D01*
X21328686Y66170237D01*
X20824971Y65962107D01*
X20439248Y65577056D01*
X20332509Y65320000D01*
X20215392Y65320000D01*
X20077696Y65457696D01*
X19908995Y65570417D01*
X19710000Y65610001D01*
X19709995Y65610000D01*
X19351082Y65610000D01*
X19292456Y65751886D01*
X18963617Y66081300D01*
X18533748Y66259797D01*
X18068294Y66260203D01*
X17638114Y66082456D01*
X17308700Y65753617D01*
X17249065Y65610000D01*
X17151082Y65610000D01*
X17092456Y65751886D01*
X16763617Y66081300D01*
X16333748Y66259797D01*
X15868294Y66260203D01*
X15438114Y66082456D01*
X15320000Y65964548D01*
X15320000Y67884608D01*
X16015464Y68580073D01*
X16262393Y68579858D01*
X16563886Y68704432D01*
X16794757Y68934901D01*
X16919858Y69236176D01*
X16920142Y69562393D01*
X16795568Y69863886D01*
X16579830Y70080000D01*
X17399995Y70080000D01*
X17400000Y70079999D01*
X17598995Y70119583D01*
X17767696Y70232304D01*
X17967605Y70432214D01*
X26674942Y70432214D01*
X26747386Y70218804D01*
X27206950Y70010809D01*
X27711129Y69994514D01*
X28183164Y70172401D01*
X28252614Y70218804D01*
X28325058Y70432214D01*
X27500000Y71257272D01*
X26674942Y70432214D01*
X17967605Y70432214D01*
X18594262Y71058871D01*
X26224514Y71058871D01*
X26402401Y70586836D01*
X26448804Y70517386D01*
X26662214Y70444942D01*
X27487272Y71270000D01*
X26662214Y72095058D01*
X26448804Y72022614D01*
X26240809Y71563050D01*
X26224514Y71058871D01*
X18594262Y71058871D01*
X18667693Y71132302D01*
X18667696Y71132304D01*
X18751196Y71257272D01*
X18780417Y71301004D01*
X18820001Y71500000D01*
X18820000Y71500005D01*
X18820000Y71658918D01*
X18961886Y71717544D01*
X19291300Y72046383D01*
X19316796Y72107786D01*
X26674942Y72107786D01*
X27500000Y71282728D01*
X28325058Y72107786D01*
X28252614Y72321196D01*
X27793050Y72529191D01*
X27288871Y72545486D01*
X26816836Y72367599D01*
X26747386Y72321196D01*
X26674942Y72107786D01*
X19316796Y72107786D01*
X19350935Y72190000D01*
X25209995Y72190000D01*
X25210000Y72189999D01*
X25408995Y72229583D01*
X25577696Y72342304D01*
X26471277Y73235886D01*
X26507544Y73148114D01*
X26836383Y72818700D01*
X27266252Y72640203D01*
X27731706Y72639797D01*
X28161886Y72817544D01*
X28491300Y73146383D01*
X28580000Y73359997D01*
X28580000Y71979504D01*
G36*
X28580000Y77396932D02*
X28566755Y77416755D01*
X28444367Y77498532D01*
X28300000Y77527248D01*
X26700000Y77527248D01*
X26555633Y77498532D01*
X26433245Y77416755D01*
X26351468Y77294367D01*
X26322752Y77150000D01*
X26322752Y76870000D01*
X25865391Y76870000D01*
X24567696Y78167696D01*
X24398995Y78280417D01*
X24200000Y78320001D01*
X24199995Y78320000D01*
X19071281Y78320000D01*
X19077248Y78350000D01*
X19077248Y79750000D01*
X19048532Y79894367D01*
X18966755Y80016755D01*
X18844367Y80098532D01*
X18700000Y80127248D01*
X17300000Y80127248D01*
X17155633Y80098532D01*
X17033245Y80016755D01*
X16951468Y79894367D01*
X16922752Y79750000D01*
X16922752Y79570000D01*
X16750000Y79570000D01*
X16551005Y79530417D01*
X16382304Y79417696D01*
X16382302Y79417693D01*
X11484608Y74520000D01*
X9700000Y74520000D01*
X9501005Y74480417D01*
X9332304Y74367696D01*
X9332302Y74367693D01*
X4214608Y69250000D01*
X2551082Y69250000D01*
X2492456Y69391886D01*
X2163617Y69721300D01*
X1733748Y69899797D01*
X1268294Y69900203D01*
X838114Y69722456D01*
X508700Y69393617D01*
X420000Y69180003D01*
X420000Y70432214D01*
X674942Y70432214D01*
X747386Y70218804D01*
X1206950Y70010809D01*
X1711129Y69994514D01*
X2183164Y70172401D01*
X2252614Y70218804D01*
X2325058Y70432214D01*
X1500000Y71257272D01*
X674942Y70432214D01*
X420000Y70432214D01*
X420000Y70560496D01*
X448804Y70517386D01*
X662214Y70444942D01*
X1487272Y71270000D01*
X1512728Y71270000D01*
X2337786Y70444942D01*
X2551196Y70517386D01*
X2759191Y70976950D01*
X2775486Y71481129D01*
X2597599Y71953164D01*
X2551196Y72022614D01*
X2337786Y72095058D01*
X1512728Y71270000D01*
X1487272Y71270000D01*
X662214Y72095058D01*
X448804Y72022614D01*
X420000Y71958972D01*
X420000Y72107786D01*
X674942Y72107786D01*
X1500000Y71282728D01*
X2325058Y72107786D01*
X2252614Y72321196D01*
X1793050Y72529191D01*
X1288871Y72545486D01*
X816836Y72367599D01*
X747386Y72321196D01*
X674942Y72107786D01*
X420000Y72107786D01*
X420000Y73359986D01*
X507544Y73148114D01*
X836383Y72818700D01*
X1266252Y72640203D01*
X1731706Y72639797D01*
X2161886Y72817544D01*
X2491300Y73146383D01*
X2550935Y73290000D01*
X2709995Y73290000D01*
X2710000Y73289999D01*
X2908995Y73329583D01*
X3077696Y73442304D01*
X3367693Y73732302D01*
X3367696Y73732304D01*
X3432793Y73829730D01*
X3622944Y73639248D01*
X4126295Y73430238D01*
X4671314Y73429763D01*
X5175029Y73637893D01*
X5560752Y74022944D01*
X5667491Y74280000D01*
X6132518Y74280000D01*
X6237893Y74024971D01*
X6622944Y73639248D01*
X7126295Y73430238D01*
X7671314Y73429763D01*
X8175029Y73637893D01*
X8560752Y74022944D01*
X8769762Y74526295D01*
X8770237Y75071314D01*
X8663947Y75328556D01*
X9365391Y76030000D01*
X10057118Y76030000D01*
X10092369Y75944685D01*
X10393102Y75643427D01*
X10786230Y75480186D01*
X11211902Y75479814D01*
X11605315Y75642369D01*
X11906573Y75943102D01*
X12069814Y76336230D01*
X12070186Y76761902D01*
X11950000Y77052774D01*
X11950000Y78072050D01*
X11966755Y78083245D01*
X12048532Y78205633D01*
X12077248Y78350000D01*
X12077248Y79750000D01*
X12048532Y79894367D01*
X11966755Y80016755D01*
X11844367Y80098532D01*
X11700000Y80127248D01*
X10300000Y80127248D01*
X10155633Y80098532D01*
X10033245Y80016755D01*
X9951468Y79894367D01*
X9922752Y79750000D01*
X9922752Y79570000D01*
X9750005Y79570000D01*
X9750000Y79570001D01*
X9551004Y79530417D01*
X9483433Y79485267D01*
X9382304Y79417696D01*
X9382302Y79417693D01*
X7084608Y77120000D01*
X4100005Y77120000D01*
X4100000Y77120001D01*
X3901005Y77080417D01*
X3732304Y76967696D01*
X3732302Y76967693D01*
X2768000Y76003392D01*
X2768000Y76224000D01*
X2651000Y76341000D01*
X1509000Y76341000D01*
X1509000Y76321000D01*
X1491000Y76321000D01*
X1491000Y76341000D01*
X1471000Y76341000D01*
X1471000Y76359000D01*
X1491000Y76359000D01*
X1491000Y77501000D01*
X1509000Y77501000D01*
X1509000Y76359000D01*
X2651000Y76359000D01*
X2768000Y76476000D01*
X2768000Y77243091D01*
X2696751Y77415101D01*
X2565101Y77546751D01*
X2393091Y77618000D01*
X1626000Y77618000D01*
X1509000Y77501000D01*
X1491000Y77501000D01*
X1374000Y77618000D01*
X606909Y77618000D01*
X434899Y77546751D01*
X420000Y77531852D01*
X420000Y81580000D01*
X28580000Y81580000D01*
X28580000Y77396932D01*
X28580000Y77396932D01*
G37*
X28580000Y77396932D02*
X28566755Y77416755D01*
X28444367Y77498532D01*
X28300000Y77527248D01*
X26700000Y77527248D01*
X26555633Y77498532D01*
X26433245Y77416755D01*
X26351468Y77294367D01*
X26322752Y77150000D01*
X26322752Y76870000D01*
X25865391Y76870000D01*
X24567696Y78167696D01*
X24398995Y78280417D01*
X24200000Y78320001D01*
X24199995Y78320000D01*
X19071281Y78320000D01*
X19077248Y78350000D01*
X19077248Y79750000D01*
X19048532Y79894367D01*
X18966755Y80016755D01*
X18844367Y80098532D01*
X18700000Y80127248D01*
X17300000Y80127248D01*
X17155633Y80098532D01*
X17033245Y80016755D01*
X16951468Y79894367D01*
X16922752Y79750000D01*
X16922752Y79570000D01*
X16750000Y79570000D01*
X16551005Y79530417D01*
X16382304Y79417696D01*
X16382302Y79417693D01*
X11484608Y74520000D01*
X9700000Y74520000D01*
X9501005Y74480417D01*
X9332304Y74367696D01*
X9332302Y74367693D01*
X4214608Y69250000D01*
X2551082Y69250000D01*
X2492456Y69391886D01*
X2163617Y69721300D01*
X1733748Y69899797D01*
X1268294Y69900203D01*
X838114Y69722456D01*
X508700Y69393617D01*
X420000Y69180003D01*
X420000Y70432214D01*
X674942Y70432214D01*
X747386Y70218804D01*
X1206950Y70010809D01*
X1711129Y69994514D01*
X2183164Y70172401D01*
X2252614Y70218804D01*
X2325058Y70432214D01*
X1500000Y71257272D01*
X674942Y70432214D01*
X420000Y70432214D01*
X420000Y70560496D01*
X448804Y70517386D01*
X662214Y70444942D01*
X1487272Y71270000D01*
X1512728Y71270000D01*
X2337786Y70444942D01*
X2551196Y70517386D01*
X2759191Y70976950D01*
X2775486Y71481129D01*
X2597599Y71953164D01*
X2551196Y72022614D01*
X2337786Y72095058D01*
X1512728Y71270000D01*
X1487272Y71270000D01*
X662214Y72095058D01*
X448804Y72022614D01*
X420000Y71958972D01*
X420000Y72107786D01*
X674942Y72107786D01*
X1500000Y71282728D01*
X2325058Y72107786D01*
X2252614Y72321196D01*
X1793050Y72529191D01*
X1288871Y72545486D01*
X816836Y72367599D01*
X747386Y72321196D01*
X674942Y72107786D01*
X420000Y72107786D01*
X420000Y73359986D01*
X507544Y73148114D01*
X836383Y72818700D01*
X1266252Y72640203D01*
X1731706Y72639797D01*
X2161886Y72817544D01*
X2491300Y73146383D01*
X2550935Y73290000D01*
X2709995Y73290000D01*
X2710000Y73289999D01*
X2908995Y73329583D01*
X3077696Y73442304D01*
X3367693Y73732302D01*
X3367696Y73732304D01*
X3432793Y73829730D01*
X3622944Y73639248D01*
X4126295Y73430238D01*
X4671314Y73429763D01*
X5175029Y73637893D01*
X5560752Y74022944D01*
X5667491Y74280000D01*
X6132518Y74280000D01*
X6237893Y74024971D01*
X6622944Y73639248D01*
X7126295Y73430238D01*
X7671314Y73429763D01*
X8175029Y73637893D01*
X8560752Y74022944D01*
X8769762Y74526295D01*
X8770237Y75071314D01*
X8663947Y75328556D01*
X9365391Y76030000D01*
X10057118Y76030000D01*
X10092369Y75944685D01*
X10393102Y75643427D01*
X10786230Y75480186D01*
X11211902Y75479814D01*
X11605315Y75642369D01*
X11906573Y75943102D01*
X12069814Y76336230D01*
X12070186Y76761902D01*
X11950000Y77052774D01*
X11950000Y78072050D01*
X11966755Y78083245D01*
X12048532Y78205633D01*
X12077248Y78350000D01*
X12077248Y79750000D01*
X12048532Y79894367D01*
X11966755Y80016755D01*
X11844367Y80098532D01*
X11700000Y80127248D01*
X10300000Y80127248D01*
X10155633Y80098532D01*
X10033245Y80016755D01*
X9951468Y79894367D01*
X9922752Y79750000D01*
X9922752Y79570000D01*
X9750005Y79570000D01*
X9750000Y79570001D01*
X9551004Y79530417D01*
X9483433Y79485267D01*
X9382304Y79417696D01*
X9382302Y79417693D01*
X7084608Y77120000D01*
X4100005Y77120000D01*
X4100000Y77120001D01*
X3901005Y77080417D01*
X3732304Y76967696D01*
X3732302Y76967693D01*
X2768000Y76003392D01*
X2768000Y76224000D01*
X2651000Y76341000D01*
X1509000Y76341000D01*
X1509000Y76321000D01*
X1491000Y76321000D01*
X1491000Y76341000D01*
X1471000Y76341000D01*
X1471000Y76359000D01*
X1491000Y76359000D01*
X1491000Y77501000D01*
X1509000Y77501000D01*
X1509000Y76359000D01*
X2651000Y76359000D01*
X2768000Y76476000D01*
X2768000Y77243091D01*
X2696751Y77415101D01*
X2565101Y77546751D01*
X2393091Y77618000D01*
X1626000Y77618000D01*
X1509000Y77501000D01*
X1491000Y77501000D01*
X1374000Y77618000D01*
X606909Y77618000D01*
X434899Y77546751D01*
X420000Y77531852D01*
X420000Y81580000D01*
X28580000Y81580000D01*
X28580000Y77396932D01*
M02*
