G04 #@! TF.GenerationSoftware,KiCad,Pcbnew,(2016-12-20 revision 2972f6f)-master*
G04 #@! TF.CreationDate,2020-07-05T08:57:13+03:00*
G04 #@! TF.ProjectId,DIYOUT4C,4449594F555434432E6B696361645F70,rev?*
G04 #@! TF.FileFunction,Copper,L1,Top,Signal*
G04 #@! TF.FilePolarity,Positive*
%FSLAX46Y46*%
G04 Gerber Fmt 4.6, Leading zero omitted, Abs format (unit mm)*
G04 Created by KiCad (PCBNEW (2016-12-20 revision 2972f6f)-master) date Sun Jul  5 08:57:13 2020*
%MOMM*%
%LPD*%
G01*
G04 APERTURE LIST*
%ADD10C,0.100000*%
%ADD11C,1.600000*%
%ADD12R,1.600000X1.600000*%
%ADD13C,1.200000*%
%ADD14R,1.400000X1.400000*%
%ADD15C,1.400000*%
%ADD16C,2.000000*%
%ADD17C,2.100000*%
%ADD18O,2.000000X3.000000*%
%ADD19C,6.000000*%
%ADD20C,0.900000*%
%ADD21C,0.300000*%
%ADD22C,0.500000*%
G04 APERTURE END LIST*
D10*
D11*
X27500000Y87650000D03*
X27500000Y90190000D03*
X27500000Y92730000D03*
X27500000Y95270000D03*
D12*
X27500000Y100350000D03*
D11*
X27500000Y97810000D03*
X21897000Y47050000D03*
X21897000Y54670000D03*
D13*
X18500000Y35160000D03*
X18500000Y40240000D03*
X2466000Y79816000D03*
X2466000Y74736000D03*
X26469000Y79816000D03*
X26469000Y74736000D03*
X13900000Y17160000D03*
X13900000Y22240000D03*
X26840000Y22100000D03*
X21760000Y22100000D03*
D14*
X17800000Y18450000D03*
D15*
X17800000Y20950000D03*
D14*
X24300000Y16250000D03*
D15*
X24300000Y18750000D03*
D13*
X11360000Y40200000D03*
X16440000Y40200000D03*
X14465000Y36800000D03*
X15735000Y38070000D03*
X15735000Y35530000D03*
D16*
X11300000Y27280000D03*
X11300000Y17120000D03*
X14320000Y24800000D03*
X24480000Y24800000D03*
D11*
X21100000Y104310000D03*
X21100000Y96690000D03*
X21100000Y87090000D03*
X21100000Y94710000D03*
X24056000Y47050000D03*
X24056000Y54670000D03*
X24500000Y96690000D03*
X24500000Y104310000D03*
X24500000Y94710000D03*
X24500000Y87090000D03*
X21897000Y36001000D03*
X21897000Y43621000D03*
X26200000Y54710000D03*
X26200000Y47090000D03*
D12*
X3730000Y5620000D03*
D11*
X6270000Y5620000D03*
X3730000Y8160000D03*
X6270000Y8160000D03*
X3730000Y10700000D03*
X6270000Y10700000D03*
X3730000Y13240000D03*
X6270000Y13240000D03*
X3730000Y15780000D03*
X6270000Y15780000D03*
D17*
X8500000Y71698000D03*
X8500000Y79826000D03*
X8500000Y68650000D03*
X20500000Y71698000D03*
X20500000Y79826000D03*
X20500000Y68650000D03*
D11*
X3250000Y22950000D03*
X4150000Y28050000D03*
X7350000Y22950000D03*
X8250000Y28050000D03*
D16*
X5000000Y30820000D03*
X5000000Y40980000D03*
X8200000Y40980000D03*
X8200000Y30820000D03*
X21880000Y32800000D03*
X11720000Y32800000D03*
D11*
X1500000Y87650000D03*
X1500000Y90190000D03*
X1500000Y92730000D03*
X1500000Y95270000D03*
D12*
X1500000Y100350000D03*
D11*
X1500000Y97810000D03*
X1500000Y31650000D03*
X1500000Y34190000D03*
X1500000Y36730000D03*
X1500000Y39270000D03*
D12*
X1500000Y44350000D03*
D11*
X1500000Y41810000D03*
X27500000Y31650000D03*
X27500000Y34190000D03*
X27500000Y36730000D03*
X27500000Y39270000D03*
D12*
X27500000Y44350000D03*
D11*
X27500000Y41810000D03*
D18*
X19500000Y53000000D03*
X9500000Y53000000D03*
D11*
X17000000Y45500000D03*
X14500000Y45500000D03*
X12000000Y45500000D03*
X12000000Y43000000D03*
X14500000Y43000000D03*
X17000000Y43000000D03*
D19*
X3800000Y57500000D03*
D16*
X3181000Y84261000D03*
X13181000Y84261000D03*
X15754000Y84261000D03*
X25754000Y84261000D03*
X19400000Y59700000D03*
X9400000Y59700000D03*
X9400000Y62800000D03*
X19400000Y62800000D03*
X7500000Y94100000D03*
X7500000Y104100000D03*
X18700000Y87600000D03*
X8700000Y87600000D03*
X22100000Y12200000D03*
X22100000Y2200000D03*
X25500000Y2200000D03*
X25500000Y12200000D03*
X14500000Y90700000D03*
X14500000Y101800000D03*
X14500000Y93700000D03*
X14500000Y5700000D03*
X14500000Y13800000D03*
X14500000Y2700000D03*
D20*
X18400000Y1900000D03*
X9900000Y3800000D03*
X18600000Y13300000D03*
X20400000Y9800000D03*
X27400000Y8500000D03*
X25800000Y5100000D03*
X27600000Y1000000D03*
X21700000Y4300000D03*
X17300000Y7900000D03*
X10300000Y9300000D03*
X10700000Y14300000D03*
X15800000Y16200000D03*
X21100000Y19900000D03*
X22300000Y24500000D03*
X23700000Y22200000D03*
X13200000Y34000000D03*
X19900000Y33700000D03*
X16600000Y36900000D03*
X12600000Y39000000D03*
X7600000Y46300000D03*
X3400000Y45500000D03*
X3300000Y35400000D03*
X8200000Y35700000D03*
X6600000Y32800000D03*
X10000000Y34200000D03*
X10500000Y30900000D03*
X16500000Y31500000D03*
X20600000Y28700000D03*
X17500000Y25700000D03*
X11600000Y19600000D03*
X9200000Y24600000D03*
X7500000Y17400000D03*
X5500000Y20300000D03*
X4800000Y24200000D03*
X2000000Y26000000D03*
X1600000Y19100000D03*
X1600000Y11100000D03*
X1600000Y1400000D03*
X23700000Y11300000D03*
X25300000Y28300000D03*
X18100000Y95700000D03*
X5500000Y105000000D03*
X15100000Y105100000D03*
X7200000Y89300000D03*
X9100000Y92700000D03*
X19400000Y102500000D03*
X9600000Y102700000D03*
X1600000Y103900000D03*
X5600000Y96200000D03*
X15900000Y98300000D03*
X12000000Y95000000D03*
X20800000Y92800000D03*
X21200000Y89500000D03*
X9700000Y85700000D03*
X27600000Y104700000D03*
X22500000Y102500000D03*
X20500000Y98600000D03*
X20246000Y82356000D03*
X20800000Y85100000D03*
X24700000Y92500000D03*
X24600000Y89200000D03*
X10700000Y57900000D03*
X26000000Y99100000D03*
X24400000Y43000000D03*
X23200000Y45500000D03*
X25400000Y45500000D03*
X24400000Y40700000D03*
X24400000Y35400000D03*
X27700000Y53700000D03*
X22600000Y48500000D03*
X28100000Y46700000D03*
X18600000Y46000000D03*
X15900000Y48700000D03*
X17200000Y60600000D03*
X12880000Y66608000D03*
X13300000Y48900000D03*
X13400000Y58600000D03*
X22500000Y56600000D03*
X22500000Y65800000D03*
X1400000Y67900000D03*
X4600000Y61700000D03*
X7700000Y56600000D03*
X4600000Y52500000D03*
X1100000Y47200000D03*
X26850000Y68513000D03*
X12499000Y73466000D03*
X6149000Y78546000D03*
X24945000Y78292000D03*
X11102000Y79435000D03*
X16944000Y73339000D03*
X21008000Y77657000D03*
X4371000Y81340000D03*
X5133000Y86547000D03*
X24945000Y81594000D03*
X26088000Y61401000D03*
X5641000Y92770000D03*
X20100000Y91300000D03*
X20200000Y30300000D03*
X9200000Y49400000D03*
X9200000Y45400000D03*
D21*
X14500000Y2700000D02*
X13400000Y3800000D01*
X13400000Y3800000D02*
X9900000Y3800000D01*
X21700000Y8500000D02*
X20400000Y9800000D01*
X27400000Y8500000D02*
X21700000Y8500000D01*
X27600000Y3300000D02*
X25800000Y5100000D01*
X27600000Y1000000D02*
X27600000Y3300000D01*
X18100000Y7900000D02*
X21700000Y4300000D01*
X17300000Y7900000D02*
X18100000Y7900000D01*
X10300000Y13900000D02*
X10300000Y9300000D01*
X10700000Y14300000D02*
X10300000Y13900000D01*
X19900000Y16200000D02*
X15800000Y16200000D01*
X21100000Y17400000D02*
X19900000Y16200000D01*
X21100000Y19900000D02*
X21100000Y17400000D01*
X22300000Y24500000D02*
X22300000Y23600000D01*
X21100000Y25700000D02*
X22300000Y24500000D01*
X17500000Y25700000D02*
X21100000Y25700000D01*
X22300000Y23600000D02*
X23700000Y22200000D01*
X13200000Y34000000D02*
X17600000Y34000000D01*
X13200000Y35535000D02*
X13200000Y34000000D01*
X14465000Y36800000D02*
X13200000Y35535000D01*
X17900000Y33700000D02*
X19900000Y33700000D01*
X17600000Y34000000D02*
X17900000Y33700000D01*
X7600000Y46300000D02*
X6800000Y45500000D01*
X6800000Y45500000D02*
X3400000Y45500000D01*
X3600000Y35700000D02*
X3300000Y35400000D01*
X8200000Y35700000D02*
X3600000Y35700000D01*
X8600000Y32800000D02*
X6600000Y32800000D01*
X10000000Y34200000D02*
X8600000Y32800000D01*
X15900000Y30900000D02*
X10500000Y30900000D01*
X16500000Y31500000D02*
X15900000Y30900000D01*
X17600000Y25700000D02*
X20600000Y28700000D01*
X17500000Y25700000D02*
X17600000Y25700000D01*
X9200000Y22000000D02*
X11600000Y19600000D01*
X9200000Y24600000D02*
X9200000Y22000000D01*
X14500000Y2700000D02*
X13200000Y1400000D01*
X5500000Y19400000D02*
X7500000Y17400000D01*
X5500000Y20300000D02*
X5500000Y19400000D01*
X3000000Y26000000D02*
X4800000Y24200000D01*
X2000000Y26000000D02*
X3000000Y26000000D01*
X1600000Y11100000D02*
X1600000Y19100000D01*
X13200000Y1400000D02*
X1600000Y1400000D01*
X26840000Y26760000D02*
X26840000Y22100000D01*
X25300000Y28300000D02*
X26840000Y26760000D01*
X15900000Y98300000D02*
X18100000Y96100000D01*
X18100000Y96100000D02*
X18100000Y95700000D01*
X9600000Y102700000D02*
X12000000Y105100000D01*
X12000000Y105100000D02*
X15100000Y105100000D01*
X9100000Y92700000D02*
X11400000Y95000000D01*
X7200000Y89300000D02*
X7200000Y90800000D01*
X7200000Y90800000D02*
X9100000Y92700000D01*
X8100000Y101200000D02*
X9600000Y102700000D01*
X4300000Y101200000D02*
X8100000Y101200000D01*
X1600000Y103900000D02*
X4300000Y101200000D01*
X7700000Y98300000D02*
X5600000Y96200000D01*
X15900000Y98300000D02*
X7700000Y98300000D01*
X11400000Y95000000D02*
X12000000Y95000000D01*
X20800000Y92800000D02*
X19700000Y93900000D01*
X13181000Y84261000D02*
X11742000Y85700000D01*
X11742000Y85700000D02*
X9700000Y85700000D01*
X27600000Y103400000D02*
X27600000Y104700000D01*
X26700000Y102500000D02*
X27600000Y103400000D01*
X22500000Y102500000D02*
X26700000Y102500000D01*
X19700000Y97800000D02*
X20500000Y98600000D01*
X19700000Y93900000D02*
X19700000Y97800000D01*
X20246000Y82356000D02*
X20800000Y82910000D01*
X20800000Y82910000D02*
X20800000Y85100000D01*
X27500000Y95270000D02*
X26000000Y96770000D01*
X26000000Y96770000D02*
X26000000Y99100000D01*
X25400000Y45500000D02*
X25600000Y45700000D01*
X24400000Y43000000D02*
X24400000Y44300000D01*
X24400000Y44300000D02*
X23200000Y45500000D01*
X27500000Y39270000D02*
X24400000Y36170000D01*
X24400000Y36170000D02*
X24400000Y35400000D01*
X27700000Y53600000D02*
X27700000Y53700000D01*
X22600000Y48500000D02*
X27700000Y53600000D01*
X27100000Y45700000D02*
X28100000Y46700000D01*
X25600000Y45700000D02*
X27100000Y45700000D01*
X13400000Y58600000D02*
X15400000Y60600000D01*
X15400000Y60600000D02*
X17200000Y60600000D01*
X12880000Y66608000D02*
X13400000Y66088000D01*
X10542000Y66608000D02*
X12880000Y66608000D01*
X8500000Y68650000D02*
X10542000Y66608000D01*
X13400000Y66088000D02*
X13400000Y58600000D01*
X22500000Y65800000D02*
X22500000Y56600000D01*
X4600000Y64700000D02*
X1400000Y67900000D01*
X4600000Y61700000D02*
X4600000Y64700000D01*
X4600000Y53500000D02*
X7700000Y56600000D01*
X4600000Y52500000D02*
X4600000Y53500000D01*
X26850000Y62163000D02*
X26088000Y61401000D01*
X26850000Y68513000D02*
X26850000Y62163000D01*
X8500000Y71698000D02*
X6149000Y74049000D01*
X6149000Y74049000D02*
X6149000Y78546000D01*
X24945000Y78292000D02*
X24310000Y77657000D01*
X16944000Y73593000D02*
X11102000Y79435000D01*
X16944000Y73339000D02*
X16944000Y73593000D01*
X24310000Y77657000D02*
X21008000Y77657000D01*
X4371000Y81340000D02*
X5133000Y82102000D01*
X7292000Y84261000D02*
X4371000Y81340000D01*
X13181000Y84261000D02*
X7292000Y84261000D01*
X5133000Y82102000D02*
X5133000Y86547000D01*
X15754000Y84261000D02*
X18421000Y81594000D01*
X18421000Y81594000D02*
X24945000Y81594000D01*
X5641000Y92770000D02*
X1540000Y92770000D01*
X20500000Y79826000D02*
X20510000Y79816000D01*
X20510000Y79816000D02*
X26469000Y79816000D01*
D22*
X21897000Y36001000D02*
X21880000Y35984000D01*
X21880000Y35984000D02*
X21880000Y32800000D01*
X18500000Y35160000D02*
X19341000Y36001000D01*
X19341000Y36001000D02*
X21897000Y36001000D01*
X24500000Y96690000D02*
X24500000Y94710000D01*
X27500000Y100350000D02*
X25550000Y100350000D01*
X24500000Y99300000D02*
X24500000Y96690000D01*
X25550000Y100350000D02*
X24500000Y99300000D01*
D21*
X27500000Y92730000D02*
X26070000Y91300000D01*
X26070000Y91300000D02*
X20100000Y91300000D01*
X24500000Y87090000D02*
X21100000Y87090000D01*
X27500000Y41810000D02*
X23708000Y41810000D01*
X23708000Y41810000D02*
X21897000Y43621000D01*
X27500000Y36730000D02*
X26130000Y36730000D01*
X25600000Y36200000D02*
X25600000Y34830000D01*
X26130000Y36730000D02*
X25600000Y36200000D01*
X25600000Y34830000D02*
X24600000Y33830000D01*
X23400000Y30300000D02*
X20200000Y30300000D01*
X24600000Y31500000D02*
X23400000Y30300000D01*
X24600000Y33830000D02*
X24600000Y31500000D01*
X9200000Y45400000D02*
X9200000Y49400000D01*
G36*
X28580000Y101396932D02*
X28566755Y101416755D01*
X28444367Y101498532D01*
X28300000Y101527248D01*
X26700000Y101527248D01*
X26555633Y101498532D01*
X26433245Y101416755D01*
X26351468Y101294367D01*
X26322752Y101150000D01*
X26322752Y100970000D01*
X25550000Y100970000D01*
X25312736Y100922805D01*
X25111594Y100788406D01*
X24061594Y99738406D01*
X23927195Y99537264D01*
X23880000Y99300000D01*
X23880000Y97699763D01*
X23838114Y97682456D01*
X23508700Y97353617D01*
X23330203Y96923748D01*
X23329797Y96458294D01*
X23507544Y96028114D01*
X23835369Y95699716D01*
X23508700Y95373617D01*
X23330203Y94943748D01*
X23329797Y94478294D01*
X23507544Y94048114D01*
X23836383Y93718700D01*
X24266252Y93540203D01*
X24731706Y93539797D01*
X25161886Y93717544D01*
X25491300Y94046383D01*
X25651510Y94432214D01*
X26674942Y94432214D01*
X26747386Y94218804D01*
X27206950Y94010809D01*
X27711129Y93994514D01*
X28183164Y94172401D01*
X28252614Y94218804D01*
X28325058Y94432214D01*
X27500000Y95257272D01*
X26674942Y94432214D01*
X25651510Y94432214D01*
X25669797Y94476252D01*
X25670203Y94941706D01*
X25621792Y95058871D01*
X26224514Y95058871D01*
X26402401Y94586836D01*
X26448804Y94517386D01*
X26662214Y94444942D01*
X27487272Y95270000D01*
X26662214Y96095058D01*
X26448804Y96022614D01*
X26240809Y95563050D01*
X26224514Y95058871D01*
X25621792Y95058871D01*
X25492456Y95371886D01*
X25164631Y95700284D01*
X25491300Y96026383D01*
X25525101Y96107786D01*
X26674942Y96107786D01*
X27500000Y95282728D01*
X28325058Y96107786D01*
X28252614Y96321196D01*
X27793050Y96529191D01*
X27288871Y96545486D01*
X26816836Y96367599D01*
X26747386Y96321196D01*
X26674942Y96107786D01*
X25525101Y96107786D01*
X25669797Y96456252D01*
X25670203Y96921706D01*
X25492456Y97351886D01*
X25163617Y97681300D01*
X25120000Y97699411D01*
X25120000Y99043188D01*
X25806812Y99730000D01*
X26322752Y99730000D01*
X26322752Y99550000D01*
X26351468Y99405633D01*
X26433245Y99283245D01*
X26450000Y99272050D01*
X26450000Y98332252D01*
X26330203Y98043748D01*
X26329797Y97578294D01*
X26507544Y97148114D01*
X26836383Y96818700D01*
X27266252Y96640203D01*
X27731706Y96639797D01*
X28161886Y96817544D01*
X28491300Y97146383D01*
X28580000Y97359997D01*
X28580000Y95979504D01*
X28551196Y96022614D01*
X28337786Y96095058D01*
X27512728Y95270000D01*
X28337786Y94444942D01*
X28551196Y94517386D01*
X28580000Y94581028D01*
X28580000Y93180014D01*
X28492456Y93391886D01*
X28163617Y93721300D01*
X27733748Y93899797D01*
X27268294Y93900203D01*
X26838114Y93722456D01*
X26508700Y93393617D01*
X26330203Y92963748D01*
X26329797Y92498294D01*
X26389181Y92354573D01*
X25854608Y91820000D01*
X20739552Y91820000D01*
X20565099Y91994757D01*
X20263824Y92119858D01*
X19937607Y92120142D01*
X19636114Y91995568D01*
X19405243Y91765099D01*
X19280142Y91463824D01*
X19279858Y91137607D01*
X19404432Y90836114D01*
X19634901Y90605243D01*
X19936176Y90480142D01*
X20262393Y90479858D01*
X20563886Y90604432D01*
X20739760Y90780000D01*
X26069995Y90780000D01*
X26070000Y90779999D01*
X26268995Y90819583D01*
X26437696Y90932304D01*
X26550000Y91044608D01*
X26550000Y90894845D01*
X26508700Y90853617D01*
X26330203Y90423748D01*
X26329797Y89958294D01*
X26507544Y89528114D01*
X26836383Y89198700D01*
X27266252Y89020203D01*
X27731706Y89019797D01*
X28161886Y89197544D01*
X28491300Y89526383D01*
X28580000Y89739997D01*
X28580000Y88359504D01*
X28551196Y88402614D01*
X28337786Y88475058D01*
X27512728Y87650000D01*
X28337786Y86824942D01*
X28551196Y86897386D01*
X28580000Y86961028D01*
X28580000Y45396932D01*
X28566755Y45416755D01*
X28444367Y45498532D01*
X28300000Y45527248D01*
X26700000Y45527248D01*
X26555633Y45498532D01*
X26433245Y45416755D01*
X26351468Y45294367D01*
X26322752Y45150000D01*
X26322752Y43550000D01*
X26350000Y43413013D01*
X26350000Y42330000D01*
X23923391Y42330000D01*
X23007923Y43245468D01*
X23066797Y43387252D01*
X23067203Y43852706D01*
X22889456Y44282886D01*
X22560617Y44612300D01*
X22130748Y44790797D01*
X21665294Y44791203D01*
X21235114Y44613456D01*
X20905700Y44284617D01*
X20727203Y43854748D01*
X20726797Y43389294D01*
X20904544Y42959114D01*
X21233383Y42629700D01*
X21663252Y42451203D01*
X22128706Y42450797D01*
X22272427Y42510181D01*
X23340302Y41442307D01*
X23340304Y41442304D01*
X23509005Y41329583D01*
X23708000Y41289999D01*
X23708005Y41290000D01*
X26448918Y41290000D01*
X26507544Y41148114D01*
X26836383Y40818700D01*
X27266252Y40640203D01*
X27731706Y40639797D01*
X28161886Y40817544D01*
X28491300Y41146383D01*
X28580000Y41359997D01*
X28580000Y39979504D01*
X28551196Y40022614D01*
X28337786Y40095058D01*
X27512728Y39270000D01*
X28337786Y38444942D01*
X28551196Y38517386D01*
X28580000Y38581028D01*
X28580000Y37180014D01*
X28492456Y37391886D01*
X28163617Y37721300D01*
X27733748Y37899797D01*
X27268294Y37900203D01*
X26838114Y37722456D01*
X26508700Y37393617D01*
X26449065Y37250000D01*
X26130005Y37250000D01*
X26130000Y37250001D01*
X25931004Y37210417D01*
X25872316Y37171203D01*
X25762304Y37097696D01*
X25762302Y37097693D01*
X25232304Y36567696D01*
X25119583Y36398995D01*
X25079999Y36200000D01*
X25080000Y36199995D01*
X25080000Y35045391D01*
X24232304Y34197696D01*
X24119583Y34028995D01*
X24079999Y33830000D01*
X24080000Y33829995D01*
X24080000Y31715391D01*
X23184608Y30820000D01*
X20839552Y30820000D01*
X20665099Y30994757D01*
X20363824Y31119858D01*
X20037607Y31120142D01*
X19736114Y30995568D01*
X19505243Y30765099D01*
X19380142Y30463824D01*
X19379858Y30137607D01*
X19504432Y29836114D01*
X19734901Y29605243D01*
X20036176Y29480142D01*
X20362393Y29479858D01*
X20663886Y29604432D01*
X20839760Y29780000D01*
X23399995Y29780000D01*
X23400000Y29779999D01*
X23598995Y29819583D01*
X23767696Y29932304D01*
X24647605Y30812214D01*
X26674942Y30812214D01*
X26747386Y30598804D01*
X27206950Y30390809D01*
X27711129Y30374514D01*
X28183164Y30552401D01*
X28252614Y30598804D01*
X28325058Y30812214D01*
X27500000Y31637272D01*
X26674942Y30812214D01*
X24647605Y30812214D01*
X24967693Y31132302D01*
X24967696Y31132304D01*
X25035267Y31233433D01*
X25080417Y31301004D01*
X25107840Y31438871D01*
X26224514Y31438871D01*
X26402401Y30966836D01*
X26448804Y30897386D01*
X26662214Y30824942D01*
X27487272Y31650000D01*
X26662214Y32475058D01*
X26448804Y32402614D01*
X26240809Y31943050D01*
X26224514Y31438871D01*
X25107840Y31438871D01*
X25120000Y31500000D01*
X25120000Y32487786D01*
X26674942Y32487786D01*
X27500000Y31662728D01*
X28325058Y32487786D01*
X28252614Y32701196D01*
X27793050Y32909191D01*
X27288871Y32925486D01*
X26816836Y32747599D01*
X26747386Y32701196D01*
X26674942Y32487786D01*
X25120000Y32487786D01*
X25120000Y33352214D01*
X26674942Y33352214D01*
X26747386Y33138804D01*
X27206950Y32930809D01*
X27711129Y32914514D01*
X28183164Y33092401D01*
X28252614Y33138804D01*
X28325058Y33352214D01*
X27500000Y34177272D01*
X26674942Y33352214D01*
X25120000Y33352214D01*
X25120000Y33614608D01*
X25484262Y33978871D01*
X26224514Y33978871D01*
X26402401Y33506836D01*
X26448804Y33437386D01*
X26662214Y33364942D01*
X27487272Y34190000D01*
X26662214Y35015058D01*
X26448804Y34942614D01*
X26240809Y34483050D01*
X26224514Y33978871D01*
X25484262Y33978871D01*
X25967693Y34462302D01*
X25967696Y34462304D01*
X26080417Y34631005D01*
X26120001Y34830000D01*
X26120000Y34830005D01*
X26120000Y35027786D01*
X26674942Y35027786D01*
X27500000Y34202728D01*
X28325058Y35027786D01*
X28252614Y35241196D01*
X27793050Y35449191D01*
X27288871Y35465486D01*
X26816836Y35287599D01*
X26747386Y35241196D01*
X26674942Y35027786D01*
X26120000Y35027786D01*
X26120000Y35984608D01*
X26345391Y36210000D01*
X26448918Y36210000D01*
X26507544Y36068114D01*
X26836383Y35738700D01*
X27266252Y35560203D01*
X27731706Y35559797D01*
X28161886Y35737544D01*
X28491300Y36066383D01*
X28580000Y36279997D01*
X28580000Y34899504D01*
X28551196Y34942614D01*
X28337786Y35015058D01*
X27512728Y34190000D01*
X28337786Y33364942D01*
X28551196Y33437386D01*
X28580000Y33501028D01*
X28580000Y32359504D01*
X28551196Y32402614D01*
X28337786Y32475058D01*
X27512728Y31650000D01*
X28337786Y30824942D01*
X28551196Y30897386D01*
X28580000Y30961028D01*
X28580000Y420000D01*
X420000Y420000D01*
X420000Y1718019D01*
X13530747Y1718019D01*
X13627524Y1483827D01*
X14159346Y1242521D01*
X14743030Y1223102D01*
X15289715Y1428529D01*
X15372476Y1483827D01*
X15469253Y1718019D01*
X14500000Y2687272D01*
X13530747Y1718019D01*
X420000Y1718019D01*
X420000Y2456970D01*
X13023102Y2456970D01*
X13228529Y1910285D01*
X13283827Y1827524D01*
X13518019Y1730747D01*
X14487272Y2700000D01*
X14512728Y2700000D01*
X15481981Y1730747D01*
X15716173Y1827524D01*
X15762073Y1928686D01*
X20729763Y1928686D01*
X20937893Y1424971D01*
X21322944Y1039248D01*
X21826295Y830238D01*
X22371314Y829763D01*
X22875029Y1037893D01*
X23260752Y1422944D01*
X23469762Y1926295D01*
X23469764Y1928686D01*
X24129763Y1928686D01*
X24337893Y1424971D01*
X24722944Y1039248D01*
X25226295Y830238D01*
X25771314Y829763D01*
X26275029Y1037893D01*
X26660752Y1422944D01*
X26869762Y1926295D01*
X26870237Y2471314D01*
X26662107Y2975029D01*
X26277056Y3360752D01*
X25773705Y3569762D01*
X25228686Y3570237D01*
X24724971Y3362107D01*
X24339248Y2977056D01*
X24130238Y2473705D01*
X24129763Y1928686D01*
X23469764Y1928686D01*
X23470237Y2471314D01*
X23262107Y2975029D01*
X22877056Y3360752D01*
X22373705Y3569762D01*
X21828686Y3570237D01*
X21324971Y3362107D01*
X20939248Y2977056D01*
X20730238Y2473705D01*
X20729763Y1928686D01*
X15762073Y1928686D01*
X15957479Y2359346D01*
X15976898Y2943030D01*
X15771471Y3489715D01*
X15716173Y3572476D01*
X15481981Y3669253D01*
X14512728Y2700000D01*
X14487272Y2700000D01*
X13518019Y3669253D01*
X13283827Y3572476D01*
X13042521Y3040654D01*
X13023102Y2456970D01*
X420000Y2456970D01*
X420000Y3681981D01*
X13530747Y3681981D01*
X14500000Y2712728D01*
X15469253Y3681981D01*
X15372476Y3916173D01*
X14840654Y4157479D01*
X14256970Y4176898D01*
X13710285Y3971471D01*
X13627524Y3916173D01*
X13530747Y3681981D01*
X420000Y3681981D01*
X420000Y6420000D01*
X2552752Y6420000D01*
X2552752Y4820000D01*
X2581468Y4675633D01*
X2663245Y4553245D01*
X2785633Y4471468D01*
X2930000Y4442752D01*
X4530000Y4442752D01*
X4674367Y4471468D01*
X4796755Y4553245D01*
X4878532Y4675633D01*
X4907248Y4820000D01*
X4907248Y5388294D01*
X5099797Y5388294D01*
X5277544Y4958114D01*
X5606383Y4628700D01*
X6036252Y4450203D01*
X6501706Y4449797D01*
X6931886Y4627544D01*
X7261300Y4956383D01*
X7439797Y5386252D01*
X7439834Y5428686D01*
X13129763Y5428686D01*
X13337893Y4924971D01*
X13722944Y4539248D01*
X14226295Y4330238D01*
X14771314Y4329763D01*
X15275029Y4537893D01*
X15660752Y4922944D01*
X15869762Y5426295D01*
X15870237Y5971314D01*
X15662107Y6475029D01*
X15277056Y6860752D01*
X14773705Y7069762D01*
X14228686Y7070237D01*
X13724971Y6862107D01*
X13339248Y6477056D01*
X13130238Y5973705D01*
X13129763Y5428686D01*
X7439834Y5428686D01*
X7440203Y5851706D01*
X7262456Y6281886D01*
X6933617Y6611300D01*
X6503748Y6789797D01*
X6038294Y6790203D01*
X5608114Y6612456D01*
X5278700Y6283617D01*
X5100203Y5853748D01*
X5099797Y5388294D01*
X4907248Y5388294D01*
X4907248Y6420000D01*
X4878532Y6564367D01*
X4796755Y6686755D01*
X4674367Y6768532D01*
X4530000Y6797248D01*
X2930000Y6797248D01*
X2785633Y6768532D01*
X2663245Y6686755D01*
X2581468Y6564367D01*
X2552752Y6420000D01*
X420000Y6420000D01*
X420000Y7322214D01*
X2904942Y7322214D01*
X2977386Y7108804D01*
X3436950Y6900809D01*
X3941129Y6884514D01*
X4413164Y7062401D01*
X4482614Y7108804D01*
X4555058Y7322214D01*
X5444942Y7322214D01*
X5517386Y7108804D01*
X5976950Y6900809D01*
X6481129Y6884514D01*
X6953164Y7062401D01*
X7022614Y7108804D01*
X7095058Y7322214D01*
X6270000Y8147272D01*
X5444942Y7322214D01*
X4555058Y7322214D01*
X3730000Y8147272D01*
X2904942Y7322214D01*
X420000Y7322214D01*
X420000Y7948871D01*
X2454514Y7948871D01*
X2632401Y7476836D01*
X2678804Y7407386D01*
X2892214Y7334942D01*
X3717272Y8160000D01*
X3742728Y8160000D01*
X4567786Y7334942D01*
X4781196Y7407386D01*
X4989191Y7866950D01*
X4991838Y7948871D01*
X4994514Y7948871D01*
X5172401Y7476836D01*
X5218804Y7407386D01*
X5432214Y7334942D01*
X6257272Y8160000D01*
X6282728Y8160000D01*
X7107786Y7334942D01*
X7321196Y7407386D01*
X7529191Y7866950D01*
X7545486Y8371129D01*
X7367599Y8843164D01*
X7321196Y8912614D01*
X7107786Y8985058D01*
X6282728Y8160000D01*
X6257272Y8160000D01*
X5432214Y8985058D01*
X5218804Y8912614D01*
X5010809Y8453050D01*
X4994514Y7948871D01*
X4991838Y7948871D01*
X5005486Y8371129D01*
X4827599Y8843164D01*
X4781196Y8912614D01*
X4567786Y8985058D01*
X3742728Y8160000D01*
X3717272Y8160000D01*
X2892214Y8985058D01*
X2678804Y8912614D01*
X2470809Y8453050D01*
X2454514Y7948871D01*
X420000Y7948871D01*
X420000Y8997786D01*
X2904942Y8997786D01*
X3730000Y8172728D01*
X4555058Y8997786D01*
X5444942Y8997786D01*
X6270000Y8172728D01*
X7095058Y8997786D01*
X7022614Y9211196D01*
X6563050Y9419191D01*
X6058871Y9435486D01*
X5586836Y9257599D01*
X5517386Y9211196D01*
X5444942Y8997786D01*
X4555058Y8997786D01*
X4482614Y9211196D01*
X4023050Y9419191D01*
X3518871Y9435486D01*
X3046836Y9257599D01*
X2977386Y9211196D01*
X2904942Y8997786D01*
X420000Y8997786D01*
X420000Y9862214D01*
X2904942Y9862214D01*
X2977386Y9648804D01*
X3436950Y9440809D01*
X3941129Y9424514D01*
X4413164Y9602401D01*
X4482614Y9648804D01*
X4555058Y9862214D01*
X5444942Y9862214D01*
X5517386Y9648804D01*
X5976950Y9440809D01*
X6481129Y9424514D01*
X6953164Y9602401D01*
X7022614Y9648804D01*
X7095058Y9862214D01*
X6270000Y10687272D01*
X5444942Y9862214D01*
X4555058Y9862214D01*
X3730000Y10687272D01*
X2904942Y9862214D01*
X420000Y9862214D01*
X420000Y10488871D01*
X2454514Y10488871D01*
X2632401Y10016836D01*
X2678804Y9947386D01*
X2892214Y9874942D01*
X3717272Y10700000D01*
X3742728Y10700000D01*
X4567786Y9874942D01*
X4781196Y9947386D01*
X4989191Y10406950D01*
X4991838Y10488871D01*
X4994514Y10488871D01*
X5172401Y10016836D01*
X5218804Y9947386D01*
X5432214Y9874942D01*
X6257272Y10700000D01*
X6282728Y10700000D01*
X7107786Y9874942D01*
X7321196Y9947386D01*
X7529191Y10406950D01*
X7545486Y10911129D01*
X7367599Y11383164D01*
X7321196Y11452614D01*
X7107786Y11525058D01*
X6282728Y10700000D01*
X6257272Y10700000D01*
X5432214Y11525058D01*
X5218804Y11452614D01*
X5010809Y10993050D01*
X4994514Y10488871D01*
X4991838Y10488871D01*
X5005486Y10911129D01*
X4827599Y11383164D01*
X4781196Y11452614D01*
X4567786Y11525058D01*
X3742728Y10700000D01*
X3717272Y10700000D01*
X2892214Y11525058D01*
X2678804Y11452614D01*
X2470809Y10993050D01*
X2454514Y10488871D01*
X420000Y10488871D01*
X420000Y11537786D01*
X2904942Y11537786D01*
X3730000Y10712728D01*
X4555058Y11537786D01*
X5444942Y11537786D01*
X6270000Y10712728D01*
X7095058Y11537786D01*
X7022614Y11751196D01*
X6630451Y11928686D01*
X20729763Y11928686D01*
X20937893Y11424971D01*
X21322944Y11039248D01*
X21826295Y10830238D01*
X22371314Y10829763D01*
X22875029Y11037893D01*
X23260752Y11422944D01*
X23469762Y11926295D01*
X23469764Y11928686D01*
X24129763Y11928686D01*
X24337893Y11424971D01*
X24722944Y11039248D01*
X25226295Y10830238D01*
X25771314Y10829763D01*
X26275029Y11037893D01*
X26660752Y11422944D01*
X26869762Y11926295D01*
X26870237Y12471314D01*
X26662107Y12975029D01*
X26277056Y13360752D01*
X25773705Y13569762D01*
X25228686Y13570237D01*
X24724971Y13362107D01*
X24339248Y12977056D01*
X24130238Y12473705D01*
X24129763Y11928686D01*
X23469764Y11928686D01*
X23470237Y12471314D01*
X23262107Y12975029D01*
X22877056Y13360752D01*
X22373705Y13569762D01*
X21828686Y13570237D01*
X21324971Y13362107D01*
X20939248Y12977056D01*
X20730238Y12473705D01*
X20729763Y11928686D01*
X6630451Y11928686D01*
X6563050Y11959191D01*
X6058871Y11975486D01*
X5586836Y11797599D01*
X5517386Y11751196D01*
X5444942Y11537786D01*
X4555058Y11537786D01*
X4482614Y11751196D01*
X4023050Y11959191D01*
X3518871Y11975486D01*
X3046836Y11797599D01*
X2977386Y11751196D01*
X2904942Y11537786D01*
X420000Y11537786D01*
X420000Y12402214D01*
X2904942Y12402214D01*
X2977386Y12188804D01*
X3436950Y11980809D01*
X3941129Y11964514D01*
X4413164Y12142401D01*
X4482614Y12188804D01*
X4555058Y12402214D01*
X5444942Y12402214D01*
X5517386Y12188804D01*
X5976950Y11980809D01*
X6481129Y11964514D01*
X6953164Y12142401D01*
X7022614Y12188804D01*
X7095058Y12402214D01*
X6270000Y13227272D01*
X5444942Y12402214D01*
X4555058Y12402214D01*
X3730000Y13227272D01*
X2904942Y12402214D01*
X420000Y12402214D01*
X420000Y13028871D01*
X2454514Y13028871D01*
X2632401Y12556836D01*
X2678804Y12487386D01*
X2892214Y12414942D01*
X3717272Y13240000D01*
X3742728Y13240000D01*
X4567786Y12414942D01*
X4781196Y12487386D01*
X4989191Y12946950D01*
X4991838Y13028871D01*
X4994514Y13028871D01*
X5172401Y12556836D01*
X5218804Y12487386D01*
X5432214Y12414942D01*
X6257272Y13240000D01*
X6282728Y13240000D01*
X7107786Y12414942D01*
X7321196Y12487386D01*
X7529191Y12946950D01*
X7545486Y13451129D01*
X7516259Y13528686D01*
X13129763Y13528686D01*
X13337893Y13024971D01*
X13722944Y12639248D01*
X14226295Y12430238D01*
X14771314Y12429763D01*
X15275029Y12637893D01*
X15660752Y13022944D01*
X15869762Y13526295D01*
X15870237Y14071314D01*
X15662107Y14575029D01*
X15277056Y14960752D01*
X14773705Y15169762D01*
X14228686Y15170237D01*
X13724971Y14962107D01*
X13339248Y14577056D01*
X13130238Y14073705D01*
X13129763Y13528686D01*
X7516259Y13528686D01*
X7367599Y13923164D01*
X7321196Y13992614D01*
X7107786Y14065058D01*
X6282728Y13240000D01*
X6257272Y13240000D01*
X5432214Y14065058D01*
X5218804Y13992614D01*
X5010809Y13533050D01*
X4994514Y13028871D01*
X4991838Y13028871D01*
X5005486Y13451129D01*
X4827599Y13923164D01*
X4781196Y13992614D01*
X4567786Y14065058D01*
X3742728Y13240000D01*
X3717272Y13240000D01*
X2892214Y14065058D01*
X2678804Y13992614D01*
X2470809Y13533050D01*
X2454514Y13028871D01*
X420000Y13028871D01*
X420000Y14077786D01*
X2904942Y14077786D01*
X3730000Y13252728D01*
X4555058Y14077786D01*
X5444942Y14077786D01*
X6270000Y13252728D01*
X7095058Y14077786D01*
X7022614Y14291196D01*
X6563050Y14499191D01*
X6058871Y14515486D01*
X5586836Y14337599D01*
X5517386Y14291196D01*
X5444942Y14077786D01*
X4555058Y14077786D01*
X4482614Y14291196D01*
X4023050Y14499191D01*
X3518871Y14515486D01*
X3046836Y14337599D01*
X2977386Y14291196D01*
X2904942Y14077786D01*
X420000Y14077786D01*
X420000Y15548294D01*
X2559797Y15548294D01*
X2737544Y15118114D01*
X3066383Y14788700D01*
X3496252Y14610203D01*
X3961706Y14609797D01*
X4391886Y14787544D01*
X4721300Y15116383D01*
X4899797Y15546252D01*
X4899798Y15548294D01*
X5099797Y15548294D01*
X5277544Y15118114D01*
X5606383Y14788700D01*
X6036252Y14610203D01*
X6501706Y14609797D01*
X6931886Y14787544D01*
X7261300Y15116383D01*
X7439797Y15546252D01*
X7440203Y16011706D01*
X7262456Y16441886D01*
X6933617Y16771300D01*
X6747251Y16848686D01*
X9929763Y16848686D01*
X10137893Y16344971D01*
X10522944Y15959248D01*
X11026295Y15750238D01*
X11571314Y15749763D01*
X12075029Y15957893D01*
X12241425Y16124000D01*
X23132000Y16124000D01*
X23132000Y15456909D01*
X23203249Y15284899D01*
X23334899Y15153249D01*
X23506909Y15082000D01*
X24174000Y15082000D01*
X24291000Y15199000D01*
X24291000Y16241000D01*
X24309000Y16241000D01*
X24309000Y15199000D01*
X24426000Y15082000D01*
X25093091Y15082000D01*
X25265101Y15153249D01*
X25396751Y15284899D01*
X25468000Y15456909D01*
X25468000Y16124000D01*
X25351000Y16241000D01*
X24309000Y16241000D01*
X24291000Y16241000D01*
X23249000Y16241000D01*
X23132000Y16124000D01*
X12241425Y16124000D01*
X12460752Y16342944D01*
X12669762Y16846295D01*
X12669867Y16967902D01*
X12929832Y16967902D01*
X13077195Y16611257D01*
X13349822Y16338154D01*
X13706209Y16190169D01*
X14092098Y16189832D01*
X14448743Y16337195D01*
X14721846Y16609822D01*
X14869831Y16966209D01*
X14869898Y17043091D01*
X23132000Y17043091D01*
X23132000Y16376000D01*
X23249000Y16259000D01*
X24291000Y16259000D01*
X24291000Y17301000D01*
X24309000Y17301000D01*
X24309000Y16259000D01*
X25351000Y16259000D01*
X25468000Y16376000D01*
X25468000Y17043091D01*
X25396751Y17215101D01*
X25265101Y17346751D01*
X25093091Y17418000D01*
X24426000Y17418000D01*
X24309000Y17301000D01*
X24291000Y17301000D01*
X24174000Y17418000D01*
X23506909Y17418000D01*
X23334899Y17346751D01*
X23203249Y17215101D01*
X23132000Y17043091D01*
X14869898Y17043091D01*
X14870168Y17352098D01*
X14722805Y17708743D01*
X14450178Y17981846D01*
X14093791Y18129831D01*
X13707902Y18130168D01*
X13351257Y17982805D01*
X13078154Y17710178D01*
X12930169Y17353791D01*
X12929832Y16967902D01*
X12669867Y16967902D01*
X12670237Y17391314D01*
X12462107Y17895029D01*
X12077056Y18280752D01*
X11573705Y18489762D01*
X11028686Y18490237D01*
X10524971Y18282107D01*
X10139248Y17897056D01*
X9930238Y17393705D01*
X9929763Y16848686D01*
X6747251Y16848686D01*
X6503748Y16949797D01*
X6038294Y16950203D01*
X5608114Y16772456D01*
X5278700Y16443617D01*
X5100203Y16013748D01*
X5099797Y15548294D01*
X4899798Y15548294D01*
X4900203Y16011706D01*
X4722456Y16441886D01*
X4393617Y16771300D01*
X3963748Y16949797D01*
X3498294Y16950203D01*
X3068114Y16772456D01*
X2738700Y16443617D01*
X2560203Y16013748D01*
X2559797Y15548294D01*
X420000Y15548294D01*
X420000Y19150000D01*
X16722752Y19150000D01*
X16722752Y17750000D01*
X16751468Y17605633D01*
X16833245Y17483245D01*
X16955633Y17401468D01*
X17100000Y17372752D01*
X18500000Y17372752D01*
X18644367Y17401468D01*
X18766755Y17483245D01*
X18848532Y17605633D01*
X18877248Y17750000D01*
X18877248Y18538098D01*
X23229814Y18538098D01*
X23392369Y18144685D01*
X23693102Y17843427D01*
X24086230Y17680186D01*
X24511902Y17679814D01*
X24905315Y17842369D01*
X25206573Y18143102D01*
X25369814Y18536230D01*
X25370186Y18961902D01*
X25207631Y19355315D01*
X24906898Y19656573D01*
X24513770Y19819814D01*
X24088098Y19820186D01*
X23694685Y19657631D01*
X23393427Y19356898D01*
X23230186Y18963770D01*
X23229814Y18538098D01*
X18877248Y18538098D01*
X18877248Y19150000D01*
X18848532Y19294367D01*
X18766755Y19416755D01*
X18644367Y19498532D01*
X18500000Y19527248D01*
X17100000Y19527248D01*
X16955633Y19498532D01*
X16833245Y19416755D01*
X16751468Y19294367D01*
X16722752Y19150000D01*
X420000Y19150000D01*
X420000Y20184314D01*
X17047042Y20184314D01*
X17107318Y19981293D01*
X17530753Y19789954D01*
X17995178Y19775221D01*
X18429890Y19939337D01*
X18492682Y19981293D01*
X18552958Y20184314D01*
X17800000Y20937272D01*
X17047042Y20184314D01*
X420000Y20184314D01*
X420000Y20754822D01*
X16625221Y20754822D01*
X16789337Y20320110D01*
X16831293Y20257318D01*
X17034314Y20197042D01*
X17787272Y20950000D01*
X17812728Y20950000D01*
X18565686Y20197042D01*
X18768707Y20257318D01*
X18960046Y20680753D01*
X18974779Y21145178D01*
X18810663Y21579890D01*
X18768707Y21642682D01*
X18565686Y21702958D01*
X17812728Y20950000D01*
X17787272Y20950000D01*
X17034314Y21702958D01*
X16831293Y21642682D01*
X16639954Y21219247D01*
X16625221Y20754822D01*
X420000Y20754822D01*
X420000Y21546412D01*
X13219140Y21546412D01*
X13267250Y21353783D01*
X13654555Y21179099D01*
X14079228Y21165927D01*
X14476614Y21316274D01*
X14532750Y21353783D01*
X14580860Y21546412D01*
X13900000Y22227272D01*
X13219140Y21546412D01*
X420000Y21546412D01*
X420000Y22718294D01*
X2079797Y22718294D01*
X2257544Y22288114D01*
X2586383Y21958700D01*
X3016252Y21780203D01*
X3481706Y21779797D01*
X3911886Y21957544D01*
X4241300Y22286383D01*
X4419797Y22716252D01*
X4419798Y22718294D01*
X6179797Y22718294D01*
X6357544Y22288114D01*
X6686383Y21958700D01*
X7116252Y21780203D01*
X7581706Y21779797D01*
X8011886Y21957544D01*
X8115294Y22060772D01*
X12825927Y22060772D01*
X12976274Y21663386D01*
X13013783Y21607250D01*
X13206412Y21559140D01*
X13887272Y22240000D01*
X13912728Y22240000D01*
X14593588Y21559140D01*
X14786217Y21607250D01*
X14835124Y21715686D01*
X17047042Y21715686D01*
X17800000Y20962728D01*
X18552958Y21715686D01*
X18495890Y21907902D01*
X20789832Y21907902D01*
X20937195Y21551257D01*
X21209822Y21278154D01*
X21566209Y21130169D01*
X21952098Y21129832D01*
X22308743Y21277195D01*
X22438185Y21406412D01*
X26159140Y21406412D01*
X26207250Y21213783D01*
X26594555Y21039099D01*
X27019228Y21025927D01*
X27416614Y21176274D01*
X27472750Y21213783D01*
X27520860Y21406412D01*
X26840000Y22087272D01*
X26159140Y21406412D01*
X22438185Y21406412D01*
X22581846Y21549822D01*
X22729831Y21906209D01*
X22729843Y21920772D01*
X25765927Y21920772D01*
X25916274Y21523386D01*
X25953783Y21467250D01*
X26146412Y21419140D01*
X26827272Y22100000D01*
X26852728Y22100000D01*
X27533588Y21419140D01*
X27726217Y21467250D01*
X27900901Y21854555D01*
X27914073Y22279228D01*
X27763726Y22676614D01*
X27726217Y22732750D01*
X27533588Y22780860D01*
X26852728Y22100000D01*
X26827272Y22100000D01*
X26146412Y22780860D01*
X25953783Y22732750D01*
X25779099Y22345445D01*
X25765927Y21920772D01*
X22729843Y21920772D01*
X22730168Y22292098D01*
X22582805Y22648743D01*
X22438213Y22793588D01*
X26159140Y22793588D01*
X26840000Y22112728D01*
X27520860Y22793588D01*
X27472750Y22986217D01*
X27085445Y23160901D01*
X26660772Y23174073D01*
X26263386Y23023726D01*
X26207250Y22986217D01*
X26159140Y22793588D01*
X22438213Y22793588D01*
X22310178Y22921846D01*
X21953791Y23069831D01*
X21567902Y23070168D01*
X21211257Y22922805D01*
X20938154Y22650178D01*
X20790169Y22293791D01*
X20789832Y21907902D01*
X18495890Y21907902D01*
X18492682Y21918707D01*
X18069247Y22110046D01*
X17604822Y22124779D01*
X17170110Y21960663D01*
X17107318Y21918707D01*
X17047042Y21715686D01*
X14835124Y21715686D01*
X14960901Y21994555D01*
X14974073Y22419228D01*
X14823726Y22816614D01*
X14786217Y22872750D01*
X14593588Y22920860D01*
X13912728Y22240000D01*
X13887272Y22240000D01*
X13206412Y22920860D01*
X13013783Y22872750D01*
X12839099Y22485445D01*
X12825927Y22060772D01*
X8115294Y22060772D01*
X8341300Y22286383D01*
X8519797Y22716252D01*
X8519986Y22933588D01*
X13219140Y22933588D01*
X13900000Y22252728D01*
X14580860Y22933588D01*
X14532750Y23126217D01*
X14145445Y23300901D01*
X13720772Y23314073D01*
X13323386Y23163726D01*
X13267250Y23126217D01*
X13219140Y22933588D01*
X8519986Y22933588D01*
X8520203Y23181706D01*
X8342456Y23611886D01*
X8013617Y23941300D01*
X7583748Y24119797D01*
X7118294Y24120203D01*
X6688114Y23942456D01*
X6358700Y23613617D01*
X6180203Y23183748D01*
X6179797Y22718294D01*
X4419798Y22718294D01*
X4420203Y23181706D01*
X4242456Y23611886D01*
X3913617Y23941300D01*
X3483748Y24119797D01*
X3018294Y24120203D01*
X2588114Y23942456D01*
X2258700Y23613617D01*
X2080203Y23183748D01*
X2079797Y22718294D01*
X420000Y22718294D01*
X420000Y24528686D01*
X12949763Y24528686D01*
X13157893Y24024971D01*
X13542944Y23639248D01*
X14046295Y23430238D01*
X14591314Y23429763D01*
X15095029Y23637893D01*
X15480752Y24022944D01*
X15689762Y24526295D01*
X15689764Y24528686D01*
X23109763Y24528686D01*
X23317893Y24024971D01*
X23702944Y23639248D01*
X24206295Y23430238D01*
X24751314Y23429763D01*
X25255029Y23637893D01*
X25640752Y24022944D01*
X25849762Y24526295D01*
X25850237Y25071314D01*
X25642107Y25575029D01*
X25257056Y25960752D01*
X24753705Y26169762D01*
X24208686Y26170237D01*
X23704971Y25962107D01*
X23319248Y25577056D01*
X23110238Y25073705D01*
X23109763Y24528686D01*
X15689764Y24528686D01*
X15690237Y25071314D01*
X15482107Y25575029D01*
X15097056Y25960752D01*
X14593705Y26169762D01*
X14048686Y26170237D01*
X13544971Y25962107D01*
X13159248Y25577056D01*
X12950238Y25073705D01*
X12949763Y24528686D01*
X420000Y24528686D01*
X420000Y27818294D01*
X2979797Y27818294D01*
X3157544Y27388114D01*
X3486383Y27058700D01*
X3916252Y26880203D01*
X4381706Y26879797D01*
X4811886Y27057544D01*
X5141300Y27386383D01*
X5319797Y27816252D01*
X5319798Y27818294D01*
X7079797Y27818294D01*
X7257544Y27388114D01*
X7586383Y27058700D01*
X8016252Y26880203D01*
X8481706Y26879797D01*
X8793640Y27008686D01*
X9929763Y27008686D01*
X10137893Y26504971D01*
X10522944Y26119248D01*
X11026295Y25910238D01*
X11571314Y25909763D01*
X12075029Y26117893D01*
X12460752Y26502944D01*
X12669762Y27006295D01*
X12670237Y27551314D01*
X12462107Y28055029D01*
X12077056Y28440752D01*
X11573705Y28649762D01*
X11028686Y28650237D01*
X10524971Y28442107D01*
X10139248Y28057056D01*
X9930238Y27553705D01*
X9929763Y27008686D01*
X8793640Y27008686D01*
X8911886Y27057544D01*
X9241300Y27386383D01*
X9419797Y27816252D01*
X9420203Y28281706D01*
X9242456Y28711886D01*
X8913617Y29041300D01*
X8483748Y29219797D01*
X8018294Y29220203D01*
X7588114Y29042456D01*
X7258700Y28713617D01*
X7080203Y28283748D01*
X7079797Y27818294D01*
X5319798Y27818294D01*
X5320203Y28281706D01*
X5142456Y28711886D01*
X4813617Y29041300D01*
X4383748Y29219797D01*
X3918294Y29220203D01*
X3488114Y29042456D01*
X3158700Y28713617D01*
X2980203Y28283748D01*
X2979797Y27818294D01*
X420000Y27818294D01*
X420000Y30812214D01*
X674942Y30812214D01*
X747386Y30598804D01*
X1206950Y30390809D01*
X1711129Y30374514D01*
X2173306Y30548686D01*
X3629763Y30548686D01*
X3837893Y30044971D01*
X4222944Y29659248D01*
X4726295Y29450238D01*
X5271314Y29449763D01*
X5775029Y29657893D01*
X6160752Y30042944D01*
X6369762Y30546295D01*
X6369764Y30548686D01*
X6829763Y30548686D01*
X7037893Y30044971D01*
X7422944Y29659248D01*
X7926295Y29450238D01*
X8471314Y29449763D01*
X8975029Y29657893D01*
X9360752Y30042944D01*
X9569762Y30546295D01*
X9570237Y31091314D01*
X9362107Y31595029D01*
X8977056Y31980752D01*
X8473705Y32189762D01*
X7928686Y32190237D01*
X7424971Y31982107D01*
X7039248Y31597056D01*
X6830238Y31093705D01*
X6829763Y30548686D01*
X6369764Y30548686D01*
X6370237Y31091314D01*
X6162107Y31595029D01*
X5777056Y31980752D01*
X5273705Y32189762D01*
X4728686Y32190237D01*
X4224971Y31982107D01*
X3839248Y31597056D01*
X3630238Y31093705D01*
X3629763Y30548686D01*
X2173306Y30548686D01*
X2183164Y30552401D01*
X2252614Y30598804D01*
X2325058Y30812214D01*
X1500000Y31637272D01*
X674942Y30812214D01*
X420000Y30812214D01*
X420000Y30940496D01*
X448804Y30897386D01*
X662214Y30824942D01*
X1487272Y31650000D01*
X1512728Y31650000D01*
X2337786Y30824942D01*
X2551196Y30897386D01*
X2759191Y31356950D01*
X2775486Y31861129D01*
X2597599Y32333164D01*
X2551196Y32402614D01*
X2337786Y32475058D01*
X1512728Y31650000D01*
X1487272Y31650000D01*
X662214Y32475058D01*
X448804Y32402614D01*
X420000Y32338972D01*
X420000Y32487786D01*
X674942Y32487786D01*
X1500000Y31662728D01*
X2325058Y32487786D01*
X2311175Y32528686D01*
X10349763Y32528686D01*
X10557893Y32024971D01*
X10942944Y31639248D01*
X11446295Y31430238D01*
X11991314Y31429763D01*
X12495029Y31637893D01*
X12880752Y32022944D01*
X13089762Y32526295D01*
X13090237Y33071314D01*
X12882107Y33575029D01*
X12497056Y33960752D01*
X11993705Y34169762D01*
X11448686Y34170237D01*
X10944971Y33962107D01*
X10559248Y33577056D01*
X10350238Y33073705D01*
X10349763Y32528686D01*
X2311175Y32528686D01*
X2252614Y32701196D01*
X1793050Y32909191D01*
X1288871Y32925486D01*
X816836Y32747599D01*
X747386Y32701196D01*
X674942Y32487786D01*
X420000Y32487786D01*
X420000Y33739986D01*
X507544Y33528114D01*
X836383Y33198700D01*
X1266252Y33020203D01*
X1731706Y33019797D01*
X2161886Y33197544D01*
X2491300Y33526383D01*
X2669797Y33956252D01*
X2670203Y34421706D01*
X2550000Y34712619D01*
X2550000Y36207748D01*
X2669797Y36496252D01*
X2669905Y36620772D01*
X13390927Y36620772D01*
X13541274Y36223386D01*
X13578783Y36167250D01*
X13771412Y36119140D01*
X14452272Y36800000D01*
X13771412Y37480860D01*
X13578783Y37432750D01*
X13404099Y37045445D01*
X13390927Y36620772D01*
X2669905Y36620772D01*
X2670203Y36961706D01*
X2492456Y37391886D01*
X2390932Y37493588D01*
X13784140Y37493588D01*
X14465000Y36812728D01*
X14479142Y36826870D01*
X14491870Y36814142D01*
X14477728Y36800000D01*
X14491870Y36785858D01*
X14479142Y36773130D01*
X14465000Y36787272D01*
X13784140Y36106412D01*
X13832250Y35913783D01*
X14219555Y35739099D01*
X14644228Y35725927D01*
X14788762Y35780610D01*
X14765169Y35723791D01*
X14764832Y35337902D01*
X14912195Y34981257D01*
X15184822Y34708154D01*
X15541209Y34560169D01*
X15927098Y34559832D01*
X16283743Y34707195D01*
X16544905Y34967902D01*
X17529832Y34967902D01*
X17677195Y34611257D01*
X17949822Y34338154D01*
X18306209Y34190169D01*
X18692098Y34189832D01*
X19048743Y34337195D01*
X19321846Y34609822D01*
X19469831Y34966209D01*
X19470082Y35253270D01*
X19597812Y35381000D01*
X20887237Y35381000D01*
X20904544Y35339114D01*
X21233383Y35009700D01*
X21260000Y34998648D01*
X21260000Y34026163D01*
X21104971Y33962107D01*
X20719248Y33577056D01*
X20510238Y33073705D01*
X20509763Y32528686D01*
X20717893Y32024971D01*
X21102944Y31639248D01*
X21606295Y31430238D01*
X22151314Y31429763D01*
X22655029Y31637893D01*
X23040752Y32022944D01*
X23249762Y32526295D01*
X23250237Y33071314D01*
X23042107Y33575029D01*
X22657056Y33960752D01*
X22500000Y34025967D01*
X22500000Y34984213D01*
X22558886Y35008544D01*
X22888300Y35337383D01*
X23066797Y35767252D01*
X23067203Y36232706D01*
X22889456Y36662886D01*
X22560617Y36992300D01*
X22130748Y37170797D01*
X21665294Y37171203D01*
X21235114Y36993456D01*
X20905700Y36664617D01*
X20887589Y36621000D01*
X19341000Y36621000D01*
X19103737Y36573806D01*
X18902594Y36439406D01*
X18593107Y36129919D01*
X18307902Y36130168D01*
X17951257Y35982805D01*
X17678154Y35710178D01*
X17530169Y35353791D01*
X17529832Y34967902D01*
X16544905Y34967902D01*
X16556846Y34979822D01*
X16704831Y35336209D01*
X16705168Y35722098D01*
X16557805Y36078743D01*
X16285178Y36351846D01*
X16050000Y36449501D01*
X16050000Y37150614D01*
X16283743Y37247195D01*
X16556846Y37519822D01*
X16704831Y37876209D01*
X16705168Y38262098D01*
X16634878Y38432214D01*
X26674942Y38432214D01*
X26747386Y38218804D01*
X27206950Y38010809D01*
X27711129Y37994514D01*
X28183164Y38172401D01*
X28252614Y38218804D01*
X28325058Y38432214D01*
X27500000Y39257272D01*
X26674942Y38432214D01*
X16634878Y38432214D01*
X16557805Y38618743D01*
X16285178Y38891846D01*
X15928791Y39039831D01*
X15542902Y39040168D01*
X15186257Y38892805D01*
X14913154Y38620178D01*
X14765169Y38263791D01*
X14764832Y37877902D01*
X14785923Y37826859D01*
X14710445Y37860901D01*
X14285772Y37874073D01*
X13888386Y37723726D01*
X13832250Y37686217D01*
X13784140Y37493588D01*
X2390932Y37493588D01*
X2163617Y37721300D01*
X1733748Y37899797D01*
X1268294Y37900203D01*
X838114Y37722456D01*
X508700Y37393617D01*
X420000Y37180003D01*
X420000Y38432214D01*
X674942Y38432214D01*
X747386Y38218804D01*
X1206950Y38010809D01*
X1711129Y37994514D01*
X2183164Y38172401D01*
X2252614Y38218804D01*
X2325058Y38432214D01*
X1500000Y39257272D01*
X674942Y38432214D01*
X420000Y38432214D01*
X420000Y38560496D01*
X448804Y38517386D01*
X662214Y38444942D01*
X1487272Y39270000D01*
X1512728Y39270000D01*
X2337786Y38444942D01*
X2551196Y38517386D01*
X2759191Y38976950D01*
X2761838Y39058871D01*
X26224514Y39058871D01*
X26402401Y38586836D01*
X26448804Y38517386D01*
X26662214Y38444942D01*
X27487272Y39270000D01*
X26662214Y40095058D01*
X26448804Y40022614D01*
X26240809Y39563050D01*
X26224514Y39058871D01*
X2761838Y39058871D01*
X2775486Y39481129D01*
X2597599Y39953164D01*
X2567630Y39998019D01*
X4030747Y39998019D01*
X4127524Y39763827D01*
X4659346Y39522521D01*
X5243030Y39503102D01*
X5789715Y39708529D01*
X5872476Y39763827D01*
X5969253Y39998019D01*
X7230747Y39998019D01*
X7327524Y39763827D01*
X7859346Y39522521D01*
X8443030Y39503102D01*
X8989715Y39708529D01*
X9072476Y39763827D01*
X9169253Y39998019D01*
X9159370Y40007902D01*
X10389832Y40007902D01*
X10537195Y39651257D01*
X10809822Y39378154D01*
X11166209Y39230169D01*
X11552098Y39229832D01*
X11908743Y39377195D01*
X12038185Y39506412D01*
X15759140Y39506412D01*
X15807250Y39313783D01*
X16194555Y39139099D01*
X16619228Y39125927D01*
X17016614Y39276274D01*
X17072750Y39313783D01*
X17120860Y39506412D01*
X16440000Y40187272D01*
X15759140Y39506412D01*
X12038185Y39506412D01*
X12181846Y39649822D01*
X12329831Y40006209D01*
X12329843Y40020772D01*
X15365927Y40020772D01*
X15516274Y39623386D01*
X15553783Y39567250D01*
X15746412Y39519140D01*
X16427272Y40200000D01*
X16452728Y40200000D01*
X17133588Y39519140D01*
X17242783Y39546412D01*
X17819140Y39546412D01*
X17867250Y39353783D01*
X18254555Y39179099D01*
X18679228Y39165927D01*
X19076614Y39316274D01*
X19132750Y39353783D01*
X19180860Y39546412D01*
X18500000Y40227272D01*
X17819140Y39546412D01*
X17242783Y39546412D01*
X17326217Y39567250D01*
X17481983Y39912610D01*
X17576274Y39663386D01*
X17613783Y39607250D01*
X17806412Y39559140D01*
X18487272Y40240000D01*
X18512728Y40240000D01*
X19193588Y39559140D01*
X19386217Y39607250D01*
X19560901Y39994555D01*
X19564413Y40107786D01*
X26674942Y40107786D01*
X27500000Y39282728D01*
X28325058Y40107786D01*
X28252614Y40321196D01*
X27793050Y40529191D01*
X27288871Y40545486D01*
X26816836Y40367599D01*
X26747386Y40321196D01*
X26674942Y40107786D01*
X19564413Y40107786D01*
X19574073Y40419228D01*
X19423726Y40816614D01*
X19386217Y40872750D01*
X19193588Y40920860D01*
X18512728Y40240000D01*
X18487272Y40240000D01*
X17806412Y40920860D01*
X17613783Y40872750D01*
X17458017Y40527390D01*
X17363726Y40776614D01*
X17326217Y40832750D01*
X17133588Y40880860D01*
X16452728Y40200000D01*
X16427272Y40200000D01*
X15746412Y40880860D01*
X15553783Y40832750D01*
X15379099Y40445445D01*
X15365927Y40020772D01*
X12329843Y40020772D01*
X12330168Y40392098D01*
X12182805Y40748743D01*
X12038213Y40893588D01*
X15759140Y40893588D01*
X16440000Y40212728D01*
X17120860Y40893588D01*
X17110870Y40933588D01*
X17819140Y40933588D01*
X18500000Y40252728D01*
X19180860Y40933588D01*
X19132750Y41126217D01*
X18745445Y41300901D01*
X18320772Y41314073D01*
X17923386Y41163726D01*
X17867250Y41126217D01*
X17819140Y40933588D01*
X17110870Y40933588D01*
X17072750Y41086217D01*
X16685445Y41260901D01*
X16260772Y41274073D01*
X15863386Y41123726D01*
X15807250Y41086217D01*
X15759140Y40893588D01*
X12038213Y40893588D01*
X11910178Y41021846D01*
X11553791Y41169831D01*
X11167902Y41170168D01*
X10811257Y41022805D01*
X10538154Y40750178D01*
X10390169Y40393791D01*
X10389832Y40007902D01*
X9159370Y40007902D01*
X8200000Y40967272D01*
X7230747Y39998019D01*
X5969253Y39998019D01*
X5000000Y40967272D01*
X4030747Y39998019D01*
X2567630Y39998019D01*
X2551196Y40022614D01*
X2337786Y40095058D01*
X1512728Y39270000D01*
X1487272Y39270000D01*
X662214Y40095058D01*
X448804Y40022614D01*
X420000Y39958972D01*
X420000Y40107786D01*
X674942Y40107786D01*
X1500000Y39282728D01*
X2325058Y40107786D01*
X2252614Y40321196D01*
X1793050Y40529191D01*
X1288871Y40545486D01*
X816836Y40367599D01*
X747386Y40321196D01*
X674942Y40107786D01*
X420000Y40107786D01*
X420000Y41359986D01*
X507544Y41148114D01*
X836383Y40818700D01*
X1266252Y40640203D01*
X1731706Y40639797D01*
X1966882Y40736970D01*
X3523102Y40736970D01*
X3728529Y40190285D01*
X3783827Y40107524D01*
X4018019Y40010747D01*
X4987272Y40980000D01*
X5012728Y40980000D01*
X5981981Y40010747D01*
X6216173Y40107524D01*
X6457479Y40639346D01*
X6460726Y40736970D01*
X6723102Y40736970D01*
X6928529Y40190285D01*
X6983827Y40107524D01*
X7218019Y40010747D01*
X8187272Y40980000D01*
X8212728Y40980000D01*
X9181981Y40010747D01*
X9416173Y40107524D01*
X9657479Y40639346D01*
X9676898Y41223030D01*
X9471471Y41769715D01*
X9416173Y41852476D01*
X9181981Y41949253D01*
X8212728Y40980000D01*
X8187272Y40980000D01*
X7218019Y41949253D01*
X6983827Y41852476D01*
X6742521Y41320654D01*
X6723102Y40736970D01*
X6460726Y40736970D01*
X6476898Y41223030D01*
X6271471Y41769715D01*
X6216173Y41852476D01*
X5981981Y41949253D01*
X5012728Y40980000D01*
X4987272Y40980000D01*
X4018019Y41949253D01*
X3783827Y41852476D01*
X3542521Y41320654D01*
X3523102Y40736970D01*
X1966882Y40736970D01*
X2161886Y40817544D01*
X2491300Y41146383D01*
X2669797Y41576252D01*
X2670133Y41961981D01*
X4030747Y41961981D01*
X5000000Y40992728D01*
X5969253Y41961981D01*
X7230747Y41961981D01*
X8200000Y40992728D01*
X9169253Y41961981D01*
X9086510Y42162214D01*
X11174942Y42162214D01*
X11247386Y41948804D01*
X11706950Y41740809D01*
X12211129Y41724514D01*
X12683164Y41902401D01*
X12752614Y41948804D01*
X12825058Y42162214D01*
X12000000Y42987272D01*
X11174942Y42162214D01*
X9086510Y42162214D01*
X9072476Y42196173D01*
X8540654Y42437479D01*
X7956970Y42456898D01*
X7410285Y42251471D01*
X7327524Y42196173D01*
X7230747Y41961981D01*
X5969253Y41961981D01*
X5872476Y42196173D01*
X5340654Y42437479D01*
X4756970Y42456898D01*
X4210285Y42251471D01*
X4127524Y42196173D01*
X4030747Y41961981D01*
X2670133Y41961981D01*
X2670203Y42041706D01*
X2650000Y42090601D01*
X2650000Y42788871D01*
X10724514Y42788871D01*
X10902401Y42316836D01*
X10948804Y42247386D01*
X11162214Y42174942D01*
X11987272Y43000000D01*
X12012728Y43000000D01*
X12837786Y42174942D01*
X13051196Y42247386D01*
X13259191Y42706950D01*
X13261173Y42768294D01*
X13329797Y42768294D01*
X13507544Y42338114D01*
X13836383Y42008700D01*
X14266252Y41830203D01*
X14731706Y41829797D01*
X15161886Y42007544D01*
X15491300Y42336383D01*
X15669797Y42766252D01*
X15669798Y42768294D01*
X15829797Y42768294D01*
X16007544Y42338114D01*
X16336383Y42008700D01*
X16766252Y41830203D01*
X17231706Y41829797D01*
X17661886Y42007544D01*
X17991300Y42336383D01*
X18169797Y42766252D01*
X18170203Y43231706D01*
X17992456Y43661886D01*
X17663617Y43991300D01*
X17233748Y44169797D01*
X16768294Y44170203D01*
X16338114Y43992456D01*
X16008700Y43663617D01*
X15830203Y43233748D01*
X15829797Y42768294D01*
X15669798Y42768294D01*
X15670203Y43231706D01*
X15492456Y43661886D01*
X15163617Y43991300D01*
X14733748Y44169797D01*
X14268294Y44170203D01*
X13838114Y43992456D01*
X13508700Y43663617D01*
X13330203Y43233748D01*
X13329797Y42768294D01*
X13261173Y42768294D01*
X13275486Y43211129D01*
X13097599Y43683164D01*
X13051196Y43752614D01*
X12837786Y43825058D01*
X12012728Y43000000D01*
X11987272Y43000000D01*
X11162214Y43825058D01*
X10948804Y43752614D01*
X10740809Y43293050D01*
X10724514Y42788871D01*
X2650000Y42788871D01*
X2650000Y43413013D01*
X2677248Y43550000D01*
X2677248Y45150000D01*
X2648532Y45294367D01*
X2566755Y45416755D01*
X2444367Y45498532D01*
X2300000Y45527248D01*
X700000Y45527248D01*
X555633Y45498532D01*
X433245Y45416755D01*
X420000Y45396932D01*
X420000Y49237607D01*
X8379858Y49237607D01*
X8504432Y48936114D01*
X8680000Y48760240D01*
X8680000Y46039552D01*
X8505243Y45865099D01*
X8380142Y45563824D01*
X8379858Y45237607D01*
X8504432Y44936114D01*
X8734901Y44705243D01*
X9036176Y44580142D01*
X9362393Y44579858D01*
X9561710Y44662214D01*
X11174942Y44662214D01*
X11247386Y44448804D01*
X11702363Y44242885D01*
X11316836Y44097599D01*
X11247386Y44051196D01*
X11174942Y43837786D01*
X12000000Y43012728D01*
X12825058Y43837786D01*
X12752614Y44051196D01*
X12297637Y44257115D01*
X12683164Y44402401D01*
X12752614Y44448804D01*
X12825058Y44662214D01*
X12000000Y45487272D01*
X11174942Y44662214D01*
X9561710Y44662214D01*
X9663886Y44704432D01*
X9894757Y44934901D01*
X10019858Y45236176D01*
X10019903Y45288871D01*
X10724514Y45288871D01*
X10902401Y44816836D01*
X10948804Y44747386D01*
X11162214Y44674942D01*
X11987272Y45500000D01*
X12012728Y45500000D01*
X12837786Y44674942D01*
X13051196Y44747386D01*
X13259191Y45206950D01*
X13261173Y45268294D01*
X13329797Y45268294D01*
X13507544Y44838114D01*
X13836383Y44508700D01*
X14266252Y44330203D01*
X14731706Y44329797D01*
X15161886Y44507544D01*
X15491300Y44836383D01*
X15669797Y45266252D01*
X15669798Y45268294D01*
X15829797Y45268294D01*
X16007544Y44838114D01*
X16336383Y44508700D01*
X16766252Y44330203D01*
X17231706Y44329797D01*
X17661886Y44507544D01*
X17991300Y44836383D01*
X18169797Y45266252D01*
X18170203Y45731706D01*
X17992456Y46161886D01*
X17663617Y46491300D01*
X17233748Y46669797D01*
X16768294Y46670203D01*
X16338114Y46492456D01*
X16008700Y46163617D01*
X15830203Y45733748D01*
X15829797Y45268294D01*
X15669798Y45268294D01*
X15670203Y45731706D01*
X15492456Y46161886D01*
X15163617Y46491300D01*
X14733748Y46669797D01*
X14268294Y46670203D01*
X13838114Y46492456D01*
X13508700Y46163617D01*
X13330203Y45733748D01*
X13329797Y45268294D01*
X13261173Y45268294D01*
X13275486Y45711129D01*
X13097599Y46183164D01*
X13051196Y46252614D01*
X12837786Y46325058D01*
X12012728Y45500000D01*
X11987272Y45500000D01*
X11162214Y46325058D01*
X10948804Y46252614D01*
X10740809Y45793050D01*
X10724514Y45288871D01*
X10019903Y45288871D01*
X10020142Y45562393D01*
X9895568Y45863886D01*
X9720000Y46039760D01*
X9720000Y46337786D01*
X11174942Y46337786D01*
X12000000Y45512728D01*
X12825058Y46337786D01*
X12752614Y46551196D01*
X12293050Y46759191D01*
X11788871Y46775486D01*
X11316836Y46597599D01*
X11247386Y46551196D01*
X11174942Y46337786D01*
X9720000Y46337786D01*
X9720000Y46818294D01*
X20726797Y46818294D01*
X20904544Y46388114D01*
X21233383Y46058700D01*
X21663252Y45880203D01*
X22128706Y45879797D01*
X22558886Y46057544D01*
X22888300Y46386383D01*
X22976497Y46598784D01*
X23063544Y46388114D01*
X23392383Y46058700D01*
X23822252Y45880203D01*
X24287706Y45879797D01*
X24717886Y46057544D01*
X25047300Y46386383D01*
X25136262Y46600628D01*
X25207544Y46428114D01*
X25536383Y46098700D01*
X25966252Y45920203D01*
X26431706Y45919797D01*
X26861886Y46097544D01*
X27191300Y46426383D01*
X27369797Y46856252D01*
X27370203Y47321706D01*
X27192456Y47751886D01*
X26863617Y48081300D01*
X26433748Y48259797D01*
X25968294Y48260203D01*
X25538114Y48082456D01*
X25208700Y47753617D01*
X25119738Y47539372D01*
X25048456Y47711886D01*
X24719617Y48041300D01*
X24289748Y48219797D01*
X23824294Y48220203D01*
X23394114Y48042456D01*
X23064700Y47713617D01*
X22976503Y47501216D01*
X22889456Y47711886D01*
X22560617Y48041300D01*
X22130748Y48219797D01*
X21665294Y48220203D01*
X21235114Y48042456D01*
X20905700Y47713617D01*
X20727203Y47283748D01*
X20726797Y46818294D01*
X9720000Y46818294D01*
X9720000Y48760448D01*
X9894757Y48934901D01*
X10019858Y49236176D01*
X10020142Y49562393D01*
X9895568Y49863886D01*
X9665099Y50094757D01*
X9363824Y50219858D01*
X9037607Y50220142D01*
X8736114Y50095568D01*
X8505243Y49865099D01*
X8380142Y49563824D01*
X8379858Y49237607D01*
X420000Y49237607D01*
X420000Y52991000D01*
X8032000Y52991000D01*
X8032000Y52491000D01*
X8147189Y51929906D01*
X8468331Y51455603D01*
X8946536Y51140300D01*
X9261469Y51051509D01*
X9491000Y51149030D01*
X9491000Y52991000D01*
X9509000Y52991000D01*
X9509000Y51149030D01*
X9738531Y51051509D01*
X10053464Y51140300D01*
X10531669Y51455603D01*
X10852811Y51929906D01*
X10968000Y52491000D01*
X10968000Y52991000D01*
X18032000Y52991000D01*
X18032000Y52491000D01*
X18147189Y51929906D01*
X18468331Y51455603D01*
X18946536Y51140300D01*
X19261469Y51051509D01*
X19491000Y51149030D01*
X19491000Y52991000D01*
X19509000Y52991000D01*
X19509000Y51149030D01*
X19738531Y51051509D01*
X20053464Y51140300D01*
X20531669Y51455603D01*
X20852811Y51929906D01*
X20968000Y52491000D01*
X20968000Y52991000D01*
X19509000Y52991000D01*
X19491000Y52991000D01*
X18032000Y52991000D01*
X10968000Y52991000D01*
X9509000Y52991000D01*
X9491000Y52991000D01*
X8032000Y52991000D01*
X420000Y52991000D01*
X420000Y53509000D01*
X8032000Y53509000D01*
X8032000Y53009000D01*
X9491000Y53009000D01*
X9491000Y54850970D01*
X9509000Y54850970D01*
X9509000Y53009000D01*
X10968000Y53009000D01*
X10968000Y53509000D01*
X18032000Y53509000D01*
X18032000Y53009000D01*
X19491000Y53009000D01*
X19491000Y54850970D01*
X19509000Y54850970D01*
X19509000Y53009000D01*
X20968000Y53009000D01*
X20968000Y53509000D01*
X20852811Y54070094D01*
X20603510Y54438294D01*
X20726797Y54438294D01*
X20904544Y54008114D01*
X21233383Y53678700D01*
X21663252Y53500203D01*
X22128706Y53499797D01*
X22558886Y53677544D01*
X22888300Y54006383D01*
X22976497Y54218784D01*
X23063544Y54008114D01*
X23392383Y53678700D01*
X23822252Y53500203D01*
X24287706Y53499797D01*
X24717886Y53677544D01*
X25047300Y54006383D01*
X25136262Y54220628D01*
X25207544Y54048114D01*
X25536383Y53718700D01*
X25966252Y53540203D01*
X26431706Y53539797D01*
X26861886Y53717544D01*
X27191300Y54046383D01*
X27369797Y54476252D01*
X27370203Y54941706D01*
X27192456Y55371886D01*
X26863617Y55701300D01*
X26433748Y55879797D01*
X25968294Y55880203D01*
X25538114Y55702456D01*
X25208700Y55373617D01*
X25119738Y55159372D01*
X25048456Y55331886D01*
X24719617Y55661300D01*
X24289748Y55839797D01*
X23824294Y55840203D01*
X23394114Y55662456D01*
X23064700Y55333617D01*
X22976503Y55121216D01*
X22889456Y55331886D01*
X22560617Y55661300D01*
X22130748Y55839797D01*
X21665294Y55840203D01*
X21235114Y55662456D01*
X20905700Y55333617D01*
X20727203Y54903748D01*
X20726797Y54438294D01*
X20603510Y54438294D01*
X20531669Y54544397D01*
X20053464Y54859700D01*
X19738531Y54948491D01*
X19509000Y54850970D01*
X19491000Y54850970D01*
X19261469Y54948491D01*
X18946536Y54859700D01*
X18468331Y54544397D01*
X18147189Y54070094D01*
X18032000Y53509000D01*
X10968000Y53509000D01*
X10852811Y54070094D01*
X10531669Y54544397D01*
X10053464Y54859700D01*
X9738531Y54948491D01*
X9509000Y54850970D01*
X9491000Y54850970D01*
X9261469Y54948491D01*
X8946536Y54859700D01*
X8468331Y54544397D01*
X8147189Y54070094D01*
X8032000Y53509000D01*
X420000Y53509000D01*
X420000Y59428686D01*
X8029763Y59428686D01*
X8237893Y58924971D01*
X8622944Y58539248D01*
X9126295Y58330238D01*
X9671314Y58329763D01*
X10175029Y58537893D01*
X10560752Y58922944D01*
X10769762Y59426295D01*
X10769764Y59428686D01*
X18029763Y59428686D01*
X18237893Y58924971D01*
X18622944Y58539248D01*
X19126295Y58330238D01*
X19671314Y58329763D01*
X20175029Y58537893D01*
X20560752Y58922944D01*
X20769762Y59426295D01*
X20770237Y59971314D01*
X20562107Y60475029D01*
X20177056Y60860752D01*
X19673705Y61069762D01*
X19128686Y61070237D01*
X18624971Y60862107D01*
X18239248Y60477056D01*
X18030238Y59973705D01*
X18029763Y59428686D01*
X10769764Y59428686D01*
X10770237Y59971314D01*
X10562107Y60475029D01*
X10177056Y60860752D01*
X9673705Y61069762D01*
X9128686Y61070237D01*
X8624971Y60862107D01*
X8239248Y60477056D01*
X8030238Y59973705D01*
X8029763Y59428686D01*
X420000Y59428686D01*
X420000Y62528686D01*
X8029763Y62528686D01*
X8237893Y62024971D01*
X8622944Y61639248D01*
X9126295Y61430238D01*
X9671314Y61429763D01*
X10175029Y61637893D01*
X10560752Y62022944D01*
X10769762Y62526295D01*
X10769764Y62528686D01*
X18029763Y62528686D01*
X18237893Y62024971D01*
X18622944Y61639248D01*
X19126295Y61430238D01*
X19671314Y61429763D01*
X20175029Y61637893D01*
X20560752Y62022944D01*
X20769762Y62526295D01*
X20770237Y63071314D01*
X20562107Y63575029D01*
X20177056Y63960752D01*
X19673705Y64169762D01*
X19128686Y64170237D01*
X18624971Y63962107D01*
X18239248Y63577056D01*
X18030238Y63073705D01*
X18029763Y62528686D01*
X10769764Y62528686D01*
X10770237Y63071314D01*
X10562107Y63575029D01*
X10177056Y63960752D01*
X9673705Y64169762D01*
X9128686Y64170237D01*
X8624971Y63962107D01*
X8239248Y63577056D01*
X8030238Y63073705D01*
X8029763Y62528686D01*
X420000Y62528686D01*
X420000Y67631971D01*
X7494699Y67631971D01*
X7597559Y67392584D01*
X8147445Y67142949D01*
X8751005Y67122749D01*
X9316352Y67335060D01*
X9402441Y67392584D01*
X9505301Y67631971D01*
X19494699Y67631971D01*
X19597559Y67392584D01*
X20147445Y67142949D01*
X20751005Y67122749D01*
X21316352Y67335060D01*
X21402441Y67392584D01*
X21505301Y67631971D01*
X20500000Y68637272D01*
X19494699Y67631971D01*
X9505301Y67631971D01*
X8500000Y68637272D01*
X7494699Y67631971D01*
X420000Y67631971D01*
X420000Y68398995D01*
X6972749Y68398995D01*
X7185060Y67833648D01*
X7242584Y67747559D01*
X7481971Y67644699D01*
X8487272Y68650000D01*
X8512728Y68650000D01*
X9518029Y67644699D01*
X9757416Y67747559D01*
X10007051Y68297445D01*
X10010449Y68398995D01*
X18972749Y68398995D01*
X19185060Y67833648D01*
X19242584Y67747559D01*
X19481971Y67644699D01*
X20487272Y68650000D01*
X20512728Y68650000D01*
X21518029Y67644699D01*
X21757416Y67747559D01*
X22007051Y68297445D01*
X22027251Y68901005D01*
X21814940Y69466352D01*
X21757416Y69552441D01*
X21518029Y69655301D01*
X20512728Y68650000D01*
X20487272Y68650000D01*
X19481971Y69655301D01*
X19242584Y69552441D01*
X18992949Y69002555D01*
X18972749Y68398995D01*
X10010449Y68398995D01*
X10027251Y68901005D01*
X9814940Y69466352D01*
X9757416Y69552441D01*
X9518029Y69655301D01*
X8512728Y68650000D01*
X8487272Y68650000D01*
X7481971Y69655301D01*
X7242584Y69552441D01*
X6992949Y69002555D01*
X6972749Y68398995D01*
X420000Y68398995D01*
X420000Y69668029D01*
X7494699Y69668029D01*
X8500000Y68662728D01*
X9505301Y69668029D01*
X19494699Y69668029D01*
X20500000Y68662728D01*
X21505301Y69668029D01*
X21402441Y69907416D01*
X20852555Y70157051D01*
X20248995Y70177251D01*
X19683648Y69964940D01*
X19597559Y69907416D01*
X19494699Y69668029D01*
X9505301Y69668029D01*
X9402441Y69907416D01*
X8852555Y70157051D01*
X8248995Y70177251D01*
X7683648Y69964940D01*
X7597559Y69907416D01*
X7494699Y69668029D01*
X420000Y69668029D01*
X420000Y70679971D01*
X7494699Y70679971D01*
X7597559Y70440584D01*
X8147445Y70190949D01*
X8751005Y70170749D01*
X9316352Y70383060D01*
X9402441Y70440584D01*
X9505301Y70679971D01*
X8500000Y71685272D01*
X7494699Y70679971D01*
X420000Y70679971D01*
X420000Y71446995D01*
X6972749Y71446995D01*
X7185060Y70881648D01*
X7242584Y70795559D01*
X7481971Y70692699D01*
X8487272Y71698000D01*
X8512728Y71698000D01*
X9518029Y70692699D01*
X9757416Y70795559D01*
X10007051Y71345445D01*
X10009438Y71416784D01*
X19079754Y71416784D01*
X19295481Y70894686D01*
X19694585Y70494885D01*
X20216305Y70278247D01*
X20781216Y70277754D01*
X21303314Y70493481D01*
X21703115Y70892585D01*
X21919753Y71414305D01*
X21920246Y71979216D01*
X21704519Y72501314D01*
X21305415Y72901115D01*
X20783695Y73117753D01*
X20218784Y73118246D01*
X19696686Y72902519D01*
X19296885Y72503415D01*
X19080247Y71981695D01*
X19079754Y71416784D01*
X10009438Y71416784D01*
X10027251Y71949005D01*
X9814940Y72514352D01*
X9757416Y72600441D01*
X9518029Y72703301D01*
X8512728Y71698000D01*
X8487272Y71698000D01*
X7481971Y72703301D01*
X7242584Y72600441D01*
X6992949Y72050555D01*
X6972749Y71446995D01*
X420000Y71446995D01*
X420000Y72716029D01*
X7494699Y72716029D01*
X8500000Y71710728D01*
X9505301Y72716029D01*
X9402441Y72955416D01*
X8852555Y73205051D01*
X8248995Y73225251D01*
X7683648Y73012940D01*
X7597559Y72955416D01*
X7494699Y72716029D01*
X420000Y72716029D01*
X420000Y74042412D01*
X1785140Y74042412D01*
X1833250Y73849783D01*
X2220555Y73675099D01*
X2645228Y73661927D01*
X3042614Y73812274D01*
X3098750Y73849783D01*
X3146860Y74042412D01*
X25788140Y74042412D01*
X25836250Y73849783D01*
X26223555Y73675099D01*
X26648228Y73661927D01*
X27045614Y73812274D01*
X27101750Y73849783D01*
X27149860Y74042412D01*
X26469000Y74723272D01*
X25788140Y74042412D01*
X3146860Y74042412D01*
X2466000Y74723272D01*
X1785140Y74042412D01*
X420000Y74042412D01*
X420000Y74556772D01*
X1391927Y74556772D01*
X1542274Y74159386D01*
X1579783Y74103250D01*
X1772412Y74055140D01*
X2453272Y74736000D01*
X2478728Y74736000D01*
X3159588Y74055140D01*
X3352217Y74103250D01*
X3526901Y74490555D01*
X3528954Y74556772D01*
X25394927Y74556772D01*
X25545274Y74159386D01*
X25582783Y74103250D01*
X25775412Y74055140D01*
X26456272Y74736000D01*
X26481728Y74736000D01*
X27162588Y74055140D01*
X27355217Y74103250D01*
X27529901Y74490555D01*
X27543073Y74915228D01*
X27392726Y75312614D01*
X27355217Y75368750D01*
X27162588Y75416860D01*
X26481728Y74736000D01*
X26456272Y74736000D01*
X25775412Y75416860D01*
X25582783Y75368750D01*
X25408099Y74981445D01*
X25394927Y74556772D01*
X3528954Y74556772D01*
X3540073Y74915228D01*
X3389726Y75312614D01*
X3352217Y75368750D01*
X3159588Y75416860D01*
X2478728Y74736000D01*
X2453272Y74736000D01*
X1772412Y75416860D01*
X1579783Y75368750D01*
X1405099Y74981445D01*
X1391927Y74556772D01*
X420000Y74556772D01*
X420000Y75429588D01*
X1785140Y75429588D01*
X2466000Y74748728D01*
X3146860Y75429588D01*
X25788140Y75429588D01*
X26469000Y74748728D01*
X27149860Y75429588D01*
X27101750Y75622217D01*
X26714445Y75796901D01*
X26289772Y75810073D01*
X25892386Y75659726D01*
X25836250Y75622217D01*
X25788140Y75429588D01*
X3146860Y75429588D01*
X3098750Y75622217D01*
X2711445Y75796901D01*
X2286772Y75810073D01*
X1889386Y75659726D01*
X1833250Y75622217D01*
X1785140Y75429588D01*
X420000Y75429588D01*
X420000Y79623902D01*
X1495832Y79623902D01*
X1643195Y79267257D01*
X1915822Y78994154D01*
X2272209Y78846169D01*
X2658098Y78845832D01*
X3014743Y78993195D01*
X3287846Y79265822D01*
X3403681Y79544784D01*
X7079754Y79544784D01*
X7295481Y79022686D01*
X7694585Y78622885D01*
X8216305Y78406247D01*
X8781216Y78405754D01*
X9303314Y78621481D01*
X9703115Y79020585D01*
X9919753Y79542305D01*
X9919755Y79544784D01*
X19079754Y79544784D01*
X19295481Y79022686D01*
X19694585Y78622885D01*
X20216305Y78406247D01*
X20781216Y78405754D01*
X21303314Y78621481D01*
X21703115Y79020585D01*
X21817478Y79296000D01*
X25634319Y79296000D01*
X25646195Y79267257D01*
X25918822Y78994154D01*
X26275209Y78846169D01*
X26661098Y78845832D01*
X27017743Y78993195D01*
X27290846Y79265822D01*
X27438831Y79622209D01*
X27439168Y80008098D01*
X27291805Y80364743D01*
X27019178Y80637846D01*
X26662791Y80785831D01*
X26276902Y80786168D01*
X25920257Y80638805D01*
X25647154Y80366178D01*
X25634623Y80336000D01*
X21825714Y80336000D01*
X21704519Y80629314D01*
X21305415Y81029115D01*
X20783695Y81245753D01*
X20218784Y81246246D01*
X19696686Y81030519D01*
X19296885Y80631415D01*
X19080247Y80109695D01*
X19079754Y79544784D01*
X9919755Y79544784D01*
X9920246Y80107216D01*
X9704519Y80629314D01*
X9305415Y81029115D01*
X8783695Y81245753D01*
X8218784Y81246246D01*
X7696686Y81030519D01*
X7296885Y80631415D01*
X7080247Y80109695D01*
X7079754Y79544784D01*
X3403681Y79544784D01*
X3435831Y79622209D01*
X3436168Y80008098D01*
X3288805Y80364743D01*
X3016178Y80637846D01*
X2659791Y80785831D01*
X2273902Y80786168D01*
X1917257Y80638805D01*
X1644154Y80366178D01*
X1496169Y80009791D01*
X1495832Y79623902D01*
X420000Y79623902D01*
X420000Y83989686D01*
X1810763Y83989686D01*
X2018893Y83485971D01*
X2403944Y83100248D01*
X2907295Y82891238D01*
X3452314Y82890763D01*
X3956029Y83098893D01*
X4136469Y83279019D01*
X12211747Y83279019D01*
X12308524Y83044827D01*
X12840346Y82803521D01*
X13424030Y82784102D01*
X13970715Y82989529D01*
X14053476Y83044827D01*
X14150253Y83279019D01*
X14784747Y83279019D01*
X14881524Y83044827D01*
X15413346Y82803521D01*
X15997030Y82784102D01*
X16543715Y82989529D01*
X16626476Y83044827D01*
X16723253Y83279019D01*
X15754000Y84248272D01*
X14784747Y83279019D01*
X14150253Y83279019D01*
X13181000Y84248272D01*
X12211747Y83279019D01*
X4136469Y83279019D01*
X4341752Y83483944D01*
X4550762Y83987295D01*
X4550788Y84017970D01*
X11704102Y84017970D01*
X11909529Y83471285D01*
X11964827Y83388524D01*
X12199019Y83291747D01*
X13168272Y84261000D01*
X13193728Y84261000D01*
X14162981Y83291747D01*
X14397173Y83388524D01*
X14460873Y83528915D01*
X14482529Y83471285D01*
X14537827Y83388524D01*
X14772019Y83291747D01*
X15741272Y84261000D01*
X15766728Y84261000D01*
X16735981Y83291747D01*
X16970173Y83388524D01*
X17211479Y83920346D01*
X17213785Y83989686D01*
X24383763Y83989686D01*
X24591893Y83485971D01*
X24976944Y83100248D01*
X25480295Y82891238D01*
X26025314Y82890763D01*
X26529029Y83098893D01*
X26914752Y83483944D01*
X27123762Y83987295D01*
X27124237Y84532314D01*
X26916107Y85036029D01*
X26531056Y85421752D01*
X26027705Y85630762D01*
X25482686Y85631237D01*
X24978971Y85423107D01*
X24593248Y85038056D01*
X24384238Y84534705D01*
X24383763Y83989686D01*
X17213785Y83989686D01*
X17230898Y84504030D01*
X17025471Y85050715D01*
X16970173Y85133476D01*
X16735981Y85230253D01*
X15766728Y84261000D01*
X15741272Y84261000D01*
X14772019Y85230253D01*
X14537827Y85133476D01*
X14474127Y84993085D01*
X14452471Y85050715D01*
X14397173Y85133476D01*
X14162981Y85230253D01*
X13193728Y84261000D01*
X13168272Y84261000D01*
X12199019Y85230253D01*
X11964827Y85133476D01*
X11723521Y84601654D01*
X11704102Y84017970D01*
X4550788Y84017970D01*
X4551237Y84532314D01*
X4343107Y85036029D01*
X4136516Y85242981D01*
X12211747Y85242981D01*
X13181000Y84273728D01*
X14150253Y85242981D01*
X14784747Y85242981D01*
X15754000Y84273728D01*
X16723253Y85242981D01*
X16626476Y85477173D01*
X16094654Y85718479D01*
X15510970Y85737898D01*
X14964285Y85532471D01*
X14881524Y85477173D01*
X14784747Y85242981D01*
X14150253Y85242981D01*
X14053476Y85477173D01*
X13521654Y85718479D01*
X12937970Y85737898D01*
X12391285Y85532471D01*
X12308524Y85477173D01*
X12211747Y85242981D01*
X4136516Y85242981D01*
X3958056Y85421752D01*
X3454705Y85630762D01*
X2909686Y85631237D01*
X2405971Y85423107D01*
X2020248Y85038056D01*
X1811238Y84534705D01*
X1810763Y83989686D01*
X420000Y83989686D01*
X420000Y86812214D01*
X674942Y86812214D01*
X747386Y86598804D01*
X1206950Y86390809D01*
X1711129Y86374514D01*
X2183164Y86552401D01*
X2252614Y86598804D01*
X2325058Y86812214D01*
X1500000Y87637272D01*
X674942Y86812214D01*
X420000Y86812214D01*
X420000Y86940496D01*
X448804Y86897386D01*
X662214Y86824942D01*
X1487272Y87650000D01*
X1512728Y87650000D01*
X2337786Y86824942D01*
X2551196Y86897386D01*
X2746398Y87328686D01*
X7329763Y87328686D01*
X7537893Y86824971D01*
X7922944Y86439248D01*
X8426295Y86230238D01*
X8971314Y86229763D01*
X9475029Y86437893D01*
X9860752Y86822944D01*
X10069762Y87326295D01*
X10069764Y87328686D01*
X17329763Y87328686D01*
X17537893Y86824971D01*
X17922944Y86439248D01*
X18426295Y86230238D01*
X18971314Y86229763D01*
X19475029Y86437893D01*
X19860752Y86822944D01*
X19929911Y86989498D01*
X19929797Y86858294D01*
X20107544Y86428114D01*
X20436383Y86098700D01*
X20866252Y85920203D01*
X21331706Y85919797D01*
X21761886Y86097544D01*
X22091300Y86426383D01*
X22150935Y86570000D01*
X23448918Y86570000D01*
X23507544Y86428114D01*
X23836383Y86098700D01*
X24266252Y85920203D01*
X24731706Y85919797D01*
X25161886Y86097544D01*
X25491300Y86426383D01*
X25651510Y86812214D01*
X26674942Y86812214D01*
X26747386Y86598804D01*
X27206950Y86390809D01*
X27711129Y86374514D01*
X28183164Y86552401D01*
X28252614Y86598804D01*
X28325058Y86812214D01*
X27500000Y87637272D01*
X26674942Y86812214D01*
X25651510Y86812214D01*
X25669797Y86856252D01*
X25670203Y87321706D01*
X25621792Y87438871D01*
X26224514Y87438871D01*
X26402401Y86966836D01*
X26448804Y86897386D01*
X26662214Y86824942D01*
X27487272Y87650000D01*
X26662214Y88475058D01*
X26448804Y88402614D01*
X26240809Y87943050D01*
X26224514Y87438871D01*
X25621792Y87438871D01*
X25492456Y87751886D01*
X25163617Y88081300D01*
X24733748Y88259797D01*
X24268294Y88260203D01*
X23838114Y88082456D01*
X23508700Y87753617D01*
X23449065Y87610000D01*
X22151082Y87610000D01*
X22092456Y87751886D01*
X21763617Y88081300D01*
X21333748Y88259797D01*
X20868294Y88260203D01*
X20438114Y88082456D01*
X20108700Y87753617D01*
X20070053Y87660545D01*
X20070237Y87871314D01*
X19862107Y88375029D01*
X19749547Y88487786D01*
X26674942Y88487786D01*
X27500000Y87662728D01*
X28325058Y88487786D01*
X28252614Y88701196D01*
X27793050Y88909191D01*
X27288871Y88925486D01*
X26816836Y88747599D01*
X26747386Y88701196D01*
X26674942Y88487786D01*
X19749547Y88487786D01*
X19477056Y88760752D01*
X18973705Y88969762D01*
X18428686Y88970237D01*
X17924971Y88762107D01*
X17539248Y88377056D01*
X17330238Y87873705D01*
X17329763Y87328686D01*
X10069764Y87328686D01*
X10070237Y87871314D01*
X9862107Y88375029D01*
X9477056Y88760752D01*
X8973705Y88969762D01*
X8428686Y88970237D01*
X7924971Y88762107D01*
X7539248Y88377056D01*
X7330238Y87873705D01*
X7329763Y87328686D01*
X2746398Y87328686D01*
X2759191Y87356950D01*
X2775486Y87861129D01*
X2597599Y88333164D01*
X2551196Y88402614D01*
X2337786Y88475058D01*
X1512728Y87650000D01*
X1487272Y87650000D01*
X662214Y88475058D01*
X448804Y88402614D01*
X420000Y88338972D01*
X420000Y88487786D01*
X674942Y88487786D01*
X1500000Y87662728D01*
X2325058Y88487786D01*
X2252614Y88701196D01*
X1793050Y88909191D01*
X1288871Y88925486D01*
X816836Y88747599D01*
X747386Y88701196D01*
X674942Y88487786D01*
X420000Y88487786D01*
X420000Y89352214D01*
X674942Y89352214D01*
X747386Y89138804D01*
X1206950Y88930809D01*
X1711129Y88914514D01*
X2183164Y89092401D01*
X2252614Y89138804D01*
X2325058Y89352214D01*
X1500000Y90177272D01*
X674942Y89352214D01*
X420000Y89352214D01*
X420000Y89480496D01*
X448804Y89437386D01*
X662214Y89364942D01*
X1487272Y90190000D01*
X1512728Y90190000D01*
X2337786Y89364942D01*
X2551196Y89437386D01*
X2678208Y89718019D01*
X13530747Y89718019D01*
X13627524Y89483827D01*
X14159346Y89242521D01*
X14743030Y89223102D01*
X15289715Y89428529D01*
X15372476Y89483827D01*
X15469253Y89718019D01*
X14500000Y90687272D01*
X13530747Y89718019D01*
X2678208Y89718019D01*
X2759191Y89896950D01*
X2775486Y90401129D01*
X2754443Y90456970D01*
X13023102Y90456970D01*
X13228529Y89910285D01*
X13283827Y89827524D01*
X13518019Y89730747D01*
X14487272Y90700000D01*
X14512728Y90700000D01*
X15481981Y89730747D01*
X15716173Y89827524D01*
X15957479Y90359346D01*
X15976898Y90943030D01*
X15771471Y91489715D01*
X15716173Y91572476D01*
X15481981Y91669253D01*
X14512728Y90700000D01*
X14487272Y90700000D01*
X13518019Y91669253D01*
X13283827Y91572476D01*
X13042521Y91040654D01*
X13023102Y90456970D01*
X2754443Y90456970D01*
X2597599Y90873164D01*
X2551196Y90942614D01*
X2337786Y91015058D01*
X1512728Y90190000D01*
X1487272Y90190000D01*
X662214Y91015058D01*
X448804Y90942614D01*
X420000Y90878972D01*
X420000Y91027786D01*
X674942Y91027786D01*
X1500000Y90202728D01*
X2325058Y91027786D01*
X2252614Y91241196D01*
X1793050Y91449191D01*
X1288871Y91465486D01*
X816836Y91287599D01*
X747386Y91241196D01*
X674942Y91027786D01*
X420000Y91027786D01*
X420000Y92279986D01*
X507544Y92068114D01*
X836383Y91738700D01*
X1266252Y91560203D01*
X1731706Y91559797D01*
X2027413Y91681981D01*
X13530747Y91681981D01*
X14500000Y90712728D01*
X15469253Y91681981D01*
X15372476Y91916173D01*
X14840654Y92157479D01*
X14256970Y92176898D01*
X13710285Y91971471D01*
X13627524Y91916173D01*
X13530747Y91681981D01*
X2027413Y91681981D01*
X2161886Y91737544D01*
X2491300Y92066383D01*
X2567544Y92250000D01*
X5001448Y92250000D01*
X5175901Y92075243D01*
X5477176Y91950142D01*
X5803393Y91949858D01*
X6104886Y92074432D01*
X6335757Y92304901D01*
X6460858Y92606176D01*
X6461142Y92932393D01*
X6336568Y93233886D01*
X6106099Y93464757D01*
X5804824Y93589858D01*
X5478607Y93590142D01*
X5177114Y93465568D01*
X5001240Y93290000D01*
X2534554Y93290000D01*
X2492456Y93391886D01*
X2163617Y93721300D01*
X1905003Y93828686D01*
X6129763Y93828686D01*
X6337893Y93324971D01*
X6722944Y92939248D01*
X7226295Y92730238D01*
X7771314Y92729763D01*
X8275029Y92937893D01*
X8660752Y93322944D01*
X8704659Y93428686D01*
X13129763Y93428686D01*
X13337893Y92924971D01*
X13722944Y92539248D01*
X14226295Y92330238D01*
X14771314Y92329763D01*
X15275029Y92537893D01*
X15660752Y92922944D01*
X15869762Y93426295D01*
X15870237Y93971314D01*
X15662107Y94475029D01*
X15277056Y94860752D01*
X14773705Y95069762D01*
X14228686Y95070237D01*
X13724971Y94862107D01*
X13339248Y94477056D01*
X13130238Y93973705D01*
X13129763Y93428686D01*
X8704659Y93428686D01*
X8869762Y93826295D01*
X8870237Y94371314D01*
X8662107Y94875029D01*
X8277056Y95260752D01*
X7773705Y95469762D01*
X7228686Y95470237D01*
X6724971Y95262107D01*
X6339248Y94877056D01*
X6130238Y94373705D01*
X6129763Y93828686D01*
X1905003Y93828686D01*
X1733748Y93899797D01*
X1268294Y93900203D01*
X838114Y93722456D01*
X508700Y93393617D01*
X420000Y93180003D01*
X420000Y94432214D01*
X674942Y94432214D01*
X747386Y94218804D01*
X1206950Y94010809D01*
X1711129Y93994514D01*
X2183164Y94172401D01*
X2252614Y94218804D01*
X2325058Y94432214D01*
X1500000Y95257272D01*
X674942Y94432214D01*
X420000Y94432214D01*
X420000Y94560496D01*
X448804Y94517386D01*
X662214Y94444942D01*
X1487272Y95270000D01*
X1512728Y95270000D01*
X2337786Y94444942D01*
X2551196Y94517386D01*
X2759191Y94976950D01*
X2775486Y95481129D01*
X2597599Y95953164D01*
X2551196Y96022614D01*
X2337786Y96095058D01*
X1512728Y95270000D01*
X1487272Y95270000D01*
X662214Y96095058D01*
X448804Y96022614D01*
X420000Y95958972D01*
X420000Y96107786D01*
X674942Y96107786D01*
X1500000Y95282728D01*
X2325058Y96107786D01*
X2252614Y96321196D01*
X1949697Y96458294D01*
X19929797Y96458294D01*
X20107544Y96028114D01*
X20435369Y95699716D01*
X20108700Y95373617D01*
X19930203Y94943748D01*
X19929797Y94478294D01*
X20107544Y94048114D01*
X20436383Y93718700D01*
X20866252Y93540203D01*
X21331706Y93539797D01*
X21761886Y93717544D01*
X22091300Y94046383D01*
X22269797Y94476252D01*
X22270203Y94941706D01*
X22092456Y95371886D01*
X21764631Y95700284D01*
X22091300Y96026383D01*
X22269797Y96456252D01*
X22270203Y96921706D01*
X22092456Y97351886D01*
X21763617Y97681300D01*
X21333748Y97859797D01*
X20868294Y97860203D01*
X20438114Y97682456D01*
X20108700Y97353617D01*
X19930203Y96923748D01*
X19929797Y96458294D01*
X1949697Y96458294D01*
X1793050Y96529191D01*
X1288871Y96545486D01*
X816836Y96367599D01*
X747386Y96321196D01*
X674942Y96107786D01*
X420000Y96107786D01*
X420000Y97359986D01*
X507544Y97148114D01*
X836383Y96818700D01*
X1266252Y96640203D01*
X1731706Y96639797D01*
X2161886Y96817544D01*
X2491300Y97146383D01*
X2669797Y97576252D01*
X2670203Y98041706D01*
X2492456Y98471886D01*
X2163617Y98801300D01*
X1733748Y98979797D01*
X1450000Y98980045D01*
X1450000Y99158000D01*
X1491000Y99199000D01*
X1491000Y100341000D01*
X1509000Y100341000D01*
X1509000Y99199000D01*
X1626000Y99082000D01*
X2393091Y99082000D01*
X2565101Y99153249D01*
X2696751Y99284899D01*
X2768000Y99456909D01*
X2768000Y100224000D01*
X2651000Y100341000D01*
X1509000Y100341000D01*
X1491000Y100341000D01*
X1471000Y100341000D01*
X1471000Y100359000D01*
X1491000Y100359000D01*
X1491000Y101501000D01*
X1509000Y101501000D01*
X1509000Y100359000D01*
X2651000Y100359000D01*
X2768000Y100476000D01*
X2768000Y101243091D01*
X2696751Y101415101D01*
X2583166Y101528686D01*
X13129763Y101528686D01*
X13337893Y101024971D01*
X13722944Y100639248D01*
X14226295Y100430238D01*
X14771314Y100429763D01*
X15275029Y100637893D01*
X15660752Y101022944D01*
X15869762Y101526295D01*
X15870237Y102071314D01*
X15662107Y102575029D01*
X15277056Y102960752D01*
X14773705Y103169762D01*
X14228686Y103170237D01*
X13724971Y102962107D01*
X13339248Y102577056D01*
X13130238Y102073705D01*
X13129763Y101528686D01*
X2583166Y101528686D01*
X2565101Y101546751D01*
X2393091Y101618000D01*
X1626000Y101618000D01*
X1509000Y101501000D01*
X1491000Y101501000D01*
X1374000Y101618000D01*
X606909Y101618000D01*
X434899Y101546751D01*
X420000Y101531852D01*
X420000Y103828686D01*
X6129763Y103828686D01*
X6337893Y103324971D01*
X6722944Y102939248D01*
X7226295Y102730238D01*
X7771314Y102729763D01*
X8275029Y102937893D01*
X8660752Y103322944D01*
X8869762Y103826295D01*
X8869981Y104078294D01*
X19929797Y104078294D01*
X20107544Y103648114D01*
X20436383Y103318700D01*
X20866252Y103140203D01*
X21331706Y103139797D01*
X21761886Y103317544D01*
X22091300Y103646383D01*
X22269797Y104076252D01*
X22269798Y104078294D01*
X23329797Y104078294D01*
X23507544Y103648114D01*
X23836383Y103318700D01*
X24266252Y103140203D01*
X24731706Y103139797D01*
X25161886Y103317544D01*
X25491300Y103646383D01*
X25669797Y104076252D01*
X25670203Y104541706D01*
X25492456Y104971886D01*
X25163617Y105301300D01*
X24733748Y105479797D01*
X24268294Y105480203D01*
X23838114Y105302456D01*
X23508700Y104973617D01*
X23330203Y104543748D01*
X23329797Y104078294D01*
X22269798Y104078294D01*
X22270203Y104541706D01*
X22092456Y104971886D01*
X21763617Y105301300D01*
X21333748Y105479797D01*
X20868294Y105480203D01*
X20438114Y105302456D01*
X20108700Y104973617D01*
X19930203Y104543748D01*
X19929797Y104078294D01*
X8869981Y104078294D01*
X8870237Y104371314D01*
X8662107Y104875029D01*
X8277056Y105260752D01*
X7773705Y105469762D01*
X7228686Y105470237D01*
X6724971Y105262107D01*
X6339248Y104877056D01*
X6130238Y104373705D01*
X6129763Y103828686D01*
X420000Y103828686D01*
X420000Y105580000D01*
X28580000Y105580000D01*
X28580000Y101396932D01*
X28580000Y101396932D01*
G37*
X28580000Y101396932D02*
X28566755Y101416755D01*
X28444367Y101498532D01*
X28300000Y101527248D01*
X26700000Y101527248D01*
X26555633Y101498532D01*
X26433245Y101416755D01*
X26351468Y101294367D01*
X26322752Y101150000D01*
X26322752Y100970000D01*
X25550000Y100970000D01*
X25312736Y100922805D01*
X25111594Y100788406D01*
X24061594Y99738406D01*
X23927195Y99537264D01*
X23880000Y99300000D01*
X23880000Y97699763D01*
X23838114Y97682456D01*
X23508700Y97353617D01*
X23330203Y96923748D01*
X23329797Y96458294D01*
X23507544Y96028114D01*
X23835369Y95699716D01*
X23508700Y95373617D01*
X23330203Y94943748D01*
X23329797Y94478294D01*
X23507544Y94048114D01*
X23836383Y93718700D01*
X24266252Y93540203D01*
X24731706Y93539797D01*
X25161886Y93717544D01*
X25491300Y94046383D01*
X25651510Y94432214D01*
X26674942Y94432214D01*
X26747386Y94218804D01*
X27206950Y94010809D01*
X27711129Y93994514D01*
X28183164Y94172401D01*
X28252614Y94218804D01*
X28325058Y94432214D01*
X27500000Y95257272D01*
X26674942Y94432214D01*
X25651510Y94432214D01*
X25669797Y94476252D01*
X25670203Y94941706D01*
X25621792Y95058871D01*
X26224514Y95058871D01*
X26402401Y94586836D01*
X26448804Y94517386D01*
X26662214Y94444942D01*
X27487272Y95270000D01*
X26662214Y96095058D01*
X26448804Y96022614D01*
X26240809Y95563050D01*
X26224514Y95058871D01*
X25621792Y95058871D01*
X25492456Y95371886D01*
X25164631Y95700284D01*
X25491300Y96026383D01*
X25525101Y96107786D01*
X26674942Y96107786D01*
X27500000Y95282728D01*
X28325058Y96107786D01*
X28252614Y96321196D01*
X27793050Y96529191D01*
X27288871Y96545486D01*
X26816836Y96367599D01*
X26747386Y96321196D01*
X26674942Y96107786D01*
X25525101Y96107786D01*
X25669797Y96456252D01*
X25670203Y96921706D01*
X25492456Y97351886D01*
X25163617Y97681300D01*
X25120000Y97699411D01*
X25120000Y99043188D01*
X25806812Y99730000D01*
X26322752Y99730000D01*
X26322752Y99550000D01*
X26351468Y99405633D01*
X26433245Y99283245D01*
X26450000Y99272050D01*
X26450000Y98332252D01*
X26330203Y98043748D01*
X26329797Y97578294D01*
X26507544Y97148114D01*
X26836383Y96818700D01*
X27266252Y96640203D01*
X27731706Y96639797D01*
X28161886Y96817544D01*
X28491300Y97146383D01*
X28580000Y97359997D01*
X28580000Y95979504D01*
X28551196Y96022614D01*
X28337786Y96095058D01*
X27512728Y95270000D01*
X28337786Y94444942D01*
X28551196Y94517386D01*
X28580000Y94581028D01*
X28580000Y93180014D01*
X28492456Y93391886D01*
X28163617Y93721300D01*
X27733748Y93899797D01*
X27268294Y93900203D01*
X26838114Y93722456D01*
X26508700Y93393617D01*
X26330203Y92963748D01*
X26329797Y92498294D01*
X26389181Y92354573D01*
X25854608Y91820000D01*
X20739552Y91820000D01*
X20565099Y91994757D01*
X20263824Y92119858D01*
X19937607Y92120142D01*
X19636114Y91995568D01*
X19405243Y91765099D01*
X19280142Y91463824D01*
X19279858Y91137607D01*
X19404432Y90836114D01*
X19634901Y90605243D01*
X19936176Y90480142D01*
X20262393Y90479858D01*
X20563886Y90604432D01*
X20739760Y90780000D01*
X26069995Y90780000D01*
X26070000Y90779999D01*
X26268995Y90819583D01*
X26437696Y90932304D01*
X26550000Y91044608D01*
X26550000Y90894845D01*
X26508700Y90853617D01*
X26330203Y90423748D01*
X26329797Y89958294D01*
X26507544Y89528114D01*
X26836383Y89198700D01*
X27266252Y89020203D01*
X27731706Y89019797D01*
X28161886Y89197544D01*
X28491300Y89526383D01*
X28580000Y89739997D01*
X28580000Y88359504D01*
X28551196Y88402614D01*
X28337786Y88475058D01*
X27512728Y87650000D01*
X28337786Y86824942D01*
X28551196Y86897386D01*
X28580000Y86961028D01*
X28580000Y45396932D01*
X28566755Y45416755D01*
X28444367Y45498532D01*
X28300000Y45527248D01*
X26700000Y45527248D01*
X26555633Y45498532D01*
X26433245Y45416755D01*
X26351468Y45294367D01*
X26322752Y45150000D01*
X26322752Y43550000D01*
X26350000Y43413013D01*
X26350000Y42330000D01*
X23923391Y42330000D01*
X23007923Y43245468D01*
X23066797Y43387252D01*
X23067203Y43852706D01*
X22889456Y44282886D01*
X22560617Y44612300D01*
X22130748Y44790797D01*
X21665294Y44791203D01*
X21235114Y44613456D01*
X20905700Y44284617D01*
X20727203Y43854748D01*
X20726797Y43389294D01*
X20904544Y42959114D01*
X21233383Y42629700D01*
X21663252Y42451203D01*
X22128706Y42450797D01*
X22272427Y42510181D01*
X23340302Y41442307D01*
X23340304Y41442304D01*
X23509005Y41329583D01*
X23708000Y41289999D01*
X23708005Y41290000D01*
X26448918Y41290000D01*
X26507544Y41148114D01*
X26836383Y40818700D01*
X27266252Y40640203D01*
X27731706Y40639797D01*
X28161886Y40817544D01*
X28491300Y41146383D01*
X28580000Y41359997D01*
X28580000Y39979504D01*
X28551196Y40022614D01*
X28337786Y40095058D01*
X27512728Y39270000D01*
X28337786Y38444942D01*
X28551196Y38517386D01*
X28580000Y38581028D01*
X28580000Y37180014D01*
X28492456Y37391886D01*
X28163617Y37721300D01*
X27733748Y37899797D01*
X27268294Y37900203D01*
X26838114Y37722456D01*
X26508700Y37393617D01*
X26449065Y37250000D01*
X26130005Y37250000D01*
X26130000Y37250001D01*
X25931004Y37210417D01*
X25872316Y37171203D01*
X25762304Y37097696D01*
X25762302Y37097693D01*
X25232304Y36567696D01*
X25119583Y36398995D01*
X25079999Y36200000D01*
X25080000Y36199995D01*
X25080000Y35045391D01*
X24232304Y34197696D01*
X24119583Y34028995D01*
X24079999Y33830000D01*
X24080000Y33829995D01*
X24080000Y31715391D01*
X23184608Y30820000D01*
X20839552Y30820000D01*
X20665099Y30994757D01*
X20363824Y31119858D01*
X20037607Y31120142D01*
X19736114Y30995568D01*
X19505243Y30765099D01*
X19380142Y30463824D01*
X19379858Y30137607D01*
X19504432Y29836114D01*
X19734901Y29605243D01*
X20036176Y29480142D01*
X20362393Y29479858D01*
X20663886Y29604432D01*
X20839760Y29780000D01*
X23399995Y29780000D01*
X23400000Y29779999D01*
X23598995Y29819583D01*
X23767696Y29932304D01*
X24647605Y30812214D01*
X26674942Y30812214D01*
X26747386Y30598804D01*
X27206950Y30390809D01*
X27711129Y30374514D01*
X28183164Y30552401D01*
X28252614Y30598804D01*
X28325058Y30812214D01*
X27500000Y31637272D01*
X26674942Y30812214D01*
X24647605Y30812214D01*
X24967693Y31132302D01*
X24967696Y31132304D01*
X25035267Y31233433D01*
X25080417Y31301004D01*
X25107840Y31438871D01*
X26224514Y31438871D01*
X26402401Y30966836D01*
X26448804Y30897386D01*
X26662214Y30824942D01*
X27487272Y31650000D01*
X26662214Y32475058D01*
X26448804Y32402614D01*
X26240809Y31943050D01*
X26224514Y31438871D01*
X25107840Y31438871D01*
X25120000Y31500000D01*
X25120000Y32487786D01*
X26674942Y32487786D01*
X27500000Y31662728D01*
X28325058Y32487786D01*
X28252614Y32701196D01*
X27793050Y32909191D01*
X27288871Y32925486D01*
X26816836Y32747599D01*
X26747386Y32701196D01*
X26674942Y32487786D01*
X25120000Y32487786D01*
X25120000Y33352214D01*
X26674942Y33352214D01*
X26747386Y33138804D01*
X27206950Y32930809D01*
X27711129Y32914514D01*
X28183164Y33092401D01*
X28252614Y33138804D01*
X28325058Y33352214D01*
X27500000Y34177272D01*
X26674942Y33352214D01*
X25120000Y33352214D01*
X25120000Y33614608D01*
X25484262Y33978871D01*
X26224514Y33978871D01*
X26402401Y33506836D01*
X26448804Y33437386D01*
X26662214Y33364942D01*
X27487272Y34190000D01*
X26662214Y35015058D01*
X26448804Y34942614D01*
X26240809Y34483050D01*
X26224514Y33978871D01*
X25484262Y33978871D01*
X25967693Y34462302D01*
X25967696Y34462304D01*
X26080417Y34631005D01*
X26120001Y34830000D01*
X26120000Y34830005D01*
X26120000Y35027786D01*
X26674942Y35027786D01*
X27500000Y34202728D01*
X28325058Y35027786D01*
X28252614Y35241196D01*
X27793050Y35449191D01*
X27288871Y35465486D01*
X26816836Y35287599D01*
X26747386Y35241196D01*
X26674942Y35027786D01*
X26120000Y35027786D01*
X26120000Y35984608D01*
X26345391Y36210000D01*
X26448918Y36210000D01*
X26507544Y36068114D01*
X26836383Y35738700D01*
X27266252Y35560203D01*
X27731706Y35559797D01*
X28161886Y35737544D01*
X28491300Y36066383D01*
X28580000Y36279997D01*
X28580000Y34899504D01*
X28551196Y34942614D01*
X28337786Y35015058D01*
X27512728Y34190000D01*
X28337786Y33364942D01*
X28551196Y33437386D01*
X28580000Y33501028D01*
X28580000Y32359504D01*
X28551196Y32402614D01*
X28337786Y32475058D01*
X27512728Y31650000D01*
X28337786Y30824942D01*
X28551196Y30897386D01*
X28580000Y30961028D01*
X28580000Y420000D01*
X420000Y420000D01*
X420000Y1718019D01*
X13530747Y1718019D01*
X13627524Y1483827D01*
X14159346Y1242521D01*
X14743030Y1223102D01*
X15289715Y1428529D01*
X15372476Y1483827D01*
X15469253Y1718019D01*
X14500000Y2687272D01*
X13530747Y1718019D01*
X420000Y1718019D01*
X420000Y2456970D01*
X13023102Y2456970D01*
X13228529Y1910285D01*
X13283827Y1827524D01*
X13518019Y1730747D01*
X14487272Y2700000D01*
X14512728Y2700000D01*
X15481981Y1730747D01*
X15716173Y1827524D01*
X15762073Y1928686D01*
X20729763Y1928686D01*
X20937893Y1424971D01*
X21322944Y1039248D01*
X21826295Y830238D01*
X22371314Y829763D01*
X22875029Y1037893D01*
X23260752Y1422944D01*
X23469762Y1926295D01*
X23469764Y1928686D01*
X24129763Y1928686D01*
X24337893Y1424971D01*
X24722944Y1039248D01*
X25226295Y830238D01*
X25771314Y829763D01*
X26275029Y1037893D01*
X26660752Y1422944D01*
X26869762Y1926295D01*
X26870237Y2471314D01*
X26662107Y2975029D01*
X26277056Y3360752D01*
X25773705Y3569762D01*
X25228686Y3570237D01*
X24724971Y3362107D01*
X24339248Y2977056D01*
X24130238Y2473705D01*
X24129763Y1928686D01*
X23469764Y1928686D01*
X23470237Y2471314D01*
X23262107Y2975029D01*
X22877056Y3360752D01*
X22373705Y3569762D01*
X21828686Y3570237D01*
X21324971Y3362107D01*
X20939248Y2977056D01*
X20730238Y2473705D01*
X20729763Y1928686D01*
X15762073Y1928686D01*
X15957479Y2359346D01*
X15976898Y2943030D01*
X15771471Y3489715D01*
X15716173Y3572476D01*
X15481981Y3669253D01*
X14512728Y2700000D01*
X14487272Y2700000D01*
X13518019Y3669253D01*
X13283827Y3572476D01*
X13042521Y3040654D01*
X13023102Y2456970D01*
X420000Y2456970D01*
X420000Y3681981D01*
X13530747Y3681981D01*
X14500000Y2712728D01*
X15469253Y3681981D01*
X15372476Y3916173D01*
X14840654Y4157479D01*
X14256970Y4176898D01*
X13710285Y3971471D01*
X13627524Y3916173D01*
X13530747Y3681981D01*
X420000Y3681981D01*
X420000Y6420000D01*
X2552752Y6420000D01*
X2552752Y4820000D01*
X2581468Y4675633D01*
X2663245Y4553245D01*
X2785633Y4471468D01*
X2930000Y4442752D01*
X4530000Y4442752D01*
X4674367Y4471468D01*
X4796755Y4553245D01*
X4878532Y4675633D01*
X4907248Y4820000D01*
X4907248Y5388294D01*
X5099797Y5388294D01*
X5277544Y4958114D01*
X5606383Y4628700D01*
X6036252Y4450203D01*
X6501706Y4449797D01*
X6931886Y4627544D01*
X7261300Y4956383D01*
X7439797Y5386252D01*
X7439834Y5428686D01*
X13129763Y5428686D01*
X13337893Y4924971D01*
X13722944Y4539248D01*
X14226295Y4330238D01*
X14771314Y4329763D01*
X15275029Y4537893D01*
X15660752Y4922944D01*
X15869762Y5426295D01*
X15870237Y5971314D01*
X15662107Y6475029D01*
X15277056Y6860752D01*
X14773705Y7069762D01*
X14228686Y7070237D01*
X13724971Y6862107D01*
X13339248Y6477056D01*
X13130238Y5973705D01*
X13129763Y5428686D01*
X7439834Y5428686D01*
X7440203Y5851706D01*
X7262456Y6281886D01*
X6933617Y6611300D01*
X6503748Y6789797D01*
X6038294Y6790203D01*
X5608114Y6612456D01*
X5278700Y6283617D01*
X5100203Y5853748D01*
X5099797Y5388294D01*
X4907248Y5388294D01*
X4907248Y6420000D01*
X4878532Y6564367D01*
X4796755Y6686755D01*
X4674367Y6768532D01*
X4530000Y6797248D01*
X2930000Y6797248D01*
X2785633Y6768532D01*
X2663245Y6686755D01*
X2581468Y6564367D01*
X2552752Y6420000D01*
X420000Y6420000D01*
X420000Y7322214D01*
X2904942Y7322214D01*
X2977386Y7108804D01*
X3436950Y6900809D01*
X3941129Y6884514D01*
X4413164Y7062401D01*
X4482614Y7108804D01*
X4555058Y7322214D01*
X5444942Y7322214D01*
X5517386Y7108804D01*
X5976950Y6900809D01*
X6481129Y6884514D01*
X6953164Y7062401D01*
X7022614Y7108804D01*
X7095058Y7322214D01*
X6270000Y8147272D01*
X5444942Y7322214D01*
X4555058Y7322214D01*
X3730000Y8147272D01*
X2904942Y7322214D01*
X420000Y7322214D01*
X420000Y7948871D01*
X2454514Y7948871D01*
X2632401Y7476836D01*
X2678804Y7407386D01*
X2892214Y7334942D01*
X3717272Y8160000D01*
X3742728Y8160000D01*
X4567786Y7334942D01*
X4781196Y7407386D01*
X4989191Y7866950D01*
X4991838Y7948871D01*
X4994514Y7948871D01*
X5172401Y7476836D01*
X5218804Y7407386D01*
X5432214Y7334942D01*
X6257272Y8160000D01*
X6282728Y8160000D01*
X7107786Y7334942D01*
X7321196Y7407386D01*
X7529191Y7866950D01*
X7545486Y8371129D01*
X7367599Y8843164D01*
X7321196Y8912614D01*
X7107786Y8985058D01*
X6282728Y8160000D01*
X6257272Y8160000D01*
X5432214Y8985058D01*
X5218804Y8912614D01*
X5010809Y8453050D01*
X4994514Y7948871D01*
X4991838Y7948871D01*
X5005486Y8371129D01*
X4827599Y8843164D01*
X4781196Y8912614D01*
X4567786Y8985058D01*
X3742728Y8160000D01*
X3717272Y8160000D01*
X2892214Y8985058D01*
X2678804Y8912614D01*
X2470809Y8453050D01*
X2454514Y7948871D01*
X420000Y7948871D01*
X420000Y8997786D01*
X2904942Y8997786D01*
X3730000Y8172728D01*
X4555058Y8997786D01*
X5444942Y8997786D01*
X6270000Y8172728D01*
X7095058Y8997786D01*
X7022614Y9211196D01*
X6563050Y9419191D01*
X6058871Y9435486D01*
X5586836Y9257599D01*
X5517386Y9211196D01*
X5444942Y8997786D01*
X4555058Y8997786D01*
X4482614Y9211196D01*
X4023050Y9419191D01*
X3518871Y9435486D01*
X3046836Y9257599D01*
X2977386Y9211196D01*
X2904942Y8997786D01*
X420000Y8997786D01*
X420000Y9862214D01*
X2904942Y9862214D01*
X2977386Y9648804D01*
X3436950Y9440809D01*
X3941129Y9424514D01*
X4413164Y9602401D01*
X4482614Y9648804D01*
X4555058Y9862214D01*
X5444942Y9862214D01*
X5517386Y9648804D01*
X5976950Y9440809D01*
X6481129Y9424514D01*
X6953164Y9602401D01*
X7022614Y9648804D01*
X7095058Y9862214D01*
X6270000Y10687272D01*
X5444942Y9862214D01*
X4555058Y9862214D01*
X3730000Y10687272D01*
X2904942Y9862214D01*
X420000Y9862214D01*
X420000Y10488871D01*
X2454514Y10488871D01*
X2632401Y10016836D01*
X2678804Y9947386D01*
X2892214Y9874942D01*
X3717272Y10700000D01*
X3742728Y10700000D01*
X4567786Y9874942D01*
X4781196Y9947386D01*
X4989191Y10406950D01*
X4991838Y10488871D01*
X4994514Y10488871D01*
X5172401Y10016836D01*
X5218804Y9947386D01*
X5432214Y9874942D01*
X6257272Y10700000D01*
X6282728Y10700000D01*
X7107786Y9874942D01*
X7321196Y9947386D01*
X7529191Y10406950D01*
X7545486Y10911129D01*
X7367599Y11383164D01*
X7321196Y11452614D01*
X7107786Y11525058D01*
X6282728Y10700000D01*
X6257272Y10700000D01*
X5432214Y11525058D01*
X5218804Y11452614D01*
X5010809Y10993050D01*
X4994514Y10488871D01*
X4991838Y10488871D01*
X5005486Y10911129D01*
X4827599Y11383164D01*
X4781196Y11452614D01*
X4567786Y11525058D01*
X3742728Y10700000D01*
X3717272Y10700000D01*
X2892214Y11525058D01*
X2678804Y11452614D01*
X2470809Y10993050D01*
X2454514Y10488871D01*
X420000Y10488871D01*
X420000Y11537786D01*
X2904942Y11537786D01*
X3730000Y10712728D01*
X4555058Y11537786D01*
X5444942Y11537786D01*
X6270000Y10712728D01*
X7095058Y11537786D01*
X7022614Y11751196D01*
X6630451Y11928686D01*
X20729763Y11928686D01*
X20937893Y11424971D01*
X21322944Y11039248D01*
X21826295Y10830238D01*
X22371314Y10829763D01*
X22875029Y11037893D01*
X23260752Y11422944D01*
X23469762Y11926295D01*
X23469764Y11928686D01*
X24129763Y11928686D01*
X24337893Y11424971D01*
X24722944Y11039248D01*
X25226295Y10830238D01*
X25771314Y10829763D01*
X26275029Y11037893D01*
X26660752Y11422944D01*
X26869762Y11926295D01*
X26870237Y12471314D01*
X26662107Y12975029D01*
X26277056Y13360752D01*
X25773705Y13569762D01*
X25228686Y13570237D01*
X24724971Y13362107D01*
X24339248Y12977056D01*
X24130238Y12473705D01*
X24129763Y11928686D01*
X23469764Y11928686D01*
X23470237Y12471314D01*
X23262107Y12975029D01*
X22877056Y13360752D01*
X22373705Y13569762D01*
X21828686Y13570237D01*
X21324971Y13362107D01*
X20939248Y12977056D01*
X20730238Y12473705D01*
X20729763Y11928686D01*
X6630451Y11928686D01*
X6563050Y11959191D01*
X6058871Y11975486D01*
X5586836Y11797599D01*
X5517386Y11751196D01*
X5444942Y11537786D01*
X4555058Y11537786D01*
X4482614Y11751196D01*
X4023050Y11959191D01*
X3518871Y11975486D01*
X3046836Y11797599D01*
X2977386Y11751196D01*
X2904942Y11537786D01*
X420000Y11537786D01*
X420000Y12402214D01*
X2904942Y12402214D01*
X2977386Y12188804D01*
X3436950Y11980809D01*
X3941129Y11964514D01*
X4413164Y12142401D01*
X4482614Y12188804D01*
X4555058Y12402214D01*
X5444942Y12402214D01*
X5517386Y12188804D01*
X5976950Y11980809D01*
X6481129Y11964514D01*
X6953164Y12142401D01*
X7022614Y12188804D01*
X7095058Y12402214D01*
X6270000Y13227272D01*
X5444942Y12402214D01*
X4555058Y12402214D01*
X3730000Y13227272D01*
X2904942Y12402214D01*
X420000Y12402214D01*
X420000Y13028871D01*
X2454514Y13028871D01*
X2632401Y12556836D01*
X2678804Y12487386D01*
X2892214Y12414942D01*
X3717272Y13240000D01*
X3742728Y13240000D01*
X4567786Y12414942D01*
X4781196Y12487386D01*
X4989191Y12946950D01*
X4991838Y13028871D01*
X4994514Y13028871D01*
X5172401Y12556836D01*
X5218804Y12487386D01*
X5432214Y12414942D01*
X6257272Y13240000D01*
X6282728Y13240000D01*
X7107786Y12414942D01*
X7321196Y12487386D01*
X7529191Y12946950D01*
X7545486Y13451129D01*
X7516259Y13528686D01*
X13129763Y13528686D01*
X13337893Y13024971D01*
X13722944Y12639248D01*
X14226295Y12430238D01*
X14771314Y12429763D01*
X15275029Y12637893D01*
X15660752Y13022944D01*
X15869762Y13526295D01*
X15870237Y14071314D01*
X15662107Y14575029D01*
X15277056Y14960752D01*
X14773705Y15169762D01*
X14228686Y15170237D01*
X13724971Y14962107D01*
X13339248Y14577056D01*
X13130238Y14073705D01*
X13129763Y13528686D01*
X7516259Y13528686D01*
X7367599Y13923164D01*
X7321196Y13992614D01*
X7107786Y14065058D01*
X6282728Y13240000D01*
X6257272Y13240000D01*
X5432214Y14065058D01*
X5218804Y13992614D01*
X5010809Y13533050D01*
X4994514Y13028871D01*
X4991838Y13028871D01*
X5005486Y13451129D01*
X4827599Y13923164D01*
X4781196Y13992614D01*
X4567786Y14065058D01*
X3742728Y13240000D01*
X3717272Y13240000D01*
X2892214Y14065058D01*
X2678804Y13992614D01*
X2470809Y13533050D01*
X2454514Y13028871D01*
X420000Y13028871D01*
X420000Y14077786D01*
X2904942Y14077786D01*
X3730000Y13252728D01*
X4555058Y14077786D01*
X5444942Y14077786D01*
X6270000Y13252728D01*
X7095058Y14077786D01*
X7022614Y14291196D01*
X6563050Y14499191D01*
X6058871Y14515486D01*
X5586836Y14337599D01*
X5517386Y14291196D01*
X5444942Y14077786D01*
X4555058Y14077786D01*
X4482614Y14291196D01*
X4023050Y14499191D01*
X3518871Y14515486D01*
X3046836Y14337599D01*
X2977386Y14291196D01*
X2904942Y14077786D01*
X420000Y14077786D01*
X420000Y15548294D01*
X2559797Y15548294D01*
X2737544Y15118114D01*
X3066383Y14788700D01*
X3496252Y14610203D01*
X3961706Y14609797D01*
X4391886Y14787544D01*
X4721300Y15116383D01*
X4899797Y15546252D01*
X4899798Y15548294D01*
X5099797Y15548294D01*
X5277544Y15118114D01*
X5606383Y14788700D01*
X6036252Y14610203D01*
X6501706Y14609797D01*
X6931886Y14787544D01*
X7261300Y15116383D01*
X7439797Y15546252D01*
X7440203Y16011706D01*
X7262456Y16441886D01*
X6933617Y16771300D01*
X6747251Y16848686D01*
X9929763Y16848686D01*
X10137893Y16344971D01*
X10522944Y15959248D01*
X11026295Y15750238D01*
X11571314Y15749763D01*
X12075029Y15957893D01*
X12241425Y16124000D01*
X23132000Y16124000D01*
X23132000Y15456909D01*
X23203249Y15284899D01*
X23334899Y15153249D01*
X23506909Y15082000D01*
X24174000Y15082000D01*
X24291000Y15199000D01*
X24291000Y16241000D01*
X24309000Y16241000D01*
X24309000Y15199000D01*
X24426000Y15082000D01*
X25093091Y15082000D01*
X25265101Y15153249D01*
X25396751Y15284899D01*
X25468000Y15456909D01*
X25468000Y16124000D01*
X25351000Y16241000D01*
X24309000Y16241000D01*
X24291000Y16241000D01*
X23249000Y16241000D01*
X23132000Y16124000D01*
X12241425Y16124000D01*
X12460752Y16342944D01*
X12669762Y16846295D01*
X12669867Y16967902D01*
X12929832Y16967902D01*
X13077195Y16611257D01*
X13349822Y16338154D01*
X13706209Y16190169D01*
X14092098Y16189832D01*
X14448743Y16337195D01*
X14721846Y16609822D01*
X14869831Y16966209D01*
X14869898Y17043091D01*
X23132000Y17043091D01*
X23132000Y16376000D01*
X23249000Y16259000D01*
X24291000Y16259000D01*
X24291000Y17301000D01*
X24309000Y17301000D01*
X24309000Y16259000D01*
X25351000Y16259000D01*
X25468000Y16376000D01*
X25468000Y17043091D01*
X25396751Y17215101D01*
X25265101Y17346751D01*
X25093091Y17418000D01*
X24426000Y17418000D01*
X24309000Y17301000D01*
X24291000Y17301000D01*
X24174000Y17418000D01*
X23506909Y17418000D01*
X23334899Y17346751D01*
X23203249Y17215101D01*
X23132000Y17043091D01*
X14869898Y17043091D01*
X14870168Y17352098D01*
X14722805Y17708743D01*
X14450178Y17981846D01*
X14093791Y18129831D01*
X13707902Y18130168D01*
X13351257Y17982805D01*
X13078154Y17710178D01*
X12930169Y17353791D01*
X12929832Y16967902D01*
X12669867Y16967902D01*
X12670237Y17391314D01*
X12462107Y17895029D01*
X12077056Y18280752D01*
X11573705Y18489762D01*
X11028686Y18490237D01*
X10524971Y18282107D01*
X10139248Y17897056D01*
X9930238Y17393705D01*
X9929763Y16848686D01*
X6747251Y16848686D01*
X6503748Y16949797D01*
X6038294Y16950203D01*
X5608114Y16772456D01*
X5278700Y16443617D01*
X5100203Y16013748D01*
X5099797Y15548294D01*
X4899798Y15548294D01*
X4900203Y16011706D01*
X4722456Y16441886D01*
X4393617Y16771300D01*
X3963748Y16949797D01*
X3498294Y16950203D01*
X3068114Y16772456D01*
X2738700Y16443617D01*
X2560203Y16013748D01*
X2559797Y15548294D01*
X420000Y15548294D01*
X420000Y19150000D01*
X16722752Y19150000D01*
X16722752Y17750000D01*
X16751468Y17605633D01*
X16833245Y17483245D01*
X16955633Y17401468D01*
X17100000Y17372752D01*
X18500000Y17372752D01*
X18644367Y17401468D01*
X18766755Y17483245D01*
X18848532Y17605633D01*
X18877248Y17750000D01*
X18877248Y18538098D01*
X23229814Y18538098D01*
X23392369Y18144685D01*
X23693102Y17843427D01*
X24086230Y17680186D01*
X24511902Y17679814D01*
X24905315Y17842369D01*
X25206573Y18143102D01*
X25369814Y18536230D01*
X25370186Y18961902D01*
X25207631Y19355315D01*
X24906898Y19656573D01*
X24513770Y19819814D01*
X24088098Y19820186D01*
X23694685Y19657631D01*
X23393427Y19356898D01*
X23230186Y18963770D01*
X23229814Y18538098D01*
X18877248Y18538098D01*
X18877248Y19150000D01*
X18848532Y19294367D01*
X18766755Y19416755D01*
X18644367Y19498532D01*
X18500000Y19527248D01*
X17100000Y19527248D01*
X16955633Y19498532D01*
X16833245Y19416755D01*
X16751468Y19294367D01*
X16722752Y19150000D01*
X420000Y19150000D01*
X420000Y20184314D01*
X17047042Y20184314D01*
X17107318Y19981293D01*
X17530753Y19789954D01*
X17995178Y19775221D01*
X18429890Y19939337D01*
X18492682Y19981293D01*
X18552958Y20184314D01*
X17800000Y20937272D01*
X17047042Y20184314D01*
X420000Y20184314D01*
X420000Y20754822D01*
X16625221Y20754822D01*
X16789337Y20320110D01*
X16831293Y20257318D01*
X17034314Y20197042D01*
X17787272Y20950000D01*
X17812728Y20950000D01*
X18565686Y20197042D01*
X18768707Y20257318D01*
X18960046Y20680753D01*
X18974779Y21145178D01*
X18810663Y21579890D01*
X18768707Y21642682D01*
X18565686Y21702958D01*
X17812728Y20950000D01*
X17787272Y20950000D01*
X17034314Y21702958D01*
X16831293Y21642682D01*
X16639954Y21219247D01*
X16625221Y20754822D01*
X420000Y20754822D01*
X420000Y21546412D01*
X13219140Y21546412D01*
X13267250Y21353783D01*
X13654555Y21179099D01*
X14079228Y21165927D01*
X14476614Y21316274D01*
X14532750Y21353783D01*
X14580860Y21546412D01*
X13900000Y22227272D01*
X13219140Y21546412D01*
X420000Y21546412D01*
X420000Y22718294D01*
X2079797Y22718294D01*
X2257544Y22288114D01*
X2586383Y21958700D01*
X3016252Y21780203D01*
X3481706Y21779797D01*
X3911886Y21957544D01*
X4241300Y22286383D01*
X4419797Y22716252D01*
X4419798Y22718294D01*
X6179797Y22718294D01*
X6357544Y22288114D01*
X6686383Y21958700D01*
X7116252Y21780203D01*
X7581706Y21779797D01*
X8011886Y21957544D01*
X8115294Y22060772D01*
X12825927Y22060772D01*
X12976274Y21663386D01*
X13013783Y21607250D01*
X13206412Y21559140D01*
X13887272Y22240000D01*
X13912728Y22240000D01*
X14593588Y21559140D01*
X14786217Y21607250D01*
X14835124Y21715686D01*
X17047042Y21715686D01*
X17800000Y20962728D01*
X18552958Y21715686D01*
X18495890Y21907902D01*
X20789832Y21907902D01*
X20937195Y21551257D01*
X21209822Y21278154D01*
X21566209Y21130169D01*
X21952098Y21129832D01*
X22308743Y21277195D01*
X22438185Y21406412D01*
X26159140Y21406412D01*
X26207250Y21213783D01*
X26594555Y21039099D01*
X27019228Y21025927D01*
X27416614Y21176274D01*
X27472750Y21213783D01*
X27520860Y21406412D01*
X26840000Y22087272D01*
X26159140Y21406412D01*
X22438185Y21406412D01*
X22581846Y21549822D01*
X22729831Y21906209D01*
X22729843Y21920772D01*
X25765927Y21920772D01*
X25916274Y21523386D01*
X25953783Y21467250D01*
X26146412Y21419140D01*
X26827272Y22100000D01*
X26852728Y22100000D01*
X27533588Y21419140D01*
X27726217Y21467250D01*
X27900901Y21854555D01*
X27914073Y22279228D01*
X27763726Y22676614D01*
X27726217Y22732750D01*
X27533588Y22780860D01*
X26852728Y22100000D01*
X26827272Y22100000D01*
X26146412Y22780860D01*
X25953783Y22732750D01*
X25779099Y22345445D01*
X25765927Y21920772D01*
X22729843Y21920772D01*
X22730168Y22292098D01*
X22582805Y22648743D01*
X22438213Y22793588D01*
X26159140Y22793588D01*
X26840000Y22112728D01*
X27520860Y22793588D01*
X27472750Y22986217D01*
X27085445Y23160901D01*
X26660772Y23174073D01*
X26263386Y23023726D01*
X26207250Y22986217D01*
X26159140Y22793588D01*
X22438213Y22793588D01*
X22310178Y22921846D01*
X21953791Y23069831D01*
X21567902Y23070168D01*
X21211257Y22922805D01*
X20938154Y22650178D01*
X20790169Y22293791D01*
X20789832Y21907902D01*
X18495890Y21907902D01*
X18492682Y21918707D01*
X18069247Y22110046D01*
X17604822Y22124779D01*
X17170110Y21960663D01*
X17107318Y21918707D01*
X17047042Y21715686D01*
X14835124Y21715686D01*
X14960901Y21994555D01*
X14974073Y22419228D01*
X14823726Y22816614D01*
X14786217Y22872750D01*
X14593588Y22920860D01*
X13912728Y22240000D01*
X13887272Y22240000D01*
X13206412Y22920860D01*
X13013783Y22872750D01*
X12839099Y22485445D01*
X12825927Y22060772D01*
X8115294Y22060772D01*
X8341300Y22286383D01*
X8519797Y22716252D01*
X8519986Y22933588D01*
X13219140Y22933588D01*
X13900000Y22252728D01*
X14580860Y22933588D01*
X14532750Y23126217D01*
X14145445Y23300901D01*
X13720772Y23314073D01*
X13323386Y23163726D01*
X13267250Y23126217D01*
X13219140Y22933588D01*
X8519986Y22933588D01*
X8520203Y23181706D01*
X8342456Y23611886D01*
X8013617Y23941300D01*
X7583748Y24119797D01*
X7118294Y24120203D01*
X6688114Y23942456D01*
X6358700Y23613617D01*
X6180203Y23183748D01*
X6179797Y22718294D01*
X4419798Y22718294D01*
X4420203Y23181706D01*
X4242456Y23611886D01*
X3913617Y23941300D01*
X3483748Y24119797D01*
X3018294Y24120203D01*
X2588114Y23942456D01*
X2258700Y23613617D01*
X2080203Y23183748D01*
X2079797Y22718294D01*
X420000Y22718294D01*
X420000Y24528686D01*
X12949763Y24528686D01*
X13157893Y24024971D01*
X13542944Y23639248D01*
X14046295Y23430238D01*
X14591314Y23429763D01*
X15095029Y23637893D01*
X15480752Y24022944D01*
X15689762Y24526295D01*
X15689764Y24528686D01*
X23109763Y24528686D01*
X23317893Y24024971D01*
X23702944Y23639248D01*
X24206295Y23430238D01*
X24751314Y23429763D01*
X25255029Y23637893D01*
X25640752Y24022944D01*
X25849762Y24526295D01*
X25850237Y25071314D01*
X25642107Y25575029D01*
X25257056Y25960752D01*
X24753705Y26169762D01*
X24208686Y26170237D01*
X23704971Y25962107D01*
X23319248Y25577056D01*
X23110238Y25073705D01*
X23109763Y24528686D01*
X15689764Y24528686D01*
X15690237Y25071314D01*
X15482107Y25575029D01*
X15097056Y25960752D01*
X14593705Y26169762D01*
X14048686Y26170237D01*
X13544971Y25962107D01*
X13159248Y25577056D01*
X12950238Y25073705D01*
X12949763Y24528686D01*
X420000Y24528686D01*
X420000Y27818294D01*
X2979797Y27818294D01*
X3157544Y27388114D01*
X3486383Y27058700D01*
X3916252Y26880203D01*
X4381706Y26879797D01*
X4811886Y27057544D01*
X5141300Y27386383D01*
X5319797Y27816252D01*
X5319798Y27818294D01*
X7079797Y27818294D01*
X7257544Y27388114D01*
X7586383Y27058700D01*
X8016252Y26880203D01*
X8481706Y26879797D01*
X8793640Y27008686D01*
X9929763Y27008686D01*
X10137893Y26504971D01*
X10522944Y26119248D01*
X11026295Y25910238D01*
X11571314Y25909763D01*
X12075029Y26117893D01*
X12460752Y26502944D01*
X12669762Y27006295D01*
X12670237Y27551314D01*
X12462107Y28055029D01*
X12077056Y28440752D01*
X11573705Y28649762D01*
X11028686Y28650237D01*
X10524971Y28442107D01*
X10139248Y28057056D01*
X9930238Y27553705D01*
X9929763Y27008686D01*
X8793640Y27008686D01*
X8911886Y27057544D01*
X9241300Y27386383D01*
X9419797Y27816252D01*
X9420203Y28281706D01*
X9242456Y28711886D01*
X8913617Y29041300D01*
X8483748Y29219797D01*
X8018294Y29220203D01*
X7588114Y29042456D01*
X7258700Y28713617D01*
X7080203Y28283748D01*
X7079797Y27818294D01*
X5319798Y27818294D01*
X5320203Y28281706D01*
X5142456Y28711886D01*
X4813617Y29041300D01*
X4383748Y29219797D01*
X3918294Y29220203D01*
X3488114Y29042456D01*
X3158700Y28713617D01*
X2980203Y28283748D01*
X2979797Y27818294D01*
X420000Y27818294D01*
X420000Y30812214D01*
X674942Y30812214D01*
X747386Y30598804D01*
X1206950Y30390809D01*
X1711129Y30374514D01*
X2173306Y30548686D01*
X3629763Y30548686D01*
X3837893Y30044971D01*
X4222944Y29659248D01*
X4726295Y29450238D01*
X5271314Y29449763D01*
X5775029Y29657893D01*
X6160752Y30042944D01*
X6369762Y30546295D01*
X6369764Y30548686D01*
X6829763Y30548686D01*
X7037893Y30044971D01*
X7422944Y29659248D01*
X7926295Y29450238D01*
X8471314Y29449763D01*
X8975029Y29657893D01*
X9360752Y30042944D01*
X9569762Y30546295D01*
X9570237Y31091314D01*
X9362107Y31595029D01*
X8977056Y31980752D01*
X8473705Y32189762D01*
X7928686Y32190237D01*
X7424971Y31982107D01*
X7039248Y31597056D01*
X6830238Y31093705D01*
X6829763Y30548686D01*
X6369764Y30548686D01*
X6370237Y31091314D01*
X6162107Y31595029D01*
X5777056Y31980752D01*
X5273705Y32189762D01*
X4728686Y32190237D01*
X4224971Y31982107D01*
X3839248Y31597056D01*
X3630238Y31093705D01*
X3629763Y30548686D01*
X2173306Y30548686D01*
X2183164Y30552401D01*
X2252614Y30598804D01*
X2325058Y30812214D01*
X1500000Y31637272D01*
X674942Y30812214D01*
X420000Y30812214D01*
X420000Y30940496D01*
X448804Y30897386D01*
X662214Y30824942D01*
X1487272Y31650000D01*
X1512728Y31650000D01*
X2337786Y30824942D01*
X2551196Y30897386D01*
X2759191Y31356950D01*
X2775486Y31861129D01*
X2597599Y32333164D01*
X2551196Y32402614D01*
X2337786Y32475058D01*
X1512728Y31650000D01*
X1487272Y31650000D01*
X662214Y32475058D01*
X448804Y32402614D01*
X420000Y32338972D01*
X420000Y32487786D01*
X674942Y32487786D01*
X1500000Y31662728D01*
X2325058Y32487786D01*
X2311175Y32528686D01*
X10349763Y32528686D01*
X10557893Y32024971D01*
X10942944Y31639248D01*
X11446295Y31430238D01*
X11991314Y31429763D01*
X12495029Y31637893D01*
X12880752Y32022944D01*
X13089762Y32526295D01*
X13090237Y33071314D01*
X12882107Y33575029D01*
X12497056Y33960752D01*
X11993705Y34169762D01*
X11448686Y34170237D01*
X10944971Y33962107D01*
X10559248Y33577056D01*
X10350238Y33073705D01*
X10349763Y32528686D01*
X2311175Y32528686D01*
X2252614Y32701196D01*
X1793050Y32909191D01*
X1288871Y32925486D01*
X816836Y32747599D01*
X747386Y32701196D01*
X674942Y32487786D01*
X420000Y32487786D01*
X420000Y33739986D01*
X507544Y33528114D01*
X836383Y33198700D01*
X1266252Y33020203D01*
X1731706Y33019797D01*
X2161886Y33197544D01*
X2491300Y33526383D01*
X2669797Y33956252D01*
X2670203Y34421706D01*
X2550000Y34712619D01*
X2550000Y36207748D01*
X2669797Y36496252D01*
X2669905Y36620772D01*
X13390927Y36620772D01*
X13541274Y36223386D01*
X13578783Y36167250D01*
X13771412Y36119140D01*
X14452272Y36800000D01*
X13771412Y37480860D01*
X13578783Y37432750D01*
X13404099Y37045445D01*
X13390927Y36620772D01*
X2669905Y36620772D01*
X2670203Y36961706D01*
X2492456Y37391886D01*
X2390932Y37493588D01*
X13784140Y37493588D01*
X14465000Y36812728D01*
X14479142Y36826870D01*
X14491870Y36814142D01*
X14477728Y36800000D01*
X14491870Y36785858D01*
X14479142Y36773130D01*
X14465000Y36787272D01*
X13784140Y36106412D01*
X13832250Y35913783D01*
X14219555Y35739099D01*
X14644228Y35725927D01*
X14788762Y35780610D01*
X14765169Y35723791D01*
X14764832Y35337902D01*
X14912195Y34981257D01*
X15184822Y34708154D01*
X15541209Y34560169D01*
X15927098Y34559832D01*
X16283743Y34707195D01*
X16544905Y34967902D01*
X17529832Y34967902D01*
X17677195Y34611257D01*
X17949822Y34338154D01*
X18306209Y34190169D01*
X18692098Y34189832D01*
X19048743Y34337195D01*
X19321846Y34609822D01*
X19469831Y34966209D01*
X19470082Y35253270D01*
X19597812Y35381000D01*
X20887237Y35381000D01*
X20904544Y35339114D01*
X21233383Y35009700D01*
X21260000Y34998648D01*
X21260000Y34026163D01*
X21104971Y33962107D01*
X20719248Y33577056D01*
X20510238Y33073705D01*
X20509763Y32528686D01*
X20717893Y32024971D01*
X21102944Y31639248D01*
X21606295Y31430238D01*
X22151314Y31429763D01*
X22655029Y31637893D01*
X23040752Y32022944D01*
X23249762Y32526295D01*
X23250237Y33071314D01*
X23042107Y33575029D01*
X22657056Y33960752D01*
X22500000Y34025967D01*
X22500000Y34984213D01*
X22558886Y35008544D01*
X22888300Y35337383D01*
X23066797Y35767252D01*
X23067203Y36232706D01*
X22889456Y36662886D01*
X22560617Y36992300D01*
X22130748Y37170797D01*
X21665294Y37171203D01*
X21235114Y36993456D01*
X20905700Y36664617D01*
X20887589Y36621000D01*
X19341000Y36621000D01*
X19103737Y36573806D01*
X18902594Y36439406D01*
X18593107Y36129919D01*
X18307902Y36130168D01*
X17951257Y35982805D01*
X17678154Y35710178D01*
X17530169Y35353791D01*
X17529832Y34967902D01*
X16544905Y34967902D01*
X16556846Y34979822D01*
X16704831Y35336209D01*
X16705168Y35722098D01*
X16557805Y36078743D01*
X16285178Y36351846D01*
X16050000Y36449501D01*
X16050000Y37150614D01*
X16283743Y37247195D01*
X16556846Y37519822D01*
X16704831Y37876209D01*
X16705168Y38262098D01*
X16634878Y38432214D01*
X26674942Y38432214D01*
X26747386Y38218804D01*
X27206950Y38010809D01*
X27711129Y37994514D01*
X28183164Y38172401D01*
X28252614Y38218804D01*
X28325058Y38432214D01*
X27500000Y39257272D01*
X26674942Y38432214D01*
X16634878Y38432214D01*
X16557805Y38618743D01*
X16285178Y38891846D01*
X15928791Y39039831D01*
X15542902Y39040168D01*
X15186257Y38892805D01*
X14913154Y38620178D01*
X14765169Y38263791D01*
X14764832Y37877902D01*
X14785923Y37826859D01*
X14710445Y37860901D01*
X14285772Y37874073D01*
X13888386Y37723726D01*
X13832250Y37686217D01*
X13784140Y37493588D01*
X2390932Y37493588D01*
X2163617Y37721300D01*
X1733748Y37899797D01*
X1268294Y37900203D01*
X838114Y37722456D01*
X508700Y37393617D01*
X420000Y37180003D01*
X420000Y38432214D01*
X674942Y38432214D01*
X747386Y38218804D01*
X1206950Y38010809D01*
X1711129Y37994514D01*
X2183164Y38172401D01*
X2252614Y38218804D01*
X2325058Y38432214D01*
X1500000Y39257272D01*
X674942Y38432214D01*
X420000Y38432214D01*
X420000Y38560496D01*
X448804Y38517386D01*
X662214Y38444942D01*
X1487272Y39270000D01*
X1512728Y39270000D01*
X2337786Y38444942D01*
X2551196Y38517386D01*
X2759191Y38976950D01*
X2761838Y39058871D01*
X26224514Y39058871D01*
X26402401Y38586836D01*
X26448804Y38517386D01*
X26662214Y38444942D01*
X27487272Y39270000D01*
X26662214Y40095058D01*
X26448804Y40022614D01*
X26240809Y39563050D01*
X26224514Y39058871D01*
X2761838Y39058871D01*
X2775486Y39481129D01*
X2597599Y39953164D01*
X2567630Y39998019D01*
X4030747Y39998019D01*
X4127524Y39763827D01*
X4659346Y39522521D01*
X5243030Y39503102D01*
X5789715Y39708529D01*
X5872476Y39763827D01*
X5969253Y39998019D01*
X7230747Y39998019D01*
X7327524Y39763827D01*
X7859346Y39522521D01*
X8443030Y39503102D01*
X8989715Y39708529D01*
X9072476Y39763827D01*
X9169253Y39998019D01*
X9159370Y40007902D01*
X10389832Y40007902D01*
X10537195Y39651257D01*
X10809822Y39378154D01*
X11166209Y39230169D01*
X11552098Y39229832D01*
X11908743Y39377195D01*
X12038185Y39506412D01*
X15759140Y39506412D01*
X15807250Y39313783D01*
X16194555Y39139099D01*
X16619228Y39125927D01*
X17016614Y39276274D01*
X17072750Y39313783D01*
X17120860Y39506412D01*
X16440000Y40187272D01*
X15759140Y39506412D01*
X12038185Y39506412D01*
X12181846Y39649822D01*
X12329831Y40006209D01*
X12329843Y40020772D01*
X15365927Y40020772D01*
X15516274Y39623386D01*
X15553783Y39567250D01*
X15746412Y39519140D01*
X16427272Y40200000D01*
X16452728Y40200000D01*
X17133588Y39519140D01*
X17242783Y39546412D01*
X17819140Y39546412D01*
X17867250Y39353783D01*
X18254555Y39179099D01*
X18679228Y39165927D01*
X19076614Y39316274D01*
X19132750Y39353783D01*
X19180860Y39546412D01*
X18500000Y40227272D01*
X17819140Y39546412D01*
X17242783Y39546412D01*
X17326217Y39567250D01*
X17481983Y39912610D01*
X17576274Y39663386D01*
X17613783Y39607250D01*
X17806412Y39559140D01*
X18487272Y40240000D01*
X18512728Y40240000D01*
X19193588Y39559140D01*
X19386217Y39607250D01*
X19560901Y39994555D01*
X19564413Y40107786D01*
X26674942Y40107786D01*
X27500000Y39282728D01*
X28325058Y40107786D01*
X28252614Y40321196D01*
X27793050Y40529191D01*
X27288871Y40545486D01*
X26816836Y40367599D01*
X26747386Y40321196D01*
X26674942Y40107786D01*
X19564413Y40107786D01*
X19574073Y40419228D01*
X19423726Y40816614D01*
X19386217Y40872750D01*
X19193588Y40920860D01*
X18512728Y40240000D01*
X18487272Y40240000D01*
X17806412Y40920860D01*
X17613783Y40872750D01*
X17458017Y40527390D01*
X17363726Y40776614D01*
X17326217Y40832750D01*
X17133588Y40880860D01*
X16452728Y40200000D01*
X16427272Y40200000D01*
X15746412Y40880860D01*
X15553783Y40832750D01*
X15379099Y40445445D01*
X15365927Y40020772D01*
X12329843Y40020772D01*
X12330168Y40392098D01*
X12182805Y40748743D01*
X12038213Y40893588D01*
X15759140Y40893588D01*
X16440000Y40212728D01*
X17120860Y40893588D01*
X17110870Y40933588D01*
X17819140Y40933588D01*
X18500000Y40252728D01*
X19180860Y40933588D01*
X19132750Y41126217D01*
X18745445Y41300901D01*
X18320772Y41314073D01*
X17923386Y41163726D01*
X17867250Y41126217D01*
X17819140Y40933588D01*
X17110870Y40933588D01*
X17072750Y41086217D01*
X16685445Y41260901D01*
X16260772Y41274073D01*
X15863386Y41123726D01*
X15807250Y41086217D01*
X15759140Y40893588D01*
X12038213Y40893588D01*
X11910178Y41021846D01*
X11553791Y41169831D01*
X11167902Y41170168D01*
X10811257Y41022805D01*
X10538154Y40750178D01*
X10390169Y40393791D01*
X10389832Y40007902D01*
X9159370Y40007902D01*
X8200000Y40967272D01*
X7230747Y39998019D01*
X5969253Y39998019D01*
X5000000Y40967272D01*
X4030747Y39998019D01*
X2567630Y39998019D01*
X2551196Y40022614D01*
X2337786Y40095058D01*
X1512728Y39270000D01*
X1487272Y39270000D01*
X662214Y40095058D01*
X448804Y40022614D01*
X420000Y39958972D01*
X420000Y40107786D01*
X674942Y40107786D01*
X1500000Y39282728D01*
X2325058Y40107786D01*
X2252614Y40321196D01*
X1793050Y40529191D01*
X1288871Y40545486D01*
X816836Y40367599D01*
X747386Y40321196D01*
X674942Y40107786D01*
X420000Y40107786D01*
X420000Y41359986D01*
X507544Y41148114D01*
X836383Y40818700D01*
X1266252Y40640203D01*
X1731706Y40639797D01*
X1966882Y40736970D01*
X3523102Y40736970D01*
X3728529Y40190285D01*
X3783827Y40107524D01*
X4018019Y40010747D01*
X4987272Y40980000D01*
X5012728Y40980000D01*
X5981981Y40010747D01*
X6216173Y40107524D01*
X6457479Y40639346D01*
X6460726Y40736970D01*
X6723102Y40736970D01*
X6928529Y40190285D01*
X6983827Y40107524D01*
X7218019Y40010747D01*
X8187272Y40980000D01*
X8212728Y40980000D01*
X9181981Y40010747D01*
X9416173Y40107524D01*
X9657479Y40639346D01*
X9676898Y41223030D01*
X9471471Y41769715D01*
X9416173Y41852476D01*
X9181981Y41949253D01*
X8212728Y40980000D01*
X8187272Y40980000D01*
X7218019Y41949253D01*
X6983827Y41852476D01*
X6742521Y41320654D01*
X6723102Y40736970D01*
X6460726Y40736970D01*
X6476898Y41223030D01*
X6271471Y41769715D01*
X6216173Y41852476D01*
X5981981Y41949253D01*
X5012728Y40980000D01*
X4987272Y40980000D01*
X4018019Y41949253D01*
X3783827Y41852476D01*
X3542521Y41320654D01*
X3523102Y40736970D01*
X1966882Y40736970D01*
X2161886Y40817544D01*
X2491300Y41146383D01*
X2669797Y41576252D01*
X2670133Y41961981D01*
X4030747Y41961981D01*
X5000000Y40992728D01*
X5969253Y41961981D01*
X7230747Y41961981D01*
X8200000Y40992728D01*
X9169253Y41961981D01*
X9086510Y42162214D01*
X11174942Y42162214D01*
X11247386Y41948804D01*
X11706950Y41740809D01*
X12211129Y41724514D01*
X12683164Y41902401D01*
X12752614Y41948804D01*
X12825058Y42162214D01*
X12000000Y42987272D01*
X11174942Y42162214D01*
X9086510Y42162214D01*
X9072476Y42196173D01*
X8540654Y42437479D01*
X7956970Y42456898D01*
X7410285Y42251471D01*
X7327524Y42196173D01*
X7230747Y41961981D01*
X5969253Y41961981D01*
X5872476Y42196173D01*
X5340654Y42437479D01*
X4756970Y42456898D01*
X4210285Y42251471D01*
X4127524Y42196173D01*
X4030747Y41961981D01*
X2670133Y41961981D01*
X2670203Y42041706D01*
X2650000Y42090601D01*
X2650000Y42788871D01*
X10724514Y42788871D01*
X10902401Y42316836D01*
X10948804Y42247386D01*
X11162214Y42174942D01*
X11987272Y43000000D01*
X12012728Y43000000D01*
X12837786Y42174942D01*
X13051196Y42247386D01*
X13259191Y42706950D01*
X13261173Y42768294D01*
X13329797Y42768294D01*
X13507544Y42338114D01*
X13836383Y42008700D01*
X14266252Y41830203D01*
X14731706Y41829797D01*
X15161886Y42007544D01*
X15491300Y42336383D01*
X15669797Y42766252D01*
X15669798Y42768294D01*
X15829797Y42768294D01*
X16007544Y42338114D01*
X16336383Y42008700D01*
X16766252Y41830203D01*
X17231706Y41829797D01*
X17661886Y42007544D01*
X17991300Y42336383D01*
X18169797Y42766252D01*
X18170203Y43231706D01*
X17992456Y43661886D01*
X17663617Y43991300D01*
X17233748Y44169797D01*
X16768294Y44170203D01*
X16338114Y43992456D01*
X16008700Y43663617D01*
X15830203Y43233748D01*
X15829797Y42768294D01*
X15669798Y42768294D01*
X15670203Y43231706D01*
X15492456Y43661886D01*
X15163617Y43991300D01*
X14733748Y44169797D01*
X14268294Y44170203D01*
X13838114Y43992456D01*
X13508700Y43663617D01*
X13330203Y43233748D01*
X13329797Y42768294D01*
X13261173Y42768294D01*
X13275486Y43211129D01*
X13097599Y43683164D01*
X13051196Y43752614D01*
X12837786Y43825058D01*
X12012728Y43000000D01*
X11987272Y43000000D01*
X11162214Y43825058D01*
X10948804Y43752614D01*
X10740809Y43293050D01*
X10724514Y42788871D01*
X2650000Y42788871D01*
X2650000Y43413013D01*
X2677248Y43550000D01*
X2677248Y45150000D01*
X2648532Y45294367D01*
X2566755Y45416755D01*
X2444367Y45498532D01*
X2300000Y45527248D01*
X700000Y45527248D01*
X555633Y45498532D01*
X433245Y45416755D01*
X420000Y45396932D01*
X420000Y49237607D01*
X8379858Y49237607D01*
X8504432Y48936114D01*
X8680000Y48760240D01*
X8680000Y46039552D01*
X8505243Y45865099D01*
X8380142Y45563824D01*
X8379858Y45237607D01*
X8504432Y44936114D01*
X8734901Y44705243D01*
X9036176Y44580142D01*
X9362393Y44579858D01*
X9561710Y44662214D01*
X11174942Y44662214D01*
X11247386Y44448804D01*
X11702363Y44242885D01*
X11316836Y44097599D01*
X11247386Y44051196D01*
X11174942Y43837786D01*
X12000000Y43012728D01*
X12825058Y43837786D01*
X12752614Y44051196D01*
X12297637Y44257115D01*
X12683164Y44402401D01*
X12752614Y44448804D01*
X12825058Y44662214D01*
X12000000Y45487272D01*
X11174942Y44662214D01*
X9561710Y44662214D01*
X9663886Y44704432D01*
X9894757Y44934901D01*
X10019858Y45236176D01*
X10019903Y45288871D01*
X10724514Y45288871D01*
X10902401Y44816836D01*
X10948804Y44747386D01*
X11162214Y44674942D01*
X11987272Y45500000D01*
X12012728Y45500000D01*
X12837786Y44674942D01*
X13051196Y44747386D01*
X13259191Y45206950D01*
X13261173Y45268294D01*
X13329797Y45268294D01*
X13507544Y44838114D01*
X13836383Y44508700D01*
X14266252Y44330203D01*
X14731706Y44329797D01*
X15161886Y44507544D01*
X15491300Y44836383D01*
X15669797Y45266252D01*
X15669798Y45268294D01*
X15829797Y45268294D01*
X16007544Y44838114D01*
X16336383Y44508700D01*
X16766252Y44330203D01*
X17231706Y44329797D01*
X17661886Y44507544D01*
X17991300Y44836383D01*
X18169797Y45266252D01*
X18170203Y45731706D01*
X17992456Y46161886D01*
X17663617Y46491300D01*
X17233748Y46669797D01*
X16768294Y46670203D01*
X16338114Y46492456D01*
X16008700Y46163617D01*
X15830203Y45733748D01*
X15829797Y45268294D01*
X15669798Y45268294D01*
X15670203Y45731706D01*
X15492456Y46161886D01*
X15163617Y46491300D01*
X14733748Y46669797D01*
X14268294Y46670203D01*
X13838114Y46492456D01*
X13508700Y46163617D01*
X13330203Y45733748D01*
X13329797Y45268294D01*
X13261173Y45268294D01*
X13275486Y45711129D01*
X13097599Y46183164D01*
X13051196Y46252614D01*
X12837786Y46325058D01*
X12012728Y45500000D01*
X11987272Y45500000D01*
X11162214Y46325058D01*
X10948804Y46252614D01*
X10740809Y45793050D01*
X10724514Y45288871D01*
X10019903Y45288871D01*
X10020142Y45562393D01*
X9895568Y45863886D01*
X9720000Y46039760D01*
X9720000Y46337786D01*
X11174942Y46337786D01*
X12000000Y45512728D01*
X12825058Y46337786D01*
X12752614Y46551196D01*
X12293050Y46759191D01*
X11788871Y46775486D01*
X11316836Y46597599D01*
X11247386Y46551196D01*
X11174942Y46337786D01*
X9720000Y46337786D01*
X9720000Y46818294D01*
X20726797Y46818294D01*
X20904544Y46388114D01*
X21233383Y46058700D01*
X21663252Y45880203D01*
X22128706Y45879797D01*
X22558886Y46057544D01*
X22888300Y46386383D01*
X22976497Y46598784D01*
X23063544Y46388114D01*
X23392383Y46058700D01*
X23822252Y45880203D01*
X24287706Y45879797D01*
X24717886Y46057544D01*
X25047300Y46386383D01*
X25136262Y46600628D01*
X25207544Y46428114D01*
X25536383Y46098700D01*
X25966252Y45920203D01*
X26431706Y45919797D01*
X26861886Y46097544D01*
X27191300Y46426383D01*
X27369797Y46856252D01*
X27370203Y47321706D01*
X27192456Y47751886D01*
X26863617Y48081300D01*
X26433748Y48259797D01*
X25968294Y48260203D01*
X25538114Y48082456D01*
X25208700Y47753617D01*
X25119738Y47539372D01*
X25048456Y47711886D01*
X24719617Y48041300D01*
X24289748Y48219797D01*
X23824294Y48220203D01*
X23394114Y48042456D01*
X23064700Y47713617D01*
X22976503Y47501216D01*
X22889456Y47711886D01*
X22560617Y48041300D01*
X22130748Y48219797D01*
X21665294Y48220203D01*
X21235114Y48042456D01*
X20905700Y47713617D01*
X20727203Y47283748D01*
X20726797Y46818294D01*
X9720000Y46818294D01*
X9720000Y48760448D01*
X9894757Y48934901D01*
X10019858Y49236176D01*
X10020142Y49562393D01*
X9895568Y49863886D01*
X9665099Y50094757D01*
X9363824Y50219858D01*
X9037607Y50220142D01*
X8736114Y50095568D01*
X8505243Y49865099D01*
X8380142Y49563824D01*
X8379858Y49237607D01*
X420000Y49237607D01*
X420000Y52991000D01*
X8032000Y52991000D01*
X8032000Y52491000D01*
X8147189Y51929906D01*
X8468331Y51455603D01*
X8946536Y51140300D01*
X9261469Y51051509D01*
X9491000Y51149030D01*
X9491000Y52991000D01*
X9509000Y52991000D01*
X9509000Y51149030D01*
X9738531Y51051509D01*
X10053464Y51140300D01*
X10531669Y51455603D01*
X10852811Y51929906D01*
X10968000Y52491000D01*
X10968000Y52991000D01*
X18032000Y52991000D01*
X18032000Y52491000D01*
X18147189Y51929906D01*
X18468331Y51455603D01*
X18946536Y51140300D01*
X19261469Y51051509D01*
X19491000Y51149030D01*
X19491000Y52991000D01*
X19509000Y52991000D01*
X19509000Y51149030D01*
X19738531Y51051509D01*
X20053464Y51140300D01*
X20531669Y51455603D01*
X20852811Y51929906D01*
X20968000Y52491000D01*
X20968000Y52991000D01*
X19509000Y52991000D01*
X19491000Y52991000D01*
X18032000Y52991000D01*
X10968000Y52991000D01*
X9509000Y52991000D01*
X9491000Y52991000D01*
X8032000Y52991000D01*
X420000Y52991000D01*
X420000Y53509000D01*
X8032000Y53509000D01*
X8032000Y53009000D01*
X9491000Y53009000D01*
X9491000Y54850970D01*
X9509000Y54850970D01*
X9509000Y53009000D01*
X10968000Y53009000D01*
X10968000Y53509000D01*
X18032000Y53509000D01*
X18032000Y53009000D01*
X19491000Y53009000D01*
X19491000Y54850970D01*
X19509000Y54850970D01*
X19509000Y53009000D01*
X20968000Y53009000D01*
X20968000Y53509000D01*
X20852811Y54070094D01*
X20603510Y54438294D01*
X20726797Y54438294D01*
X20904544Y54008114D01*
X21233383Y53678700D01*
X21663252Y53500203D01*
X22128706Y53499797D01*
X22558886Y53677544D01*
X22888300Y54006383D01*
X22976497Y54218784D01*
X23063544Y54008114D01*
X23392383Y53678700D01*
X23822252Y53500203D01*
X24287706Y53499797D01*
X24717886Y53677544D01*
X25047300Y54006383D01*
X25136262Y54220628D01*
X25207544Y54048114D01*
X25536383Y53718700D01*
X25966252Y53540203D01*
X26431706Y53539797D01*
X26861886Y53717544D01*
X27191300Y54046383D01*
X27369797Y54476252D01*
X27370203Y54941706D01*
X27192456Y55371886D01*
X26863617Y55701300D01*
X26433748Y55879797D01*
X25968294Y55880203D01*
X25538114Y55702456D01*
X25208700Y55373617D01*
X25119738Y55159372D01*
X25048456Y55331886D01*
X24719617Y55661300D01*
X24289748Y55839797D01*
X23824294Y55840203D01*
X23394114Y55662456D01*
X23064700Y55333617D01*
X22976503Y55121216D01*
X22889456Y55331886D01*
X22560617Y55661300D01*
X22130748Y55839797D01*
X21665294Y55840203D01*
X21235114Y55662456D01*
X20905700Y55333617D01*
X20727203Y54903748D01*
X20726797Y54438294D01*
X20603510Y54438294D01*
X20531669Y54544397D01*
X20053464Y54859700D01*
X19738531Y54948491D01*
X19509000Y54850970D01*
X19491000Y54850970D01*
X19261469Y54948491D01*
X18946536Y54859700D01*
X18468331Y54544397D01*
X18147189Y54070094D01*
X18032000Y53509000D01*
X10968000Y53509000D01*
X10852811Y54070094D01*
X10531669Y54544397D01*
X10053464Y54859700D01*
X9738531Y54948491D01*
X9509000Y54850970D01*
X9491000Y54850970D01*
X9261469Y54948491D01*
X8946536Y54859700D01*
X8468331Y54544397D01*
X8147189Y54070094D01*
X8032000Y53509000D01*
X420000Y53509000D01*
X420000Y59428686D01*
X8029763Y59428686D01*
X8237893Y58924971D01*
X8622944Y58539248D01*
X9126295Y58330238D01*
X9671314Y58329763D01*
X10175029Y58537893D01*
X10560752Y58922944D01*
X10769762Y59426295D01*
X10769764Y59428686D01*
X18029763Y59428686D01*
X18237893Y58924971D01*
X18622944Y58539248D01*
X19126295Y58330238D01*
X19671314Y58329763D01*
X20175029Y58537893D01*
X20560752Y58922944D01*
X20769762Y59426295D01*
X20770237Y59971314D01*
X20562107Y60475029D01*
X20177056Y60860752D01*
X19673705Y61069762D01*
X19128686Y61070237D01*
X18624971Y60862107D01*
X18239248Y60477056D01*
X18030238Y59973705D01*
X18029763Y59428686D01*
X10769764Y59428686D01*
X10770237Y59971314D01*
X10562107Y60475029D01*
X10177056Y60860752D01*
X9673705Y61069762D01*
X9128686Y61070237D01*
X8624971Y60862107D01*
X8239248Y60477056D01*
X8030238Y59973705D01*
X8029763Y59428686D01*
X420000Y59428686D01*
X420000Y62528686D01*
X8029763Y62528686D01*
X8237893Y62024971D01*
X8622944Y61639248D01*
X9126295Y61430238D01*
X9671314Y61429763D01*
X10175029Y61637893D01*
X10560752Y62022944D01*
X10769762Y62526295D01*
X10769764Y62528686D01*
X18029763Y62528686D01*
X18237893Y62024971D01*
X18622944Y61639248D01*
X19126295Y61430238D01*
X19671314Y61429763D01*
X20175029Y61637893D01*
X20560752Y62022944D01*
X20769762Y62526295D01*
X20770237Y63071314D01*
X20562107Y63575029D01*
X20177056Y63960752D01*
X19673705Y64169762D01*
X19128686Y64170237D01*
X18624971Y63962107D01*
X18239248Y63577056D01*
X18030238Y63073705D01*
X18029763Y62528686D01*
X10769764Y62528686D01*
X10770237Y63071314D01*
X10562107Y63575029D01*
X10177056Y63960752D01*
X9673705Y64169762D01*
X9128686Y64170237D01*
X8624971Y63962107D01*
X8239248Y63577056D01*
X8030238Y63073705D01*
X8029763Y62528686D01*
X420000Y62528686D01*
X420000Y67631971D01*
X7494699Y67631971D01*
X7597559Y67392584D01*
X8147445Y67142949D01*
X8751005Y67122749D01*
X9316352Y67335060D01*
X9402441Y67392584D01*
X9505301Y67631971D01*
X19494699Y67631971D01*
X19597559Y67392584D01*
X20147445Y67142949D01*
X20751005Y67122749D01*
X21316352Y67335060D01*
X21402441Y67392584D01*
X21505301Y67631971D01*
X20500000Y68637272D01*
X19494699Y67631971D01*
X9505301Y67631971D01*
X8500000Y68637272D01*
X7494699Y67631971D01*
X420000Y67631971D01*
X420000Y68398995D01*
X6972749Y68398995D01*
X7185060Y67833648D01*
X7242584Y67747559D01*
X7481971Y67644699D01*
X8487272Y68650000D01*
X8512728Y68650000D01*
X9518029Y67644699D01*
X9757416Y67747559D01*
X10007051Y68297445D01*
X10010449Y68398995D01*
X18972749Y68398995D01*
X19185060Y67833648D01*
X19242584Y67747559D01*
X19481971Y67644699D01*
X20487272Y68650000D01*
X20512728Y68650000D01*
X21518029Y67644699D01*
X21757416Y67747559D01*
X22007051Y68297445D01*
X22027251Y68901005D01*
X21814940Y69466352D01*
X21757416Y69552441D01*
X21518029Y69655301D01*
X20512728Y68650000D01*
X20487272Y68650000D01*
X19481971Y69655301D01*
X19242584Y69552441D01*
X18992949Y69002555D01*
X18972749Y68398995D01*
X10010449Y68398995D01*
X10027251Y68901005D01*
X9814940Y69466352D01*
X9757416Y69552441D01*
X9518029Y69655301D01*
X8512728Y68650000D01*
X8487272Y68650000D01*
X7481971Y69655301D01*
X7242584Y69552441D01*
X6992949Y69002555D01*
X6972749Y68398995D01*
X420000Y68398995D01*
X420000Y69668029D01*
X7494699Y69668029D01*
X8500000Y68662728D01*
X9505301Y69668029D01*
X19494699Y69668029D01*
X20500000Y68662728D01*
X21505301Y69668029D01*
X21402441Y69907416D01*
X20852555Y70157051D01*
X20248995Y70177251D01*
X19683648Y69964940D01*
X19597559Y69907416D01*
X19494699Y69668029D01*
X9505301Y69668029D01*
X9402441Y69907416D01*
X8852555Y70157051D01*
X8248995Y70177251D01*
X7683648Y69964940D01*
X7597559Y69907416D01*
X7494699Y69668029D01*
X420000Y69668029D01*
X420000Y70679971D01*
X7494699Y70679971D01*
X7597559Y70440584D01*
X8147445Y70190949D01*
X8751005Y70170749D01*
X9316352Y70383060D01*
X9402441Y70440584D01*
X9505301Y70679971D01*
X8500000Y71685272D01*
X7494699Y70679971D01*
X420000Y70679971D01*
X420000Y71446995D01*
X6972749Y71446995D01*
X7185060Y70881648D01*
X7242584Y70795559D01*
X7481971Y70692699D01*
X8487272Y71698000D01*
X8512728Y71698000D01*
X9518029Y70692699D01*
X9757416Y70795559D01*
X10007051Y71345445D01*
X10009438Y71416784D01*
X19079754Y71416784D01*
X19295481Y70894686D01*
X19694585Y70494885D01*
X20216305Y70278247D01*
X20781216Y70277754D01*
X21303314Y70493481D01*
X21703115Y70892585D01*
X21919753Y71414305D01*
X21920246Y71979216D01*
X21704519Y72501314D01*
X21305415Y72901115D01*
X20783695Y73117753D01*
X20218784Y73118246D01*
X19696686Y72902519D01*
X19296885Y72503415D01*
X19080247Y71981695D01*
X19079754Y71416784D01*
X10009438Y71416784D01*
X10027251Y71949005D01*
X9814940Y72514352D01*
X9757416Y72600441D01*
X9518029Y72703301D01*
X8512728Y71698000D01*
X8487272Y71698000D01*
X7481971Y72703301D01*
X7242584Y72600441D01*
X6992949Y72050555D01*
X6972749Y71446995D01*
X420000Y71446995D01*
X420000Y72716029D01*
X7494699Y72716029D01*
X8500000Y71710728D01*
X9505301Y72716029D01*
X9402441Y72955416D01*
X8852555Y73205051D01*
X8248995Y73225251D01*
X7683648Y73012940D01*
X7597559Y72955416D01*
X7494699Y72716029D01*
X420000Y72716029D01*
X420000Y74042412D01*
X1785140Y74042412D01*
X1833250Y73849783D01*
X2220555Y73675099D01*
X2645228Y73661927D01*
X3042614Y73812274D01*
X3098750Y73849783D01*
X3146860Y74042412D01*
X25788140Y74042412D01*
X25836250Y73849783D01*
X26223555Y73675099D01*
X26648228Y73661927D01*
X27045614Y73812274D01*
X27101750Y73849783D01*
X27149860Y74042412D01*
X26469000Y74723272D01*
X25788140Y74042412D01*
X3146860Y74042412D01*
X2466000Y74723272D01*
X1785140Y74042412D01*
X420000Y74042412D01*
X420000Y74556772D01*
X1391927Y74556772D01*
X1542274Y74159386D01*
X1579783Y74103250D01*
X1772412Y74055140D01*
X2453272Y74736000D01*
X2478728Y74736000D01*
X3159588Y74055140D01*
X3352217Y74103250D01*
X3526901Y74490555D01*
X3528954Y74556772D01*
X25394927Y74556772D01*
X25545274Y74159386D01*
X25582783Y74103250D01*
X25775412Y74055140D01*
X26456272Y74736000D01*
X26481728Y74736000D01*
X27162588Y74055140D01*
X27355217Y74103250D01*
X27529901Y74490555D01*
X27543073Y74915228D01*
X27392726Y75312614D01*
X27355217Y75368750D01*
X27162588Y75416860D01*
X26481728Y74736000D01*
X26456272Y74736000D01*
X25775412Y75416860D01*
X25582783Y75368750D01*
X25408099Y74981445D01*
X25394927Y74556772D01*
X3528954Y74556772D01*
X3540073Y74915228D01*
X3389726Y75312614D01*
X3352217Y75368750D01*
X3159588Y75416860D01*
X2478728Y74736000D01*
X2453272Y74736000D01*
X1772412Y75416860D01*
X1579783Y75368750D01*
X1405099Y74981445D01*
X1391927Y74556772D01*
X420000Y74556772D01*
X420000Y75429588D01*
X1785140Y75429588D01*
X2466000Y74748728D01*
X3146860Y75429588D01*
X25788140Y75429588D01*
X26469000Y74748728D01*
X27149860Y75429588D01*
X27101750Y75622217D01*
X26714445Y75796901D01*
X26289772Y75810073D01*
X25892386Y75659726D01*
X25836250Y75622217D01*
X25788140Y75429588D01*
X3146860Y75429588D01*
X3098750Y75622217D01*
X2711445Y75796901D01*
X2286772Y75810073D01*
X1889386Y75659726D01*
X1833250Y75622217D01*
X1785140Y75429588D01*
X420000Y75429588D01*
X420000Y79623902D01*
X1495832Y79623902D01*
X1643195Y79267257D01*
X1915822Y78994154D01*
X2272209Y78846169D01*
X2658098Y78845832D01*
X3014743Y78993195D01*
X3287846Y79265822D01*
X3403681Y79544784D01*
X7079754Y79544784D01*
X7295481Y79022686D01*
X7694585Y78622885D01*
X8216305Y78406247D01*
X8781216Y78405754D01*
X9303314Y78621481D01*
X9703115Y79020585D01*
X9919753Y79542305D01*
X9919755Y79544784D01*
X19079754Y79544784D01*
X19295481Y79022686D01*
X19694585Y78622885D01*
X20216305Y78406247D01*
X20781216Y78405754D01*
X21303314Y78621481D01*
X21703115Y79020585D01*
X21817478Y79296000D01*
X25634319Y79296000D01*
X25646195Y79267257D01*
X25918822Y78994154D01*
X26275209Y78846169D01*
X26661098Y78845832D01*
X27017743Y78993195D01*
X27290846Y79265822D01*
X27438831Y79622209D01*
X27439168Y80008098D01*
X27291805Y80364743D01*
X27019178Y80637846D01*
X26662791Y80785831D01*
X26276902Y80786168D01*
X25920257Y80638805D01*
X25647154Y80366178D01*
X25634623Y80336000D01*
X21825714Y80336000D01*
X21704519Y80629314D01*
X21305415Y81029115D01*
X20783695Y81245753D01*
X20218784Y81246246D01*
X19696686Y81030519D01*
X19296885Y80631415D01*
X19080247Y80109695D01*
X19079754Y79544784D01*
X9919755Y79544784D01*
X9920246Y80107216D01*
X9704519Y80629314D01*
X9305415Y81029115D01*
X8783695Y81245753D01*
X8218784Y81246246D01*
X7696686Y81030519D01*
X7296885Y80631415D01*
X7080247Y80109695D01*
X7079754Y79544784D01*
X3403681Y79544784D01*
X3435831Y79622209D01*
X3436168Y80008098D01*
X3288805Y80364743D01*
X3016178Y80637846D01*
X2659791Y80785831D01*
X2273902Y80786168D01*
X1917257Y80638805D01*
X1644154Y80366178D01*
X1496169Y80009791D01*
X1495832Y79623902D01*
X420000Y79623902D01*
X420000Y83989686D01*
X1810763Y83989686D01*
X2018893Y83485971D01*
X2403944Y83100248D01*
X2907295Y82891238D01*
X3452314Y82890763D01*
X3956029Y83098893D01*
X4136469Y83279019D01*
X12211747Y83279019D01*
X12308524Y83044827D01*
X12840346Y82803521D01*
X13424030Y82784102D01*
X13970715Y82989529D01*
X14053476Y83044827D01*
X14150253Y83279019D01*
X14784747Y83279019D01*
X14881524Y83044827D01*
X15413346Y82803521D01*
X15997030Y82784102D01*
X16543715Y82989529D01*
X16626476Y83044827D01*
X16723253Y83279019D01*
X15754000Y84248272D01*
X14784747Y83279019D01*
X14150253Y83279019D01*
X13181000Y84248272D01*
X12211747Y83279019D01*
X4136469Y83279019D01*
X4341752Y83483944D01*
X4550762Y83987295D01*
X4550788Y84017970D01*
X11704102Y84017970D01*
X11909529Y83471285D01*
X11964827Y83388524D01*
X12199019Y83291747D01*
X13168272Y84261000D01*
X13193728Y84261000D01*
X14162981Y83291747D01*
X14397173Y83388524D01*
X14460873Y83528915D01*
X14482529Y83471285D01*
X14537827Y83388524D01*
X14772019Y83291747D01*
X15741272Y84261000D01*
X15766728Y84261000D01*
X16735981Y83291747D01*
X16970173Y83388524D01*
X17211479Y83920346D01*
X17213785Y83989686D01*
X24383763Y83989686D01*
X24591893Y83485971D01*
X24976944Y83100248D01*
X25480295Y82891238D01*
X26025314Y82890763D01*
X26529029Y83098893D01*
X26914752Y83483944D01*
X27123762Y83987295D01*
X27124237Y84532314D01*
X26916107Y85036029D01*
X26531056Y85421752D01*
X26027705Y85630762D01*
X25482686Y85631237D01*
X24978971Y85423107D01*
X24593248Y85038056D01*
X24384238Y84534705D01*
X24383763Y83989686D01*
X17213785Y83989686D01*
X17230898Y84504030D01*
X17025471Y85050715D01*
X16970173Y85133476D01*
X16735981Y85230253D01*
X15766728Y84261000D01*
X15741272Y84261000D01*
X14772019Y85230253D01*
X14537827Y85133476D01*
X14474127Y84993085D01*
X14452471Y85050715D01*
X14397173Y85133476D01*
X14162981Y85230253D01*
X13193728Y84261000D01*
X13168272Y84261000D01*
X12199019Y85230253D01*
X11964827Y85133476D01*
X11723521Y84601654D01*
X11704102Y84017970D01*
X4550788Y84017970D01*
X4551237Y84532314D01*
X4343107Y85036029D01*
X4136516Y85242981D01*
X12211747Y85242981D01*
X13181000Y84273728D01*
X14150253Y85242981D01*
X14784747Y85242981D01*
X15754000Y84273728D01*
X16723253Y85242981D01*
X16626476Y85477173D01*
X16094654Y85718479D01*
X15510970Y85737898D01*
X14964285Y85532471D01*
X14881524Y85477173D01*
X14784747Y85242981D01*
X14150253Y85242981D01*
X14053476Y85477173D01*
X13521654Y85718479D01*
X12937970Y85737898D01*
X12391285Y85532471D01*
X12308524Y85477173D01*
X12211747Y85242981D01*
X4136516Y85242981D01*
X3958056Y85421752D01*
X3454705Y85630762D01*
X2909686Y85631237D01*
X2405971Y85423107D01*
X2020248Y85038056D01*
X1811238Y84534705D01*
X1810763Y83989686D01*
X420000Y83989686D01*
X420000Y86812214D01*
X674942Y86812214D01*
X747386Y86598804D01*
X1206950Y86390809D01*
X1711129Y86374514D01*
X2183164Y86552401D01*
X2252614Y86598804D01*
X2325058Y86812214D01*
X1500000Y87637272D01*
X674942Y86812214D01*
X420000Y86812214D01*
X420000Y86940496D01*
X448804Y86897386D01*
X662214Y86824942D01*
X1487272Y87650000D01*
X1512728Y87650000D01*
X2337786Y86824942D01*
X2551196Y86897386D01*
X2746398Y87328686D01*
X7329763Y87328686D01*
X7537893Y86824971D01*
X7922944Y86439248D01*
X8426295Y86230238D01*
X8971314Y86229763D01*
X9475029Y86437893D01*
X9860752Y86822944D01*
X10069762Y87326295D01*
X10069764Y87328686D01*
X17329763Y87328686D01*
X17537893Y86824971D01*
X17922944Y86439248D01*
X18426295Y86230238D01*
X18971314Y86229763D01*
X19475029Y86437893D01*
X19860752Y86822944D01*
X19929911Y86989498D01*
X19929797Y86858294D01*
X20107544Y86428114D01*
X20436383Y86098700D01*
X20866252Y85920203D01*
X21331706Y85919797D01*
X21761886Y86097544D01*
X22091300Y86426383D01*
X22150935Y86570000D01*
X23448918Y86570000D01*
X23507544Y86428114D01*
X23836383Y86098700D01*
X24266252Y85920203D01*
X24731706Y85919797D01*
X25161886Y86097544D01*
X25491300Y86426383D01*
X25651510Y86812214D01*
X26674942Y86812214D01*
X26747386Y86598804D01*
X27206950Y86390809D01*
X27711129Y86374514D01*
X28183164Y86552401D01*
X28252614Y86598804D01*
X28325058Y86812214D01*
X27500000Y87637272D01*
X26674942Y86812214D01*
X25651510Y86812214D01*
X25669797Y86856252D01*
X25670203Y87321706D01*
X25621792Y87438871D01*
X26224514Y87438871D01*
X26402401Y86966836D01*
X26448804Y86897386D01*
X26662214Y86824942D01*
X27487272Y87650000D01*
X26662214Y88475058D01*
X26448804Y88402614D01*
X26240809Y87943050D01*
X26224514Y87438871D01*
X25621792Y87438871D01*
X25492456Y87751886D01*
X25163617Y88081300D01*
X24733748Y88259797D01*
X24268294Y88260203D01*
X23838114Y88082456D01*
X23508700Y87753617D01*
X23449065Y87610000D01*
X22151082Y87610000D01*
X22092456Y87751886D01*
X21763617Y88081300D01*
X21333748Y88259797D01*
X20868294Y88260203D01*
X20438114Y88082456D01*
X20108700Y87753617D01*
X20070053Y87660545D01*
X20070237Y87871314D01*
X19862107Y88375029D01*
X19749547Y88487786D01*
X26674942Y88487786D01*
X27500000Y87662728D01*
X28325058Y88487786D01*
X28252614Y88701196D01*
X27793050Y88909191D01*
X27288871Y88925486D01*
X26816836Y88747599D01*
X26747386Y88701196D01*
X26674942Y88487786D01*
X19749547Y88487786D01*
X19477056Y88760752D01*
X18973705Y88969762D01*
X18428686Y88970237D01*
X17924971Y88762107D01*
X17539248Y88377056D01*
X17330238Y87873705D01*
X17329763Y87328686D01*
X10069764Y87328686D01*
X10070237Y87871314D01*
X9862107Y88375029D01*
X9477056Y88760752D01*
X8973705Y88969762D01*
X8428686Y88970237D01*
X7924971Y88762107D01*
X7539248Y88377056D01*
X7330238Y87873705D01*
X7329763Y87328686D01*
X2746398Y87328686D01*
X2759191Y87356950D01*
X2775486Y87861129D01*
X2597599Y88333164D01*
X2551196Y88402614D01*
X2337786Y88475058D01*
X1512728Y87650000D01*
X1487272Y87650000D01*
X662214Y88475058D01*
X448804Y88402614D01*
X420000Y88338972D01*
X420000Y88487786D01*
X674942Y88487786D01*
X1500000Y87662728D01*
X2325058Y88487786D01*
X2252614Y88701196D01*
X1793050Y88909191D01*
X1288871Y88925486D01*
X816836Y88747599D01*
X747386Y88701196D01*
X674942Y88487786D01*
X420000Y88487786D01*
X420000Y89352214D01*
X674942Y89352214D01*
X747386Y89138804D01*
X1206950Y88930809D01*
X1711129Y88914514D01*
X2183164Y89092401D01*
X2252614Y89138804D01*
X2325058Y89352214D01*
X1500000Y90177272D01*
X674942Y89352214D01*
X420000Y89352214D01*
X420000Y89480496D01*
X448804Y89437386D01*
X662214Y89364942D01*
X1487272Y90190000D01*
X1512728Y90190000D01*
X2337786Y89364942D01*
X2551196Y89437386D01*
X2678208Y89718019D01*
X13530747Y89718019D01*
X13627524Y89483827D01*
X14159346Y89242521D01*
X14743030Y89223102D01*
X15289715Y89428529D01*
X15372476Y89483827D01*
X15469253Y89718019D01*
X14500000Y90687272D01*
X13530747Y89718019D01*
X2678208Y89718019D01*
X2759191Y89896950D01*
X2775486Y90401129D01*
X2754443Y90456970D01*
X13023102Y90456970D01*
X13228529Y89910285D01*
X13283827Y89827524D01*
X13518019Y89730747D01*
X14487272Y90700000D01*
X14512728Y90700000D01*
X15481981Y89730747D01*
X15716173Y89827524D01*
X15957479Y90359346D01*
X15976898Y90943030D01*
X15771471Y91489715D01*
X15716173Y91572476D01*
X15481981Y91669253D01*
X14512728Y90700000D01*
X14487272Y90700000D01*
X13518019Y91669253D01*
X13283827Y91572476D01*
X13042521Y91040654D01*
X13023102Y90456970D01*
X2754443Y90456970D01*
X2597599Y90873164D01*
X2551196Y90942614D01*
X2337786Y91015058D01*
X1512728Y90190000D01*
X1487272Y90190000D01*
X662214Y91015058D01*
X448804Y90942614D01*
X420000Y90878972D01*
X420000Y91027786D01*
X674942Y91027786D01*
X1500000Y90202728D01*
X2325058Y91027786D01*
X2252614Y91241196D01*
X1793050Y91449191D01*
X1288871Y91465486D01*
X816836Y91287599D01*
X747386Y91241196D01*
X674942Y91027786D01*
X420000Y91027786D01*
X420000Y92279986D01*
X507544Y92068114D01*
X836383Y91738700D01*
X1266252Y91560203D01*
X1731706Y91559797D01*
X2027413Y91681981D01*
X13530747Y91681981D01*
X14500000Y90712728D01*
X15469253Y91681981D01*
X15372476Y91916173D01*
X14840654Y92157479D01*
X14256970Y92176898D01*
X13710285Y91971471D01*
X13627524Y91916173D01*
X13530747Y91681981D01*
X2027413Y91681981D01*
X2161886Y91737544D01*
X2491300Y92066383D01*
X2567544Y92250000D01*
X5001448Y92250000D01*
X5175901Y92075243D01*
X5477176Y91950142D01*
X5803393Y91949858D01*
X6104886Y92074432D01*
X6335757Y92304901D01*
X6460858Y92606176D01*
X6461142Y92932393D01*
X6336568Y93233886D01*
X6106099Y93464757D01*
X5804824Y93589858D01*
X5478607Y93590142D01*
X5177114Y93465568D01*
X5001240Y93290000D01*
X2534554Y93290000D01*
X2492456Y93391886D01*
X2163617Y93721300D01*
X1905003Y93828686D01*
X6129763Y93828686D01*
X6337893Y93324971D01*
X6722944Y92939248D01*
X7226295Y92730238D01*
X7771314Y92729763D01*
X8275029Y92937893D01*
X8660752Y93322944D01*
X8704659Y93428686D01*
X13129763Y93428686D01*
X13337893Y92924971D01*
X13722944Y92539248D01*
X14226295Y92330238D01*
X14771314Y92329763D01*
X15275029Y92537893D01*
X15660752Y92922944D01*
X15869762Y93426295D01*
X15870237Y93971314D01*
X15662107Y94475029D01*
X15277056Y94860752D01*
X14773705Y95069762D01*
X14228686Y95070237D01*
X13724971Y94862107D01*
X13339248Y94477056D01*
X13130238Y93973705D01*
X13129763Y93428686D01*
X8704659Y93428686D01*
X8869762Y93826295D01*
X8870237Y94371314D01*
X8662107Y94875029D01*
X8277056Y95260752D01*
X7773705Y95469762D01*
X7228686Y95470237D01*
X6724971Y95262107D01*
X6339248Y94877056D01*
X6130238Y94373705D01*
X6129763Y93828686D01*
X1905003Y93828686D01*
X1733748Y93899797D01*
X1268294Y93900203D01*
X838114Y93722456D01*
X508700Y93393617D01*
X420000Y93180003D01*
X420000Y94432214D01*
X674942Y94432214D01*
X747386Y94218804D01*
X1206950Y94010809D01*
X1711129Y93994514D01*
X2183164Y94172401D01*
X2252614Y94218804D01*
X2325058Y94432214D01*
X1500000Y95257272D01*
X674942Y94432214D01*
X420000Y94432214D01*
X420000Y94560496D01*
X448804Y94517386D01*
X662214Y94444942D01*
X1487272Y95270000D01*
X1512728Y95270000D01*
X2337786Y94444942D01*
X2551196Y94517386D01*
X2759191Y94976950D01*
X2775486Y95481129D01*
X2597599Y95953164D01*
X2551196Y96022614D01*
X2337786Y96095058D01*
X1512728Y95270000D01*
X1487272Y95270000D01*
X662214Y96095058D01*
X448804Y96022614D01*
X420000Y95958972D01*
X420000Y96107786D01*
X674942Y96107786D01*
X1500000Y95282728D01*
X2325058Y96107786D01*
X2252614Y96321196D01*
X1949697Y96458294D01*
X19929797Y96458294D01*
X20107544Y96028114D01*
X20435369Y95699716D01*
X20108700Y95373617D01*
X19930203Y94943748D01*
X19929797Y94478294D01*
X20107544Y94048114D01*
X20436383Y93718700D01*
X20866252Y93540203D01*
X21331706Y93539797D01*
X21761886Y93717544D01*
X22091300Y94046383D01*
X22269797Y94476252D01*
X22270203Y94941706D01*
X22092456Y95371886D01*
X21764631Y95700284D01*
X22091300Y96026383D01*
X22269797Y96456252D01*
X22270203Y96921706D01*
X22092456Y97351886D01*
X21763617Y97681300D01*
X21333748Y97859797D01*
X20868294Y97860203D01*
X20438114Y97682456D01*
X20108700Y97353617D01*
X19930203Y96923748D01*
X19929797Y96458294D01*
X1949697Y96458294D01*
X1793050Y96529191D01*
X1288871Y96545486D01*
X816836Y96367599D01*
X747386Y96321196D01*
X674942Y96107786D01*
X420000Y96107786D01*
X420000Y97359986D01*
X507544Y97148114D01*
X836383Y96818700D01*
X1266252Y96640203D01*
X1731706Y96639797D01*
X2161886Y96817544D01*
X2491300Y97146383D01*
X2669797Y97576252D01*
X2670203Y98041706D01*
X2492456Y98471886D01*
X2163617Y98801300D01*
X1733748Y98979797D01*
X1450000Y98980045D01*
X1450000Y99158000D01*
X1491000Y99199000D01*
X1491000Y100341000D01*
X1509000Y100341000D01*
X1509000Y99199000D01*
X1626000Y99082000D01*
X2393091Y99082000D01*
X2565101Y99153249D01*
X2696751Y99284899D01*
X2768000Y99456909D01*
X2768000Y100224000D01*
X2651000Y100341000D01*
X1509000Y100341000D01*
X1491000Y100341000D01*
X1471000Y100341000D01*
X1471000Y100359000D01*
X1491000Y100359000D01*
X1491000Y101501000D01*
X1509000Y101501000D01*
X1509000Y100359000D01*
X2651000Y100359000D01*
X2768000Y100476000D01*
X2768000Y101243091D01*
X2696751Y101415101D01*
X2583166Y101528686D01*
X13129763Y101528686D01*
X13337893Y101024971D01*
X13722944Y100639248D01*
X14226295Y100430238D01*
X14771314Y100429763D01*
X15275029Y100637893D01*
X15660752Y101022944D01*
X15869762Y101526295D01*
X15870237Y102071314D01*
X15662107Y102575029D01*
X15277056Y102960752D01*
X14773705Y103169762D01*
X14228686Y103170237D01*
X13724971Y102962107D01*
X13339248Y102577056D01*
X13130238Y102073705D01*
X13129763Y101528686D01*
X2583166Y101528686D01*
X2565101Y101546751D01*
X2393091Y101618000D01*
X1626000Y101618000D01*
X1509000Y101501000D01*
X1491000Y101501000D01*
X1374000Y101618000D01*
X606909Y101618000D01*
X434899Y101546751D01*
X420000Y101531852D01*
X420000Y103828686D01*
X6129763Y103828686D01*
X6337893Y103324971D01*
X6722944Y102939248D01*
X7226295Y102730238D01*
X7771314Y102729763D01*
X8275029Y102937893D01*
X8660752Y103322944D01*
X8869762Y103826295D01*
X8869981Y104078294D01*
X19929797Y104078294D01*
X20107544Y103648114D01*
X20436383Y103318700D01*
X20866252Y103140203D01*
X21331706Y103139797D01*
X21761886Y103317544D01*
X22091300Y103646383D01*
X22269797Y104076252D01*
X22269798Y104078294D01*
X23329797Y104078294D01*
X23507544Y103648114D01*
X23836383Y103318700D01*
X24266252Y103140203D01*
X24731706Y103139797D01*
X25161886Y103317544D01*
X25491300Y103646383D01*
X25669797Y104076252D01*
X25670203Y104541706D01*
X25492456Y104971886D01*
X25163617Y105301300D01*
X24733748Y105479797D01*
X24268294Y105480203D01*
X23838114Y105302456D01*
X23508700Y104973617D01*
X23330203Y104543748D01*
X23329797Y104078294D01*
X22269798Y104078294D01*
X22270203Y104541706D01*
X22092456Y104971886D01*
X21763617Y105301300D01*
X21333748Y105479797D01*
X20868294Y105480203D01*
X20438114Y105302456D01*
X20108700Y104973617D01*
X19930203Y104543748D01*
X19929797Y104078294D01*
X8869981Y104078294D01*
X8870237Y104371314D01*
X8662107Y104875029D01*
X8277056Y105260752D01*
X7773705Y105469762D01*
X7228686Y105470237D01*
X6724971Y105262107D01*
X6339248Y104877056D01*
X6130238Y104373705D01*
X6129763Y103828686D01*
X420000Y103828686D01*
X420000Y105580000D01*
X28580000Y105580000D01*
X28580000Y101396932D01*
M02*
