G04 #@! TF.GenerationSoftware,KiCad,Pcbnew,(2016-12-20 revision 2972f6f)-master*
G04 #@! TF.CreationDate,2020-07-05T08:57:13+03:00*
G04 #@! TF.ProjectId,DIYOUT4C,4449594F555434432E6B696361645F70,rev?*
G04 #@! TF.FileFunction,Legend,Top*
G04 #@! TF.FilePolarity,Positive*
%FSLAX46Y46*%
G04 Gerber Fmt 4.6, Leading zero omitted, Abs format (unit mm)*
G04 Created by KiCad (PCBNEW (2016-12-20 revision 2972f6f)-master) date Sun Jul  5 08:57:13 2020*
%MOMM*%
%LPD*%
G01*
G04 APERTURE LIST*
%ADD10C,0.100000*%
%ADD11C,0.300000*%
%ADD12C,0.200000*%
%ADD13C,0.150000*%
%ADD14C,0.120000*%
G04 APERTURE END LIST*
D10*
D11*
X1000000Y64695239D02*
X1000000Y66695239D01*
X1357142Y66695239D01*
X1571428Y66600000D01*
X1714285Y66409524D01*
X1785714Y66219048D01*
X1857142Y65838096D01*
X1857142Y65552381D01*
X1785714Y65171429D01*
X1714285Y64980953D01*
X1571428Y64790477D01*
X1357142Y64695239D01*
X1000000Y64695239D01*
X2500000Y64695239D02*
X2500000Y66695239D01*
X3500000Y65647620D02*
X3500000Y64695239D01*
X3000000Y66695239D02*
X3500000Y65647620D01*
X4000000Y66695239D01*
X4785714Y66695239D02*
X5071428Y66695239D01*
X5214285Y66600000D01*
X5357142Y66409524D01*
X5428571Y66028572D01*
X5428571Y65361905D01*
X5357142Y64980953D01*
X5214285Y64790477D01*
X5071428Y64695239D01*
X4785714Y64695239D01*
X4642857Y64790477D01*
X4500000Y64980953D01*
X4428571Y65361905D01*
X4428571Y66028572D01*
X4500000Y66409524D01*
X4642857Y66600000D01*
X4785714Y66695239D01*
X6071428Y66695239D02*
X6071428Y65076191D01*
X6142857Y64885715D01*
X6214285Y64790477D01*
X6357142Y64695239D01*
X6642857Y64695239D01*
X6785714Y64790477D01*
X6857142Y64885715D01*
X6928571Y65076191D01*
X6928571Y66695239D01*
X7428571Y66695239D02*
X8285714Y66695239D01*
X7857142Y64695239D02*
X7857142Y66695239D01*
X9428571Y66028572D02*
X9428571Y64695239D01*
X9071428Y66790477D02*
X8714285Y65361905D01*
X9642857Y65361905D01*
X11071428Y64885715D02*
X11000000Y64790477D01*
X10785714Y64695239D01*
X10642857Y64695239D01*
X10428571Y64790477D01*
X10285714Y64980953D01*
X10214285Y65171429D01*
X10142857Y65552381D01*
X10142857Y65838096D01*
X10214285Y66219048D01*
X10285714Y66409524D01*
X10428571Y66600000D01*
X10642857Y66695239D01*
X10785714Y66695239D01*
X11000000Y66600000D01*
X11071428Y66504762D01*
D10*
X23450000Y39383334D02*
X23916666Y39383334D01*
X23183333Y39216667D02*
X23683333Y39050000D01*
X23683333Y39483334D01*
X23916666Y40216667D02*
X23450000Y40583334D01*
X23450000Y40216667D02*
X23916666Y40583334D01*
X22550000Y92083334D02*
X23016666Y92083334D01*
X22283333Y91916667D02*
X22783333Y91750000D01*
X22783333Y92183334D01*
X23016666Y92916667D02*
X22550000Y93283334D01*
X22550000Y92916667D02*
X23016666Y93283334D01*
X8721428Y1247429D02*
X8873809Y714096D01*
X9026190Y1095048D01*
X9178571Y714096D01*
X9330952Y1247429D01*
X9559523Y1247429D02*
X9711904Y714096D01*
X9864285Y1095048D01*
X10016666Y714096D01*
X10169047Y1247429D01*
X10397619Y1247429D02*
X10550000Y714096D01*
X10702380Y1095048D01*
X10854761Y714096D01*
X11007142Y1247429D01*
X11311904Y790286D02*
X11350000Y752191D01*
X11311904Y714096D01*
X11273809Y752191D01*
X11311904Y790286D01*
X11311904Y714096D01*
X11997619Y752191D02*
X11921428Y714096D01*
X11769047Y714096D01*
X11692857Y752191D01*
X11654761Y828381D01*
X11654761Y1133143D01*
X11692857Y1209334D01*
X11769047Y1247429D01*
X11921428Y1247429D01*
X11997619Y1209334D01*
X12035714Y1133143D01*
X12035714Y1056953D01*
X11654761Y980762D01*
X12378571Y714096D02*
X12378571Y1247429D01*
X12378571Y1095048D02*
X12416666Y1171239D01*
X12454761Y1209334D01*
X12530952Y1247429D01*
X12607142Y1247429D01*
X12873809Y714096D02*
X12873809Y1247429D01*
X12873809Y1514096D02*
X12835714Y1476000D01*
X12873809Y1437905D01*
X12911904Y1476000D01*
X12873809Y1514096D01*
X12873809Y1437905D01*
X13597619Y752191D02*
X13521428Y714096D01*
X13369047Y714096D01*
X13292857Y752191D01*
X13254761Y790286D01*
X13216666Y866477D01*
X13216666Y1095048D01*
X13254761Y1171239D01*
X13292857Y1209334D01*
X13369047Y1247429D01*
X13521428Y1247429D01*
X13597619Y1209334D01*
X14283333Y714096D02*
X14283333Y1133143D01*
X14245238Y1209334D01*
X14169047Y1247429D01*
X14016666Y1247429D01*
X13940476Y1209334D01*
X14283333Y752191D02*
X14207142Y714096D01*
X14016666Y714096D01*
X13940476Y752191D01*
X13902380Y828381D01*
X13902380Y904572D01*
X13940476Y980762D01*
X14016666Y1018858D01*
X14207142Y1018858D01*
X14283333Y1056953D01*
X14626190Y752191D02*
X14702380Y714096D01*
X14854761Y714096D01*
X14930952Y752191D01*
X14969047Y828381D01*
X14969047Y866477D01*
X14930952Y942667D01*
X14854761Y980762D01*
X14740476Y980762D01*
X14664285Y1018858D01*
X14626190Y1095048D01*
X14626190Y1133143D01*
X14664285Y1209334D01*
X14740476Y1247429D01*
X14854761Y1247429D01*
X14930952Y1209334D01*
X15235714Y1247429D02*
X15426190Y714096D01*
X15616666Y1247429D02*
X15426190Y714096D01*
X15350000Y523620D01*
X15311904Y485524D01*
X15235714Y447429D01*
X15921428Y1247429D02*
X15921428Y714096D01*
X15921428Y1171239D02*
X15959523Y1209334D01*
X16035714Y1247429D01*
X16150000Y1247429D01*
X16226190Y1209334D01*
X16264285Y1133143D01*
X16264285Y714096D01*
X16530952Y1247429D02*
X16835714Y1247429D01*
X16645238Y1514096D02*
X16645238Y828381D01*
X16683333Y752191D01*
X16759523Y714096D01*
X16835714Y714096D01*
X17102380Y714096D02*
X17102380Y1514096D01*
X17445238Y714096D02*
X17445238Y1133143D01*
X17407142Y1209334D01*
X17330952Y1247429D01*
X17216666Y1247429D01*
X17140476Y1209334D01*
X17102380Y1171239D01*
X17788095Y752191D02*
X17864285Y714096D01*
X18016666Y714096D01*
X18092857Y752191D01*
X18130952Y828381D01*
X18130952Y866477D01*
X18092857Y942667D01*
X18016666Y980762D01*
X17902380Y980762D01*
X17826190Y1018858D01*
X17788095Y1095048D01*
X17788095Y1133143D01*
X17826190Y1209334D01*
X17902380Y1247429D01*
X18016666Y1247429D01*
X18092857Y1209334D01*
X18473809Y790286D02*
X18511904Y752191D01*
X18473809Y714096D01*
X18435714Y752191D01*
X18473809Y790286D01*
X18473809Y714096D01*
X18969047Y714096D02*
X18892857Y752191D01*
X18854761Y828381D01*
X18854761Y1514096D01*
X19197619Y1247429D02*
X19388095Y714096D01*
X19578571Y1247429D01*
D12*
X23214285Y59623810D02*
X23214285Y59957143D01*
X23842857Y60100000D02*
X23842857Y59623810D01*
X22642857Y59623810D01*
X22642857Y60100000D01*
X23842857Y60528572D02*
X23042857Y60528572D01*
X23271428Y60528572D02*
X23157142Y60576191D01*
X23100000Y60623810D01*
X23042857Y60719048D01*
X23042857Y60814286D01*
X23842857Y61147620D02*
X23042857Y61147620D01*
X22642857Y61147620D02*
X22700000Y61100000D01*
X22757142Y61147620D01*
X22700000Y61195239D01*
X22642857Y61147620D01*
X22757142Y61147620D01*
X23785714Y62052381D02*
X23842857Y61957143D01*
X23842857Y61766667D01*
X23785714Y61671429D01*
X23728571Y61623810D01*
X23614285Y61576191D01*
X23271428Y61576191D01*
X23157142Y61623810D01*
X23100000Y61671429D01*
X23042857Y61766667D01*
X23042857Y61957143D01*
X23100000Y62052381D01*
X23842857Y62909524D02*
X23214285Y62909524D01*
X23100000Y62861905D01*
X23042857Y62766667D01*
X23042857Y62576191D01*
X23100000Y62480953D01*
X23785714Y62909524D02*
X23842857Y62814286D01*
X23842857Y62576191D01*
X23785714Y62480953D01*
X23671428Y62433334D01*
X23557142Y62433334D01*
X23442857Y62480953D01*
X23385714Y62576191D01*
X23385714Y62814286D01*
X23328571Y62909524D01*
X23785714Y64100000D02*
X23842857Y64242858D01*
X23842857Y64480953D01*
X23785714Y64576191D01*
X23728571Y64623810D01*
X23614285Y64671429D01*
X23500000Y64671429D01*
X23385714Y64623810D01*
X23328571Y64576191D01*
X23271428Y64480953D01*
X23214285Y64290477D01*
X23157142Y64195239D01*
X23100000Y64147620D01*
X22985714Y64100000D01*
X22871428Y64100000D01*
X22757142Y64147620D01*
X22700000Y64195239D01*
X22642857Y64290477D01*
X22642857Y64528572D01*
X22700000Y64671429D01*
X23042857Y65004762D02*
X23842857Y65242858D01*
X23042857Y65480953D02*
X23842857Y65242858D01*
X24128571Y65147620D01*
X24185714Y65100000D01*
X24242857Y65004762D01*
X23042857Y65861905D02*
X23842857Y65861905D01*
X23157142Y65861905D02*
X23100000Y65909524D01*
X23042857Y66004762D01*
X23042857Y66147620D01*
X23100000Y66242858D01*
X23214285Y66290477D01*
X23842857Y66290477D01*
X23042857Y66623810D02*
X23042857Y67004762D01*
X22642857Y66766667D02*
X23671428Y66766667D01*
X23785714Y66814286D01*
X23842857Y66909524D01*
X23842857Y67004762D01*
X23842857Y67338096D02*
X22642857Y67338096D01*
X23842857Y67766667D02*
X23214285Y67766667D01*
X23100000Y67719048D01*
X23042857Y67623810D01*
X23042857Y67480953D01*
X23100000Y67385715D01*
X23157142Y67338096D01*
X23785714Y68195239D02*
X23842857Y68290477D01*
X23842857Y68480953D01*
X23785714Y68576191D01*
X23671428Y68623810D01*
X23614285Y68623810D01*
X23500000Y68576191D01*
X23442857Y68480953D01*
X23442857Y68338096D01*
X23385714Y68242858D01*
X23271428Y68195239D01*
X23214285Y68195239D01*
X23100000Y68242858D01*
X23042857Y68338096D01*
X23042857Y68480953D01*
X23100000Y68576191D01*
X24642857Y58600000D02*
X24642857Y58790477D01*
X24700000Y58885715D01*
X24814285Y58980953D01*
X25042857Y59028572D01*
X25442857Y59028572D01*
X25671428Y58980953D01*
X25785714Y58885715D01*
X25842857Y58790477D01*
X25842857Y58600000D01*
X25785714Y58504762D01*
X25671428Y58409524D01*
X25442857Y58361905D01*
X25042857Y58361905D01*
X24814285Y58409524D01*
X24700000Y58504762D01*
X24642857Y58600000D01*
X25042857Y59885715D02*
X25842857Y59885715D01*
X25042857Y59457143D02*
X25671428Y59457143D01*
X25785714Y59504762D01*
X25842857Y59600000D01*
X25842857Y59742858D01*
X25785714Y59838096D01*
X25728571Y59885715D01*
X25042857Y60219048D02*
X25042857Y60600000D01*
X24642857Y60361905D02*
X25671428Y60361905D01*
X25785714Y60409524D01*
X25842857Y60504762D01*
X25842857Y60600000D01*
X25042857Y60933334D02*
X26242857Y60933334D01*
X25100000Y60933334D02*
X25042857Y61028572D01*
X25042857Y61219048D01*
X25100000Y61314286D01*
X25157142Y61361905D01*
X25271428Y61409524D01*
X25614285Y61409524D01*
X25728571Y61361905D01*
X25785714Y61314286D01*
X25842857Y61219048D01*
X25842857Y61028572D01*
X25785714Y60933334D01*
X25042857Y62266667D02*
X25842857Y62266667D01*
X25042857Y61838096D02*
X25671428Y61838096D01*
X25785714Y61885715D01*
X25842857Y61980953D01*
X25842857Y62123810D01*
X25785714Y62219048D01*
X25728571Y62266667D01*
X25042857Y62600000D02*
X25042857Y62980953D01*
X24642857Y62742858D02*
X25671428Y62742858D01*
X25785714Y62790477D01*
X25842857Y62885715D01*
X25842857Y62980953D01*
X25842857Y64076191D02*
X25042857Y64076191D01*
X25157142Y64076191D02*
X25100000Y64123810D01*
X25042857Y64219048D01*
X25042857Y64361905D01*
X25100000Y64457143D01*
X25214285Y64504762D01*
X25842857Y64504762D01*
X25214285Y64504762D02*
X25100000Y64552381D01*
X25042857Y64647620D01*
X25042857Y64790477D01*
X25100000Y64885715D01*
X25214285Y64933334D01*
X25842857Y64933334D01*
X25842857Y65552381D02*
X25785714Y65457143D01*
X25728571Y65409524D01*
X25614285Y65361905D01*
X25271428Y65361905D01*
X25157142Y65409524D01*
X25100000Y65457143D01*
X25042857Y65552381D01*
X25042857Y65695239D01*
X25100000Y65790477D01*
X25157142Y65838096D01*
X25271428Y65885715D01*
X25614285Y65885715D01*
X25728571Y65838096D01*
X25785714Y65790477D01*
X25842857Y65695239D01*
X25842857Y65552381D01*
X25842857Y66742858D02*
X24642857Y66742858D01*
X25785714Y66742858D02*
X25842857Y66647620D01*
X25842857Y66457143D01*
X25785714Y66361905D01*
X25728571Y66314286D01*
X25614285Y66266667D01*
X25271428Y66266667D01*
X25157142Y66314286D01*
X25100000Y66361905D01*
X25042857Y66457143D01*
X25042857Y66647620D01*
X25100000Y66742858D01*
X25042857Y67647620D02*
X25842857Y67647620D01*
X25042857Y67219048D02*
X25671428Y67219048D01*
X25785714Y67266667D01*
X25842857Y67361905D01*
X25842857Y67504762D01*
X25785714Y67600000D01*
X25728571Y67647620D01*
X25842857Y68266667D02*
X25785714Y68171429D01*
X25671428Y68123810D01*
X24642857Y68123810D01*
X25785714Y69028572D02*
X25842857Y68933334D01*
X25842857Y68742858D01*
X25785714Y68647620D01*
X25671428Y68600000D01*
X25214285Y68600000D01*
X25100000Y68647620D01*
X25042857Y68742858D01*
X25042857Y68933334D01*
X25100000Y69028572D01*
X25214285Y69076191D01*
X25328571Y69076191D01*
X25442857Y68600000D01*
X27042857Y58528572D02*
X27842857Y58766667D01*
X27042857Y59004762D01*
X27042857Y59814286D02*
X27842857Y59814286D01*
X26585714Y59576191D02*
X27442857Y59338096D01*
X27442857Y59957143D01*
X27728571Y60338096D02*
X27785714Y60385715D01*
X27842857Y60338096D01*
X27785714Y60290477D01*
X27728571Y60338096D01*
X27842857Y60338096D01*
X26642857Y61004762D02*
X26642857Y61100000D01*
X26700000Y61195239D01*
X26757142Y61242858D01*
X26871428Y61290477D01*
X27100000Y61338096D01*
X27385714Y61338096D01*
X27614285Y61290477D01*
X27728571Y61242858D01*
X27785714Y61195239D01*
X27842857Y61100000D01*
X27842857Y61004762D01*
X27785714Y60909524D01*
X27728571Y60861905D01*
X27614285Y60814286D01*
X27385714Y60766667D01*
X27100000Y60766667D01*
X26871428Y60814286D01*
X26757142Y60861905D01*
X26700000Y60909524D01*
X26642857Y61004762D01*
X26642857Y62814286D02*
X27500000Y62814286D01*
X27671428Y62766667D01*
X27785714Y62671429D01*
X27842857Y62528572D01*
X27842857Y62433334D01*
X27042857Y63719048D02*
X27842857Y63719048D01*
X27042857Y63290477D02*
X27671428Y63290477D01*
X27785714Y63338096D01*
X27842857Y63433334D01*
X27842857Y63576191D01*
X27785714Y63671429D01*
X27728571Y63719048D01*
X27842857Y64338096D02*
X27785714Y64242858D01*
X27671428Y64195239D01*
X26642857Y64195239D01*
X27042857Y64623810D02*
X27842857Y64861905D01*
X27042857Y65100000D02*
X27842857Y64861905D01*
X28128571Y64766667D01*
X28185714Y64719048D01*
X28242857Y64623810D01*
X26757142Y66195239D02*
X26700000Y66242858D01*
X26642857Y66338096D01*
X26642857Y66576191D01*
X26700000Y66671429D01*
X26757142Y66719048D01*
X26871428Y66766667D01*
X26985714Y66766667D01*
X27157142Y66719048D01*
X27842857Y66147620D01*
X27842857Y66766667D01*
X26642857Y67385715D02*
X26642857Y67480953D01*
X26700000Y67576191D01*
X26757142Y67623810D01*
X26871428Y67671429D01*
X27100000Y67719048D01*
X27385714Y67719048D01*
X27614285Y67671429D01*
X27728571Y67623810D01*
X27785714Y67576191D01*
X27842857Y67480953D01*
X27842857Y67385715D01*
X27785714Y67290477D01*
X27728571Y67242858D01*
X27614285Y67195239D01*
X27385714Y67147620D01*
X27100000Y67147620D01*
X26871428Y67195239D01*
X26757142Y67242858D01*
X26700000Y67290477D01*
X26642857Y67385715D01*
X26757142Y68100000D02*
X26700000Y68147620D01*
X26642857Y68242858D01*
X26642857Y68480953D01*
X26700000Y68576191D01*
X26757142Y68623810D01*
X26871428Y68671429D01*
X26985714Y68671429D01*
X27157142Y68623810D01*
X27842857Y68052381D01*
X27842857Y68671429D01*
X26642857Y69290477D02*
X26642857Y69385715D01*
X26700000Y69480953D01*
X26757142Y69528572D01*
X26871428Y69576191D01*
X27100000Y69623810D01*
X27385714Y69623810D01*
X27614285Y69576191D01*
X27728571Y69528572D01*
X27785714Y69480953D01*
X27842857Y69385715D01*
X27842857Y69290477D01*
X27785714Y69195239D01*
X27728571Y69147620D01*
X27614285Y69100000D01*
X27385714Y69052381D01*
X27100000Y69052381D01*
X26871428Y69100000D01*
X26757142Y69147620D01*
X26700000Y69195239D01*
X26642857Y69290477D01*
D10*
X18250000Y24483334D02*
X17850000Y24483334D01*
X18050000Y24483334D02*
X18050000Y25183334D01*
X17983333Y25083334D01*
X17916666Y25016667D01*
X17850000Y24983334D01*
X18683333Y25183334D02*
X18750000Y25183334D01*
X18816666Y25150000D01*
X18850000Y25116667D01*
X18883333Y25050000D01*
X18916666Y24916667D01*
X18916666Y24750000D01*
X18883333Y24616667D01*
X18850000Y24550000D01*
X18816666Y24516667D01*
X18750000Y24483334D01*
X18683333Y24483334D01*
X18616666Y24516667D01*
X18583333Y24550000D01*
X18550000Y24616667D01*
X18516666Y24750000D01*
X18516666Y24916667D01*
X18550000Y25050000D01*
X18583333Y25116667D01*
X18616666Y25150000D01*
X18683333Y25183334D01*
X19350000Y25183334D02*
X19416666Y25183334D01*
X19483333Y25150000D01*
X19516666Y25116667D01*
X19550000Y25050000D01*
X19583333Y24916667D01*
X19583333Y24750000D01*
X19550000Y24616667D01*
X19516666Y24550000D01*
X19483333Y24516667D01*
X19416666Y24483334D01*
X19350000Y24483334D01*
X19283333Y24516667D01*
X19250000Y24550000D01*
X19216666Y24616667D01*
X19183333Y24750000D01*
X19183333Y24916667D01*
X19216666Y25050000D01*
X19250000Y25116667D01*
X19283333Y25150000D01*
X19350000Y25183334D01*
X20183333Y24950000D02*
X20183333Y24483334D01*
X19883333Y24950000D02*
X19883333Y24583334D01*
X19916666Y24516667D01*
X19983333Y24483334D01*
X20083333Y24483334D01*
X20150000Y24516667D01*
X20183333Y24550000D01*
X20516666Y24483334D02*
X20516666Y25183334D01*
X20516666Y24850000D02*
X20916666Y24850000D01*
X20916666Y24483334D02*
X20916666Y25183334D01*
X11616666Y21050000D02*
X11616666Y20650000D01*
X11616666Y20850000D02*
X10916666Y20850000D01*
X11016666Y20783334D01*
X11083333Y20716667D01*
X11116666Y20650000D01*
X10916666Y21483334D02*
X10916666Y21550000D01*
X10950000Y21616667D01*
X10983333Y21650000D01*
X11050000Y21683334D01*
X11183333Y21716667D01*
X11350000Y21716667D01*
X11483333Y21683334D01*
X11550000Y21650000D01*
X11583333Y21616667D01*
X11616666Y21550000D01*
X11616666Y21483334D01*
X11583333Y21416667D01*
X11550000Y21383334D01*
X11483333Y21350000D01*
X11350000Y21316667D01*
X11183333Y21316667D01*
X11050000Y21350000D01*
X10983333Y21383334D01*
X10950000Y21416667D01*
X10916666Y21483334D01*
X10916666Y22150000D02*
X10916666Y22216667D01*
X10950000Y22283334D01*
X10983333Y22316667D01*
X11050000Y22350000D01*
X11183333Y22383334D01*
X11350000Y22383334D01*
X11483333Y22350000D01*
X11550000Y22316667D01*
X11583333Y22283334D01*
X11616666Y22216667D01*
X11616666Y22150000D01*
X11583333Y22083334D01*
X11550000Y22050000D01*
X11483333Y22016667D01*
X11350000Y21983334D01*
X11183333Y21983334D01*
X11050000Y22016667D01*
X10983333Y22050000D01*
X10950000Y22083334D01*
X10916666Y22150000D01*
X11150000Y22983334D02*
X11616666Y22983334D01*
X11150000Y22683334D02*
X11516666Y22683334D01*
X11583333Y22716667D01*
X11616666Y22783334D01*
X11616666Y22883334D01*
X11583333Y22950000D01*
X11550000Y22983334D01*
X11616666Y23316667D02*
X10916666Y23316667D01*
X11250000Y23316667D02*
X11250000Y23716667D01*
X11616666Y23716667D02*
X10916666Y23716667D01*
D12*
X3238095Y17814286D02*
X4000000Y17814286D01*
X3619047Y17357143D02*
X3619047Y18271429D01*
X5000000Y17357143D02*
X4428571Y17357143D01*
X4714285Y17357143D02*
X4714285Y18557143D01*
X4619047Y18385715D01*
X4523809Y18271429D01*
X4428571Y18214286D01*
X5380952Y18442858D02*
X5428571Y18500000D01*
X5523809Y18557143D01*
X5761904Y18557143D01*
X5857142Y18500000D01*
X5904761Y18442858D01*
X5952380Y18328572D01*
X5952380Y18214286D01*
X5904761Y18042858D01*
X5333333Y17357143D01*
X5952380Y17357143D01*
X6238095Y18557143D02*
X6571428Y17357143D01*
X6904761Y18557143D01*
X3338095Y3114286D02*
X4100000Y3114286D01*
X5100000Y2657143D02*
X4528571Y2657143D01*
X4814285Y2657143D02*
X4814285Y3857143D01*
X4719047Y3685715D01*
X4623809Y3571429D01*
X4528571Y3514286D01*
X5480952Y3742858D02*
X5528571Y3800000D01*
X5623809Y3857143D01*
X5861904Y3857143D01*
X5957142Y3800000D01*
X6004761Y3742858D01*
X6052380Y3628572D01*
X6052380Y3514286D01*
X6004761Y3342858D01*
X5433333Y2657143D01*
X6052380Y2657143D01*
X6338095Y3857143D02*
X6671428Y2657143D01*
X7004761Y3857143D01*
D10*
X10483333Y37083334D02*
X10950000Y37083334D01*
X10650000Y36383334D01*
X11316666Y36783334D02*
X11250000Y36816667D01*
X11216666Y36850000D01*
X11183333Y36916667D01*
X11183333Y36950000D01*
X11216666Y37016667D01*
X11250000Y37050000D01*
X11316666Y37083334D01*
X11450000Y37083334D01*
X11516666Y37050000D01*
X11550000Y37016667D01*
X11583333Y36950000D01*
X11583333Y36916667D01*
X11550000Y36850000D01*
X11516666Y36816667D01*
X11450000Y36783334D01*
X11316666Y36783334D01*
X11250000Y36750000D01*
X11216666Y36716667D01*
X11183333Y36650000D01*
X11183333Y36516667D01*
X11216666Y36450000D01*
X11250000Y36416667D01*
X11316666Y36383334D01*
X11450000Y36383334D01*
X11516666Y36416667D01*
X11550000Y36450000D01*
X11583333Y36516667D01*
X11583333Y36650000D01*
X11550000Y36716667D01*
X11516666Y36750000D01*
X11450000Y36783334D01*
X12216666Y36383334D02*
X11883333Y36383334D01*
X11883333Y37083334D01*
X12583333Y37083334D02*
X12650000Y37083334D01*
X12716666Y37050000D01*
X12750000Y37016667D01*
X12783333Y36950000D01*
X12816666Y36816667D01*
X12816666Y36650000D01*
X12783333Y36516667D01*
X12750000Y36450000D01*
X12716666Y36416667D01*
X12650000Y36383334D01*
X12583333Y36383334D01*
X12516666Y36416667D01*
X12483333Y36450000D01*
X12450000Y36516667D01*
X12416666Y36650000D01*
X12416666Y36816667D01*
X12450000Y36950000D01*
X12483333Y37016667D01*
X12516666Y37050000D01*
X12583333Y37083334D01*
X13450000Y37083334D02*
X13116666Y37083334D01*
X13083333Y36750000D01*
X13116666Y36783334D01*
X13183333Y36816667D01*
X13350000Y36816667D01*
X13416666Y36783334D01*
X13450000Y36750000D01*
X13483333Y36683334D01*
X13483333Y36516667D01*
X13450000Y36450000D01*
X13416666Y36416667D01*
X13350000Y36383334D01*
X13183333Y36383334D01*
X13116666Y36416667D01*
X13083333Y36450000D01*
D13*
X8242857Y42847620D02*
X7042857Y42847620D01*
X7614285Y42847620D02*
X7614285Y43419048D01*
X8242857Y43419048D02*
X7042857Y43419048D01*
X7614285Y43895239D02*
X7614285Y44228572D01*
X8242857Y44371429D02*
X8242857Y43895239D01*
X7042857Y43895239D01*
X7042857Y44371429D01*
X7900000Y44752381D02*
X7900000Y45228572D01*
X8242857Y44657143D02*
X7042857Y44990477D01*
X8242857Y45323810D01*
X8242857Y45657143D02*
X7042857Y45657143D01*
X7042857Y45895239D01*
X7100000Y46038096D01*
X7214285Y46133334D01*
X7328571Y46180953D01*
X7557142Y46228572D01*
X7728571Y46228572D01*
X7957142Y46180953D01*
X8071428Y46133334D01*
X8185714Y46038096D01*
X8242857Y45895239D01*
X8242857Y45657143D01*
X8242857Y46657143D02*
X7042857Y46657143D01*
X7042857Y47038096D01*
X7100000Y47133334D01*
X7157142Y47180953D01*
X7271428Y47228572D01*
X7442857Y47228572D01*
X7557142Y47180953D01*
X7614285Y47133334D01*
X7671428Y47038096D01*
X7671428Y46657143D01*
X8242857Y47657143D02*
X7042857Y47657143D01*
X7614285Y47657143D02*
X7614285Y48228572D01*
X8242857Y48228572D02*
X7042857Y48228572D01*
X7042857Y48895239D02*
X7042857Y49085715D01*
X7100000Y49180953D01*
X7214285Y49276191D01*
X7442857Y49323810D01*
X7842857Y49323810D01*
X8071428Y49276191D01*
X8185714Y49180953D01*
X8242857Y49085715D01*
X8242857Y48895239D01*
X8185714Y48800000D01*
X8071428Y48704762D01*
X7842857Y48657143D01*
X7442857Y48657143D01*
X7214285Y48704762D01*
X7100000Y48800000D01*
X7042857Y48895239D01*
X8242857Y49752381D02*
X7042857Y49752381D01*
X8242857Y50323810D01*
X7042857Y50323810D01*
X7614285Y50800000D02*
X7614285Y51133334D01*
X8242857Y51276191D02*
X8242857Y50800000D01*
X7042857Y50800000D01*
X7042857Y51276191D01*
X8185714Y51657143D02*
X8242857Y51800000D01*
X8242857Y52038096D01*
X8185714Y52133334D01*
X8128571Y52180953D01*
X8014285Y52228572D01*
X7900000Y52228572D01*
X7785714Y52180953D01*
X7728571Y52133334D01*
X7671428Y52038096D01*
X7614285Y51847620D01*
X7557142Y51752381D01*
X7500000Y51704762D01*
X7385714Y51657143D01*
X7271428Y51657143D01*
X7157142Y51704762D01*
X7100000Y51752381D01*
X7042857Y51847620D01*
X7042857Y52085715D01*
X7100000Y52228572D01*
X7042857Y53276191D02*
X8242857Y53609524D01*
X7042857Y53942858D01*
X7042857Y54466667D02*
X7042857Y54657143D01*
X7100000Y54752381D01*
X7214285Y54847620D01*
X7442857Y54895239D01*
X7842857Y54895239D01*
X8071428Y54847620D01*
X8185714Y54752381D01*
X8242857Y54657143D01*
X8242857Y54466667D01*
X8185714Y54371429D01*
X8071428Y54276191D01*
X7842857Y54228572D01*
X7442857Y54228572D01*
X7214285Y54276191D01*
X7100000Y54371429D01*
X7042857Y54466667D01*
X8242857Y55800000D02*
X8242857Y55323810D01*
X7042857Y55323810D01*
X7042857Y56133334D02*
X8014285Y56133334D01*
X8128571Y56180953D01*
X8185714Y56228572D01*
X8242857Y56323810D01*
X8242857Y56514286D01*
X8185714Y56609524D01*
X8128571Y56657143D01*
X8014285Y56704762D01*
X7042857Y56704762D01*
X8242857Y57180953D02*
X7042857Y57180953D01*
X7900000Y57514286D01*
X7042857Y57847620D01*
X8242857Y57847620D01*
X7614285Y58323810D02*
X7614285Y58657143D01*
X8242857Y58800000D02*
X8242857Y58323810D01*
X7042857Y58323810D01*
X7042857Y58800000D01*
X16452380Y81800000D02*
X16928571Y81800000D01*
X16357142Y81457143D02*
X16690476Y82657143D01*
X17023809Y81457143D01*
X17357142Y82657143D02*
X17357142Y81685715D01*
X17404761Y81571429D01*
X17452380Y81514286D01*
X17547619Y81457143D01*
X17738095Y81457143D01*
X17833333Y81514286D01*
X17880952Y81571429D01*
X17928571Y81685715D01*
X17928571Y82657143D01*
X18404761Y81457143D02*
X18404761Y82657143D01*
X18642857Y82657143D01*
X18785714Y82600000D01*
X18880952Y82485715D01*
X18928571Y82371429D01*
X18976190Y82142858D01*
X18976190Y81971429D01*
X18928571Y81742858D01*
X18880952Y81628572D01*
X18785714Y81514286D01*
X18642857Y81457143D01*
X18404761Y81457143D01*
X19404761Y81457143D02*
X19404761Y82657143D01*
X20071428Y82657143D02*
X20261904Y82657143D01*
X20357142Y82600000D01*
X20452380Y82485715D01*
X20500000Y82257143D01*
X20500000Y81857143D01*
X20452380Y81628572D01*
X20357142Y81514286D01*
X20261904Y81457143D01*
X20071428Y81457143D01*
X19976190Y81514286D01*
X19880952Y81628572D01*
X19833333Y81857143D01*
X19833333Y82257143D01*
X19880952Y82485715D01*
X19976190Y82600000D01*
X20071428Y82657143D01*
X21690476Y81457143D02*
X21690476Y82657143D01*
X22166666Y81457143D02*
X22166666Y82657143D01*
X22738095Y81457143D01*
X22738095Y82657143D01*
X24547619Y81457143D02*
X24214285Y82028572D01*
X23976190Y81457143D02*
X23976190Y82657143D01*
X24357142Y82657143D01*
X24452380Y82600000D01*
X24500000Y82542858D01*
X24547619Y82428572D01*
X24547619Y82257143D01*
X24500000Y82142858D01*
X24452380Y82085715D01*
X24357142Y82028572D01*
X23976190Y82028572D01*
X4547619Y81800000D02*
X5023809Y81800000D01*
X4452380Y81457143D02*
X4785714Y82657143D01*
X5119047Y81457143D01*
X5452380Y82657143D02*
X5452380Y81685715D01*
X5500000Y81571429D01*
X5547619Y81514286D01*
X5642857Y81457143D01*
X5833333Y81457143D01*
X5928571Y81514286D01*
X5976190Y81571429D01*
X6023809Y81685715D01*
X6023809Y82657143D01*
X6500000Y81457143D02*
X6500000Y82657143D01*
X6738095Y82657143D01*
X6880952Y82600000D01*
X6976190Y82485715D01*
X7023809Y82371429D01*
X7071428Y82142858D01*
X7071428Y81971429D01*
X7023809Y81742858D01*
X6976190Y81628572D01*
X6880952Y81514286D01*
X6738095Y81457143D01*
X6500000Y81457143D01*
X7500000Y81457143D02*
X7500000Y82657143D01*
X8166666Y82657143D02*
X8357142Y82657143D01*
X8452380Y82600000D01*
X8547619Y82485715D01*
X8595238Y82257143D01*
X8595238Y81857143D01*
X8547619Y81628572D01*
X8452380Y81514286D01*
X8357142Y81457143D01*
X8166666Y81457143D01*
X8071428Y81514286D01*
X7976190Y81628572D01*
X7928571Y81857143D01*
X7928571Y82257143D01*
X7976190Y82485715D01*
X8071428Y82600000D01*
X8166666Y82657143D01*
X9785714Y81457143D02*
X9785714Y82657143D01*
X10261904Y81457143D02*
X10261904Y82657143D01*
X10833333Y81457143D01*
X10833333Y82657143D01*
X12547619Y81457143D02*
X12071428Y81457143D01*
X12071428Y82657143D01*
X8942857Y5433334D02*
X7742857Y5433334D01*
X8314285Y5433334D02*
X8314285Y6004762D01*
X8942857Y6004762D02*
X7742857Y6004762D01*
X8314285Y6480953D02*
X8314285Y6814286D01*
X8942857Y6957143D02*
X8942857Y6480953D01*
X7742857Y6480953D01*
X7742857Y6957143D01*
X8600000Y7338096D02*
X8600000Y7814286D01*
X8942857Y7242858D02*
X7742857Y7576191D01*
X8942857Y7909524D01*
X8942857Y8242858D02*
X7742857Y8242858D01*
X7742857Y8480953D01*
X7800000Y8623810D01*
X7914285Y8719048D01*
X8028571Y8766667D01*
X8257142Y8814286D01*
X8428571Y8814286D01*
X8657142Y8766667D01*
X8771428Y8719048D01*
X8885714Y8623810D01*
X8942857Y8480953D01*
X8942857Y8242858D01*
X8942857Y9242858D02*
X7742857Y9242858D01*
X7742857Y9623810D01*
X7800000Y9719048D01*
X7857142Y9766667D01*
X7971428Y9814286D01*
X8142857Y9814286D01*
X8257142Y9766667D01*
X8314285Y9719048D01*
X8371428Y9623810D01*
X8371428Y9242858D01*
X8942857Y10242858D02*
X7742857Y10242858D01*
X8314285Y10242858D02*
X8314285Y10814286D01*
X8942857Y10814286D02*
X7742857Y10814286D01*
X7742857Y11480953D02*
X7742857Y11671429D01*
X7800000Y11766667D01*
X7914285Y11861905D01*
X8142857Y11909524D01*
X8542857Y11909524D01*
X8771428Y11861905D01*
X8885714Y11766667D01*
X8942857Y11671429D01*
X8942857Y11480953D01*
X8885714Y11385715D01*
X8771428Y11290477D01*
X8542857Y11242858D01*
X8142857Y11242858D01*
X7914285Y11290477D01*
X7800000Y11385715D01*
X7742857Y11480953D01*
X8942857Y12338096D02*
X7742857Y12338096D01*
X8942857Y12909524D01*
X7742857Y12909524D01*
X8314285Y13385715D02*
X8314285Y13719048D01*
X8942857Y13861905D02*
X8942857Y13385715D01*
X7742857Y13385715D01*
X7742857Y13861905D01*
X8885714Y14242858D02*
X8942857Y14385715D01*
X8942857Y14623810D01*
X8885714Y14719048D01*
X8828571Y14766667D01*
X8714285Y14814286D01*
X8600000Y14814286D01*
X8485714Y14766667D01*
X8428571Y14719048D01*
X8371428Y14623810D01*
X8314285Y14433334D01*
X8257142Y14338096D01*
X8200000Y14290477D01*
X8085714Y14242858D01*
X7971428Y14242858D01*
X7857142Y14290477D01*
X7800000Y14338096D01*
X7742857Y14433334D01*
X7742857Y14671429D01*
X7800000Y14814286D01*
X1376190Y104175000D02*
X1852380Y104175000D01*
X1280952Y103832143D02*
X1614285Y105032143D01*
X1947619Y103832143D01*
X2280952Y105032143D02*
X2280952Y104060715D01*
X2328571Y103946429D01*
X2376190Y103889286D01*
X2471428Y103832143D01*
X2661904Y103832143D01*
X2757142Y103889286D01*
X2804761Y103946429D01*
X2852380Y104060715D01*
X2852380Y105032143D01*
X3328571Y103832143D02*
X3328571Y105032143D01*
X3566666Y105032143D01*
X3709523Y104975000D01*
X3804761Y104860715D01*
X3852380Y104746429D01*
X3900000Y104517858D01*
X3900000Y104346429D01*
X3852380Y104117858D01*
X3804761Y104003572D01*
X3709523Y103889286D01*
X3566666Y103832143D01*
X3328571Y103832143D01*
X4328571Y103832143D02*
X4328571Y105032143D01*
X4995238Y105032143D02*
X5185714Y105032143D01*
X5280952Y104975000D01*
X5376190Y104860715D01*
X5423809Y104632143D01*
X5423809Y104232143D01*
X5376190Y104003572D01*
X5280952Y103889286D01*
X5185714Y103832143D01*
X4995238Y103832143D01*
X4900000Y103889286D01*
X4804761Y104003572D01*
X4757142Y104232143D01*
X4757142Y104632143D01*
X4804761Y104860715D01*
X4900000Y104975000D01*
X4995238Y105032143D01*
X2780952Y103082143D02*
X2971428Y103082143D01*
X3066666Y103025000D01*
X3161904Y102910715D01*
X3209523Y102682143D01*
X3209523Y102282143D01*
X3161904Y102053572D01*
X3066666Y101939286D01*
X2971428Y101882143D01*
X2780952Y101882143D01*
X2685714Y101939286D01*
X2590476Y102053572D01*
X2542857Y102282143D01*
X2542857Y102682143D01*
X2590476Y102910715D01*
X2685714Y103025000D01*
X2780952Y103082143D01*
X3638095Y103082143D02*
X3638095Y102110715D01*
X3685714Y101996429D01*
X3733333Y101939286D01*
X3828571Y101882143D01*
X4019047Y101882143D01*
X4114285Y101939286D01*
X4161904Y101996429D01*
X4209523Y102110715D01*
X4209523Y103082143D01*
X4542857Y103082143D02*
X5114285Y103082143D01*
X4828571Y101882143D02*
X4828571Y103082143D01*
D10*
X22849500Y49590000D02*
X20944500Y49590000D01*
X22849500Y49272500D02*
X20944500Y49272500D01*
X21897000Y53082500D02*
X21897000Y53908000D01*
X21897000Y48637500D02*
X21897000Y47748500D01*
X22849500Y53082500D02*
X22849500Y48637500D01*
X22849500Y48637500D02*
X20944500Y48637500D01*
X20944500Y48637500D02*
X20944500Y53082500D01*
X20944500Y53082500D02*
X22849500Y53082500D01*
X18500000Y37500000D02*
X18500000Y36000000D01*
X18500000Y37900000D02*
X18500000Y39400000D01*
X17900000Y37900000D02*
X19100000Y37900000D01*
X17900000Y37500000D02*
X19100000Y37500000D01*
X17600000Y34400000D02*
X17600000Y41000000D01*
X17600000Y41000000D02*
X19400000Y41000000D01*
X19400000Y41000000D02*
X19400000Y34400000D01*
X19400000Y34400000D02*
X17600000Y34400000D01*
X2466000Y77476000D02*
X2466000Y78976000D01*
X2466000Y77076000D02*
X2466000Y75576000D01*
X3066000Y77076000D02*
X1866000Y77076000D01*
X3066000Y77476000D02*
X1866000Y77476000D01*
X3366000Y80576000D02*
X3366000Y73976000D01*
X3366000Y73976000D02*
X1566000Y73976000D01*
X1566000Y73976000D02*
X1566000Y80576000D01*
X1566000Y80576000D02*
X3366000Y80576000D01*
X26469000Y77476000D02*
X26469000Y78976000D01*
X26469000Y77076000D02*
X26469000Y75576000D01*
X27069000Y77076000D02*
X25869000Y77076000D01*
X27069000Y77476000D02*
X25869000Y77476000D01*
X27369000Y80576000D02*
X27369000Y73976000D01*
X27369000Y73976000D02*
X25569000Y73976000D01*
X25569000Y73976000D02*
X25569000Y80576000D01*
X25569000Y80576000D02*
X27369000Y80576000D01*
X13900000Y19500000D02*
X13900000Y18000000D01*
X13900000Y19900000D02*
X13900000Y21400000D01*
X13300000Y19900000D02*
X14500000Y19900000D01*
X13300000Y19500000D02*
X14500000Y19500000D01*
X13000000Y16400000D02*
X13000000Y23000000D01*
X13000000Y23000000D02*
X14800000Y23000000D01*
X14800000Y23000000D02*
X14800000Y16400000D01*
X14800000Y16400000D02*
X13000000Y16400000D01*
X24500000Y22100000D02*
X26000000Y22100000D01*
X24100000Y22100000D02*
X22600000Y22100000D01*
X24100000Y21500000D02*
X24100000Y22700000D01*
X24500000Y21500000D02*
X24500000Y22700000D01*
X27600000Y21200000D02*
X21000000Y21200000D01*
X21000000Y21200000D02*
X21000000Y23000000D01*
X21000000Y23000000D02*
X27600000Y23000000D01*
X27600000Y23000000D02*
X27600000Y21200000D01*
X13700000Y40200000D02*
X12200000Y40200000D01*
X14100000Y40200000D02*
X15600000Y40200000D01*
X14100000Y40800000D02*
X14100000Y39600000D01*
X13700000Y40800000D02*
X13700000Y39600000D01*
X10600000Y41100000D02*
X17200000Y41100000D01*
X17200000Y41100000D02*
X17200000Y39300000D01*
X17200000Y39300000D02*
X10600000Y39300000D01*
X10600000Y39300000D02*
X10600000Y41100000D01*
X13830000Y38705000D02*
X13830000Y34895000D01*
X13826017Y34897661D02*
G75*
G03X13830000Y38705000I1273983J1902339D01*
G01*
X9903000Y26137000D02*
X9903000Y24867000D01*
X9903000Y24867000D02*
X10157000Y24867000D01*
X10157000Y24867000D02*
X10157000Y19533000D01*
X10157000Y19533000D02*
X9903000Y19533000D01*
X9903000Y19533000D02*
X9903000Y18263000D01*
X9903000Y18263000D02*
X10792000Y18263000D01*
X10792000Y26137000D02*
X9903000Y26137000D01*
X12697000Y26137000D02*
X11808000Y26137000D01*
X12697000Y26137000D02*
X12697000Y24867000D01*
X12697000Y24867000D02*
X12443000Y24867000D01*
X12443000Y24867000D02*
X12443000Y19533000D01*
X12443000Y19533000D02*
X12697000Y19533000D01*
X12697000Y19533000D02*
X12697000Y18263000D01*
X12697000Y18263000D02*
X11808000Y18263000D01*
X15463000Y23403000D02*
X16733000Y23403000D01*
X16733000Y23403000D02*
X16733000Y23657000D01*
X16733000Y23657000D02*
X22067000Y23657000D01*
X22067000Y23657000D02*
X22067000Y23403000D01*
X22067000Y23403000D02*
X23337000Y23403000D01*
X23337000Y23403000D02*
X23337000Y24292000D01*
X15463000Y24292000D02*
X15463000Y23403000D01*
X15463000Y26197000D02*
X15463000Y25308000D01*
X15463000Y26197000D02*
X16733000Y26197000D01*
X16733000Y26197000D02*
X16733000Y25943000D01*
X16733000Y25943000D02*
X22067000Y25943000D01*
X22067000Y25943000D02*
X22067000Y26197000D01*
X22067000Y26197000D02*
X23337000Y26197000D01*
X23337000Y26197000D02*
X23337000Y25308000D01*
X20147500Y101770000D02*
X22052500Y101770000D01*
X20147500Y102087500D02*
X22052500Y102087500D01*
X21100000Y98277500D02*
X21100000Y97452000D01*
X21100000Y102722500D02*
X21100000Y103611500D01*
X20147500Y98277500D02*
X20147500Y102722500D01*
X20147500Y102722500D02*
X22052500Y102722500D01*
X22052500Y102722500D02*
X22052500Y98277500D01*
X22052500Y98277500D02*
X20147500Y98277500D01*
X22052500Y89630000D02*
X20147500Y89630000D01*
X22052500Y89312500D02*
X20147500Y89312500D01*
X21100000Y93122500D02*
X21100000Y93948000D01*
X21100000Y88677500D02*
X21100000Y87788500D01*
X22052500Y93122500D02*
X22052500Y88677500D01*
X22052500Y88677500D02*
X20147500Y88677500D01*
X20147500Y88677500D02*
X20147500Y93122500D01*
X20147500Y93122500D02*
X22052500Y93122500D01*
X25008500Y49590000D02*
X23103500Y49590000D01*
X25008500Y49272500D02*
X23103500Y49272500D01*
X24056000Y53082500D02*
X24056000Y53908000D01*
X24056000Y48637500D02*
X24056000Y47748500D01*
X25008500Y53082500D02*
X25008500Y48637500D01*
X25008500Y48637500D02*
X23103500Y48637500D01*
X23103500Y48637500D02*
X23103500Y53082500D01*
X23103500Y53082500D02*
X25008500Y53082500D01*
X25452500Y99230000D02*
X23547500Y99230000D01*
X25452500Y98912500D02*
X23547500Y98912500D01*
X24500000Y102722500D02*
X24500000Y103548000D01*
X24500000Y98277500D02*
X24500000Y97388500D01*
X25452500Y102722500D02*
X25452500Y98277500D01*
X25452500Y98277500D02*
X23547500Y98277500D01*
X23547500Y98277500D02*
X23547500Y102722500D01*
X23547500Y102722500D02*
X25452500Y102722500D01*
X23547500Y92170000D02*
X25452500Y92170000D01*
X23547500Y92487500D02*
X25452500Y92487500D01*
X24500000Y88677500D02*
X24500000Y87852000D01*
X24500000Y93122500D02*
X24500000Y94011500D01*
X23547500Y88677500D02*
X23547500Y93122500D01*
X23547500Y93122500D02*
X25452500Y93122500D01*
X25452500Y93122500D02*
X25452500Y88677500D01*
X25452500Y88677500D02*
X23547500Y88677500D01*
X22849500Y38541000D02*
X20944500Y38541000D01*
X22849500Y38223500D02*
X20944500Y38223500D01*
X21897000Y42033500D02*
X21897000Y42859000D01*
X21897000Y37588500D02*
X21897000Y36699500D01*
X22849500Y42033500D02*
X22849500Y37588500D01*
X22849500Y37588500D02*
X20944500Y37588500D01*
X20944500Y37588500D02*
X20944500Y42033500D01*
X20944500Y42033500D02*
X22849500Y42033500D01*
X25247500Y52170000D02*
X27152500Y52170000D01*
X25247500Y52487500D02*
X27152500Y52487500D01*
X26200000Y48677500D02*
X26200000Y47852000D01*
X26200000Y53122500D02*
X26200000Y54011500D01*
X25247500Y48677500D02*
X25247500Y53122500D01*
X25247500Y53122500D02*
X27152500Y53122500D01*
X27152500Y53122500D02*
X27152500Y48677500D01*
X27152500Y48677500D02*
X25247500Y48677500D01*
X7611000Y70301000D02*
X3801000Y70301000D01*
X3801000Y70301000D02*
X3801000Y81223000D01*
X3801000Y81223000D02*
X13199000Y81223000D01*
X13199000Y81223000D02*
X13199000Y70301000D01*
X13199000Y70301000D02*
X9389000Y70301000D01*
X19611000Y70301000D02*
X15801000Y70301000D01*
X15801000Y70301000D02*
X15801000Y81223000D01*
X15801000Y81223000D02*
X25199000Y81223000D01*
X25199000Y81223000D02*
X25199000Y70301000D01*
X25199000Y70301000D02*
X21389000Y70301000D01*
X2112500Y29246500D02*
X2112500Y21753500D01*
X2112500Y21753500D02*
X5287500Y21753500D01*
X5287500Y21753500D02*
X5287500Y29246500D01*
X5287500Y29246500D02*
X2112500Y29246500D01*
X6212500Y29246500D02*
X6212500Y21753500D01*
X6212500Y21753500D02*
X9387500Y21753500D01*
X9387500Y21753500D02*
X9387500Y29246500D01*
X9387500Y29246500D02*
X6212500Y29246500D01*
X4492000Y33233000D02*
X3603000Y33233000D01*
X6397000Y33233000D02*
X5508000Y33233000D01*
X4492000Y38567000D02*
X3603000Y38567000D01*
X6397000Y38567000D02*
X5508000Y38567000D01*
X6397000Y34122000D02*
X3603000Y34122000D01*
X6397000Y33868000D02*
X3603000Y33868000D01*
X6397000Y38567000D02*
X6397000Y33233000D01*
X3603000Y33233000D02*
X3603000Y38567000D01*
X8708000Y38567000D02*
X9597000Y38567000D01*
X6803000Y38567000D02*
X7692000Y38567000D01*
X8708000Y33233000D02*
X9597000Y33233000D01*
X6803000Y33233000D02*
X7692000Y33233000D01*
X6803000Y37678000D02*
X9597000Y37678000D01*
X6803000Y37932000D02*
X9597000Y37932000D01*
X6803000Y33233000D02*
X6803000Y38567000D01*
X9597000Y38567000D02*
X9597000Y33233000D01*
X19467000Y32292000D02*
X19467000Y31403000D01*
X19467000Y34197000D02*
X19467000Y33308000D01*
X14133000Y32292000D02*
X14133000Y31403000D01*
X14133000Y34197000D02*
X14133000Y33308000D01*
X18578000Y34197000D02*
X18578000Y31403000D01*
X18832000Y34197000D02*
X18832000Y31403000D01*
X14133000Y34197000D02*
X19467000Y34197000D01*
X19467000Y31403000D02*
X14133000Y31403000D01*
X17929000Y46269000D02*
X19453000Y46269000D01*
X19453000Y46269000D02*
X19453000Y51200000D01*
X9547000Y51200000D02*
X9547000Y46269000D01*
X9547000Y46269000D02*
X11071000Y46269000D01*
X19453000Y54700000D02*
X19453000Y58080000D01*
X19453000Y58080000D02*
X9547000Y58080000D01*
X9547000Y58080000D02*
X9547000Y54700000D01*
X11181000Y82861000D02*
X5181000Y82861000D01*
X11181000Y85661000D02*
X11181000Y82861000D01*
X5181000Y85661000D02*
X11181000Y85661000D01*
X5181000Y82861000D02*
X5181000Y85661000D01*
X11181000Y84261000D02*
X11981000Y84261000D01*
X5181000Y84261000D02*
X4381000Y84261000D01*
X23754000Y84261000D02*
X24554000Y84261000D01*
X17754000Y84261000D02*
X16954000Y84261000D01*
X23754000Y85661000D02*
X23754000Y82861000D01*
X23754000Y82861000D02*
X17754000Y82861000D01*
X17754000Y82861000D02*
X17754000Y85661000D01*
X17754000Y85661000D02*
X23754000Y85661000D01*
X11400000Y59700000D02*
X10600000Y59700000D01*
X17400000Y59700000D02*
X18200000Y59700000D01*
X11400000Y58300000D02*
X11400000Y61100000D01*
X11400000Y61100000D02*
X17400000Y61100000D01*
X17400000Y61100000D02*
X17400000Y58300000D01*
X17400000Y58300000D02*
X11400000Y58300000D01*
X17400000Y61400000D02*
X11400000Y61400000D01*
X17400000Y64200000D02*
X17400000Y61400000D01*
X11400000Y64200000D02*
X17400000Y64200000D01*
X11400000Y61400000D02*
X11400000Y64200000D01*
X17400000Y62800000D02*
X18200000Y62800000D01*
X11400000Y62800000D02*
X10600000Y62800000D01*
X8900000Y102100000D02*
X8900000Y96100000D01*
X6100000Y102100000D02*
X8900000Y102100000D01*
X6100000Y96100000D02*
X6100000Y102100000D01*
X8900000Y96100000D02*
X6100000Y96100000D01*
X7500000Y102100000D02*
X7500000Y102900000D01*
X7500000Y96100000D02*
X7500000Y95300000D01*
X10700000Y87600000D02*
X9900000Y87600000D01*
X16700000Y87600000D02*
X17500000Y87600000D01*
X10700000Y86200000D02*
X10700000Y89000000D01*
X10700000Y89000000D02*
X16700000Y89000000D01*
X16700000Y89000000D02*
X16700000Y86200000D01*
X16700000Y86200000D02*
X10700000Y86200000D01*
X22100000Y4200000D02*
X22100000Y3400000D01*
X22100000Y10200000D02*
X22100000Y11000000D01*
X23500000Y4200000D02*
X20700000Y4200000D01*
X20700000Y4200000D02*
X20700000Y10200000D01*
X20700000Y10200000D02*
X23500000Y10200000D01*
X23500000Y10200000D02*
X23500000Y4200000D01*
X26900000Y10200000D02*
X26900000Y4200000D01*
X24100000Y10200000D02*
X26900000Y10200000D01*
X24100000Y4200000D02*
X24100000Y10200000D01*
X26900000Y4200000D02*
X24100000Y4200000D01*
X25500000Y10200000D02*
X25500000Y11000000D01*
X25500000Y4200000D02*
X25500000Y3400000D01*
X19199000Y92301000D02*
X15389000Y92301000D01*
D14*
X9300000Y92300000D02*
X13600000Y92300000D01*
X9300000Y103200000D02*
X9300000Y92300000D01*
X19700000Y103200000D02*
X9300000Y103200000D01*
X19700000Y92300000D02*
X19700000Y103200000D01*
X15400000Y92300000D02*
X19700000Y92300000D01*
X15400000Y4300000D02*
X19700000Y4300000D01*
X19700000Y4300000D02*
X19700000Y15200000D01*
X19700000Y15200000D02*
X9300000Y15200000D01*
X9300000Y15200000D02*
X9300000Y4300000D01*
X9300000Y4300000D02*
X13600000Y4300000D01*
D10*
X19199000Y4301000D02*
X15389000Y4301000D01*
X20520000Y56323334D02*
X20753333Y55623334D01*
X20986666Y56323334D01*
X21220000Y55623334D02*
X21220000Y56323334D01*
X21386666Y56323334D01*
X21486666Y56290000D01*
X21553333Y56223334D01*
X21586666Y56156667D01*
X21620000Y56023334D01*
X21620000Y55923334D01*
X21586666Y55790000D01*
X21553333Y55723334D01*
X21486666Y55656667D01*
X21386666Y55623334D01*
X21220000Y55623334D01*
X22286666Y55623334D02*
X21886666Y55623334D01*
X22086666Y55623334D02*
X22086666Y56323334D01*
X22020000Y56223334D01*
X21953333Y56156667D01*
X21886666Y56123334D01*
X22553333Y56256667D02*
X22586666Y56290000D01*
X22653333Y56323334D01*
X22820000Y56323334D01*
X22886666Y56290000D01*
X22920000Y56256667D01*
X22953333Y56190000D01*
X22953333Y56123334D01*
X22920000Y56023334D01*
X22520000Y55623334D01*
X22953333Y55623334D01*
X18050000Y41883334D02*
X18116666Y41883334D01*
X18183333Y41850000D01*
X18216666Y41816667D01*
X18250000Y41750000D01*
X18283333Y41616667D01*
X18283333Y41450000D01*
X18250000Y41316667D01*
X18216666Y41250000D01*
X18183333Y41216667D01*
X18116666Y41183334D01*
X18050000Y41183334D01*
X17983333Y41216667D01*
X17950000Y41250000D01*
X17916666Y41316667D01*
X17883333Y41450000D01*
X17883333Y41616667D01*
X17916666Y41750000D01*
X17950000Y41816667D01*
X17983333Y41850000D01*
X18050000Y41883334D01*
X18583333Y41250000D02*
X18616666Y41216667D01*
X18583333Y41183334D01*
X18550000Y41216667D01*
X18583333Y41250000D01*
X18583333Y41183334D01*
X19283333Y41183334D02*
X18883333Y41183334D01*
X19083333Y41183334D02*
X19083333Y41883334D01*
X19016666Y41783334D01*
X18950000Y41716667D01*
X18883333Y41683334D01*
X19883333Y41650000D02*
X19883333Y41183334D01*
X19583333Y41650000D02*
X19583333Y41283334D01*
X19616666Y41216667D01*
X19683333Y41183334D01*
X19783333Y41183334D01*
X19850000Y41216667D01*
X19883333Y41250000D01*
X20450000Y41550000D02*
X20216666Y41550000D01*
X20216666Y41183334D02*
X20216666Y41883334D01*
X20550000Y41883334D01*
X18883333Y42150000D02*
X18850000Y42116667D01*
X18750000Y42083334D01*
X18683333Y42083334D01*
X18583333Y42116667D01*
X18516666Y42183334D01*
X18483333Y42250000D01*
X18450000Y42383334D01*
X18450000Y42483334D01*
X18483333Y42616667D01*
X18516666Y42683334D01*
X18583333Y42750000D01*
X18683333Y42783334D01*
X18750000Y42783334D01*
X18850000Y42750000D01*
X18883333Y42716667D01*
X19116666Y42783334D02*
X19550000Y42783334D01*
X19316666Y42516667D01*
X19416666Y42516667D01*
X19483333Y42483334D01*
X19516666Y42450000D01*
X19550000Y42383334D01*
X19550000Y42216667D01*
X19516666Y42150000D01*
X19483333Y42116667D01*
X19416666Y42083334D01*
X19216666Y42083334D01*
X19150000Y42116667D01*
X19116666Y42150000D01*
X1650000Y72183334D02*
X1250000Y72183334D01*
X1450000Y72183334D02*
X1450000Y72883334D01*
X1383333Y72783334D01*
X1316666Y72716667D01*
X1250000Y72683334D01*
X2283333Y72883334D02*
X1950000Y72883334D01*
X1916666Y72550000D01*
X1950000Y72583334D01*
X2016666Y72616667D01*
X2183333Y72616667D01*
X2250000Y72583334D01*
X2283333Y72550000D01*
X2316666Y72483334D01*
X2316666Y72316667D01*
X2283333Y72250000D01*
X2250000Y72216667D01*
X2183333Y72183334D01*
X2016666Y72183334D01*
X1950000Y72216667D01*
X1916666Y72250000D01*
X2616666Y72650000D02*
X2616666Y71950000D01*
X2616666Y72616667D02*
X2683333Y72650000D01*
X2816666Y72650000D01*
X2883333Y72616667D01*
X2916666Y72583334D01*
X2950000Y72516667D01*
X2950000Y72316667D01*
X2916666Y72250000D01*
X2883333Y72216667D01*
X2816666Y72183334D01*
X2683333Y72183334D01*
X2616666Y72216667D01*
X3483333Y72550000D02*
X3250000Y72550000D01*
X3250000Y72183334D02*
X3250000Y72883334D01*
X3583333Y72883334D01*
X2349333Y73089000D02*
X2316000Y73055667D01*
X2216000Y73022334D01*
X2149333Y73022334D01*
X2049333Y73055667D01*
X1982666Y73122334D01*
X1949333Y73189000D01*
X1916000Y73322334D01*
X1916000Y73422334D01*
X1949333Y73555667D01*
X1982666Y73622334D01*
X2049333Y73689000D01*
X2149333Y73722334D01*
X2216000Y73722334D01*
X2316000Y73689000D01*
X2349333Y73655667D01*
X2949333Y73489000D02*
X2949333Y73022334D01*
X2782666Y73755667D02*
X2616000Y73255667D01*
X3049333Y73255667D01*
X25846000Y72133334D02*
X25446000Y72133334D01*
X25646000Y72133334D02*
X25646000Y72833334D01*
X25579333Y72733334D01*
X25512666Y72666667D01*
X25446000Y72633334D01*
X26479333Y72833334D02*
X26146000Y72833334D01*
X26112666Y72500000D01*
X26146000Y72533334D01*
X26212666Y72566667D01*
X26379333Y72566667D01*
X26446000Y72533334D01*
X26479333Y72500000D01*
X26512666Y72433334D01*
X26512666Y72266667D01*
X26479333Y72200000D01*
X26446000Y72166667D01*
X26379333Y72133334D01*
X26212666Y72133334D01*
X26146000Y72166667D01*
X26112666Y72200000D01*
X26812666Y72600000D02*
X26812666Y71900000D01*
X26812666Y72566667D02*
X26879333Y72600000D01*
X27012666Y72600000D01*
X27079333Y72566667D01*
X27112666Y72533334D01*
X27146000Y72466667D01*
X27146000Y72266667D01*
X27112666Y72200000D01*
X27079333Y72166667D01*
X27012666Y72133334D01*
X26879333Y72133334D01*
X26812666Y72166667D01*
X27679333Y72500000D02*
X27446000Y72500000D01*
X27446000Y72133334D02*
X27446000Y72833334D01*
X27779333Y72833334D01*
X26352333Y73089000D02*
X26319000Y73055667D01*
X26219000Y73022334D01*
X26152333Y73022334D01*
X26052333Y73055667D01*
X25985666Y73122334D01*
X25952333Y73189000D01*
X25919000Y73322334D01*
X25919000Y73422334D01*
X25952333Y73555667D01*
X25985666Y73622334D01*
X26052333Y73689000D01*
X26152333Y73722334D01*
X26219000Y73722334D01*
X26319000Y73689000D01*
X26352333Y73655667D01*
X26985666Y73722334D02*
X26652333Y73722334D01*
X26619000Y73389000D01*
X26652333Y73422334D01*
X26719000Y73455667D01*
X26885666Y73455667D01*
X26952333Y73422334D01*
X26985666Y73389000D01*
X27019000Y73322334D01*
X27019000Y73155667D01*
X26985666Y73089000D01*
X26952333Y73055667D01*
X26885666Y73022334D01*
X26719000Y73022334D01*
X26652333Y73055667D01*
X26619000Y73089000D01*
X15250000Y17283334D02*
X15316666Y17283334D01*
X15383333Y17250000D01*
X15416666Y17216667D01*
X15450000Y17150000D01*
X15483333Y17016667D01*
X15483333Y16850000D01*
X15450000Y16716667D01*
X15416666Y16650000D01*
X15383333Y16616667D01*
X15316666Y16583334D01*
X15250000Y16583334D01*
X15183333Y16616667D01*
X15150000Y16650000D01*
X15116666Y16716667D01*
X15083333Y16850000D01*
X15083333Y17016667D01*
X15116666Y17150000D01*
X15150000Y17216667D01*
X15183333Y17250000D01*
X15250000Y17283334D01*
X15783333Y16650000D02*
X15816666Y16616667D01*
X15783333Y16583334D01*
X15750000Y16616667D01*
X15783333Y16650000D01*
X15783333Y16583334D01*
X16483333Y16583334D02*
X16083333Y16583334D01*
X16283333Y16583334D02*
X16283333Y17283334D01*
X16216666Y17183334D01*
X16150000Y17116667D01*
X16083333Y17083334D01*
X17083333Y17050000D02*
X17083333Y16583334D01*
X16783333Y17050000D02*
X16783333Y16683334D01*
X16816666Y16616667D01*
X16883333Y16583334D01*
X16983333Y16583334D01*
X17050000Y16616667D01*
X17083333Y16650000D01*
X17650000Y16950000D02*
X17416666Y16950000D01*
X17416666Y16583334D02*
X17416666Y17283334D01*
X17750000Y17283334D01*
X15483333Y17650000D02*
X15450000Y17616667D01*
X15350000Y17583334D01*
X15283333Y17583334D01*
X15183333Y17616667D01*
X15116666Y17683334D01*
X15083333Y17750000D01*
X15050000Y17883334D01*
X15050000Y17983334D01*
X15083333Y18116667D01*
X15116666Y18183334D01*
X15183333Y18250000D01*
X15283333Y18283334D01*
X15350000Y18283334D01*
X15450000Y18250000D01*
X15483333Y18216667D01*
X16083333Y18283334D02*
X15950000Y18283334D01*
X15883333Y18250000D01*
X15850000Y18216667D01*
X15783333Y18116667D01*
X15750000Y17983334D01*
X15750000Y17716667D01*
X15783333Y17650000D01*
X15816666Y17616667D01*
X15883333Y17583334D01*
X16016666Y17583334D01*
X16083333Y17616667D01*
X16116666Y17650000D01*
X16150000Y17716667D01*
X16150000Y17883334D01*
X16116666Y17950000D01*
X16083333Y17983334D01*
X16016666Y18016667D01*
X15883333Y18016667D01*
X15816666Y17983334D01*
X15783333Y17950000D01*
X15750000Y17883334D01*
X25650000Y20083334D02*
X25716666Y20083334D01*
X25783333Y20050000D01*
X25816666Y20016667D01*
X25850000Y19950000D01*
X25883333Y19816667D01*
X25883333Y19650000D01*
X25850000Y19516667D01*
X25816666Y19450000D01*
X25783333Y19416667D01*
X25716666Y19383334D01*
X25650000Y19383334D01*
X25583333Y19416667D01*
X25550000Y19450000D01*
X25516666Y19516667D01*
X25483333Y19650000D01*
X25483333Y19816667D01*
X25516666Y19950000D01*
X25550000Y20016667D01*
X25583333Y20050000D01*
X25650000Y20083334D01*
X26183333Y19450000D02*
X26216666Y19416667D01*
X26183333Y19383334D01*
X26150000Y19416667D01*
X26183333Y19450000D01*
X26183333Y19383334D01*
X26883333Y19383334D02*
X26483333Y19383334D01*
X26683333Y19383334D02*
X26683333Y20083334D01*
X26616666Y19983334D01*
X26550000Y19916667D01*
X26483333Y19883334D01*
X27483333Y19850000D02*
X27483333Y19383334D01*
X27183333Y19850000D02*
X27183333Y19483334D01*
X27216666Y19416667D01*
X27283333Y19383334D01*
X27383333Y19383334D01*
X27450000Y19416667D01*
X27483333Y19450000D01*
X28050000Y19750000D02*
X27816666Y19750000D01*
X27816666Y19383334D02*
X27816666Y20083334D01*
X28150000Y20083334D01*
X26683333Y20350000D02*
X26650000Y20316667D01*
X26550000Y20283334D01*
X26483333Y20283334D01*
X26383333Y20316667D01*
X26316666Y20383334D01*
X26283333Y20450000D01*
X26250000Y20583334D01*
X26250000Y20683334D01*
X26283333Y20816667D01*
X26316666Y20883334D01*
X26383333Y20950000D01*
X26483333Y20983334D01*
X26550000Y20983334D01*
X26650000Y20950000D01*
X26683333Y20916667D01*
X26916666Y20983334D02*
X27383333Y20983334D01*
X27083333Y20283334D01*
X10550000Y38283334D02*
X10616666Y38283334D01*
X10683333Y38250000D01*
X10716666Y38216667D01*
X10750000Y38150000D01*
X10783333Y38016667D01*
X10783333Y37850000D01*
X10750000Y37716667D01*
X10716666Y37650000D01*
X10683333Y37616667D01*
X10616666Y37583334D01*
X10550000Y37583334D01*
X10483333Y37616667D01*
X10450000Y37650000D01*
X10416666Y37716667D01*
X10383333Y37850000D01*
X10383333Y38016667D01*
X10416666Y38150000D01*
X10450000Y38216667D01*
X10483333Y38250000D01*
X10550000Y38283334D01*
X11083333Y37650000D02*
X11116666Y37616667D01*
X11083333Y37583334D01*
X11050000Y37616667D01*
X11083333Y37650000D01*
X11083333Y37583334D01*
X11783333Y37583334D02*
X11383333Y37583334D01*
X11583333Y37583334D02*
X11583333Y38283334D01*
X11516666Y38183334D01*
X11450000Y38116667D01*
X11383333Y38083334D01*
X12383333Y38050000D02*
X12383333Y37583334D01*
X12083333Y38050000D02*
X12083333Y37683334D01*
X12116666Y37616667D01*
X12183333Y37583334D01*
X12283333Y37583334D01*
X12350000Y37616667D01*
X12383333Y37650000D01*
X12950000Y37950000D02*
X12716666Y37950000D01*
X12716666Y37583334D02*
X12716666Y38283334D01*
X13050000Y38283334D01*
X10750000Y38450000D02*
X10716666Y38416667D01*
X10616666Y38383334D01*
X10550000Y38383334D01*
X10450000Y38416667D01*
X10383333Y38483334D01*
X10350000Y38550000D01*
X10316666Y38683334D01*
X10316666Y38783334D01*
X10350000Y38916667D01*
X10383333Y38983334D01*
X10450000Y39050000D01*
X10550000Y39083334D01*
X10616666Y39083334D01*
X10716666Y39050000D01*
X10750000Y39016667D01*
X11416666Y38383334D02*
X11016666Y38383334D01*
X11216666Y38383334D02*
X11216666Y39083334D01*
X11150000Y38983334D01*
X11083333Y38916667D01*
X11016666Y38883334D01*
X11650000Y39083334D02*
X12083333Y39083334D01*
X11850000Y38816667D01*
X11950000Y38816667D01*
X12016666Y38783334D01*
X12050000Y38750000D01*
X12083333Y38683334D01*
X12083333Y38516667D01*
X12050000Y38450000D01*
X12016666Y38416667D01*
X11950000Y38383334D01*
X11750000Y38383334D01*
X11683333Y38416667D01*
X11650000Y38450000D01*
X11983333Y34583334D02*
X11983333Y35283334D01*
X12150000Y35283334D01*
X12250000Y35250000D01*
X12316666Y35183334D01*
X12350000Y35116667D01*
X12383333Y34983334D01*
X12383333Y34883334D01*
X12350000Y34750000D01*
X12316666Y34683334D01*
X12250000Y34616667D01*
X12150000Y34583334D01*
X11983333Y34583334D01*
X12650000Y34783334D02*
X12983333Y34783334D01*
X12583333Y34583334D02*
X12816666Y35283334D01*
X13050000Y34583334D01*
X13650000Y34583334D02*
X13250000Y34583334D01*
X13450000Y34583334D02*
X13450000Y35283334D01*
X13383333Y35183334D01*
X13316666Y35116667D01*
X13250000Y35083334D01*
X11183333Y28683334D02*
X10850000Y28683334D01*
X10850000Y29383334D01*
X11783333Y28683334D02*
X11383333Y28683334D01*
X11583333Y28683334D02*
X11583333Y29383334D01*
X11516666Y29283334D01*
X11450000Y29216667D01*
X11383333Y29183334D01*
X18775333Y26261334D02*
X18442000Y26261334D01*
X18442000Y26961334D01*
X18975333Y26894667D02*
X19008666Y26928000D01*
X19075333Y26961334D01*
X19242000Y26961334D01*
X19308666Y26928000D01*
X19342000Y26894667D01*
X19375333Y26828000D01*
X19375333Y26761334D01*
X19342000Y26661334D01*
X18942000Y26261334D01*
X19375333Y26261334D01*
X22240666Y100266000D02*
X22940666Y100499334D01*
X22240666Y100732667D01*
X22940666Y100966000D02*
X22240666Y100966000D01*
X22240666Y101132667D01*
X22274000Y101232667D01*
X22340666Y101299334D01*
X22407333Y101332667D01*
X22540666Y101366000D01*
X22640666Y101366000D01*
X22774000Y101332667D01*
X22840666Y101299334D01*
X22907333Y101232667D01*
X22940666Y101132667D01*
X22940666Y100966000D01*
X22940666Y102032667D02*
X22940666Y101632667D01*
X22940666Y101832667D02*
X22240666Y101832667D01*
X22340666Y101766000D01*
X22407333Y101699334D01*
X22440666Y101632667D01*
X22240666Y102466000D02*
X22240666Y102532667D01*
X22274000Y102599334D01*
X22307333Y102632667D01*
X22374000Y102666000D01*
X22507333Y102699334D01*
X22674000Y102699334D01*
X22807333Y102666000D01*
X22874000Y102632667D01*
X22907333Y102599334D01*
X22940666Y102532667D01*
X22940666Y102466000D01*
X22907333Y102399334D01*
X22874000Y102366000D01*
X22807333Y102332667D01*
X22674000Y102299334D01*
X22507333Y102299334D01*
X22374000Y102332667D01*
X22307333Y102366000D01*
X22274000Y102399334D01*
X22240666Y102466000D01*
X22343666Y88485000D02*
X23043666Y88718334D01*
X22343666Y88951667D01*
X23043666Y89185000D02*
X22343666Y89185000D01*
X22343666Y89351667D01*
X22377000Y89451667D01*
X22443666Y89518334D01*
X22510333Y89551667D01*
X22643666Y89585000D01*
X22743666Y89585000D01*
X22877000Y89551667D01*
X22943666Y89518334D01*
X23010333Y89451667D01*
X23043666Y89351667D01*
X23043666Y89185000D01*
X23043666Y90251667D02*
X23043666Y89851667D01*
X23043666Y90051667D02*
X22343666Y90051667D01*
X22443666Y89985000D01*
X22510333Y89918334D01*
X22543666Y89851667D01*
X23043666Y90918334D02*
X23043666Y90518334D01*
X23043666Y90718334D02*
X22343666Y90718334D01*
X22443666Y90651667D01*
X22510333Y90585000D01*
X22543666Y90518334D01*
X22552000Y57974334D02*
X22785333Y57274334D01*
X23018666Y57974334D01*
X23252000Y57274334D02*
X23252000Y57974334D01*
X23418666Y57974334D01*
X23518666Y57941000D01*
X23585333Y57874334D01*
X23618666Y57807667D01*
X23652000Y57674334D01*
X23652000Y57574334D01*
X23618666Y57441000D01*
X23585333Y57374334D01*
X23518666Y57307667D01*
X23418666Y57274334D01*
X23252000Y57274334D01*
X24318666Y57274334D02*
X23918666Y57274334D01*
X24118666Y57274334D02*
X24118666Y57974334D01*
X24052000Y57874334D01*
X23985333Y57807667D01*
X23918666Y57774334D01*
X24552000Y57974334D02*
X24985333Y57974334D01*
X24752000Y57707667D01*
X24852000Y57707667D01*
X24918666Y57674334D01*
X24952000Y57641000D01*
X24985333Y57574334D01*
X24985333Y57407667D01*
X24952000Y57341000D01*
X24918666Y57307667D01*
X24852000Y57274334D01*
X24652000Y57274334D01*
X24585333Y57307667D01*
X24552000Y57341000D01*
X25616666Y100450000D02*
X26316666Y100683334D01*
X25616666Y100916667D01*
X26316666Y101150000D02*
X25616666Y101150000D01*
X25616666Y101316667D01*
X25650000Y101416667D01*
X25716666Y101483334D01*
X25783333Y101516667D01*
X25916666Y101550000D01*
X26016666Y101550000D01*
X26150000Y101516667D01*
X26216666Y101483334D01*
X26283333Y101416667D01*
X26316666Y101316667D01*
X26316666Y101150000D01*
X26316666Y102216667D02*
X26316666Y101816667D01*
X26316666Y102016667D02*
X25616666Y102016667D01*
X25716666Y101950000D01*
X25783333Y101883334D01*
X25816666Y101816667D01*
X25850000Y102816667D02*
X26316666Y102816667D01*
X25583333Y102650000D02*
X26083333Y102483334D01*
X26083333Y102916667D01*
X23038666Y94607000D02*
X23038666Y94207000D01*
X23038666Y94407000D02*
X22338666Y94407000D01*
X22438666Y94340334D01*
X22505333Y94273667D01*
X22538666Y94207000D01*
X23038666Y94907000D02*
X22338666Y94907000D01*
X23038666Y95307000D01*
X22338666Y95307000D01*
X22572000Y95940334D02*
X23038666Y95940334D01*
X22305333Y95773667D02*
X22805333Y95607000D01*
X22805333Y96040334D01*
X23038666Y96673667D02*
X23038666Y96273667D01*
X23038666Y96473667D02*
X22338666Y96473667D01*
X22438666Y96407000D01*
X22505333Y96340334D01*
X22538666Y96273667D01*
X22572000Y97273667D02*
X23038666Y97273667D01*
X22305333Y97107000D02*
X22805333Y96940334D01*
X22805333Y97373667D01*
X22638666Y97740334D02*
X22605333Y97673667D01*
X22572000Y97640334D01*
X22505333Y97607000D01*
X22472000Y97607000D01*
X22405333Y97640334D01*
X22372000Y97673667D01*
X22338666Y97740334D01*
X22338666Y97873667D01*
X22372000Y97940334D01*
X22405333Y97973667D01*
X22472000Y98007000D01*
X22505333Y98007000D01*
X22572000Y97973667D01*
X22605333Y97940334D01*
X22638666Y97873667D01*
X22638666Y97740334D01*
X22672000Y97673667D01*
X22705333Y97640334D01*
X22772000Y97607000D01*
X22905333Y97607000D01*
X22972000Y97640334D01*
X23005333Y97673667D01*
X23038666Y97740334D01*
X23038666Y97873667D01*
X23005333Y97940334D01*
X22972000Y97973667D01*
X22905333Y98007000D01*
X22772000Y98007000D01*
X22705333Y97973667D01*
X22672000Y97940334D01*
X22638666Y97873667D01*
X25616666Y88650000D02*
X26316666Y88883334D01*
X25616666Y89116667D01*
X26316666Y89350000D02*
X25616666Y89350000D01*
X25616666Y89516667D01*
X25650000Y89616667D01*
X25716666Y89683334D01*
X25783333Y89716667D01*
X25916666Y89750000D01*
X26016666Y89750000D01*
X26150000Y89716667D01*
X26216666Y89683334D01*
X26283333Y89616667D01*
X26316666Y89516667D01*
X26316666Y89350000D01*
X26316666Y90416667D02*
X26316666Y90016667D01*
X26316666Y90216667D02*
X25616666Y90216667D01*
X25716666Y90150000D01*
X25783333Y90083334D01*
X25816666Y90016667D01*
X25616666Y91050000D02*
X25616666Y90716667D01*
X25950000Y90683334D01*
X25916666Y90716667D01*
X25883333Y90783334D01*
X25883333Y90950000D01*
X25916666Y91016667D01*
X25950000Y91050000D01*
X26016666Y91083334D01*
X26183333Y91083334D01*
X26250000Y91050000D01*
X26283333Y91016667D01*
X26316666Y90950000D01*
X26316666Y90783334D01*
X26283333Y90716667D01*
X26250000Y90683334D01*
X23916666Y41600000D02*
X23916666Y41200000D01*
X23916666Y41400000D02*
X23216666Y41400000D01*
X23316666Y41333334D01*
X23383333Y41266667D01*
X23416666Y41200000D01*
X23916666Y41900000D02*
X23216666Y41900000D01*
X23916666Y42300000D01*
X23216666Y42300000D01*
X23450000Y42933334D02*
X23916666Y42933334D01*
X23183333Y42766667D02*
X23683333Y42600000D01*
X23683333Y43033334D01*
X23916666Y43666667D02*
X23916666Y43266667D01*
X23916666Y43466667D02*
X23216666Y43466667D01*
X23316666Y43400000D01*
X23383333Y43333334D01*
X23416666Y43266667D01*
X23450000Y44266667D02*
X23916666Y44266667D01*
X23183333Y44100000D02*
X23683333Y43933334D01*
X23683333Y44366667D01*
X23516666Y44733334D02*
X23483333Y44666667D01*
X23450000Y44633334D01*
X23383333Y44600000D01*
X23350000Y44600000D01*
X23283333Y44633334D01*
X23250000Y44666667D01*
X23216666Y44733334D01*
X23216666Y44866667D01*
X23250000Y44933334D01*
X23283333Y44966667D01*
X23350000Y45000000D01*
X23383333Y45000000D01*
X23450000Y44966667D01*
X23483333Y44933334D01*
X23516666Y44866667D01*
X23516666Y44733334D01*
X23550000Y44666667D01*
X23583333Y44633334D01*
X23650000Y44600000D01*
X23783333Y44600000D01*
X23850000Y44633334D01*
X23883333Y44666667D01*
X23916666Y44733334D01*
X23916666Y44866667D01*
X23883333Y44933334D01*
X23850000Y44966667D01*
X23783333Y45000000D01*
X23650000Y45000000D01*
X23583333Y44966667D01*
X23550000Y44933334D01*
X23516666Y44866667D01*
X23150000Y37983334D02*
X23383333Y37283334D01*
X23616666Y37983334D01*
X23850000Y37283334D02*
X23850000Y37983334D01*
X24016666Y37983334D01*
X24116666Y37950000D01*
X24183333Y37883334D01*
X24216666Y37816667D01*
X24250000Y37683334D01*
X24250000Y37583334D01*
X24216666Y37450000D01*
X24183333Y37383334D01*
X24116666Y37316667D01*
X24016666Y37283334D01*
X23850000Y37283334D01*
X24916666Y37283334D02*
X24516666Y37283334D01*
X24716666Y37283334D02*
X24716666Y37983334D01*
X24650000Y37883334D01*
X24583333Y37816667D01*
X24516666Y37783334D01*
X25516666Y37983334D02*
X25383333Y37983334D01*
X25316666Y37950000D01*
X25283333Y37916667D01*
X25216666Y37816667D01*
X25183333Y37683334D01*
X25183333Y37416667D01*
X25216666Y37350000D01*
X25250000Y37316667D01*
X25316666Y37283334D01*
X25450000Y37283334D01*
X25516666Y37316667D01*
X25550000Y37350000D01*
X25583333Y37416667D01*
X25583333Y37583334D01*
X25550000Y37650000D01*
X25516666Y37683334D01*
X25450000Y37716667D01*
X25316666Y37716667D01*
X25250000Y37683334D01*
X25216666Y37650000D01*
X25183333Y37583334D01*
X24315000Y56617334D02*
X24548333Y55917334D01*
X24781666Y56617334D01*
X25015000Y55917334D02*
X25015000Y56617334D01*
X25181666Y56617334D01*
X25281666Y56584000D01*
X25348333Y56517334D01*
X25381666Y56450667D01*
X25415000Y56317334D01*
X25415000Y56217334D01*
X25381666Y56084000D01*
X25348333Y56017334D01*
X25281666Y55950667D01*
X25181666Y55917334D01*
X25015000Y55917334D01*
X26081666Y55917334D02*
X25681666Y55917334D01*
X25881666Y55917334D02*
X25881666Y56617334D01*
X25815000Y56517334D01*
X25748333Y56450667D01*
X25681666Y56417334D01*
X26315000Y56617334D02*
X26781666Y56617334D01*
X26481666Y55917334D01*
X11100000Y69883334D02*
X11566666Y69183334D01*
X11566666Y69883334D02*
X11100000Y69183334D01*
X11800000Y69216667D02*
X11900000Y69183334D01*
X12066666Y69183334D01*
X12133333Y69216667D01*
X12166666Y69250000D01*
X12200000Y69316667D01*
X12200000Y69383334D01*
X12166666Y69450000D01*
X12133333Y69483334D01*
X12066666Y69516667D01*
X11933333Y69550000D01*
X11866666Y69583334D01*
X11833333Y69616667D01*
X11800000Y69683334D01*
X11800000Y69750000D01*
X11833333Y69816667D01*
X11866666Y69850000D01*
X11933333Y69883334D01*
X12100000Y69883334D01*
X12200000Y69850000D01*
X12866666Y69183334D02*
X12466666Y69183334D01*
X12666666Y69183334D02*
X12666666Y69883334D01*
X12600000Y69783334D01*
X12533333Y69716667D01*
X12466666Y69683334D01*
X23100000Y69883334D02*
X23566666Y69183334D01*
X23566666Y69883334D02*
X23100000Y69183334D01*
X23800000Y69216667D02*
X23900000Y69183334D01*
X24066666Y69183334D01*
X24133333Y69216667D01*
X24166666Y69250000D01*
X24200000Y69316667D01*
X24200000Y69383334D01*
X24166666Y69450000D01*
X24133333Y69483334D01*
X24066666Y69516667D01*
X23933333Y69550000D01*
X23866666Y69583334D01*
X23833333Y69616667D01*
X23800000Y69683334D01*
X23800000Y69750000D01*
X23833333Y69816667D01*
X23866666Y69850000D01*
X23933333Y69883334D01*
X24100000Y69883334D01*
X24200000Y69850000D01*
X24466666Y69816667D02*
X24500000Y69850000D01*
X24566666Y69883334D01*
X24733333Y69883334D01*
X24800000Y69850000D01*
X24833333Y69816667D01*
X24866666Y69750000D01*
X24866666Y69683334D01*
X24833333Y69583334D01*
X24433333Y69183334D01*
X24866666Y69183334D01*
X1450000Y21233334D02*
X1450000Y21466667D01*
X1816666Y21566667D02*
X1816666Y21233334D01*
X1116666Y21233334D01*
X1116666Y21566667D01*
X1816666Y22266667D02*
X1483333Y22033334D01*
X1816666Y21866667D02*
X1116666Y21866667D01*
X1116666Y22133334D01*
X1150000Y22200000D01*
X1183333Y22233334D01*
X1250000Y22266667D01*
X1350000Y22266667D01*
X1416666Y22233334D01*
X1450000Y22200000D01*
X1483333Y22133334D01*
X1483333Y21866667D01*
X1450000Y22800000D02*
X1450000Y22566667D01*
X1816666Y22566667D02*
X1116666Y22566667D01*
X1116666Y22900000D01*
X1550000Y23166667D02*
X1550000Y23700000D01*
X1816666Y24433334D02*
X1483333Y24200000D01*
X1816666Y24033334D02*
X1116666Y24033334D01*
X1116666Y24300000D01*
X1150000Y24366667D01*
X1183333Y24400000D01*
X1250000Y24433334D01*
X1350000Y24433334D01*
X1416666Y24400000D01*
X1450000Y24366667D01*
X1483333Y24300000D01*
X1483333Y24033334D01*
X1450000Y24966667D02*
X1483333Y25066667D01*
X1516666Y25100000D01*
X1583333Y25133334D01*
X1683333Y25133334D01*
X1750000Y25100000D01*
X1783333Y25066667D01*
X1816666Y25000000D01*
X1816666Y24733334D01*
X1116666Y24733334D01*
X1116666Y24966667D01*
X1150000Y25033334D01*
X1183333Y25066667D01*
X1250000Y25100000D01*
X1316666Y25100000D01*
X1383333Y25066667D01*
X1416666Y25033334D01*
X1450000Y24966667D01*
X1450000Y24733334D01*
X1550000Y25433334D02*
X1550000Y25966667D01*
X1116666Y26433334D02*
X1116666Y26500000D01*
X1150000Y26566667D01*
X1183333Y26600000D01*
X1250000Y26633334D01*
X1383333Y26666667D01*
X1550000Y26666667D01*
X1683333Y26633334D01*
X1750000Y26600000D01*
X1783333Y26566667D01*
X1816666Y26500000D01*
X1816666Y26433334D01*
X1783333Y26366667D01*
X1750000Y26333334D01*
X1683333Y26300000D01*
X1550000Y26266667D01*
X1383333Y26266667D01*
X1250000Y26300000D01*
X1183333Y26333334D01*
X1150000Y26366667D01*
X1116666Y26433334D01*
X1816666Y27000000D02*
X1816666Y27133334D01*
X1783333Y27200000D01*
X1750000Y27233334D01*
X1650000Y27300000D01*
X1516666Y27333334D01*
X1250000Y27333334D01*
X1183333Y27300000D01*
X1150000Y27266667D01*
X1116666Y27200000D01*
X1116666Y27066667D01*
X1150000Y27000000D01*
X1183333Y26966667D01*
X1250000Y26933334D01*
X1416666Y26933334D01*
X1483333Y26966667D01*
X1516666Y27000000D01*
X1550000Y27066667D01*
X1550000Y27200000D01*
X1516666Y27266667D01*
X1483333Y27300000D01*
X1416666Y27333334D01*
X1116666Y27766667D02*
X1116666Y27833334D01*
X1150000Y27900000D01*
X1183333Y27933334D01*
X1250000Y27966667D01*
X1383333Y28000000D01*
X1550000Y28000000D01*
X1683333Y27966667D01*
X1750000Y27933334D01*
X1783333Y27900000D01*
X1816666Y27833334D01*
X1816666Y27766667D01*
X1783333Y27700000D01*
X1750000Y27666667D01*
X1683333Y27633334D01*
X1550000Y27600000D01*
X1383333Y27600000D01*
X1250000Y27633334D01*
X1183333Y27666667D01*
X1150000Y27700000D01*
X1116666Y27766667D01*
X1550000Y28300000D02*
X1550000Y28833334D01*
X1116666Y29100000D02*
X1116666Y29533334D01*
X1383333Y29300000D01*
X1383333Y29400000D01*
X1416666Y29466667D01*
X1450000Y29500000D01*
X1516666Y29533334D01*
X1683333Y29533334D01*
X1750000Y29500000D01*
X1783333Y29466667D01*
X1816666Y29400000D01*
X1816666Y29200000D01*
X1783333Y29133334D01*
X1750000Y29100000D01*
X1116666Y29966667D02*
X1116666Y30033334D01*
X1150000Y30100000D01*
X1183333Y30133334D01*
X1250000Y30166667D01*
X1383333Y30200000D01*
X1550000Y30200000D01*
X1683333Y30166667D01*
X1750000Y30133334D01*
X1783333Y30100000D01*
X1816666Y30033334D01*
X1816666Y29966667D01*
X1783333Y29900000D01*
X1750000Y29866667D01*
X1683333Y29833334D01*
X1550000Y29800000D01*
X1383333Y29800000D01*
X1250000Y29833334D01*
X1183333Y29866667D01*
X1150000Y29900000D01*
X1116666Y29966667D01*
X2783333Y21483334D02*
X3016666Y20783334D01*
X3250000Y21483334D01*
X3883333Y20783334D02*
X3650000Y21116667D01*
X3483333Y20783334D02*
X3483333Y21483334D01*
X3750000Y21483334D01*
X3816666Y21450000D01*
X3850000Y21416667D01*
X3883333Y21350000D01*
X3883333Y21250000D01*
X3850000Y21183334D01*
X3816666Y21150000D01*
X3750000Y21116667D01*
X3483333Y21116667D01*
X4550000Y20783334D02*
X4150000Y20783334D01*
X4350000Y20783334D02*
X4350000Y21483334D01*
X4283333Y21383334D01*
X4216666Y21316667D01*
X4150000Y21283334D01*
X5750000Y20433334D02*
X5750000Y20666667D01*
X6116666Y20766667D02*
X6116666Y20433334D01*
X5416666Y20433334D01*
X5416666Y20766667D01*
X6116666Y21466667D02*
X5783333Y21233334D01*
X6116666Y21066667D02*
X5416666Y21066667D01*
X5416666Y21333334D01*
X5450000Y21400000D01*
X5483333Y21433334D01*
X5550000Y21466667D01*
X5650000Y21466667D01*
X5716666Y21433334D01*
X5750000Y21400000D01*
X5783333Y21333334D01*
X5783333Y21066667D01*
X5750000Y22000000D02*
X5750000Y21766667D01*
X6116666Y21766667D02*
X5416666Y21766667D01*
X5416666Y22100000D01*
X5850000Y22366667D02*
X5850000Y22900000D01*
X6116666Y23633334D02*
X5783333Y23400000D01*
X6116666Y23233334D02*
X5416666Y23233334D01*
X5416666Y23500000D01*
X5450000Y23566667D01*
X5483333Y23600000D01*
X5550000Y23633334D01*
X5650000Y23633334D01*
X5716666Y23600000D01*
X5750000Y23566667D01*
X5783333Y23500000D01*
X5783333Y23233334D01*
X5750000Y24166667D02*
X5783333Y24266667D01*
X5816666Y24300000D01*
X5883333Y24333334D01*
X5983333Y24333334D01*
X6050000Y24300000D01*
X6083333Y24266667D01*
X6116666Y24200000D01*
X6116666Y23933334D01*
X5416666Y23933334D01*
X5416666Y24166667D01*
X5450000Y24233334D01*
X5483333Y24266667D01*
X5550000Y24300000D01*
X5616666Y24300000D01*
X5683333Y24266667D01*
X5716666Y24233334D01*
X5750000Y24166667D01*
X5750000Y23933334D01*
X5850000Y24633334D02*
X5850000Y25166667D01*
X5416666Y25633334D02*
X5416666Y25700000D01*
X5450000Y25766667D01*
X5483333Y25800000D01*
X5550000Y25833334D01*
X5683333Y25866667D01*
X5850000Y25866667D01*
X5983333Y25833334D01*
X6050000Y25800000D01*
X6083333Y25766667D01*
X6116666Y25700000D01*
X6116666Y25633334D01*
X6083333Y25566667D01*
X6050000Y25533334D01*
X5983333Y25500000D01*
X5850000Y25466667D01*
X5683333Y25466667D01*
X5550000Y25500000D01*
X5483333Y25533334D01*
X5450000Y25566667D01*
X5416666Y25633334D01*
X6116666Y26200000D02*
X6116666Y26333334D01*
X6083333Y26400000D01*
X6050000Y26433334D01*
X5950000Y26500000D01*
X5816666Y26533334D01*
X5550000Y26533334D01*
X5483333Y26500000D01*
X5450000Y26466667D01*
X5416666Y26400000D01*
X5416666Y26266667D01*
X5450000Y26200000D01*
X5483333Y26166667D01*
X5550000Y26133334D01*
X5716666Y26133334D01*
X5783333Y26166667D01*
X5816666Y26200000D01*
X5850000Y26266667D01*
X5850000Y26400000D01*
X5816666Y26466667D01*
X5783333Y26500000D01*
X5716666Y26533334D01*
X5416666Y26966667D02*
X5416666Y27033334D01*
X5450000Y27100000D01*
X5483333Y27133334D01*
X5550000Y27166667D01*
X5683333Y27200000D01*
X5850000Y27200000D01*
X5983333Y27166667D01*
X6050000Y27133334D01*
X6083333Y27100000D01*
X6116666Y27033334D01*
X6116666Y26966667D01*
X6083333Y26900000D01*
X6050000Y26866667D01*
X5983333Y26833334D01*
X5850000Y26800000D01*
X5683333Y26800000D01*
X5550000Y26833334D01*
X5483333Y26866667D01*
X5450000Y26900000D01*
X5416666Y26966667D01*
X5850000Y27500000D02*
X5850000Y28033334D01*
X5416666Y28300000D02*
X5416666Y28733334D01*
X5683333Y28500000D01*
X5683333Y28600000D01*
X5716666Y28666667D01*
X5750000Y28700000D01*
X5816666Y28733334D01*
X5983333Y28733334D01*
X6050000Y28700000D01*
X6083333Y28666667D01*
X6116666Y28600000D01*
X6116666Y28400000D01*
X6083333Y28333334D01*
X6050000Y28300000D01*
X5416666Y29166667D02*
X5416666Y29233334D01*
X5450000Y29300000D01*
X5483333Y29333334D01*
X5550000Y29366667D01*
X5683333Y29400000D01*
X5850000Y29400000D01*
X5983333Y29366667D01*
X6050000Y29333334D01*
X6083333Y29300000D01*
X6116666Y29233334D01*
X6116666Y29166667D01*
X6083333Y29100000D01*
X6050000Y29066667D01*
X5983333Y29033334D01*
X5850000Y29000000D01*
X5683333Y29000000D01*
X5550000Y29033334D01*
X5483333Y29066667D01*
X5450000Y29100000D01*
X5416666Y29166667D01*
X6883333Y21483334D02*
X7116666Y20783334D01*
X7350000Y21483334D01*
X7983333Y20783334D02*
X7750000Y21116667D01*
X7583333Y20783334D02*
X7583333Y21483334D01*
X7850000Y21483334D01*
X7916666Y21450000D01*
X7950000Y21416667D01*
X7983333Y21350000D01*
X7983333Y21250000D01*
X7950000Y21183334D01*
X7916666Y21150000D01*
X7850000Y21116667D01*
X7583333Y21116667D01*
X8250000Y21416667D02*
X8283333Y21450000D01*
X8350000Y21483334D01*
X8516666Y21483334D01*
X8583333Y21450000D01*
X8616666Y21416667D01*
X8650000Y21350000D01*
X8650000Y21283334D01*
X8616666Y21183334D01*
X8216666Y20783334D01*
X8650000Y20783334D01*
X5316666Y34781000D02*
X5316666Y34381000D01*
X5316666Y34581000D02*
X4616666Y34581000D01*
X4716666Y34514334D01*
X4783333Y34447667D01*
X4816666Y34381000D01*
X5316666Y35081000D02*
X4616666Y35081000D01*
X5316666Y35481000D01*
X4616666Y35481000D01*
X4850000Y36114334D02*
X5316666Y36114334D01*
X4583333Y35947667D02*
X5083333Y35781000D01*
X5083333Y36214334D01*
X4616666Y36614334D02*
X4616666Y36681000D01*
X4650000Y36747667D01*
X4683333Y36781000D01*
X4750000Y36814334D01*
X4883333Y36847667D01*
X5050000Y36847667D01*
X5183333Y36814334D01*
X5250000Y36781000D01*
X5283333Y36747667D01*
X5316666Y36681000D01*
X5316666Y36614334D01*
X5283333Y36547667D01*
X5250000Y36514334D01*
X5183333Y36481000D01*
X5050000Y36447667D01*
X4883333Y36447667D01*
X4750000Y36481000D01*
X4683333Y36514334D01*
X4650000Y36547667D01*
X4616666Y36614334D01*
X4616666Y37281000D02*
X4616666Y37347667D01*
X4650000Y37414334D01*
X4683333Y37447667D01*
X4750000Y37481000D01*
X4883333Y37514334D01*
X5050000Y37514334D01*
X5183333Y37481000D01*
X5250000Y37447667D01*
X5283333Y37414334D01*
X5316666Y37347667D01*
X5316666Y37281000D01*
X5283333Y37214334D01*
X5250000Y37181000D01*
X5183333Y37147667D01*
X5050000Y37114334D01*
X4883333Y37114334D01*
X4750000Y37147667D01*
X4683333Y37181000D01*
X4650000Y37214334D01*
X4616666Y37281000D01*
X5316666Y38181000D02*
X5316666Y37781000D01*
X5316666Y37981000D02*
X4616666Y37981000D01*
X4716666Y37914334D01*
X4783333Y37847667D01*
X4816666Y37781000D01*
X4083333Y43183334D02*
X4316666Y42483334D01*
X4550000Y43183334D01*
X4783333Y42483334D02*
X4783333Y43183334D01*
X4950000Y43183334D01*
X5050000Y43150000D01*
X5116666Y43083334D01*
X5150000Y43016667D01*
X5183333Y42883334D01*
X5183333Y42783334D01*
X5150000Y42650000D01*
X5116666Y42583334D01*
X5050000Y42516667D01*
X4950000Y42483334D01*
X4783333Y42483334D01*
X5783333Y43183334D02*
X5650000Y43183334D01*
X5583333Y43150000D01*
X5550000Y43116667D01*
X5483333Y43016667D01*
X5450000Y42883334D01*
X5450000Y42616667D01*
X5483333Y42550000D01*
X5516666Y42516667D01*
X5583333Y42483334D01*
X5716666Y42483334D01*
X5783333Y42516667D01*
X5816666Y42550000D01*
X5850000Y42616667D01*
X5850000Y42783334D01*
X5816666Y42850000D01*
X5783333Y42883334D01*
X5716666Y42916667D01*
X5583333Y42916667D01*
X5516666Y42883334D01*
X5483333Y42850000D01*
X5450000Y42783334D01*
X8516666Y34100000D02*
X8516666Y33700000D01*
X8516666Y33900000D02*
X7816666Y33900000D01*
X7916666Y33833334D01*
X7983333Y33766667D01*
X8016666Y33700000D01*
X8516666Y34400000D02*
X7816666Y34400000D01*
X8516666Y34800000D01*
X7816666Y34800000D01*
X8050000Y35433334D02*
X8516666Y35433334D01*
X7783333Y35266667D02*
X8283333Y35100000D01*
X8283333Y35533334D01*
X7816666Y35933334D02*
X7816666Y36000000D01*
X7850000Y36066667D01*
X7883333Y36100000D01*
X7950000Y36133334D01*
X8083333Y36166667D01*
X8250000Y36166667D01*
X8383333Y36133334D01*
X8450000Y36100000D01*
X8483333Y36066667D01*
X8516666Y36000000D01*
X8516666Y35933334D01*
X8483333Y35866667D01*
X8450000Y35833334D01*
X8383333Y35800000D01*
X8250000Y35766667D01*
X8083333Y35766667D01*
X7950000Y35800000D01*
X7883333Y35833334D01*
X7850000Y35866667D01*
X7816666Y35933334D01*
X7816666Y36600000D02*
X7816666Y36666667D01*
X7850000Y36733334D01*
X7883333Y36766667D01*
X7950000Y36800000D01*
X8083333Y36833334D01*
X8250000Y36833334D01*
X8383333Y36800000D01*
X8450000Y36766667D01*
X8483333Y36733334D01*
X8516666Y36666667D01*
X8516666Y36600000D01*
X8483333Y36533334D01*
X8450000Y36500000D01*
X8383333Y36466667D01*
X8250000Y36433334D01*
X8083333Y36433334D01*
X7950000Y36466667D01*
X7883333Y36500000D01*
X7850000Y36533334D01*
X7816666Y36600000D01*
X8516666Y37500000D02*
X8516666Y37100000D01*
X8516666Y37300000D02*
X7816666Y37300000D01*
X7916666Y37233334D01*
X7983333Y37166667D01*
X8016666Y37100000D01*
X9883333Y35883334D02*
X10116666Y35183334D01*
X10350000Y35883334D01*
X10583333Y35183334D02*
X10583333Y35883334D01*
X10750000Y35883334D01*
X10850000Y35850000D01*
X10916666Y35783334D01*
X10950000Y35716667D01*
X10983333Y35583334D01*
X10983333Y35483334D01*
X10950000Y35350000D01*
X10916666Y35283334D01*
X10850000Y35216667D01*
X10750000Y35183334D01*
X10583333Y35183334D01*
X11216666Y35883334D02*
X11683333Y35883334D01*
X11383333Y35183334D01*
X15000000Y32383334D02*
X14600000Y32383334D01*
X14800000Y32383334D02*
X14800000Y33083334D01*
X14733333Y32983334D01*
X14666666Y32916667D01*
X14600000Y32883334D01*
X15300000Y32383334D02*
X15300000Y33083334D01*
X15700000Y32383334D01*
X15700000Y33083334D01*
X16333333Y32850000D02*
X16333333Y32383334D01*
X16166666Y33116667D02*
X16000000Y32616667D01*
X16433333Y32616667D01*
X16833333Y33083334D02*
X16900000Y33083334D01*
X16966666Y33050000D01*
X17000000Y33016667D01*
X17033333Y32950000D01*
X17066666Y32816667D01*
X17066666Y32650000D01*
X17033333Y32516667D01*
X17000000Y32450000D01*
X16966666Y32416667D01*
X16900000Y32383334D01*
X16833333Y32383334D01*
X16766666Y32416667D01*
X16733333Y32450000D01*
X16700000Y32516667D01*
X16666666Y32650000D01*
X16666666Y32816667D01*
X16700000Y32950000D01*
X16733333Y33016667D01*
X16766666Y33050000D01*
X16833333Y33083334D01*
X17500000Y33083334D02*
X17566666Y33083334D01*
X17633333Y33050000D01*
X17666666Y33016667D01*
X17700000Y32950000D01*
X17733333Y32816667D01*
X17733333Y32650000D01*
X17700000Y32516667D01*
X17666666Y32450000D01*
X17633333Y32416667D01*
X17566666Y32383334D01*
X17500000Y32383334D01*
X17433333Y32416667D01*
X17400000Y32450000D01*
X17366666Y32516667D01*
X17333333Y32650000D01*
X17333333Y32816667D01*
X17366666Y32950000D01*
X17400000Y33016667D01*
X17433333Y33050000D01*
X17500000Y33083334D01*
X18400000Y32383334D02*
X18000000Y32383334D01*
X18200000Y32383334D02*
X18200000Y33083334D01*
X18133333Y32983334D01*
X18066666Y32916667D01*
X18000000Y32883334D01*
X15883333Y31083334D02*
X16116666Y30383334D01*
X16350000Y31083334D01*
X16583333Y30383334D02*
X16583333Y31083334D01*
X16750000Y31083334D01*
X16850000Y31050000D01*
X16916666Y30983334D01*
X16950000Y30916667D01*
X16983333Y30783334D01*
X16983333Y30683334D01*
X16950000Y30550000D01*
X16916666Y30483334D01*
X16850000Y30416667D01*
X16750000Y30383334D01*
X16583333Y30383334D01*
X17650000Y30383334D02*
X17250000Y30383334D01*
X17450000Y30383334D02*
X17450000Y31083334D01*
X17383333Y30983334D01*
X17316666Y30916667D01*
X17250000Y30883334D01*
X4400000Y50650000D02*
X4500000Y50616667D01*
X4533333Y50583334D01*
X4566666Y50516667D01*
X4566666Y50416667D01*
X4533333Y50350000D01*
X4500000Y50316667D01*
X4433333Y50283334D01*
X4166666Y50283334D01*
X4166666Y50983334D01*
X4400000Y50983334D01*
X4466666Y50950000D01*
X4500000Y50916667D01*
X4533333Y50850000D01*
X4533333Y50783334D01*
X4500000Y50716667D01*
X4466666Y50683334D01*
X4400000Y50650000D01*
X4166666Y50650000D01*
X5233333Y50283334D02*
X4833333Y50283334D01*
X5033333Y50283334D02*
X5033333Y50983334D01*
X4966666Y50883334D01*
X4900000Y50816667D01*
X4833333Y50783334D01*
X5666666Y50983334D02*
X5733333Y50983334D01*
X5800000Y50950000D01*
X5833333Y50916667D01*
X5866666Y50850000D01*
X5900000Y50716667D01*
X5900000Y50550000D01*
X5866666Y50416667D01*
X5833333Y50350000D01*
X5800000Y50316667D01*
X5733333Y50283334D01*
X5666666Y50283334D01*
X5600000Y50316667D01*
X5566666Y50350000D01*
X5533333Y50416667D01*
X5500000Y50550000D01*
X5500000Y50716667D01*
X5533333Y50850000D01*
X5566666Y50916667D01*
X5600000Y50950000D01*
X5666666Y50983334D01*
X6200000Y50283334D02*
X6200000Y50983334D01*
X6266666Y50550000D02*
X6466666Y50283334D01*
X6466666Y50750000D02*
X6200000Y50483334D01*
X5883333Y51283334D02*
X5650000Y51616667D01*
X5483333Y51283334D02*
X5483333Y51983334D01*
X5750000Y51983334D01*
X5816666Y51950000D01*
X5850000Y51916667D01*
X5883333Y51850000D01*
X5883333Y51750000D01*
X5850000Y51683334D01*
X5816666Y51650000D01*
X5750000Y51616667D01*
X5483333Y51616667D01*
X6550000Y51283334D02*
X6150000Y51283334D01*
X6350000Y51283334D02*
X6350000Y51983334D01*
X6283333Y51883334D01*
X6216666Y51816667D01*
X6150000Y51783334D01*
X7431000Y83944334D02*
X7031000Y83944334D01*
X7231000Y83944334D02*
X7231000Y84644334D01*
X7164333Y84544334D01*
X7097666Y84477667D01*
X7031000Y84444334D01*
X7864333Y84644334D02*
X7931000Y84644334D01*
X7997666Y84611000D01*
X8031000Y84577667D01*
X8064333Y84511000D01*
X8097666Y84377667D01*
X8097666Y84211000D01*
X8064333Y84077667D01*
X8031000Y84011000D01*
X7997666Y83977667D01*
X7931000Y83944334D01*
X7864333Y83944334D01*
X7797666Y83977667D01*
X7764333Y84011000D01*
X7731000Y84077667D01*
X7697666Y84211000D01*
X7697666Y84377667D01*
X7731000Y84511000D01*
X7764333Y84577667D01*
X7797666Y84611000D01*
X7864333Y84644334D01*
X8531000Y84644334D02*
X8597666Y84644334D01*
X8664333Y84611000D01*
X8697666Y84577667D01*
X8731000Y84511000D01*
X8764333Y84377667D01*
X8764333Y84211000D01*
X8731000Y84077667D01*
X8697666Y84011000D01*
X8664333Y83977667D01*
X8597666Y83944334D01*
X8531000Y83944334D01*
X8464333Y83977667D01*
X8431000Y84011000D01*
X8397666Y84077667D01*
X8364333Y84211000D01*
X8364333Y84377667D01*
X8397666Y84511000D01*
X8431000Y84577667D01*
X8464333Y84611000D01*
X8531000Y84644334D01*
X9064333Y83944334D02*
X9064333Y84644334D01*
X9131000Y84211000D02*
X9331000Y83944334D01*
X9331000Y84411000D02*
X9064333Y84144334D01*
X5983333Y85883334D02*
X5750000Y86216667D01*
X5583333Y85883334D02*
X5583333Y86583334D01*
X5850000Y86583334D01*
X5916666Y86550000D01*
X5950000Y86516667D01*
X5983333Y86450000D01*
X5983333Y86350000D01*
X5950000Y86283334D01*
X5916666Y86250000D01*
X5850000Y86216667D01*
X5583333Y86216667D01*
X6216666Y86583334D02*
X6650000Y86583334D01*
X6416666Y86316667D01*
X6516666Y86316667D01*
X6583333Y86283334D01*
X6616666Y86250000D01*
X6650000Y86183334D01*
X6650000Y86016667D01*
X6616666Y85950000D01*
X6583333Y85916667D01*
X6516666Y85883334D01*
X6316666Y85883334D01*
X6250000Y85916667D01*
X6216666Y85950000D01*
X22683333Y85883334D02*
X22450000Y86216667D01*
X22283333Y85883334D02*
X22283333Y86583334D01*
X22550000Y86583334D01*
X22616666Y86550000D01*
X22650000Y86516667D01*
X22683333Y86450000D01*
X22683333Y86350000D01*
X22650000Y86283334D01*
X22616666Y86250000D01*
X22550000Y86216667D01*
X22283333Y86216667D01*
X23283333Y86350000D02*
X23283333Y85883334D01*
X23116666Y86616667D02*
X22950000Y86116667D01*
X23383333Y86116667D01*
X20004000Y83944334D02*
X19604000Y83944334D01*
X19804000Y83944334D02*
X19804000Y84644334D01*
X19737333Y84544334D01*
X19670666Y84477667D01*
X19604000Y84444334D01*
X20437333Y84644334D02*
X20504000Y84644334D01*
X20570666Y84611000D01*
X20604000Y84577667D01*
X20637333Y84511000D01*
X20670666Y84377667D01*
X20670666Y84211000D01*
X20637333Y84077667D01*
X20604000Y84011000D01*
X20570666Y83977667D01*
X20504000Y83944334D01*
X20437333Y83944334D01*
X20370666Y83977667D01*
X20337333Y84011000D01*
X20304000Y84077667D01*
X20270666Y84211000D01*
X20270666Y84377667D01*
X20304000Y84511000D01*
X20337333Y84577667D01*
X20370666Y84611000D01*
X20437333Y84644334D01*
X21104000Y84644334D02*
X21170666Y84644334D01*
X21237333Y84611000D01*
X21270666Y84577667D01*
X21304000Y84511000D01*
X21337333Y84377667D01*
X21337333Y84211000D01*
X21304000Y84077667D01*
X21270666Y84011000D01*
X21237333Y83977667D01*
X21170666Y83944334D01*
X21104000Y83944334D01*
X21037333Y83977667D01*
X21004000Y84011000D01*
X20970666Y84077667D01*
X20937333Y84211000D01*
X20937333Y84377667D01*
X20970666Y84511000D01*
X21004000Y84577667D01*
X21037333Y84611000D01*
X21104000Y84644334D01*
X21637333Y83944334D02*
X21637333Y84644334D01*
X21704000Y84211000D02*
X21904000Y83944334D01*
X21904000Y84411000D02*
X21637333Y84144334D01*
X6850000Y60183334D02*
X6616666Y60516667D01*
X6450000Y60183334D02*
X6450000Y60883334D01*
X6716666Y60883334D01*
X6783333Y60850000D01*
X6816666Y60816667D01*
X6850000Y60750000D01*
X6850000Y60650000D01*
X6816666Y60583334D01*
X6783333Y60550000D01*
X6716666Y60516667D01*
X6450000Y60516667D01*
X7516666Y60183334D02*
X7116666Y60183334D01*
X7316666Y60183334D02*
X7316666Y60883334D01*
X7250000Y60783334D01*
X7183333Y60716667D01*
X7116666Y60683334D01*
X8150000Y60883334D02*
X7816666Y60883334D01*
X7783333Y60550000D01*
X7816666Y60583334D01*
X7883333Y60616667D01*
X8050000Y60616667D01*
X8116666Y60583334D01*
X8150000Y60550000D01*
X8183333Y60483334D01*
X8183333Y60316667D01*
X8150000Y60250000D01*
X8116666Y60216667D01*
X8050000Y60183334D01*
X7883333Y60183334D01*
X7816666Y60216667D01*
X7783333Y60250000D01*
X13650000Y59383334D02*
X13250000Y59383334D01*
X13450000Y59383334D02*
X13450000Y60083334D01*
X13383333Y59983334D01*
X13316666Y59916667D01*
X13250000Y59883334D01*
X13916666Y60016667D02*
X13950000Y60050000D01*
X14016666Y60083334D01*
X14183333Y60083334D01*
X14250000Y60050000D01*
X14283333Y60016667D01*
X14316666Y59950000D01*
X14316666Y59883334D01*
X14283333Y59783334D01*
X13883333Y59383334D01*
X14316666Y59383334D01*
X14750000Y60083334D02*
X14816666Y60083334D01*
X14883333Y60050000D01*
X14916666Y60016667D01*
X14950000Y59950000D01*
X14983333Y59816667D01*
X14983333Y59650000D01*
X14950000Y59516667D01*
X14916666Y59450000D01*
X14883333Y59416667D01*
X14816666Y59383334D01*
X14750000Y59383334D01*
X14683333Y59416667D01*
X14650000Y59450000D01*
X14616666Y59516667D01*
X14583333Y59650000D01*
X14583333Y59816667D01*
X14616666Y59950000D01*
X14650000Y60016667D01*
X14683333Y60050000D01*
X14750000Y60083334D01*
X15283333Y59383334D02*
X15283333Y60083334D01*
X15350000Y59650000D02*
X15550000Y59383334D01*
X15550000Y59850000D02*
X15283333Y59583334D01*
X13650000Y62483334D02*
X13250000Y62483334D01*
X13450000Y62483334D02*
X13450000Y63183334D01*
X13383333Y63083334D01*
X13316666Y63016667D01*
X13250000Y62983334D01*
X13916666Y63116667D02*
X13950000Y63150000D01*
X14016666Y63183334D01*
X14183333Y63183334D01*
X14250000Y63150000D01*
X14283333Y63116667D01*
X14316666Y63050000D01*
X14316666Y62983334D01*
X14283333Y62883334D01*
X13883333Y62483334D01*
X14316666Y62483334D01*
X14750000Y63183334D02*
X14816666Y63183334D01*
X14883333Y63150000D01*
X14916666Y63116667D01*
X14950000Y63050000D01*
X14983333Y62916667D01*
X14983333Y62750000D01*
X14950000Y62616667D01*
X14916666Y62550000D01*
X14883333Y62516667D01*
X14816666Y62483334D01*
X14750000Y62483334D01*
X14683333Y62516667D01*
X14650000Y62550000D01*
X14616666Y62616667D01*
X14583333Y62750000D01*
X14583333Y62916667D01*
X14616666Y63050000D01*
X14650000Y63116667D01*
X14683333Y63150000D01*
X14750000Y63183334D01*
X15283333Y62483334D02*
X15283333Y63183334D01*
X15350000Y62750000D02*
X15550000Y62483334D01*
X15550000Y62950000D02*
X15283333Y62683334D01*
X6650000Y62583334D02*
X6416666Y62916667D01*
X6250000Y62583334D02*
X6250000Y63283334D01*
X6516666Y63283334D01*
X6583333Y63250000D01*
X6616666Y63216667D01*
X6650000Y63150000D01*
X6650000Y63050000D01*
X6616666Y62983334D01*
X6583333Y62950000D01*
X6516666Y62916667D01*
X6250000Y62916667D01*
X6916666Y63216667D02*
X6950000Y63250000D01*
X7016666Y63283334D01*
X7183333Y63283334D01*
X7250000Y63250000D01*
X7283333Y63216667D01*
X7316666Y63150000D01*
X7316666Y63083334D01*
X7283333Y62983334D01*
X6883333Y62583334D01*
X7316666Y62583334D01*
X7750000Y63283334D02*
X7816666Y63283334D01*
X7883333Y63250000D01*
X7916666Y63216667D01*
X7950000Y63150000D01*
X7983333Y63016667D01*
X7983333Y62850000D01*
X7950000Y62716667D01*
X7916666Y62650000D01*
X7883333Y62616667D01*
X7816666Y62583334D01*
X7750000Y62583334D01*
X7683333Y62616667D01*
X7650000Y62650000D01*
X7616666Y62716667D01*
X7583333Y62850000D01*
X7583333Y63016667D01*
X7616666Y63150000D01*
X7650000Y63216667D01*
X7683333Y63250000D01*
X7750000Y63283334D01*
X7350000Y98566667D02*
X7816666Y98566667D01*
X7083333Y98400000D02*
X7583333Y98233334D01*
X7583333Y98666667D01*
X7116666Y98866667D02*
X7116666Y99333334D01*
X7816666Y99033334D01*
X7116666Y99733334D02*
X7116666Y99800000D01*
X7150000Y99866667D01*
X7183333Y99900000D01*
X7250000Y99933334D01*
X7383333Y99966667D01*
X7550000Y99966667D01*
X7683333Y99933334D01*
X7750000Y99900000D01*
X7783333Y99866667D01*
X7816666Y99800000D01*
X7816666Y99733334D01*
X7783333Y99666667D01*
X7750000Y99633334D01*
X7683333Y99600000D01*
X7550000Y99566667D01*
X7383333Y99566667D01*
X7250000Y99600000D01*
X7183333Y99633334D01*
X7150000Y99666667D01*
X7116666Y99733334D01*
X4550000Y98783334D02*
X4316666Y99116667D01*
X4150000Y98783334D02*
X4150000Y99483334D01*
X4416666Y99483334D01*
X4483333Y99450000D01*
X4516666Y99416667D01*
X4550000Y99350000D01*
X4550000Y99250000D01*
X4516666Y99183334D01*
X4483333Y99150000D01*
X4416666Y99116667D01*
X4150000Y99116667D01*
X4783333Y99483334D02*
X5216666Y99483334D01*
X4983333Y99216667D01*
X5083333Y99216667D01*
X5150000Y99183334D01*
X5183333Y99150000D01*
X5216666Y99083334D01*
X5216666Y98916667D01*
X5183333Y98850000D01*
X5150000Y98816667D01*
X5083333Y98783334D01*
X4883333Y98783334D01*
X4816666Y98816667D01*
X4783333Y98850000D01*
X5883333Y98783334D02*
X5483333Y98783334D01*
X5683333Y98783334D02*
X5683333Y99483334D01*
X5616666Y99383334D01*
X5550000Y99316667D01*
X5483333Y99283334D01*
X11350000Y89283334D02*
X11116666Y89616667D01*
X10950000Y89283334D02*
X10950000Y89983334D01*
X11216666Y89983334D01*
X11283333Y89950000D01*
X11316666Y89916667D01*
X11350000Y89850000D01*
X11350000Y89750000D01*
X11316666Y89683334D01*
X11283333Y89650000D01*
X11216666Y89616667D01*
X10950000Y89616667D01*
X11583333Y89983334D02*
X12016666Y89983334D01*
X11783333Y89716667D01*
X11883333Y89716667D01*
X11950000Y89683334D01*
X11983333Y89650000D01*
X12016666Y89583334D01*
X12016666Y89416667D01*
X11983333Y89350000D01*
X11950000Y89316667D01*
X11883333Y89283334D01*
X11683333Y89283334D01*
X11616666Y89316667D01*
X11583333Y89350000D01*
X12283333Y89916667D02*
X12316666Y89950000D01*
X12383333Y89983334D01*
X12550000Y89983334D01*
X12616666Y89950000D01*
X12650000Y89916667D01*
X12683333Y89850000D01*
X12683333Y89783334D01*
X12650000Y89683334D01*
X12250000Y89283334D01*
X12683333Y89283334D01*
X13166666Y87750000D02*
X13166666Y87283334D01*
X13000000Y88016667D02*
X12833333Y87516667D01*
X13266666Y87516667D01*
X13466666Y87983334D02*
X13933333Y87983334D01*
X13633333Y87283334D01*
X14333333Y87983334D02*
X14400000Y87983334D01*
X14466666Y87950000D01*
X14500000Y87916667D01*
X14533333Y87850000D01*
X14566666Y87716667D01*
X14566666Y87550000D01*
X14533333Y87416667D01*
X14500000Y87350000D01*
X14466666Y87316667D01*
X14400000Y87283334D01*
X14333333Y87283334D01*
X14266666Y87316667D01*
X14233333Y87350000D01*
X14200000Y87416667D01*
X14166666Y87550000D01*
X14166666Y87716667D01*
X14200000Y87850000D01*
X14233333Y87916667D01*
X14266666Y87950000D01*
X14333333Y87983334D01*
X21650000Y13683334D02*
X21416666Y14016667D01*
X21250000Y13683334D02*
X21250000Y14383334D01*
X21516666Y14383334D01*
X21583333Y14350000D01*
X21616666Y14316667D01*
X21650000Y14250000D01*
X21650000Y14150000D01*
X21616666Y14083334D01*
X21583333Y14050000D01*
X21516666Y14016667D01*
X21250000Y14016667D01*
X21883333Y14383334D02*
X22316666Y14383334D01*
X22083333Y14116667D01*
X22183333Y14116667D01*
X22250000Y14083334D01*
X22283333Y14050000D01*
X22316666Y13983334D01*
X22316666Y13816667D01*
X22283333Y13750000D01*
X22250000Y13716667D01*
X22183333Y13683334D01*
X21983333Y13683334D01*
X21916666Y13716667D01*
X21883333Y13750000D01*
X22550000Y14383334D02*
X22983333Y14383334D01*
X22750000Y14116667D01*
X22850000Y14116667D01*
X22916666Y14083334D01*
X22950000Y14050000D01*
X22983333Y13983334D01*
X22983333Y13816667D01*
X22950000Y13750000D01*
X22916666Y13716667D01*
X22850000Y13683334D01*
X22650000Y13683334D01*
X22583333Y13716667D01*
X22550000Y13750000D01*
X21716666Y6633334D02*
X21716666Y7100000D01*
X22416666Y6800000D01*
X21716666Y7700000D02*
X21716666Y7366667D01*
X22050000Y7333334D01*
X22016666Y7366667D01*
X21983333Y7433334D01*
X21983333Y7600000D01*
X22016666Y7666667D01*
X22050000Y7700000D01*
X22116666Y7733334D01*
X22283333Y7733334D01*
X22350000Y7700000D01*
X22383333Y7666667D01*
X22416666Y7600000D01*
X22416666Y7433334D01*
X22383333Y7366667D01*
X22350000Y7333334D01*
X25116666Y6633334D02*
X25116666Y7100000D01*
X25816666Y6800000D01*
X25116666Y7700000D02*
X25116666Y7366667D01*
X25450000Y7333334D01*
X25416666Y7366667D01*
X25383333Y7433334D01*
X25383333Y7600000D01*
X25416666Y7666667D01*
X25450000Y7700000D01*
X25516666Y7733334D01*
X25683333Y7733334D01*
X25750000Y7700000D01*
X25783333Y7666667D01*
X25816666Y7600000D01*
X25816666Y7433334D01*
X25783333Y7366667D01*
X25750000Y7333334D01*
X25050000Y13683334D02*
X24816666Y14016667D01*
X24650000Y13683334D02*
X24650000Y14383334D01*
X24916666Y14383334D01*
X24983333Y14350000D01*
X25016666Y14316667D01*
X25050000Y14250000D01*
X25050000Y14150000D01*
X25016666Y14083334D01*
X24983333Y14050000D01*
X24916666Y14016667D01*
X24650000Y14016667D01*
X25283333Y14383334D02*
X25716666Y14383334D01*
X25483333Y14116667D01*
X25583333Y14116667D01*
X25650000Y14083334D01*
X25683333Y14050000D01*
X25716666Y13983334D01*
X25716666Y13816667D01*
X25683333Y13750000D01*
X25650000Y13716667D01*
X25583333Y13683334D01*
X25383333Y13683334D01*
X25316666Y13716667D01*
X25283333Y13750000D01*
X26316666Y14150000D02*
X26316666Y13683334D01*
X26150000Y14416667D02*
X25983333Y13916667D01*
X26416666Y13916667D01*
X16902000Y92049334D02*
X17368666Y91349334D01*
X17368666Y92049334D02*
X16902000Y91349334D01*
X17602000Y91382667D02*
X17702000Y91349334D01*
X17868666Y91349334D01*
X17935333Y91382667D01*
X17968666Y91416000D01*
X18002000Y91482667D01*
X18002000Y91549334D01*
X17968666Y91616000D01*
X17935333Y91649334D01*
X17868666Y91682667D01*
X17735333Y91716000D01*
X17668666Y91749334D01*
X17635333Y91782667D01*
X17602000Y91849334D01*
X17602000Y91916000D01*
X17635333Y91982667D01*
X17668666Y92016000D01*
X17735333Y92049334D01*
X17902000Y92049334D01*
X18002000Y92016000D01*
X18602000Y91816000D02*
X18602000Y91349334D01*
X18435333Y92082667D02*
X18268666Y91582667D01*
X18702000Y91582667D01*
X16902000Y4049334D02*
X17368666Y3349334D01*
X17368666Y4049334D02*
X16902000Y3349334D01*
X17602000Y3382667D02*
X17702000Y3349334D01*
X17868666Y3349334D01*
X17935333Y3382667D01*
X17968666Y3416000D01*
X18002000Y3482667D01*
X18002000Y3549334D01*
X17968666Y3616000D01*
X17935333Y3649334D01*
X17868666Y3682667D01*
X17735333Y3716000D01*
X17668666Y3749334D01*
X17635333Y3782667D01*
X17602000Y3849334D01*
X17602000Y3916000D01*
X17635333Y3982667D01*
X17668666Y4016000D01*
X17735333Y4049334D01*
X17902000Y4049334D01*
X18002000Y4016000D01*
X18335333Y3349334D02*
X18468666Y3349334D01*
X18535333Y3382667D01*
X18568666Y3416000D01*
X18635333Y3516000D01*
X18668666Y3649334D01*
X18668666Y3916000D01*
X18635333Y3982667D01*
X18602000Y4016000D01*
X18535333Y4049334D01*
X18402000Y4049334D01*
X18335333Y4016000D01*
X18302000Y3982667D01*
X18268666Y3916000D01*
X18268666Y3749334D01*
X18302000Y3682667D01*
X18335333Y3649334D01*
X18402000Y3616000D01*
X18535333Y3616000D01*
X18602000Y3649334D01*
X18635333Y3682667D01*
X18668666Y3749334D01*
M02*
