M48
;DRILL file {KiCad (2016-12-20 revision 2972f6f)-master} date Sun Jul  5 08:57:15 2020
;FORMAT={3:3/ absolute / metric / suppress leading zeros}
FMAT,2
METRIC,TZ
T1C0.500
T2C0.700
T3C0.800
T4C0.900
T5C1.000
T6C1.100
T7C1.300
T8C1.400
T9C3.200
%
G90
G05
M71
T1
X1100Y47200
X1400Y67900
X1600Y103900
X1600Y19100
X1600Y11100
X1600Y1400
X2000Y26000
X3300Y35400
X3400Y45500
X4371Y81340
X4600Y61700
X4600Y52500
X4800Y24200
X5133Y86547
X5500Y105000
X5500Y20300
X5600Y96200
X5641Y92770
X6149Y78546
X6600Y32800
X7200Y89300
X7500Y17400
X7600Y46300
X7700Y56600
X8200Y35700
X9100Y92700
X9200Y49400
X9200Y45400
X9200Y24600
X9600Y102700
X9700Y85700
X9900Y3800
X10000Y34200
X10300Y9300
X10500Y30900
X10700Y57900
X10700Y14300
X11102Y79435
X11600Y19600
X12000Y95000
X12499Y73466
X12600Y39000
X12880Y66608
X13200Y34000
X13300Y48900
X13400Y58600
X15100Y105100
X15800Y16200
X15900Y98300
X15900Y48700
X16500Y31500
X16600Y36900
X16944Y73339
X17200Y60600
X17300Y7900
X17500Y25700
X18100Y95700
X18400Y1900
X18600Y46000
X18600Y13300
X19400Y102500
X19900Y33700
X20100Y91300
X20200Y30300
X20246Y82356
X20400Y9800
X20500Y98600
X20600Y28700
X20800Y92800
X20800Y85100
X21008Y77657
X21100Y19900
X21200Y89500
X21700Y4300
X22300Y24500
X22500Y102500
X22500Y65800
X22500Y56600
X22600Y48500
X23200Y45500
X23700Y22200
X23700Y11300
X24400Y43000
X24400Y40700
X24400Y35400
X24600Y89200
X24700Y92500
X24945Y81594
X24945Y78292
X25300Y28300
X25400Y45500
X25800Y5100
X26000Y99100
X26088Y61401
X26850Y68513
X27400Y8500
X27600Y104700
X27600Y1000
X27700Y53700
X28100Y46700
T2
X2466Y79816
X2466Y74736
X11360Y40200
X13900Y22240
X13900Y17160
X14465Y36800
X15735Y38070
X15735Y35530
X16440Y40200
X18500Y40240
X18500Y35160
X21760Y22100
X26469Y79816
X26469Y74736
X26840Y22100
T3
X3250Y22950
X4150Y28050
X7350Y22950
X8250Y28050
X21100Y104310
X21100Y96690
X21100Y94710
X21100Y87090
X21897Y54670
X21897Y47050
X21897Y43621
X21897Y36001
X24056Y54670
X24056Y47050
X24500Y104310
X24500Y96690
X24500Y94710
X24500Y87090
X26200Y54710
X26200Y47090
T4
X17800Y20950
X17800Y18450
X24300Y18750
X24300Y16250
T5
X1500Y100350
X1500Y97810
X1500Y95270
X1500Y92730
X1500Y90190
X1500Y87650
X1500Y44350
X1500Y41810
X1500Y39270
X1500Y36730
X1500Y34190
X1500Y31650
X3181Y84261
X3730Y15780
X3730Y13240
X3730Y10700
X3730Y8160
X3730Y5620
X5000Y40980
X5000Y30820
X6270Y15780
X6270Y13240
X6270Y10700
X6270Y8160
X6270Y5620
X7500Y104100
X7500Y94100
X8200Y40980
X8200Y30820
X8700Y87600
X9400Y62800
X9400Y59700
X11300Y27280
X11300Y17120
X11720Y32800
X12000Y45500
X12000Y43000
X13181Y84261
X14320Y24800
X14500Y45500
X14500Y43000
X15754Y84261
X17000Y45500
X17000Y43000
X18700Y87600
X19400Y62800
X19400Y59700
X21880Y32800
X22100Y12200
X22100Y2200
X24480Y24800
X25500Y12200
X25500Y2200
X25754Y84261
X27500Y100350
X27500Y97810
X27500Y95270
X27500Y92730
X27500Y90190
X27500Y87650
X27500Y44350
X27500Y41810
X27500Y39270
X27500Y36730
X27500Y34190
X27500Y31650
T6
X14500Y101800
X14500Y93700
X14500Y90700
X14500Y13800
X14500Y5700
X14500Y2700
T7
X8500Y79826
X8500Y71698
X8500Y68650
X20500Y79826
X20500Y71698
X20500Y68650
T8
X9500Y53000
X19500Y53000
T9
X3800Y57500
T0
M30
