G04 #@! TF.GenerationSoftware,KiCad,Pcbnew,(2016-12-20 revision 2972f6f)-master*
G04 #@! TF.CreationDate,2020-07-05T08:57:13+03:00*
G04 #@! TF.ProjectId,DIYOUT4C,4449594F555434432E6B696361645F70,rev?*
G04 #@! TF.FileFunction,Legend,Bot*
G04 #@! TF.FilePolarity,Positive*
%FSLAX46Y46*%
G04 Gerber Fmt 4.6, Leading zero omitted, Abs format (unit mm)*
G04 Created by KiCad (PCBNEW (2016-12-20 revision 2972f6f)-master) date Sun Jul  5 08:57:13 2020*
%MOMM*%
%LPD*%
G01*
G04 APERTURE LIST*
%ADD10C,0.100000*%
%ADD11C,0.300000*%
%ADD12C,1.000000*%
%ADD13C,0.150000*%
%ADD14C,0.200000*%
G04 APERTURE END LIST*
D10*
D11*
X19100000Y47895239D02*
X19100000Y49895239D01*
X18742857Y49895239D01*
X18528571Y49800000D01*
X18385714Y49609524D01*
X18314285Y49419048D01*
X18242857Y49038096D01*
X18242857Y48752381D01*
X18314285Y48371429D01*
X18385714Y48180953D01*
X18528571Y47990477D01*
X18742857Y47895239D01*
X19100000Y47895239D01*
X17600000Y47895239D02*
X17600000Y49895239D01*
X16600000Y48847620D02*
X16600000Y47895239D01*
X17100000Y49895239D02*
X16600000Y48847620D01*
X16100000Y49895239D01*
X15314285Y49895239D02*
X15028571Y49895239D01*
X14885714Y49800000D01*
X14742857Y49609524D01*
X14671428Y49228572D01*
X14671428Y48561905D01*
X14742857Y48180953D01*
X14885714Y47990477D01*
X15028571Y47895239D01*
X15314285Y47895239D01*
X15457142Y47990477D01*
X15600000Y48180953D01*
X15671428Y48561905D01*
X15671428Y49228572D01*
X15600000Y49609524D01*
X15457142Y49800000D01*
X15314285Y49895239D01*
X14028571Y49895239D02*
X14028571Y48276191D01*
X13957142Y48085715D01*
X13885714Y47990477D01*
X13742857Y47895239D01*
X13457142Y47895239D01*
X13314285Y47990477D01*
X13242857Y48085715D01*
X13171428Y48276191D01*
X13171428Y49895239D01*
X12671428Y49895239D02*
X11814285Y49895239D01*
X12242857Y47895239D02*
X12242857Y49895239D01*
X10671428Y49228572D02*
X10671428Y47895239D01*
X11028571Y49990477D02*
X11385714Y48561905D01*
X10457142Y48561905D01*
X9028571Y48085715D02*
X9100000Y47990477D01*
X9314285Y47895239D01*
X9457142Y47895239D01*
X9671428Y47990477D01*
X9814285Y48180953D01*
X9885714Y48371429D01*
X9957142Y48752381D01*
X9957142Y49038096D01*
X9885714Y49419048D01*
X9814285Y49609524D01*
X9671428Y49800000D01*
X9457142Y49895239D01*
X9314285Y49895239D01*
X9100000Y49800000D01*
X9028571Y49704762D01*
D12*
X3300000Y99900000D02*
X25600000Y99900000D01*
D10*
X27000000Y102183334D02*
X27400000Y102183334D01*
X27200000Y102183334D02*
X27200000Y102883334D01*
X27266666Y102783334D01*
X27333333Y102716667D01*
X27400000Y102683334D01*
X1200000Y101983334D02*
X1600000Y101983334D01*
X1400000Y101983334D02*
X1400000Y102683334D01*
X1466666Y102583334D01*
X1533333Y102516667D01*
X1600000Y102483334D01*
X1300000Y45883334D02*
X1700000Y45883334D01*
X1500000Y45883334D02*
X1500000Y46583334D01*
X1566666Y46483334D01*
X1633333Y46416667D01*
X1700000Y46383334D01*
X25126000Y44066334D02*
X25526000Y44066334D01*
X25326000Y44066334D02*
X25326000Y44766334D01*
X25392666Y44666334D01*
X25459333Y44599667D01*
X25526000Y44566334D01*
X20928571Y1171429D02*
X20776190Y638096D01*
X20623809Y1019048D01*
X20471428Y638096D01*
X20319047Y1171429D01*
X20090476Y1171429D02*
X19938095Y638096D01*
X19785714Y1019048D01*
X19633333Y638096D01*
X19480952Y1171429D01*
X19252380Y1171429D02*
X19100000Y638096D01*
X18947619Y1019048D01*
X18795238Y638096D01*
X18642857Y1171429D01*
X18338095Y714286D02*
X18300000Y676191D01*
X18338095Y638096D01*
X18376190Y676191D01*
X18338095Y714286D01*
X18338095Y638096D01*
X17652380Y676191D02*
X17728571Y638096D01*
X17880952Y638096D01*
X17957142Y676191D01*
X17995238Y752381D01*
X17995238Y1057143D01*
X17957142Y1133334D01*
X17880952Y1171429D01*
X17728571Y1171429D01*
X17652380Y1133334D01*
X17614285Y1057143D01*
X17614285Y980953D01*
X17995238Y904762D01*
X17271428Y638096D02*
X17271428Y1171429D01*
X17271428Y1019048D02*
X17233333Y1095239D01*
X17195238Y1133334D01*
X17119047Y1171429D01*
X17042857Y1171429D01*
X16776190Y638096D02*
X16776190Y1171429D01*
X16776190Y1438096D02*
X16814285Y1400000D01*
X16776190Y1361905D01*
X16738095Y1400000D01*
X16776190Y1438096D01*
X16776190Y1361905D01*
X16052380Y676191D02*
X16128571Y638096D01*
X16280952Y638096D01*
X16357142Y676191D01*
X16395238Y714286D01*
X16433333Y790477D01*
X16433333Y1019048D01*
X16395238Y1095239D01*
X16357142Y1133334D01*
X16280952Y1171429D01*
X16128571Y1171429D01*
X16052380Y1133334D01*
X15366666Y638096D02*
X15366666Y1057143D01*
X15404761Y1133334D01*
X15480952Y1171429D01*
X15633333Y1171429D01*
X15709523Y1133334D01*
X15366666Y676191D02*
X15442857Y638096D01*
X15633333Y638096D01*
X15709523Y676191D01*
X15747619Y752381D01*
X15747619Y828572D01*
X15709523Y904762D01*
X15633333Y942858D01*
X15442857Y942858D01*
X15366666Y980953D01*
X15023809Y676191D02*
X14947619Y638096D01*
X14795238Y638096D01*
X14719047Y676191D01*
X14680952Y752381D01*
X14680952Y790477D01*
X14719047Y866667D01*
X14795238Y904762D01*
X14909523Y904762D01*
X14985714Y942858D01*
X15023809Y1019048D01*
X15023809Y1057143D01*
X14985714Y1133334D01*
X14909523Y1171429D01*
X14795238Y1171429D01*
X14719047Y1133334D01*
X14414285Y1171429D02*
X14223809Y638096D01*
X14033333Y1171429D02*
X14223809Y638096D01*
X14300000Y447620D01*
X14338095Y409524D01*
X14414285Y371429D01*
X13728571Y1171429D02*
X13728571Y638096D01*
X13728571Y1095239D02*
X13690476Y1133334D01*
X13614285Y1171429D01*
X13500000Y1171429D01*
X13423809Y1133334D01*
X13385714Y1057143D01*
X13385714Y638096D01*
X13119047Y1171429D02*
X12814285Y1171429D01*
X13004761Y1438096D02*
X13004761Y752381D01*
X12966666Y676191D01*
X12890476Y638096D01*
X12814285Y638096D01*
X12547619Y638096D02*
X12547619Y1438096D01*
X12204761Y638096D02*
X12204761Y1057143D01*
X12242857Y1133334D01*
X12319047Y1171429D01*
X12433333Y1171429D01*
X12509523Y1133334D01*
X12547619Y1095239D01*
X11861904Y676191D02*
X11785714Y638096D01*
X11633333Y638096D01*
X11557142Y676191D01*
X11519047Y752381D01*
X11519047Y790477D01*
X11557142Y866667D01*
X11633333Y904762D01*
X11747619Y904762D01*
X11823809Y942858D01*
X11861904Y1019048D01*
X11861904Y1057143D01*
X11823809Y1133334D01*
X11747619Y1171429D01*
X11633333Y1171429D01*
X11557142Y1133334D01*
X11176190Y714286D02*
X11138095Y676191D01*
X11176190Y638096D01*
X11214285Y676191D01*
X11176190Y714286D01*
X11176190Y638096D01*
X10680952Y638096D02*
X10757142Y676191D01*
X10795238Y752381D01*
X10795238Y1438096D01*
X10452380Y1171429D02*
X10261904Y638096D01*
X10071428Y1171429D01*
D13*
X18976190Y68235715D02*
X18642857Y68235715D01*
X18500000Y67607143D02*
X18976190Y67607143D01*
X18976190Y68807143D01*
X18500000Y68807143D01*
X18071428Y67607143D02*
X18071428Y68407143D01*
X18071428Y68178572D02*
X18023809Y68292858D01*
X17976190Y68350000D01*
X17880952Y68407143D01*
X17785714Y68407143D01*
X17452380Y67607143D02*
X17452380Y68407143D01*
X17452380Y68807143D02*
X17500000Y68750000D01*
X17452380Y68692858D01*
X17404761Y68750000D01*
X17452380Y68807143D01*
X17452380Y68692858D01*
X16547619Y67664286D02*
X16642857Y67607143D01*
X16833333Y67607143D01*
X16928571Y67664286D01*
X16976190Y67721429D01*
X17023809Y67835715D01*
X17023809Y68178572D01*
X16976190Y68292858D01*
X16928571Y68350000D01*
X16833333Y68407143D01*
X16642857Y68407143D01*
X16547619Y68350000D01*
X15690476Y67607143D02*
X15690476Y68235715D01*
X15738095Y68350000D01*
X15833333Y68407143D01*
X16023809Y68407143D01*
X16119047Y68350000D01*
X15690476Y67664286D02*
X15785714Y67607143D01*
X16023809Y67607143D01*
X16119047Y67664286D01*
X16166666Y67778572D01*
X16166666Y67892858D01*
X16119047Y68007143D01*
X16023809Y68064286D01*
X15785714Y68064286D01*
X15690476Y68121429D01*
X14500000Y67664286D02*
X14357142Y67607143D01*
X14119047Y67607143D01*
X14023809Y67664286D01*
X13976190Y67721429D01*
X13928571Y67835715D01*
X13928571Y67950000D01*
X13976190Y68064286D01*
X14023809Y68121429D01*
X14119047Y68178572D01*
X14309523Y68235715D01*
X14404761Y68292858D01*
X14452380Y68350000D01*
X14500000Y68464286D01*
X14500000Y68578572D01*
X14452380Y68692858D01*
X14404761Y68750000D01*
X14309523Y68807143D01*
X14071428Y68807143D01*
X13928571Y68750000D01*
X13595238Y68407143D02*
X13357142Y67607143D01*
X13119047Y68407143D02*
X13357142Y67607143D01*
X13452380Y67321429D01*
X13500000Y67264286D01*
X13595238Y67207143D01*
X12738095Y68407143D02*
X12738095Y67607143D01*
X12738095Y68292858D02*
X12690476Y68350000D01*
X12595238Y68407143D01*
X12452380Y68407143D01*
X12357142Y68350000D01*
X12309523Y68235715D01*
X12309523Y67607143D01*
X11976190Y68407143D02*
X11595238Y68407143D01*
X11833333Y68807143D02*
X11833333Y67778572D01*
X11785714Y67664286D01*
X11690476Y67607143D01*
X11595238Y67607143D01*
X11261904Y67607143D02*
X11261904Y68807143D01*
X10833333Y67607143D02*
X10833333Y68235715D01*
X10880952Y68350000D01*
X10976190Y68407143D01*
X11119047Y68407143D01*
X11214285Y68350000D01*
X11261904Y68292858D01*
X10404761Y67664286D02*
X10309523Y67607143D01*
X10119047Y67607143D01*
X10023809Y67664286D01*
X9976190Y67778572D01*
X9976190Y67835715D01*
X10023809Y67950000D01*
X10119047Y68007143D01*
X10261904Y68007143D01*
X10357142Y68064286D01*
X10404761Y68178572D01*
X10404761Y68235715D01*
X10357142Y68350000D01*
X10261904Y68407143D01*
X10119047Y68407143D01*
X10023809Y68350000D01*
X21571428Y66857143D02*
X21380952Y66857143D01*
X21285714Y66800000D01*
X21190476Y66685715D01*
X21142857Y66457143D01*
X21142857Y66057143D01*
X21190476Y65828572D01*
X21285714Y65714286D01*
X21380952Y65657143D01*
X21571428Y65657143D01*
X21666666Y65714286D01*
X21761904Y65828572D01*
X21809523Y66057143D01*
X21809523Y66457143D01*
X21761904Y66685715D01*
X21666666Y66800000D01*
X21571428Y66857143D01*
X20285714Y66457143D02*
X20285714Y65657143D01*
X20714285Y66457143D02*
X20714285Y65828572D01*
X20666666Y65714286D01*
X20571428Y65657143D01*
X20428571Y65657143D01*
X20333333Y65714286D01*
X20285714Y65771429D01*
X19952380Y66457143D02*
X19571428Y66457143D01*
X19809523Y66857143D02*
X19809523Y65828572D01*
X19761904Y65714286D01*
X19666666Y65657143D01*
X19571428Y65657143D01*
X19238095Y66457143D02*
X19238095Y65257143D01*
X19238095Y66400000D02*
X19142857Y66457143D01*
X18952380Y66457143D01*
X18857142Y66400000D01*
X18809523Y66342858D01*
X18761904Y66228572D01*
X18761904Y65885715D01*
X18809523Y65771429D01*
X18857142Y65714286D01*
X18952380Y65657143D01*
X19142857Y65657143D01*
X19238095Y65714286D01*
X17904761Y66457143D02*
X17904761Y65657143D01*
X18333333Y66457143D02*
X18333333Y65828572D01*
X18285714Y65714286D01*
X18190476Y65657143D01*
X18047619Y65657143D01*
X17952380Y65714286D01*
X17904761Y65771429D01*
X17571428Y66457143D02*
X17190476Y66457143D01*
X17428571Y66857143D02*
X17428571Y65828572D01*
X17380952Y65714286D01*
X17285714Y65657143D01*
X17190476Y65657143D01*
X16095238Y65657143D02*
X16095238Y66457143D01*
X16095238Y66342858D02*
X16047619Y66400000D01*
X15952380Y66457143D01*
X15809523Y66457143D01*
X15714285Y66400000D01*
X15666666Y66285715D01*
X15666666Y65657143D01*
X15666666Y66285715D02*
X15619047Y66400000D01*
X15523809Y66457143D01*
X15380952Y66457143D01*
X15285714Y66400000D01*
X15238095Y66285715D01*
X15238095Y65657143D01*
X14619047Y65657143D02*
X14714285Y65714286D01*
X14761904Y65771429D01*
X14809523Y65885715D01*
X14809523Y66228572D01*
X14761904Y66342858D01*
X14714285Y66400000D01*
X14619047Y66457143D01*
X14476190Y66457143D01*
X14380952Y66400000D01*
X14333333Y66342858D01*
X14285714Y66228572D01*
X14285714Y65885715D01*
X14333333Y65771429D01*
X14380952Y65714286D01*
X14476190Y65657143D01*
X14619047Y65657143D01*
X13428571Y65657143D02*
X13428571Y66857143D01*
X13428571Y65714286D02*
X13523809Y65657143D01*
X13714285Y65657143D01*
X13809523Y65714286D01*
X13857142Y65771429D01*
X13904761Y65885715D01*
X13904761Y66228572D01*
X13857142Y66342858D01*
X13809523Y66400000D01*
X13714285Y66457143D01*
X13523809Y66457143D01*
X13428571Y66400000D01*
X12523809Y66457143D02*
X12523809Y65657143D01*
X12952380Y66457143D02*
X12952380Y65828572D01*
X12904761Y65714286D01*
X12809523Y65657143D01*
X12666666Y65657143D01*
X12571428Y65714286D01*
X12523809Y65771429D01*
X11904761Y65657143D02*
X12000000Y65714286D01*
X12047619Y65828572D01*
X12047619Y66857143D01*
X11142857Y65714286D02*
X11238095Y65657143D01*
X11428571Y65657143D01*
X11523809Y65714286D01*
X11571428Y65828572D01*
X11571428Y66285715D01*
X11523809Y66400000D01*
X11428571Y66457143D01*
X11238095Y66457143D01*
X11142857Y66400000D01*
X11095238Y66285715D01*
X11095238Y66171429D01*
X11571428Y66057143D01*
X10000000Y66457143D02*
X9761904Y65657143D01*
X9523809Y66457143D01*
X8714285Y66457143D02*
X8714285Y65657143D01*
X8952380Y66914286D02*
X9190476Y66057143D01*
X8571428Y66057143D01*
X8190476Y65771429D02*
X8142857Y65714286D01*
X8190476Y65657143D01*
X8238095Y65714286D01*
X8190476Y65771429D01*
X8190476Y65657143D01*
X7523809Y66857143D02*
X7428571Y66857143D01*
X7333333Y66800000D01*
X7285714Y66742858D01*
X7238095Y66628572D01*
X7190476Y66400000D01*
X7190476Y66114286D01*
X7238095Y65885715D01*
X7285714Y65771429D01*
X7333333Y65714286D01*
X7428571Y65657143D01*
X7523809Y65657143D01*
X7619047Y65714286D01*
X7666666Y65771429D01*
X7714285Y65885715D01*
X7761904Y66114286D01*
X7761904Y66400000D01*
X7714285Y66628572D01*
X7666666Y66742858D01*
X7619047Y66800000D01*
X7523809Y66857143D01*
X17738095Y64907143D02*
X17738095Y64050000D01*
X17785714Y63878572D01*
X17880952Y63764286D01*
X18023809Y63707143D01*
X18119047Y63707143D01*
X16833333Y64507143D02*
X16833333Y63707143D01*
X17261904Y64507143D02*
X17261904Y63878572D01*
X17214285Y63764286D01*
X17119047Y63707143D01*
X16976190Y63707143D01*
X16880952Y63764286D01*
X16833333Y63821429D01*
X16214285Y63707143D02*
X16309523Y63764286D01*
X16357142Y63878572D01*
X16357142Y64907143D01*
X15928571Y64507143D02*
X15690476Y63707143D01*
X15452380Y64507143D02*
X15690476Y63707143D01*
X15785714Y63421429D01*
X15833333Y63364286D01*
X15928571Y63307143D01*
X14357142Y64792858D02*
X14309523Y64850000D01*
X14214285Y64907143D01*
X13976190Y64907143D01*
X13880952Y64850000D01*
X13833333Y64792858D01*
X13785714Y64678572D01*
X13785714Y64564286D01*
X13833333Y64392858D01*
X14404761Y63707143D01*
X13785714Y63707143D01*
X13166666Y64907143D02*
X13071428Y64907143D01*
X12976190Y64850000D01*
X12928571Y64792858D01*
X12880952Y64678572D01*
X12833333Y64450000D01*
X12833333Y64164286D01*
X12880952Y63935715D01*
X12928571Y63821429D01*
X12976190Y63764286D01*
X13071428Y63707143D01*
X13166666Y63707143D01*
X13261904Y63764286D01*
X13309523Y63821429D01*
X13357142Y63935715D01*
X13404761Y64164286D01*
X13404761Y64450000D01*
X13357142Y64678572D01*
X13309523Y64792858D01*
X13261904Y64850000D01*
X13166666Y64907143D01*
X12452380Y64792858D02*
X12404761Y64850000D01*
X12309523Y64907143D01*
X12071428Y64907143D01*
X11976190Y64850000D01*
X11928571Y64792858D01*
X11880952Y64678572D01*
X11880952Y64564286D01*
X11928571Y64392858D01*
X12500000Y63707143D01*
X11880952Y63707143D01*
X11261904Y64907143D02*
X11166666Y64907143D01*
X11071428Y64850000D01*
X11023809Y64792858D01*
X10976190Y64678572D01*
X10928571Y64450000D01*
X10928571Y64164286D01*
X10976190Y63935715D01*
X11023809Y63821429D01*
X11071428Y63764286D01*
X11166666Y63707143D01*
X11261904Y63707143D01*
X11357142Y63764286D01*
X11404761Y63821429D01*
X11452380Y63935715D01*
X11500000Y64164286D01*
X11500000Y64450000D01*
X11452380Y64678572D01*
X11404761Y64792858D01*
X11357142Y64850000D01*
X11261904Y64907143D01*
D14*
X13561904Y12114286D02*
X12800000Y12114286D01*
X13180952Y11657143D02*
X13180952Y12571429D01*
X11800000Y11657143D02*
X12371428Y11657143D01*
X12085714Y11657143D02*
X12085714Y12857143D01*
X12180952Y12685715D01*
X12276190Y12571429D01*
X12371428Y12514286D01*
X11419047Y12742858D02*
X11371428Y12800000D01*
X11276190Y12857143D01*
X11038095Y12857143D01*
X10942857Y12800000D01*
X10895238Y12742858D01*
X10847619Y12628572D01*
X10847619Y12514286D01*
X10895238Y12342858D01*
X11466666Y11657143D01*
X10847619Y11657143D01*
X10561904Y12857143D02*
X10228571Y11657143D01*
X9895238Y12857143D01*
X13561904Y7214286D02*
X12800000Y7214286D01*
X11800000Y6757143D02*
X12371428Y6757143D01*
X12085714Y6757143D02*
X12085714Y7957143D01*
X12180952Y7785715D01*
X12276190Y7671429D01*
X12371428Y7614286D01*
X11419047Y7842858D02*
X11371428Y7900000D01*
X11276190Y7957143D01*
X11038095Y7957143D01*
X10942857Y7900000D01*
X10895238Y7842858D01*
X10847619Y7728572D01*
X10847619Y7614286D01*
X10895238Y7442858D01*
X11466666Y6757143D01*
X10847619Y6757143D01*
X10561904Y7957143D02*
X10228571Y6757143D01*
X9895238Y7957143D01*
D10*
X28770000Y86380000D02*
X26230000Y86380000D01*
X26230000Y86380000D02*
X26230000Y101620000D01*
X26230000Y101620000D02*
X28135000Y101620000D01*
X28135000Y101620000D02*
X28770000Y100985000D01*
X28770000Y100985000D02*
X28770000Y86380000D01*
X19768500Y22176500D02*
X15831500Y22176500D01*
X20980710Y19700000D02*
G75*
G03X20980710Y19700000I-3180710J0D01*
G01*
X26268500Y19976500D02*
X22331500Y19976500D01*
X27480710Y17500000D02*
G75*
G03X27480710Y17500000I-3180710J0D01*
G01*
X428000Y1429000D02*
X1444000Y413000D01*
X428000Y20987000D02*
X428000Y1429000D01*
X9572000Y413000D02*
X1444000Y413000D01*
X9572000Y20987000D02*
X428000Y20987000D01*
X9572000Y413000D02*
X9572000Y20987000D01*
X2770000Y86380000D02*
X230000Y86380000D01*
X230000Y86380000D02*
X230000Y101620000D01*
X230000Y101620000D02*
X2135000Y101620000D01*
X2135000Y101620000D02*
X2770000Y100985000D01*
X2770000Y100985000D02*
X2770000Y86380000D01*
X2770000Y30380000D02*
X230000Y30380000D01*
X230000Y30380000D02*
X230000Y45620000D01*
X230000Y45620000D02*
X2135000Y45620000D01*
X2135000Y45620000D02*
X2770000Y44985000D01*
X2770000Y44985000D02*
X2770000Y30380000D01*
X28770000Y30380000D02*
X26230000Y30380000D01*
X26230000Y30380000D02*
X26230000Y45620000D01*
X26230000Y45620000D02*
X28135000Y45620000D01*
X28135000Y45620000D02*
X28770000Y44985000D01*
X28770000Y44985000D02*
X28770000Y30380000D01*
G36*
X15732782Y72073353D02*
X15734600Y71903799D01*
X15743211Y71600886D01*
X15758139Y71380944D01*
X15781599Y71225429D01*
X15815808Y71115795D01*
X15832933Y71080751D01*
X15974904Y70919142D01*
X16183932Y70802781D01*
X16432090Y70740846D01*
X16691451Y70742517D01*
X16796094Y70764144D01*
X16972284Y70837983D01*
X17086256Y70937637D01*
X17121279Y71046498D01*
X17113590Y71079254D01*
X17067970Y71143717D01*
X16986493Y71156413D01*
X16848178Y71117482D01*
X16758147Y71081633D01*
X16597118Y71031146D01*
X16453616Y71036654D01*
X16376969Y71056466D01*
X16207877Y71125683D01*
X16108097Y71224488D01*
X16054312Y71351671D01*
X16038476Y71425415D01*
X16071282Y71441343D01*
X16175603Y71410023D01*
X16178453Y71409030D01*
X16390241Y71370459D01*
X16621540Y71382511D01*
X16832546Y71439427D01*
X16971723Y71523803D01*
X17082417Y71639707D01*
X17152569Y71755741D01*
X17194327Y71903226D01*
X17219837Y72113484D01*
X17224878Y72176596D01*
X17228625Y72447405D01*
X17193144Y72631332D01*
X17119300Y72725303D01*
X17067000Y72737600D01*
X16978116Y72692567D01*
X16920088Y72555903D01*
X16892155Y72325264D01*
X16889200Y72190014D01*
X16882733Y71984762D01*
X16859621Y71854443D01*
X16814300Y71772992D01*
X16796300Y71754874D01*
X16659085Y71689000D01*
X16477161Y71672327D01*
X16294219Y71703978D01*
X16171531Y71767424D01*
X16110566Y71828921D01*
X16072227Y71909807D01*
X16049543Y72035897D01*
X16035542Y72233011D01*
X16033355Y72279148D01*
X16018168Y72501418D01*
X15994684Y72639166D01*
X15959210Y72709364D01*
X15936506Y72724178D01*
X15856496Y72732381D01*
X15798366Y72680530D01*
X15759868Y72559494D01*
X15738756Y72360145D01*
X15732782Y72073353D01*
X15732782Y72073353D01*
X15732782Y72073353D01*
G37*
X15732782Y72073353D02*
X15734600Y71903799D01*
X15743211Y71600886D01*
X15758139Y71380944D01*
X15781599Y71225429D01*
X15815808Y71115795D01*
X15832933Y71080751D01*
X15974904Y70919142D01*
X16183932Y70802781D01*
X16432090Y70740846D01*
X16691451Y70742517D01*
X16796094Y70764144D01*
X16972284Y70837983D01*
X17086256Y70937637D01*
X17121279Y71046498D01*
X17113590Y71079254D01*
X17067970Y71143717D01*
X16986493Y71156413D01*
X16848178Y71117482D01*
X16758147Y71081633D01*
X16597118Y71031146D01*
X16453616Y71036654D01*
X16376969Y71056466D01*
X16207877Y71125683D01*
X16108097Y71224488D01*
X16054312Y71351671D01*
X16038476Y71425415D01*
X16071282Y71441343D01*
X16175603Y71410023D01*
X16178453Y71409030D01*
X16390241Y71370459D01*
X16621540Y71382511D01*
X16832546Y71439427D01*
X16971723Y71523803D01*
X17082417Y71639707D01*
X17152569Y71755741D01*
X17194327Y71903226D01*
X17219837Y72113484D01*
X17224878Y72176596D01*
X17228625Y72447405D01*
X17193144Y72631332D01*
X17119300Y72725303D01*
X17067000Y72737600D01*
X16978116Y72692567D01*
X16920088Y72555903D01*
X16892155Y72325264D01*
X16889200Y72190014D01*
X16882733Y71984762D01*
X16859621Y71854443D01*
X16814300Y71772992D01*
X16796300Y71754874D01*
X16659085Y71689000D01*
X16477161Y71672327D01*
X16294219Y71703978D01*
X16171531Y71767424D01*
X16110566Y71828921D01*
X16072227Y71909807D01*
X16049543Y72035897D01*
X16035542Y72233011D01*
X16033355Y72279148D01*
X16018168Y72501418D01*
X15994684Y72639166D01*
X15959210Y72709364D01*
X15936506Y72724178D01*
X15856496Y72732381D01*
X15798366Y72680530D01*
X15759868Y72559494D01*
X15738756Y72360145D01*
X15732782Y72073353D01*
X15732782Y72073353D01*
G36*
X17296540Y71821686D02*
X17337640Y71644341D01*
X17458457Y71495084D01*
X17651750Y71392140D01*
X17897172Y71340515D01*
X18174375Y71345211D01*
X18384481Y71386904D01*
X18585880Y71462646D01*
X18705138Y71551306D01*
X18735285Y71645506D01*
X18694974Y71715599D01*
X18612723Y71763248D01*
X18505334Y71738054D01*
X18497897Y71734715D01*
X18318060Y71675597D01*
X18119601Y71645455D01*
X17926919Y71643133D01*
X17764411Y71667474D01*
X17656475Y71717321D01*
X17625800Y71776055D01*
X17652671Y71815732D01*
X17743205Y71844497D01*
X17912285Y71865903D01*
X18043571Y71875790D01*
X18352557Y71915048D01*
X18570889Y71988529D01*
X18704643Y72099364D01*
X18759232Y72244812D01*
X18737602Y72432632D01*
X18628602Y72579863D01*
X18440204Y72681024D01*
X18180380Y72730635D01*
X18046532Y72734733D01*
X17807706Y72714999D01*
X17605942Y72666483D01*
X17454542Y72597112D01*
X17366812Y72514808D01*
X17356054Y72427497D01*
X17413823Y72357856D01*
X17493803Y72317173D01*
X17587186Y72326552D01*
X17678892Y72360832D01*
X17856827Y72411308D01*
X18054357Y72431747D01*
X18238197Y72422516D01*
X18375063Y72383980D01*
X18416414Y72352729D01*
X18449825Y72275900D01*
X18398446Y72222798D01*
X18257349Y72191415D01*
X18021608Y72179741D01*
X17991578Y72179578D01*
X17699052Y72154358D01*
X17481961Y72083240D01*
X17345920Y71970818D01*
X17296540Y71821686D01*
X17296540Y71821686D01*
X17296540Y71821686D01*
G37*
X17296540Y71821686D02*
X17337640Y71644341D01*
X17458457Y71495084D01*
X17651750Y71392140D01*
X17897172Y71340515D01*
X18174375Y71345211D01*
X18384481Y71386904D01*
X18585880Y71462646D01*
X18705138Y71551306D01*
X18735285Y71645506D01*
X18694974Y71715599D01*
X18612723Y71763248D01*
X18505334Y71738054D01*
X18497897Y71734715D01*
X18318060Y71675597D01*
X18119601Y71645455D01*
X17926919Y71643133D01*
X17764411Y71667474D01*
X17656475Y71717321D01*
X17625800Y71776055D01*
X17652671Y71815732D01*
X17743205Y71844497D01*
X17912285Y71865903D01*
X18043571Y71875790D01*
X18352557Y71915048D01*
X18570889Y71988529D01*
X18704643Y72099364D01*
X18759232Y72244812D01*
X18737602Y72432632D01*
X18628602Y72579863D01*
X18440204Y72681024D01*
X18180380Y72730635D01*
X18046532Y72734733D01*
X17807706Y72714999D01*
X17605942Y72666483D01*
X17454542Y72597112D01*
X17366812Y72514808D01*
X17356054Y72427497D01*
X17413823Y72357856D01*
X17493803Y72317173D01*
X17587186Y72326552D01*
X17678892Y72360832D01*
X17856827Y72411308D01*
X18054357Y72431747D01*
X18238197Y72422516D01*
X18375063Y72383980D01*
X18416414Y72352729D01*
X18449825Y72275900D01*
X18398446Y72222798D01*
X18257349Y72191415D01*
X18021608Y72179741D01*
X17991578Y72179578D01*
X17699052Y72154358D01*
X17481961Y72083240D01*
X17345920Y71970818D01*
X17296540Y71821686D01*
X17296540Y71821686D01*
G36*
X10032140Y71821686D02*
X10073240Y71644341D01*
X10194428Y71494735D01*
X10389215Y71391782D01*
X10638263Y71341083D01*
X10922234Y71348237D01*
X11032136Y71366639D01*
X11262480Y71429851D01*
X11399864Y71507461D01*
X11452492Y71604468D01*
X11453600Y71623382D01*
X11426824Y71717222D01*
X11339751Y71752602D01*
X11182266Y71731363D01*
X11058840Y71695192D01*
X10870155Y71653482D01*
X10680537Y71643979D01*
X10515544Y71663795D01*
X10400735Y71710042D01*
X10361400Y71774007D01*
X10386172Y71814561D01*
X10471107Y71843481D01*
X10632131Y71864699D01*
X10772146Y71875384D01*
X11071067Y71910924D01*
X11282354Y71975863D01*
X11417056Y72075442D01*
X11486005Y72214023D01*
X11482646Y72390626D01*
X11392821Y72546693D01*
X11231607Y72658300D01*
X11197886Y72671233D01*
X10989213Y72720100D01*
X10770340Y72733485D01*
X10557494Y72716269D01*
X10366902Y72673335D01*
X10214790Y72609563D01*
X10117386Y72529837D01*
X10090916Y72439037D01*
X10140046Y72352983D01*
X10204980Y72302304D01*
X10274366Y72304372D01*
X10377962Y72352030D01*
X10546968Y72407418D01*
X10749975Y72429884D01*
X10947221Y72419134D01*
X11098943Y72374875D01*
X11126391Y72357566D01*
X11185170Y72284056D01*
X11145476Y72229525D01*
X11008766Y72194623D01*
X10776500Y72180001D01*
X10727178Y72179578D01*
X10434652Y72154358D01*
X10217561Y72083240D01*
X10081520Y71970818D01*
X10032140Y71821686D01*
X10032140Y71821686D01*
X10032140Y71821686D01*
G37*
X10032140Y71821686D02*
X10073240Y71644341D01*
X10194428Y71494735D01*
X10389215Y71391782D01*
X10638263Y71341083D01*
X10922234Y71348237D01*
X11032136Y71366639D01*
X11262480Y71429851D01*
X11399864Y71507461D01*
X11452492Y71604468D01*
X11453600Y71623382D01*
X11426824Y71717222D01*
X11339751Y71752602D01*
X11182266Y71731363D01*
X11058840Y71695192D01*
X10870155Y71653482D01*
X10680537Y71643979D01*
X10515544Y71663795D01*
X10400735Y71710042D01*
X10361400Y71774007D01*
X10386172Y71814561D01*
X10471107Y71843481D01*
X10632131Y71864699D01*
X10772146Y71875384D01*
X11071067Y71910924D01*
X11282354Y71975863D01*
X11417056Y72075442D01*
X11486005Y72214023D01*
X11482646Y72390626D01*
X11392821Y72546693D01*
X11231607Y72658300D01*
X11197886Y72671233D01*
X10989213Y72720100D01*
X10770340Y72733485D01*
X10557494Y72716269D01*
X10366902Y72673335D01*
X10214790Y72609563D01*
X10117386Y72529837D01*
X10090916Y72439037D01*
X10140046Y72352983D01*
X10204980Y72302304D01*
X10274366Y72304372D01*
X10377962Y72352030D01*
X10546968Y72407418D01*
X10749975Y72429884D01*
X10947221Y72419134D01*
X11098943Y72374875D01*
X11126391Y72357566D01*
X11185170Y72284056D01*
X11145476Y72229525D01*
X11008766Y72194623D01*
X10776500Y72180001D01*
X10727178Y72179578D01*
X10434652Y72154358D01*
X10217561Y72083240D01*
X10081520Y71970818D01*
X10032140Y71821686D01*
X10032140Y71821686D01*
G36*
X14096741Y71682829D02*
X14115202Y71500841D01*
X14165652Y71400598D01*
X14250219Y71374102D01*
X14262096Y71375403D01*
X14317757Y71391586D01*
X14353735Y71434773D01*
X14376644Y71525801D01*
X14393101Y71685511D01*
X14402230Y71816794D01*
X14432384Y72083589D01*
X14488907Y72264242D01*
X14582192Y72372947D01*
X14722630Y72423897D01*
X14853249Y72432800D01*
X15039952Y72407450D01*
X15164760Y72323669D01*
X15236223Y72169859D01*
X15262890Y71934426D01*
X15263600Y71876176D01*
X15268740Y71640709D01*
X15288272Y71489331D01*
X15328367Y71404864D01*
X15395193Y71370131D01*
X15446836Y71366000D01*
X15568400Y71366000D01*
X15568400Y72027995D01*
X15566460Y72307121D01*
X15559486Y72500277D01*
X15545746Y72623037D01*
X15523510Y72690976D01*
X15491554Y72719478D01*
X15390461Y72715543D01*
X15342401Y72688959D01*
X15248288Y72655478D01*
X15168587Y72683275D01*
X14998584Y72730462D01*
X14786349Y72731260D01*
X14578449Y72688658D01*
X14466261Y72638236D01*
X14294408Y72501124D01*
X14184204Y72326064D01*
X14123085Y72089069D01*
X14108146Y71954559D01*
X14096741Y71682829D01*
X14096741Y71682829D01*
X14096741Y71682829D01*
G37*
X14096741Y71682829D02*
X14115202Y71500841D01*
X14165652Y71400598D01*
X14250219Y71374102D01*
X14262096Y71375403D01*
X14317757Y71391586D01*
X14353735Y71434773D01*
X14376644Y71525801D01*
X14393101Y71685511D01*
X14402230Y71816794D01*
X14432384Y72083589D01*
X14488907Y72264242D01*
X14582192Y72372947D01*
X14722630Y72423897D01*
X14853249Y72432800D01*
X15039952Y72407450D01*
X15164760Y72323669D01*
X15236223Y72169859D01*
X15262890Y71934426D01*
X15263600Y71876176D01*
X15268740Y71640709D01*
X15288272Y71489331D01*
X15328367Y71404864D01*
X15395193Y71370131D01*
X15446836Y71366000D01*
X15568400Y71366000D01*
X15568400Y72027995D01*
X15566460Y72307121D01*
X15559486Y72500277D01*
X15545746Y72623037D01*
X15523510Y72690976D01*
X15491554Y72719478D01*
X15390461Y72715543D01*
X15342401Y72688959D01*
X15248288Y72655478D01*
X15168587Y72683275D01*
X14998584Y72730462D01*
X14786349Y72731260D01*
X14578449Y72688658D01*
X14466261Y72638236D01*
X14294408Y72501124D01*
X14184204Y72326064D01*
X14123085Y72089069D01*
X14108146Y71954559D01*
X14096741Y71682829D01*
X14096741Y71682829D01*
G36*
X13155988Y71543561D02*
X13159959Y71448639D01*
X13231953Y71387297D01*
X13362098Y71365348D01*
X13515295Y71381853D01*
X13656444Y71435874D01*
X13695873Y71462960D01*
X13756975Y71524791D01*
X13796325Y71607014D01*
X13821014Y71735044D01*
X13838136Y71934296D01*
X13841200Y71983660D01*
X13856865Y72194122D01*
X13876019Y72320868D01*
X13903345Y72381779D01*
X13943529Y72394731D01*
X13948724Y72394030D01*
X14052216Y72419834D01*
X14117582Y72506483D01*
X14117182Y72601191D01*
X14046765Y72672212D01*
X13976605Y72696530D01*
X13913504Y72718513D01*
X13875582Y72778196D01*
X13852509Y72899999D01*
X13841200Y73016554D01*
X13820370Y73193331D01*
X13789496Y73291440D01*
X13739986Y73333802D01*
X13720288Y73339052D01*
X13626146Y73328072D01*
X13568005Y73244823D01*
X13540790Y73078718D01*
X13537178Y72957034D01*
X13531716Y72800704D01*
X13509145Y72718915D01*
X13458396Y72684790D01*
X13422100Y72677634D01*
X13324727Y72629873D01*
X13286499Y72546874D01*
X13311553Y72465559D01*
X13393682Y72424029D01*
X13455190Y72407882D01*
X13490364Y72365873D01*
X13506499Y72274865D01*
X13510884Y72111720D01*
X13511000Y72051800D01*
X13509140Y71865770D01*
X13497902Y71758169D01*
X13468802Y71705831D01*
X13413357Y71685589D01*
X13375018Y71680485D01*
X13230559Y71633158D01*
X13155988Y71543561D01*
X13155988Y71543561D01*
X13155988Y71543561D01*
G37*
X13155988Y71543561D02*
X13159959Y71448639D01*
X13231953Y71387297D01*
X13362098Y71365348D01*
X13515295Y71381853D01*
X13656444Y71435874D01*
X13695873Y71462960D01*
X13756975Y71524791D01*
X13796325Y71607014D01*
X13821014Y71735044D01*
X13838136Y71934296D01*
X13841200Y71983660D01*
X13856865Y72194122D01*
X13876019Y72320868D01*
X13903345Y72381779D01*
X13943529Y72394731D01*
X13948724Y72394030D01*
X14052216Y72419834D01*
X14117582Y72506483D01*
X14117182Y72601191D01*
X14046765Y72672212D01*
X13976605Y72696530D01*
X13913504Y72718513D01*
X13875582Y72778196D01*
X13852509Y72899999D01*
X13841200Y73016554D01*
X13820370Y73193331D01*
X13789496Y73291440D01*
X13739986Y73333802D01*
X13720288Y73339052D01*
X13626146Y73328072D01*
X13568005Y73244823D01*
X13540790Y73078718D01*
X13537178Y72957034D01*
X13531716Y72800704D01*
X13509145Y72718915D01*
X13458396Y72684790D01*
X13422100Y72677634D01*
X13324727Y72629873D01*
X13286499Y72546874D01*
X13311553Y72465559D01*
X13393682Y72424029D01*
X13455190Y72407882D01*
X13490364Y72365873D01*
X13506499Y72274865D01*
X13510884Y72111720D01*
X13511000Y72051800D01*
X13509140Y71865770D01*
X13497902Y71758169D01*
X13468802Y71705831D01*
X13413357Y71685589D01*
X13375018Y71680485D01*
X13230559Y71633158D01*
X13155988Y71543561D01*
X13155988Y71543561D01*
G36*
X11576506Y71663459D02*
X11606134Y71486294D01*
X11670940Y71390098D01*
X11754263Y71366000D01*
X11826666Y71392366D01*
X11874320Y71480015D01*
X11900885Y71641779D01*
X11910024Y71890487D01*
X11910107Y71912100D01*
X11930264Y72155294D01*
X11995531Y72315272D01*
X12114992Y72403815D01*
X12297730Y72432706D01*
X12311573Y72432800D01*
X12494425Y72414480D01*
X12621569Y72349877D01*
X12703819Y72224530D01*
X12751988Y72023976D01*
X12772171Y71816794D01*
X12788120Y71607570D01*
X12806882Y71479180D01*
X12834821Y71410920D01*
X12878301Y71382086D01*
X12907635Y71376015D01*
X13011068Y71397937D01*
X13047335Y71443669D01*
X13058137Y71520870D01*
X13067372Y71680442D01*
X13074363Y71903160D01*
X13078437Y72169798D01*
X13079200Y72351046D01*
X13075747Y72710880D01*
X13063875Y72979356D01*
X13041315Y73166529D01*
X13005798Y73282453D01*
X12955056Y73337185D01*
X12886819Y73340779D01*
X12857947Y73331649D01*
X12810910Y73291153D01*
X12784900Y73200554D01*
X12774983Y73038040D01*
X12774400Y72962360D01*
X12771736Y72783521D01*
X12759925Y72687075D01*
X12733244Y72653874D01*
X12685968Y72664767D01*
X12685500Y72664976D01*
X12486005Y72715911D01*
X12253091Y72720971D01*
X12038402Y72681168D01*
X11965212Y72650858D01*
X11791266Y72535816D01*
X11677439Y72392579D01*
X11611044Y72197421D01*
X11579570Y71929612D01*
X11576506Y71663459D01*
X11576506Y71663459D01*
X11576506Y71663459D01*
G37*
X11576506Y71663459D02*
X11606134Y71486294D01*
X11670940Y71390098D01*
X11754263Y71366000D01*
X11826666Y71392366D01*
X11874320Y71480015D01*
X11900885Y71641779D01*
X11910024Y71890487D01*
X11910107Y71912100D01*
X11930264Y72155294D01*
X11995531Y72315272D01*
X12114992Y72403815D01*
X12297730Y72432706D01*
X12311573Y72432800D01*
X12494425Y72414480D01*
X12621569Y72349877D01*
X12703819Y72224530D01*
X12751988Y72023976D01*
X12772171Y71816794D01*
X12788120Y71607570D01*
X12806882Y71479180D01*
X12834821Y71410920D01*
X12878301Y71382086D01*
X12907635Y71376015D01*
X13011068Y71397937D01*
X13047335Y71443669D01*
X13058137Y71520870D01*
X13067372Y71680442D01*
X13074363Y71903160D01*
X13078437Y72169798D01*
X13079200Y72351046D01*
X13075747Y72710880D01*
X13063875Y72979356D01*
X13041315Y73166529D01*
X13005798Y73282453D01*
X12955056Y73337185D01*
X12886819Y73340779D01*
X12857947Y73331649D01*
X12810910Y73291153D01*
X12784900Y73200554D01*
X12774983Y73038040D01*
X12774400Y72962360D01*
X12771736Y72783521D01*
X12759925Y72687075D01*
X12733244Y72653874D01*
X12685968Y72664767D01*
X12685500Y72664976D01*
X12486005Y72715911D01*
X12253091Y72720971D01*
X12038402Y72681168D01*
X11965212Y72650858D01*
X11791266Y72535816D01*
X11677439Y72392579D01*
X11611044Y72197421D01*
X11579570Y71929612D01*
X11576506Y71663459D01*
X11576506Y71663459D01*
G36*
X16250361Y74720121D02*
X16253241Y74570767D01*
X16314353Y74422795D01*
X16430528Y74320890D01*
X16551723Y74279969D01*
X16551723Y74592447D01*
X16554502Y74693005D01*
X16633214Y74768017D01*
X16764496Y74813455D01*
X16924986Y74825292D01*
X17091322Y74799501D01*
X17240140Y74732056D01*
X17263350Y74715113D01*
X17354771Y74630422D01*
X17396884Y74566207D01*
X17397200Y74562713D01*
X17350415Y74540874D01*
X17226050Y74524411D01*
X17048092Y74516093D01*
X16989206Y74515600D01*
X16773104Y74520074D01*
X16639711Y74535672D01*
X16570442Y74565659D01*
X16551723Y74592447D01*
X16551723Y74279969D01*
X16615135Y74258558D01*
X16881541Y74229303D01*
X16961883Y74226411D01*
X17197625Y74213083D01*
X17336650Y74185862D01*
X17383201Y74142248D01*
X17341521Y74079742D01*
X17283399Y74036977D01*
X17041266Y73934621D01*
X16779578Y73931933D01*
X16610056Y73979403D01*
X16434043Y74032506D01*
X16329442Y74025031D01*
X16284007Y73954051D01*
X16279600Y73900410D01*
X16325865Y73805726D01*
X16449198Y73731024D01*
X16626408Y73679836D01*
X16834304Y73655696D01*
X17049696Y73662134D01*
X17249391Y73702684D01*
X17340229Y73738864D01*
X17526381Y73881435D01*
X17646118Y74077481D01*
X17699182Y74303569D01*
X17685318Y74536267D01*
X17604268Y74752141D01*
X17455776Y74927759D01*
X17353980Y74994281D01*
X17116427Y75080675D01*
X16877291Y75105372D01*
X16653844Y75075020D01*
X16463359Y74996264D01*
X16323107Y74875749D01*
X16250361Y74720121D01*
X16250361Y74720121D01*
X16250361Y74720121D01*
G37*
X16250361Y74720121D02*
X16253241Y74570767D01*
X16314353Y74422795D01*
X16430528Y74320890D01*
X16551723Y74279969D01*
X16551723Y74592447D01*
X16554502Y74693005D01*
X16633214Y74768017D01*
X16764496Y74813455D01*
X16924986Y74825292D01*
X17091322Y74799501D01*
X17240140Y74732056D01*
X17263350Y74715113D01*
X17354771Y74630422D01*
X17396884Y74566207D01*
X17397200Y74562713D01*
X17350415Y74540874D01*
X17226050Y74524411D01*
X17048092Y74516093D01*
X16989206Y74515600D01*
X16773104Y74520074D01*
X16639711Y74535672D01*
X16570442Y74565659D01*
X16551723Y74592447D01*
X16551723Y74279969D01*
X16615135Y74258558D01*
X16881541Y74229303D01*
X16961883Y74226411D01*
X17197625Y74213083D01*
X17336650Y74185862D01*
X17383201Y74142248D01*
X17341521Y74079742D01*
X17283399Y74036977D01*
X17041266Y73934621D01*
X16779578Y73931933D01*
X16610056Y73979403D01*
X16434043Y74032506D01*
X16329442Y74025031D01*
X16284007Y73954051D01*
X16279600Y73900410D01*
X16325865Y73805726D01*
X16449198Y73731024D01*
X16626408Y73679836D01*
X16834304Y73655696D01*
X17049696Y73662134D01*
X17249391Y73702684D01*
X17340229Y73738864D01*
X17526381Y73881435D01*
X17646118Y74077481D01*
X17699182Y74303569D01*
X17685318Y74536267D01*
X17604268Y74752141D01*
X17455776Y74927759D01*
X17353980Y74994281D01*
X17116427Y75080675D01*
X16877291Y75105372D01*
X16653844Y75075020D01*
X16463359Y74996264D01*
X16323107Y74875749D01*
X16250361Y74720121D01*
X16250361Y74720121D01*
G36*
X14664635Y74834090D02*
X14680991Y74774541D01*
X14714581Y74738049D01*
X14778579Y74689333D01*
X14849275Y74693125D01*
X14949962Y74739630D01*
X15141789Y74801601D01*
X15351050Y74811565D01*
X15548787Y74774693D01*
X15706038Y74696154D01*
X15790844Y74589525D01*
X15807835Y74496590D01*
X15819566Y74339898D01*
X15823094Y74193946D01*
X15828366Y74006253D01*
X15841282Y73845216D01*
X15854419Y73766300D01*
X15918066Y73677337D01*
X16017171Y73650528D01*
X16093334Y73685867D01*
X16105897Y73746633D01*
X16116351Y73889016D01*
X16123737Y74093040D01*
X16127096Y74338728D01*
X16127200Y74391632D01*
X16125768Y74668090D01*
X16120104Y74859488D01*
X16108158Y74982342D01*
X16087881Y75053167D01*
X16057223Y75088481D01*
X16039641Y75097130D01*
X15936573Y75089033D01*
X15891404Y75047750D01*
X15814081Y74992734D01*
X15737664Y75013686D01*
X15525458Y75084266D01*
X15282195Y75103054D01*
X15040997Y75073345D01*
X14834984Y74998434D01*
X14721714Y74912623D01*
X14664635Y74834090D01*
X14664635Y74834090D01*
X14664635Y74834090D01*
G37*
X14664635Y74834090D02*
X14680991Y74774541D01*
X14714581Y74738049D01*
X14778579Y74689333D01*
X14849275Y74693125D01*
X14949962Y74739630D01*
X15141789Y74801601D01*
X15351050Y74811565D01*
X15548787Y74774693D01*
X15706038Y74696154D01*
X15790844Y74589525D01*
X15807835Y74496590D01*
X15819566Y74339898D01*
X15823094Y74193946D01*
X15828366Y74006253D01*
X15841282Y73845216D01*
X15854419Y73766300D01*
X15918066Y73677337D01*
X16017171Y73650528D01*
X16093334Y73685867D01*
X16105897Y73746633D01*
X16116351Y73889016D01*
X16123737Y74093040D01*
X16127096Y74338728D01*
X16127200Y74391632D01*
X16125768Y74668090D01*
X16120104Y74859488D01*
X16108158Y74982342D01*
X16087881Y75053167D01*
X16057223Y75088481D01*
X16039641Y75097130D01*
X15936573Y75089033D01*
X15891404Y75047750D01*
X15814081Y74992734D01*
X15737664Y75013686D01*
X15525458Y75084266D01*
X15282195Y75103054D01*
X15040997Y75073345D01*
X14834984Y74998434D01*
X14721714Y74912623D01*
X14664635Y74834090D01*
X14664635Y74834090D01*
G36*
X14305181Y74789917D02*
X14306150Y74569225D01*
X14309706Y74369930D01*
X14316145Y74092636D01*
X14324076Y73900726D01*
X14336286Y73777992D01*
X14355565Y73708228D01*
X14384699Y73675225D01*
X14426478Y73662776D01*
X14431479Y73662035D01*
X14527471Y73682538D01*
X14570485Y73763635D01*
X14583672Y73862255D01*
X14594265Y74035003D01*
X14600919Y74254418D01*
X14602507Y74416991D01*
X14595618Y74718682D01*
X14572187Y74928400D01*
X14529427Y75054834D01*
X14464550Y75106677D01*
X14384566Y75096595D01*
X14348849Y75073509D01*
X14324840Y75025644D01*
X14310848Y74936584D01*
X14305181Y74789917D01*
X14305181Y74789917D01*
X14305181Y74789917D01*
G37*
X14305181Y74789917D02*
X14306150Y74569225D01*
X14309706Y74369930D01*
X14316145Y74092636D01*
X14324076Y73900726D01*
X14336286Y73777992D01*
X14355565Y73708228D01*
X14384699Y73675225D01*
X14426478Y73662776D01*
X14431479Y73662035D01*
X14527471Y73682538D01*
X14570485Y73763635D01*
X14583672Y73862255D01*
X14594265Y74035003D01*
X14600919Y74254418D01*
X14602507Y74416991D01*
X14595618Y74718682D01*
X14572187Y74928400D01*
X14529427Y75054834D01*
X14464550Y75106677D01*
X14384566Y75096595D01*
X14348849Y75073509D01*
X14324840Y75025644D01*
X14310848Y74936584D01*
X14305181Y74789917D01*
X14305181Y74789917D01*
G36*
X12774400Y73900410D02*
X12820534Y73805315D01*
X12942933Y73730166D01*
X13117595Y73678512D01*
X13320518Y73653897D01*
X13527699Y73659870D01*
X13715137Y73699978D01*
X13815800Y73746517D01*
X14009924Y73892469D01*
X14123569Y74053491D01*
X14176555Y74260870D01*
X14182814Y74325888D01*
X14161757Y74601065D01*
X14057893Y74820844D01*
X13876896Y74979760D01*
X13624442Y75072349D01*
X13384000Y75095008D01*
X13144334Y75074044D01*
X12950527Y75015801D01*
X12822699Y74928391D01*
X12782958Y74852718D01*
X12790105Y74738118D01*
X12864159Y74695897D01*
X12997547Y74729327D01*
X13030976Y74745532D01*
X13210858Y74799999D01*
X13422371Y74809569D01*
X13624727Y74776939D01*
X13777139Y74704799D01*
X13788036Y74695541D01*
X13900187Y74535789D01*
X13927170Y74356685D01*
X13875667Y74182314D01*
X13752356Y74036762D01*
X13580975Y73948933D01*
X13434047Y73915590D01*
X13304587Y73921186D01*
X13140575Y73968659D01*
X13123137Y73974804D01*
X12941095Y74028234D01*
X12832368Y74027636D01*
X12782350Y73969895D01*
X12774400Y73900410D01*
X12774400Y73900410D01*
X12774400Y73900410D01*
G37*
X12774400Y73900410D02*
X12820534Y73805315D01*
X12942933Y73730166D01*
X13117595Y73678512D01*
X13320518Y73653897D01*
X13527699Y73659870D01*
X13715137Y73699978D01*
X13815800Y73746517D01*
X14009924Y73892469D01*
X14123569Y74053491D01*
X14176555Y74260870D01*
X14182814Y74325888D01*
X14161757Y74601065D01*
X14057893Y74820844D01*
X13876896Y74979760D01*
X13624442Y75072349D01*
X13384000Y75095008D01*
X13144334Y75074044D01*
X12950527Y75015801D01*
X12822699Y74928391D01*
X12782958Y74852718D01*
X12790105Y74738118D01*
X12864159Y74695897D01*
X12997547Y74729327D01*
X13030976Y74745532D01*
X13210858Y74799999D01*
X13422371Y74809569D01*
X13624727Y74776939D01*
X13777139Y74704799D01*
X13788036Y74695541D01*
X13900187Y74535789D01*
X13927170Y74356685D01*
X13875667Y74182314D01*
X13752356Y74036762D01*
X13580975Y73948933D01*
X13434047Y73915590D01*
X13304587Y73921186D01*
X13140575Y73968659D01*
X13123137Y73974804D01*
X12941095Y74028234D01*
X12832368Y74027636D01*
X12782350Y73969895D01*
X12774400Y73900410D01*
X12774400Y73900410D01*
G36*
X11090176Y74470202D02*
X11091600Y74235073D01*
X11101780Y74014329D01*
X11120682Y73831090D01*
X11148271Y73708474D01*
X11174847Y73670123D01*
X11274647Y73674666D01*
X11328752Y73704586D01*
X11379337Y73726790D01*
X11379337Y74426940D01*
X11436488Y74597334D01*
X11566610Y74732094D01*
X11606000Y74754665D01*
X11813718Y74817857D01*
X12025321Y74813185D01*
X12218164Y74750071D01*
X12369603Y74637935D01*
X12456989Y74486198D01*
X12469600Y74395388D01*
X12426677Y74187032D01*
X12308853Y74031435D01*
X12132554Y73936828D01*
X11914200Y73911442D01*
X11670216Y73963507D01*
X11635331Y73977284D01*
X11479798Y74089381D01*
X11394121Y74248444D01*
X11379337Y74426940D01*
X11379337Y73726790D01*
X11415589Y73742701D01*
X11530727Y73711615D01*
X11533695Y73710269D01*
X11684602Y73672197D01*
X11889592Y73657273D01*
X12103806Y73665566D01*
X12282382Y73697144D01*
X12317174Y73709072D01*
X12534351Y73847798D01*
X12684350Y74056089D01*
X12727274Y74173643D01*
X12756012Y74431729D01*
X12690566Y74663846D01*
X12564405Y74845778D01*
X12375509Y74990365D01*
X12131308Y75077642D01*
X11863585Y75102631D01*
X11604123Y75060352D01*
X11490501Y75014016D01*
X11383829Y75002957D01*
X11323931Y75044413D01*
X11230497Y75094537D01*
X11172730Y75092207D01*
X11138785Y75030720D01*
X11113734Y74891144D01*
X11097543Y74696599D01*
X11090176Y74470202D01*
X11090176Y74470202D01*
X11090176Y74470202D01*
G37*
X11090176Y74470202D02*
X11091600Y74235073D01*
X11101780Y74014329D01*
X11120682Y73831090D01*
X11148271Y73708474D01*
X11174847Y73670123D01*
X11274647Y73674666D01*
X11328752Y73704586D01*
X11379337Y73726790D01*
X11379337Y74426940D01*
X11436488Y74597334D01*
X11566610Y74732094D01*
X11606000Y74754665D01*
X11813718Y74817857D01*
X12025321Y74813185D01*
X12218164Y74750071D01*
X12369603Y74637935D01*
X12456989Y74486198D01*
X12469600Y74395388D01*
X12426677Y74187032D01*
X12308853Y74031435D01*
X12132554Y73936828D01*
X11914200Y73911442D01*
X11670216Y73963507D01*
X11635331Y73977284D01*
X11479798Y74089381D01*
X11394121Y74248444D01*
X11379337Y74426940D01*
X11379337Y73726790D01*
X11415589Y73742701D01*
X11530727Y73711615D01*
X11533695Y73710269D01*
X11684602Y73672197D01*
X11889592Y73657273D01*
X12103806Y73665566D01*
X12282382Y73697144D01*
X12317174Y73709072D01*
X12534351Y73847798D01*
X12684350Y74056089D01*
X12727274Y74173643D01*
X12756012Y74431729D01*
X12690566Y74663846D01*
X12564405Y74845778D01*
X12375509Y74990365D01*
X12131308Y75077642D01*
X11863585Y75102631D01*
X11604123Y75060352D01*
X11490501Y75014016D01*
X11383829Y75002957D01*
X11323931Y75044413D01*
X11230497Y75094537D01*
X11172730Y75092207D01*
X11138785Y75030720D01*
X11113734Y74891144D01*
X11097543Y74696599D01*
X11090176Y74470202D01*
X11090176Y74470202D01*
G36*
X14302311Y75528262D02*
X14341946Y75435025D01*
X14378755Y75410036D01*
X14457082Y75383474D01*
X14501833Y75400578D01*
X14542240Y75440160D01*
X14592823Y75543711D01*
X14569098Y75643901D01*
X14490929Y75708110D01*
X14381039Y75704842D01*
X14315471Y75634809D01*
X14302311Y75528262D01*
X14302311Y75528262D01*
X14302311Y75528262D01*
G37*
X14302311Y75528262D02*
X14341946Y75435025D01*
X14378755Y75410036D01*
X14457082Y75383474D01*
X14501833Y75400578D01*
X14542240Y75440160D01*
X14592823Y75543711D01*
X14569098Y75643901D01*
X14490929Y75708110D01*
X14381039Y75704842D01*
X14315471Y75634809D01*
X14302311Y75528262D01*
X14302311Y75528262D01*
G36*
X12036490Y80803810D02*
X12046312Y80364971D01*
X12063483Y80254440D01*
X12183955Y79842098D01*
X12382429Y79474293D01*
X12490717Y79348480D01*
X12490717Y80479063D01*
X12543320Y80813784D01*
X12663527Y81137085D01*
X12846452Y81425283D01*
X12952912Y81542078D01*
X13261098Y81773805D01*
X13629563Y81939732D01*
X14039424Y82037747D01*
X14471797Y82065733D01*
X14907799Y82021577D01*
X15328545Y81903165D01*
X15502768Y81827582D01*
X15824732Y81621709D01*
X16076141Y81360538D01*
X16253974Y81058744D01*
X16355208Y80731000D01*
X16376823Y80391981D01*
X16315797Y80056360D01*
X16169109Y79738811D01*
X15981775Y79501161D01*
X15617359Y79188418D01*
X15225249Y78964787D01*
X14815198Y78832435D01*
X14396963Y78793527D01*
X13980299Y78850230D01*
X13627926Y78978422D01*
X13350510Y79137683D01*
X13079137Y79340432D01*
X12840011Y79563762D01*
X12659336Y79784767D01*
X12607871Y79870083D01*
X12510605Y80156602D01*
X12490717Y80479063D01*
X12490717Y79348480D01*
X12648321Y79165368D01*
X12971046Y78929665D01*
X13083116Y78872724D01*
X13221536Y78804883D01*
X13312355Y78752051D01*
X13333200Y78732211D01*
X13292305Y78696068D01*
X13187325Y78631019D01*
X13096669Y78580946D01*
X12910658Y78474286D01*
X12723634Y78355010D01*
X12664869Y78314015D01*
X12541423Y78211917D01*
X12484204Y78116826D01*
X12469633Y77988234D01*
X12469600Y77978537D01*
X12511389Y77783668D01*
X12624678Y77640683D01*
X12791351Y77569100D01*
X12853875Y77564467D01*
X12980732Y77590804D01*
X13146827Y77657534D01*
X13257000Y77716000D01*
X13401698Y77797752D01*
X13512324Y77852826D01*
X13555314Y77867534D01*
X13572585Y77821097D01*
X13581199Y77696180D01*
X13580083Y77515619D01*
X13576204Y77423900D01*
X13551513Y77141882D01*
X13507154Y76926739D01*
X13436039Y76744530D01*
X13433051Y76738478D01*
X13355365Y76521952D01*
X13364953Y76346087D01*
X13464730Y76194923D01*
X13544678Y76127073D01*
X13689808Y76063371D01*
X13689808Y77846794D01*
X13692024Y78047996D01*
X13705785Y78227920D01*
X13731359Y78355981D01*
X13741388Y78379740D01*
X13772350Y78421192D01*
X13824729Y78449094D01*
X13916604Y78466074D01*
X14066054Y78474762D01*
X14291157Y78477786D01*
X14417028Y78478000D01*
X14738455Y78472639D01*
X14959624Y78456509D01*
X15081311Y78429541D01*
X15101041Y78417040D01*
X15127655Y78341588D01*
X15147550Y78194308D01*
X15159812Y78004805D01*
X15163528Y77802686D01*
X15157783Y77617557D01*
X15141665Y77479024D01*
X15131165Y77440755D01*
X15103382Y77406812D01*
X15039915Y77383738D01*
X14924521Y77369600D01*
X14740953Y77362466D01*
X14472966Y77360405D01*
X14455525Y77360400D01*
X14130649Y77365400D01*
X13905039Y77380506D01*
X13776849Y77405877D01*
X13749761Y77421360D01*
X13718944Y77502892D01*
X13698870Y77654898D01*
X13689808Y77846794D01*
X13689808Y76063371D01*
X13711571Y76053818D01*
X13876836Y76076485D01*
X14033254Y76189548D01*
X14173609Y76387483D01*
X14290681Y76664765D01*
X14304525Y76708688D01*
X14370581Y76899141D01*
X14428877Y77018097D01*
X14473460Y77058086D01*
X14498375Y77011639D01*
X14501600Y76955906D01*
X14530286Y76789286D01*
X14604153Y76584545D01*
X14704913Y76381409D01*
X14814282Y76219604D01*
X14863959Y76168709D01*
X15013732Y76069116D01*
X15153458Y76049329D01*
X15298380Y76090755D01*
X15439997Y76195778D01*
X15506447Y76357900D01*
X15495367Y76563353D01*
X15416000Y76776200D01*
X15361324Y76911482D01*
X15329532Y77071963D01*
X15315892Y77287939D01*
X15314400Y77426791D01*
X15314400Y77878099D01*
X15593031Y77720850D01*
X15853706Y77602220D01*
X16064604Y77569788D01*
X16229252Y77623262D01*
X16278308Y77663908D01*
X16396019Y77824887D01*
X16420784Y77983367D01*
X16350729Y78143336D01*
X16183980Y78308783D01*
X15918663Y78483699D01*
X15883896Y78503400D01*
X15716591Y78599914D01*
X15590149Y78678398D01*
X15525474Y78725676D01*
X15521234Y78732000D01*
X15563570Y78765419D01*
X15672580Y78825679D01*
X15786383Y78881512D01*
X16132657Y79097537D01*
X16416281Y79383990D01*
X16631121Y79726868D01*
X16771043Y80112169D01*
X16829914Y80525890D01*
X16801599Y80954029D01*
X16766408Y81118746D01*
X16612277Y81522779D01*
X16374042Y81876435D01*
X16060324Y82170867D01*
X15679743Y82397232D01*
X15423849Y82496391D01*
X15080936Y82577088D01*
X14688000Y82623593D01*
X14285074Y82634094D01*
X13912193Y82606778D01*
X13726900Y82573232D01*
X13265637Y82421185D01*
X12868524Y82201316D01*
X12541308Y81921636D01*
X12289733Y81590152D01*
X12119546Y81214874D01*
X12036490Y80803810D01*
X12036490Y80803810D01*
X12036490Y80803810D01*
G37*
X12036490Y80803810D02*
X12046312Y80364971D01*
X12063483Y80254440D01*
X12183955Y79842098D01*
X12382429Y79474293D01*
X12490717Y79348480D01*
X12490717Y80479063D01*
X12543320Y80813784D01*
X12663527Y81137085D01*
X12846452Y81425283D01*
X12952912Y81542078D01*
X13261098Y81773805D01*
X13629563Y81939732D01*
X14039424Y82037747D01*
X14471797Y82065733D01*
X14907799Y82021577D01*
X15328545Y81903165D01*
X15502768Y81827582D01*
X15824732Y81621709D01*
X16076141Y81360538D01*
X16253974Y81058744D01*
X16355208Y80731000D01*
X16376823Y80391981D01*
X16315797Y80056360D01*
X16169109Y79738811D01*
X15981775Y79501161D01*
X15617359Y79188418D01*
X15225249Y78964787D01*
X14815198Y78832435D01*
X14396963Y78793527D01*
X13980299Y78850230D01*
X13627926Y78978422D01*
X13350510Y79137683D01*
X13079137Y79340432D01*
X12840011Y79563762D01*
X12659336Y79784767D01*
X12607871Y79870083D01*
X12510605Y80156602D01*
X12490717Y80479063D01*
X12490717Y79348480D01*
X12648321Y79165368D01*
X12971046Y78929665D01*
X13083116Y78872724D01*
X13221536Y78804883D01*
X13312355Y78752051D01*
X13333200Y78732211D01*
X13292305Y78696068D01*
X13187325Y78631019D01*
X13096669Y78580946D01*
X12910658Y78474286D01*
X12723634Y78355010D01*
X12664869Y78314015D01*
X12541423Y78211917D01*
X12484204Y78116826D01*
X12469633Y77988234D01*
X12469600Y77978537D01*
X12511389Y77783668D01*
X12624678Y77640683D01*
X12791351Y77569100D01*
X12853875Y77564467D01*
X12980732Y77590804D01*
X13146827Y77657534D01*
X13257000Y77716000D01*
X13401698Y77797752D01*
X13512324Y77852826D01*
X13555314Y77867534D01*
X13572585Y77821097D01*
X13581199Y77696180D01*
X13580083Y77515619D01*
X13576204Y77423900D01*
X13551513Y77141882D01*
X13507154Y76926739D01*
X13436039Y76744530D01*
X13433051Y76738478D01*
X13355365Y76521952D01*
X13364953Y76346087D01*
X13464730Y76194923D01*
X13544678Y76127073D01*
X13689808Y76063371D01*
X13689808Y77846794D01*
X13692024Y78047996D01*
X13705785Y78227920D01*
X13731359Y78355981D01*
X13741388Y78379740D01*
X13772350Y78421192D01*
X13824729Y78449094D01*
X13916604Y78466074D01*
X14066054Y78474762D01*
X14291157Y78477786D01*
X14417028Y78478000D01*
X14738455Y78472639D01*
X14959624Y78456509D01*
X15081311Y78429541D01*
X15101041Y78417040D01*
X15127655Y78341588D01*
X15147550Y78194308D01*
X15159812Y78004805D01*
X15163528Y77802686D01*
X15157783Y77617557D01*
X15141665Y77479024D01*
X15131165Y77440755D01*
X15103382Y77406812D01*
X15039915Y77383738D01*
X14924521Y77369600D01*
X14740953Y77362466D01*
X14472966Y77360405D01*
X14455525Y77360400D01*
X14130649Y77365400D01*
X13905039Y77380506D01*
X13776849Y77405877D01*
X13749761Y77421360D01*
X13718944Y77502892D01*
X13698870Y77654898D01*
X13689808Y77846794D01*
X13689808Y76063371D01*
X13711571Y76053818D01*
X13876836Y76076485D01*
X14033254Y76189548D01*
X14173609Y76387483D01*
X14290681Y76664765D01*
X14304525Y76708688D01*
X14370581Y76899141D01*
X14428877Y77018097D01*
X14473460Y77058086D01*
X14498375Y77011639D01*
X14501600Y76955906D01*
X14530286Y76789286D01*
X14604153Y76584545D01*
X14704913Y76381409D01*
X14814282Y76219604D01*
X14863959Y76168709D01*
X15013732Y76069116D01*
X15153458Y76049329D01*
X15298380Y76090755D01*
X15439997Y76195778D01*
X15506447Y76357900D01*
X15495367Y76563353D01*
X15416000Y76776200D01*
X15361324Y76911482D01*
X15329532Y77071963D01*
X15315892Y77287939D01*
X15314400Y77426791D01*
X15314400Y77878099D01*
X15593031Y77720850D01*
X15853706Y77602220D01*
X16064604Y77569788D01*
X16229252Y77623262D01*
X16278308Y77663908D01*
X16396019Y77824887D01*
X16420784Y77983367D01*
X16350729Y78143336D01*
X16183980Y78308783D01*
X15918663Y78483699D01*
X15883896Y78503400D01*
X15716591Y78599914D01*
X15590149Y78678398D01*
X15525474Y78725676D01*
X15521234Y78732000D01*
X15563570Y78765419D01*
X15672580Y78825679D01*
X15786383Y78881512D01*
X16132657Y79097537D01*
X16416281Y79383990D01*
X16631121Y79726868D01*
X16771043Y80112169D01*
X16829914Y80525890D01*
X16801599Y80954029D01*
X16766408Y81118746D01*
X16612277Y81522779D01*
X16374042Y81876435D01*
X16060324Y82170867D01*
X15679743Y82397232D01*
X15423849Y82496391D01*
X15080936Y82577088D01*
X14688000Y82623593D01*
X14285074Y82634094D01*
X13912193Y82606778D01*
X13726900Y82573232D01*
X13265637Y82421185D01*
X12868524Y82201316D01*
X12541308Y81921636D01*
X12289733Y81590152D01*
X12119546Y81214874D01*
X12036490Y80803810D01*
X12036490Y80803810D01*
G36*
X14273420Y79195116D02*
X14280417Y79162791D01*
X14356427Y79078765D01*
X14469168Y79076683D01*
X14530317Y79109144D01*
X14589242Y79201206D01*
X14565574Y79302686D01*
X14470007Y79376407D01*
X14378360Y79366443D01*
X14301837Y79293624D01*
X14273420Y79195116D01*
X14273420Y79195116D01*
X14273420Y79195116D01*
G37*
X14273420Y79195116D02*
X14280417Y79162791D01*
X14356427Y79078765D01*
X14469168Y79076683D01*
X14530317Y79109144D01*
X14589242Y79201206D01*
X14565574Y79302686D01*
X14470007Y79376407D01*
X14378360Y79366443D01*
X14301837Y79293624D01*
X14273420Y79195116D01*
X14273420Y79195116D01*
G36*
X14848981Y80069528D02*
X14904308Y79866707D01*
X14927314Y79826360D01*
X15049150Y79717743D01*
X15201577Y79696641D01*
X15365056Y79762197D01*
X15467183Y79850010D01*
X15629322Y80086780D01*
X15729990Y80367506D01*
X15762659Y80660234D01*
X15720797Y80933014D01*
X15700038Y80989337D01*
X15600285Y81141779D01*
X15466753Y81198627D01*
X15296616Y81160878D01*
X15261675Y81144005D01*
X15111149Y81015340D01*
X14987439Y80815277D01*
X14897723Y80572097D01*
X14849178Y80314086D01*
X14848981Y80069528D01*
X14848981Y80069528D01*
X14848981Y80069528D01*
G37*
X14848981Y80069528D02*
X14904308Y79866707D01*
X14927314Y79826360D01*
X15049150Y79717743D01*
X15201577Y79696641D01*
X15365056Y79762197D01*
X15467183Y79850010D01*
X15629322Y80086780D01*
X15729990Y80367506D01*
X15762659Y80660234D01*
X15720797Y80933014D01*
X15700038Y80989337D01*
X15600285Y81141779D01*
X15466753Y81198627D01*
X15296616Y81160878D01*
X15261675Y81144005D01*
X15111149Y81015340D01*
X14987439Y80815277D01*
X14897723Y80572097D01*
X14849178Y80314086D01*
X14848981Y80069528D01*
X14848981Y80069528D01*
G36*
X13109535Y80706460D02*
X13149838Y80346549D01*
X13269170Y80044748D01*
X13394641Y79870643D01*
X13554901Y79738632D01*
X13715832Y79697294D01*
X13862939Y79748745D01*
X13913832Y79794858D01*
X14002663Y79962826D01*
X14031312Y80182160D01*
X14007013Y80428211D01*
X13937000Y80676333D01*
X13828508Y80901880D01*
X13688769Y81080205D01*
X13525019Y81186661D01*
X13503277Y81193671D01*
X13375057Y81183121D01*
X13251091Y81102003D01*
X13165193Y81013692D01*
X13122815Y80915725D01*
X13109812Y80768577D01*
X13109535Y80706460D01*
X13109535Y80706460D01*
X13109535Y80706460D01*
G37*
X13109535Y80706460D02*
X13149838Y80346549D01*
X13269170Y80044748D01*
X13394641Y79870643D01*
X13554901Y79738632D01*
X13715832Y79697294D01*
X13862939Y79748745D01*
X13913832Y79794858D01*
X14002663Y79962826D01*
X14031312Y80182160D01*
X14007013Y80428211D01*
X13937000Y80676333D01*
X13828508Y80901880D01*
X13688769Y81080205D01*
X13525019Y81186661D01*
X13503277Y81193671D01*
X13375057Y81183121D01*
X13251091Y81102003D01*
X13165193Y81013692D01*
X13122815Y80915725D01*
X13109812Y80768577D01*
X13109535Y80706460D01*
X13109535Y80706460D01*
X25800000Y93083334D02*
X25333333Y92383334D01*
X25333333Y93083334D02*
X25800000Y92383334D01*
X25100000Y92416667D02*
X25000000Y92383334D01*
X24833333Y92383334D01*
X24766666Y92416667D01*
X24733333Y92450000D01*
X24700000Y92516667D01*
X24700000Y92583334D01*
X24733333Y92650000D01*
X24766666Y92683334D01*
X24833333Y92716667D01*
X24966666Y92750000D01*
X25033333Y92783334D01*
X25066666Y92816667D01*
X25100000Y92883334D01*
X25100000Y92950000D01*
X25066666Y93016667D01*
X25033333Y93050000D01*
X24966666Y93083334D01*
X24800000Y93083334D01*
X24700000Y93050000D01*
X24100000Y93083334D02*
X24233333Y93083334D01*
X24300000Y93050000D01*
X24333333Y93016667D01*
X24400000Y92916667D01*
X24433333Y92783334D01*
X24433333Y92516667D01*
X24400000Y92450000D01*
X24366666Y92416667D01*
X24300000Y92383334D01*
X24166666Y92383334D01*
X24100000Y92416667D01*
X24066666Y92450000D01*
X24033333Y92516667D01*
X24033333Y92683334D01*
X24066666Y92750000D01*
X24100000Y92783334D01*
X24166666Y92816667D01*
X24300000Y92816667D01*
X24366666Y92783334D01*
X24400000Y92750000D01*
X24433333Y92683334D01*
X19866666Y23550000D02*
X19866666Y23083334D01*
X20033333Y23816667D02*
X20200000Y23316667D01*
X19766666Y23316667D01*
X19566666Y23783334D02*
X19100000Y23783334D01*
X19400000Y23083334D01*
X18533333Y23550000D02*
X18533333Y23083334D01*
X18833333Y23550000D02*
X18833333Y23183334D01*
X18800000Y23116667D01*
X18733333Y23083334D01*
X18633333Y23083334D01*
X18566666Y23116667D01*
X18533333Y23150000D01*
X17966666Y23450000D02*
X18200000Y23450000D01*
X18200000Y23083334D02*
X18200000Y23783334D01*
X17866666Y23783334D01*
X17666666Y23083334D02*
X17300000Y23550000D01*
X17666666Y23550000D02*
X17300000Y23083334D01*
X17066666Y23716667D02*
X17033333Y23750000D01*
X16966666Y23783334D01*
X16800000Y23783334D01*
X16733333Y23750000D01*
X16700000Y23716667D01*
X16666666Y23650000D01*
X16666666Y23583334D01*
X16700000Y23483334D01*
X17100000Y23083334D01*
X16666666Y23083334D01*
X16033333Y23783334D02*
X16366666Y23783334D01*
X16400000Y23450000D01*
X16366666Y23483334D01*
X16300000Y23516667D01*
X16133333Y23516667D01*
X16066666Y23483334D01*
X16033333Y23450000D01*
X16000000Y23383334D01*
X16000000Y23216667D01*
X16033333Y23150000D01*
X16066666Y23116667D01*
X16133333Y23083334D01*
X16300000Y23083334D01*
X16366666Y23116667D01*
X16400000Y23150000D01*
X15800000Y23783334D02*
X15566666Y23083334D01*
X15333333Y23783334D01*
X18150000Y24250000D02*
X18183333Y24216667D01*
X18283333Y24183334D01*
X18350000Y24183334D01*
X18450000Y24216667D01*
X18516666Y24283334D01*
X18550000Y24350000D01*
X18583333Y24483334D01*
X18583333Y24583334D01*
X18550000Y24716667D01*
X18516666Y24783334D01*
X18450000Y24850000D01*
X18350000Y24883334D01*
X18283333Y24883334D01*
X18183333Y24850000D01*
X18150000Y24816667D01*
X17483333Y24183334D02*
X17883333Y24183334D01*
X17683333Y24183334D02*
X17683333Y24883334D01*
X17750000Y24783334D01*
X17816666Y24716667D01*
X17883333Y24683334D01*
X17050000Y24883334D02*
X16983333Y24883334D01*
X16916666Y24850000D01*
X16883333Y24816667D01*
X16850000Y24750000D01*
X16816666Y24616667D01*
X16816666Y24450000D01*
X16850000Y24316667D01*
X16883333Y24250000D01*
X16916666Y24216667D01*
X16983333Y24183334D01*
X17050000Y24183334D01*
X17116666Y24216667D01*
X17150000Y24250000D01*
X17183333Y24316667D01*
X17216666Y24450000D01*
X17216666Y24616667D01*
X17183333Y24750000D01*
X17150000Y24816667D01*
X17116666Y24850000D01*
X17050000Y24883334D01*
X21466666Y14950000D02*
X21466666Y14483334D01*
X21633333Y15216667D02*
X21800000Y14716667D01*
X21366666Y14716667D01*
X21166666Y15183334D02*
X20700000Y15183334D01*
X21000000Y14483334D01*
X20133333Y14950000D02*
X20133333Y14483334D01*
X20433333Y14950000D02*
X20433333Y14583334D01*
X20400000Y14516667D01*
X20333333Y14483334D01*
X20233333Y14483334D01*
X20166666Y14516667D01*
X20133333Y14550000D01*
X19566666Y14850000D02*
X19800000Y14850000D01*
X19800000Y14483334D02*
X19800000Y15183334D01*
X19466666Y15183334D01*
X19266666Y14483334D02*
X18900000Y14950000D01*
X19266666Y14950000D02*
X18900000Y14483334D01*
X18666666Y15116667D02*
X18633333Y15150000D01*
X18566666Y15183334D01*
X18400000Y15183334D01*
X18333333Y15150000D01*
X18300000Y15116667D01*
X18266666Y15050000D01*
X18266666Y14983334D01*
X18300000Y14883334D01*
X18700000Y14483334D01*
X18266666Y14483334D01*
X17633333Y15183334D02*
X17966666Y15183334D01*
X18000000Y14850000D01*
X17966666Y14883334D01*
X17900000Y14916667D01*
X17733333Y14916667D01*
X17666666Y14883334D01*
X17633333Y14850000D01*
X17600000Y14783334D01*
X17600000Y14616667D01*
X17633333Y14550000D01*
X17666666Y14516667D01*
X17733333Y14483334D01*
X17900000Y14483334D01*
X17966666Y14516667D01*
X18000000Y14550000D01*
X17400000Y15183334D02*
X17166666Y14483334D01*
X16933333Y15183334D01*
X20750000Y15650000D02*
X20783333Y15616667D01*
X20883333Y15583334D01*
X20950000Y15583334D01*
X21050000Y15616667D01*
X21116666Y15683334D01*
X21150000Y15750000D01*
X21183333Y15883334D01*
X21183333Y15983334D01*
X21150000Y16116667D01*
X21116666Y16183334D01*
X21050000Y16250000D01*
X20950000Y16283334D01*
X20883333Y16283334D01*
X20783333Y16250000D01*
X20750000Y16216667D01*
X20083333Y15583334D02*
X20483333Y15583334D01*
X20283333Y15583334D02*
X20283333Y16283334D01*
X20350000Y16183334D01*
X20416666Y16116667D01*
X20483333Y16083334D01*
X19416666Y15583334D02*
X19816666Y15583334D01*
X19616666Y15583334D02*
X19616666Y16283334D01*
X19683333Y16183334D01*
X19750000Y16116667D01*
X19816666Y16083334D01*
X6116666Y22083334D02*
X5650000Y21383334D01*
X5650000Y22083334D02*
X6116666Y21383334D01*
X5383333Y21383334D02*
X5383333Y22083334D01*
X5116666Y22083334D01*
X5050000Y22050000D01*
X5016666Y22016667D01*
X4983333Y21950000D01*
X4983333Y21850000D01*
X5016666Y21783334D01*
X5050000Y21750000D01*
X5116666Y21716667D01*
X5383333Y21716667D01*
X4316666Y21383334D02*
X4716666Y21383334D01*
X4516666Y21383334D02*
X4516666Y22083334D01*
X4583333Y21983334D01*
X4650000Y21916667D01*
X4716666Y21883334D01*
X5300000Y94783334D02*
X4833333Y94083334D01*
X4833333Y94783334D02*
X5300000Y94083334D01*
X4600000Y94116667D02*
X4500000Y94083334D01*
X4333333Y94083334D01*
X4266666Y94116667D01*
X4233333Y94150000D01*
X4200000Y94216667D01*
X4200000Y94283334D01*
X4233333Y94350000D01*
X4266666Y94383334D01*
X4333333Y94416667D01*
X4466666Y94450000D01*
X4533333Y94483334D01*
X4566666Y94516667D01*
X4600000Y94583334D01*
X4600000Y94650000D01*
X4566666Y94716667D01*
X4533333Y94750000D01*
X4466666Y94783334D01*
X4300000Y94783334D01*
X4200000Y94750000D01*
X3966666Y94783334D02*
X3533333Y94783334D01*
X3766666Y94516667D01*
X3666666Y94516667D01*
X3600000Y94483334D01*
X3566666Y94450000D01*
X3533333Y94383334D01*
X3533333Y94216667D01*
X3566666Y94150000D01*
X3600000Y94116667D01*
X3666666Y94083334D01*
X3866666Y94083334D01*
X3933333Y94116667D01*
X3966666Y94150000D01*
X5200000Y45083334D02*
X4733333Y44383334D01*
X4733333Y45083334D02*
X5200000Y44383334D01*
X4500000Y44416667D02*
X4400000Y44383334D01*
X4233333Y44383334D01*
X4166666Y44416667D01*
X4133333Y44450000D01*
X4100000Y44516667D01*
X4100000Y44583334D01*
X4133333Y44650000D01*
X4166666Y44683334D01*
X4233333Y44716667D01*
X4366666Y44750000D01*
X4433333Y44783334D01*
X4466666Y44816667D01*
X4500000Y44883334D01*
X4500000Y44950000D01*
X4466666Y45016667D01*
X4433333Y45050000D01*
X4366666Y45083334D01*
X4200000Y45083334D01*
X4100000Y45050000D01*
X3466666Y45083334D02*
X3800000Y45083334D01*
X3833333Y44750000D01*
X3800000Y44783334D01*
X3733333Y44816667D01*
X3566666Y44816667D01*
X3500000Y44783334D01*
X3466666Y44750000D01*
X3433333Y44683334D01*
X3433333Y44516667D01*
X3466666Y44450000D01*
X3500000Y44416667D01*
X3566666Y44383334D01*
X3733333Y44383334D01*
X3800000Y44416667D01*
X3833333Y44450000D01*
X25900000Y39583334D02*
X25433333Y38883334D01*
X25433333Y39583334D02*
X25900000Y38883334D01*
X25200000Y38916667D02*
X25100000Y38883334D01*
X24933333Y38883334D01*
X24866666Y38916667D01*
X24833333Y38950000D01*
X24800000Y39016667D01*
X24800000Y39083334D01*
X24833333Y39150000D01*
X24866666Y39183334D01*
X24933333Y39216667D01*
X25066666Y39250000D01*
X25133333Y39283334D01*
X25166666Y39316667D01*
X25200000Y39383334D01*
X25200000Y39450000D01*
X25166666Y39516667D01*
X25133333Y39550000D01*
X25066666Y39583334D01*
X24900000Y39583334D01*
X24800000Y39550000D01*
X24566666Y39583334D02*
X24100000Y39583334D01*
X24400000Y38883334D01*
M02*
