G04 #@! TF.GenerationSoftware,KiCad,Pcbnew,(5.0.0-rc2)*
G04 #@! TF.CreationDate,2020-07-08T19:37:13+03:00*
G04 #@! TF.ProjectId,OUTPNL2,4F5554504E4C322E6B696361645F7063,rev?*
G04 #@! TF.SameCoordinates,PX2887fa0PY9d5b340*
G04 #@! TF.FileFunction,Copper,L1,Top,Signal*
G04 #@! TF.FilePolarity,Positive*
%FSLAX46Y46*%
G04 Gerber Fmt 4.6, Leading zero omitted, Abs format (unit mm)*
G04 Created by KiCad (PCBNEW (5.0.0-rc2)) date Wed Jul  8 19:37:13 2020*
%MOMM*%
%LPD*%
G01*
G04 APERTURE LIST*
G04 #@! TA.AperFunction,NonConductor*
%ADD10C,0.254000*%
G04 #@! TD*
G04 APERTURE END LIST*
D10*
G36*
X29603000Y397000D02*
X397000Y397000D01*
X397000Y3063669D01*
X4598011Y3063669D01*
X4598011Y2936331D01*
X4676321Y2441905D01*
X4676321Y2441904D01*
X4715670Y2320799D01*
X4942933Y1874770D01*
X5017781Y1771752D01*
X5371752Y1417780D01*
X5474770Y1342933D01*
X5920799Y1115670D01*
X6041904Y1076321D01*
X6528449Y999259D01*
X6559917Y993000D01*
X8440083Y993000D01*
X8471551Y999259D01*
X8958096Y1076321D01*
X9079201Y1115670D01*
X9525230Y1342933D01*
X9628248Y1417781D01*
X9982220Y1771752D01*
X10057067Y1874770D01*
X10284330Y2320799D01*
X10323679Y2441904D01*
X10323679Y2441905D01*
X10401989Y2936331D01*
X10401989Y3063669D01*
X10323679Y3558096D01*
X10317272Y3577816D01*
X10284330Y3679201D01*
X10057067Y4125230D01*
X10004188Y4198011D01*
X9982220Y4228248D01*
X9628248Y4582219D01*
X9525230Y4657067D01*
X9079201Y4884330D01*
X8958096Y4923679D01*
X8471551Y5000741D01*
X8440083Y5007000D01*
X6559917Y5007000D01*
X6528449Y5000741D01*
X6041904Y4923679D01*
X5920799Y4884330D01*
X5474770Y4657067D01*
X5371752Y4582220D01*
X5017781Y4228248D01*
X4942933Y4125230D01*
X4715670Y3679201D01*
X4676321Y3558096D01*
X4598011Y3063669D01*
X397000Y3063669D01*
X397000Y18948661D01*
X10823358Y18948661D01*
X10903000Y18318229D01*
X10903000Y18284512D01*
X10909129Y18269716D01*
X10926099Y18135382D01*
X11206468Y17365076D01*
X11423044Y17029016D01*
X11450611Y16962463D01*
X11493709Y16919365D01*
X11650529Y16676028D01*
X12236213Y16102484D01*
X12429502Y15983572D01*
X12462463Y15950611D01*
X12525567Y15924472D01*
X12934410Y15672951D01*
X13710418Y15408776D01*
X14525670Y15323090D01*
X15195821Y15403000D01*
X15215488Y15403000D01*
X15223438Y15406293D01*
X15339646Y15420150D01*
X16111891Y15695134D01*
X16471085Y15923086D01*
X16537537Y15950611D01*
X16577622Y15990696D01*
X16804022Y16134374D01*
X17381641Y16716040D01*
X17512693Y16925767D01*
X17549389Y16962463D01*
X17576457Y17027811D01*
X17816038Y17411221D01*
X18085624Y18185366D01*
X18096650Y18283668D01*
X18097000Y18284512D01*
X18097000Y18286785D01*
X18177000Y19000000D01*
X18175566Y19102668D01*
X18097000Y19661695D01*
X18097000Y19715488D01*
X18085557Y19743113D01*
X18061480Y19914433D01*
X17770384Y20680749D01*
X17575969Y20973366D01*
X17549389Y21037537D01*
X17501551Y21085375D01*
X17316745Y21363530D01*
X16723111Y21928841D01*
X16562108Y22024818D01*
X16537537Y22049389D01*
X16482982Y22071986D01*
X16018985Y22348584D01*
X15239364Y22601898D01*
X14422995Y22676194D01*
X13829468Y22597000D01*
X13784512Y22597000D01*
X13763149Y22588151D01*
X13610453Y22567777D01*
X12842123Y22282038D01*
X12528224Y22076628D01*
X12462463Y22049389D01*
X12416766Y22003692D01*
X12156192Y21833177D01*
X11586751Y21243504D01*
X11479522Y21066448D01*
X11450611Y21037537D01*
X11425937Y20977968D01*
X11162102Y20542325D01*
X10903351Y19764491D01*
X10823358Y18948661D01*
X397000Y18948661D01*
X397000Y63000000D01*
X10823000Y63000000D01*
X10903000Y62238847D01*
X10903000Y62185056D01*
X10910576Y62166766D01*
X10914277Y62131553D01*
X11184121Y61301061D01*
X11485089Y60779769D01*
X11526731Y60679236D01*
X11565535Y60640432D01*
X11620736Y60544821D01*
X12205041Y59895884D01*
X12589166Y59616801D01*
X12679236Y59526731D01*
X12758097Y59494066D01*
X12911500Y59382612D01*
X13709236Y59027437D01*
X14069522Y58950856D01*
X14185056Y58903000D01*
X14294666Y58903000D01*
X14563385Y58845882D01*
X15436615Y58845882D01*
X15705334Y58903000D01*
X15814944Y58903000D01*
X15930478Y58950856D01*
X16290764Y59027437D01*
X17088500Y59382612D01*
X17241903Y59494066D01*
X17320764Y59526731D01*
X17410834Y59616801D01*
X17794959Y59895884D01*
X18379264Y60544821D01*
X18434465Y60640432D01*
X18473269Y60679236D01*
X18514911Y60779769D01*
X18815879Y61301061D01*
X19085723Y62131553D01*
X19089424Y62166766D01*
X19097000Y62185056D01*
X19097000Y62238847D01*
X19177000Y63000000D01*
X19097000Y63761153D01*
X19097000Y63814944D01*
X19089424Y63833234D01*
X19085723Y63868447D01*
X18815879Y64698939D01*
X18514911Y65220231D01*
X18473269Y65320764D01*
X18434465Y65359568D01*
X18379264Y65455179D01*
X17794959Y66104116D01*
X17410834Y66383199D01*
X17320764Y66473269D01*
X17241903Y66505934D01*
X17088500Y66617388D01*
X16290764Y66972563D01*
X15930478Y67049144D01*
X15814944Y67097000D01*
X15705334Y67097000D01*
X15436615Y67154118D01*
X14563385Y67154118D01*
X14294666Y67097000D01*
X14185056Y67097000D01*
X14069522Y67049144D01*
X13709236Y66972563D01*
X12911500Y66617388D01*
X12758097Y66505934D01*
X12679236Y66473269D01*
X12589166Y66383199D01*
X12205041Y66104116D01*
X11620736Y65455179D01*
X11565535Y65359568D01*
X11526731Y65320764D01*
X11485089Y65220231D01*
X11184121Y64698939D01*
X10914277Y63868447D01*
X10910576Y63833234D01*
X10903000Y63814944D01*
X10903000Y63761153D01*
X10823000Y63000000D01*
X397000Y63000000D01*
X397000Y84948661D01*
X5323358Y84948661D01*
X5403000Y84318229D01*
X5403000Y84284512D01*
X5409129Y84269716D01*
X5426099Y84135382D01*
X5706468Y83365076D01*
X5923044Y83029016D01*
X5950611Y82962463D01*
X5993709Y82919365D01*
X6150529Y82676028D01*
X6736213Y82102484D01*
X6929502Y81983572D01*
X6962463Y81950611D01*
X7025567Y81924472D01*
X7434410Y81672951D01*
X8210418Y81408776D01*
X9025670Y81323090D01*
X9695821Y81403000D01*
X9715488Y81403000D01*
X9723438Y81406293D01*
X9839646Y81420150D01*
X10611891Y81695134D01*
X10971085Y81923086D01*
X11037537Y81950611D01*
X11077622Y81990696D01*
X11304022Y82134374D01*
X11881641Y82716040D01*
X12012693Y82925767D01*
X12049389Y82962463D01*
X12076457Y83027811D01*
X12316038Y83411221D01*
X12585624Y84185366D01*
X12596650Y84283668D01*
X12597000Y84284512D01*
X12597000Y84286785D01*
X12671241Y84948661D01*
X17323358Y84948661D01*
X17403000Y84318229D01*
X17403000Y84284512D01*
X17409129Y84269716D01*
X17426099Y84135382D01*
X17706468Y83365076D01*
X17923044Y83029016D01*
X17950611Y82962463D01*
X17993709Y82919365D01*
X18150529Y82676028D01*
X18736213Y82102484D01*
X18929502Y81983572D01*
X18962463Y81950611D01*
X19025567Y81924472D01*
X19434410Y81672951D01*
X20210418Y81408776D01*
X21025670Y81323090D01*
X21695821Y81403000D01*
X21715488Y81403000D01*
X21723438Y81406293D01*
X21839646Y81420150D01*
X22611891Y81695134D01*
X22971085Y81923086D01*
X23037537Y81950611D01*
X23077622Y81990696D01*
X23304022Y82134374D01*
X23881641Y82716040D01*
X24012693Y82925767D01*
X24049389Y82962463D01*
X24076457Y83027811D01*
X24316038Y83411221D01*
X24585624Y84185366D01*
X24596650Y84283668D01*
X24597000Y84284512D01*
X24597000Y84286785D01*
X24677000Y85000000D01*
X24675566Y85102668D01*
X24597000Y85661695D01*
X24597000Y85715488D01*
X24585557Y85743113D01*
X24561480Y85914433D01*
X24270384Y86680749D01*
X24075969Y86973366D01*
X24049389Y87037537D01*
X24001551Y87085375D01*
X23816745Y87363530D01*
X23223111Y87928841D01*
X23062108Y88024818D01*
X23037537Y88049389D01*
X22982982Y88071986D01*
X22518985Y88348584D01*
X21739364Y88601898D01*
X20922995Y88676194D01*
X20329468Y88597000D01*
X20284512Y88597000D01*
X20263149Y88588151D01*
X20110453Y88567777D01*
X19342123Y88282038D01*
X19028224Y88076628D01*
X18962463Y88049389D01*
X18916766Y88003692D01*
X18656192Y87833177D01*
X18086751Y87243504D01*
X17979522Y87066448D01*
X17950611Y87037537D01*
X17925937Y86977968D01*
X17662102Y86542325D01*
X17403351Y85764491D01*
X17323358Y84948661D01*
X12671241Y84948661D01*
X12677000Y85000000D01*
X12675566Y85102668D01*
X12597000Y85661695D01*
X12597000Y85715488D01*
X12585557Y85743113D01*
X12561480Y85914433D01*
X12270384Y86680749D01*
X12075969Y86973366D01*
X12049389Y87037537D01*
X12001551Y87085375D01*
X11816745Y87363530D01*
X11223111Y87928841D01*
X11062108Y88024818D01*
X11037537Y88049389D01*
X10982982Y88071986D01*
X10518985Y88348584D01*
X9739364Y88601898D01*
X8922995Y88676194D01*
X8329468Y88597000D01*
X8284512Y88597000D01*
X8263149Y88588151D01*
X8110453Y88567777D01*
X7342123Y88282038D01*
X7028224Y88076628D01*
X6962463Y88049389D01*
X6916766Y88003692D01*
X6656192Y87833177D01*
X6086751Y87243504D01*
X5979522Y87066448D01*
X5950611Y87037537D01*
X5925937Y86977968D01*
X5662102Y86542325D01*
X5403351Y85764491D01*
X5323358Y84948661D01*
X397000Y84948661D01*
X397000Y106948661D01*
X11323358Y106948661D01*
X11403000Y106318229D01*
X11403000Y106284512D01*
X11409129Y106269716D01*
X11426099Y106135382D01*
X11706468Y105365076D01*
X11923044Y105029016D01*
X11950611Y104962463D01*
X11993709Y104919365D01*
X12150529Y104676028D01*
X12736213Y104102484D01*
X12929502Y103983572D01*
X12962463Y103950611D01*
X13025567Y103924472D01*
X13434410Y103672951D01*
X14210418Y103408776D01*
X15025670Y103323090D01*
X15695821Y103403000D01*
X15715488Y103403000D01*
X15723438Y103406293D01*
X15839646Y103420150D01*
X16611891Y103695134D01*
X16971085Y103923086D01*
X17037537Y103950611D01*
X17077622Y103990696D01*
X17304022Y104134374D01*
X17881641Y104716040D01*
X18012693Y104925767D01*
X18049389Y104962463D01*
X18076457Y105027811D01*
X18316038Y105411221D01*
X18585624Y106185366D01*
X18596650Y106283668D01*
X18597000Y106284512D01*
X18597000Y106286785D01*
X18677000Y107000000D01*
X18675566Y107102668D01*
X18597000Y107661695D01*
X18597000Y107715488D01*
X18585557Y107743113D01*
X18561480Y107914433D01*
X18270384Y108680749D01*
X18075969Y108973366D01*
X18049389Y109037537D01*
X18001551Y109085375D01*
X17816745Y109363530D01*
X17223111Y109928841D01*
X17062108Y110024818D01*
X17037537Y110049389D01*
X16982982Y110071986D01*
X16518985Y110348584D01*
X15739364Y110601898D01*
X14922995Y110676194D01*
X14329468Y110597000D01*
X14284512Y110597000D01*
X14263149Y110588151D01*
X14110453Y110567777D01*
X13342123Y110282038D01*
X13028224Y110076628D01*
X12962463Y110049389D01*
X12916766Y110003692D01*
X12656192Y109833177D01*
X12086751Y109243504D01*
X11979522Y109066448D01*
X11950611Y109037537D01*
X11925937Y108977968D01*
X11662102Y108542325D01*
X11403351Y107764491D01*
X11323358Y106948661D01*
X397000Y106948661D01*
X397000Y125563669D01*
X4598011Y125563669D01*
X4598011Y125436331D01*
X4676321Y124941905D01*
X4676321Y124941904D01*
X4715670Y124820799D01*
X4942933Y124374770D01*
X5017781Y124271752D01*
X5371752Y123917780D01*
X5474770Y123842933D01*
X5920799Y123615670D01*
X6041904Y123576321D01*
X6528449Y123499259D01*
X6559917Y123493000D01*
X8440083Y123493000D01*
X8471551Y123499259D01*
X8958096Y123576321D01*
X9079201Y123615670D01*
X9525230Y123842933D01*
X9628248Y123917781D01*
X9982220Y124271752D01*
X10057067Y124374770D01*
X10284330Y124820799D01*
X10323679Y124941904D01*
X10323679Y124941905D01*
X10401989Y125436331D01*
X10401989Y125563669D01*
X10323679Y126058096D01*
X10317272Y126077816D01*
X10284330Y126179201D01*
X10057067Y126625230D01*
X10004188Y126698011D01*
X9982220Y126728248D01*
X9628248Y127082219D01*
X9525230Y127157067D01*
X9079201Y127384330D01*
X8958096Y127423679D01*
X8471551Y127500741D01*
X8440083Y127507000D01*
X6559917Y127507000D01*
X6528449Y127500741D01*
X6041904Y127423679D01*
X5920799Y127384330D01*
X5474770Y127157067D01*
X5371752Y127082220D01*
X5017781Y126728248D01*
X4942933Y126625230D01*
X4715670Y126179201D01*
X4676321Y126058096D01*
X4598011Y125563669D01*
X397000Y125563669D01*
X396999Y128103000D01*
X29603001Y128103000D01*
X29603000Y397000D01*
X29603000Y397000D01*
G37*
X29603000Y397000D02*
X397000Y397000D01*
X397000Y3063669D01*
X4598011Y3063669D01*
X4598011Y2936331D01*
X4676321Y2441905D01*
X4676321Y2441904D01*
X4715670Y2320799D01*
X4942933Y1874770D01*
X5017781Y1771752D01*
X5371752Y1417780D01*
X5474770Y1342933D01*
X5920799Y1115670D01*
X6041904Y1076321D01*
X6528449Y999259D01*
X6559917Y993000D01*
X8440083Y993000D01*
X8471551Y999259D01*
X8958096Y1076321D01*
X9079201Y1115670D01*
X9525230Y1342933D01*
X9628248Y1417781D01*
X9982220Y1771752D01*
X10057067Y1874770D01*
X10284330Y2320799D01*
X10323679Y2441904D01*
X10323679Y2441905D01*
X10401989Y2936331D01*
X10401989Y3063669D01*
X10323679Y3558096D01*
X10317272Y3577816D01*
X10284330Y3679201D01*
X10057067Y4125230D01*
X10004188Y4198011D01*
X9982220Y4228248D01*
X9628248Y4582219D01*
X9525230Y4657067D01*
X9079201Y4884330D01*
X8958096Y4923679D01*
X8471551Y5000741D01*
X8440083Y5007000D01*
X6559917Y5007000D01*
X6528449Y5000741D01*
X6041904Y4923679D01*
X5920799Y4884330D01*
X5474770Y4657067D01*
X5371752Y4582220D01*
X5017781Y4228248D01*
X4942933Y4125230D01*
X4715670Y3679201D01*
X4676321Y3558096D01*
X4598011Y3063669D01*
X397000Y3063669D01*
X397000Y18948661D01*
X10823358Y18948661D01*
X10903000Y18318229D01*
X10903000Y18284512D01*
X10909129Y18269716D01*
X10926099Y18135382D01*
X11206468Y17365076D01*
X11423044Y17029016D01*
X11450611Y16962463D01*
X11493709Y16919365D01*
X11650529Y16676028D01*
X12236213Y16102484D01*
X12429502Y15983572D01*
X12462463Y15950611D01*
X12525567Y15924472D01*
X12934410Y15672951D01*
X13710418Y15408776D01*
X14525670Y15323090D01*
X15195821Y15403000D01*
X15215488Y15403000D01*
X15223438Y15406293D01*
X15339646Y15420150D01*
X16111891Y15695134D01*
X16471085Y15923086D01*
X16537537Y15950611D01*
X16577622Y15990696D01*
X16804022Y16134374D01*
X17381641Y16716040D01*
X17512693Y16925767D01*
X17549389Y16962463D01*
X17576457Y17027811D01*
X17816038Y17411221D01*
X18085624Y18185366D01*
X18096650Y18283668D01*
X18097000Y18284512D01*
X18097000Y18286785D01*
X18177000Y19000000D01*
X18175566Y19102668D01*
X18097000Y19661695D01*
X18097000Y19715488D01*
X18085557Y19743113D01*
X18061480Y19914433D01*
X17770384Y20680749D01*
X17575969Y20973366D01*
X17549389Y21037537D01*
X17501551Y21085375D01*
X17316745Y21363530D01*
X16723111Y21928841D01*
X16562108Y22024818D01*
X16537537Y22049389D01*
X16482982Y22071986D01*
X16018985Y22348584D01*
X15239364Y22601898D01*
X14422995Y22676194D01*
X13829468Y22597000D01*
X13784512Y22597000D01*
X13763149Y22588151D01*
X13610453Y22567777D01*
X12842123Y22282038D01*
X12528224Y22076628D01*
X12462463Y22049389D01*
X12416766Y22003692D01*
X12156192Y21833177D01*
X11586751Y21243504D01*
X11479522Y21066448D01*
X11450611Y21037537D01*
X11425937Y20977968D01*
X11162102Y20542325D01*
X10903351Y19764491D01*
X10823358Y18948661D01*
X397000Y18948661D01*
X397000Y63000000D01*
X10823000Y63000000D01*
X10903000Y62238847D01*
X10903000Y62185056D01*
X10910576Y62166766D01*
X10914277Y62131553D01*
X11184121Y61301061D01*
X11485089Y60779769D01*
X11526731Y60679236D01*
X11565535Y60640432D01*
X11620736Y60544821D01*
X12205041Y59895884D01*
X12589166Y59616801D01*
X12679236Y59526731D01*
X12758097Y59494066D01*
X12911500Y59382612D01*
X13709236Y59027437D01*
X14069522Y58950856D01*
X14185056Y58903000D01*
X14294666Y58903000D01*
X14563385Y58845882D01*
X15436615Y58845882D01*
X15705334Y58903000D01*
X15814944Y58903000D01*
X15930478Y58950856D01*
X16290764Y59027437D01*
X17088500Y59382612D01*
X17241903Y59494066D01*
X17320764Y59526731D01*
X17410834Y59616801D01*
X17794959Y59895884D01*
X18379264Y60544821D01*
X18434465Y60640432D01*
X18473269Y60679236D01*
X18514911Y60779769D01*
X18815879Y61301061D01*
X19085723Y62131553D01*
X19089424Y62166766D01*
X19097000Y62185056D01*
X19097000Y62238847D01*
X19177000Y63000000D01*
X19097000Y63761153D01*
X19097000Y63814944D01*
X19089424Y63833234D01*
X19085723Y63868447D01*
X18815879Y64698939D01*
X18514911Y65220231D01*
X18473269Y65320764D01*
X18434465Y65359568D01*
X18379264Y65455179D01*
X17794959Y66104116D01*
X17410834Y66383199D01*
X17320764Y66473269D01*
X17241903Y66505934D01*
X17088500Y66617388D01*
X16290764Y66972563D01*
X15930478Y67049144D01*
X15814944Y67097000D01*
X15705334Y67097000D01*
X15436615Y67154118D01*
X14563385Y67154118D01*
X14294666Y67097000D01*
X14185056Y67097000D01*
X14069522Y67049144D01*
X13709236Y66972563D01*
X12911500Y66617388D01*
X12758097Y66505934D01*
X12679236Y66473269D01*
X12589166Y66383199D01*
X12205041Y66104116D01*
X11620736Y65455179D01*
X11565535Y65359568D01*
X11526731Y65320764D01*
X11485089Y65220231D01*
X11184121Y64698939D01*
X10914277Y63868447D01*
X10910576Y63833234D01*
X10903000Y63814944D01*
X10903000Y63761153D01*
X10823000Y63000000D01*
X397000Y63000000D01*
X397000Y84948661D01*
X5323358Y84948661D01*
X5403000Y84318229D01*
X5403000Y84284512D01*
X5409129Y84269716D01*
X5426099Y84135382D01*
X5706468Y83365076D01*
X5923044Y83029016D01*
X5950611Y82962463D01*
X5993709Y82919365D01*
X6150529Y82676028D01*
X6736213Y82102484D01*
X6929502Y81983572D01*
X6962463Y81950611D01*
X7025567Y81924472D01*
X7434410Y81672951D01*
X8210418Y81408776D01*
X9025670Y81323090D01*
X9695821Y81403000D01*
X9715488Y81403000D01*
X9723438Y81406293D01*
X9839646Y81420150D01*
X10611891Y81695134D01*
X10971085Y81923086D01*
X11037537Y81950611D01*
X11077622Y81990696D01*
X11304022Y82134374D01*
X11881641Y82716040D01*
X12012693Y82925767D01*
X12049389Y82962463D01*
X12076457Y83027811D01*
X12316038Y83411221D01*
X12585624Y84185366D01*
X12596650Y84283668D01*
X12597000Y84284512D01*
X12597000Y84286785D01*
X12671241Y84948661D01*
X17323358Y84948661D01*
X17403000Y84318229D01*
X17403000Y84284512D01*
X17409129Y84269716D01*
X17426099Y84135382D01*
X17706468Y83365076D01*
X17923044Y83029016D01*
X17950611Y82962463D01*
X17993709Y82919365D01*
X18150529Y82676028D01*
X18736213Y82102484D01*
X18929502Y81983572D01*
X18962463Y81950611D01*
X19025567Y81924472D01*
X19434410Y81672951D01*
X20210418Y81408776D01*
X21025670Y81323090D01*
X21695821Y81403000D01*
X21715488Y81403000D01*
X21723438Y81406293D01*
X21839646Y81420150D01*
X22611891Y81695134D01*
X22971085Y81923086D01*
X23037537Y81950611D01*
X23077622Y81990696D01*
X23304022Y82134374D01*
X23881641Y82716040D01*
X24012693Y82925767D01*
X24049389Y82962463D01*
X24076457Y83027811D01*
X24316038Y83411221D01*
X24585624Y84185366D01*
X24596650Y84283668D01*
X24597000Y84284512D01*
X24597000Y84286785D01*
X24677000Y85000000D01*
X24675566Y85102668D01*
X24597000Y85661695D01*
X24597000Y85715488D01*
X24585557Y85743113D01*
X24561480Y85914433D01*
X24270384Y86680749D01*
X24075969Y86973366D01*
X24049389Y87037537D01*
X24001551Y87085375D01*
X23816745Y87363530D01*
X23223111Y87928841D01*
X23062108Y88024818D01*
X23037537Y88049389D01*
X22982982Y88071986D01*
X22518985Y88348584D01*
X21739364Y88601898D01*
X20922995Y88676194D01*
X20329468Y88597000D01*
X20284512Y88597000D01*
X20263149Y88588151D01*
X20110453Y88567777D01*
X19342123Y88282038D01*
X19028224Y88076628D01*
X18962463Y88049389D01*
X18916766Y88003692D01*
X18656192Y87833177D01*
X18086751Y87243504D01*
X17979522Y87066448D01*
X17950611Y87037537D01*
X17925937Y86977968D01*
X17662102Y86542325D01*
X17403351Y85764491D01*
X17323358Y84948661D01*
X12671241Y84948661D01*
X12677000Y85000000D01*
X12675566Y85102668D01*
X12597000Y85661695D01*
X12597000Y85715488D01*
X12585557Y85743113D01*
X12561480Y85914433D01*
X12270384Y86680749D01*
X12075969Y86973366D01*
X12049389Y87037537D01*
X12001551Y87085375D01*
X11816745Y87363530D01*
X11223111Y87928841D01*
X11062108Y88024818D01*
X11037537Y88049389D01*
X10982982Y88071986D01*
X10518985Y88348584D01*
X9739364Y88601898D01*
X8922995Y88676194D01*
X8329468Y88597000D01*
X8284512Y88597000D01*
X8263149Y88588151D01*
X8110453Y88567777D01*
X7342123Y88282038D01*
X7028224Y88076628D01*
X6962463Y88049389D01*
X6916766Y88003692D01*
X6656192Y87833177D01*
X6086751Y87243504D01*
X5979522Y87066448D01*
X5950611Y87037537D01*
X5925937Y86977968D01*
X5662102Y86542325D01*
X5403351Y85764491D01*
X5323358Y84948661D01*
X397000Y84948661D01*
X397000Y106948661D01*
X11323358Y106948661D01*
X11403000Y106318229D01*
X11403000Y106284512D01*
X11409129Y106269716D01*
X11426099Y106135382D01*
X11706468Y105365076D01*
X11923044Y105029016D01*
X11950611Y104962463D01*
X11993709Y104919365D01*
X12150529Y104676028D01*
X12736213Y104102484D01*
X12929502Y103983572D01*
X12962463Y103950611D01*
X13025567Y103924472D01*
X13434410Y103672951D01*
X14210418Y103408776D01*
X15025670Y103323090D01*
X15695821Y103403000D01*
X15715488Y103403000D01*
X15723438Y103406293D01*
X15839646Y103420150D01*
X16611891Y103695134D01*
X16971085Y103923086D01*
X17037537Y103950611D01*
X17077622Y103990696D01*
X17304022Y104134374D01*
X17881641Y104716040D01*
X18012693Y104925767D01*
X18049389Y104962463D01*
X18076457Y105027811D01*
X18316038Y105411221D01*
X18585624Y106185366D01*
X18596650Y106283668D01*
X18597000Y106284512D01*
X18597000Y106286785D01*
X18677000Y107000000D01*
X18675566Y107102668D01*
X18597000Y107661695D01*
X18597000Y107715488D01*
X18585557Y107743113D01*
X18561480Y107914433D01*
X18270384Y108680749D01*
X18075969Y108973366D01*
X18049389Y109037537D01*
X18001551Y109085375D01*
X17816745Y109363530D01*
X17223111Y109928841D01*
X17062108Y110024818D01*
X17037537Y110049389D01*
X16982982Y110071986D01*
X16518985Y110348584D01*
X15739364Y110601898D01*
X14922995Y110676194D01*
X14329468Y110597000D01*
X14284512Y110597000D01*
X14263149Y110588151D01*
X14110453Y110567777D01*
X13342123Y110282038D01*
X13028224Y110076628D01*
X12962463Y110049389D01*
X12916766Y110003692D01*
X12656192Y109833177D01*
X12086751Y109243504D01*
X11979522Y109066448D01*
X11950611Y109037537D01*
X11925937Y108977968D01*
X11662102Y108542325D01*
X11403351Y107764491D01*
X11323358Y106948661D01*
X397000Y106948661D01*
X397000Y125563669D01*
X4598011Y125563669D01*
X4598011Y125436331D01*
X4676321Y124941905D01*
X4676321Y124941904D01*
X4715670Y124820799D01*
X4942933Y124374770D01*
X5017781Y124271752D01*
X5371752Y123917780D01*
X5474770Y123842933D01*
X5920799Y123615670D01*
X6041904Y123576321D01*
X6528449Y123499259D01*
X6559917Y123493000D01*
X8440083Y123493000D01*
X8471551Y123499259D01*
X8958096Y123576321D01*
X9079201Y123615670D01*
X9525230Y123842933D01*
X9628248Y123917781D01*
X9982220Y124271752D01*
X10057067Y124374770D01*
X10284330Y124820799D01*
X10323679Y124941904D01*
X10323679Y124941905D01*
X10401989Y125436331D01*
X10401989Y125563669D01*
X10323679Y126058096D01*
X10317272Y126077816D01*
X10284330Y126179201D01*
X10057067Y126625230D01*
X10004188Y126698011D01*
X9982220Y126728248D01*
X9628248Y127082219D01*
X9525230Y127157067D01*
X9079201Y127384330D01*
X8958096Y127423679D01*
X8471551Y127500741D01*
X8440083Y127507000D01*
X6559917Y127507000D01*
X6528449Y127500741D01*
X6041904Y127423679D01*
X5920799Y127384330D01*
X5474770Y127157067D01*
X5371752Y127082220D01*
X5017781Y126728248D01*
X4942933Y126625230D01*
X4715670Y126179201D01*
X4676321Y126058096D01*
X4598011Y125563669D01*
X397000Y125563669D01*
X396999Y128103000D01*
X29603001Y128103000D01*
X29603000Y397000D01*
M02*
